<?xml version="1.0" standalone="no"?>
<!DOCTYPE svg PUBLIC "-//W3C//DTD SVG 1.1//EN" "http://www.w3.org/Graphics/SVG/1.1/DTD/svg11.dtd" >
<svg>
<metadata>
Created by FontForge 20090622 at Tue Jul 11 06:05:47 2017
 By deploy user
Generated for www.TeluguFont.com
</metadata>
<defs>
<font id="TeluguFont" horiz-adv-x="2" >
  <font-face 
    font-family="TeluguFont"
    font-weight="400"
    font-stretch="normal"
    units-per-em="1000"
    panose-1="0 0 4 0 0 0 0 0 0 0"
    ascent="800"
    descent="-200"
    x-height="298"
    cap-height="360"
    bbox="-440 -382 667 750"
    underline-thickness="20"
    underline-position="-212"
    unicode-range="U+0020-U+2039"
  />
<missing-glyph horiz-adv-x="500" 
d="M63 0v750h375v-750h-375zM125 63h250v625h-250v-625z" />
    <glyph glyph-name=".notdef" horiz-adv-x="500" 
d="M63 0v750h375v-750h-375zM125 63h250v625h-250v-625z" />
    <glyph glyph-name=".null" horiz-adv-x="0" 
 />
    <glyph glyph-name="nonmarkingreturn" horiz-adv-x="229" 
 />
    <glyph glyph-name="space" unicode=" " horiz-adv-x="229" 
 />
    <glyph glyph-name="glyph4" horiz-adv-x="229" 
 />
    <glyph glyph-name="glyph5" horiz-adv-x="229" 
 />
    <glyph glyph-name="exclam" unicode="!" horiz-adv-x="171" 
d="M57 -2h-17l-41 406q-1 14 7 26.5t22 12.5h39q33 0 29 -39zM47 -167q-21 0 -34 16t-13 38q0 20 13.5 36.5t33.5 16.5q50 0 50 -53q0 -23 -13.5 -38.5t-36.5 -15.5z" />
    <glyph glyph-name="quotedbl" unicode="&#x22;" horiz-adv-x="188" 
d="M29 481q0 49 33.5 78.5t83.5 29.5v-26l-30 -3q-20 -6 -35 -21q-11 -14 -17 -29q-2 -10 -5 -30l7 10q11 11 29 11q43 0 43 -47q0 -19 -15 -32t-34 -13q-28 0 -45 23q-15 20 -15 49z" />
    <glyph glyph-name="numbersign" unicode="#" horiz-adv-x="31" 
 />
    <glyph glyph-name="dollar" unicode="$" horiz-adv-x="582" 
d="M486 -114q-57 -95 -191 -95q-104 0 -163 65t-59 170q0 31 3 53q2 14 12 14q7 0 7 -13v-26q0 -75 32 -127q57 -93 170 -93q96 0 153 65q54 61 54 159q0 13 -1 25q-1 11 6 11t9 -11q5 -26 5 -55q0 -80 -37 -142zM363 200q36 -42 36 -96q0 -43 -24 -74t-66 -31
q-35 0 -57.5 26.5t-22.5 62.5q0 79 92 120q-33 22 -63 22t-53.5 -20.5t-23.5 -49.5q0 -22 -20 -22q-21 0 -21 27q0 41 30 68t72 27q55 0 102 -40q64 44 64 123q0 48 -27.5 81t-74.5 38q20 -29 20 -65q0 -33 -20.5 -55.5t-53.5 -22.5q-77 0 -77 78q0 32 20.5 58.5t51.5 37.5
q-29 29 -29 65q0 31 20 49t51 18q25 0 45 -16t23 -41q3 -29 -14 -29q-13 0 -13 12q-2 38 -42 41q-17 1 -28 -13.5t-11 -31.5q0 -25 24 -50q72 4 120.5 -41t48.5 -117q0 -94 -79 -139zM275 462q-68 -10 -68 -63q0 -49 44 -49q23 0 37 16.5t14 40.5q0 25 -27 55zM344 187
q-31 -12 -54 -36q-26 -28 -26 -58q0 -43 50 -43q27 0 42 19.5t15 47.5q0 41 -27 70z" />
    <glyph glyph-name="percent" unicode="%" horiz-adv-x="229" 
d="M308 0q-60 0 -96 67q-22 -66 -85 -66q-41 0 -68.5 29.5t-27.5 70.5q0 43 25.5 74.5t67.5 31.5q34 0 58.5 -22.5t32.5 -56.5q38 -74 93 -74q83 0 83 156q0 59 -35 127q-37 72 -86 97q-26 13 -59 15q26 -30 26 -70q0 -32 -23 -55t-55 -23q-36 0 -57 22t-21 59q0 39 30 70
t69 31q117 0 182 -94q57 -82 57 -204q0 -71 -21 -119q-29 -66 -90 -66zM124 177q-27 1 -45 -16.5t-18 -44.5q0 -62 62 -62q61 0 61 65q0 57 -60 58zM181 448q-28 -3 -48 -20.5t-20 -44.5q0 -48 44 -48q50 0 50 58q0 32 -26 55z" />
    <glyph glyph-name="ampersand" unicode="&#x26;" horiz-adv-x="229" 
d="M206 -71q3 -6 3 -14q0 -33 -36 -33q-33 0 -33 34l3 14l29 68h8zM187 145q0 -63 -34 -104q-36 -44 -97 -44q-45 0 -75 28t-41 73l-4 17l-2 16q0 9 7 10q6 -7 8 -13l7 -14l10 -21l9 -16q1 -2 14 -15q30 -31 64 -31q51 0 78 38q24 33 24 86t-27 91q-30 43 -81 43l-23 3
q-7 3 -8 13q0 17 29 17q67 0 107 -57q35 -50 35 -120z" />
    <glyph glyph-name="quotesingle" unicode="'" horiz-adv-x="185" 
d="M147 517q0 -49 -33.5 -78.5t-83.5 -29.5v26l30 3q20 6 35 21q11 14 17 29q2 10 5 30l-7 -10q-11 -11 -29 -11q-43 0 -43 47q0 19 15 32t34 13q28 0 44 -21.5t16 -50.5z" />
    <glyph glyph-name="parenleft" unicode="(" horiz-adv-x="231" 
d="M192 -70q-65 15 -111 95q-42 72 -42 144q0 122 92 205q30 27 61 36v-36q-52 -30 -82.5 -86.5t-30.5 -118.5q0 -60 31 -116.5t82 -86.5v-36z" />
    <glyph glyph-name="parenright" unicode=")" horiz-adv-x="226" 
d="M188 165q0 -117 -93 -201q-27 -24 -57 -33v35q49 29 79.5 85t30.5 114q0 61 -29.5 116.5t-80.5 84.5v35q58 -14 107 -90q43 -66 43 -146z" />
    <glyph glyph-name="asterisk" unicode="*" horiz-adv-x="292" 
d="M130 -255q-43 0 -59 43q-20 -42 -62 -42q-27 0 -45 21.5t-18 48.5q0 30 17.5 50t46.5 20q43 0 58 -39q11 -29 19 -39q18 -23 47 -23q63 0 63 77q0 79 -70 154q-87 93 -87 175q0 42 23 72q25 34 65 34q80 0 80 -82q0 -22 -17 -22q-15 0 -15 17q0 22 -14.5 37t-36.5 15
q-27 0 -44 -24.5t-17 -52.5q0 -51 38 -100l54 -68q62 -78 62 -151q0 -49 -19 -81q-23 -40 -69 -40zM11 -137q-17 0 -31.5 -12t-14.5 -29q0 -37 42 -37q45 0 46 37q1 18 -11.5 29.5t-30.5 11.5z" />
    <glyph glyph-name="plus" unicode="+" horiz-adv-x="298" 
d="M167 -110q28 -32 28 -81q0 -34 -18.5 -57t-51.5 -23q-26 0 -44.5 21.5t-18.5 47.5t14.5 52t36.5 37q8 4 19 11q-20 10 -43 10q-40 0 -60 -38q-5 -12 -16 -12q-13 0 -13 15q0 7 6 17q25 42 74 42q27 0 59 -16q4 -2 12 -8q66 38 66 135q0 136 -75 178q-12 0 -31 9.5
t-19 19.5q0 18 17 16q13 -1 35 -12q93 -45 93 -213q0 -103 -70 -151zM151 -119q-61 -25 -64 -68q-3 -44 43 -44q45 0 45 44q0 41 -24 68z" />
    <glyph glyph-name="comma" unicode="," horiz-adv-x="157" 
d="M22 -116q-3 -1 -3 44q0 7 28 24q5 3 17 27q2 4 0 21q-3 -3 -7 -2q-8 2 -10 2q-26 0 -26 35q0 32 25 37q12 2 23 2q46 0 49 -50q2 -30 -2.5 -44t-21.5 -42q-7 -11 -34.5 -31t-37.5 -23z" />
    <glyph glyph-name="hyphen" unicode="-" horiz-adv-x="6" 
d="M2 200.5v-0.5v-1.5t-1 -0.5l-0.5 0.5t-0.5 1.5l0.5 0.5l0.5 0.5q1 0 1 -0.5z" />
    <glyph glyph-name="hyphen" unicode="&#x2010;" horiz-adv-x="6" 
d="M2 200.5v-0.5v-1.5t-1 -0.5l-0.5 0.5t-0.5 1.5l0.5 0.5l0.5 0.5q1 0 1 -0.5z" />
    <glyph glyph-name="period" unicode="." horiz-adv-x="156" 
d="M30 47q0 20 14.5 34.5t35.5 14.5q20 0 34.5 -14.5t14.5 -34.5q0 -21 -14.5 -35.5t-34.5 -14.5q-21 0 -35.5 14.5t-14.5 35.5z" />
    <glyph glyph-name="slash" unicode="/" horiz-adv-x="235" 
d="M53 -40q-5 -16 -21 -10q-10 4 -6 19l155 539q5 16 18 13q12 -3 7 -22z" />
    <glyph glyph-name="zero" unicode="0" horiz-adv-x="342" 
d="M322 174q0 -84 -32 -122q-48 -57 -119 -57q-68 0 -115 54q-36 41 -36 125v118q0 74 36 115q47 54 115 54q71 0 112 -50q39 -46 39 -119v-118zM280 180v101q0 65 -21 94q-24 44 -88 44q-88 0 -105 -91l-3 -47v-101l3 -58q3 -21 16 -44q33 -42 89 -42q65 0 93 52
q10 19 12 42z" />
    <glyph glyph-name="one" unicode="1" horiz-adv-x="342" 
d="M217 3h-44v386l-62 -33l-4 45l110 52v-450z" />
    <glyph glyph-name="two" unicode="2" horiz-adv-x="342" 
d="M311 324q0 -58 -40 -98l-49 -49l-139 -133l225 -4v-37h-285l-1 36l174 168q72 70 72 116q0 41 -30 68.5t-71 27.5q-55 0 -86 -46q-5 -10 -10 -30l-3 -33h-43q0 66 40 108.5t106 42.5q55 0 97.5 -41.5t42.5 -95.5z" />
    <glyph glyph-name="three" unicode="3" horiz-adv-x="342" 
d="M310 139q0 -59 -43.5 -101.5t-102.5 -42.5q-61 0 -101 42.5t-40 104.5h41q0 -27 16 -59q32 -47 83 -47q45 0 74.5 29t29.5 74q0 71 -70 96l-27 6l-32 1v36l13 -1q35 -3 60 17.5t25 55.5q0 32 -20 50.5t-52 18.5t-50.5 -21.5t-18.5 -54.5h-42q0 51 32 84.5t83 33.5
q47 0 79.5 -34t32.5 -81q0 -48 -45 -84q31 -17 53 -52.5t22 -70.5z" />
    <glyph glyph-name="four" unicode="4" horiz-adv-x="342" 
d="M323 85l-40 -1l-1 -81h-42l-4 81l-227 1l-1 37l222 331l52 -1l1 -326l40 -4v-37zM236 126v262l-174 -262h174z" />
    <glyph glyph-name="five" unicode="5" horiz-adv-x="342" 
d="M325 153q0 -66 -43.5 -112t-109.5 -46q-61 0 -104 44q-41 41 -50 103h42q0 -45 33 -75.5t78 -30.5q49 0 79.5 33.5t30.5 82.5t-30.5 82.5t-79.5 33.5q-55 0 -98 -47l-31 13l42 219h202v-37l-168 -1l-22 -122q14 8 36 13l41 4q64 0 108 -46t44 -111z" />
    <glyph glyph-name="six" unicode="6" horiz-adv-x="342" 
d="M325 152q0 -65 -45 -111t-110 -46q-64 0 -109 46t-45 111q0 52 26 91l141 210l47 -1l-100 -152q9 5 21 6l30 2q60 4 102 -45.5t42 -110.5zM281 151q0 50 -30.5 83.5t-79.5 33.5q-47 0 -79 -33.5t-32 -80.5q0 -51 30.5 -84.5t80.5 -33.5q47 0 78.5 34t31.5 81z" />
    <glyph glyph-name="seven" unicode="7" horiz-adv-x="342" 
d="M301 414l-186 -411l-46 1l182 411l-209 1v37h259v-39z" />
    <glyph glyph-name="eight" unicode="8" horiz-adv-x="342" 
d="M315 136q0 -60 -42.5 -100.5t-102.5 -40.5q-58 0 -101 41t-43 99q0 37 20 71t53 49q-48 29 -48 91q0 51 35 83t86 32q49 0 84 -35t35 -84q0 -61 -49 -87q73 -38 73 -119zM247 346q0 32 -21.5 52.5t-53.5 20.5q-33 0 -55.5 -19.5t-22.5 -51.5q0 -33 22 -54t55 -21
q32 0 54 20.5t22 52.5zM271 136q0 41 -30 68t-71 27q-43 0 -71 -28t-28 -71q0 -42 28.5 -69t70.5 -27q44 0 72.5 28t28.5 72z" />
    <glyph glyph-name="nine" unicode="9" horiz-adv-x="342" 
d="M325 304q0 -56 -25 -92l-33 -48l-109 -161l-46 1l97 150l-22 -6l-27 -1q-60 -2 -102 47t-42 110q0 63 46 110t109 47q65 0 109.5 -45.5t44.5 -111.5zM281 301q0 50 -30.5 84t-79.5 34q-47 0 -79 -33.5t-32 -80.5q0 -45 33 -80t78 -35q47 0 78.5 32t31.5 79z" />
    <glyph glyph-name="colon" unicode=":" horiz-adv-x="166" 
d="M127 276q0 -19 -12.5 -33t-31.5 -14t-32 14t-13 33q0 20 12 34.5t32 14.5q19 0 32 -15t13 -34zM127 47q0 -20 -12 -34t-32 -14q-18 0 -31.5 15t-13.5 33q0 20 12 34.5t32 14.5q19 0 32 -15t13 -34z" />
    <glyph glyph-name="semicolon" unicode=";" horiz-adv-x="179" 
d="M131 278q0 -19 -14.5 -34t-33.5 -15q-20 0 -33 13.5t-13 33.5q0 21 12.5 36.5t32.5 15.5t34.5 -15t14.5 -35zM144 58q0 -51 -46 -81q-36 -24 -67 -21v22q17 0 31 5q23 6 39.5 29t16.5 47l-6 -8q-10 -8 -27 -8q-45 0 -45 41q0 47 49 47q55 0 55 -73z" />
    <glyph glyph-name="less" unicode="&#x3c;" 
d="M84 -258q0 8 1 12q-21 -27 -51 -27q-38 0 -59 44q-12 -42 -57 -42q-25 0 -42 19.5t-17 44.5q0 27 16 47t42 20q46 0 60 -49q5 -17 21 -30t33 -13q57 0 57 69q0 32 -17 58q-19 30 -50 30q-14 0 -14 11q0 12 12 12q28 0 50 -23q37 -40 37 -99q0 -11 -4 -33.5t-4 -33.5
q0 -18 8 -26q1 -1 12 -10q10 -2 10 -13q0 -16 -14 -16q-30 0 -30 48zM-82 -159q-39 0 -39 -41q0 -33 39 -33t39 33q0 41 -39 41z" />
    <glyph glyph-name="equal" unicode="=" horiz-adv-x="359" 
d="M200 -267q-68 0 -68 96q0 25 -14.5 44t-38.5 19q-20 0 -31.5 -17.5t-11.5 -38.5q0 -44 20 -72q7 -10 7 -17q-1 -18 -25 -18q-9 0 -11 4q-24 49 -24 85q0 37 17 65q20 34 54 34q59 0 74 -60q1 -8 7 -38q15 -47 49 -47q79 0 79 195q0 220 -89 276q-2 1 -32 12q-18 7 -18 21
q0 19 15 19q38 0 73 -44q76 -96 76 -277q0 -241 -108 -241z" />
    <glyph glyph-name="greater" unicode="&#x3e;" 
d="M181 -194q-22 0 -36.5 17t-14.5 39q0 23 12 35h-80q52 -33 52 -95q0 -36 -14 -60q-17 -30 -50 -30q-32 0 -52 37q-14 -36 -50 -36q-24 0 -40 17t-16 41q0 25 14 43t38 18q47 1 56 -51q22 -33 49 -33q47 0 47 63q0 72 -87 86h-7q-13 0 -13 14q0 13 13 13h174q57 0 57 -62
q0 -23 -14.5 -39.5t-37.5 -16.5zM-53 -186q-37 0 -37 -36q0 -30 36 -30q35 0 35 30q0 36 -34 36zM180 -99q-34 0 -34 -38q0 -35 34 -35q37 0 37 34q0 39 -37 39z" />
    <glyph glyph-name="question" unicode="?" horiz-adv-x="397" 
d="M194 76v-65q0 -18 -16 -18q-18 0 -18 18v88q0 29 22 39q52 23 73 48q25 30 25 83q0 101 -80 101q-27 0 -48 -17t-21 -43q0 -2 2 -13q2 -12 -6.5 -20t-20.5 -8q-26 0 -26 32q0 49 39 78q35 26 86 26q58 0 94 -40t36 -99q0 -101 -87 -141q-54 -25 -54 -49zM178 -133
q-18 0 -29 15t-11 33q0 17 11.5 30.5t28.5 13.5q18 0 30 -13t12 -31q0 -19 -12 -33.5t-30 -14.5z" />
    <glyph glyph-name="at" unicode="@" horiz-adv-x="518" 
d="M257 -1q-91 0 -143 54.5t-52 146.5q0 56 21 97q26 52 76 52q32 0 52 -21.5t20 -54.5q0 -34 -21 -56t-55 -22q-44 0 -61 55q-6 -19 -6 -43q0 -73 52 -115q48 -39 122 -39q79 0 126 33q54 38 54 114q0 38 -13 69q-17 41 -50 41q-37 0 -37 -53q0 -54 55 -67q6 -2 6 -14
q0 -15 -12 -15h-152q-12 0 -12 15t15 15h108q-40 28 -40 82q0 29 17.5 51t45.5 22q49 0 75 -49q22 -40 22 -93q0 -96 -58 -150.5t-155 -54.5zM154 319q-16 0 -28 -14.5t-12 -31.5q0 -18 11.5 -31t29.5 -13q46 0 46 44q0 46 -47 46z" />
    <glyph glyph-name="A" unicode="A" horiz-adv-x="524" 
d="M61 207q0 54 23 97q27 52 77 52q31 0 51.5 -23.5t20.5 -54.5q0 -33 -20.5 -55.5t-53.5 -22.5q-25 0 -44.5 18t-19.5 43q-5 -21 -5 -50q0 -75 53 -118q49 -40 126 -40q148 0 148 93q0 19 -15 31q-21 -16 -46 -16h-115q-20 0 -20 17q0 14 20 14h111q9 0 17 2q-72 24 -72 88
q0 31 21 52.5t52 21.5q37 0 59.5 -24.5t22.5 -62.5q0 -43 -25 -72q28 -20 28 -65q0 -67 -60 -102q-50 -30 -121 -30q-99 0 -156 54t-57 153zM157 320q-17 0 -28.5 -13t-11.5 -30q0 -45 37 -45q18 0 31.5 12t13.5 30q0 46 -42 46zM375 318q-40 0 -40 -45q0 -41 68 -60
q21 16 21 48q0 57 -49 57z" />
    <glyph glyph-name="B" unicode="B" horiz-adv-x="439" 
d="M344 -13q-7 48 -23 78q-57 -65 -134 -65q-51 0 -87 23q-42 27 -42 75q0 45 37 71q33 23 80 23q86 0 145 -72q29 38 29 95q0 95 -75 95q-21 0 -41 -19.5t-20 -40.5q0 -9 -11 -9q-8 0 -12 14q-16 57 -52 57q-44 0 -44 -54q0 -5 1 -11q4 -14 -11 -14q-23 0 -23 42
q0 30 20.5 53.5t49.5 23.5q53 0 74 -59q26 56 69 56q47 0 76 -40q26 -35 26 -84q0 -52 -20 -102q-4 -10 -14 -29q38 -50 44 -111q2 -15 -18 -15q-21 0 -24 19zM175 165q-31 0 -56 -14q-30 -16 -30 -44q0 -56 94 -56q72 0 118 50q-51 64 -126 64z" />
    <glyph glyph-name="C" unicode="C" horiz-adv-x="688" 
d="M140 176q11 -123 129 -123q55 0 91.5 34.5t36.5 89.5zM264 314q-45 0 -78.5 -29.5t-43.5 -74.5h254q-8 48 -45 76t-87 28zM569 173q-21 0 -36 -15t-15 -36q0 -45 53 -45q51 0 51 45q0 22 -15.5 36.5t-37.5 14.5zM214 335q-51 26 -51 59q0 27 29 27q19 0 30 -16
q4 -6 16 -38q7 -19 17 -19q13 0 40 27l121 122q19 19 31 19q19 0 19 -18q0 -13 -19 -26l-143 -130q104 -25 121 -134h133q41 18 41 58q0 22 -4 30q-8 22 -37 22q-33 0 -37 -35q0 -8 -12 -8q-13 0 -13 14q0 28 19 45t47 17q29 0 48.5 -22t19.5 -52q0 -47 -40 -77
q58 -23 58 -90q0 -34 -22 -57t-56 -23t-56.5 23t-22.5 57q0 35 27 63l-89 2q1 -80 -42 -128t-122 -48q-48 0 -86 29t-56 75q-13 33 -15 73h-35q-15 0 -15 16q0 18 15 18h39q20 92 102 125z" />
    <glyph glyph-name="D" unicode="D" horiz-adv-x="515" 
d="M360 -1q-35 0 -63 21.5t-35 55.5q-18 -77 -90 -77q-50 0 -76 51q-21 41 -21 96q0 26 9 61h-16q-19 0 -19 17t19 17h28q29 59 71 82q24 13 69 19q-16 60 -16 80q0 31 23 31q26 0 26 -31q0 -8 -16 -77q7 1 20 1q41 0 70 -18q39 -18 39 -34t-18 -16q-7 0 -21 11
q-17 13 -22 15q-16 10 -71 10q-78 0 -124 -73h300q16 0 16 -18q0 -16 -16 -16h-315q-11 -32 -11 -58q0 -37 18 -65q20 -33 55 -33q33 0 55.5 21.5t22.5 54.5q0 14 11 14t11 -15q0 -32 24.5 -53.5t57.5 -21.5q62 0 62 62q0 17 -12 31t-28 14q-9 0 -23.5 -14t-18 -15t-6.5 -1
q-12 0 -12 12q0 20 17.5 34t37.5 15q37 1 57 -25.5t20 -64.5q0 -40 -25 -70t-64 -30z" />
    <glyph glyph-name="E" unicode="E" horiz-adv-x="669" 
d="M557 64q-35 0 -57 23t-22 58q0 32 27 61h-412q-10 -30 -10 -58q0 -38 16 -65q19 -32 54 -32q32 0 55 22t24 54q1 19 10 19q8 0 11 -15q15 -80 82 -80q61 0 61 62q0 41 -36 41q-13 0 -24 -12q-4 -7 -15 -14q-21 -4 -21 12q0 20 16 34t36 15q37 1 57 -25.5t20 -64.5
q0 -40 -24.5 -70t-63.5 -30q-77 0 -98 77q-20 -77 -90 -77q-49 0 -75 50q-21 40 -21 94q0 32 8 63h-16q-22 0 -22 18q0 17 22 17h29q37 78 112 97q-18 50 -18 80q0 32 23 32q24 0 24 -31q0 -8 -14 -77q25 5 48 5q11 0 17 -1q-17 49 -17 69q0 36 23 36q25 0 25 -35
q0 -11 -15 -74q20 -3 46 -17q31 -16 31 -32q0 -18 -20 -18q-9 0 -41 26q-25 14 -70 13q-78 -1 -123 -73h437q39 29 39 58q0 51 -39 51q-35 0 -38 -39q-1 -9 -12 -9q-12 0 -13 9q-1 11 0 17q5 23 22 39t40 16q32 0 51.5 -20.5t19.5 -52.5q0 -29 -13 -48q-2 -2 -20 -23l-6 -7
q56 -21 56 -81q0 -34 -21 -59q-22 -28 -55 -28zM551 206h-11q-35 -25 -35 -51q0 -51 50 -51q52 0 52 50q0 52 -56 52z" />
    <glyph glyph-name="F" unicode="F" horiz-adv-x="229" 
d="M312 0q-58 0 -88 67q-25 -67 -86 -67q-43 0 -70.5 30.5t-27.5 73.5q0 45 24.5 75.5t68.5 30.5q35 0 61.5 -24.5t33.5 -59.5q39 -72 88 -72q83 0 83 138q0 49 -18 103q-19 58 -50 92q-16 18 -45 33q-32 17 -53.5 17t-21.5 19q0 20 20 20q27 0 65 -19q69 -35 105 -136
q27 -76 27 -145q0 -70 -23 -116q-30 -60 -93 -60zM135 178q-63 0 -63 -67q0 -23 19 -40t42 -17q25 0 43.5 16t18.5 41q0 29 -16 48t-44 19z" />
    <glyph glyph-name="G" unicode="G" horiz-adv-x="469" 
d="M187 553q-63 -41 -60 -129q0 -12 -12 -12q-13 0 -15 10q-4 21 -4 40q0 87 69 131q21 13 33 13q24 0 24 -27q0 -14 -11 -20q-3 -1 -24 -6zM312 0q-58 0 -88 67q-25 -67 -86 -67q-43 0 -70.5 30.5t-27.5 73.5q0 45 24.5 75.5t68.5 30.5q35 0 61.5 -24.5t33.5 -59.5
q39 -72 88 -72q83 0 83 138q0 49 -18 103q-19 58 -50 92q-41 45 -98 51q-21 2 -21 20t19 18q27 0 65 -19q69 -35 105 -136q27 -76 27 -145q0 -70 -23 -116q-30 -60 -93 -60zM135 178q-63 0 -63 -67q0 -23 19 -40t42 -17q25 0 43.5 16t18.5 41q0 29 -16 48t-44 19z" />
    <glyph glyph-name="H" unicode="H" horiz-adv-x="476" 
d="M305 -2q-62 0 -86 64q-22 -63 -83 -63q-37 0 -61.5 28.5t-24.5 66.5q0 36 25.5 64t61.5 28q69 0 83 -78q31 -58 85 -58q44 0 68 40q20 33 20 81q0 52 -18 86q-23 44 -70 44q-23 0 -44 -18.5t-21 -41.5q0 -9 -9 -9t-9 9q0 30 -21.5 53.5t-51.5 23.5q-21 0 -36.5 -17.5
t-15.5 -38.5q0 -25 -23 -25q-17 0 -17 26q0 36 25.5 61t61.5 25q60 0 89 -58q25 51 74 51q59 0 89 -64q23 -48 23 -115q0 -64 -25 -109q-30 -56 -89 -56zM138 156q-25 0 -41.5 -15t-16.5 -39q0 -22 16.5 -35.5t38.5 -13.5q21 0 37.5 12.5t16.5 33.5q0 57 -51 57z" />
    <glyph glyph-name="I" unicode="I" horiz-adv-x="464" 
d="M332 1q-37 0 -63.5 27t-29.5 64q-5 -39 -35.5 -65t-69.5 -26q-45 0 -74 31.5t-29 77.5q0 59 56 90q14 8 44.5 12.5t43.5 10.5q30 14 30 43q0 57 -58 57q-24 0 -42 -17.5t-18 -41.5q0 -19 -24 -19q-22 0 -22 19q0 41 29 68.5t70 27.5t69 -25.5t28 -65.5q0 -59 -53 -78
q-6 0 -51 -7q-26 -4 -45 -20q-22 -18 -22 -42q0 -68 70 -68q36 0 65 29t29 65q0 10 9 10q10 0 10 -10q0 -37 27 -65.5t64 -28.5q60 0 60 51q0 8 -11 19t-11 16q0 17 15 17q18 0 28 -19.5t10 -39.5q0 -44 -27.5 -70.5t-71.5 -26.5z" />
    <glyph glyph-name="J" unicode="J" horiz-adv-x="464" 
d="M330 0q-35 0 -61.5 27t-29.5 62q-6 -37 -37 -63t-69 -26q-44 0 -73.5 32t-29.5 76q0 56 56 88q15 8 41 13q33 6 43 9q34 12 34 46q0 58 -58 58q-22 0 -42.5 -18.5t-20.5 -40.5t-23 -22q-19 0 -19 22q0 38 24 63.5t62 29.5q-20 52 -20 75q0 31 27 31q29 0 29 -31
q0 -2 -17 -73q37 -4 63.5 -30t26.5 -62q0 -40 -28 -62q-16 -12 -70 -21q-72 -11 -72 -63q0 -67 68 -67q36 0 65.5 28.5t29.5 64.5q0 8 10 8t10 -8q0 -37 28 -65t65 -28q58 0 58 54q0 10 -10 13q-14 4 -14 17q0 21 16 21q39 0 39 -64q0 -42 -29 -68t-72 -26z" />
    <glyph glyph-name="K" unicode="K" horiz-adv-x="565" 
d="M448 308q-39 0 -63.5 24.5t-24.5 63.5q0 38 19 59h-109q18 -20 18 -51q0 -65 -57 -79q26 -25 26 -59q0 -49 -39 -71q-17 -10 -69 -18q-25 -4 -42 -18q-20 -16 -20 -39q0 -68 66 -68q39 0 68 25t29 63q0 11 10 11q12 0 12 -11q0 -37 24 -62.5t61 -25.5q64 0 64 52l-12 12
t-12 20q0 19 17 19q18 0 29 -22q9 -17 9 -37q0 -43 -28.5 -69.5t-72.5 -26.5q-34 0 -61.5 25.5t-31.5 59.5q-6 -36 -36.5 -60.5t-67.5 -24.5q-45 0 -74.5 31t-29.5 76q0 57 57 88q14 8 44.5 12.5t43.5 10.5q30 13 30 44q0 26 -16.5 42t-42.5 16q-22 0 -43 -18.5t-21 -40
t-19 -21.5q-22 0 -22 22q0 33 24 62h-24q-10 0 -10 14q0 17 11 17h152q49 0 49 49q0 20 -12 35.5t-31 15.5h-159q-19 0 -19 24q0 21 19 21h386q40 0 66 -31.5t26 -72.5q0 -40 -25.5 -64t-65.5 -24zM447 462q-26 0 -44 -15.5t-18 -41.5t18 -42.5t44 -16.5q62 0 62 59
q0 57 -62 57z" />
    <glyph glyph-name="L" unicode="L" horiz-adv-x="202" 
d="M198 0q-71 0 -115 54q-42 51 -42 123q0 74 45.5 123t118.5 49q72 0 116 -54q41 -50 41 -123q0 -79 -43 -125.5t-121 -46.5zM200 316q-54 0 -90 -35.5t-36 -89.5q0 -58 33.5 -98t90.5 -40q58 0 94 38.5t36 96.5q0 56 -36 92t-92 36z" />
    <glyph glyph-name="M" unicode="M" horiz-adv-x="206" 
d="M152 58q0 -52 -48 -52t-48 52q0 21 12.5 37.5t33.5 16.5q50 0 50 -54zM152 278q0 -52 -48 -52t-48 52q0 21 12.5 37.5t33.5 16.5q50 0 50 -54zM117 279q0 20 -18 20q-19 0 -19 -20t19 -20q18 0 18 20zM117 59q0 20 -18 20q-19 0 -19 -20t19 -20q18 0 18 20z" />
    <glyph glyph-name="N" unicode="N" horiz-adv-x="173" 
d="M167 0q-50 0 -86 27q-41 30 -41 78q0 33 16 33q11 0 11 -11q0 -38 30 -58q26 -18 66 -18q115 0 115 84q0 27 -23.5 43.5t-51.5 16.5h-23l-39 -1q-35 -1 -60 15q-30 19 -30 52q0 44 38 67q32 19 79 19q95 0 117 -74q5 -15 -20 -15q-16 0 -19 7q-17 53 -89 53
q-28 0 -49 -12q-26 -15 -26 -41q0 -21 25 -34q21 -11 45 -11q-17 0 31 2q50 2 73 -12q50 -31 50 -91q0 -55 -41.5 -87t-97.5 -32z" />
    <glyph glyph-name="O" unicode="O" horiz-adv-x="173" 
d="M167 0q-50 0 -86 27q-41 30 -41 78q0 33 16 33q11 0 11 -11q0 -38 30 -58q26 -18 66 -18q115 0 115 84q0 27 -23.5 43.5t-51.5 16.5h-23l-39 -1q-35 -1 -60 15q-30 19 -30 52q0 44 38 67q32 19 79 19q95 0 117 -74q5 -15 -20 -15q-16 0 -19 7q-17 53 -89 53
q-28 0 -49 -12q-26 -15 -26 -41q0 -21 25 -34q21 -11 45 -11q-17 0 31 2q50 2 73 -12q50 -31 50 -91q0 -55 -41.5 -87t-97.5 -32zM319 -163v9q-25 -31 -65 -31q-49 0 -78 59q-28 -57 -84 -57q-38 0 -60.5 26t-22.5 64q0 25 12.5 44.5t35.5 19.5q13 0 13 -14q0 -11 -11 -14
q-25 -7 -25 -39q0 -23 17 -39.5t40 -16.5q28 0 50.5 25t23.5 54q0 7 8 7q7 0 8 -7q3 -30 24.5 -53t50.5 -23q25 0 42.5 14.5t17.5 38.5q0 40 -26 40q-13 0 -13 15t15 15q24 0 37 -20.5t13 -45.5q0 -15 -6 -34q1 -3 1 -9q0 -40 23 -51q13 -6 13 -20q0 -21 -18 -21
q-36 0 -36 64z" />
    <glyph glyph-name="P" unicode="P" horiz-adv-x="175" 
d="M2.5 200.5q0.5 -0.5 0.5 -1.5t-0.5 -1.5t-1.5 -0.5l-0.5 0.5t-0.5 1.5t0.5 1.5l0.5 0.5q1 0 1.5 -0.5z" />
    <glyph glyph-name="Q" unicode="Q" horiz-adv-x="92" 
d="M1.5 200.5l0.5 -0.5q0 -1 -0.5 -1h-0.5h-1.5t-0.5 1l0.5 0.5t1.5 0.5z" />
    <glyph glyph-name="R" unicode="R" 
d="M22 342q-14 -13 -37 -13q-29 0 -62 22q-36 23 -36 51q0 13 13 22q8 4 17 4q25 0 46 -54q7 -18 17 -18q13 0 39 26l122 121q16 20 30 20q19 0 19 -18q0 -13 -19 -25z" />
    <glyph glyph-name="S" unicode="S" horiz-adv-x="412" 
d="M293 136q-39 0 -63 28.5t-24 68.5q0 43 19 63l-335 -1q-25 0 -25 23t25 23h381q52 0 82 -28t30 -80q0 -40 -25.5 -68.5t-64.5 -28.5zM290 300q-27 -1 -43.5 -19t-16.5 -45q0 -24 19.5 -40t44.5 -16q60 0 60 56q0 29 -17.5 47t-46.5 17z" />
    <glyph glyph-name="T" unicode="T" 
d="M-18 323q-34 0 -65 19q-7 4 -7 13q0 11 13 11q6 0 17 -6q21 -12 42 -12q36 0 61 19.5t25 54.5q0 36 -27 48q6 -14 6 -27q0 -23 -17.5 -41.5t-40.5 -18.5q-25 0 -43 15t-18 40q0 60 65 75q11 3 24 0q74 -14 74 -87q0 -45 -31.5 -74t-77.5 -29zM21 479q-5 1 -18 1
q-19 0 -31.5 -13t-12.5 -32q0 -31 30 -31q16 0 27 15.5t11 32.5q0 14 -6 27z" />
    <glyph glyph-name="U" unicode="U" 
d="M-18 323q-21 0 -43 7q-29 9 -29 25q0 14 12 14q4 0 7 -3q24 -18 53 -18q36 0 61 19.5t25 54.5q0 36 -27 48q6 -14 6 -27q0 -23 -17.5 -41.5t-40.5 -18.5q-25 0 -43 15t-18 40q0 28 18.5 49.5t46.5 25.5q-25 26 -25 59q0 26 17 45t43 19q25 0 41 -18t16 -43q0 -9 -13 -9
q-12 0 -15 11q-6 25 -32 26q-30 1 -30 -43q0 -12 22 -47q74 -12 74 -87q0 -45 -31.5 -74t-77.5 -29zM21 479q-5 1 -18 1q-19 0 -31.5 -13t-12.5 -32q0 -31 30 -31q16 0 27 15.5t11 32.5q0 14 -6 27z" />
    <glyph glyph-name="V" unicode="V" horiz-adv-x="231" 
d="M187 145q0 -63 -34 -104q-36 -44 -97 -44q-45 0 -75 28t-41 73l-4 17l-2 16q0 9 7 10q6 -7 8 -13l7 -14l10 -21l9 -16q1 -2 14 -15q30 -31 64 -31q51 0 78 38q24 33 24 86t-27 91q-30 43 -81 43l-23 3q-7 3 -8 13q0 17 29 17q67 0 107 -57q35 -50 35 -120z" />
    <glyph glyph-name="W" unicode="W" horiz-adv-x="458" 
d="M435 240q0 -32 -18 -56t-49 -24q-34 0 -58 19.5t-24 52.5q0 23 13 43q3 7 13 15h-175q56 -45 56 -145q0 -62 -38 -105t-99 -43q-102 0 -116 101l-4 29q0 12 5 17q7 -5 11 -11l8 -18q20 -84 93 -84q50 0 80 38q28 35 28 86q0 54 -26 91q-29 42 -81 42q-29 0 -33 14
q0 19 22 19h294q40 0 67 -20q31 -23 31 -61zM407 240q0 19 -15 32.5t-34 13.5t-31 -16t-12 -36q0 -45 51 -45q19 0 30 15.5t11 35.5z" />
    <glyph glyph-name="X" unicode="X" horiz-adv-x="321" 
d="M106 -330q-60 0 -96.5 38.5t-36.5 98.5q0 47 29 82.5t75 35.5q32 0 54 -24t22 -56t-19 -53t-50 -21q-32 0 -51 19.5t-19 51.5q0 18 13 38q-31 -28 -31 -66q0 -48 30 -77.5t78 -29.5q85 0 124 85q29 63 29 160q0 277 -114 339q-27 15 -51 15q-18 0 -18 22q0 19 18 19
q97 0 148 -134q41 -107 41 -253q0 -290 -175 -290zM71 -101q-3 0 -6 -1q-29 -25 -29 -49q0 -49 46 -49q19 0 32.5 14t13.5 33q0 52 -57 52z" />
    <glyph glyph-name="Y" unicode="Y" horiz-adv-x="516" 
d="M92 -100q23 0 39.5 -14.5t16.5 -37.5q0 -19 -13.5 -33.5t-32.5 -14.5q-46 0 -46 50q0 18 10 29l19 20q4 1 7 1zM388 317q47 0 47 -45q0 -41 -44 -41q-18 0 -31.5 11.5t-13.5 29.5q0 45 42 45zM390 200q28 0 46.5 20.5t18.5 49.5q0 77 -82 77h-260q-20 0 -20 -19
q0 -17 24 -23q42 -11 46 -13q115 -61 115 -340q0 -97 -29 -160q-39 -85 -125 -85q-47 0 -77.5 30t-30.5 77q0 38 31 67q-13 -20 -13 -39q0 -32 19.5 -51t51.5 -19t50.5 20.5t18.5 53.5q0 31 -22.5 55.5t-53.5 24.5q-48 0 -76 -34.5t-28 -83.5q0 -60 36.5 -99t96.5 -39
q174 0 174 290q0 146 -40 254q-22 60 -66 99h146q-14 -17 -14 -43q0 -29 17.5 -49.5t45.5 -20.5z" />
    <glyph glyph-name="Z" unicode="Z" horiz-adv-x="92" 
d="M438 415q0 -30 -19 -54t-48 -24h-137q-13 0 -13 15q0 14 12 14h137q38 0 38 45q0 16 -10.5 27.5t-26.5 11.5h-270q-19 0 -19 21q0 20 19 20h248q89 0 89 -76z" />
    <glyph glyph-name="bracketleft" unicode="[" 
d="M-84 558q0 25 -31 25q-32 0 -32 -41q0 -29 36 -54q8 -5 8 -11q0 -7 -15 -4q-25 5 -41 27.5t-16 48.5q0 25 16.5 44t40.5 19t41 -13.5t17 -36.5q0 -13 -11 -13q-13 0 -13 9z" />
    <glyph glyph-name="backslash" unicode="\" 
d="M73 -149q0 28 18 48t46 20q25 0 43 -19.5t18 -44.5q0 -32 -13 -39h256q14 0 14 -17t-14 -17h-302q-30 0 -48 19.5t-18 49.5zM133 -116q-15 0 -27.5 -10t-12.5 -24t13.5 -25t27.5 -11q43 0 43 35q0 15 -14 25t-30 10z" />
    <glyph glyph-name="bracketright" unicode="]" horiz-adv-x="412" 
d="M263 292q-39 0 -65 28.5t-26 67.5q0 38 26 64q-83 -5 -83 -74q0 -8 -9 -8q-10 0 -10 8q0 30 -24.5 49.5t-55.5 19.5q-26 0 -46 -12q-24 -14 -24 -39q0 -41 42 -48q8 0 15 -4q12 -5 12 -12q0 -8 -14 -10h-21q-69 0 -69 82q0 42 32 67q29 23 72 23q63 0 91 -60
q34 66 121 66q53 0 86 -27q37 -30 37 -81q0 -39 -24 -68q-25 -32 -63 -32zM255 456q-57 -13 -57 -64q0 -26 18 -41t45 -15q61 0 61 50q0 62 -67 70z" />
    <glyph glyph-name="asciicircum" unicode="^" 
d="M225 -366q0 -11 -7 -14l-16 -2h-383q-72 0 -84 51l-2 17q0 27 20 45.5t47 18.5q30 0 50 -18q17 -19 17 -43q0 -25 -17 -39l368 -1q5 -1 7 -15zM-158 -316q0 16 -10 29t-25 13q-42 1 -46 -35q0 -45 39 -45q16 0 29 11t13 27z" />
    <glyph glyph-name="underscore" unicode="_" horiz-adv-x="485" 
d="M265 352q0 40 19 60h-159q10 -16 10 -37q0 -58 -52 -58h-185q-12 0 -12 16q0 14 12 14h163q46 0 46 31q0 21 -20 34h-197q-22 0 -22 23q0 24 22 24h452q46 0 73.5 -30.5t27.5 -77.5q0 -39 -24 -65t-63 -26q-40 0 -65.5 26t-25.5 66zM292 356q0 -25 19 -40t45 -15
q60 0 60 50q0 69 -60 69q-28 0 -46 -18t-18 -46z" />
    <glyph glyph-name="grave" unicode="`" 
d="M267 511h-249q-32 0 -32 -27q0 -37 38 -37h164q15 0 15 -21q0 -18 -15 -18h-160q-27 0 -27 -29t23 -29h76q10 0 10 -15v-2q0 -14 -10 -14h-72q-24 0 -38.5 18t-14.5 42q0 29 22 45q-42 13 -42 66q0 30 19.5 51t49.5 21h243q20 0 20 -27q0 -24 -20 -24z" />
    <glyph glyph-name="a" unicode="a" horiz-adv-x="165" 
d="M212 0q-33 0 -56 30q-21 27 -21 61q0 73 62 105q14 7 28 13q-33 25 -66 25q-29 0 -53.5 -20.5t-24.5 -48.5q0 -12 -15 -12h-11q-16 0 -16 16q0 40 31.5 67.5t72.5 27.5q56 0 106 -42q23 19 23 45q0 27 -28 37q-28 4 -82 20q-10 3 -10 12q0 14 19 14q3 0 9 -1l31 -5
q90 -15 90 -79q0 -37 -34 -64q35 -42 35 -97q0 -45 -22 -73q-24 -31 -68 -31zM248 191q-82 -25 -82 -83q0 -24 15 -39.5t39 -15.5q25 0 40.5 16.5t15.5 41.5q0 45 -28 80z" />
    <glyph glyph-name="b" unicode="b" horiz-adv-x="210" 
d="M270 202q35 -44 35 -96q0 -44 -24 -75t-67 -31q-36 0 -56.5 28t-20.5 65q0 45 27 74q15 16 62 43q-35 24 -63 24q-30 0 -54.5 -21t-24.5 -50q0 -20 -21 -20t-21 25q0 41 31.5 68.5t73.5 27.5q55 0 102 -41q56 40 56 120q0 114 -93 124q24 -33 24 -67q0 -33 -21 -56
t-54 -23q-37 0 -59.5 22t-22.5 59q0 41 29.5 70.5t70.5 29.5q153 0 153 -159q0 -100 -62 -141zM181 467q-27 -3 -47 -19q-23 -18 -23 -44q0 -53 47 -53q21 0 35 19.5t14 41.5q0 26 -26 55zM240 185q-25 -10 -45 -33q-23 -25 -24 -50q-3 -51 50 -51q55 0 55 67q0 44 -36 67z
" />
    <glyph glyph-name="c" unicode="c" horiz-adv-x="237" 
d="M328 -1q-30 0 -56 25q-23 22 -32 53q-31 -77 -90 -77q-51 0 -78 48q-22 39 -22 94q0 67 31 121q34 60 95 78q27 8 70 8q60 0 95 -25q87 -63 87 -183q0 -53 -23 -93q-28 -49 -77 -49zM240 321q-102 0 -145 -84q-20 -39 -20 -80q0 -40 17 -69q20 -35 57 -35q63 0 77 71
q5 25 14 25q10 0 10 -17q0 -29 23.5 -54t52.5 -25q75 0 75 102q0 42 -18 80q-40 86 -143 86z" />
    <glyph glyph-name="d" unicode="d" 
d="M34 541q0 -8 -5.5 -17t-12.5 -6q-9 1 -11 9l1 16q-6 21 -38 21q-37 0 -37 -34q0 -22 25 -42q5 -4 26 -15l-23 -4l-31 19q-25 20 -25 50q0 26 19.5 42t46.5 16t46 -14.5t19 -40.5z" />
    <glyph glyph-name="e" unicode="e" horiz-adv-x="183" 
d="M110 -2h-41v403l41 1v-404z" />
    <glyph glyph-name="f" unicode="f" horiz-adv-x="485" 
d="M370 358q0 -32 -18 -58q-20 -29 -51 -29q-35 0 -59 17q-28 19 -28 53q0 43 33 65h-149q12 -14 12 -38l-2 -15q-7 -56 -70 -56h-116l-7 3q-6 4 -8 12q0 11 10 15l5 1h123l18 6q19 11 19 33q0 39 -38 39l-150 1q-12 5 -12 14q0 16 16 16h364q42 0 72 -18q36 -21 36 -61z
M340 353q0 20 -16.5 34t-37.5 14q-20 0 -33 -17t-13 -37t16.5 -32.5t36.5 -12.5t33.5 15.5t13.5 35.5z" />
    <glyph glyph-name="g" unicode="g" horiz-adv-x="202" 
d="M327 -2q-28 0 -28 18q0 20 9 58.5t9 58.5q0 64 -27 116q-34 65 -91 65q-30 0 -58 -32q-23 -26 -35 -60q-16 -45 -16 -89q0 -39 9 -79l9 -40q5 -21 -23 -21q-20 0 -23 10q-12 38 -12 91q0 78 39 160q46 96 112 96q51 0 90 -50q67 -85 67 -209q0 -93 -31 -93z" />
    <glyph glyph-name="h" unicode="h" horiz-adv-x="202" 
d="M198 0q-71 0 -115 54q-42 51 -42 123q0 74 45.5 123t118.5 49q72 0 116 -54q41 -50 41 -123q0 -79 -43 -125.5t-121 -46.5zM200 316q-54 0 -90 -35.5t-36 -89.5q0 -58 33.5 -98t90.5 -40q58 0 94 38.5t36 96.5q0 56 -36 92t-92 36zM205 140q-14 0 -24 11t-10 25
q0 36 34 36t34 -36t-34 -36z" />
    <glyph glyph-name="i" unicode="i" horiz-adv-x="202" 
d="M1 200.5v-0.5v-1h-1h-0.5t-0.5 1l0.5 0.5l0.5 0.5q1 0 1 -0.5z" />
    <glyph glyph-name="j" unicode="j" 
d="M104 309q16 18 16 51q0 50 -40 85.5t-91 35.5q-48 0 -83 -25q-39 -27 -39 -73q0 -57 39 -69q10 -3 14 -3q12 0 12 7t-8 10q-22 10 -22 42q0 37 27 59t65 21q40 -1 71 -28t31 -66q0 -23 -9 -33q-3 -4 -3 -8q0 -11 11 -11q5 0 9 5z" />
    <glyph glyph-name="k" unicode="k" 
d="M104 309q16 18 16 51q0 65 -77 104l-30 30q-10 14 -10 36q0 18 11.5 33.5t28.5 15.5t28 -14t11 -31q0 -9 11 -9q14 0 14 24q0 28 -18.5 46.5t-46.5 18.5q-32 0 -51.5 -19.5t-19.5 -51.5q0 -40 23 -63q-12 1 -15 1q-47 0 -78 -25q-34 -27 -34 -73q0 -57 39 -69
q10 -3 14 -3q12 0 12 7t-8 10q-22 10 -22 42q0 34 24 57t58 23q42 0 75 -26q37 -28 37 -68q0 -23 -9 -33q-3 -4 -3 -8q0 -11 11 -11q5 0 9 5z" />
    <glyph glyph-name="l" unicode="l" horiz-adv-x="92" 
d="M369 321h-166q-14 0 -14 16q0 19 13 19h167q44 0 44 52q0 18 -13 31.5t-31 13.5h-308q-17 0 -17 27q0 23 17 23h283q104 0 104 -90q0 -36 -22 -64t-57 -28z" />
    <glyph glyph-name="m" unicode="m" horiz-adv-x="229" 
d="M308 0q-56 0 -95 66q-9 -29 -34 -47t-55 -18q-41 0 -67.5 31.5t-26.5 73.5q0 40 26 72t65 32q38 0 64.5 -24.5t33.5 -62.5q38 -64 93 -64q79 0 79 114q0 50 -17 87q-22 48 -66 48q-20 0 -20 21q0 20 24 20q56 0 86 -71q22 -52 22 -121q0 -63 -24 -105q-29 -52 -88 -52z
M125 178q-65 0 -65 -66q0 -23 20.5 -38t44.5 -15t42.5 15t18.5 38q0 66 -61 66z" />
    <glyph glyph-name="n" unicode="n" 
d="M5 -94q3 -6 3 -14q0 -13 -10.5 -22.5t-24.5 -9.5q-34 0 -34 34l3 13l28 76h9z" />
    <glyph glyph-name="o" unicode="o" horiz-adv-x="160" 
d="M-71 -173q-67 0 -115 64q-30 51 -32 80q2 15 6 22q13 -48 52.5 -83.5t87.5 -35.5q73 0 110 62q30 50 30 129q0 81 -63 174q-22 32 -23 39q-1 20 17 20q7 0 14 -4q18 -10 48 -87q35 -89 35 -154q0 -88 -39 -151q-46 -75 -128 -75z" />
    <glyph glyph-name="p" unicode="p" horiz-adv-x="445" 
d="M240 94q-38 0 -63 30t-25 69t21 61h-123q53 -113 53 -201q0 -87 -39 -151q-46 -76 -128 -76q-61 0 -115 66q-28 34 -30 79q2 15 5 22q13 -47 51 -82q41 -38 87 -38q69 0 108 63q33 53 33 127q0 97 -70 191h-5q-22 0 -22 24q0 22 22 22h225q47 0 76.5 -30.5t29.5 -77.5
q0 -42 -25 -70t-66 -28zM240 259q-25 0 -44 -16.5t-19 -41.5q0 -28 17 -47t45 -19q66 0 66 62q0 26 -19.5 44t-45.5 18z" />
    <glyph glyph-name="q" unicode="q" horiz-adv-x="229" 
d="M308 0q-36 0 -65 30q-27 27 -35 64q-20 94 -70 94q-28 0 -43 -23q-13 -19 -13 -48q0 -42 26 -89q3 -5 3 -11q0 -17 -26 -17q-19 0 -27 12q-17 27 -17 87q0 46 23 81q26 40 70 40q67 0 95 -86q25 -77 84 -77q41 0 62 48q16 36 16 83q0 41 -17 78q-22 48 -56 48h-19
q-15 0 -15 19q0 23 25 23q60 0 89 -71q21 -52 21 -122q0 -65 -23 -108q-29 -55 -88 -55z" />
    <glyph glyph-name="r" unicode="r" horiz-adv-x="229" 
d="M289 -4q-71 0 -96 75l-24 72q-18 38 -57 38q-24 0 -38 -24q-12 -20 -12 -45q0 -33 29 -98q0 -14 -14 -14h-27q-30 41 -30 96q0 47 23 80q26 37 71 37q63 0 91 -73q22 -58 25 -62q19 -27 60 -27q55 0 81 67q19 48 19 114q0 168 -95 260q-50 48 -111 57q-36 5 -34 23
q2 21 30 21q31 0 63 -17q89 -47 138 -151q44 -93 44 -203q0 -82 -28 -145q-36 -81 -108 -81z" />
    <glyph glyph-name="s" unicode="s" horiz-adv-x="229" 
d="M1 201.5v-0.5v-1h-1h-0.5t-0.5 1l0.5 0.5l0.5 0.5q1 0 1 -0.5z" />
    <glyph glyph-name="t" unicode="t" horiz-adv-x="229" 
d="M389 21q0 7 2 19q-32 -43 -82 -43q-62 0 -94 70q-20 -67 -90 -67q-41 0 -68 30.5t-27 72.5q0 40 26.5 74t65.5 34q78 0 95 -79q36 -79 90 -79q44 0 68 39q21 33 21 80q0 54 -18 90q-24 48 -72 48q-21 0 -21 20q0 21 21 21q81 0 113 -119q6 -22 6 -75q0 -18 -6 -54.5
t-6 -54.5q0 -27 10 -41l24 -18q14 -14 14 -24q0 -23 -21 -23q-26 0 -40 28q-11 22 -11 51zM125 179q-65 0 -65 -66q0 -27 17.5 -43.5t45.5 -16.5q63 0 63 60q0 66 -61 66z" />
    <glyph glyph-name="u" unicode="u" horiz-adv-x="229" 
d="M430 -57q-26 2 -41 34q-13 27 -11 56q-31 -35 -84 -35q-61 0 -91 64q-9 -28 -34 -45.5t-55 -17.5q-40 0 -67 30t-27 70q0 44 25.5 76.5t68.5 32.5q37 0 62 -25.5t31 -63.5q49 -68 83 -68q105 0 105 176q0 115 -50 210q-61 116 -166 116q-29 0 -29 20q0 22 25 21
q122 -3 192 -127q59 -104 59 -240q0 -95 -32 -165q0 -58 39 -72q19 -7 19 -23q0 -8 -7 -16.5t-15 -7.5zM114 177q-28 0 -46 -18.5t-18 -46.5q0 -61 64 -61q61 0 61 61q0 65 -61 65z" />
    <glyph glyph-name="v" unicode="v" horiz-adv-x="214" 
d="M51 0q-56 0 -91 62q-28 49 -28 111q0 13 9 13q7 0 7 -6q0 -45 31 -84q32 -42 76 -42q45 0 69 38q21 33 21 80q0 37 -19 74.5t-50 54.5q-24 13 -53 13q-14 0 -14 19q0 20 18 20q69 0 109 -66q35 -56 35 -129q0 -62 -28 -106q-33 -52 -92 -52z" />
    <glyph glyph-name="w" unicode="w" horiz-adv-x="461" 
d="M240 245q0 38 23 59h-132q49 -51 49 -143q0 -65 -28 -109q-33 -52 -95 -52q-51 0 -86 62q-29 52 -29 109q0 15 9 15t9 -11q0 -43 28 -80q30 -41 72 -41q46 0 71 36q22 32 22 80q0 42 -22 81q-24 44 -62 53h-30q-19 0 -19 23q0 24 19 24h280q45 0 73 -31.5t28 -77.5
q0 -42 -24.5 -70t-65.5 -28q-42 0 -66 29t-24 72zM329 310q-27 0 -44 -18.5t-17 -45.5q0 -25 18.5 -40.5t43.5 -15.5q63 0 63 56q0 29 -17.5 47t-46.5 17z" />
    <glyph glyph-name="x" unicode="x" horiz-adv-x="9" 
d="M290 497q0 -9 -12 -20l-149 -133q-3 -3 -10 -3q-6 0 -13 4l-71 55q-6 6 -6 12l5 11q5 6 13 8q7 -1 9 -2l7 -4l51 -45q3 -3 9 -1l127 122q14 13 25 13q6 0 9.5 -4t5.5 -13z" />
    <glyph glyph-name="y" unicode="y" horiz-adv-x="469" 
d="M353 146q-39 0 -63 28.5t-24 68.5q0 43 19 63l-435 -1q-25 0 -25 23t25 23h481q52 0 82 -28t30 -80q0 -40 -25.5 -68.5t-64.5 -28.5zM350 310q-27 -1 -43.5 -19t-16.5 -45q0 -24 19.5 -40t44.5 -16q60 0 60 56q0 29 -17.5 47t-46.5 17z" />
    <glyph glyph-name="z" unicode="z" horiz-adv-x="42" 
d="M254 395q0 -47 -40 -74q-34 -24 -83 -24q-61 0 -83 19l-13 11l-4 9l3 8q2 3 6 3q7 0 19 -7l36 -14l36 -4q36 0 64.5 19.5t28.5 53.5t-25 54t-60 20q-72 0 -72 -42q0 -21 40 -24q13 -1 21 -1q11 0 24 5l19 5q13 -6 13 -13q0 -5 -7 -10l-25 -12l-32 -4q-31 0 -54 11
q-29 14 -29 41q0 25 20.5 48t45.5 25l30 2q47 3 84 -27.5t37 -77.5z" />
    <glyph glyph-name="braceleft" unicode="{" horiz-adv-x="42" 
d="M247 395q0 -47 -40 -74q-34 -24 -83 -24q-61 0 -83 19l-13 11l-4 9l3 8q2 3 6 3q7 0 19 -7l36 -14l36 -4q36 0 64.5 19.5t28.5 53.5t-25 54t-60 20q-72 0 -72 -42q0 -21 40 -24q13 -1 21 -1q12 0 25 5l18 5q13 -6 13 -13q0 -5 -7 -10l-25 -12l-32 -4q-30 0 -53 11
q-29 14 -29 41q0 54 61 71l-19 15q-10 13 -10 29q0 63 69 63q28 0 47.5 -16t19.5 -43q0 -23 -17 -20q-9 3 -11 9v14q-8 25 -40 25q-38 0 -38 -41q0 -16 17 -31l16 1q49 3 85 -27t36 -79z" />
    <glyph glyph-name="bar" unicode="|" horiz-adv-x="153" 
d="M279 321h-96q-14 0 -14 16q0 19 13 19h97q44 0 44 52q0 18 -13 31.5t-31 13.5h-248q-17 0 -17 27q0 23 17 23h223q12 0 46 -5q58 -19 58 -85q0 -50 -34 -75q-23 -17 -45 -17z" />
    <glyph glyph-name="braceright" unicode="}" horiz-adv-x="153" 
d="M336 581q-7 28 -37 28q-37 0 -37 -47q0 -36 42 -64q58 -18 58 -85q0 -35 -22.5 -63.5t-56.5 -28.5h-169q-14 0 -14 16q0 19 14 19h168q45 0 45 52q0 18 -13 31.5t-31 13.5h-250q-20 0 -20 26q0 24 20 24h225q-29 26 -29 67q0 29 19 51.5t48 22.5q59 0 67 -59
q2 -12 -12 -12q-13 0 -15 8z" />
    <glyph glyph-name="asciitilde" unicode="~" horiz-adv-x="450" 
d="M331 151q-39 0 -64.5 28.5t-25.5 68.5q0 28 16.5 53t42.5 28q-22 10 -70 10q-65 0 -119 -19q-70 -24 -89 -73q-2 -6 -9 -6q-11 -1 -11 9q0 34 -23.5 53t-58.5 19q-25 0 -45 -13q-23 -14 -23 -38q0 -20 -17 -20q-19 0 -19 20q0 44 30 71t74 27q31 0 57 -17.5t36 -46.5
q55 76 201 76q78 0 133 -27q71 -35 71 -105q0 -42 -23 -70t-64 -28zM324 312q-58 -13 -58 -65q0 -26 21 -42q18 -14 45 -14q57 0 57 52q0 61 -65 69z" />
    <glyph glyph-name="exclamdown" unicode="&#xa1;" horiz-adv-x="450" 
d="M405 428q-7 30 -40 30q-41 0 -41 -53q0 -36 25 -56q32 -10 50.5 -38.5t18.5 -63.5q0 -40 -24.5 -69t-63.5 -29q-38 0 -63.5 29.5t-25.5 68.5q0 27 17 53t42 29q-15 12 -67 12q-64 0 -120 -20q-71 -25 -91 -72q-4 -9 -10 -9q-9 0 -9 9q0 32 -23.5 52t-56.5 20
q-25 0 -45 -13q-23 -14 -23 -38q0 -19 -18 -19q-19 0 -19 19q0 46 28 71.5t74 25.5q73 0 92 -62q64 73 196 73q59 0 105 -14q-17 17 -17 51q0 29 18.5 53t46.5 24q65 0 70 -59q1 -11 -15 -11q-10 0 -11 6zM325 312q-58 0 -58 -65q0 -26 21 -42q18 -14 45 -14q58 0 58 52
q0 69 -66 69z" />
    <glyph glyph-name="cent" unicode="&#xa2;" horiz-adv-x="485" 
d="M332 191q-38 0 -62.5 27t-24.5 65q0 41 19 60h-213q10 -16 10 -37q0 -58 -52 -58h-142q-14 0 -14 15t14 15h120q46 0 46 31q0 21 -20 34h-156q-20 0 -20 23q0 24 20 24h465q97 0 97 -108q0 -42 -23 -66.5t-64 -24.5zM331 351q-26 0 -42.5 -18.5t-16.5 -44.5
q0 -23 20 -35.5t44 -12.5q60 0 60 48q0 28 -18.5 45.5t-46.5 17.5z" />
    <glyph glyph-name="sterling" unicode="&#xa3;" 
d="M327 511h-249q-32 0 -32 -27q0 -37 38 -37h164q15 0 15 -21q0 -18 -15 -18h-160q-27 0 -27 -29t23 -29h76q10 0 10 -15v-2q0 -14 -10 -14h-72q-24 0 -38.5 18t-14.5 42q0 29 22 45q-42 13 -42 66q0 30 19.5 51t49.5 21h243q20 0 20 -27q0 -24 -20 -24z" />
    <glyph glyph-name="currency" unicode="&#xa4;" horiz-adv-x="363" 
d="M217 113q0 -26 -16 -42.5t-42 -16.5q-28 0 -47.5 16t-19.5 43q0 30 17.5 48.5t47.5 18.5q60 0 60 -67zM576 326q64 2 64 -61q0 -52 -60 -52q-26 0 -45 13.5t-19 38.5q0 59 60 61zM580 162q38 0 62.5 29t24.5 68q0 92 -99 92h-255q-21 0 -21 -15q0 -12 54 -26
q74 -20 74 -138q0 -45 -20 -82q-23 -45 -64 -45q-65 0 -90 77q-14 85 -93 85q-39 0 -66 -32t-27 -72q0 -42 28.5 -72.5t70.5 -30.5q62 0 83 66q36 -67 94 -67q109 0 109 174q0 102 -58 148h120q-19 -30 -19 -60q0 -41 26 -70t66 -29z" />
    <glyph glyph-name="yen" unicode="&#xa5;" horiz-adv-x="363" 
d="M217 113q0 -26 -16 -42.5t-42 -16.5q-28 0 -47.5 16t-19.5 43q0 30 17.5 48.5t47.5 18.5q60 0 60 -67zM576 326q64 2 64 -61q0 -52 -60 -52q-26 0 -45 13.5t-19 38.5q0 59 60 61zM580 162q38 0 62.5 29t24.5 68q0 65 -68 86q-36 34 -36 56q0 49 41 49q14 0 26 -11t12 -25
q0 -10 14 -10q11 0 11 16q0 29 -19 49t-48 20q-69 0 -69 -69q0 -41 27 -69h-245q-21 0 -21 -15q0 -12 54 -26q75 -20 75 -136q0 -39 -19 -79q-24 -51 -63 -51q-62 0 -93 78q-14 85 -93 85q-39 0 -66 -32t-27 -72q0 -42 28.5 -72.5t70.5 -30.5q62 0 83 66q36 -67 94 -67
q109 0 109 174q0 102 -58 148h120q-19 -30 -19 -60q0 -41 26 -70t66 -29zM181 337q-14 -13 -37 -13q-28 0 -61 22q-36 23 -36 50t29 27q17 0 29 -17q4 -5 17 -37q8 -19 18 -19q12 0 39 27l121 121q16 20 31 20q19 0 19 -18q0 -13 -20 -25z" />
    <glyph glyph-name="section" unicode="&#xa7;" horiz-adv-x="219" 
d="M57 0q-52 0 -81 47q-24 39 -26 95q0 12 9 12q7 0 7 -5q0 -38 27 -66.5t65 -28.5q44 0 70 38q24 34 24 80q0 37 -19 74.5t-50 54.5q-24 13 -54 13q-11 0 -11 16q0 18 15 18q68 0 109 -63q36 -55 36 -127q0 -62 -29 -106q-33 -52 -92 -52z" />
    <glyph glyph-name="dieresis" unicode="&#xa8;" horiz-adv-x="468" 
d="M334 142q-37 0 -62.5 32.5t-25.5 70.5t23 59h-131q48 -51 48 -143q0 -65 -28 -109q-33 -52 -94 -52q-53 0 -86 62q-16 31 -20 76q-1 15 9 15q9 0 11 -11q16 -88 88 -88q47 0 72 36q21 31 21 80q0 44 -21 82q-23 43 -63 52h-33q-18 0 -18 21q0 22 18 22h283q45 0 73 -30
t28 -75q0 -42 -25.5 -71t-66.5 -29zM336 310q-61 -1 -61 -64q0 -25 18 -40.5t43 -15.5q64 0 64 56q0 28 -18 46.5t-46 17.5z" />
    <glyph glyph-name="copyright" unicode="&#xa9;" horiz-adv-x="221" 
d="M308 0q-34 0 -63.5 29.5t-36.5 64.5q-18 94 -70 94q-28 0 -43 -23q-13 -19 -13 -48q0 -35 34 -100q0 -14 -19 -14h-26q-30 41 -30 96q0 46 23 81q26 40 70 40q67 0 95 -86q25 -77 84 -77q73 0 73 106q0 148 -161 148q-29 0 -29 17q0 19 28 19q93 0 144 -48t51 -141
q0 -64 -23 -106q-29 -52 -88 -52z" />
    <glyph glyph-name="ordfeminine" unicode="&#xaa;" horiz-adv-x="229" 
d="M306 0q-58 0 -94 67q-21 -66 -83 -66q-42 0 -70.5 30t-28.5 72q0 40 27 72.5t66 32.5q79 0 93 -86q46 -66 88 -66q80 0 80 118q0 38 -21.5 72t-55.5 51.5t-82 20.5q-23 5 -23 19q0 12 23 11q60 -1 96 -25q92 -60 92 -165q0 -61 -23 -104q-28 -54 -84 -54zM127 179
q-29 0 -46.5 -19t-17.5 -48q0 -25 18 -41t43 -16q63 0 63 57q0 67 -60 67z" />
    <glyph glyph-name="guillemotleft" unicode="&#xab;" 
d="M-6 342q-14 -13 -37 -13q-29 0 -62 22q-36 23 -36 51q0 26 30 26q18 0 29 -17q6 -10 17 -37q7 -18 17 -18q14 0 40 26l121 121q16 20 30 20q19 0 19 -18q0 -13 -19 -25z" />
    <glyph glyph-name="logicalnot" unicode="&#xac;" horiz-adv-x="237" 
d="M312 0q-81 0 -102 112q-12 68 -66 68q-26 0 -40.5 -21.5t-14.5 -49.5q0 -48 24 -77q8 -10 8 -18q0 -17 -24 -17q-13 0 -19 7q-28 35 -28 89q0 45 23 79q26 40 69 40q68 0 101 -99q20 -60 68 -60q87 0 87 142q0 92 -44 163q-50 82 -135 90q22 -32 22 -69
q0 -33 -21.5 -53.5t-54.5 -20.5q-34 0 -55 21.5t-21 55.5q0 41 29 69.5t70 28.5q117 0 182 -94q58 -82 58 -204q0 -65 -26 -117q-32 -65 -90 -65zM187 447q-25 -5 -44 -21q-22 -18 -22 -41q0 -46 44 -46q23 0 37 15t14 38q0 21 -29 55z" />
    <glyph glyph-name="registered" unicode="&#xae;" horiz-adv-x="38" 
d="M359 321h-166q-14 0 -14 16q0 19 13 19h167q44 0 44 52q0 18 -13 31.5t-31 13.5h-318q-17 0 -17 27q0 23 17 23h293q12 0 46 -5q58 -19 58 -85q0 -50 -34 -75q-23 -17 -45 -17z" />
    <glyph glyph-name="degree" unicode="&#xb0;" horiz-adv-x="493" 
d="M273 351q0 42 18 61h-131q11 -16 11 -37q0 -58 -53 -58h-13q63 -59 63 -159q0 -62 -29 -106q-33 -52 -92 -52q-52 0 -81 47q-24 39 -26 95q0 12 9 12q7 0 7 -5q0 -38 27 -66.5t65 -28.5q44 0 70 38q24 34 24 80q0 37 -19 74.5t-50 54.5q-24 13 -54 13q-5 0 -8 3h-17
q-13 0 -13 16q0 14 13 14h23q3 1 6 1q8 0 15 -1h59q46 0 46 31q0 21 -21 34h-137q-20 0 -20 24q0 23 20 23h365q47 0 72 -30t25 -78q0 -41 -23 -66.5t-63 -25.5t-64 26t-24 66zM300 351q0 -55 61 -55q63 0 63 55q0 29 -17 49.5t-46 20.5q-61 0 -61 -70z" />
    <glyph glyph-name="plusminus" unicode="&#xb1;" 
d="M142 507h-249q-33 0 -33 -26q0 -37 38 -37h160q15 0 15 -19q0 -20 -15 -20h-155q-28 0 -28 -28q0 -30 24 -30h92q11 0 11 -15q0 -16 -11 -16h-88q-24 0 -38.5 18t-14.5 43q0 28 22 43q-42 14 -42 68q0 30 19.5 50t49.5 20h243q18 0 18 -25q0 -26 -18 -26z" />
    <glyph glyph-name="acute" unicode="&#xb4;" horiz-adv-x="237" 
d="M328 -1q-30 0 -56 25q-23 22 -32 53q-31 -77 -90 -77q-51 0 -78 48q-22 39 -22 94q0 67 31 121q34 60 95 78q27 8 70 8q60 0 95 -25q87 -63 87 -183q0 -53 -23 -93q-28 -49 -77 -49zM240 321q-102 0 -145 -84q-20 -39 -20 -80q0 -40 17 -69q20 -35 57 -35q63 0 77 71
q5 25 14 25q10 0 10 -17q0 -29 23.5 -54t52.5 -25q75 0 75 102q0 42 -18 80q-40 86 -143 86zM241 186q-34 0 -34 36t34 36q32 0 35 -35q3 -37 -35 -37zM240 -92q-28 0 -28 28q0 6 29 83q27 -59 27 -84q0 -27 -28 -27z" />
    <glyph glyph-name="paragraph" unicode="&#xb6;" horiz-adv-x="237" 
d="M1.5 200.5l0.5 -0.5l-0.5 -0.5l-0.5 -0.5l-0.5 0.5l-0.5 0.5l0.5 0.5l0.5 0.5z" />
    <glyph glyph-name="cedilla" unicode="&#xb8;" horiz-adv-x="412" 
d="M488 0q-39 0 -71 35q-29 32 -38 73q-19 -49 -59.5 -78.5t-92.5 -29.5q-69 0 -112.5 50t-43.5 120q0 73 41 123q44 54 115 54q79 0 130 -69q27 -37 36 -121q4 -39 32 -70q30 -34 68 -34q80 0 80 109q0 56 -35.5 101t-89.5 51t-54 19q0 15 13 15q91 0 144 -56.5t53 -147.5
q0 -59 -28 -99q-31 -45 -88 -45zM230 318q-59 0 -94 -44q-33 -40 -33 -101q0 -54 36 -87t91 -33q54 0 92 33.5t38 86.5q0 61 -34 101q-36 44 -96 44z" />
    <glyph glyph-name="ordmasculine" unicode="&#xba;" 
d="M222 507h-249q-33 0 -33 -26q0 -37 38 -37h160q15 0 15 -19q0 -20 -15 -20h-155q-28 0 -28 -28q0 -30 24 -30h92q11 0 11 -15q0 -16 -11 -16h-88q-24 0 -38.5 18t-14.5 43q0 28 22 43q-42 14 -42 68q0 30 19.5 50t49.5 20h243q18 0 18 -25q0 -26 -18 -26z" />
    <glyph glyph-name="guillemotright" unicode="&#xbb;" horiz-adv-x="237" 
d="M242 -1q-83 0 -139 41q-63 46 -63 126q0 43 24 78q26 40 67 40q67 0 67 -77q0 -74 -67 -74q-41 0 -62 47q1 -63 54 -97q46 -30 112 -30q67 0 114 28q58 34 54 96q-16 -46 -58 -46q-33 0 -53 20.5t-20 53.5q0 32 18 54.5t49 22.5h6q-17 26 -74 41q-13 3 -13 14q0 13 14 13
q38 0 75 -27t49 -63q37 -34 37 -92q0 -78 -58 -125q-53 -44 -133 -44zM129 250q-18 0 -30 -12.5t-12 -30.5t12 -31t30 -13q16 0 27.5 13.5t11.5 30.5q0 43 -39 43zM345 250q-41 0 -41 -44q0 -18 11.5 -31.5t29.5 -13.5q19 0 30.5 13.5t11.5 32.5q0 43 -42 43z" />
    <glyph glyph-name="questiondown" unicode="&#xbf;" horiz-adv-x="260" 
d="M341 0q-54 0 -82 62q-9 -26 -31.5 -44t-48.5 -18q-37 0 -61 30t-24 68q0 60 58 100l-80 6q-16 1 -16 23q0 26 20 26q4 0 8 -1l106 -25q12 -3 12 -18q0 -9 -8 -12q-67 -23 -67 -78q0 -65 54 -65q27 0 48.5 20.5t21.5 47.5v7q0 11 12 11q10 0 10 -11v-6q0 -27 21 -48
t48 -21q64 0 64 118q0 83 -56 120q-41 27 -72 29q-16 1 -16 12q0 15 16 14t43 -10q113 -37 113 -192q0 -145 -93 -145z" />
    <glyph glyph-name="Agrave" unicode="&#xc0;" horiz-adv-x="260" 
d="M343 0q-51 0 -74 63q-24 -62 -76 -62q-38 0 -64 29t-26 67q0 59 59 100l-80 6q-24 2 -21 28q3 23 24 23q2 0 9 -2l104 -26q15 -4 15 -16q0 -11 -11 -15q-65 -26 -65 -77q0 -65 55 -65q28 0 47.5 21t19.5 49q0 14 11 14q12 0 12 -15q0 -27 16.5 -48t42.5 -21q88 0 88 170
q0 112 -62 181q-40 45 -91 48q26 -35 26 -70t-21 -58t-56 -23q-36 0 -57.5 23t-21.5 59q0 45 32.5 74t77.5 29q104 0 157 -91q44 -74 44 -185q0 -73 -22 -130q-31 -80 -92 -80zM246 449q-27 -4 -46 -20q-22 -18 -22 -43q0 -52 44 -52q51 0 51 59q0 23 -27 56z" />
    <glyph glyph-name="Aacute" unicode="&#xc1;" horiz-adv-x="237" 
d="M1.5 201.5l0.5 -0.5q0 -1 -0.5 -1h-1.5h-1t-1 1l1 0.5l1 0.5q1 0 1.5 -0.5z" />
    <glyph glyph-name="Acircumflex" unicode="&#xc2;" horiz-adv-x="38" 
d="M389 321h-116q-14 0 -14 16q0 19 13 19h117q44 0 44 52q0 18 -13 31.5t-31 13.5h-298q-17 0 -17 27q0 23 17 23h273q12 0 46 -5q58 -19 58 -85q0 -50 -34 -75q-23 -17 -45 -17z" />
    <glyph glyph-name="Atilde" unicode="&#xc3;" horiz-adv-x="237" 
d="M333 -1q-35 0 -63.5 26.5t-30.5 61.5q-10 -37 -39 -62.5t-66 -25.5q-45 0 -74 30.5t-29 75.5q0 55 52 88q16 10 77 20q45 7 45 51q0 55 -58 55q-23 0 -43.5 -17t-20.5 -39q0 -26 -24 -26q-18 0 -18 24q0 41 27.5 66t69.5 25q39 0 68 -24t29 -62v-11h75q-21 56 -21 69
q0 28 26 28q31 0 31 -28q0 -4 -23 -69h70q12 0 12 -17q0 -14 -12 -14h-166q-12 -24 -45 -35q-4 -1 -50 -10q-31 -6 -47 -20q-21 -18 -21 -40q0 -66 74 -66q35 0 63.5 26t28.5 61q1 11 11 11q9 0 9 -11q0 -34 28.5 -60.5t62.5 -26.5q24 0 42 13.5t18 36.5q0 7 -12 15t-12 17
q0 19 17 19q38 0 38 -60q0 -41 -29 -68t-70 -27z" />
    <glyph glyph-name="Adieresis" unicode="&#xc4;" horiz-adv-x="402" 
d="M382 227q0 -54 -21 -103q-9 -20 -14 -28q37 -53 49 -113q3 -16 -20 -16q-25 0 -25 20q0 33 -25 79q-17 -21 -34 -33q-46 -33 -101 -33q-52 0 -88 23q-43 27 -43 76q0 69 79 90q19 5 39 5q87 0 147 -73q29 38 29 97q0 93 -76 93q-20 0 -40.5 -19t-20.5 -39q0 -9 -11 -9
t-11 9q0 24 -15 43.5t-38 19.5q-46 0 -46 -57q1 -1 3 -10q2 -13 -14 -13q-22 0 -22 42q0 29 21.5 53.5t50.5 24.5q53 0 74 -60q26 56 69 56q79 0 100 -93h67q0 1 -12 35q-8 24 -8 34q0 28 24 28q27 0 27 -31q0 -13 -16 -66h65q12 0 12 -14q0 -18 -12 -18h-143zM296 108
q-50 54 -118 54q-33 0 -58 -15q-30 -17 -30 -48q0 -49 96 -49q73 0 119 49z" />
    <glyph glyph-name="Aring" unicode="&#xc5;" horiz-adv-x="237" 
d="M331 2q-60 0 -98 68q-37 -69 -101 -69q-40 0 -71 25t-31 64q0 40 29.5 67.5t69.5 27.5q57 0 98 -54q10 32 10 63q0 89 -67 125q14 -16 14 -38q0 -68 -67 -68q-27 0 -45.5 18.5t-18.5 45.5q0 34 24.5 56.5t58.5 22.5q62 0 97 -55q30 -47 30 -112q0 -38 -15 -86
q19 -24 30 -33q19 -16 43 -16q83 0 83 125q0 43 -15 78q-19 44 -54 53q-9 2 -46 14q-10 3 -10 13q0 14 20 14q4 0 9 -1q13 -4 41 -15q82 -33 82 -164q0 -62 -20 -108q-26 -61 -80 -61zM128 156q-27 0 -46 -15q-22 -16 -22 -42q0 -45 69 -45q61 0 84 52q-27 50 -85 50z
M125 327q-16 0 -29 -12.5t-13 -28.5t11 -28t27 -12q15 0 27 11.5t12 26.5q0 43 -35 43zM232 -74q-27 0 -27 27q0 11 11 39l17 43q29 -55 29 -82t-30 -27z" />
    <glyph glyph-name="AE" unicode="&#xc6;" horiz-adv-x="237" 
d="M331 2q-60 0 -98 68q-37 -69 -101 -69q-40 0 -71 25t-31 64q0 40 29.5 67.5t69.5 27.5q57 0 98 -54q10 32 10 63q0 89 -67 125q14 -16 14 -38q0 -68 -67 -68q-27 0 -45.5 18.5t-18.5 45.5q0 34 24.5 56.5t58.5 22.5q62 0 97 -55q30 -47 30 -112q0 -38 -15 -86
q19 -24 30 -33q19 -16 43 -16q83 0 83 125q0 43 -15 78q-19 44 -54 53q-9 2 -46 14q-10 3 -10 13q0 14 20 14q4 0 9 -1q13 -4 41 -15q82 -33 82 -164q0 -62 -20 -108q-26 -61 -80 -61zM128 156q-27 0 -46 -15q-22 -16 -22 -42q0 -45 69 -45q61 0 84 52q-27 50 -85 50z
M125 327q-16 0 -29 -12.5t-13 -28.5t11 -28t27 -12q15 0 27 11.5t12 26.5q0 43 -35 43zM232 -74q-27 0 -27 27q0 11 11 39l17 43q29 -55 29 -82t-30 -27z" />
    <glyph glyph-name="Ccedilla" unicode="&#xc7;" horiz-adv-x="237" 
d="M346 1q-38 0 -66.5 25.5t-30.5 63.5q-10 -36 -39 -63t-65 -27q-47 0 -75.5 30.5t-28.5 77.5q0 53 53 86q15 9 45 14q34 5 46 10q29 13 29 46q0 25 -16 40.5t-41 15.5q-23 0 -43.5 -17t-21 -39.5t-21.5 -22.5q-20 0 -20 23q0 39 28.5 64t68.5 25q37 0 64.5 -22t31.5 -58
q36 -61 97 -61q65 0 65 59q0 45 -70 45q-38 0 -38 14q0 18 42 18q97 0 97 -88q0 -40 -27.5 -63.5t-68.5 -23.5q-74 0 -101 65q-9 -34 -43 -47q-9 -3 -59 -12q-24 -4 -42.5 -20.5t-18.5 -39.5q0 -66 69 -66q32 0 61.5 27.5t32.5 59.5q1 10 10 10q10 0 10 -10
q2 -34 28.5 -60.5t60.5 -26.5q62 0 62 50q0 7 -13.5 15.5t-13.5 16.5q0 19 18 19q39 0 39 -60q0 -40 -27.5 -66.5t-67.5 -26.5z" />
    <glyph glyph-name="Egrave" unicode="&#xc8;" horiz-adv-x="237" 
d="M334 1q-32 0 -58 27q-23 24 -32 58q-26 -85 -103 -85q-60 0 -93 64q-27 51 -27 117q0 60 23 107q28 59 81 63q-20 54 -20 63q0 31 24 31q25 0 25 -33q0 -11 -7 -30l-11 -30q77 -4 77 -83q0 -32 -22.5 -54.5t-54.5 -22.5q-30 0 -51 25t-19 55q-21 -19 -21 -80
q0 -55 24 -94q28 -46 80 -46q31 0 57.5 27.5t26.5 58.5q0 11 12 11q11 0 11 -11q0 -34 22.5 -60t55.5 -26q86 0 86 121q0 97 -57 129q-1 0 -35 10q-24 7 -24 18q0 16 21 16q17 0 35 -7q88 -34 88 -183q0 -59 -27 -103q-32 -53 -87 -53zM133 320q-42 0 -42 -46q0 -19 13 -33
t32 -14t31 13.5t12 32.5q0 20 -13 33.5t-33 13.5z" />
    <glyph glyph-name="Eacute" unicode="&#xc9;" 
d="M34 601q0 -8 -5.5 -17t-12.5 -6q-9 1 -11 9l1 16q-6 21 -38 21q-37 0 -37 -34q0 -22 25 -42q5 -4 26 -15l-23 -4l-31 19q-25 20 -25 50q0 26 19.5 42t46.5 16t46 -14.5t19 -40.5z" />
    <glyph glyph-name="Ecircumflex" unicode="&#xca;" horiz-adv-x="237" 
d="M334 0q-33 0 -61 25.5t-32 58.5q-3 -38 -34.5 -61t-71.5 -23q-43 0 -73.5 29t-30.5 72q0 59 53 92q23 14 76 20q46 5 46 53q0 54 -59 54q-24 0 -44 -18.5t-20 -42.5q0 -20 -23 -20q-19 0 -19 23q0 39 28.5 64t68.5 25t69.5 -24.5t29.5 -63.5q0 -50 -44 -69l-80 -20
q-47 -19 -47 -57q0 -64 69 -64q36 0 62.5 23t32.5 58q3 15 11 15t10 -15q4 -32 27.5 -56.5t54.5 -24.5q43 0 66 42q19 34 19 81q0 54 -31 93q-17 21 -35 32l-42 18q-16 7 -16 15q0 13 13 13q12 0 45 -13q94 -37 94 -171q0 -62 -25 -107q-30 -56 -87 -56z" />
    <glyph glyph-name="Edieresis" unicode="&#xcb;" horiz-adv-x="131" 
d="M2.5 200.5l0.5 -0.5q0 -1 -0.5 -1.5t-1.5 -0.5l-0.5 0.5t-0.5 1.5l0.5 0.5l0.5 0.5q1 0 1.5 -0.5z" />
    <glyph glyph-name="Igrave" unicode="&#xcc;" horiz-adv-x="237" 
d="M241 0q-92 0 -141 52t-49 144q0 59 26 102q31 51 86 51q35 0 55.5 -21t20.5 -56q0 -77 -72 -77q-35 0 -53.5 22t-16.5 58q-20 -34 -20 -75q0 -73 45 -111q42 -36 116 -36q72 0 118 35q51 39 51 109q0 37 -16 66q-18 34 -51 43q-11 3 -44 13q-10 5 -10 14q0 14 19 14
q31 0 61 -20t47 -48q22 -36 22 -82q0 -72 -38 -125q-51 -72 -156 -72zM170 317q-51 0 -51 -44q0 -19 14.5 -33t33.5 -14q18 0 30 13.5t12 31.5t-10.5 32t-28.5 14z" />
    <glyph glyph-name="Iacute" unicode="&#xcd;" 
d="M-84 558q0 25 -31 25q-32 0 -32 -41q0 -29 36 -54q8 -5 8 -11q0 -7 -15 -4q-25 5 -41 27.5t-16 48.5q0 25 16.5 44t40.5 19t41 -13.5t17 -36.5q0 -13 -11 -13q-13 0 -13 9z" />
    <glyph glyph-name="Icircumflex" unicode="&#xce;" horiz-adv-x="237" 
d="M302 153q34 -26 34 -67t-25 -64t-66 -23q-40 0 -70 22.5t-30 61.5q0 40 32 69q-32 16 -47 30q-30 29 -30 71q0 36 22 57.5t58 21.5q30 0 50.5 -19t20.5 -49q0 -26 -16.5 -43t-42.5 -17q-24 0 -39 16t-15 40q0 26 15 40q-30 -22 -30 -47q0 -41 36 -63q31 -19 74 -19
q48 0 83 16q46 21 46 63q0 41 -63 58q-19 5 -51 15q-10 3 -10 11q0 15 20 15q43 -10 56 -15q73 -27 73 -81q0 -36 -24.5 -65t-60.5 -35zM193 300q-32 0 -32 -38q0 -34 33 -34q14 0 24 11t10 25q0 36 -35 36zM239 148q-26 0 -43 -14q-20 -15 -20 -40q0 -24 18 -38.5t42 -14.5
q64 0 64 53q0 54 -61 54z" />
    <glyph glyph-name="Idieresis" unicode="&#xcf;" 
d="M101 337q-14 -13 -37 -13q-28 0 -61 22q-36 23 -36 50t29 27q17 0 29 -17q4 -5 17 -37q8 -19 18 -19q12 0 39 27l121 121q16 20 31 20q19 0 19 -18q0 -13 -20 -25z" />
    <glyph glyph-name="Ntilde" unicode="&#xd1;" horiz-adv-x="237" 
d="M338 0q-35 0 -62.5 27t-29.5 62q-29 -89 -103 -89q-46 0 -74.5 31t-28.5 77q0 40 29 66t70 32q73 10 73 56q0 23 -17.5 39t-40.5 16q-28 0 -45.5 -16.5t-15.5 -43.5q2 -21 -23 -21q-19 0 -19 22q0 41 27.5 66t69.5 25q33 0 59.5 -19.5t32.5 -51.5q38 -56 79 -56
q43 0 65 39q18 32 18 78q0 72 -48 91q14 -19 14 -42q0 -29 -19 -51.5t-47 -22.5q-30 1 -51.5 23.5t-21.5 52.5q0 33 25 57.5t58 24.5h7q56 0 85 -46q24 -38 24 -98q0 -54 -26 -95q-30 -47 -81 -47t-84 48q-9 -30 -36 -42q-16 -7 -51 -13q-75 -13 -75 -63q0 -63 67 -63
q39 0 67 26.5t28 65.5q0 13 10 13t10 -13q-1 -34 25 -63t60 -29q64 0 64 51q0 5 -12.5 17.5t-9.5 20.5q6 20 23 10q29 -18 29 -58q0 -41 -28.5 -67.5t-69.5 -26.5zM307 431q-18 0 -31 -14t-13 -32q0 -38 40 -38q17 0 28 14t11 31q0 39 -35 39z" />
    <glyph glyph-name="Ograve" unicode="&#xd2;" horiz-adv-x="237" 
d="M338 0q-35 0 -62.5 27t-29.5 62q-29 -89 -103 -89q-46 0 -74.5 31t-28.5 77q0 51 54 84q15 9 44 14q34 6 46 11q28 12 28 45q0 23 -17.5 39t-40.5 16q-22 0 -41.5 -19t-19.5 -40.5t-23 -21.5q-19 0 -19 22q0 41 27.5 66t69.5 25q33 0 59.5 -19.5t32.5 -51.5
q38 -56 79 -56q43 0 65 39q18 32 18 78q0 72 -48 91q14 -19 14 -42q0 -29 -19 -51.5t-47 -22.5q-30 1 -51.5 23.5t-21.5 52.5q0 33 25 57.5t58 24.5h7q-31 34 -31 67q0 30 19 49t49 19q27 0 47 -16.5t20 -42.5q0 -18 -17 -18q-12 0 -14 10q-6 27 -38 27q-33 0 -33 -40
q0 -14 12 -32q17 -26 17 -29q78 -25 78 -138q0 -54 -26 -95q-30 -47 -81 -47t-84 48q-9 -30 -36 -42q-16 -7 -51 -13q-75 -13 -75 -60q0 -66 67 -66q39 0 67 26.5t28 65.5q-2 9 11 9q9 0 9 -9q-2 -36 24 -64t61 -28q64 0 64 51q0 3 -10 14t-10 17q0 18 15 18q22 0 31 -31
q4 -10 4 -28q0 -41 -28.5 -67.5t-69.5 -26.5zM307 431q-18 0 -31 -14t-13 -32q0 -38 40 -38q17 0 28 14t11 31q0 39 -35 39z" />
    <glyph glyph-name="Oacute" unicode="&#xd3;" 
d="M86 319q-48 0 -77 23q-7 6 -7 15q0 18 16 18q5 0 9 -4q25 -22 59 -22q42 0 71.5 23t29.5 64q0 15 -9.5 33t-21.5 24q6 -16 6 -32q0 -27 -20 -48.5t-47 -21.5q-71 0 -71 65q0 35 26.5 62.5t61.5 27.5q52 0 81 -42q21 -31 21 -63q0 -55 -36.5 -88.5t-91.5 -33.5zM132 503
h-20q-23 0 -38 -14t-15 -37q0 -37 36 -37q18 0 31 18.5t13 37.5q0 16 -7 32z" />
    <glyph glyph-name="Ocircumflex" unicode="&#xd4;" 
d="M87 319q-41 0 -77 23q-8 5 -8 14q0 18 14 18q4 0 8 -4q28 -21 63 -21q42 0 71.5 23t29.5 64q0 15 -9.5 33t-21.5 24q6 -16 6 -32q0 -27 -20 -48.5t-47 -21.5q-71 0 -71 65q0 33 20.5 57.5t53.5 29.5q-29 30 -29 70q0 31 20 52.5t51 21.5q29 0 49.5 -20.5t17.5 -49.5
q-1 -13 -16 -13q-13 0 -16 13q-7 31 -39 32q-35 1 -35 -50q0 -15 27 -56q39 -6 62.5 -34t23.5 -68q0 -55 -36.5 -88.5t-91.5 -33.5zM133 503h-21q-22 0 -37 -14.5t-15 -36.5q0 -37 36 -37q18 0 31 18.5t13 37.5q0 16 -7 32z" />
    <glyph glyph-name="Otilde" unicode="&#xd5;" horiz-adv-x="237" 
d="M335 -1q-30 0 -57 25.5t-29 55.5q-6 -34 -34 -57.5t-63 -23.5q-48 0 -80 27t-32 74q0 58 48 90q13 9 42 14q34 6 44 10q31 13 31 49q0 20 -15 35.5t-35 15.5q-27 0 -45.5 -16t-18.5 -43q0 -19 -21 -19t-21 23q0 38 26 63t64 25q40 0 67.5 -24t27.5 -64q0 -73 -90 -82
q-70 -7 -70 -61q0 -66 73 -66q75 0 93 89q3 10 10 10q8 0 9 -10q4 -30 26 -58q24 -31 52 -31q83 0 83 196q0 85 -46 164q-52 89 -130 100q21 -32 21 -68q0 -34 -19 -56t-52 -22q-35 0 -55 24t-20 60q0 39 27.5 68t66.5 29q112 0 177 -101q56 -87 56 -206q0 -97 -15 -149
q-26 -90 -96 -90zM215 510q-23 -3 -45 -21t-22 -40q0 -46 44 -46q20 0 34 15.5t14 36.5q0 27 -25 55z" />
    <glyph glyph-name="Odieresis" unicode="&#xd6;" horiz-adv-x="237" 
d="M238 -1q-77 0 -127.5 50.5t-50.5 127.5q0 47 28 83q30 40 75 40q36 0 57 -23t21 -59q0 -33 -20 -53.5t-53 -20.5q-32 0 -50.5 22t-18.5 55q-9 -15 -9 -49q0 -58 44 -91q39 -30 99 -30q82 0 125 55q39 50 39 134q0 123 -60 190q-40 45 -96 50q26 -29 26 -69
q0 -33 -21 -55.5t-54 -22.5q-36 0 -58.5 23t-22.5 59q0 46 32 73.5t79 27.5q75 0 128 -55q46 -48 66 -126q11 -43 11 -103q0 -99 -44 -161q-50 -72 -145 -72zM167 269q-45 -1 -45 -47q0 -20 12.5 -34t32.5 -14t33.5 14.5t13.5 34.5t-13.5 33.5t-33.5 12.5zM211 479
q-24 -3 -45 -19q-24 -18 -24 -40q0 -53 45 -53q35 0 46 20q6 11 6 38q0 29 -28 54z" />
    <glyph glyph-name="Oslash" unicode="&#xd8;" horiz-adv-x="473" 
d="M353 146q-39 0 -63 28.5t-24 68.5q0 43 19 63l-235 -1q-25 0 -25 23t25 23h281q52 0 82 -28t30 -80q0 -40 -25.5 -68.5t-64.5 -28.5zM350 310q-27 -1 -43.5 -19t-16.5 -45q0 -24 19.5 -40t44.5 -16q60 0 60 56q0 29 -17.5 47t-46.5 17z" />
    <glyph glyph-name="Ugrave" unicode="&#xd9;" horiz-adv-x="195" 
d="M157 240q-3 -30 -26.5 -47t-55.5 -17q-15 0 -25 2l-15 3q-19 4 -47 18q-31 16 -38 29l-3 19l4 6q57 -47 122 -47q43 0 52 26q2 8 2 18q0 31 -38 39q-10 2 -63 2l-10 4l-5 9q0 14 13 17q49 0 64 -2q37 -5 55 -27q15 -15 15 -41z" />
    <glyph glyph-name="Uacute" unicode="&#xda;" horiz-adv-x="462" 
d="M438 240q0 -34 -16 -57q-18 -27 -51 -27q-36 0 -60 19t-24 54q0 30 18 53l10 8h-186q19 -11 24 -48q0 -33 -28 -51q-24 -16 -58 -16q-47 0 -87 24q-21 13 -28 23q-3 6 -5 19l1 12l11 -4q23 -28 68 -41l32 -4q61 0 61 47q0 39 -70 39q-15 0 -15 15q0 14 15 16h282
q41 0 71 -20q35 -23 35 -61zM404 235q0 22 -14.5 35.5t-36.5 13.5q-17 0 -28 -21q-10 -17 -10 -36q0 -17 15 -28.5t33 -11.5t29.5 14.5t11.5 33.5z" />
    <glyph glyph-name="Ucircumflex" unicode="&#xdb;" horiz-adv-x="39" 
d="M409 321h-66q-14 0 -14 16q0 19 13 19h67q44 0 44 52q0 18 -13 31.5t-31 13.5h-368q-17 0 -17 27q0 23 17 23h343q12 0 46 -5q58 -19 58 -85q0 -50 -34 -75q-23 -17 -45 -17z" />
    <glyph glyph-name="Udieresis" unicode="&#xdc;" horiz-adv-x="477" 
d="M353 292q-39 0 -65 28.5t-26 67.5q0 38 26 64q-83 -5 -83 -74q0 -8 -9 -8q-10 0 -10 8q0 30 -24.5 49.5t-55.5 19.5q-26 0 -46 -12q-24 -14 -24 -39q0 -41 42 -48q8 0 15 -4q12 -5 12 -12q0 -8 -14 -10h-21q-69 0 -69 82q0 42 32 67q29 23 72 23q63 0 91 -60
q34 66 121 66q53 0 86 -27q37 -30 37 -81q0 -39 -24 -68q-25 -32 -63 -32zM345 456q-57 -13 -57 -64q0 -26 18 -41t45 -15q61 0 61 50q0 62 -67 70z" />
    <glyph glyph-name="germandbls" unicode="&#xdf;" horiz-adv-x="252" 
d="M344 0q-42 -2 -70 25t-28 69q0 39 21 66.5t59 27.5q31 0 51 -20.5t20 -51.5q0 -26 -10 -53q49 25 49 107q0 46 -23 86q-30 52 -88 52q-27 0 -53.5 -27.5t-26.5 -54.5q0 -12 -10 -12t-10 12q0 22 -18 47q-26 36 -72 36q-26 0 -48 -21t-22 -47q0 -21 14.5 -35t35.5 -14h33
q14 0 14 -12t-14 -12h-27q-11 0 -28 -10q-30 -18 -30 -49q0 -55 59 -55q55 0 55 43q0 14 12 14q17 0 17 -31q0 -36 -25 -58t-62 -22t-63 26.5t-26 63.5q0 63 48 87q-41 26 -41 73q0 41 28 70t69 29q70 0 100 -69q33 69 90 69q39 0 63 -16q74 -50 74 -161q0 -67 -25 -113
q-31 -57 -92 -59zM324 159q-21 0 -34.5 -15.5t-13.5 -36.5t13.5 -35.5t34.5 -14.5q51 0 51 50q0 21 -15 36.5t-36 15.5z" />
    <glyph glyph-name="agrave" unicode="&#xe0;" horiz-adv-x="252" 
d="M351 -2q-35 0 -63 27q-26 24 -35 60q-8 -36 -35.5 -61t-63.5 -25q-54 0 -92 73q-22 43 -22 111q0 61 24 108q29 59 84 59q31 0 50 -22.5t19 -54.5q0 -33 -20 -55.5t-53 -22.5q-53 0 -63 66q-15 -31 -15 -76q0 -49 21 -87q25 -45 70 -45q61 0 82 58q4 12 12 12t15 -14
q11 -23 34 -39.5t47 -16.5q85 0 85 133q0 37 -14 75q-18 48 -50 48q-39 0 -39 -52q0 -20 14.5 -40t33.5 -26q10 -2 10 -14q0 -15 -19 -15h-138q-17 0 -17 16q0 13 8 13h112q-38 35 -38 82q0 29 17.5 52t45.5 23q54 0 83 -64q22 -49 22 -111q0 -55 -28 -110q-33 -65 -84 -65z
M139 321q-13 0 -25.5 -16.5t-12.5 -30.5q0 -42 40 -42q17 0 29.5 13t12.5 30q0 46 -44 46z" />
    <glyph glyph-name="aacute" unicode="&#xe1;" horiz-adv-x="252" 
d="M0.5 201h0.5q0 -1 -0.5 -1h-0.5h-0.5t-0.5 1h0.5h0.5h0.5z" />
    <glyph glyph-name="acircumflex" unicode="&#xe2;" horiz-adv-x="38" 
d="M502 406q0 -33 -19.5 -57.5t-51.5 -24.5h-114q-13 0 -13 14q0 15 13 15h113q40 0 40 48q0 17 -11 29.5t-28 12.5h-395q-15 0 -15 21q0 22 15 22h372q94 0 94 -80z" />
    <glyph glyph-name="atilde" unicode="&#xe3;" horiz-adv-x="19" 
d="M0 201v-1v0v0h-0.5h-0.5q0 1 0.5 1h0.5v0z" />
    <glyph glyph-name="adieresis" unicode="&#xe4;" horiz-adv-x="313" 
d="M267 -30h-53q57 -33 57 -89q0 -42 -30 -70.5t-72 -28.5q-54 0 -84.5 32t-30.5 86q0 58 33 104q7 9 64 87q34 46 34 97q0 26 -13.5 46.5t-38.5 20.5q-47 0 -47 -51q0 -20 -13 -20q-16 0 -16 24q0 32 22 53t54 21q36 0 56 -31q18 -27 18 -65q0 -54 -34 -99l-64 -85
q-34 -45 -34 -90q0 -90 86 -90t86 67q0 57 -63 72q-18 4 -18 21q0 18 17 18h84q16 0 16 -15t-16 -15z" />
    <glyph glyph-name="aring" unicode="&#xe5;" 
d="M54 -271q-39 0 -60 42q-23 -42 -62 -42q-26 0 -45 15.5t-19 40.5t18.5 41.5t43.5 16.5q34 0 61 -34q5 22 5 39q0 53 -40 78q7 -11 7 -25q0 -41 -41 -41q-17 0 -28.5 11.5t-11.5 28.5q0 20 16 34t37 14q38 0 59 -34q18 -29 18 -69q0 -23 -8 -53q21 -25 45 -25q52 0 52 64
q0 35 -16 58q-18 27 -51 29q-11 1 -11 13q0 13 11 13q23 0 40 -14q43 -35 43 -105q0 -34 -15 -62q-17 -34 -48 -34zM-71 -182q-15 0 -29 -8.5t-14 -22.5q0 -13 16 -21q13 -7 28 -7q39 0 52 28q-19 31 -53 31zM-73 -70q-26 0 -26 -25t24 -25t24 25t-22 25zM-6 -318
q-17 0 -17 17l17 52q18 -34 18 -52q0 -17 -18 -17z" />
    <glyph glyph-name="ae" unicode="&#xe6;" 
d="M79 -284q-17 0 -15 13l12 74q0 41 -17 73q-20 39 -58 39q-12 0 -30 -14q-41 -33 -41 -99q0 -30 14 -75q4 -12 -18 -12q-13 0 -15 7q-9 21 -9 57q0 51 25 99q30 58 74 58q32 0 58 -29q44 -48 44 -130q0 -61 -24 -61z" />
    <glyph glyph-name="ccedilla" unicode="&#xe7;" 
d="M106 -280q-20 0 -36.5 15.5t-22.5 35.5q-20 -50 -62 -50q-35 0 -59 40q-14 -39 -56 -39q-24 0 -41 20t-17 45t16.5 44t40.5 19q52 0 60 -54q25 -41 54 -41q53 0 53 73q0 29 -18.5 54t-46.5 25q-14 0 -14 14q0 15 15 15q39 0 62 -42q20 -35 20 -77q0 -8 -1 -13
q15 -49 55 -49q56 0 56 71q0 57 -42 80q-9 5 -31 5q-10 0 -10 13t11 13q44 0 68 -40q21 -34 21 -80q0 -38 -18 -65q-21 -32 -57 -32zM-129 -169q-38 0 -38 -42q0 -34 39 -34q37 0 37 34q0 42 -38 42zM-73 -328q-17 0 -17 18q2 7 17 51q19 -35 19 -51q0 -18 -19 -18z" />
    <glyph glyph-name="egrave" unicode="&#xe8;" horiz-adv-x="379" 
d="M237 -255q-56 0 -65 50q-4 -26 -26 -38.5t-49 -10.5q-27 3 -47 27t-20 52q0 35 18 56q7 8 26 24l2 1h-64q-14 0 -14 18q0 24 24 19l86 -18q11 -2 11 -13t-10 -15q-24 -9 -29 -13q-22 -16 -22 -45q0 -48 44 -52q27 -2 44 12t17 40q0 16 10 16q9 0 9 -15q0 -22 17.5 -37.5
t39.5 -15.5q75 0 75 205q0 80 -40 150q-44 78 -115 98q-15 4 -15 20q0 22 15 19q89 -16 140 -122q40 -83 40 -170q0 -242 -102 -242z" />
    <glyph glyph-name="eacute" unicode="&#xe9;" 
d="M-187 -346q3 -6 3 -10q0 -7 -4 -12q-8 -14 -26 -14q-30 0 -30 28l2 8l24 47h7z" />
    <glyph glyph-name="ecircumflex" unicode="&#xea;" 
d="M55 -284q-52 0 -59 55q-3 -24 -21 -40.5t-42 -16.5q-27 0 -45.5 18.5t-18.5 45.5q0 38 33 59q8 5 28.5 7t27.5 6q17 10 17 29q0 32 -36 32q-41 0 -41 -38q0 -10 -14 -10q-10 0 -10 11q0 59 60 59q23 0 40.5 -13.5t19.5 -36.5q18 -35 52 -35q17 0 33 9.5t16 25.5
q0 21 -14 27q-5 1 -26 1q-10 0 -10 11t10 11q24 0 33 -5q25 -14 25 -45q0 -59 -67 -59q-34 0 -55 36q-9 -26 -61 -36q-40 -7 -40 -33q0 -40 42 -40q23 0 40 14.5t19 37.5q1 5 7 5q5 1 5 -5q3 -52 55 -52q39 0 39 29q0 4 -8 8t-8 8q0 15 13 15q9 0 14.5 -13t5.5 -24
q0 -26 -16.5 -42t-42.5 -16z" />
    <glyph glyph-name="edieresis" unicode="&#xeb;" 
d="M-129 -83q39 0 60.5 -26t21.5 -66q0 -71 -82 -71q-33 0 -56.5 19.5t-23.5 51.5q0 37 22 64.5t58 27.5zM91 -328q-14 0 -14 19q0 10 14 48q14 -27 14 -48q0 -19 -14 -19zM-126 -281q-46 0 -74 33t-28 80q0 42 27.5 72.5t69.5 30.5q44 0 73 -29.5t29 -73.5t-26 -77
q-28 -36 -71 -36zM153 -282q-44 0 -62 53q-19 -53 -67 -53q-35 0 -53 34q-15 27 -15 65q0 7 5 8q6 2 6 -2q0 -25 16.5 -47t40.5 -22q58 0 58 71q0 60 -41 84q-10 6 -34 6q-8 0 -8 11q0 12 11 12q50 0 77 -58q13 -28 13 -63q0 -12 -1 -17q15 -46 54 -46q58 0 58 71
q0 59 -42 84q-10 6 -33 6q-8 0 -8 11q0 12 10 12q44 0 69 -40q21 -34 21 -81q0 -40 -17 -67q-20 -32 -58 -32z" />
    <glyph glyph-name="igrave" unicode="&#xec;" 
d="M121 -159q0 -39 -14 -65l-9 -17q19 -25 27 -68q2 -7 -12 -7q-15 0 -15 9q0 28 -14 48q-7 -11 -20 -20q-30 -20 -63 -20q-32 0 -54 14q-26 16 -26 46q0 60 74 60q57 0 89 -45q19 23 19 59q0 60 -46 60q-13 0 -25 -13.5t-12 -26.5q0 -4 -6 -4t-6 5q0 16 -10.5 28.5
t-26.5 12.5q-37 0 -37 -35q0 -3 3 -13q2 -7 -7 -7q-16 0 -16 30q0 22 16.5 35t38.5 13q34 0 47 -39q13 36 41 36q48 0 59 -57h42q-10 41 -10 38q0 17 14 17t14 -17q0 -4 -9 -38h40q10 0 10 -9q0 -10 -10 -10h-86zM66 -232q-30 33 -71 33q-54 0 -54 -34q0 -15 23 -24
q17 -7 35 -7q46 0 73 26z" />
    <glyph glyph-name="iacute" unicode="&#xed;" 
d="M61 -285q-42 0 -56 52q-15 -51 -63 -51q-38 0 -58 39q-16 30 -16 72q0 38 15 68q18 37 53 37q22 0 36 -14.5t14 -36.5q0 -47 -47 -47q-18 0 -31 15t-12 33q-13 -12 -13 -48q0 -32 14 -55q17 -27 47 -27q22 0 38.5 14t16.5 35q0 7 6 7q8 0 8 -7q0 -20 14 -34.5t34 -14.5
q53 0 53 70q0 53 -36 75q-5 3 -24 6q-13 2 -13 12q0 12 12 12q7 0 25 -5q54 -39 54 -111q0 -37 -17 -64q-20 -32 -54 -32zM-62 -89q-26 0 -26 -28t27 -28q26 0 26 27q0 29 -27 29z" />
    <glyph glyph-name="icircumflex" unicode="&#xee;" 
d="M2 -292q-45 0 -72 33t-27 79q0 43 26.5 73.5t68.5 30.5q45 0 73 -29.5t28 -74.5t-26 -77q-28 -35 -71 -35zM0 -94q-33 0 -56 -24.5t-23 -57.5q0 -35 22.5 -57t57.5 -22q80 0 80 79q0 35 -23 58.5t-58 23.5zM-1 -196q-24 0 -24 27q0 29 24 29q26 0 26 -29q0 -27 -26 -27z
" />
    <glyph glyph-name="idieresis" unicode="&#xef;" 
d="M66 -277q-50 0 -61 50q-12 -49 -56 -49q-31 0 -49 31q-15 26 -15 59q0 78 57 115q25 16 68 16q40 0 72 -34q1 -2 0 -6q0 -5 -4 -6q-13 -4 -22 5q-21 22 -60 21q-42 -1 -67.5 -31.5t-25.5 -73.5q0 -67 46 -67q21 0 35.5 16.5t14.5 38.5q0 11 5 13q2 0 12 -22.5t13 -26.5
q18 -19 35 -19q37 0 37 43q0 29 -24 28q-11 -1 -13 4l-3 7q-1 2 -1 5q0 6 13 6q48 -1 48 -59q0 -25 -15.5 -44.5t-39.5 -19.5z" />
    <glyph glyph-name="ntilde" unicode="&#xf1;" 
d="M70 -281q-25 0 -43 18t-18 43t13 43t37 18q47 0 47 -47q0 -29 -8 -36q32 24 32 70q0 38 -17 62q-20 28 -56 28q-40 0 -48 -51q-2 -10 -8 -10q-5 0 -7 10q-4 21 -19.5 36t-35.5 15q-19 0 -33 -12.5t-14 -31.5q0 -31 32 -31h22q8 0 8 -8t-8 -8h-19q-4 0 -17 -5
q-19 -12 -19 -31q0 -14 11.5 -25.5t25.5 -11.5q13 0 24.5 8t11.5 20q0 9 9 9q10 0 10 -19q0 -24 -16 -38.5t-40 -14.5t-40.5 17t-16.5 41q0 41 31 56q-26 15 -26 47q0 27 17.5 45t44.5 18q44 0 63 -44q24 44 58 44q26 0 40 -10q48 -34 48 -105q0 -43 -16 -72
q-20 -36 -60 -37zM58 -178q-31 0 -31 -34q0 -29 30 -29q33 0 33 29q0 13 -9.5 23.5t-22.5 10.5z" />
    <glyph glyph-name="ograve" unicode="&#xf2;" 
d="M-27 -141q-2 -31 -28.5 -48t-59.5 -17h-314q-10 3 -11 14q0 12 8 15q9 0 13 2h262l-10 17q-9 15 -9 33q0 31 23.5 51.5t54.5 20.5q32 0 53 -21.5t19 -53.5zM-56 -131q0 20 -11 34q-12 11 -28 13q-53 0 -53 -45q0 -22 15 -36q11 -8 28 -10q19 0 34 12.5t15 31.5z" />
    <glyph glyph-name="oacute" unicode="&#xf3;" 
d="M54 -292q-37 0 -55 50q-25 -49 -56 -49q-32 0 -50 30q-15 25 -15 60q0 42 19 76q22 39 59 50q20 6 48 6q36 0 60 -17q55 -39 55 -118q0 -33 -16 -58q-18 -30 -49 -30zM-1 -88q-66 0 -92 -52q-13 -26 -13 -52q0 -60 48 -60q49 0 49 45q0 9 8 9q6 0 6 -9q0 -17 15 -31
t32 -14q51 0 51 60q0 47 -28.5 75.5t-75.5 28.5zM-1 -165q-21 0 -21 25q0 23 21 23q20 0 20 -23q0 -25 -20 -25zM-2 -340q-18 0 -18 18q0 8 19 52q15 -38 15 -52q0 -18 -16 -18z" />
    <glyph glyph-name="ocircumflex" unicode="&#xf4;" 
d="M54 -292q-37 0 -55 50q-25 -49 -56 -49q-32 0 -50 30q-15 25 -15 60q0 42 19 76q22 39 59 50q20 6 48 6q36 0 60 -17q55 -39 55 -118q0 -33 -16 -58q-18 -30 -49 -30zM-1 -88q-66 0 -92 -52q-13 -26 -13 -52q0 -60 48 -60q49 0 49 45q0 9 8 9q6 0 6 -9q0 -17 15 -31
t32 -14q51 0 51 60q0 47 -28.5 75.5t-75.5 28.5z" />
    <glyph glyph-name="otilde" unicode="&#xf5;" horiz-adv-x="327" 
d="M298 -246q-23 6 -45 28.5t-31 46.5q-44 -75 -121 -75q-46 0 -77 31t-31 77t32.5 74.5t79.5 28.5q32 0 67 -20q17 -10 51 -50q25 70 25 154q0 195 -88 241q-6 3 -46 11q-29 6 -29 18q0 18 16 18h10q28 0 54 -16q105 -64 105 -294q0 -28 -9 -85q-10 -64 -23 -80
q24 -66 74 -71q14 -2 14 -14q0 -11 -8.5 -18.5t-19.5 -4.5zM100 -60q-33 0 -58 -20t-25 -52q0 -74 87 -74q69 0 106 69q-13 33 -44 55t-66 22z" />
    <glyph glyph-name="odieresis" unicode="&#xf6;" horiz-adv-x="335" 
d="M194 -203q-38 0 -58 42q-17 -43 -61 -43q-28 0 -45.5 21.5t-17.5 50.5t17 49.5t46 20.5q43 0 58 -41q20 -57 61 -57q76 0 76 171q0 220 -87 278q-15 10 -37 12q-16 1 -16 19q0 21 14 21q25 0 53 -23q51 -42 77 -140q20 -76 20 -162q0 -78 -16 -133q-25 -86 -84 -86z
M75 -86q-43 0 -43 -40t43 -40q44 0 44 40q0 18 -13 29t-31 11z" />
    <glyph glyph-name="divide" unicode="&#xf7;" horiz-adv-x="353" 
d="M207 -236q-23 0 -41 14.5t-19 37.5q-15 -52 -67 -52q-66 0 -66 67q0 33 28 52q9 6 33 10t32 8q17 8 17 26q0 34 -38 34q-15 0 -29 -11t-12.5 -26t-16.5 -15q-13 0 -13 11q0 28 18.5 46t46.5 18q65 0 65 -56q0 -30 -24 -43q-48 -11 -52 -13q-31 -12 -31 -35q0 -33 41 -33
q22 0 39.5 12.5t17.5 33.5q0 15 9 15t9 -14q0 -47 58 -47q40 0 61 61q17 49 17 96q0 262 -106 308q-14 6 -23 6q-17 0 -17 21q0 18 22 15q18 -2 30 -10q116 -73 116 -333q0 -204 -105 -204z" />
    <glyph glyph-name="oslash" unicode="&#xf8;" horiz-adv-x="324" 
d="M145 -308q-64 0 -107 42.5t-43 106.5q0 56 38 100.5t94 44.5q38 49 49 68q25 43 25 78q0 70 -38 90q-10 5 -40 11q-20 2 -20 20q0 16 21 16q26 0 40 -9q62 -39 62 -119q0 -75 -71 -158q36 -8 62.5 -37t26.5 -65q0 -37 -24.5 -63t-61.5 -26t-63 24.5t-26 61.5q0 34 28 76
q-34 -7 -56 -42q-20 -31 -20 -68q0 -51 34.5 -86t85.5 -35q44 0 72 21q24 18 45 61q7 13 16 10q8 -3 8 -13q0 -27 -18 -53q-40 -57 -119 -57zM133 -38q-38 -38 -38 -73q0 -26 17.5 -41t43.5 -15q46 0 53 57q3 29 -21.5 49t-54.5 23z" />
    <glyph glyph-name="ugrave" unicode="&#xf9;" horiz-adv-x="321" 
d="M199 -301q-39 -19 -78 -19q-48 0 -85 28q-41 30 -41 77q0 48 46 69q51 8 60 12q32 14 32 47q0 48 -49 48q-13 0 -40 -18q-8 -5 -14 -5q-17 0 -17 18q0 19 24 32q20 11 41 11q37 0 61.5 -23.5t24.5 -60.5q0 -57 -54 -75q-17 -6 -51 -13q-25 -10 -25 -34q0 -62 89 -62
q56 0 94.5 30.5t38.5 84.5q0 58 -33 103q-4 4 -79 100q-67 86 -67 165q0 49 27 85q30 40 77 40q42 0 71.5 -30.5t29.5 -72.5q0 -20 -19 -20q-18 0 -20 19q-5 62 -69 62q-31 0 -50 -31q-17 -27 -17 -60q0 -62 77 -160q13 -16 50 -66q50 -71 50 -143q0 -97 -85 -138z" />
    <glyph glyph-name="uacute" unicode="&#xfa;" horiz-adv-x="118" 
d="M171 -177q-39 0 -63 14q-80 47 -80 239q0 42 3 127t3 127q0 17 15 17t15 -15q0 -33 -3 -98t-3 -98q0 -93 9 -141q16 -84 64 -112q24 -14 67 -14q7 1 41 3q29 2 29 -11q0 -21 -41 -31q-28 -7 -56 -7z" />
    <glyph glyph-name="ucircumflex" unicode="&#xfb;" horiz-adv-x="290" 
d="M251 106q0 -248 -172 -366l-16 -11q-4 -3 -15 -5q-7 0 -12 6l-3 10q0 8 11 18l24 18q72 54 112 142q38 83 38 177q0 81 -20 119h-7q0 -34 -23.5 -55t-58.5 -21q-37 0 -62.5 22t-25.5 58q0 40 22.5 67.5t61.5 27.5q74 0 113 -70q33 -58 33 -137zM170 231q0 22 -21 36
t-44 14q-22 0 -36.5 -17.5t-14.5 -39.5q0 -52 64 -52q24 0 38 17t14 42z" />
    <glyph glyph-name="udieresis" unicode="&#xfc;" 
d="M120 -227q-21 -54 -58 -54q-47 0 -61 53q-9 -53 -60 -53q-36 0 -55 40q-15 31 -15 71q0 37 14 66q18 37 51 37q19 0 31.5 -13.5t12.5 -33.5t-13 -34t-33 -14q-32 0 -38 40l-1 -1q-9 -20 -9 -47q0 -76 55 -76q34 0 52 34q3 6 8 5q6 -1 8 -6q17 -33 51 -33q52 0 52 80
q0 23 -9 46q-11 30 -30 30q-25 0 -25 -32q0 -29 30 -40q5 -2 5 -10q0 -9 -11 -9h-85q-9 0 -9 9q0 10 13 10h60q-23 17 -23 50q0 17 11 31t27 14q35 0 52 -38q13 -28 13 -68q0 -25 -11 -54zM-69 -86q-6 0 -15 -8q-8 -13 -8 -19q0 -27 23 -27q27 0 27 26q0 28 -27 28z" />
    <glyph glyph-name="OE" unicode="&#x152;" horiz-adv-x="237" 
d="M309 176q-17 -15 -50 -26q37 -25 37 -68q0 -39 -27.5 -61t-67.5 -22q-37 0 -65.5 23t-28.5 59q0 41 33 68l-9 3q-70 34 -70 94q0 81 79 81q31 0 50.5 -19.5t19.5 -50.5q0 -25 -16.5 -41t-41.5 -16q-53 0 -53 59q0 18 12 32q-12 0 -20 -15.5t-8 -28.5q0 -37 34 -59
q30 -20 69 -20q80 -1 123 46t43 128q0 58 -28 99q-31 46 -85 57q22 -30 22 -65q0 -33 -21 -55t-54 -22q-36 0 -57.5 20.5t-21.5 56.5q0 42 30 71.5t72 29.5q80 0 127 -62q43 -56 43 -139q0 -97 -70 -157zM154 295q-33 0 -33 -38q0 -30 32 -32q35 -2 35 34t-34 36zM196 144
q-23 0 -41 -15t-18 -38q0 -40 64 -40q58 0 58 39q0 23 -19.5 38.5t-43.5 15.5zM205 498q-27 -2 -46.5 -19t-19.5 -43q0 -19 12 -34.5t31 -15.5q23 0 36.5 17t13.5 40q0 24 -27 55z" />
    <glyph glyph-name="florin" unicode="&#x192;" horiz-adv-x="237" 
d="M335 -1q-35 0 -61.5 22t-33.5 56q-6 -33 -30.5 -55t-57.5 -22q-50 0 -78 48q-24 40 -24 94q0 52 23.5 102.5t65.5 76.5t108 26q26 0 57 -11.5t47 -29.5q4 -5 4 -11q0 -19 -21 -19q-7 0 -11 6q-24 35 -98 34q-65 0 -107 -51q-40 -47 -40 -114q0 -38 17 -65q20 -33 56 -33
q66 0 79 87q1 9 9 9q11 0 10 -16q-2 -29 25 -54.5t57 -25.5q60 0 60 61q0 18 -10.5 31t-28.5 13q-24 -1 -24 18q0 17 19 16q37 -1 56 -27.5t19 -64.5q0 -40 -23 -69q-25 -32 -64 -32z" />
    <glyph glyph-name="circumflex" unicode="&#x2c6;" horiz-adv-x="38" 
d="M399 321h-166q-14 0 -14 16q0 19 13 19h167q44 0 44 52q0 18 -13 31.5t-31 13.5h-358q-17 0 -17 27q0 23 17 23h333q12 0 46 -5q58 -19 58 -85q0 -50 -34 -75q-23 -17 -45 -17z" />
    <glyph glyph-name="macron" unicode="&#xaf;" horiz-adv-x="341" 
d="M213 292q-39 0 -65 28.5t-26 67.5q0 38 26 64q-83 -5 -83 -74q0 -8 -9 -8q-10 0 -10 8q0 30 -24.5 49.5t-55.5 19.5q-26 0 -46 -12q-24 -14 -24 -39q0 -41 42 -48q8 0 15 -4q12 -5 12 -12q0 -8 -14 -10h-21q-69 0 -69 82q0 42 32 67q29 23 72 23q63 0 91 -60
q34 66 121 66q53 0 86 -27q37 -30 37 -81q0 -39 -24 -68q-25 -32 -63 -32zM205 456q-57 -13 -57 -64q0 -26 18 -41t45 -15q61 0 61 50q0 62 -67 70z" />
    <glyph glyph-name="macron" unicode="&#x2c9;" horiz-adv-x="341" 
d="M213 292q-39 0 -65 28.5t-26 67.5q0 38 26 64q-83 -5 -83 -74q0 -8 -9 -8q-10 0 -10 8q0 30 -24.5 49.5t-55.5 19.5q-26 0 -46 -12q-24 -14 -24 -39q0 -41 42 -48q8 0 15 -4q12 -5 12 -12q0 -8 -14 -10h-21q-69 0 -69 82q0 42 32 67q29 23 72 23q63 0 91 -60
q34 66 121 66q53 0 86 -27q37 -30 37 -81q0 -39 -24 -68q-25 -32 -63 -32zM205 456q-57 -13 -57 -64q0 -26 18 -41t45 -15q61 0 61 50q0 62 -67 70z" />
    <glyph glyph-name="endash" unicode="&#x2013;" horiz-adv-x="116" 
d="M0.5 201h0.5q0 -1 -0.5 -1h-0.5h-0.5t-0.5 1h0.5h0.5h0.5z" />
    <glyph glyph-name="emdash" unicode="&#x2014;" horiz-adv-x="237" 
d="M198 151h-160v38h160v-38z" />
    <glyph glyph-name="quoteleft" unicode="&#x2018;" horiz-adv-x="485" 
d="M325 352q0 40 19 60h-139q10 -16 10 -37q0 -58 -52 -58h-145q-12 0 -12 16q0 14 12 14h123q46 0 46 31q0 21 -20 34h-157q-22 0 -22 23q0 24 22 24h392q97 0 97 -108q0 -91 -83 -91q-40 0 -65.5 26t-25.5 66zM352 356q0 -25 19 -40t45 -15q60 0 60 50q0 69 -60 69
q-28 0 -46 -18t-18 -46z" />
    <glyph glyph-name="quoteright" unicode="&#x2019;" horiz-adv-x="237" 
d="M297 510h-226q-32 0 -32 -26q0 -36 37 -36h118q17 0 17 -20q0 -19 -17 -19h-114q-25 0 -25 -25q0 -19 14 -28q5 -2 29 -10q12 -4 12 -15q0 -14 -17 -14q-6 0 -14 3q-52 20 -52 60q0 25 24 44q-43 14 -43 66q0 28 17.5 48t44.5 20h227q15 0 15 -24t-15 -24z" />
    <glyph glyph-name="quotesinglbase" unicode="&#x201a;" horiz-adv-x="229" 
d="M308 0q-60 0 -96 67q-22 -66 -85 -66q-41 0 -68.5 29.5t-27.5 70.5q0 43 25.5 74.5t67.5 31.5q34 0 58.5 -22.5t32.5 -56.5q38 -74 93 -74q83 0 83 156q0 59 -35 127q-37 72 -86 97q-26 13 -59 15q26 -30 26 -70q0 -32 -23 -55t-55 -23q-36 0 -57 22t-21 59q0 39 30 70
t69 31q117 0 182 -94q57 -82 57 -204q0 -71 -21 -119q-29 -66 -90 -66zM124 177q-27 1 -45 -16.5t-18 -44.5q0 -62 62 -62q61 0 61 65q0 57 -60 58zM181 448q-28 -3 -48 -20.5t-20 -44.5q0 -48 44 -48q50 0 50 58q0 32 -26 55z" />
    <glyph glyph-name="quotedblleft" unicode="&#x201c;" 
d="M27 -346q3 -6 3 -9q0 -5 -5 -13q-6 -14 -25 -14q-30 0 -30 28l2 8l24 47h7z" />
    <glyph glyph-name="quotedblright" unicode="&#x201d;" 
d="M131 -241q-18 0 -18 16t15 16q31 0 31 36q0 58 -75 58q-32 0 -53 -24.5t-25 -57.5q-1 -7 -8 -7t-9 7q-18 83 -83 83q-29 0 -49.5 -17t-20.5 -45q0 -33 30 -33q13 0 13 -15q0 -17 -15 -17q-26 0 -41 21t-15 48q0 41 30 68.5t71 27.5q27 0 52.5 -18.5t37.5 -44.5
q33 63 91 63q42 0 71 -29t29 -71q0 -27 -16 -46t-43 -19z" />
    <glyph glyph-name="quotedblbase" unicode="&#x201e;" 
d="M31 -94l3 -13q0 -33 -36 -33q-34 0 -34 34l3 13l28 76h10z" />
    <glyph glyph-name="dagger" unicode="&#x2020;" horiz-adv-x="237" 
d="M391 60q-56 -61 -153 -61q-81 0 -136 41q-62 45 -62 123q0 45 23 79q26 39 69 39q32 0 52 -21.5t20 -53.5q0 -33 -21.5 -54t-54.5 -21q-39 0 -59 45q0 -64 53 -97q44 -28 112 -28q57 0 107 27q60 32 60 84q0 6 -1 11q-16 -45 -56 -45q-33 0 -55 20t-22 52q0 31 19.5 54
t49.5 23t56 -22q0 4 1 10.5t1 10.5q0 53 -24 106q-38 84 -115 94q24 -28 24 -64q0 -35 -21 -57.5t-56 -22.5q-34 0 -56.5 22.5t-22.5 56.5q0 40 30.5 69.5t70.5 29.5q95 0 148 -77q47 -68 47 -167q0 -30 -2 -43q14 -30 14 -56q0 -63 -40 -107zM127 246q-39 0 -39 -42t40 -42
q47 0 47 42t-48 42zM226 476q-71 -10 -71 -62q0 -54 42 -54q54 0 54 60q0 31 -25 56zM342 247q-42 0 -42 -43q0 -18 12 -31.5t30 -13.5t29.5 13.5t11.5 31.5q0 43 -41 43z" />
    <glyph glyph-name="daggerdbl" unicode="&#x2021;" horiz-adv-x="237" 
d="M1 201.5v-1.5v-0.5t-1 -0.5l-0.5 0.5l-0.5 0.5q0 1 0.5 1.5l0.5 0.5q1 0 1 -0.5z" />
    <glyph glyph-name="bullet" unicode="&#x2022;" horiz-adv-x="312" 
d="M176 -182q34 -15 34 -57q0 -35 -24.5 -54.5t-60.5 -19.5q-34 0 -59 19.5t-25 52.5q0 37 32 56q-72 19 -72 89q0 31 20 52t51 21q27 0 45 -16.5t18 -43.5q0 -52 -52 -52q-20 0 -33 14.5t-13 35.5q0 23 20 23q2 0 3 -1q0 -4 -2 -10.5t-2 -9.5q-2 -12 6.5 -21t20.5 -9
q31 0 31 29q0 36 -39 36q-54 0 -54 -49q0 -35 31 -53q25 -15 63 -15q61 0 92 32q27 28 37 91q4 25 4 55q0 108 -24 160q-16 34 -53 57q-3 2 -35 11q-21 6 -21 22q0 19 18 19q20 0 35 -7q105 -49 105 -268q0 -149 -97 -189zM144 -189q-5 -1 -19 -1h-19q-35 -10 -35 -45
q0 -37 55 -37q56 0 56 36t-38 47z" />
    <glyph glyph-name="ellipsis" unicode="&#x2026;" horiz-adv-x="38" 
d="M559 321h-136q-14 0 -14 16q0 19 13 19h137q44 0 44 52q0 18 -13 31.5t-31 13.5h-398q-17 0 -17 27q0 23 17 23h373q12 0 46 -5q58 -19 58 -85q0 -50 -34 -75q-23 -17 -45 -17z" />
    <glyph glyph-name="guilsinglleft" unicode="&#x2039;" horiz-adv-x="237" 
d="M328 0q-36 0 -58 18q-17 14 -35 50q-40 -70 -106 -70q-38 0 -68.5 26t-30.5 63q0 41 30 68t72 27q49 0 95 -54q10 34 10 63q0 87 -68 125q15 -20 15 -38q0 -30 -19 -48.5t-49 -18.5q-26 0 -43.5 18t-17.5 44q0 32 23 54.5t55 22.5q62 0 99 -53q33 -47 33 -112
q0 -39 -15 -86q34 -49 66 -49q58 0 84 72q18 50 18 121q0 105 -52 185q-62 95 -134 102q25 -35 25 -72q0 -33 -21.5 -55t-54.5 -22q-34 0 -57 24.5t-23 58.5q0 41 30.5 70t71.5 29q113 0 183 -108q60 -93 60 -218q0 -83 -22 -147q-31 -90 -96 -90zM129 154q-25 0 -46 -13
q-25 -15 -25 -39t24 -39q20 -13 46 -13q52 0 85 53q-32 51 -84 51zM122 321q-15 0 -27 -13t-12 -28q0 -38 38 -38q37 0 37 38q0 40 -36 41zM201 529q-27 -4 -46 -20q-22 -18 -22 -43q0 -50 49 -50t49 60q0 22 -30 53zM234 -79q-25 0 -25 31q0 8 24 78q24 -59 24 -82
q0 -27 -23 -27z" />
    <glyph glyph-name="periodcentered" unicode="&#xb7;" horiz-adv-x="278" 
d="M236 302q-34 19 -67 16q-52 -5 -82 -46.5t-30 -95.5q0 -51 30 -93q32 -47 81 -47q22 0 57 16q7 3 11 3q16 0 16 -16q0 -20 -51 -33q-27 -7 -41 -7q-70 0 -114.5 50t-44.5 121q0 77 41 128q44 55 119 55q22 0 54 -10q39 -12 39 -28q0 -14 -13 -14q-3 0 -5 1z" />
    <glyph glyph-name="periodcentered" unicode="&#x2219;" horiz-adv-x="278" 
d="M236 302q-34 19 -67 16q-52 -5 -82 -46.5t-30 -95.5q0 -51 30 -93q32 -47 81 -47q22 0 57 16q7 3 11 3q16 0 16 -16q0 -20 -51 -33q-27 -7 -41 -7q-70 0 -114.5 50t-44.5 121q0 77 41 128q44 55 119 55q22 0 54 -10q39 -12 39 -28q0 -14 -13 -14q-3 0 -5 1z" />
    <glyph glyph-name="nonbreakingspace" unicode="&#xa0;" horiz-adv-x="500" 
d="M2.5 201q0.5 0 0.5 -1t-0.5 -1h-1.5h-0.5t-0.5 1t0.5 1h0.5h1.5z" />
    <glyph glyph-name="glyph4" horiz-adv-x="229" 
 />
    <glyph glyph-name="glyph5" horiz-adv-x="229" 
 />
    <glyph glyph-name="ch256" horiz-adv-x="229" 
 />
    <glyph glyph-name="ch257" horiz-adv-x="229" 
 />
    <glyph glyph-name="glyph192" horiz-adv-x="229" 
 />
    <glyph glyph-name="glyph193" horiz-adv-x="229" 
 />
  </font>
</defs>
</svg>
