<?xml version="1.0" standalone="no"?>
<!DOCTYPE svg PUBLIC "-//W3C//DTD SVG 1.1//EN" "http://www.w3.org/Graphics/SVG/1.1/DTD/svg11.dtd" >
<svg>
<metadata>
Created by FontForge 20090622 at Mon Jul 10 12:13:47 2017
 By deploy user
Copyright (c) 1989, 1990, 1991, Adobe Systems Incorporated. All rights reserved.
</metadata>
<defs>
<font id="Courier-BoldOblique" horiz-adv-x="600" >
  <font-face 
    font-family="Courier"
    font-weight="700"
    font-style="oblique"
    font-stretch="normal"
    units-per-em="1000"
    panose-1="0 0 0 0 0 0 0 0 0 0"
    ascent="800"
    descent="-200"
    x-height="439"
    cap-height="562"
    bbox="-113 -250 749 801"
    underline-thickness="50"
    underline-position="-75"
    slope="-12"
    unicode-range="U+0020-U+FB02"
  />
<missing-glyph 
 />
    <glyph glyph-name=".notdef" 
 />
    <glyph glyph-name=".null" horiz-adv-x="0" 
 />
    <glyph glyph-name="nonmarkingreturn" 
 />
    <glyph glyph-name="space" unicode=" " 
 />
    <glyph glyph-name="exclam" unicode="!" 
d="M247 203l-18 369h144l-18 -369h-108zM398 73q0 -38 -29.5 -63t-68.5 -25t-68.5 25t-29.5 63t29.5 62.5t68.5 24.5t68.5 -24.5t29.5 -62.5z" />
    <glyph glyph-name="quotedbl" unicode="&#x22;" 
d="M153 277l-18 285h146l-18 -285h-110zM337 277l-18 285h146l-18 -285h-110z" />
    <glyph glyph-name="numbersign" unicode="#" 
d="M466 651l-12 -197h90v-104h-95l-7 -94h102v-104h-107l-12 -197h-107l12 197h-76l-12 -197h-107l12 197h-91v104h95l7 94h-102v104h106l12 197h107l-12 -197h78l12 197h107zM335 256l7 94h-77l-7 -94h77z" />
    <glyph glyph-name="dollar" unicode="$" 
d="M247 666h110v-114q24 -9 38 -16q3 6 8 35l108 -14q-23 -63 -23 -88q0 -24 12 -70l-104 -15l-9 32q-8 32 -86 32q-40 0 -67 -13t-27 -39q0 -23 25 -36.5t94 -32.5q58 -14 97 -31.5t67.5 -51t28.5 -79.5q0 -52 -39.5 -95t-122.5 -57v-139h-110v139q-22 0 -55 18l-13 -31
l-97 24q17 42 17 69q0 24 -15 86l102 16l11 -44q8 -18 32 -26t78 -8q33 0 66 11.5t33 37.5q0 23 -29.5 36t-92.5 28q-38 9 -67 19.5t-59.5 29.5t-47 48.5t-16.5 67.5q0 65 46 107.5t107 49.5v114z" />
    <glyph glyph-name="percent" unicode="%" 
d="M595 124q0 -60 -45.5 -99.5t-106.5 -39.5t-106.5 39.5t-45.5 99.5t45.5 99.5t106.5 39.5t106.5 -39.5t45.5 -99.5zM508 124q0 27 -19 44t-46 17t-46 -17t-19 -44t19 -44t46 -17t46 17t19 44zM309 477q0 -60 -45.5 -99.5t-106.5 -39.5t-106.5 39.5t-45.5 99.5t45.5 99.5
t106.5 39.5t106.5 -39.5t45.5 -99.5zM222 477q0 27 -19 44t-46 17t-46 -17t-19 -44t19 -44t46 -17t46 17t19 44zM489 480l47 -66l-427 -294l-47 66z" />
    <glyph glyph-name="ampersand" unicode="&#x26;" 
d="M446 207l-43 -91l9 -12h134v-104h-187l-31 44q-41 -59 -126 -59q-74 0 -120 45t-46 108q0 58 28.5 102t77.5 67q-46 66 -46 110q0 57 45 91.5t109 34.5q87 0 173 -65l-67 -86q-28 28 -49 37.5t-47 9.5q-52 0 -52 -32q0 -4 1 -7.5t3 -8t4 -8.5t6.5 -10.5l7.5 -11
t9.5 -13.5l10.5 -15l82 -115l34 93h162v-104h-82zM277 127l-75 101q-53 -27 -53 -80q0 -25 17.5 -42t43.5 -17q39 0 67 38z" />
    <glyph glyph-name="quotesingle" unicode="'" 
d="M245 277l-18 285h146l-18 -285h-110z" />
    <glyph glyph-name="parenleft" unicode="(" 
d="M461 -102h-108q-56 79 -95 179t-39 180t39 180t95 179h108q-62 -110 -94 -192t-32 -167t32 -167t94 -192z" />
    <glyph glyph-name="parenright" unicode=")" 
d="M139 616h108q56 -79 95 -179t39 -180t-39 -180t-95 -179h-108q62 110 94 192t32 167t-32 167t-94 192z" />
    <glyph glyph-name="asterisk" unicode="*" 
d="M91 416l34 100l126 -45l-6 130h110l-6 -130l126 45l34 -100l-129 -34l83 -101l-88 -62l-75 108l-75 -108l-88 62l83 101z" />
    <glyph glyph-name="plus" unicode="+" 
d="M245 478h110v-165h174v-110h-174v-164h-110v164h-174v110h174v165z" />
    <glyph glyph-name="comma" unicode="," 
d="M393 174l-132 -285h-138l94 285h176z" />
    <glyph glyph-name="hyphen" unicode="-" 
d="M100 313h400v-110h-400v110z" />
    <glyph glyph-name="period" unicode="." 
d="M192 78q0 40 33 66.5t75 26.5t75 -26.5t33 -66.5q0 -41 -32.5 -67t-75.5 -26t-75.5 26t-32.5 67z" />
    <glyph glyph-name="slash" unicode="/" 
d="M406 626l96 -43l-307 -660l-97 43z" />
    <glyph glyph-name="zero" unicode="0" 
d="M87 303q0 45 4.5 85t19 83.5t37 74t62 50.5t90.5 20t90.5 -20t62 -50.5t37 -74t19 -83.5t4.5 -85t-4.5 -85t-18.5 -84.5t-36.5 -76t-62 -52t-91.5 -20.5t-91.5 20.5t-62 52t-36.5 76t-18.5 84.5t-4.5 85zM200 303q0 -214 100 -214t100 214q0 209 -100 209t-100 -209z" />
    <glyph glyph-name="one" unicode="1" 
d="M81 525l214 91h76v-512h168v-104h-446v104h168v385l-136 -58z" />
    <glyph glyph-name="two" unicode="2" 
d="M61 0v95q145 101 265 221q35 33 47.5 57.5t12.5 58.5q0 39 -29.5 59.5t-62.5 20.5q-46 0 -76.5 -14.5t-30.5 -35.5v-29h-107v88q82 95 203 95q91 0 153.5 -54t62.5 -138q0 -34 -16 -76t-44 -69l-70.5 -62.5t-67 -53.5t-88.5 -59h178v72h107v-176h-437z" />
    <glyph glyph-name="three" unicode="3" 
d="M127 456l-54 86q64 41 107.5 57.5t92.5 16.5q81 0 139.5 -44t58.5 -118q0 -77 -57 -125q87 -54 87 -154q0 -86 -65.5 -138t-159.5 -52q-48 0 -90.5 11t-122.5 44l45 95q88 -43 170 -43q51 0 80.5 21t29.5 63q0 45 -34.5 68t-87.5 23h-51v104h39q42 0 73 23t31 56
q0 30 -27 46t-68 16q-29 0 -58.5 -13t-77.5 -43z" />
    <glyph glyph-name="four" unicode="4" 
d="M53 215l247 401h120v-376h87v-104h-87v-32h87v-104h-326v104h129v32h-257v79zM310 240v218h-4l-119 -218h123z" />
    <glyph glyph-name="five" unicode="5" 
d="M161 262l-52 28v311h384v-104h-277v-107q53 20 94 20q90 0 150.5 -58.5t60.5 -150.5q0 -87 -58.5 -151.5t-173.5 -64.5q-41 0 -78 6.5t-61 14.5t-80 29l40 99q89 -42 161 -42q62 0 99.5 28.5t37.5 85.5q0 38 -36 67.5t-88 29.5q-65 0 -123 -41z" />
    <glyph glyph-name="six" unicode="6" 
d="M521 616v-104h-73q-113 0 -161 -27t-72 -119q54 28 113 28q78 0 132.5 -59.5t54.5 -139.5q0 -90 -56 -150t-145 -60q-95 0 -159.5 71.5t-64.5 204.5q0 40 6 81t26.5 92.5t53 90t92 65t137.5 26.5h106h10zM403 185q0 42 -24 72t-64 30q-76 0 -108 -73q3 -52 31.5 -88.5
t75.5 -36.5q40 0 64.5 28t24.5 68z" />
    <glyph glyph-name="seven" unicode="7" 
d="M181 0l193 497h-212v-64h-107v168h439v-85l-192 -516h-121z" />
    <glyph glyph-name="eight" unicode="8" 
d="M83 168q0 40 22.5 78.5t57.5 61.5q-69 53 -69 136q0 76 61 124t145 48t145 -48t61 -124q0 -83 -69 -136q35 -23 57.5 -61.5t22.5 -78.5q0 -68 -57.5 -125.5t-159.5 -57.5t-159.5 57.5t-57.5 125.5zM207 438q0 -34 28 -57t65 -23t65 23t28 57t-27.5 54t-65.5 20t-65.5 -20
t-27.5 -54zM196 169q0 -35 32.5 -57.5t71.5 -22.5t71.5 22.5t32.5 57.5q0 37 -31 59.5t-73 22.5t-73 -22.5t-31 -59.5z" />
    <glyph glyph-name="nine" unicode="9" 
d="M79 -15v104h73q111 0 162 30.5t73 122.5q-50 -35 -115 -35q-78 0 -132.5 59.5t-54.5 139.5q0 90 56 150t145 60q95 0 159.5 -71.5t64.5 -204.5q0 -40 -6 -81t-26.5 -92.5t-53 -90t-92 -65t-137.5 -26.5h-116zM192 416q0 -41 25.5 -71.5t67.5 -30.5q36 0 66.5 18.5
t46.5 54.5q-2 51 -32 88t-80 37q-42 0 -68 -28t-26 -68z" />
    <glyph glyph-name="colon" unicode=":" 
d="M191 332q0 40 33 66.5t75 26.5t75 -26.5t33 -66.5q0 -41 -32.5 -67t-75.5 -26t-75.5 26t-32.5 67zM191 78q0 40 33 66.5t75 26.5t75 -26.5t33 -66.5q0 -41 -32.5 -67t-75.5 -26t-75.5 26t-32.5 67z" />
    <glyph glyph-name="semicolon" unicode=";" 
d="M393 174l-132 -285h-138l94 285h176zM192 332q0 40 33 66.5t75 26.5t75 -26.5t33 -66.5q0 -41 -32.5 -67t-75.5 -26t-75.5 26t-32.5 67z" />
    <glyph glyph-name="less" unicode="&#x3c;" 
d="M66 258l402 243l55 -81l-269 -162l269 -162l-55 -81z" />
    <glyph glyph-name="equal" unicode="=" 
d="M529 398v-110h-458v110h458zM529 228v-110h-458v110h458z" />
    <glyph glyph-name="greater" unicode="&#x3e;" 
d="M534 258l-402 -243l-55 81l269 162l-269 162l55 81z" />
    <glyph glyph-name="question" unicode="?" 
d="M216 195v132q90 17 131 37t41 56q0 28 -28 42t-61 14q-45 0 -91 -18v-56h-110v140q110 38 187 38q101 0 158.5 -50t57.5 -122q0 -111 -175 -157v-56h-110zM171 73q0 38 29.5 63t68.5 25t68.5 -25t29.5 -63t-29.5 -62.5t-68.5 -24.5t-68.5 24.5t-29.5 62.5z" />
    <glyph glyph-name="at" unicode="@" 
d="M421 127l16 -97q-91 -45 -171 -45q-114 0 -182 77t-68 229q0 165 72 245t224 80q107 0 161 -36.5t54 -101.5v-208h57v-104h-167v35h-2q-6 -14 -38.5 -29t-69.5 -15q-126 0 -126 116q0 52 38 88t89.5 50.5t108.5 14.5v35q0 51 -114 51q-85 0 -131 -45.5t-46 -155.5
q0 -108 42.5 -165t109.5 -57q80 0 143 38zM417 332q-39 0 -69.5 -10.5t-43.5 -23t-13 -23.5q0 -24 35 -24q27 0 52 21.5t39 59.5z" />
    <glyph glyph-name="A" unicode="A" 
d="M-9 0v104h65l151 354h-118v104h262l194 -458h64v-104h-259v104h79l-24 56h-212l-24 -56h79v-104h-257zM298 414l-64 -150h129z" />
    <glyph glyph-name="B" unicode="B" 
d="M30 0v104h80v354h-80v104h330q75 0 127 -44t52 -109q0 -67 -53 -111q41 -19 64 -55t23 -82q0 -68 -55 -114.5t-151 -46.5h-337zM220 458v-114h118q40 0 64 18t24 41q0 28 -26.5 41.5t-60.5 13.5h-119zM220 240v-136h135q40 0 72.5 14.5t32.5 51.5q0 70 -154 70h-86z" />
    <glyph glyph-name="C" unicode="C" 
d="M495 150l62 -76q-108 -92 -244 -92q-134 0 -212.5 87t-78.5 217q0 125 77.5 209.5t200.5 84.5q78 0 146 -44l5 34l106 -18q-15 -60 -15 -98q0 -45 18 -100l-110 -19l-7 54q-7 42 -51 64.5t-85 22.5q-75 0 -122 -50.5t-47 -137.5q0 -93 46 -146t138 -53q82 0 173 61z" />
    <glyph glyph-name="D" unicode="D" 
d="M30 0v104h80v354h-80v104h319q52 0 94 -16t69.5 -42t46.5 -62t27 -74t8 -79q0 -77 -22.5 -135t-60.5 -90.5t-82 -48t-93 -15.5h-306zM220 458v-354h103q71 0 113 46t42 139q0 87 -40.5 128t-92.5 41h-125z" />
    <glyph glyph-name="E" unicode="E" 
d="M25 0v104h80v354h-80v104h525l6 -210h-106l-8 106h-227v-114h83v58h104v-220h-104v58h-83v-136h235l6 107h104v-211h-535z" />
    <glyph glyph-name="F" unicode="F" 
d="M39 0v104h80v354h-80v104h525l6 -210h-106l-8 106h-227v-114h83v58h104v-220h-104v58h-83v-136h126v-104h-316z" />
    <glyph glyph-name="G" unicode="G" 
d="M594 279v-104h-46v-139l-3 -1q-124 -53 -232 -53q-134 0 -212.5 87t-78.5 217q0 125 77.5 209.5t200.5 84.5q78 0 146 -44l5 34l106 -18q-15 -60 -15 -98q0 -45 18 -100l-110 -19l-7 54q-11 87 -136 87q-75 0 -122 -50.5t-47 -137.5q0 -93 46 -146t138 -53q36 0 116 26
v60h-143v104h299z" />
    <glyph glyph-name="H" unicode="H" 
d="M510 458v-354h70v-104h-252v104h72v136h-200v-136h72v-104h-252v104h70v354h-70v104h252v-104h-72v-114h200v114h-72v104h252v-104h-70z" />
    <glyph glyph-name="I" unicode="I" 
d="M77 0v104h168v354h-168v104h446v-104h-168v-354h168v-104h-446z" />
    <glyph glyph-name="J" unicode="J" 
d="M49 46l-12 237h110q1 -60 9 -128q4 -30 43.5 -48t90.5 -18q26 0 42.5 9t24 28t9.5 38.5t2 51.5v242h-188v104h421v-104h-123v-282q0 -99 -52.5 -146.5t-136.5 -47.5q-101 0 -240 64z" />
    <glyph glyph-name="K" unicode="K" 
d="M211 314l155 144h-44v104h250v-104h-87l-154 -143q113 -39 186 -211h82v-104h-158q-30 94 -77.5 160t-105.5 88l-47 -43v-101h80v-104h-270v104h80v354h-80v104h260v-104h-70v-144z" />
    <glyph glyph-name="L" unicode="L" 
d="M39 0v104h95v354h-95v104h324v-104h-119v-354h214l12 169l108 -3l-14 -270h-525z" />
    <glyph glyph-name="M" unicode="M" 
d="M263 138l-98 317h-2v-351h90v-104h-255v104h55v354h-55v104h213l89 -284l89 284h213v-104h-55v-354h55v-104h-255v104h90v351h-2l-98 -317h-74z" />
    <glyph glyph-name="N" unicode="N" 
d="M211 562l227 -412h2v308h-100v104h270v-104h-60v-470h-138l-232 419h-2v-303h104v-104h-274v104h60v354h-60v104h203z" />
    <glyph glyph-name="O" unicode="O" 
d="M22 280q0 124 78 212t200 88t200 -88t78 -212q0 -123 -78 -210.5t-200 -87.5t-200 87.5t-78 210.5zM462 280q0 83 -43.5 139.5t-118.5 56.5t-118.5 -56.5t-43.5 -139.5q0 -82 43.5 -138t118.5 -56t118.5 56t43.5 138z" />
    <glyph glyph-name="P" unicode="P" 
d="M48 0v104h80v354h-80v104h310q87 0 144 -55.5t57 -135.5q0 -27 -9 -54.5t-31 -56.5t-67.5 -47.5t-109.5 -18.5h-104v-90h141v-104h-331zM238 458v-160h77q70 0 100.5 19.5t30.5 58.5q0 42 -33 62t-68 20h-107z" />
    <glyph glyph-name="Q" unicode="Q" 
d="M512 -1l66 -77q-79 -60 -137 -60q-34 0 -82 20t-74 20q-25 0 -46.5 -7t-66.5 -33l-52 85q44 26 75 58q-79 31 -120.5 107t-42.5 168q0 125 73.5 212.5t194.5 87.5t194.5 -87.5t73.5 -212.5q0 -105 -54.5 -186.5t-154.5 -98.5v-2q71 -27 80 -27q30 0 73 33zM148 280
q0 -77 40.5 -135.5t111.5 -58.5t111.5 58.5t40.5 135.5q0 78 -40.5 137t-111.5 59t-111.5 -59t-40.5 -137z" />
    <glyph glyph-name="R" unicode="R" 
d="M24 0v104h80v354h-80v104h329q45 0 79 -15t50.5 -34.5t27 -44.5t12.5 -39t2 -24q0 -56 -32.5 -96.5t-73.5 -52.5q12 -8 24 -22t26 -37.5l21 -36l23 -43t17 -33.5h70v-84h-152q-46 107 -82 161t-79 67h-72v-124h76v-104h-266zM214 458v-126h89q49 0 78.5 17.5t29.5 48.5
q0 60 -78 60h-119z" />
    <glyph glyph-name="S" unicode="S" 
d="M445 582l108 -20q-25 -77 -25 -110q0 -28 11 -90l-112 -8l-5 54q-2 12 -5 20.5t-13 20t-33.5 18t-57.5 6.5q-40 0 -78 -18t-38 -58q0 -59 129 -70q40 1 75.5 -6.5t69.5 -25.5t54 -55t20 -90q0 -21 -11 -46.5t-34.5 -54.5t-71 -48t-110.5 -19q-76 0 -148 36l-3 -40
l-111 13q13 58 13 91t-22 109l108 16l13 -54q14 -64 148 -64q16 0 33.5 3t37.5 10t32.5 22t12.5 36q0 36 -42 47q-19 6 -83 12q-29 3 -49 6t-56.5 15t-59 30t-40.5 52.5t-18 80.5q0 34 19 68.5t49 58.5q62 50 151 50q67 0 135 -35z" />
    <glyph glyph-name="T" unicode="T" 
d="M130 0v104h115v354h-100l-14 -163l-110 11l20 256h518l20 -256l-110 -11l-14 163h-100v-354h115v-104h-340z" />
    <glyph glyph-name="U" unicode="U" 
d="M4 458v104h268v-104h-88v-248q0 -121 116 -121t116 121v248h-88v104h268v-104h-70v-252q0 -119 -63.5 -171.5t-162.5 -52.5t-162.5 52.5t-63.5 171.5v252h-70z" />
    <glyph glyph-name="V" unicode="V" 
d="M539 458l-183 -458h-108l-181 458h-80v104h258v-104h-64l123 -314l124 314h-70v104h255v-104h-74z" />
    <glyph glyph-name="W" unicode="W" 
d="M571 478l-71 -478h-101l-97 300h-2l-99 -300h-101l-71 478h-47v84h239v-84h-85l39 -324h3l87 313h71l87 -313h2l39 324h-85v84h239v-84h-47z" />
    <glyph glyph-name="X" unicode="X" 
d="M494 458l-130 -163l149 -191h75v-104h-246v104h43l-83 108l-87 -108h54v-104h-257v104h76l150 190l-130 164h-76v104h237v-104h-33l64 -82l67 82h-25v104h228v-104h-76z" />
    <glyph glyph-name="Y" unicode="Y" 
d="M507 458l-150 -241v-113h115v-104h-340v104h115v112l-152 242h-83v104h241v-104h-36l86 -134l83 134h-35v104h238v-104h-82z" />
    <glyph glyph-name="Z" unicode="Z" 
d="M517 484l-291 -380h206v130h107v-234h-477v85l285 373h-173v-115h-107v219h450v-78z" />
    <glyph glyph-name="bracketleft" unicode="[" 
d="M355 509v-504h120v-107h-230v718h230v-107h-120z" />
    <glyph glyph-name="backslash" unicode="\" 
d="M99 583l96 43l308 -660l-97 -43z" />
    <glyph glyph-name="bracketright" unicode="]" 
d="M245 5v504h-120v107h230v-718h-230v107h120z" />
    <glyph glyph-name="asciicircum" unicode="^" 
d="M199 250l-91 48l192 318l192 -318l-91 -48l-101 168z" />
    <glyph glyph-name="underscore" unicode="_" 
d="M0 -75h600v-50h-600v50z" />
    <glyph glyph-name="grave" unicode="`" 
d="M299 508l-167 153h135l128 -153h-96z" />
    <glyph glyph-name="a" unicode="a" 
d="M570 104v-104h-196v45q-65 -60 -162 -60q-70 0 -123.5 43.5t-53.5 111.5q0 66 62 112t156 46q65 0 121 -8q0 14 -2 21.5t-10 18t-29.5 15.5t-55.5 5q-35 0 -81.5 -12t-82.5 -32l-44 98q120 50 217 50q198 0 198 -152v-198h86zM374 154v32q-56 8 -115 8q-36 0 -60 -6.5
t-34 -17.5t-13.5 -19.5t-3.5 -16.5q0 -22 23.5 -33.5t60.5 -11.5q32 0 75 21.5t67 43.5z" />
    <glyph glyph-name="b" unicode="b" 
d="M13 0v104h80v413l-85 -6l-8 103l203 12v-223q61 51 147 51q98 0 166 -68t68 -171q0 -93 -69 -161.5t-161 -68.5q-89 0 -151 59v-44h-190zM199 220q0 -54 42 -92.5t99 -38.5q55 0 93 38t38 91q0 58 -36.5 95t-94.5 37t-99.5 -36.5t-41.5 -93.5z" />
    <glyph glyph-name="c" unicode="c" 
d="M426 459l111 -17q-17 -57 -17 -89q0 -11 16 -91l-108 -11q-8 55 -20 71q-23 28 -108 28q-61 0 -104 -32.5t-43 -98.5q0 -65 44 -96t113 -31q78 0 178 75l57 -83q-54 -36 -80 -51.5t-70 -31.5t-85 -16q-116 0 -193 64t-77 170t75.5 170.5t184.5 64.5q40 0 123 -29
q3 18 3 34z" />
    <glyph glyph-name="d" unicode="d" 
d="M591 104v-104h-190v44q-62 -59 -151 -59q-92 0 -161 68.5t-69 161.5q0 103 68 171t166 68q86 0 147 -51v114l-151 -11l-14 103l275 17v-522h80zM405 220q0 57 -41.5 93.5t-99.5 36.5t-94.5 -37t-36.5 -95q0 -53 38 -91t93 -38q57 0 99 38.5t42 92.5z" />
    <glyph glyph-name="e" unicode="e" 
d="M516 156l47 -90q-145 -81 -253 -81q-116 0 -193 64t-77 170t77 170.5t193 64.5q35 0 74 -11.5t77 -35t62.5 -66.5t24.5 -98q0 -5 -1.5 -28l-2.5 -39h-391q0 -6 4.5 -15t16.5 -21.5t29 -23t45.5 -17.5t63.5 -7q78 0 204 64zM160 280h275q0 9 -11 24t-44 30.5t-79 15.5
q-45 0 -84 -17.5t-57 -52.5z" />
    <glyph glyph-name="f" unicode="f" 
d="M547 610l-45 -105q-100 17 -150 17q-38 0 -48.5 -11.5t-10.5 -42.5v-29h205v-104h-205v-231h205v-104h-415v104h100v231h-100v104h100v42q0 78 44 111.5t131 33.5q53 0 189 -16z" />
    <glyph glyph-name="g" unicode="g" 
d="M64 -110l26 104q121 -33 198 -33q62 0 82 20.5t20 73.5q-52 -46 -133 -46q-94 0 -160.5 64.5t-66.5 164.5q0 91 68.5 153.5t160.5 62.5q70 0 131 -51v36h190v-104h-80v-309q0 -79 -50.5 -125.5t-150.5 -46.5q-73 0 -235 36zM394 230q0 51 -35 85.5t-89 34.5
q-52 0 -89.5 -34t-37.5 -84t37 -84.5t88 -34.5q53 0 89.5 33.5t36.5 83.5z" />
    <glyph glyph-name="h" unicode="h" 
d="M13 511l-8 103l203 12v-219q72 47 140 47q168 0 168 -156v-194h76v-104h-262v104h76v165q0 46 -14.5 62t-47.5 16q-79 0 -136 -62v-181h70v-104h-260v104h80v413z" />
    <glyph glyph-name="i" unicode="i" 
d="M104 439h251v-335h168v-104h-446v104h168v231h-141v104zM217 498v160h138v-160h-138z" />
    <glyph glyph-name="j" unicode="j" 
d="M63 -124l26 103q79 -18 132 -18q67 0 88 28t21 80v266h-246v104h356v-405q0 -75 -49.5 -127.5t-160.5 -52.5q-58 0 -167 22zM302 498v160h138v-160h-138z" />
    <glyph glyph-name="k" unicode="k" 
d="M33 0v104h80v413l-85 -6l-8 103l203 12v-359l114 66v2h-68v104h280v-104h-89l-126 -81l160 -150h91v-104h-261v104h55l-112 105l-44 -29v-180h-190z" />
    <glyph glyph-name="l" unicode="l" 
d="M94 506l-14 103l275 17v-522h168v-104h-446v104h168v413z" />
    <glyph glyph-name="m" unicode="m" 
d="M-22 439h177v-28h2q28 43 78 43q25 0 51 -13t42 -33q49 46 105 46q54 0 93.5 -36.5t39.5 -117.5v-196h60v-104h-170v287q0 60 -31 60q-14 0 -31.5 -15t-31.5 -37v-191h50v-104h-160v292q0 23 -8.5 39t-23.5 16q-29 0 -62 -44v-199h50v-104h-230v104h70v231h-70v104z" />
    <glyph glyph-name="n" unicode="n" 
d="M18 439h190v-32q36 23 69 34q37 13 71 13q168 0 168 -156v-194h76v-104h-262v104h76v165q0 46 -14.5 62t-47.5 16q-61 0 -136 -62v-181h70v-104h-260v104h80v231h-80v104z" />
    <glyph glyph-name="o" unicode="o" 
d="M570 219q0 -105 -78.5 -169.5t-191.5 -64.5t-191.5 64.5t-78.5 169.5q0 106 78.5 170.5t191.5 64.5t191.5 -64.5t78.5 -170.5zM143 219q0 -59 45 -94.5t112 -35.5t112 35.5t45 94.5q0 60 -45 95.5t-112 35.5t-112 -35.5t-45 -95.5z" />
    <glyph glyph-name="p" unicode="p" 
d="M-1 -142v104h80v373h-80v104h190v-36q33 26 69 38q36 13 78 13q98 0 166 -68t68 -171q0 -93 -69 -161.5t-161 -68.5q-89 0 -151 59v-82h143v-104h-333zM185 220q0 -54 42 -92.5t99 -38.5q55 0 93 38t38 91q0 58 -36.5 95t-94.5 37t-99.5 -36.5t-41.5 -93.5z" />
    <glyph glyph-name="q" unicode="q" 
d="M591 439v-104h-80v-373h80v-104h-333v104h143v82q-62 -59 -151 -59q-92 0 -161 68.5t-69 161.5q0 103 68 171t166 68q86 0 147 -51v36h190zM405 220q0 57 -41.5 93.5t-99.5 36.5t-94.5 -37t-36.5 -95q0 -53 38 -91t93 -38q57 0 99 38.5t42 92.5z" />
    <glyph glyph-name="r" unicode="r" 
d="M580 330l-109 -16q0 36 -29 36q-22 0 -65.5 -26t-99.5 -85v-135h184v-104h-414v104h120v231h-112v104h222v-70q51 42 93 63.5t92 21.5q53 0 81.5 -28t32.5 -57z" />
    <glyph glyph-name="s" unicode="s" 
d="M407 459l105 -12q-10 -52 -10 -76q0 -61 18 -79l-112 -11l-6 26q-2 19 -28.5 31t-73.5 12q-42 0 -74.5 -9.5t-32.5 -30.5t41 -30t110 -13q42 -2 72 -8.5t59 -21t44.5 -44t15.5 -72.5q0 -16 -10.5 -37t-32 -44t-64.5 -39t-99 -16q-79 0 -149 31l-4 -33l-108 12
q15 52 15 83q0 46 -15 85l107 11l10 -34q15 -51 125 -51q115 0 115 41q0 19 -25 25t-85 10q-232 12 -232 152q0 48 47.5 92.5t146.5 44.5q57 0 125 -26z" />
    <glyph glyph-name="t" unicode="t" 
d="M512 153l20 -102q-143 -66 -233 -66q-91 0 -136.5 44t-45.5 114v192h-70v104h70v123h110v-123h246v-104h-246v-158q0 -44 17 -64.5t65 -20.5q69 0 203 61z" />
    <glyph glyph-name="u" unicode="u" 
d="M569 104v-104h-180v29q-62 -44 -133 -44q-85 0 -130.5 44.5t-45.5 115.5v190h-81v104h191v-274q0 -41 24 -57t51 -16q52 0 114 70v173h-82v104h192v-335h80z" />
    <glyph glyph-name="v" unicode="v" 
d="M512 335l-166 -335h-92l-166 335h-89v104h267v-104h-57l91 -218l91 218h-57v104h267v-104h-89z" />
    <glyph glyph-name="w" unicode="w" 
d="M565 335l-102 -335h-93l-69 211h-2l-69 -211h-93l-102 335h-53v104h234v-104h-73l49 -211h4l77 253h54l77 -253h4l49 211h-73v104h234v-104h-53z" />
    <glyph glyph-name="x" unicode="x" 
d="M529 335l-136 -114l142 -117h59v-104h-253v104h51l-92 76l-92 -76h51v-104h-253v104h59l142 117l-136 114h-48v104h236v-104h-44l85 -71l85 71h-44v104h236v-104h-48z" />
    <glyph glyph-name="y" unicode="y" 
d="M524 335l-224 -373h62v-104h-352v104h170l51 82l-158 291h-77v104h240v-104h-43l100 -183l109 183h-41v104h240v-104h-77z" />
    <glyph glyph-name="z" unicode="z" 
d="M520 351l-287 -247h180v66h107v-170h-439v88l284 247h-168v-62h-107v166h430v-88z" />
    <glyph glyph-name="braceleft" unicode="{" 
d="M160 205v104q81 0 85 42v126q-1 69 44.5 104t116.5 35h58v-107q-29 0 -44 -1t-32.5 -5.5t-25 -15.5t-7.5 -29v-118q0 -51 -40 -83q40 -32 40 -83v-118q0 -18 7.5 -29t25 -15.5t32.5 -5.5t44 -1v-107h-58q-71 0 -116.5 35t-44.5 104v126q-4 42 -85 42z" />
    <glyph glyph-name="bar" unicode="|" 
d="M345 750v-1000h-90v1000h90z" />
    <glyph glyph-name="braceright" unicode="}" 
d="M440 309v-104q-81 0 -85 -42v-126q1 -69 -44.5 -104t-116.5 -35h-58v107q29 0 44 1t32.5 5.5t25 15.5t7.5 29v118q0 51 40 83q-40 32 -40 83v118q0 18 -7.5 29t-25 15.5t-32.5 5.5t-44 1v107h58q71 0 116.5 -35t44.5 -104v-126q4 -42 85 -42z" />
    <glyph glyph-name="asciitilde" unicode="~" 
d="M457 356l73 -77q-33 -55 -63 -79.5t-68 -24.5q-30 0 -81 21l-37 15q-51 19 -63 19q-35 0 -74 -77l-73 78q31 54 61.5 81.5t73.5 27.5q37 0 99 -27q65 -28 80 -28q18 0 38.5 21.5t33.5 49.5z" />
    <glyph glyph-name="exclamdown" unicode="&#xa1;" 
d="M354 231l18 -377h-144l18 377h108zM202 361q0 38 29.5 63t68.5 25t68.5 -25t29.5 -63t-29.5 -62.5t-68.5 -24.5t-68.5 24.5t-29.5 62.5z" />
    <glyph glyph-name="cent" unicode="&#xa2;" 
d="M465 251l53 -92q-41 -29 -95 -52t-81 -23v-133h-110v133q-77 14 -121.5 68t-44.5 135q0 72 47.5 125.5t118.5 68.5v133h110v-133q32 -16 42 -16q5 0 10 38l107 -18q-14 -48 -14 -68q0 -25 21 -92l-105 -19l-12 41q-12 30 -103 30q-45 -1 -77 -26t-32 -70q0 -47 31.5 -70
t83.5 -23q86 0 171 63z" />
    <glyph glyph-name="sterling" unicode="&#xa3;" 
d="M507 136l51 -84q-86 -67 -143 -67q-33 0 -89 20q-31 12 -48 12q-40 0 -126 -45l-54 69q37 34 62 79t25 89q0 26 -10 61h-103v87h78q-15 53 -15 84q0 75 60 122.5t146 47.5q129 0 191 -103l15 -25l-100 -37l-13 21q-26 40 -87 40q-102 0 -102 -67q0 -32 17 -83h214v-87
h-190q6 -31 6 -61q0 -56 -19 -92q15 4 32 4q26 0 69 -16q40 -16 57 -16q29 0 76 47z" />
    <glyph glyph-name="currency" unicode="&#xa4;" 
d="M54 457l64 60l80 -77q50 29 102 29t102 -29l80 77l64 -60l-82 -78q28 -47 28 -96t-28 -96l82 -78l-64 -60l-80 77q-52 -30 -102 -30t-102 30l-80 -77l-64 60l82 78q-28 47 -28 96t28 96zM195 283q0 -44 30.5 -73.5t74.5 -29.5t74.5 29.5t30.5 73.5t-30.5 73t-74.5 29
t-74.5 -29t-30.5 -73z" />
    <glyph glyph-name="yen" unicode="&#xa5;" 
d="M507 462l-94 -103h121v-79h-179v-49h179v-79h-179v-52h115v-100h-340v100h115v52h-179v79h179v49h-179v79h121l-92 103h-85v100h250v-100h-37l77 -92l77 92h-37v100h250v-100h-83z" />
    <glyph glyph-name="minus" unicode="&#xa6;" 
d="M529 313v-110h-458v110h458z" />
    <glyph glyph-name="section" unicode="&#xa7;" 
d="M496 580v-167h-107v63h-130q-26 0 -26 -4q0 -3 20 -17l166 -125q54 -40 76 -67t22 -64q0 -62 -62 -97q37 -35 37 -75q0 -35 -31 -66t-97 -31h-275v176h107v-72h129q29 0 29 7q0 2 -18 17l-163 124q-35 26 -49.5 38.5t-27.5 34t-13 47.5q0 66 58 100q-23 21 -32.5 36.5
t-9.5 40.5q0 45 33.5 73t92.5 28h271zM245 252l113 -85q12 0 30.5 10t18.5 24q0 10 -13.5 23t-50.5 40l-107 80q-15 -3 -29 -15t-14 -26q0 -12 52 -51z" />
    <glyph glyph-name="dieresis" unicode="&#xa8;" 
d="M128 555q0 32 21.5 51t48.5 19t48.5 -19t21.5 -51t-21.5 -51t-48.5 -19t-48.5 19t-21.5 51zM332 555q0 32 21.5 51t48.5 19t48.5 -19t21.5 -51t-21.5 -51t-48.5 -19t-48.5 19t-21.5 51z" />
    <glyph glyph-name="registered" unicode="&#xa9;" 
d="M296 177v-54h-137v54h33v222h-33v54h176q26 0 44.5 -10.5t26 -27t10 -27t2.5 -18.5q0 -37 -18.5 -62.5t-38.5 -29.5q35 -21 64 -101h33v-54h-84q-22 64 -41 92t-51 28h-19v-66h33zM263 399v-102h34q24 0 35.5 19.5t11.5 42.5q0 15 -11.5 27.5t-32.5 12.5h-37zM0 281
q0 124 87.5 211.5t212.5 87.5t212.5 -87.5t87.5 -211.5t-88 -211.5t-212 -87.5t-212 87.5t-88 211.5zM533 281q0 92 -69 164.5t-164 72.5q-94 0 -163.5 -72.5t-69.5 -164.5t69.5 -164.5t163.5 -72.5q95 0 164 72.5t69 164.5z" />
    <glyph glyph-name="ordfeminine" unicode="&#xaa;" 
d="M199 497l-30 49q78 34 121 34q50 0 81.5 -23t31.5 -68v-100h40v-67h-117v27h-2q-19 -33 -71 -33q-39 0 -67.5 26.5t-28.5 64.5q0 39 32.5 60t74.5 21q18 0 62 -8v11q0 22 -49 22q-23 0 -78 -16zM263 383q16 0 35 12.5t27 30.5q-24 2 -36 2q-55 0 -55 -23q0 -22 29 -22z
M147 196v71h306v-71h-306z" />
    <glyph glyph-name="guillemotleft" unicode="&#xab;" 
d="M553 116l-39 -46l-279 188l279 188l39 -46l-181 -142zM326 116l-39 -46l-279 188l279 188l39 -46l-181 -142z" />
    <glyph glyph-name="logicalnot" unicode="&#xac;" 
d="M71 413h458v-310h-110v200h-348v110z" />
    <glyph glyph-name="center" unicode="&#xae;" 
d="M560 297l-260 -283l-260 283l260 283z" />
    <glyph glyph-name="macron" unicode="&#xaf;" 
d="M88 585h424v-80h-424v80z" />
    <glyph glyph-name="stop" unicode="&#xb0;" 
d="M19 562h562v-562h-562v562z" />
    <glyph glyph-name="down" unicode="&#xb1;" 
d="M193 207l60 -61v293h94v-293l60 61l57 -58l-164 -164l-163 163z" />
    <glyph glyph-name="merge" unicode="&#xb2;" 
d="M464 149l-164 -164l-163 163l56 59l60 -61v180l-59 -61l-57 58l164 164l163 -163l-56 -59l-61 61v-180l60 61z" />
    <glyph glyph-name="indent" unicode="&#xb3;" 
d="M313 101l61 60h-309v94h309l-61 60l58 57l164 -164l-163 -163z" />
    <glyph glyph-name="acute" unicode="&#xb4;" 
d="M205 508l128 153h135l-167 -153h-96z" />
    <glyph glyph-name="onequarter" unicode="&#xb5;" 
d="M656 0h-225v71h88v45h-157v72l129 211h105v-212h60v-71h-60v-45h60v-71zM519 187v123h-2l-71 -123h73zM198 230h-233v71h78v220l-68 -29l-31 68l129 56h47v-315h78v-71zM511 661l64 -43l-480 -678l-61 46z" />
    <glyph glyph-name="paragraph" unicode="&#xb6;" 
d="M576 580v-91h-86v-468h86v-91h-193v559h-50v-559h-257v91h150v213h-16q-56 0 -97 15.5t-60.5 35t-31 46t-13.5 41t-2 27.5q0 20 4.5 41t18 47t34.5 46t59.5 33.5t87.5 13.5h366zM226 325v164h-18q-36 0 -63 -24t-27 -59q0 -29 21 -55t66 -26h21z" />
    <glyph glyph-name="periodcentered" unicode="&#xb7;" 
d="M196 258q0 40 31.5 66.5t72.5 26.5t72.5 -26.5t31.5 -66.5q0 -41 -31.5 -67t-72.5 -26t-72.5 26t-31.5 67z" />
    <glyph glyph-name="cedilla" unicode="&#xb8;" 
d="M205 -171l33 54q34 -22 49 -22q26 0 26 31q0 28 -35 28h-31l8 80h74l-2 -25q27 -7 43.5 -28.5t16.5 -48.5q0 -46 -28 -75t-74 -29q-32 0 -80 35z" />
    <glyph glyph-name="ccedilla" unicode="&#xb9;" 
d="M257 -80l7 69q-99 12 -161.5 73.5t-62.5 156.5q0 106 75.5 170.5t184.5 64.5q40 0 123 -29q3 18 3 34l111 -17q-17 -57 -17 -89q0 -11 16 -91l-108 -11q-8 55 -20 71q-23 28 -108 28q-61 0 -104 -32.5t-43 -98.5q0 -65 44 -96t113 -31q78 0 178 75l57 -83
q-49 -33 -71.5 -46.5t-61.5 -30t-74 -20.5l-1 -12q27 -7 43.5 -28.5t16.5 -48.5q0 -46 -28 -75t-74 -29q-32 0 -80 35l33 54q34 -22 49 -22q26 0 26 31q0 28 -35 28h-31z" />
    <glyph glyph-name="ordmasculine" unicode="&#xba;" 
d="M156 448q0 59 41.5 95.5t102.5 36.5t102.5 -36.5t41.5 -95.5q0 -60 -41.5 -96t-102.5 -36t-102.5 36t-41.5 96zM233 448q0 -28 19 -44.5t48 -16.5t48 16.5t19 44.5t-19 44.5t-48 16.5t-48 -16.5t-19 -44.5zM147 196v71h306v-71h-306z" />
    <glyph glyph-name="guillemotright" unicode="&#xbb;" 
d="M86 70l-39 46l181 142l-181 142l39 46l279 -188zM313 70l-39 46l181 142l-181 142l39 46l279 -188z" />
    <glyph glyph-name="trademark" unicode="&#xbc;" 
d="M227 448v47h-49v-198h60v-67h-191v67h60v198h-49v-47h-67v114h303v-114h-67zM719 495v-198h30v-67h-141v67h40v198h-7l-63 -196h-76l-63 196h-7v-198h40v-67h-141v67h30v198h-30v67h157l49 -177h6l49 177h157v-67h-30z" />
    <glyph glyph-name="threesuperior" unicode="&#xbd;" 
d="M188 490l-44 73q74 53 138 53q56 0 94.5 -29.5t38.5 -77.5q0 -45 -26 -72q44 -36 44 -91q0 -56 -42.5 -90t-106.5 -34q-54 0 -146 39l35 80q62 -35 102 -35q24 0 41 13t17 34q0 17 -15 25.5t-32 8.5h-54v84h35q18 0 33 8.5t15 22.5q0 13 -12 21.5t-28 8.5q-27 0 -87 -42z
" />
    <glyph glyph-name="plusminus" unicode="&#xbe;" 
d="M245 515h110v-116h174v-110h-174v-115h-110v115h-174v110h174v116zM529 134v-110h-458v110h458z" />
    <glyph glyph-name="questiondown" unicode="&#xbf;" 
d="M384 239v-132q-90 -17 -131 -37t-41 -56q0 -28 28 -42t61 -14q45 0 91 18v56h110v-140q-110 -38 -187 -38q-101 0 -158.5 50t-57.5 122q0 111 175 157v56h110zM233 361q0 38 29.5 63t68.5 25t68.5 -25t29.5 -63t-29.5 -62.5t-68.5 -24.5t-68.5 24.5t-29.5 62.5z" />
    <glyph glyph-name="Adieresis" unicode="&#xc0;" 
d="M-9 0v104h65l151 354h-118v104h262l194 -458h64v-104h-259v104h79l-24 56h-212l-24 -56h79v-104h-257zM298 414l-64 -150h129zM108 678q0 32 21.5 51t48.5 19t48.5 -19t21.5 -51t-21.5 -51t-48.5 -19t-48.5 19t-21.5 51zM312 678q0 32 21.5 51t48.5 19t48.5 -19t21.5 -51
t-21.5 -51t-48.5 -19t-48.5 19t-21.5 51z" />
    <glyph glyph-name="dectab" unicode="&#xc1;" 
d="M592 0h-584v320h110v-210h474v-110z" />
    <glyph glyph-name="Aacute" unicode="&#xc2;" 
d="M-9 0v104h65l151 354h-118v104h262l194 -458h64v-104h-259v104h79l-24 56h-212l-24 -56h79v-104h-257zM298 414l-64 -150h129zM235 631l128 153h135l-167 -153h-96z" />
    <glyph glyph-name="Aring" unicode="&#xc3;" 
d="M-9 0v104h65l151 354h-118v104h262l194 -458h64v-104h-259v104h79l-24 56h-212l-24 -56h79v-104h-257zM298 414l-64 -150h129zM188 703q0 42 30 70t72 28t72 -28t30 -70t-30 -70.5t-72 -28.5t-72 28.5t-30 70.5zM251 703q0 -16 11.5 -27.5t27.5 -11.5t27.5 11.5
t11.5 27.5t-11.5 27t-27.5 11t-27.5 -11t-11.5 -27z" />
    <glyph glyph-name="Acircumflex" unicode="&#xc4;" 
d="M-9 0v104h65l151 354h-118v104h262l194 -458h64v-104h-259v104h79l-24 56h-212l-24 -56h79v-104h-257zM298 414l-64 -150h129zM125 606l-52 30l151 144h92l151 -144l-52 -30l-145 100z" />
    <glyph glyph-name="Agrave" unicode="&#xc5;" 
d="M-9 0v104h65l151 354h-118v104h262l194 -458h64v-104h-259v104h79l-24 56h-212l-24 -56h79v-104h-257zM298 414l-64 -150h129zM249 631l-167 153h135l128 -153h-96z" />
    <glyph glyph-name="AE" unicode="&#xc6;" 
d="M15 104l132 354h-66v104h507l4 -209h-90l-12 105h-133v-124h38v58h77v-210h-77v58h-38v-136h142l6 108h97v-212h-352v160h-118l-20 -56h67v-104h-208v104h44zM237 458l-70 -204h87v204h-17z" />
    <glyph glyph-name="Thorn" unicode="&#xc7;" 
d="M48 458v104h270v-104h-80v-19h107q105 0 158.5 -48t53.5 -112q0 -73 -54.5 -114.5t-152.5 -41.5h-112v-19h141v-104h-331v104h80v354h-80zM238 227h80q53 0 83 9t36.5 19t6.5 24q0 56 -126 56h-80v-108z" />
    <glyph glyph-name="Edieresis" unicode="&#xc8;" 
d="M25 0v104h80v354h-80v104h525l6 -210h-106l-8 106h-227v-114h83v58h104v-220h-104v58h-83v-136h235l6 107h104v-211h-535zM128 678q0 32 21.5 51t48.5 19t48.5 -19t21.5 -51t-21.5 -51t-48.5 -19t-48.5 19t-21.5 51zM332 678q0 32 21.5 51t48.5 19t48.5 -19t21.5 -51
t-21.5 -51t-48.5 -19t-48.5 19t-21.5 51z" />
    <glyph glyph-name="Atilde" unicode="&#xc9;" 
d="M-9 0v104h65l151 354h-118v104h262l194 -458h64v-104h-259v104h79l-24 56h-212l-24 -56h79v-104h-257zM298 414l-64 -150h129zM401 759l81 -24l-8 -21q-16 -41 -50.5 -68t-80.5 -27t-90 31q-46 32 -60 32q-16 0 -28.5 -14t-26.5 -52l-79 27l16 39q11 24 42.5 49t76.5 25
q44 0 87 -31q46 -32 64 -32q19 0 31 16.5t25 49.5z" />
    <glyph glyph-name="Eacute" unicode="&#xca;" 
d="M25 0v104h80v354h-80v104h525l6 -210h-106l-8 106h-227v-114h83v58h104v-220h-104v58h-83v-136h235l6 107h104v-211h-535zM235 631l128 153h135l-167 -153h-96z" />
    <glyph glyph-name="Ecircumflex" unicode="&#xcb;" 
d="M25 0v104h80v354h-80v104h525l6 -210h-106l-8 106h-227v-114h83v58h104v-220h-104v58h-83v-136h235l6 107h104v-211h-535zM155 606l-52 30l151 144h92l151 -144l-52 -30l-145 100z" />
    <glyph glyph-name="Idieresis" unicode="&#xcc;" 
d="M77 0v104h168v354h-168v104h446v-104h-168v-354h168v-104h-446zM128 678q0 32 21.5 51t48.5 19t48.5 -19t21.5 -51t-21.5 -51t-48.5 -19t-48.5 19t-21.5 51zM332 678q0 32 21.5 51t48.5 19t48.5 -19t21.5 -51t-21.5 -51t-48.5 -19t-48.5 19t-21.5 51z" />
    <glyph glyph-name="Gcaron" unicode="&#xcd;" 
d="M594 279v-104h-46v-139l-3 -1q-124 -53 -232 -53q-134 0 -212.5 87t-78.5 217q0 125 77.5 209.5t200.5 84.5q78 0 146 -44l5 34l106 -18q-15 -60 -15 -98q0 -45 18 -100l-110 -19l-7 54q-11 87 -136 87q-75 0 -122 -50.5t-47 -137.5q0 -93 46 -146t138 -53q36 0 116 26
v60h-143v104h299zM455 790l52 -30l-151 -144h-92l-151 144l52 30l145 -100z" />
    <glyph glyph-name="Iacute" unicode="&#xce;" 
d="M77 0v104h168v354h-168v104h446v-104h-168v-354h168v-104h-446zM205 631l128 153h135l-167 -153h-96z" />
    <glyph glyph-name="Icircumflex" unicode="&#xcf;" 
d="M77 0v104h168v354h-168v104h446v-104h-168v-354h168v-104h-446zM155 606l-52 30l151 144h92l151 -144l-52 -30l-145 100z" />
    <glyph glyph-name="return" unicode="&#xd0;" 
d="M19 281l562 281v-562z" />
    <glyph glyph-name="Igrave" unicode="&#xd1;" 
d="M77 0v104h168v354h-168v104h446v-104h-168v-354h168v-104h-446zM299 631l-167 153h135l128 -153h-96z" />
    <glyph glyph-name="Odieresis" unicode="&#xd2;" 
d="M22 280q0 124 78 212t200 88t200 -88t78 -212q0 -123 -78 -210.5t-200 -87.5t-200 87.5t-78 210.5zM462 280q0 83 -43.5 139.5t-118.5 56.5t-118.5 -56.5t-43.5 -139.5q0 -82 43.5 -138t118.5 -56t118.5 56t43.5 138zM128 678q0 32 21.5 51t48.5 19t48.5 -19t21.5 -51
t-21.5 -51t-48.5 -19t-48.5 19t-21.5 51zM332 678q0 32 21.5 51t48.5 19t48.5 -19t21.5 -51t-21.5 -51t-48.5 -19t-48.5 19t-21.5 51z" />
    <glyph glyph-name="Ntilde" unicode="&#xd3;" 
d="M211 562l227 -412h2v308h-100v104h270v-104h-60v-470h-138l-232 419h-2v-303h104v-104h-274v104h60v354h-60v104h203zM431 759l81 -24l-8 -21q-16 -41 -50.5 -68t-80.5 -27t-90 31q-46 32 -60 32q-16 0 -28.5 -14t-26.5 -52l-79 27l16 39q11 24 42.5 49t76.5 25
q44 0 87 -31q46 -32 64 -32q19 0 31 16.5t25 49.5z" />
    <glyph glyph-name="Oacute" unicode="&#xd4;" 
d="M22 280q0 124 78 212t200 88t200 -88t78 -212q0 -123 -78 -210.5t-200 -87.5t-200 87.5t-78 210.5zM462 280q0 83 -43.5 139.5t-118.5 56.5t-118.5 -56.5t-43.5 -139.5q0 -82 43.5 -138t118.5 -56t118.5 56t43.5 138zM205 631l128 153h135l-167 -153h-96z" />
    <glyph glyph-name="Ograve" unicode="&#xd5;" 
d="M22 280q0 124 78 212t200 88t200 -88t78 -212q0 -123 -78 -210.5t-200 -87.5t-200 87.5t-78 210.5zM462 280q0 83 -43.5 139.5t-118.5 56.5t-118.5 -56.5t-43.5 -139.5q0 -82 43.5 -138t118.5 -56t118.5 56t43.5 138zM299 631l-167 153h135l128 -153h-96z" />
    <glyph glyph-name="Ocircumflex" unicode="&#xd6;" 
d="M22 280q0 124 78 212t200 88t200 -88t78 -212q0 -123 -78 -210.5t-200 -87.5t-200 87.5t-78 210.5zM462 280q0 83 -43.5 139.5t-118.5 56.5t-118.5 -56.5t-43.5 -139.5q0 -82 43.5 -138t118.5 -56t118.5 56t43.5 138zM155 606l-52 30l151 144h92l151 -144l-52 -30
l-145 100z" />
    <glyph glyph-name="multiply" unicode="&#xd7;" 
d="M81 404l73 74l147 -146l145 146l74 -74l-146 -146l146 -146l-74 -73l-145 145l-146 -145l-74 73l146 146z" />
    <glyph glyph-name="Oslash" unicode="&#xd8;" 
d="M438 389l-222 -277q35 -26 84 -26q75 0 118.5 56t43.5 138q0 61 -24 109zM163 172l225 277q-40 27 -88 27q-75 0 -118.5 -56.5t-43.5 -139.5q0 -61 25 -108zM455 532l42 52l61 -47l-47 -58q67 -83 67 -199q0 -123 -78 -210.5t-200 -87.5q-84 0 -152 46l-40 -50l-65 46
l47 58q-68 82 -68 198q0 124 78 212t200 88q88 0 155 -48z" />
    <glyph glyph-name="Udieresis" unicode="&#xd9;" 
d="M4 458v104h268v-104h-88v-248q0 -121 116 -121t116 121v248h-88v104h268v-104h-70v-252q0 -119 -63.5 -171.5t-162.5 -52.5t-162.5 52.5t-63.5 171.5v252h-70zM128 678q0 32 21.5 51t48.5 19t48.5 -19t21.5 -51t-21.5 -51t-48.5 -19t-48.5 19t-21.5 51zM332 678
q0 32 21.5 51t48.5 19t48.5 -19t21.5 -51t-21.5 -51t-48.5 -19t-48.5 19t-21.5 51z" />
    <glyph glyph-name="Scaron" unicode="&#xda;" 
d="M445 582l108 -20q-25 -77 -25 -110q0 -28 11 -90l-112 -8l-5 54q-2 12 -5 20.5t-13 20t-33.5 18t-57.5 6.5q-40 0 -78 -18t-38 -58q0 -59 129 -70q40 1 75.5 -6.5t69.5 -25.5t54 -55t20 -90q0 -21 -11 -46.5t-34.5 -54.5t-71 -48t-110.5 -19q-76 0 -148 36l-3 -40
l-111 13q13 58 13 91t-22 109l108 16l13 -54q14 -64 148 -64q16 0 33.5 3t37.5 10t32.5 22t12.5 36q0 36 -42 47q-19 6 -83 12q-29 3 -49 6t-56.5 15t-59 30t-40.5 52.5t-18 80.5q0 34 19 68.5t49 58.5q62 50 151 50q67 0 135 -35zM445 790l52 -30l-151 -144h-92l-151 144
l52 30l145 -100z" />
    <glyph glyph-name="Uacute" unicode="&#xdb;" 
d="M4 458v104h268v-104h-88v-248q0 -121 116 -121t116 121v248h-88v104h268v-104h-70v-252q0 -119 -63.5 -171.5t-162.5 -52.5t-162.5 52.5t-63.5 171.5v252h-70zM235 631l128 153h135l-167 -153h-96z" />
    <glyph glyph-name="Ucircumflex" unicode="&#xdc;" 
d="M4 458v104h268v-104h-88v-248q0 -121 116 -121t116 121v248h-88v104h268v-104h-70v-252q0 -119 -63.5 -171.5t-162.5 -52.5t-162.5 52.5t-63.5 171.5v252h-70zM155 606l-52 30l151 144h92l151 -144l-52 -30l-145 100z" />
    <glyph glyph-name="Ugrave" unicode="&#xdd;" 
d="M4 458v104h268v-104h-88v-248q0 -121 116 -121t116 121v248h-88v104h268v-104h-70v-252q0 -119 -63.5 -171.5t-162.5 -52.5t-162.5 52.5t-63.5 171.5v252h-70zM269 631l-167 153h135l128 -153h-96z" />
    <glyph glyph-name="ll" unicode="&#xde;" 
d="M-4 511l-8 103l203 12v-522h80v-104h-270v104h80v413zM325 511l-8 103l203 12v-522h80v-104h-270v104h80v413zM247 315v120h107v-120h-107z" />
    <glyph glyph-name="germandbls" unicode="&#xdf;" 
d="M227 31l71 84q37 -26 98 -26q33 0 60 11.5t27 30.5q0 16 -17.5 29.5t-68.5 30.5q-82 27 -121.5 57t-39.5 86q0 41 26 69t58 39t58 26.5t26 33.5q0 20 -95 20q-65 0 -81 -12.5t-16 -57.5v-452h-190v104h80v231h-80v104h80v38q1 90 51 119.5t150 29.5q38 0 63.5 -1.5
t56.5 -9t49.5 -21t31.5 -38.5t13 -60q0 -68 -133 -132q-35 -12 -35 -28t25.5 -28t61.5 -22.5t72.5 -26t62 -46.5t25.5 -76q0 -73 -63.5 -112.5t-142.5 -39.5q-105 0 -163 46z" />
    <glyph glyph-name="adieresis" unicode="&#xe0;" 
d="M570 104v-104h-196v45q-65 -60 -162 -60q-70 0 -123.5 43.5t-53.5 111.5q0 66 62 112t156 46q65 0 121 -8q0 14 -2 21.5t-10 18t-29.5 15.5t-55.5 5q-35 0 -81.5 -12t-82.5 -32l-44 98q120 50 217 50q198 0 198 -152v-198h86zM374 154v32q-56 8 -115 8q-36 0 -60 -6.5
t-34 -17.5t-13.5 -19.5t-3.5 -16.5q0 -22 23.5 -33.5t60.5 -11.5q32 0 75 21.5t67 43.5zM118 555q0 32 21.5 51t48.5 19t48.5 -19t21.5 -51t-21.5 -51t-48.5 -19t-48.5 19t-21.5 51zM322 555q0 32 21.5 51t48.5 19t48.5 -19t21.5 -51t-21.5 -51t-48.5 -19t-48.5 19t-21.5 51
z" />
    <glyph glyph-name="Zcaron" unicode="&#xe1;" 
d="M517 484l-291 -380h206v130h107v-234h-477v85l285 373h-173v-115h-107v219h450v-78zM445 790l52 -30l-151 -144h-92l-151 144l52 30l145 -100z" />
    <glyph glyph-name="aacute" unicode="&#xe2;" 
d="M570 104v-104h-196v45q-65 -60 -162 -60q-70 0 -123.5 43.5t-53.5 111.5q0 66 62 112t156 46q65 0 121 -8q0 14 -2 21.5t-10 18t-29.5 15.5t-55.5 5q-35 0 -81.5 -12t-82.5 -32l-44 98q120 50 217 50q198 0 198 -152v-198h86zM374 154v32q-56 8 -115 8q-36 0 -60 -6.5
t-34 -17.5t-13.5 -19.5t-3.5 -16.5q0 -22 23.5 -33.5t60.5 -11.5q32 0 75 21.5t67 43.5zM205 508l128 153h135l-167 -153h-96z" />
    <glyph glyph-name="aring" unicode="&#xe3;" 
d="M570 104v-104h-196v45q-65 -60 -162 -60q-70 0 -123.5 43.5t-53.5 111.5q0 66 62 112t156 46q65 0 121 -8q0 14 -2 21.5t-10 18t-29.5 15.5t-55.5 5q-35 0 -81.5 -12t-82.5 -32l-44 98q120 50 217 50q198 0 198 -152v-198h86zM374 154v32q-56 8 -115 8q-36 0 -60 -6.5
t-34 -17.5t-13.5 -19.5t-3.5 -16.5q0 -22 23.5 -33.5t60.5 -11.5q32 0 75 21.5t67 43.5zM198 580q0 42 30 70t72 28t72 -28t30 -70t-30 -70.5t-72 -28.5t-72 28.5t-30 70.5zM261 580q0 -16 11.5 -27.5t27.5 -11.5t27.5 11.5t11.5 27.5t-11.5 27t-27.5 11t-27.5 -11
t-11.5 -27z" />
    <glyph glyph-name="acircumflex" unicode="&#xe4;" 
d="M570 104v-104h-196v45q-65 -60 -162 -60q-70 0 -123.5 43.5t-53.5 111.5q0 66 62 112t156 46q65 0 121 -8q0 14 -2 21.5t-10 18t-29.5 15.5t-55.5 5q-35 0 -81.5 -12t-82.5 -32l-44 98q120 50 217 50q198 0 198 -152v-198h86zM374 154v32q-56 8 -115 8q-36 0 -60 -6.5
t-34 -17.5t-13.5 -19.5t-3.5 -16.5q0 -22 23.5 -33.5t60.5 -11.5q32 0 75 21.5t67 43.5zM135 483l-52 30l151 144h92l151 -144l-52 -30l-145 100z" />
    <glyph glyph-name="agrave" unicode="&#xe5;" 
d="M570 104v-104h-196v45q-65 -60 -162 -60q-70 0 -123.5 43.5t-53.5 111.5q0 66 62 112t156 46q65 0 121 -8q0 14 -2 21.5t-10 18t-29.5 15.5t-55.5 5q-35 0 -81.5 -12t-82.5 -32l-44 98q120 50 217 50q198 0 198 -152v-198h86zM374 154v32q-56 8 -115 8q-36 0 -60 -6.5
t-34 -17.5t-13.5 -19.5t-3.5 -16.5q0 -22 23.5 -33.5t60.5 -11.5q32 0 75 21.5t67 43.5zM269 508l-167 153h135l128 -153h-96z" />
    <glyph glyph-name="ae" unicode="&#xe6;" 
d="M51 316l-32 97q109 41 157 41q51 0 81.5 -10t46.5 -42q46 52 125 52t121 -61.5t42 -144.5q0 -8 -6 -72h-242q0 -33 26.5 -60t64.5 -27q65 0 126 25l40 -97q-93 -32 -154 -32q-114 0 -158 74q-74 -74 -152 -74q-62 0 -101.5 43t-39.5 112q0 33 16 67t57.5 62t100.5 28
q9 0 35.5 -2.5t38.5 -3.5q0 40 -11.5 49.5t-47.5 9.5q-64 0 -134 -34zM244 134v59q-52 4 -62 4q-34 0 -56.5 -18.5t-22.5 -51.5q0 -14 13.5 -26t33.5 -12q45 0 94 45zM344 276h138q0 26 -14.5 50t-44.5 24q-33 0 -55 -22t-24 -52z" />
    <glyph glyph-name="degree" unicode="&#xe7;" 
d="M86 430q0 78 57.5 132t136.5 54t136.5 -54t57.5 -132q0 -79 -57.5 -133t-136.5 -54t-136.5 54t-57.5 133zM370 430q0 36 -27 60.5t-63 24.5t-63 -24.5t-27 -60.5t26.5 -61t63.5 -25t63.5 25t26.5 61z" />
    <glyph glyph-name="edieresis" unicode="&#xe8;" 
d="M516 156l47 -90q-145 -81 -253 -81q-116 0 -193 64t-77 170t77 170.5t193 64.5q35 0 74 -11.5t77 -35t62.5 -66.5t24.5 -98q0 -5 -1.5 -28l-2.5 -39h-391q0 -6 4.5 -15t16.5 -21.5t29 -23t45.5 -17.5t63.5 -7q78 0 204 64zM160 280h275q0 9 -11 24t-44 30.5t-79 15.5
q-45 0 -84 -17.5t-57 -52.5zM128 555q0 32 21.5 51t48.5 19t48.5 -19t21.5 -51t-21.5 -51t-48.5 -19t-48.5 19t-21.5 51zM332 555q0 32 21.5 51t48.5 19t48.5 -19t21.5 -51t-21.5 -51t-48.5 -19t-48.5 19t-21.5 51z" />
    <glyph glyph-name="atilde" unicode="&#xe9;" 
d="M570 104v-104h-196v45q-65 -60 -162 -60q-70 0 -123.5 43.5t-53.5 111.5q0 66 62 112t156 46q65 0 121 -8q0 14 -2 21.5t-10 18t-29.5 15.5t-55.5 5q-35 0 -81.5 -12t-82.5 -32l-44 98q120 50 217 50q198 0 198 -152v-198h86zM374 154v32q-56 8 -115 8q-36 0 -60 -6.5
t-34 -17.5t-13.5 -19.5t-3.5 -16.5q0 -22 23.5 -33.5t60.5 -11.5q32 0 75 21.5t67 43.5zM431 636l81 -24l-8 -21q-16 -41 -50.5 -68t-80.5 -27t-90 31q-46 32 -60 32q-16 0 -28.5 -14t-26.5 -52l-79 27l16 39q11 24 42.5 49t76.5 25q44 0 87 -31q46 -32 64 -32q19 0 31 16.5
t25 49.5z" />
    <glyph glyph-name="eacute" unicode="&#xea;" 
d="M516 156l47 -90q-145 -81 -253 -81q-116 0 -193 64t-77 170t77 170.5t193 64.5q35 0 74 -11.5t77 -35t62.5 -66.5t24.5 -98q0 -5 -1.5 -28l-2.5 -39h-391q0 -6 4.5 -15t16.5 -21.5t29 -23t45.5 -17.5t63.5 -7q78 0 204 64zM160 280h275q0 9 -11 24t-44 30.5t-79 15.5
q-45 0 -84 -17.5t-57 -52.5zM205 508l128 153h135l-167 -153h-96z" />
    <glyph glyph-name="ecircumflex" unicode="&#xeb;" 
d="M516 156l47 -90q-145 -81 -253 -81q-116 0 -193 64t-77 170t77 170.5t193 64.5q35 0 74 -11.5t77 -35t62.5 -66.5t24.5 -98q0 -5 -1.5 -28l-2.5 -39h-391q0 -6 4.5 -15t16.5 -21.5t29 -23t45.5 -17.5t63.5 -7q78 0 204 64zM160 280h275q0 9 -11 24t-44 30.5t-79 15.5
q-45 0 -84 -17.5t-57 -52.5zM155 483l-52 30l151 144h92l151 -144l-52 -30l-145 100z" />
    <glyph glyph-name="idieresis" unicode="&#xec;" 
d="M104 439h251v-335h168v-104h-446v104h168v231h-141v104zM88 555q0 32 21.5 51t48.5 19t48.5 -19t21.5 -51t-21.5 -51t-48.5 -19t-48.5 19t-21.5 51zM292 555q0 32 21.5 51t48.5 19t48.5 -19t21.5 -51t-21.5 -51t-48.5 -19t-48.5 19t-21.5 51z" />
    <glyph glyph-name="gcaron" unicode="&#xed;" 
d="M64 -110l26 104q121 -33 198 -33q62 0 82 20.5t20 73.5q-52 -46 -133 -46q-94 0 -160.5 64.5t-66.5 164.5q0 91 68.5 153.5t160.5 62.5q70 0 131 -51v36h190v-104h-80v-309q0 -79 -50.5 -125.5t-150.5 -46.5q-73 0 -235 36zM394 230q0 51 -35 85.5t-89 34.5
q-52 0 -89.5 -34t-37.5 -84t37 -84.5t88 -34.5q53 0 89.5 33.5t36.5 83.5zM405 667l52 -30l-151 -144h-92l-151 144l52 30l145 -100z" />
    <glyph glyph-name="iacute" unicode="&#xee;" 
d="M104 439h251v-335h168v-104h-446v104h168v231h-141v104zM205 508l128 153h135l-167 -153h-96z" />
    <glyph glyph-name="icircumflex" unicode="&#xef;" 
d="M104 439h251v-335h168v-104h-446v104h168v231h-141v104zM115 483l-52 30l151 144h92l151 -144l-52 -30l-145 100z" />
    <glyph glyph-name="ij" unicode="&#xf0;" 
d="M26 439h210v-335h120v-104h-350v104h120v231h-100v104zM98 498v160h138v-160h-138zM296 439h278v-405q0 -75 -49.5 -127.5t-160.5 -52.5q-58 0 -167 22l27 102q81 -17 141 -17t79.5 28.5t19.5 79.5v266h-168v104zM436 498v160h138v-160h-138z" />
    <glyph glyph-name="igrave" unicode="&#xf1;" 
d="M104 439h251v-335h168v-104h-446v104h168v231h-141v104zM299 508l-167 153h135l128 -153h-96z" />
    <glyph glyph-name="odieresis" unicode="&#xf2;" 
d="M570 219q0 -105 -78.5 -169.5t-191.5 -64.5t-191.5 64.5t-78.5 169.5q0 106 78.5 170.5t191.5 64.5t191.5 -64.5t78.5 -170.5zM143 219q0 -59 45 -94.5t112 -35.5t112 35.5t45 94.5q0 60 -45 95.5t-112 35.5t-112 -35.5t-45 -95.5zM128 555q0 32 21.5 51t48.5 19
t48.5 -19t21.5 -51t-21.5 -51t-48.5 -19t-48.5 19t-21.5 51zM332 555q0 32 21.5 51t48.5 19t48.5 -19t21.5 -51t-21.5 -51t-48.5 -19t-48.5 19t-21.5 51z" />
    <glyph glyph-name="ntilde" unicode="&#xf3;" 
d="M18 439h190v-32q36 23 69 34q37 13 71 13q168 0 168 -156v-194h76v-104h-262v104h76v165q0 46 -14.5 62t-47.5 16q-61 0 -136 -62v-181h70v-104h-260v104h80v231h-80v104zM431 636l81 -24l-8 -21q-16 -41 -50.5 -68t-80.5 -27t-90 31q-46 32 -60 32q-16 0 -28.5 -14
t-26.5 -52l-79 27l16 39q11 24 42.5 49t76.5 25q44 0 87 -31q46 -32 64 -32q19 0 31 16.5t25 49.5z" />
    <glyph glyph-name="oacute" unicode="&#xf4;" 
d="M570 219q0 -105 -78.5 -169.5t-191.5 -64.5t-191.5 64.5t-78.5 169.5q0 106 78.5 170.5t191.5 64.5t191.5 -64.5t78.5 -170.5zM143 219q0 -59 45 -94.5t112 -35.5t112 35.5t45 94.5q0 60 -45 95.5t-112 35.5t-112 -35.5t-45 -95.5zM205 508l128 153h135l-167 -153h-96z
" />
    <glyph glyph-name="ograve" unicode="&#xf5;" 
d="M570 219q0 -105 -78.5 -169.5t-191.5 -64.5t-191.5 64.5t-78.5 169.5q0 106 78.5 170.5t191.5 64.5t191.5 -64.5t78.5 -170.5zM143 219q0 -59 45 -94.5t112 -35.5t112 35.5t45 94.5q0 60 -45 95.5t-112 35.5t-112 -35.5t-45 -95.5zM299 508l-167 153h135l128 -153h-96z
" />
    <glyph glyph-name="ocircumflex" unicode="&#xf6;" 
d="M570 219q0 -105 -78.5 -169.5t-191.5 -64.5t-191.5 64.5t-78.5 169.5q0 106 78.5 170.5t191.5 64.5t191.5 -64.5t78.5 -170.5zM143 219q0 -59 45 -94.5t112 -35.5t112 35.5t45 94.5q0 60 -45 95.5t-112 35.5t-112 -35.5t-45 -95.5zM155 483l-52 30l151 144h92l151 -144
l-52 -30l-145 100z" />
    <glyph glyph-name="up" unicode="&#xf7;" 
d="M347 286v-286h-94v286l-60 -61l-57 58l164 164l163 -163l-56 -59z" />
    <glyph glyph-name="oslash" unicode="&#xf8;" 
d="M164 151l196 191q-29 8 -60 8q-67 0 -112 -35.5t-45 -95.5q0 -39 21 -68zM436 288l-196 -189q26 -10 60 -10q67 0 112 35.5t45 94.5q0 39 -21 69zM552 401l-36 -35q54 -60 54 -147q0 -105 -78.5 -169.5t-191.5 -64.5q-79 0 -143 33l-43 -42l-67 61l37 36q-54 60 -54 146
q0 106 78.5 170.5t191.5 64.5q80 0 141 -33l43 42z" />
    <glyph glyph-name="udieresis" unicode="&#xf9;" 
d="M569 104v-104h-180v29q-62 -44 -133 -44q-85 0 -130.5 44.5t-45.5 115.5v190h-81v104h191v-274q0 -41 24 -57t51 -16q52 0 114 70v173h-82v104h192v-335h80zM108 555q0 32 21.5 51t48.5 19t48.5 -19t21.5 -51t-21.5 -51t-48.5 -19t-48.5 19t-21.5 51zM312 555
q0 32 21.5 51t48.5 19t48.5 -19t21.5 -51t-21.5 -51t-48.5 -19t-48.5 19t-21.5 51z" />
    <glyph glyph-name="scaron" unicode="&#xfa;" 
d="M407 459l105 -12q-10 -52 -10 -76q0 -61 18 -79l-112 -11l-6 26q-2 19 -28.5 31t-73.5 12q-42 0 -74.5 -9.5t-32.5 -30.5t41 -30t110 -13q42 -2 72 -8.5t59 -21t44.5 -44t15.5 -72.5q0 -16 -10.5 -37t-32 -44t-64.5 -39t-99 -16q-79 0 -149 31l-4 -33l-108 12
q15 52 15 83q0 46 -15 85l107 11l10 -34q15 -51 125 -51q115 0 115 41q0 19 -25 25t-85 10q-232 12 -232 152q0 48 47.5 92.5t146.5 44.5q57 0 125 -26zM445 667l52 -30l-151 -144h-92l-151 144l52 30l145 -100z" />
    <glyph glyph-name="uacute" unicode="&#xfb;" 
d="M569 104v-104h-180v29q-62 -44 -133 -44q-85 0 -130.5 44.5t-45.5 115.5v190h-81v104h191v-274q0 -41 24 -57t51 -16q52 0 114 70v173h-82v104h192v-335h80zM205 508l128 153h135l-167 -153h-96z" />
    <glyph glyph-name="ucircumflex" unicode="&#xfc;" 
d="M569 104v-104h-180v29q-62 -44 -133 -44q-85 0 -130.5 44.5t-45.5 115.5v190h-81v104h191v-274q0 -41 24 -57t51 -16q52 0 114 70v173h-82v104h192v-335h80zM135 483l-52 30l151 144h92l151 -144l-52 -30l-145 100z" />
    <glyph glyph-name="ugrave" unicode="&#xfd;" 
d="M569 104v-104h-180v29q-62 -44 -133 -44q-85 0 -130.5 44.5t-45.5 115.5v190h-81v104h191v-274q0 -41 24 -57t51 -16q52 0 114 70v173h-82v104h192v-335h80zM269 508l-167 153h135l128 -153h-96z" />
    <glyph glyph-name="arrowright" unicode="&#xfe;" 
d="M468 455l156 -156l-156 -156l-60 59l50 50h-492v94h492l-50 50z" />
    <glyph glyph-name="yacute" unicode="&#xff;" 
d="M524 335l-224 -373h62v-104h-352v104h170l51 82l-158 291h-77v104h240v-104h-43l100 -183l109 183h-41v104h240v-104h-77zM235 508l128 153h135l-167 -153h-96z" />
    <glyph glyph-name="graybox" unicode="&#x130;" 
d="M525 599v-74h-74v74h74zM375 599v-74h-74v74h74zM225 599v-74h-74v74h74zM525 449v-74h-74v74h74zM375 449v-74h-74v74h74zM225 449v-74h-74v74h74zM525 149v-74h-74v74h74zM375 149v-74h-74v74h74zM225 149v-74h-74v74h74zM525 299v-74h-74v74h74zM375 299v-74h-74v74
h74zM225 299v-74h-74v74h74zM450 524v-74h-74v74h74zM300 524v-74h-74v74h74zM150 524v-74h-74v74h74zM450 374v-74h-74v74h74zM300 374v-74h-74v74h74zM150 374v-74h-74v74h74zM150 224v-74h-74v74h74zM300 224v-74h-74v74h74zM450 224v-74h-74v74h74zM450 74v-74h-74v74
h74zM300 74v-74h-74v74h74zM150 74v-74h-74v74h74z" />
    <glyph glyph-name="dotlessi" unicode="&#x131;" 
d="M104 439h251v-335h168v-104h-446v104h168v231h-141v104z" />
    <glyph glyph-name="overscore" unicode="&#x132;" 
d="M0 579v50h600v-50h-600z" />
    <glyph glyph-name="scedilla" unicode="&#x133;" 
d="M272 -80l7 68q-48 5 -99 28l-4 -33l-108 12q15 52 15 83q0 46 -15 85l107 11l10 -34q15 -51 125 -51q115 0 115 41q0 19 -25 25t-85 10q-232 12 -232 152q0 48 47.5 92.5t146.5 44.5q57 0 125 -26l5 31l105 -12q-10 -52 -10 -76q0 -61 18 -79l-112 -11l-6 26
q-2 19 -28.5 31t-73.5 12q-42 0 -74.5 -9.5t-32.5 -30.5t41 -30t110 -13q42 -2 72 -8.5t59 -21t44.5 -44t15.5 -72.5q0 -15 -9 -34.5t-28.5 -41.5t-57.5 -38.5t-87 -19.5l-1 -12q27 -7 43.5 -28.5t16.5 -48.5q0 -46 -28 -75t-74 -29q-32 0 -80 35l33 54q34 -22 49 -22
q26 0 26 31q0 28 -35 28h-31z" />
    <glyph glyph-name="Lslash" unicode="&#x141;" 
d="M380 313l-136 -62v-147h214l12 169l108 -3l-14 -270h-525v104h95v97l-85 -38v94l85 38v163h-95v104h324v-104h-119v-113l136 62v-94z" />
    <glyph glyph-name="lslash" unicode="&#x142;" 
d="M481 364l-126 -59v-201h168v-104h-446v104h168v149l-120 -57v96l120 56v169l-151 -11l-14 103l275 17v-227l126 59v-94z" />
    <glyph glyph-name="OE" unicode="&#x152;" 
d="M492 104l6 108h97v-212h-401q-86 0 -152.5 79.5t-66.5 197.5q0 117 73.5 201t189.5 84h343l4 -209h-90l-12 105h-133v-124h38v58h77v-210h-77v58h-38v-136h142zM240 104v354h-20q-49 0 -90.5 -56.5t-41.5 -127.5q0 -68 38 -119t87 -51h27z" />
    <glyph glyph-name="oe" unicode="&#x153;" 
d="M571 114l40 -97q-93 -32 -154 -32q-102 0 -155 57q-56 -57 -151 -57q-85 0 -127 67.5t-42 159.5q0 67 17 119t61.5 87.5t112.5 35.5q82 0 141 -42q53 42 125 42q79 0 121 -61.5t42 -144.5q0 -8 -6 -72h-240q0 -27 28 -57t71 -30q55 0 116 25zM356 276h136q0 26 -14.5 50
t-44.5 24q-34 0 -55.5 -22.5t-21.5 -51.5zM256 213q0 60 -10 91t-23.5 38.5t-38.5 7.5q-42 0 -64 -29t-22 -108q0 -42 7 -69t20.5 -38t24 -14t25.5 -3q81 0 81 124z" />
    <glyph glyph-name="Scedilla" unicode="&#x15e;" 
d="M277 -80l6 64q-61 8 -113 34l-3 -40l-111 13q13 58 13 91t-22 109l108 16l13 -54q14 -64 148 -64q16 0 33.5 3t37.5 10t32.5 22t12.5 36q0 36 -42 47q-19 6 -83 12q-29 3 -49 6t-56.5 15t-59 30t-40.5 52.5t-18 80.5q0 34 19 68.5t49 58.5q62 50 151 50q67 0 135 -35
l7 37l108 -20q-25 -77 -25 -110q0 -28 11 -90l-112 -8l-5 54q-2 12 -5 20.5t-13 20t-33.5 18t-57.5 6.5q-40 0 -78 -18t-38 -58q0 -59 129 -70q40 1 75.5 -6.5t69.5 -25.5t54 -55t20 -90q0 -14 -5 -32t-18.5 -40t-34 -40.5t-54 -33t-75.5 -19.5l-1 -10q27 -7 43.5 -28.5
t16.5 -48.5q0 -46 -28 -75t-74 -29q-32 0 -80 35l33 54q34 -22 49 -22q26 0 26 31q0 28 -35 28h-31z" />
    <glyph glyph-name="threequarters" unicode="&#x15f;" 
d="M354 188l129 211h105v-212h60v-71h-60v-45h60v-71h-225v71h88v45h-157v72zM511 187v123h-2l-71 -123h73zM503 661l64 -43l-480 -678l-61 46zM-47 261l31 70q68 -35 98 -35q19 0 34.5 14t15.5 37q0 24 -14.5 34t-32.5 10h-54v74h35q17 0 32.5 10.5t15.5 30.5
q0 16 -10.5 26t-21.5 10q-23 0 -85 -38l-38 59q74 53 116 53q45 0 82 -30t37 -77q0 -45 -26 -72q44 -36 44 -91q0 -54 -41 -89t-90 -35q-36 0 -128 39z" />
    <glyph glyph-name="Otilde" unicode="&#x160;" 
d="M22 280q0 124 78 212t200 88t200 -88t78 -212q0 -123 -78 -210.5t-200 -87.5t-200 87.5t-78 210.5zM462 280q0 83 -43.5 139.5t-118.5 56.5t-118.5 -56.5t-43.5 -139.5q0 -82 43.5 -138t118.5 -56t118.5 56t43.5 138zM431 759l81 -24l-8 -21q-16 -41 -50.5 -68t-80.5 -27
t-90 31q-46 32 -60 32q-16 0 -28.5 -14t-26.5 -52l-79 27l16 39q11 24 42.5 49t76.5 25q44 0 87 -31q46 -32 64 -32q19 0 31 16.5t25 49.5z" />
    <glyph glyph-name="otilde" unicode="&#x161;" 
d="M570 219q0 -105 -78.5 -169.5t-191.5 -64.5t-191.5 64.5t-78.5 169.5q0 106 78.5 170.5t191.5 64.5t191.5 -64.5t78.5 -170.5zM143 219q0 -59 45 -94.5t112 -35.5t112 35.5t45 94.5q0 60 -45 95.5t-112 35.5t-112 -35.5t-45 -95.5zM431 636l81 -24l-8 -21
q-16 -41 -50.5 -68t-80.5 -27t-90 31q-46 32 -60 32q-16 0 -28.5 -14t-26.5 -52l-79 27l16 39q11 24 42.5 49t76.5 25q44 0 87 -31q46 -32 64 -32q19 0 31 16.5t25 49.5z" />
    <glyph glyph-name="Yacute" unicode="&#x178;" 
d="M507 458l-150 -241v-113h115v-104h-340v104h115v112l-152 242h-83v104h241v-104h-36l86 -134l83 134h-35v104h238v-104h-82zM235 631l128 153h135l-167 -153h-96z" />
    <glyph glyph-name="Ydieresis" unicode="&#x17d;" 
d="M507 458l-150 -241v-113h115v-104h-340v104h115v112l-152 242h-83v104h241v-104h-36l86 -134l83 134h-35v104h238v-104h-82zM128 678q0 32 21.5 51t48.5 19t48.5 -19t21.5 -51t-21.5 -51t-48.5 -19t-48.5 19t-21.5 51zM332 678q0 32 21.5 51t48.5 19t48.5 -19t21.5 -51
t-21.5 -51t-48.5 -19t-48.5 19t-21.5 51z" />
    <glyph glyph-name="ydieresis" unicode="&#x17e;" 
d="M524 335l-224 -373h62v-104h-352v104h170l51 82l-158 291h-77v104h240v-104h-43l100 -183l109 183h-41v104h240v-104h-77zM138 555q0 32 21.5 51t48.5 19t48.5 -19t21.5 -51t-21.5 -51t-48.5 -19t-48.5 19t-21.5 51zM342 555q0 32 21.5 51t48.5 19t48.5 -19t21.5 -51
t-21.5 -51t-48.5 -19t-48.5 19t-21.5 51z" />
    <glyph glyph-name="florin" unicode="&#x192;" 
d="M132 320l17 104h100l10 54q11 66 55 102t149 36q51 0 109 -7l-54 -108q-51 11 -69 11q-68 0 -77 -44l-13 -44h104l-18 -104h-101l-61 -314q-14 -72 -61.5 -104.5t-139.5 -32.5q-54 0 -112 7l55 108q48 -11 65 -11q33 0 52 10.5t24 21t8 28.5l60 287h-102z" />
    <glyph glyph-name="Egrave" unicode="&#x1e6;" 
d="M25 0v104h80v354h-80v104h525l6 -210h-106l-8 106h-227v-114h83v58h104v-220h-104v58h-83v-136h235l6 107h104v-211h-535zM299 631l-167 153h135l128 -153h-96z" />
    <glyph glyph-name="egrave" unicode="&#x1e7;" 
d="M516 156l47 -90q-145 -81 -253 -81q-116 0 -193 64t-77 170t77 170.5t193 64.5q35 0 74 -11.5t77 -35t62.5 -66.5t24.5 -98q0 -5 -1.5 -28l-2.5 -39h-391q0 -6 4.5 -15t16.5 -21.5t29 -23t45.5 -17.5t63.5 -7q78 0 204 64zM160 280h275q0 9 -11 24t-44 30.5t-79 15.5
q-45 0 -84 -17.5t-57 -52.5zM299 508l-167 153h135l128 -153h-96z" />
    <glyph glyph-name="circumflex" unicode="&#x2c6;" 
d="M155 483l-52 30l151 144h92l151 -144l-52 -30l-145 100z" />
    <glyph glyph-name="caron" unicode="&#x2c7;" 
d="M445 667l52 -30l-151 -144h-92l-151 144l52 30l145 -100z" />
    <glyph glyph-name="breve" unicode="&#x2d8;" 
d="M83 631h93q30 -84 124 -84t124 84h93q-19 -87 -82 -125t-135 -38t-134.5 38t-82.5 125z" />
    <glyph glyph-name="dotaccent" unicode="&#x2d9;" 
d="M230 555q0 32 21.5 51t48.5 19t48.5 -19t21.5 -51t-21.5 -51t-48.5 -19t-48.5 19t-21.5 51z" />
    <glyph glyph-name="ring" unicode="&#x2da;" 
d="M198 580q0 42 30 70t72 28t72 -28t30 -70t-30 -70.5t-72 -28.5t-72 28.5t-30 70.5zM261 580q0 -16 11.5 -27.5t27.5 -11.5t27.5 11.5t11.5 27.5t-11.5 27t-27.5 11t-27.5 -11t-11.5 -27z" />
    <glyph glyph-name="ogonek" unicode="&#x2db;" 
d="M367 -82l-15 -81q-44 -36 -93 -36q-38 0 -64 25.5t-26 63.5q0 67 88 110h81v-4q-76 -51 -76 -83q0 -15 8.5 -24t21.5 -9q27 0 75 38z" />
    <glyph glyph-name="tilde" unicode="&#x2dc;" 
d="M431 636l81 -24l-8 -21q-16 -41 -50.5 -68t-80.5 -27t-90 31q-46 32 -60 32q-16 0 -28.5 -14t-26.5 -52l-79 27l16 39q11 24 42.5 49t76.5 25q44 0 87 -31q46 -32 64 -32q19 0 31 16.5t25 49.5z" />
    <glyph glyph-name="hungarumlaut" unicode="&#x2dd;" 
d="M68 488l145 173h155l-189 -173h-111zM288 488l145 173h155l-188 -173h-112z" />
    <glyph glyph-name="endash" unicode="&#x2013;" 
d="M65 313h470v-110h-470v110z" />
    <glyph glyph-name="emdash" unicode="&#x2014;" 
d="M-10 313h620v-110h-620v110z" />
    <glyph glyph-name="quoteleft" unicode="&#x2018;" 
d="M312 277l-134 285h157l93 -285h-116z" />
    <glyph glyph-name="quoteright" unicode="&#x2019;" 
d="M171 277l94 285h158l-133 -285h-119z" />
    <glyph glyph-name="quotesinglbase" unicode="&#x201a;" 
d="M175 -142l93 285h159l-134 -285h-118z" />
    <glyph glyph-name="quotedblleft" unicode="&#x201c;" 
d="M419 277l-134 285h157l93 -285h-116zM205 277l-134 285h157l93 -285h-116z" />
    <glyph glyph-name="quotedblright" unicode="&#x201d;" 
d="M61 277l93 285h157l-134 -285h-116zM275 277l93 285h157l-134 -285h-116z" />
    <glyph glyph-name="quotedblbase" unicode="&#x201e;" 
d="M65 -142l93 285h157l-134 -285h-116zM279 -142l93 285h157l-134 -285h-116z" />
    <glyph glyph-name="dagger" unicode="&#x2020;" 
d="M245 580h110v-149h139v-104h-139v-397h-110v397h-139v104h139v149z" />
    <glyph glyph-name="daggerdbl" unicode="&#x2021;" 
d="M354 -70h-110v145h-138v104h138v152h-138v104h138v145h110v-145h140v-104h-140v-152h140v-104h-140v-145z" />
    <glyph glyph-name="bullet" unicode="&#x2022;" 
d="M460 281q0 -66 -49.5 -107.5t-110.5 -41.5t-110.5 41.5t-49.5 107.5q0 64 49.5 106.5t110.5 42.5t110.5 -42.5t49.5 -106.5z" />
    <glyph glyph-name="ellipsis" unicode="&#x2026;" 
d="M226 50q0 29 22.5 47.5t51.5 18.5t51.5 -18.5t22.5 -47.5t-22.5 -47t-51.5 -18t-51.5 18t-22.5 47zM26 50q0 29 22.5 47.5t51.5 18.5t51.5 -18.5t22.5 -47.5t-22.5 -47t-51.5 -18t-51.5 18t-22.5 47zM426 50q0 29 22.5 47.5t51.5 18.5t51.5 -18.5t22.5 -47.5t-22.5 -47
t-51.5 -18t-51.5 18t-22.5 47z" />
    <glyph glyph-name="perthousand" unicode="&#x2030;" 
d="M117 124q0 59 43 99t96 40t96 -40t43 -99t-43 -99t-96 -40t-96 40t-43 99zM214 124q0 -21 13.5 -36.5t28.5 -15.5t28.5 15.5t13.5 36.5q0 22 -13.5 37t-28.5 15t-28.5 -15t-13.5 -37zM-113 477q0 59 43 99t96 40t96 -40t43 -99t-43 -99t-96 -40t-96 40t-43 99zM-16 477
q0 -21 13.5 -36.5t28.5 -15.5t28.5 15.5t13.5 36.5q0 22 -13.5 37t-28.5 15t-28.5 -15t-13.5 -37zM435 124q0 59 43 99t96 40t96 -40t43 -99t-43 -99t-96 -40t-96 40t-43 99zM532 124q0 -21 13.5 -36.5t28.5 -15.5t28.5 15.5t13.5 36.5q0 22 -13.5 37t-28.5 15t-28.5 -15
t-13.5 -37zM320 470l45 -62l-405 -278l-45 62z" />
    <glyph glyph-name="guilsinglleft" unicode="&#x2039;" 
d="M459 116l-39 -46l-279 188l279 188l39 -46l-181 -142z" />
    <glyph glyph-name="guilsinglright" unicode="&#x203a;" 
d="M180 70l-39 46l181 142l-181 142l39 46l279 -188z" />
    <glyph glyph-name="fraction" unicode="&#x2044;" 
d="M502 661l74 -43l-480 -678l-71 46z" />
    <glyph glyph-name="thorn" unicode="&#x20a4;" 
d="M-1 -142v104h80v555l-81 -6l-12 103l203 12v-223q61 51 147 51q98 0 166 -68t68 -171q0 -93 -69 -161.5t-161 -68.5q-89 0 -151 59v-82h143v-104h-333zM185 220q0 -54 42 -92.5t99 -38.5q55 0 93 38t38 91q0 58 -36.5 95t-94.5 37t-99.5 -36.5t-41.5 -93.5z" />
    <glyph glyph-name="divide" unicode="&#x211e;" 
d="M230 430q0 32 21.5 51t48.5 19t48.5 -19t21.5 -51t-21.5 -51t-48.5 -19t-48.5 19t-21.5 51zM71 203v110h458v-110h-458zM230 86q0 32 21.5 51t48.5 19t48.5 -19t21.5 -51t-21.5 -51t-48.5 -19t-48.5 19t-21.5 51z" />
    <glyph glyph-name="IJ" unicode="&#x2122;" 
d="M-8 0v104h70v354h-70v104h250v-104h-70v-354h70v-104h-250zM279 46l-15 237h109q3 -125 9 -159.5t26 -34.5t27 24.5t7 82.5v262h-118v104h298v-104h-70v-282q0 -95 -46 -144.5t-98 -49.5q-40 0 -74.5 18t-54.5 46z" />
    <glyph glyph-name="brokenbar" unicode="&#x2190;" 
d="M255 325v350h90v-350h-90zM255 -175v350h90v-350h-90z" />
    <glyph glyph-name="notegraphic" unicode="&#x2191;" 
d="M247 572l-20 -382h-104l-20 382h144zM273 73q0 -38 -29.5 -63t-68.5 -25t-68.5 25t-29.5 63t29.5 62.5t68.5 24.5t68.5 -24.5t29.5 -62.5zM497 572l-20 -382h-104l-20 382h144zM523 73q0 -38 -29.5 -63t-68.5 -25t-68.5 25t-29.5 63t29.5 62.5t68.5 24.5t68.5 -24.5
t29.5 -62.5z" />
    <glyph glyph-name="LL" unicode="&#x2192;" 
d="M-45 0v104h70v354h-70v104h279v-104h-99v-354h59l6 108h104v-212h-349zM366 0v458h-70v104h279v-104h-99v-354h59l6 108h104v-212h-279zM197 295v120h107v-120h-107z" />
    <glyph glyph-name="twosuperior" unicode="&#x2193;" 
d="M143 294l139 121q26 22 39 39t13 39q0 20 -15.5 34.5t-32.5 14.5q-16 0 -31.5 -12t-15.5 -33v-14h-84v69q55 64 136 64q61 0 102 -35.5t41 -89.5q0 -27 -18.5 -60.5t-46.5 -55.5l-78 -61h61v30h84v-114h-293v64z" />
    <glyph glyph-name="lira" unicode="&#x2194;" 
d="M152 -28l-54 69q78 78 84 143h-110v82h106l-9 38h-97v82h70q-7 21 -7 55q0 75 60 122.5t146 47.5q129 0 191 -103l15 -25l-100 -37l-13 21q-26 40 -87 40q-102 0 -102 -67q0 -40 8 -54h223v-82h-196l8 -38h188v-82h-186q2 -27 -20 -77q15 4 32 4q26 0 69 -16
q28 -11 53 -11q20 0 70 45l64 -77q-86 -67 -143 -67q-33 0 -89 20q-31 12 -48 12q-40 0 -126 -45z" />
    <glyph glyph-name="mu" unicode="&#x2212;" 
d="M190 -142h-110v477h-81v104h191v-274q0 -41 24 -57t51 -16q21 0 53.5 19t60.5 51v173h-82v104h192v-335h80v-104h-190v29q-19 -19 -51 -31.5t-62 -12.5q-43 0 -76 30v-157z" />
    <glyph glyph-name="arrowleft" unicode="&#xf6bf;" 
d="M132 143l-156 156l156 156l60 -59l-50 -50h492v-94h-492l50 -50z" />
    <glyph glyph-name="Idot" unicode="&#xf6c0;" 
d="M245 104v354h-168v104h446v-104h-168v-354h168v-104h-446v104h168zM230 678q0 32 21.5 51t48.5 19t48.5 -19t21.5 -51t-21.5 -51t-48.5 -19t-48.5 19t-21.5 51z" />
    <glyph glyph-name="fi" unicode="&#xfb01;" 
d="M515 604l-46 -104q-133 22 -196 22q-47 0 -60 -11.5t-13 -42.5v-29h315v-335h78v-104h-256v104h68v231h-205v-231h68v-104h-256v104h78v231h-78v104h78v42q0 79 45.5 112t139.5 33q47 0 240 -22z" />
    <glyph glyph-name="fl" unicode="&#xfb02;" 
d="M12 335v104h78v42q0 79 45.5 112t139.5 33q53 0 240 -22v-500h78v-104h-266v104h78v403q-89 15 -142 15q-40 0 -51.5 -11.5t-11.5 -42.5v-29h134v-104h-134v-231h78v-104h-266v104h78v231h-78z" />
    <glyph glyph-name="format" 
d="M115 601v-747h-110v747h110z" />
    <glyph glyph-name="tab" 
d="M19 562l562 -281l-562 -281v562z" />
    <glyph glyph-name="arrowboth" 
d="M624 299l-156 -156l-60 59l50 50h-316l50 -50l-60 -59l-156 156l156 156l60 -59l-50 -50h316l-50 50l60 59z" />
    <glyph glyph-name="onehalf" 
d="M411 253v69q55 64 114 64q47 0 84 -36t37 -89q0 -27 -18.5 -60.5t-46.5 -55.5l-86 -69v-2h82v50h71v-124h-258v75l124 110q26 22 39 39t13 39q0 20 -13 34.5t-28 14.5q-13 0 -28 -12.5t-15 -32.5v-14h-71zM207 230h-233v71h78v220l-68 -29l-31 68l129 56h47v-315h78v-71z
M520 661l64 -43l-480 -678l-61 46z" />
    <glyph glyph-name="Ccedilla" 
d="M495 150l62 -76q-95 -81 -209 -90l-1 -9q27 -7 43.5 -28.5t16.5 -48.5q0 -46 -28 -75t-74 -29q-32 0 -80 35l33 54q34 -22 49 -22q26 0 26 31q0 28 -35 28h-31l7 65q-117 12 -184.5 96t-67.5 205q0 125 77.5 209.5t200.5 84.5q78 0 146 -44l5 34l106 -18q-15 -60 -15 -98
q0 -45 18 -100l-110 -19l-7 54q-7 42 -51 64.5t-85 22.5q-75 0 -122 -50.5t-47 -137.5q0 -93 46 -146t138 -53q82 0 173 61z" />
    <glyph glyph-name="arrowup" 
d="M144 470l156 156l156 -156l-59 -60l-50 50v-457h-94v457l-50 -50z" />
    <glyph glyph-name="eth" 
d="M300 311q-53 0 -91 -32t-38 -85t38 -85t91 -32t91 32t38 85t-38 85t-91 32zM183 447l-56 62l119 39q-10 9 -67 46l106 32q40 -24 64 -45l125 40l69 -66l-124 -39q123 -132 123 -306q0 -118 -71 -177.5t-171 -59.5q-105 0 -173.5 59t-68.5 162t67 162t165 59q60 0 105 -36
l2 2q-27 52 -86 107z" />
    <glyph glyph-name="arrowdown" 
d="M456 141l-156 -156l-156 156l59 60l50 -50v457h94v-457l50 50z" />
    <glyph glyph-name="left" 
d="M229 44l-164 164l163 163l59 -56l-61 -60h309v-94h-309l61 -60z" />
    <glyph glyph-name="Eth" 
d="M30 240v104h80v114h-80v104h319q52 0 94 -16t69.5 -42t46.5 -62t27 -74t8 -79q0 -77 -22.5 -135t-60.5 -90.5t-82 -48t-93 -15.5h-306v104h80v136h-80zM343 344v-104h-123v-136h103q71 0 113 46t42 139q0 87 -40.5 128t-92.5 41h-125v-114h123z" />
    <glyph glyph-name="prescription" 
d="M503 264h73l-79 -120q4 -7 32 -60h70v-84h-152q-1 3 -18 40l-37 -55h-73l79 119q-57 110 -122 124h-62v-124h76v-104h-266v104h80v354h-80v104h329q45 0 79 -15t50.5 -34.5t27 -44.5t12.5 -39t2 -24q0 -56 -32.5 -96.5t-73.5 -52.5q18 -11 46 -52zM214 458v-126h89
q49 0 78.5 17.5t29.5 48.5q0 60 -78 60h-119z" />
    <glyph glyph-name="square" 
d="M19 562h562v-562h-562v562zM73 54h454v454h-454v-454z" />
    <glyph glyph-name="onesuperior" 
d="M186 479l-33 77l133 60h63v-302h98v-84h-283v84h98v197z" />
    <glyph glyph-name="largebullet" 
d="M300 229q-18 0 -35 15t-17 37t17 37t35 15t35 -15t17 -37t-17 -37t-35 -15z" />
    <glyph glyph-name="copyright" 
d="M398 206l33 -56q-68 -44 -135 -44q-79 0 -125 51t-46 124q0 81 52 125t114 44q46 0 89 -24q4 11 5 24l47 -9q-8 -46 -8 -53q0 -31 12 -66l-57 -10q-6 41 -28 54t-58 13q-35 0 -64.5 -27t-29.5 -70q0 -53 28 -79t75 -26q61 0 96 29zM0 281q0 124 87.5 211.5t212.5 87.5
t212.5 -87.5t87.5 -211.5t-88 -211.5t-212 -87.5t-212 87.5t-88 211.5zM533 281q0 92 -69 164.5t-164 72.5q-94 0 -163.5 -72.5t-69.5 -164.5t69.5 -164.5t163.5 -72.5q95 0 164 72.5t69 164.5z" />
    <glyph glyph-name="zcaron" 
d="M520 351l-287 -247h180v66h107v-170h-439v88l284 247h-168v-62h-107v166h430v-88zM445 667l52 -30l-151 -144h-92l-151 144l52 30l145 -100z" />
  </font>
</defs>
</svg>
