<?xml version="1.0" standalone="no"?>
<!DOCTYPE svg PUBLIC "-//W3C//DTD SVG 1.1//EN" "http://www.w3.org/Graphics/SVG/1.1/DTD/svg11.dtd" >
<svg>
<metadata>
Created by FontForge 20090622 at Mon Jul 10 13:21:41 2017
 By deploy user
Copr. 1988-1993 Payne Loving Trust.  All rights reserved.  By Copr. law this program may not be copied for others or modified.
</metadata>
<defs>
<font id="Thonburi" horiz-adv-x="0" >
  <font-face 
    font-family="Thonburi"
    font-weight="400"
    font-stretch="normal"
    units-per-em="1000"
    panose-1="0 0 0 0 0 0 0 0 0 0"
    ascent="800"
    descent="-200"
    x-height="394"
    cap-height="395"
    bbox="-500 -225 600.049 718.143"
    underline-thickness="50"
    underline-position="-50"
    unicode-range="U+0020-U+FB02"
  />
<missing-glyph horiz-adv-x="500" 
 />
    <glyph glyph-name=".notdef" horiz-adv-x="500" 
 />
    <glyph glyph-name=".notdef" horiz-adv-x="500" 
 />
    <glyph glyph-name=".null" 
 />
    <glyph glyph-name="nonmarkingreturn" horiz-adv-x="333" 
 />
    <glyph glyph-name="space" unicode=" " 
 />
    <glyph glyph-name="exclam" unicode="!" horiz-adv-x="370" 
d="M360 480l-240 -620h-95l245 620h90z" />
    <glyph glyph-name="quotedbl" unicode="&#x22;" horiz-adv-x="435" 
d="M414 0h-82v270q0 46 -30 54q-17 5 -46.5 -8.5t-31.5 -19.5q-3 3 -14 9.5t-31.5 13t-36.5 3.5q-22 -4 -38 -23.5t-20 -46.5q-6 -36 16 -66h22q3 0 3.5 1.5t0.5 3.5t-1 5t-1.5 6t0.5 6q6 30 29.5 47.5t54.5 16.5q33 -1 56.5 -25t23.5 -57q0 -31 -29 -57.5t-51 -24.5
q-10 1 -43 21q-21 13 -21 -1v-128h-80v166q0 19 -22 42.5t-22 41.5q-1 21 7 40t18 30t30 31q5 5 13.5 15l13.5 15.5t14 12.5t14.5 6t14.5 -5l79 -61l76 61q8 4 13 5t12.5 -5t12 -11t12.5 -15t14 -16q50 -50 50 -94v-259zM260 192q-4 18 -18.5 27.5t-33.5 8.5
q-23 -1 -38.5 -19t-11.5 -39q4 -18 19.5 -28t34.5 -8q22 2 37 19.5t11 38.5z" />
    <glyph glyph-name="numbersign" unicode="#" horiz-adv-x="455" 
d="M432 0h-80v291q0 4 2 11.5t-0.5 12t-11.5 9.5q-42 16 -75.5 14.5t-84.5 -16.5q-20 -6 3 -20q17 -10 19 -12v-228q-3 -29 -26 -47t-52 -15q-25 2 -42.5 18t-19.5 40q-2 26 16 46.5t44 21.5v148v44q0 10 -40 5q-6 0 -5 0q0 1 2 2q11 6 44 27.5t59 32t56 10.5h50
q72 0 114 -42q9 -9 15.5 -12.5t8.5 -3t3 0t1 -5.5v-332zM171 66q0 19 -14.5 31.5t-33.5 10.5q-17 -2 -28.5 -15t-10.5 -30q2 -16 12.5 -26.5t26.5 -12.5q19 -2 33.5 10.5t14.5 31.5z" />
    <glyph glyph-name="dollar" unicode="$" horiz-adv-x="415" 
d="M392 332l-1 -332h-79v291q0 4 2 11.5t-0.5 12t-11.5 9.5q-42 16 -75.5 14.5t-84.5 -16.5q-20 -6 3 -20q17 -10 19 -12v-164q25 -1 42.5 -18.5t17.5 -43.5q0 -23 -16 -40t-40 -22q-30 -6 -56.5 13.5t-27.5 50.5v208v44q0 10 -40 5q-6 0 -5 0q0 1 2 2q11 6 44 27.5t59 32
t56 10.5h50q72 0 114 -42q9 -9 15.5 -12.5t8.5 -3t3 0t1 -5.5zM207 66q1 18 -12.5 30.5t-32.5 14.5q-21 2 -36.5 -11.5t-14.5 -33.5t17 -32t37 -10q18 2 29.5 13.5t12.5 28.5z" />
    <glyph glyph-name="percent" unicode="%" horiz-adv-x="435" 
d="M414 0h-82v270q0 40 -30 54q-42 16 -75.5 14.5t-84.5 -16.5q-22 -6 -38 -25t-20 -45q-6 -36 16 -66h22q3 0 3.5 1.5t0.5 3.5t-1 5t-1.5 6t0.5 6q6 30 29.5 47.5t54.5 16.5q33 -1 56.5 -25t23.5 -57q0 -31 -22.5 -52t-57.5 -30q-12 -3 -45 20q-19 13 -19 0v-128h-80v166
q0 19 -22 42.5t-22 41.5q-1 31 12.5 52.5t42.5 48.5q49 44 125 44h50q72 0 114 -42q50 -50 50 -94v-259zM261 183q-1 23 -18 39.5t-39 14.5q-20 -2 -32.5 -18.5t-12.5 -38.5q0 -46 42 -54q23 -4 42 14.5t18 42.5z" />
    <glyph glyph-name="ampersand" unicode="&#x26;" horiz-adv-x="372" 
d="M352 190q-1 -24 -13.5 -62t-13.5 -62v-14v-52h-82q14 7 11 54t-17 69q-11 12 -34 4t-35 -21q-35 -1 -59.5 23.5t-24.5 58.5t24 58t58 24q32 0 56.5 -28t25.5 -56q0 -15 33 11q39 30 -9 95q-9 11 -20 20q-34 27 -74 27.5t-76 -25.5q-8 -4 -38 -42q-13 -15 -12 3
q1 34 29 80q22 37 45 39q8 1 16 0h110q17 -1 27 -3.5t13 -3.5t11 -7.5t11 -9.5q28 -22 38 -56v-112v-12zM207 189q-2 40 -42 48q-23 4 -41 -11t-19 -37q-1 -23 17 -40t40 -14q20 2 33 18t12 36z" />
    <glyph glyph-name="quotesingle" unicode="'" horiz-adv-x="330" 
d="M308 0h-154q-29 15 -52 40q-27 30 -38 70v120l-44 30q6 16 20 30q20 18 44 22q16 -8 36 -24q9 -7 24 -22v-162q0 -18 12 -30t30 -12h42l1 178q-32 1 -52.5 30t-20.5 50q0 23 23.5 48.5t52.5 25.5q32 0 55 -25t21 -57v-312zM286 314q2 24 -12.5 42t-37.5 20q-24 2 -42 -14
t-20 -40q-2 -26 18.5 -45t45.5 -15q20 3 33 17.5t15 34.5z" />
    <glyph glyph-name="parenleft" unicode="(" horiz-adv-x="390" 
d="M374 0h-290v156q24 0 41 14.5t21 38.5q1 11 0 21q-35 0 -59.5 24.5t-24.5 58.5t24.5 58t59.5 25t59.5 -23t29.5 -60q4 -32 -22 -76l-47 -81v-92h126v166q0 12 -18 26t-18 27q0 12 18 25.5t18 25.5v62h82v-60q0 -11 -11 -17.5t-23.5 -9.5t-22 -9.5t-7.5 -16.5
q3 -13 33.5 -16t30.5 -17v-250zM202 314q1 24 -15.5 42.5t-40.5 19.5t-41.5 -17t-18.5 -43q-1 -26 17 -44.5t43 -17.5q24 1 39.5 18.5t16.5 41.5z" />
    <glyph glyph-name="parenright" unicode=")" 
d="M-24 -215h-204v54q-24 8 -32 17.5t-10 38.5q-2 25 16 43.5t44 19.5t45 -18t18 -45v-60h45v123h78v-173zM-168 -102q2 19 -10.5 33t-31.5 15t-32.5 -14.5t-11.5 -35.5q2 -18 14.5 -29.5t29.5 -10.5t28.5 13t13.5 29z" />
    <glyph glyph-name="asterisk" unicode="*" horiz-adv-x="375" 
d="M354 0h-292v156q24 0 41 14.5t21 38.5q1 11 0 21q-35 0 -59.5 24.5t-24.5 58.5t24.5 58t59.5 25t59.5 -23t29.5 -60q4 -32 -22 -76l-47 -81v-92h126v331h84v-395zM182 316q-1 23 -18 39.5t-40 16.5q-24 0 -41 -17t-17 -41t17 -41t41 -17t41.5 18t16.5 42z" />
    <glyph glyph-name="plus" unicode="+" horiz-adv-x="415" 
d="M392 332l-1 -416h-79v375q0 4 2 11.5t-0.5 12t-11.5 9.5q-42 16 -75.5 14.5t-84.5 -16.5q-20 -6 3 -20q17 -10 19 -12v-164q25 -1 42.5 -18.5t17.5 -43.5q0 -23 -16 -40t-40 -22q-30 -6 -56.5 13.5t-27.5 50.5v208v44q0 10 -40 5q-6 0 -5 0q0 1 2 2q11 6 44 27.5t59 32
t56 10.5h50q72 0 114 -42q9 -9 15.5 -12.5t8.5 -3t3 0t1 -5.5zM207 66q1 18 -12.5 30.5t-32.5 14.5q-21 2 -36.5 -11.5t-14.5 -33.5t17 -32t37 -10q18 2 29.5 13.5t12.5 28.5z" />
    <glyph glyph-name="comma" unicode="," horiz-adv-x="225" 
d="M180 33q0 -36 -42 -69q-35 -27 -78 -24l66 63q6 6 -1.5 9l-21.5 8.5t-19 15.5q-10 21 7 43.5t41 22.5q23 0 35.5 -20.5t12.5 -48.5z" />
    <glyph glyph-name="hyphen" unicode="-" horiz-adv-x="330" 
d="M308 150h-268v98h268v-98z" />
    <glyph glyph-name="hyphen" unicode="&#xad;" horiz-adv-x="330" 
d="M308 150h-268v98h268v-98z" />
    <glyph glyph-name="period" unicode="." horiz-adv-x="250" 
d="M122 3q-24 0 -37.5 15.5t-13.5 34.5t13.5 34.5t37.5 15.5t37.5 -15.5t13.5 -34.5t-13.5 -34.5t-37.5 -15.5z" />
    <glyph glyph-name="slash" unicode="/" horiz-adv-x="395" 
d="M374 90q0 -41 -14 -60q-25 -33 -67 -30l-79 80l-79 -80q-34 4 -61 28q-32 28 -32 52v233q10 44 29 62.5t53 18.5t57.5 -23.5t24.5 -57.5t-24 -59t-60 -24v-115q0 -1 1.5 -4t0.5 -4t2.5 -6t8 -8.5t7.5 -0.5l76 75l74 -73v362h82v-366zM186 316q-1 26 -19 44.5t-43 17.5
q-24 -1 -40.5 -20t-15.5 -44q1 -24 16.5 -42.5t39.5 -19.5q26 -1 44.5 18t17.5 46z" />
    <glyph glyph-name="zero" unicode="0" horiz-adv-x="375" 
d="M352 66q-18 -26 -44 -44q-17 -13 -40 -22h-140q-24 12 -42 26q-25 19 -46 42v262q20 25 44 42q21 14 44 22h140q23 -9 40 -22q24 -17 44 -42v-264zM272 104v186q-1 9 -8 16q-5 5 -12 8h-110q-10 -5 -14 -10q-6 -7 -8 -14v-186q2 -8 6 -12q5 -6 16 -8h106q9 1 16 8
q5 5 8 12z" />
    <glyph glyph-name="one" unicode="1" horiz-adv-x="375" 
d="M304 2h-186v82h64v168h-62v80q33 -7 54 20q14 18 10 42h80v-312h40v-80z" />
    <glyph glyph-name="two" unicode="2" horiz-adv-x="375" 
d="M342 0h-288v100q46 55 102 86q38 21 104 44v84q-32 13 -66 12q-32 -1 -60 -14v-60h-80v78l40 42l20 22h166q14 -16 18 -20q6 -6 18 -12.5t19 -13t7 -16.5v-118q0 -60 -104 -66q-40 -2 -78 -35q-27 -24 -11 -28q3 -1 7 -1h186v-84z" />
    <glyph glyph-name="three" unicode="3" horiz-adv-x="375" 
d="M348 64q-16 -20 -30 -32q-21 -18 -48 -32h-166q-26 17 -48 39q-4 4 -12 10.5l-12.5 10t-8 10.5t-3.5 15v58h80q-8 -19 0 -39q7 -16 22 -24l126 -1q26 0 24 47q-2 42 -24 42h-144v62h142q24 0 26 40q1 17 -5.5 30.5t-20.5 13.5h-110q-15 -3 -24 -12q-21 -20 -12 -50h-80
v60q10 31 36 54q20 18 48 26h166q31 -8 54 -30q2 -1 10.5 -7.5t11 -11t2.5 -11.5v-124h-40q-3 0 -3.5 -2.5t1.5 -7t3.5 -7l4.5 -7.5q11 -18 34 -18v-102z" />
    <glyph glyph-name="four" unicode="4" horiz-adv-x="375" 
d="M342 0h-152v60h38v68h-188v98l168 166h100v-186h34v-80h-34v-64h34v-62zM228 210v104l-106 -104h106z" />
    <glyph glyph-name="five" unicode="5" horiz-adv-x="375" 
d="M352 136q-3 -63 -34 -96q-37 -40 -86 -40h-96q-15 0 -28.5 8.5t-19 14.5t-20.5 25q-2 3 -6.5 8.5l-7 8.5t-5.5 8t-5 9t-3 9t-1 11v42h82q3 -23 18 -40q18 -20 66 -20q46 0 64 22q14 18 14 40q1 26 -14 44q-18 22 -64 20q-38 -1 -64 -24q-12 -11 -18 -20h-84v228h312v-80
h-232v-64h8q11 18 32 26q11 4 32 4h78q13 0 24.5 -7t18 -13.5t17.5 -21.5q17 -23 21 -44.5t1 -57.5z" />
    <glyph glyph-name="six" unicode="6" horiz-adv-x="375" 
d="M348 66q-13 -28 -38 -46q-18 -13 -42 -20h-164q-29 5 -52 24q-20 16 -32 40v246q9 35 38 60q20 17 46 24h164q25 -3 46 -18q25 -18 34 -46v-40h-76q7 13 0 26q-9 16 -26 16h-106l-18 -18q-3 -3 -9.5 -7t-9.5 -8t-3 -9q-9 -10 -10 -24.5t10 -17.5q6 -1 13 9.5t13 10.5h142
q25 -3 46 -18q23 -16 34 -44v-140zM270 135q1 28 -25.5 42.5t-61.5 14.5q-32 0 -56.5 -12.5t-24.5 -38.5q0 -46 75 -54q36 -3 64 8.5t29 39.5z" />
    <glyph glyph-name="seven" unicode="7" horiz-adv-x="375" 
d="M353 296l-106 -212v-84h-78v102l96 170v42h-225v80h313v-98z" />
    <glyph glyph-name="eight" unicode="8" horiz-adv-x="375" 
d="M352 44q-9 -13 -20 -22q-22 -17 -44 -22h-184q-23 8 -42 23q-14 11 -22 20v121q6 15 20 22q3 1 7 1t7 -1t5.5 0t2.5 4v36q0 5 -4.5 6.5t-11 2t-10.5 3.5q-9 7 -16 16v76l22 22q8 6 14 12.5l13.5 15l12.5 14.5h186q9 -7 22 -20t22 -20q2 -2 20 -22v-78q-12 -12 -20 -18
q-4 -3 -8.5 -5t-7.5 -2t-4.5 -2t-1.5 -5v-34q1 -4 4 -3.5t9 2.5t9 1q16 -6 20 -22v-122zM267 286q0 10 -6 16.5t-19 9t-20 3t-24 1.5q-12 1 -24.5 0.5t-23.5 -2t-18.5 -8t-8.5 -17.5q-1 -21 20.5 -28.5t51.5 -7.5q15 0 25 1t22.5 4t18.5 10t6 18zM288 106q2 19 -13.5 30
t-34.5 14t-43 3q-37 0 -63.5 -10.5t-25.5 -36.5q1 -42 93 -40q25 1 39.5 2.5t30.5 11t17 26.5z" />
    <glyph glyph-name="nine" unicode="9" horiz-adv-x="375" 
d="M353 46q-10 -12 -22 -22q-18 -15 -38 -24h-206q-24 9 -40 22q-14 12 -22 24v78h80l24 -40h124l22 38v26h-168q-21 10 -38 22q-22 15 -44 40v124q21 22 44 38q22 14 40 22h162q25 -7 42 -20q25 -17 40 -44v-284zM275 273q1 26 -26.5 36.5t-63.5 8.5q-32 -2 -55.5 -13
t-22.5 -35q1 -42 81 -42q86 0 87 45z" />
    <glyph glyph-name="colon" unicode=":" horiz-adv-x="450" 
d="M426 0h-290v156l98 168q2 3 -0.5 4t-8 1t-7.5 1q-16 4 -28.5 -9t-19 -31.5t-18 -34t-27.5 -15.5q-38 1 -65.5 28t-14.5 62q22 63 71 60q14 -1 35 -18.5t37 -15.5q13 1 29 20.5t31 17.5q18 -2 31.5 -16t15.5 -28q4 -32 -17 -74l-60 -120v-92h126v166q0 13 -19.5 26.5
t-19.5 26.5t19.5 26t19.5 25v62h82v-60q0 -11 -11 -17.5t-23.5 -9.5t-22 -9.5t-7.5 -16.5q3 -13 33.5 -16t30.5 -17v-250zM150 310q2 19 -10.5 33t-31.5 15q-18 1 -31.5 -11.5t-14.5 -30.5q-1 -19 14 -32.5t34 -11.5q16 1 27.5 11.5t12.5 26.5z" />
    <glyph glyph-name="semicolon" unicode=";" horiz-adv-x="290" 
d="M267 62q1 -25 -15.5 -43t-41.5 -19t-42.5 16.5t-19.5 43.5q-2 46 40 62v163q0 39 -8 37q1 1 -2.5 4t-9 6.5t-10.5 3.5h-78q-5 0 -9.5 -5.5t-6.5 -10.5l-2 -6q3 -35 20 -42h-65v80q0 14 14 28q13 13 30 14h166q18 -6 28 -18q9 -11 12 -24v-290zM248 62q1 19 -12.5 34
t-31.5 14t-30 -15.5t-10 -32.5t15 -30.5t31 -11.5q16 1 26.5 13t11.5 29z" />
    <glyph glyph-name="semicolon" unicode="&#x37e;" horiz-adv-x="290" 
d="M267 62q1 -25 -15.5 -43t-41.5 -19t-42.5 16.5t-19.5 43.5q-2 46 40 62v163q0 39 -8 37q1 1 -2.5 4t-9 6.5t-10.5 3.5h-78q-5 0 -9.5 -5.5t-6.5 -10.5l-2 -6q3 -35 20 -42h-65v80q0 14 14 28q13 13 30 14h166q18 -6 28 -18q9 -11 12 -24v-290zM248 62q1 19 -12.5 34
t-31.5 14t-30 -15.5t-10 -32.5t15 -30.5t31 -11.5q16 1 26.5 13t11.5 29z" />
    <glyph glyph-name="less" unicode="&#x3c;" horiz-adv-x="605" 
d="M580 0h-78q-13 11 -24 24q-6 6 -18 30.5t-28 27.5q-13 2 -25 0q-2 -32 -23.5 -54.5t-53.5 -23.5q-33 -2 -58.5 20.5t-27.5 55.5q-2 35 23 62t60 26v122q0 12 -6 24q-7 13 -18 20l-78 -40l-82 38q-52 -45 -48 -114q4 -58 46 -94q21 -12 42 0q11 4 9.5 15t-7.5 19.5
t-13.5 23t-8.5 24.5q-3 28 15 46t45 18q25 0 43.5 -18t16.5 -42q-1 -9 -2.5 -16t-4.5 -15t-5 -12.5t-8 -13l-8 -11.5t-10 -13t-10 -13l-88 -116h-68l20 20q6 42 0 84q-4 26 -31.5 63t-28.5 67q-2 73 40 118q26 28 64 42l82 -52l78 52q24 5 51 -6.5t37 -25.5q21 -32 16 -66
l-1 -142q16 0 32 -6q21 -9 42 -34q15 -18 22 -36v318h78v-396zM256 212q1 15 -9 26.5t-25 13.5q-17 1 -29.5 -12t-10.5 -30q2 -14 13 -23.5t25 -8.5t24.5 10.5t11.5 23.5zM370 84q0 37 -31 50q-23 10 -47.5 -10.5t-20.5 -46.5q3 -21 18.5 -34t36.5 -11q20 2 31.5 16.5
t12.5 35.5z" />
    <glyph glyph-name="equal" unicode="=" 
d="M-75 -225h-81v30q0 16 -20.5 36t-18.5 36q2 26 18.5 44.5t41.5 18.5q24 0 42 -16.5t18 -40.5v-108zM-93 -120q-2 17 -15 28.5t-30 10.5q-16 -1 -27 -13t-12 -29q-1 -18 11.5 -31.5t30.5 -13.5q19 0 31.5 14.5t10.5 33.5z" />
    <glyph glyph-name="greater" unicode="&#x3e;" horiz-adv-x="425" 
d="M429 394l-63 -74q-2 -3 -1 -4.5t4 -3t6.5 -2.5t7 -3.5t5.5 -4.5q12 -14 13 -34v-268h-100l-41 100l-76 -100h-76v100q-35 -1 -59.5 23.5t-24.5 58.5t24 58.5t58 23.5q33 -1 56 -25t22 -57v-84h14l62 104l61 -144v198q-3 14 -13 22q-12 9 -29 6l-65 -12q-36 -5 -70 -6
t-59 14t-25 44q0 17 9 29.5t21 19.5t31.5 11.5t34 6.5t36.5 3q23 1 76 -34q37 -25 45 -16q3 3 4 12l4 38h108zM258 324q2 19 -24 27t-60 8q-80 0 -81 -33q0 -7 2 -12t7.5 -8t10.5 -4.5t14 -2.5t14 -1.5t15.5 -0.5h14.5q84 -2 87 27zM154 186q0 23 -14 40t-36 18
q-24 1 -41.5 -17.5t-16.5 -42.5t18 -40.5t40 -15.5q22 1 36 18t14 40z" />
    <glyph glyph-name="question" unicode="?" horiz-adv-x="350" 
d="M172 338q2 -26 -15.5 -45.5t-42.5 -20.5q-26 -1 -45.5 18.5t-18.5 45.5t19 44.5t43 17.5t41.5 -18t18.5 -42zM274 400l-192 -398l-50 -2l200 400h42zM265 64q1 -25 -16.5 -43t-43.5 -19q-25 -1 -44 17.5t-18 44.5q1 24 18.5 40.5t41.5 17.5q25 1 43 -16t19 -42zM146 338
q-1 14 -10.5 23.5t-23.5 10.5q-15 1 -26.5 -10t-11.5 -26t11.5 -26t26.5 -10t25 12t9 26zM237 62q-1 13 -10.5 22.5t-23.5 9.5q-13 0 -21.5 -8.5t-10.5 -21.5q-2 -15 8.5 -27t25.5 -11q14 1 23.5 11.5t8.5 24.5z" />
    <glyph glyph-name="at" unicode="@" 
d="M-2 508q-1 -26 -20 -44t-45 -17h-39h-253q-20 8 -20 28q0 5 2 10t4.5 7.5t7.5 7t7 7.5q34 37 84 40h42q3 -27 32 -41t52 0q17 10 24 30q18 36 58 36q26 0 45.5 -19t18.5 -45zM-27 512q0 16 -11.5 27t-27.5 12q-18 1 -32 -11.5t-13 -30.5q1 -16 13.5 -26t28.5 -10
q17 0 29.5 11.5t12.5 27.5zM-219 488q0 17 -22.5 20t-41.5 0h-8.5h-9.5h-9t-9 -1t-8 -2t-7.5 -2.5t-5 -3.5t-3.5 -5.5t-1 -7.5q0 -7 3.5 -11.5t11.5 -6t13.5 -2t17.5 0t15 0.5h11.5h13h11.5t11 1.5t8.5 4t6.5 6.5t2 9z" />
    <glyph glyph-name="A" unicode="A" horiz-adv-x="415" 
d="M392 332l-1 -416h-79v375q0 4 2 11.5t-0.5 12t-11.5 9.5q-42 16 -75.5 14.5t-84.5 -16.5q-20 -6 3 -20q17 -10 19 -12v-164q25 -1 42.5 -18.5t17.5 -43.5q0 -23 -16 -40t-40 -22q-30 -6 -56.5 13.5t-27.5 50.5v208v44q0 10 -40 5q-6 0 -5 0q0 1 2 2q11 6 44 27.5t59 32
t56 10.5h50q72 0 114 -42q9 -9 15.5 -12.5t8.5 -3t3 0t1 -5.5zM207 66q1 18 -12.5 30.5t-32.5 14.5q-21 2 -36.5 -11.5t-14.5 -33.5t17 -32t37 -10q18 2 29.5 13.5t12.5 28.5z" />
    <glyph glyph-name="B" unicode="B" horiz-adv-x="245" 
d="M254 454q4 -19 -3 -33.5t-24.5 -33t-24.5 -29.5l-18 -26v-206q25 -3 41.5 -22.5t14.5 -45.5q-1 -25 -18.5 -41.5t-43.5 -18.5q-29 -2 -51 17t-23 47v268q6 24 20 44q7 10 21.5 20.5t20.5 17.5q20 22 22 28q7 19 -14.5 39t-47.5 23.5t-40 -12.5q19 3 34.5 -6.5t19.5 -27.5
q6 -21 -9.5 -38t-38.5 -22q-26 -5 -47.5 14t-24.5 48q-6 54 108 66q65 7 98 -24q22 -20 28 -46zM111 441q0 17 -21 21q-28 4 -30 -18q-1 -10 7.5 -17.5t19.5 -6.5q9 0 16.5 6t7.5 15zM222 63q1 19 -12.5 32.5t-32.5 15.5q-20 2 -35 -11.5t-16 -33.5t14.5 -34.5t36.5 -13.5
q19 1 31.5 13.5t13.5 31.5z" />
    <glyph glyph-name="C" unicode="C" horiz-adv-x="460" 
d="M456 84q3 -33 -21.5 -58t-58.5 -26t-59.5 24t-24.5 60q-37 -15 -68 -40q-22 -19 -41 -44h-84v126q-35 19 -39 60q-3 34 23 60t61 24q33 -2 56 -24t22 -54q0 -27 -18 -48v-45q35 36 81 54q18 8 45 12v126q-2 2 -5.5 8.5t-7 9.5t-8.5 3h-2q-141 34 -211 0q-30 -14 -54 -36
q-7 61 42 99q17 14 40 19h204q25 -7 44 -20q25 -17 40 -42v-186q40 -19 44 -62zM431 82q-1 23 -19.5 38t-41.5 13q-20 -2 -33.5 -15.5t-15.5 -33.5q-2 -24 15 -43.5t41 -18.5q23 1 39.5 19t14.5 41zM195 193q0 22 -14.5 38.5t-36.5 17.5q-24 1 -41.5 -16.5t-16.5 -41.5
q1 -23 18.5 -38.5t39.5 -14.5t36.5 17t14.5 38z" />
    <glyph glyph-name="D" unicode="D" horiz-adv-x="438" 
d="M413 335l-1 -409h-93l-39 62l-62 -79l-38 53q-1 -26 -22.5 -43t-47.5 -14q-22 2 -37 15.5t-16 33.5q-1 23 18 40.5t42 13.5q25 -4 37 -28l26 36l41 -63l61 79l28 -42h22l1 304q0 4 2 11.5t-0.5 12t-11.5 9.5q-42 16 -75.5 14.5t-84.5 -16.5q-20 -6 3 -20q17 -10 19 -12
v-202v-9q-1 -29 -24.5 -45.5t-57.5 -17.5q-28 -1 -48.5 18.5t-19.5 46.5q1 26 21 42t47 17h2v134v44q0 10 -40 5q-6 0 -5 0q0 1 2 2q11 6 44 27.5t59 32t56 10.5h50q72 0 114 -42q9 -9 15.5 -12.5t8.5 -3t3 0t1 -5.5zM144 77q1 19 -11 32t-31 15t-34 -10t-16 -30
q-1 -19 14 -33.5t35 -13.5q17 1 29.5 12t13.5 28zM142 -42q-2 30 -32 32q-15 1 -27 -10t-11 -26t12.5 -25t26.5 -8q14 1 23 12t8 25z" />
    <glyph glyph-name="E" unicode="E" horiz-adv-x="430" 
d="M413 335l-1 -409h-140l-42 36l-46 -56q-34 -36 -78 -14q-41 20 -38 60q2 21 14.5 36t33.5 18q30 4 50 -20l64 68l40 -44h62l1 284q0 4 2 11.5t-0.5 12t-11.5 9.5q-42 16 -75.5 14.5t-84.5 -16.5q-20 -6 3 -20q17 -10 19 -12v-202v-9q-1 -30 -26.5 -49t-55.5 -14
q-27 4 -45 21t-17 42t18.5 42.5t43.5 18.5h2v134v44q0 10 -40 5q-6 0 -5 0q0 1 2 2q11 6 44 27.5t59 32t56 10.5h50q72 0 114 -42q9 -9 15.5 -12.5t8.5 -3t3 0t1 -5.5zM154 88q-3 19 -18 29.5t-34 8.5q-17 -1 -29 -14t-13 -30q-1 -19 12.5 -33t33.5 -15q21 -1 36 16t12 38z
M166 -54q1 20 -16 34.5t-36 9.5q-30 -8 -32 -40q-1 -18 10 -31.5t28 -14.5q18 -1 31.5 11.5t14.5 30.5z" />
    <glyph glyph-name="F" unicode="F" horiz-adv-x="230" 
d="M283 511l-65 -77q-8 24 -29.5 36t-46.5 7q-21 -4 -36 -12t-6 -17l66 -67v-257q39 -16 41 -62q1 -26 -17 -44t-44 -18t-43.5 17.5t-18.5 42.5v341q3 28 -20 39q-27 13 -46 -11q-7 40 22 69q21 21 44 21h102q6 0 11.5 -6.5t9.5 -8.5q39 -19 76 7zM194 63q-2 18 -13.5 30
t-28.5 13q-18 1 -30.5 -12t-14.5 -31q-2 -19 10.5 -34t31.5 -16t33 14.5t12 35.5z" />
    <glyph glyph-name="G" unicode="G" horiz-adv-x="605" 
d="M580 2h-80q-14 38 -42 64l-12 12.5t-15 14.5l-13 10.5t-11.5 4.5t-6.5 -8q-5 3 -6 -3.5t0 -15t-2 -15.5q-32 -76 -84 -66q-24 5 -40 22t-16 40q0 26 17.5 43.5t42.5 18.5v167q0 4 2 11.5t-0.5 12t-11.5 9.5q-42 16 -75.5 14.5t-84.5 -16.5q-20 -6 3 -20q17 -10 19 -12
v-164q25 -1 42.5 -18.5t17.5 -43.5q0 -23 -16 -40t-40 -22q-30 -6 -56.5 13.5t-27.5 50.5v208v44q0 10 -40 5q-6 0 -5 0q0 1 2 2q11 6 44 27.5t59 32t56 10.5h50q72 0 114 -42q9 -9 15.5 -12.5t8.5 -3t3 0t1 -5.5v-186q31 -6 64 -20q4 -2 30 -22q13 -8 14 0v292h80v-394z
M360 69q-2 19 -15.5 30t-32.5 11q-20 0 -33.5 -14t-13.5 -33t13.5 -32.5t32.5 -14.5q21 -1 36.5 15.5t12.5 37.5zM211 63q1 19 -13 33.5t-34 15.5t-34.5 -12.5t-15.5 -32.5q-1 -20 15 -35t36 -14q19 1 32 13.5t14 31.5z" />
    <glyph glyph-name="H" unicode="H" 
d="M-21 632l-74 -61h-134q-14 -8 -20 -21q-10 -22 -1 -43h22l40 41q-6 -13 1 -25q7 -13 21 -16q4 19 18.5 30.5t34.5 10.5t34.5 -15t14.5 -34q0 -21 -14 -36t-35 -16q-33 -1 -53 40q-6 13 -31 11q-13 -1 -13 -8q0 -1 1 -3l21 -40h-60q-18 0 -30 12t-12 29v83q0 20 15 32
q12 9 27 9h167zM-78 499q0 15 -10 25t-25 11t-26 -10t-11 -26t10.5 -26.5t25.5 -11.5t25.5 11.5t10.5 26.5z" />
    <glyph glyph-name="I" unicode="I" horiz-adv-x="605" 
d="M600 82q1 -32 -18.5 -56.5t-49.5 -25.5q-29 -1 -50 17.5t-24 46.5q-19 -5 -38 -18q-25 -18 -38 -46h-70v291q0 4 2 11.5t-0.5 12t-11.5 9.5q-42 16 -75.5 14.5t-84.5 -16.5q-20 -6 3 -20q17 -10 19 -12v-164q25 -1 42.5 -18.5t17.5 -43.5q0 -23 -16 -40t-40 -22
q-30 -6 -56.5 13.5t-27.5 50.5v208v44q0 10 -40 5q-6 0 -5 0q0 1 2 2q11 6 44 27.5t59 32t56 10.5h50q72 0 114 -42q9 -9 15.5 -12.5t8.5 -3t3 0t1 -5.5v-240q9 14 24 26q28 23 64 28v248h82v-244q38 -24 38 -68zM581 87q-7 18 -22.5 27t-33.5 5q-35 -6 -40 -44
q-3 -23 12.5 -40.5t37.5 -17.5q24 0 39 23.5t7 46.5zM201 66q-1 16 -11.5 28t-27.5 14q-20 3 -36.5 -9.5t-17.5 -32.5q-1 -21 16 -36.5t38 -12.5q18 3 29 17t10 32z" />
    <glyph glyph-name="J" unicode="J" 
d="M-2 473h-42v-26h-60v26h-42v61h42v24h60v-24h42v-61z" />
    <glyph glyph-name="K" unicode="K" horiz-adv-x="500" 
d="M476 190h-20v-190h-332v228q-35 -2 -63.5 26.5t-24.5 65.5q3 32 33 54t59 20q32 -1 53.5 -25t22.5 -57v-228h172v104h-66q-36 0 -49 14.5t-17 41.5q-4 28 20.5 52t49.5 25q17 1 37 -14.5t25 -36.5v124h80v-126h20v-78zM353 243q3 19 -10.5 34.5t-32.5 15.5t-32 -14
t-11 -33q1 -16 13.5 -27t29.5 -11q16 0 28 9.5t15 25.5zM179 311q0 22 -16 38t-39 18t-41 -12t-20 -36q-3 -24 15 -43t43 -19q24 0 41 15.5t17 38.5z" />
    <glyph glyph-name="L" unicode="L" horiz-adv-x="455" 
d="M474 458l-87 -77q-9 -8 -6.5 -14.5t21.5 -25.5q32 -32 32 -82v-259h-82v270q0 40 -30 54q-42 16 -75.5 14.5t-84.5 -16.5q-22 -6 -38 -25t-20 -45q-6 -36 16 -66h22q3 0 3.5 1.5t0.5 3.5t-1 5t-1.5 6t0.5 6q6 30 29.5 47.5t54.5 16.5q33 -1 56.5 -25t23.5 -57
q0 -31 -22.5 -52t-57.5 -30q-12 -3 -45 20q-19 13 -19 0v-128h-80v166q0 19 -22 42.5t-22 41.5q-1 31 12.5 52.5t42.5 48.5q49 44 125 44h50l78 -17l-30 80h156zM284 190q-2 19 -15 31.5t-33 14.5q-23 2 -40.5 -15.5t-15.5 -40.5q1 -21 17 -35t37 -13q22 1 37 18t13 40z" />
    <glyph glyph-name="M" unicode="M" horiz-adv-x="452" 
d="M426 0h-290v156l98 168q2 3 -0.5 4t-8 1t-7.5 1q-16 4 -28.5 -9t-19 -31.5t-18 -34t-27.5 -15.5q-38 1 -65.5 28t-14.5 62q22 63 71 60q14 -1 35 -18.5t37 -15.5q13 1 29 20.5t31 17.5q18 -2 31.5 -16t15.5 -28q4 -32 -17 -74l-60 -120v-92h126v332h82v-396zM150 310
q2 19 -10.5 33t-31.5 15q-18 1 -31.5 -11.5t-14.5 -30.5q-1 -19 14 -32.5t34 -11.5q16 1 27.5 11.5t12.5 26.5z" />
    <glyph glyph-name="N" unicode="N" 
d="M95 709l-1 -69l-116 -66q-4 -4 -2.5 -6.5t7 -8.5t6.5 -10q19 -59 -4 -83q-17 -18 -42 -18.5t-44 16.5q-19 19 -18.5 47.5t16.5 41.5q20 17 45 29.5t36 11.5zM-20 513q-2 15 -14.5 23.5t-27.5 6.5q-16 -2 -26.5 -13.5t-9.5 -26.5t13 -24t27 -8q17 1 28.5 13.5t9.5 28.5z
" />
    <glyph glyph-name="O" unicode="O" horiz-adv-x="335" 
d="M310 0h-68v292l-48 -50q-23 -37 -82 -42q-32 -3 -57.5 17.5t-28.5 52.5q-4 37 28.5 64.5t69.5 19.5q30 -7 47.5 -29t16.5 -53q27 29 50 66q19 31 30 56h42v-394zM156 279q0 18 -10.5 31t-28.5 17q-23 5 -42 -13.5t-16 -41.5q2 -20 18.5 -32t36.5 -10q19 2 30.5 16
t11.5 33z" />
    <glyph glyph-name="P" unicode="P" horiz-adv-x="605" 
d="M580 104q0 -64 -72 -91q-37 -14 -92.5 -16t-63.5 3q-26 6 -42.5 19.5t-15.5 34.5t18.5 34.5t39.5 11.5t34 -13t17.5 -22.5t10.5 -12.5q26 -20 68 -15q33 3 60 25q21 18 30 42h-260v187q0 4 2 11.5t-0.5 12t-11.5 9.5q-42 16 -75.5 14.5t-84.5 -16.5q-20 -6 3 -20
q17 -10 19 -12v-166h2q26 -1 43.5 -18.5t18.5 -42.5t-17 -42t-45 -21q-30 -5 -55.5 14t-26.5 49v9v202v44q0 10 -40 5q-6 0 -5 0q0 1 2 2q11 6 44 27.5t59 32t56 10.5h50q72 0 114 -42q9 -9 15.5 -12.5t8.5 -3t3 0t1 -5.5v-144h108v206h80v-290zM387 54q-2 29 -35 33
q-16 2 -29 -8t-14 -25t13 -26t30 -9q15 2 25.5 11.5t9.5 23.5zM212 63q1 20 -12.5 34t-34.5 16q-23 2 -41 -13t-17 -37t18.5 -36t39.5 -12q20 2 33 15.5t14 32.5z" />
    <glyph glyph-name="Q" unicode="Q" horiz-adv-x="305" 
d="M266 115l-36 -19l16 -54l-48 18l-25 -39l-27 37l-46 -16l20 48l-33 21l27 27l-16 54l52 -18l25 38l15 -40l56 20l-18 -54z" />
    <glyph glyph-name="R" unicode="R" horiz-adv-x="531" 
d="M504 0h-80v270q-3 2 -9 7.5t-8.5 7l-8 5t-8.5 2.5t-10 -2q-73 -34 -112 -114l-12 -30v-146h-80v164q5 27 17 50q8 18 32.5 40.5l40 36t8.5 15.5q2 3 -9.5 11t-25.5 12t-26 -3q-14 -10 -37.5 -48.5t-50.5 -37.5q-38 1 -65.5 28t-14.5 62q22 63 71 60q15 -1 34.5 -14.5
t33.5 -12.5q13 0 31 16.5t33 14.5q14 -1 28 -26t29 -24q24 1 32.5 4.5t12 11.5t9.5 12q11 8 25 22h62q23 -5 38 -22q17 -19 20 -42v-330zM150 310q2 19 -10.5 33t-31.5 15q-18 1 -31.5 -11.5t-14.5 -30.5q-1 -19 14 -32.5t34 -11.5q16 1 27.5 11.5t12.5 26.5z" />
    <glyph glyph-name="S" unicode="S" horiz-adv-x="505" 
d="M483 57q4 -34 -13 -45q-20 -16 -59 -13t-49 31l-87 83v-30q0 -34 -24 -58t-58 -25t-58.5 23t-25.5 59q-1 34 24 59.5t60 24.5l45 154q1 4 -1.5 5.5t-9 2.5t-9.5 2q-16 5 -28 -8t-18.5 -31.5t-18.5 -34.5t-28 -16q-38 1 -65.5 28t-14.5 62q22 63 71 60q14 -1 35 -18.5
t37 -15.5q13 1 29 20.5t31 17.5q18 -2 31.5 -16t15.5 -28q1 -5 -11 -40t-17 -62.5t8 -48.5l87 -83q2 -4 15 -3.5t18 7.5q6 8 6 46v229h82v-338zM150 310q2 19 -10.5 33t-31.5 15q-18 1 -31.5 -11.5t-14.5 -30.5q-1 -19 14 -32.5t34 -11.5q16 1 27.5 11.5t12.5 26.5zM244 87
q0 23 -16 39.5t-38 17.5q-24 1 -41.5 -17.5t-15.5 -42.5q2 -23 18.5 -39t38.5 -15t38 17.5t16 39.5z" />
    <glyph glyph-name="T" unicode="T" horiz-adv-x="395" 
d="M372 54q0 -27 -6 -36q-12 -18 -46 -18h-236v189h80v-128l90 1q23 0 34 16q4 6 4 32v98h-228v104q0 11 5.5 22t9.5 15l17 17q26 26 65 30t77 -2q14 -1 45.5 -16.5t50.5 -5.5l38 20v-76l-40 -24q-18 -11 -48.5 5.5t-45.5 16.5h-23t-24.5 -0.5t-17.5 -5.5t-19 -14
q-19 -24 -14 -26h232v-214z" />
    <glyph glyph-name="U" unicode="U" 
d="M23 621l-109 -154h-84l30 102l-59 -32l-50 32l-32 -44q-1 -2 0 -2q2 0 7 1q10 2 14 1q17 -3 28.5 -14t11.5 -27t-11 -27.5t-27 -12.5q-14 -1 -23 9t-18 27q-1 3 -2 5q-20 36 -3 84.5t54 40.5q13 -3 25.5 -25.5t26.5 -23.5q12 -1 20.5 12l17 25.5t20.5 11.5q20 -2 31 -19
t13 -40q1 -17 -36 -65q-3 -3 -1 -2q1 1 4 3q-8 -14 2 -7q3 2 64 61l13 13q11 10 42 42q36 35 36 33q0 -1 -5 -8zM-231 485q-1 11 -9 18t-20 7q-27 0 -30 -24q-1 -13 9 -22.5t23 -8.5q12 1 20 9.5t7 20.5z" />
    <glyph glyph-name="V" unicode="V" horiz-adv-x="395" 
d="M419 394l-63 -74q-2 -4 -1 -6t3.5 -6.5t3.5 -7.5q8 -31 10 -54v-246h-308v184q1 30 23.5 51t52.5 19q27 -2 46 -19t20 -43q2 -27 -16.5 -47t-45.5 -21v-62h148l1 184q6 17 -7 30q-9 9 -17 8l-65 -12q-36 -5 -70 -6t-59 14t-25 44q1 68 132 70q18 0 30.5 -2t17 -3.5
t15.5 -8.5t17 -10t14 -8l12.5 -8t9 -4.5t6.5 0t3 6.5l4 38h108zM252 328q1 6 -1 11t-7 8t-9.5 5t-13 3t-13.5 1.5t-15 1t-13 0.5q-31 2 -59 -6.5t-31 -25.5q-2 -10 3 -16t17.5 -7.5t22.5 -1.5t27 1.5t22 1.5q9 1 18 0.5t18 0t16 2.5t12 7.5t6 13.5zM184 194q-1 17 -13.5 28
t-30.5 12q-20 1 -34.5 -14t-13.5 -34q1 -18 16 -30t34 -10t31 15.5t11 32.5z" />
    <glyph glyph-name="W" unicode="W" horiz-adv-x="285" 
d="M234 555q-35 -98 -36 -99q-6 2 -21.5 44.5t-16.5 52.5q-1 16 10.5 27.5t27.5 10.5t28 -11.5t8 -24.5zM140 555q-35 -98 -36 -99q-6 2 -21.5 44.5t-16.5 52.5q-1 16 10.5 27.5t27.5 10.5t28 -11.5t8 -24.5z" />
    <glyph glyph-name="X" unicode="X" horiz-adv-x="355" 
d="M238 50q-17 -42 -52 -72q-50 -46 -67 -48q-5 -1 -1 8l36 76v340l-36 80q-11 23 33 -11q20 -16 39 -33q29 -27 48 -64v-276z" />
    <glyph glyph-name="Y" unicode="Y" 
d="M-17 504q2 -23 -13.5 -40t-37.5 -17t-37.5 17t-13.5 40q2 21 16 36t35 15t35 -15t16 -36zM-35 504q-1 14 -10.5 23t-22.5 10q-14 1 -24.5 -9t-11.5 -24q-1 -15 10 -26t26 -10q14 1 24 11.5t9 24.5z" />
    <glyph glyph-name="Z" unicode="Z" horiz-adv-x="284" 
d="M240 -60q6 -13 -9 -5q-24 13 -59 45q-35 30 -52 72v276q19 37 48 64q62 57 73 53q3 -1 -1 -9l-36 -80v-340z" />
    <glyph glyph-name="bracketleft" unicode="[" horiz-adv-x="460" 
d="M436 0h-291v230q0 8 -11.5 10t-25.5 3.5t-28 18.5t-18 51q-4 33 21.5 57t60.5 25t59.5 -23.5t24.5 -58.5v-230h126v311h82v-394zM206 316q1 25 -17.5 43.5t-44.5 18.5t-44.5 -18.5t-17.5 -43.5t19 -41.5t43 -16.5t43 16.5t19 41.5z" />
    <glyph glyph-name="backslash" unicode="\" horiz-adv-x="285" 
d="M264 -84h-79v369q0 39 -8 37q1 1 -2.5 4t-9 6.5t-10.5 3.5h-32q-5 0 -9.5 -5.5t-6.5 -10.5l-2 -6l-29 -38q-16 -16 -16 -4v80q0 14 14 28q13 13 30 14h120q18 -6 28 -18q9 -11 12 -24v-436z" />
    <glyph glyph-name="bracketright" unicode="]" horiz-adv-x="395" 
d="M374 0h-82v119q0 28 -18 47q-21 22 -50 22h-102v-62q26 0 44.5 -19t17.5 -45q-1 -25 -18 -40.5t-44 -19.5q-30 -4 -54.5 13.5t-29.5 46.5v144q12 31 36 50q7 6 13.5 10t15 6.5l13.5 4t15.5 2t14.5 0.5h17h17q7 0 20 0.5t20 0.5t16.5 -1.5t18 -5t17.5 -9.5q11 -8 18 -16
v37q0 39 -8 37q1 1 -2.5 4t-9 6.5t-10.5 3.5h-157q-5 0 -9.5 -5.5t-6.5 -10.5l-2 -6l-29 -38q-16 -16 -16 -4v80q0 14 14 28q13 13 30 14h250q18 -6 28 -18q9 -11 12 -24v-352zM168 62q0 19 -14 33t-34 15q-41 0 -50 -36q-6 -22 10.5 -41.5t39.5 -18.5q20 1 34 15t14 33z
" />
    <glyph glyph-name="asciicircum" unicode="^" horiz-adv-x="455" 
d="M432 0h-80v290q0 12 -6 24q-7 13 -18 20l-78 -40l-82 38q-52 -45 -48 -114q4 -58 46 -94q21 -12 42 0q11 4 9.5 15t-7.5 19.5t-13.5 23t-8.5 24.5q-3 28 15.5 46t44.5 18q25 0 43.5 -18t16.5 -42q-6 -67 -40 -104l-96 -106h-68l20 20q6 42 0 84q-4 26 -31.5 63t-28.5 67
q-2 73 40 118q26 28 64 42l82 -52l78 52q24 5 51 -6.5t37 -25.5q21 -32 16 -66v-296zM282 210q1 18 -9 31.5t-27 14.5q-18 2 -32 -13.5t-12 -34.5q2 -18 13.5 -29.5t28.5 -10.5q16 1 26.5 13t11.5 29z" />
    <glyph glyph-name="underscore" unicode="_" horiz-adv-x="455" 
d="M432 -84h-80v375q0 4 2 11.5t-0.5 12t-11.5 9.5q-42 16 -75.5 14.5t-84.5 -16.5q-20 -6 3 -20q17 -10 19 -12v-228q-3 -29 -26 -47t-52 -15q-25 2 -42.5 18t-19.5 40q-2 26 16 46.5t44 21.5v148v44q0 10 -40 5q-6 0 -5 0q0 1 2 2q11 6 44 27.5t59 32t56 10.5h50
q72 0 114 -42q9 -9 15.5 -12.5t8.5 -3t3 0t1 -5.5v-416zM171 66q0 19 -14.5 31.5t-33.5 10.5q-17 -2 -28.5 -15t-10.5 -30q2 -16 12.5 -26.5t26.5 -12.5q19 -2 33.5 10.5t14.5 31.5z" />
    <glyph glyph-name="grave" unicode="`" horiz-adv-x="415" 
d="M367 296l-128 -112v-58h-80v80l104 86q2 2 10.5 8.5t11 9.5t7.5 8.5t7 11t2 12.5q1 21 -8 37.5t-26 16.5h-48q-6 0 -7.5 -3.5t0 -10t3.5 -13t3.5 -14.5t0.5 -13q-19 -87 -80 -88q-33 -1 -54.5 24.5t-29.5 63.5q-10 46 14.5 85t69.5 51h144q30 -3 56 -24q19 -16 28 -38
v-120zM245 20q-4 -53 -42 -56q-21 -2 -34.5 15.5t-15.5 40.5q-2 26 12.5 46t37.5 18q21 -2 32.5 -21t9.5 -43zM180 345q-4 47 -35 50q-19 1 -29.5 -15.5t-10.5 -39.5t12.5 -40.5t32.5 -14.5q36 6 30 60z" />
    <glyph glyph-name="a" unicode="a" horiz-adv-x="470" 
d="M446 0h-75l-106 230l-100 -230h-52v230q-35 -1 -59.5 23.5t-24.5 58.5t24 58.5t58 23.5q33 -1 56 -25t22 -57v-129h14l62 149l101 -195v321h80v-458zM165 315q1 23 -15 40.5t-39 19.5q-26 3 -47 -17t-19 -46q1 -25 21 -40.5t45 -13.5q23 2 38 18.5t16 38.5z" />
    <glyph glyph-name="b" unicode="b" 
d="M-25 447h-333q-20 8 -20 28q0 5 2 10t4.5 7.5t7.5 7t7 7.5q34 37 84 40h122q47 -8 84 -41q28 -25 42 -59zM-151 499q0 23 -56 20h-6h-11.5t-13 -0.5t-11.5 -1t-11 -2.5t-8.5 -4t-6 -6.5t-0.5 -9.5q1 -7 5 -11.5t11.5 -5.5t13 -1t17 1t15.5 1q8 1 16 0.5t16.5 0t15 2
t10.5 6t4 11.5z" />
    <glyph glyph-name="c" unicode="c" horiz-adv-x="400" 
d="M395 66q1 -25 -15.5 -42t-42.5 -22q-30 -5 -55 14t-27 50v330h82v-270q24 -1 40.5 -18.5t17.5 -41.5zM224 64q1 -25 -15.5 -42t-42.5 -22q-30 -5 -55 14t-27 50v330h82v-270q24 -1 40.5 -18.5t17.5 -41.5zM383 66q-1 19 -13.5 31.5t-31.5 13.5t-33.5 -12t-15.5 -32
q-1 -20 13.5 -35.5t34.5 -14.5t33.5 15.5t12.5 33.5zM211 64q-1 19 -13.5 31.5t-31.5 13.5t-33.5 -12t-15.5 -32q-1 -20 13.5 -35.5t34.5 -14.5t33.5 15.5t12.5 33.5z" />
    <glyph glyph-name="d" unicode="d" horiz-adv-x="395" 
d="M372 0h-80v292q-10 9 -16 16q-9 7 -20 8h-124l-26 -26h36v-290h-78v272h-32l46 72q16 23 26 32q20 16 44 20h140q25 -7 44 -20q25 -17 40 -42v-334z" />
    <glyph glyph-name="e" unicode="e" horiz-adv-x="265" 
d="M-17 504q2 -23 -13.5 -40t-37.5 -17t-37.5 17t-13.5 40q2 21 16 36t35 15t35 -15t16 -36zM244 0h-79v285q0 39 -8 37q1 1 -2.5 4t-9 6.5t-10.5 3.5h-32q-5 0 -9.5 -5.5t-6.5 -10.5l-2 -6l-29 -38q-16 -16 -16 -4v80q0 14 14 28q13 13 30 14h120q18 -6 28 -18
q9 -11 12 -24v-352zM-35 504q-1 14 -10.5 23t-22.5 10q-14 1 -24.5 -9t-11.5 -24q-1 -15 10 -26t26 -10q14 1 24 11.5t9 24.5z" />
    <glyph glyph-name="f" unicode="f" horiz-adv-x="455" 
d="M432 0h-80v312q-11 14 -20 20q-32 21 -70.5 21.5t-75.5 -21.5q-67 -41 -66 -114q1 -58 46 -94q21 -12 42 0q11 4 9.5 15t-7.5 19.5t-13.5 23t-8.5 24.5q-3 28 15.5 46t44.5 18q25 0 43.5 -18t16.5 -42q-6 -67 -40 -104l-96 -106h-68l20 20q6 42 0 84q-4 26 -31.5 63
t-28.5 67q-2 73 40 118q26 28 64 42h160q36 -13 64 -40q25 -24 40 -58v-296zM282 210q2 17 -9 30t-27 14q-18 2 -31.5 -13t-10.5 -33q2 -16 15 -25t29 -7q31 3 34 34z" />
    <glyph glyph-name="g" unicode="g" horiz-adv-x="205" 
d="M204 64q1 -25 -15.5 -42t-42.5 -22q-30 -5 -55 14t-27 50v330h82v-270q24 -1 40.5 -18.5t17.5 -41.5zM190 64q-1 19 -13 32t-31 14q-21 2 -38 -12.5t-16 -35.5q1 -20 17.5 -34t36.5 -12q19 2 32 16t12 32z" />
    <glyph glyph-name="h" unicode="h" 
d="M29 581l-15 -43l-254 -91l28 40q-19 3 -36 15q-23 18 -24 41q-1 24 17 42t43 18q24 0 40 -17t20 -43q4 -25 -9 -48l118 86h72zM-168 544q1 19 -12.5 33.5t-33.5 14.5q-19 0 -32.5 -14.5t-12.5 -33.5q1 -17 15 -27.5t32 -10.5t30.5 10.5t13.5 27.5z" />
    <glyph glyph-name="i" unicode="i" horiz-adv-x="315" 
d="M308 394l-18 -102h-38q15 21 -4 36q-9 7 -20 6h-64q-10 -1 -14 -10q-2 -4 -2 -10v-44h140v-206q-8 -34 -37.5 -53t-64.5 -11q-57 12 -64 62q-5 31 14 56t50 28h22v44h-144v140q13 28 38 46q57 42 122 18q11 -18 34 -22q32 -5 50 22zM255 66q3 24 -16 43t-44 17
q-24 -2 -40.5 -19.5t-13.5 -40.5q2 -21 18.5 -34t37.5 -13q22 -1 39 12.5t19 34.5z" />
    <glyph glyph-name="j" unicode="j" 
d="M-28 447h-70v120h70v-120z" />
    <glyph glyph-name="k" unicode="k" horiz-adv-x="265" 
d="M244 0h-79v285q0 39 -8 37q1 1 -2.5 4t-9 6.5t-10.5 3.5h-32q-5 0 -9.5 -5.5t-6.5 -10.5l-2 -6l-29 -38q-16 -16 -16 -4v80q0 14 14 28q13 13 30 14h120q18 -6 28 -18q9 -11 12 -24v-352z" />
    <glyph glyph-name="l" unicode="l" horiz-adv-x="395" 
d="M405 426l-31 -116v-310h-82v119q0 28 -18 47q-21 22 -50 22h-102v-62q26 0 44.5 -19t17.5 -45q-1 -25 -18 -40.5t-44 -19.5q-30 -4 -54.5 13.5t-29.5 46.5v144q12 31 36 50q7 6 13.5 10t15 6.5l13.5 4t15.5 2t14.5 0.5h17h17q7 0 20 0.5t20 0.5t16.5 -1.5t18 -5
t17.5 -9.5q11 -8 18 -16v37q0 39 -8 37q1 1 -2.5 4t-9 6.5t-10.5 3.5h-157q-5 0 -9.5 -5.5t-6.5 -10.5l-2 -6l-29 -38q-16 -16 -16 -4v80q0 14 14 28q13 13 30 14h163l29 -19l45 -33l-24 84h108zM172 64q-1 19 -15.5 32.5t-34.5 13.5t-34.5 -13.5t-15.5 -32.5q-1 -20 14 -34
t36 -14t36 14t14 34z" />
    <glyph glyph-name="m" unicode="m" horiz-adv-x="455" 
d="M432 0h-80v260v31q0 9 -8 6q-6 -2 -12 -12q-15 -25 -59 -85.5t-67 -101.5q-2 0 -1 -4l1 -4v-90h-80v228q-31 7 -48.5 30t-16.5 55q1 35 26 59t59 23t57.5 -24.5t24.5 -57.5v-45q0 -4 -1 -9t-1 -8q-1 -18 10 -3q6 7 21 33q24 41 35 53q6 6 20 25.5t25 27t27 7.5
q27 -1 45 -18t23 -44q1 -11 0 -22v-310zM202 314q0 25 -16 43.5t-40 20.5q-26 2 -46 -17.5t-20 -46.5t21.5 -46.5t48.5 -15.5q23 4 37.5 21.5t14.5 40.5z" />
    <glyph glyph-name="n" unicode="n" 
d="M-25 447h-355q-20 8 -20 28q0 5 2 10t4.5 7.5t7.5 7t7 7.5q34 37 84 40h100q1 -10 9 -18t17 -9v50h61v-65h22v65h61v-123zM-193 499q0 7 -4 11.5t-12 6t-13.5 2t-18 0t-15.5 -0.5h-11h-12.5h-11t-10.5 -1.5t-8 -3.5t-6 -6t-2 -9t2 -9t6 -6t7.5 -3.5t10.5 -2t11 -0.5h12
h11h11.5h13t11.5 0.5t11.5 2t8.5 4t6.5 6.5t1.5 9z" />
    <glyph glyph-name="o" unicode="o" horiz-adv-x="455" 
d="M456 84q2 -34 -20.5 -59t-59.5 -23q-10 1 -19 3.5t-15.5 6.5t-12 8.5t-9.5 9.5t-7.5 10t-5.5 9.5l-3.5 8t-2.5 4.5l-1 2q-6 4 -30 -20q-18 -20 -22 -44h-100v228q-35 -1 -60.5 25t-23.5 61q2 34 26 57.5t58 22.5q33 -1 56 -25t22 -57v-228q19 30 50 46q28 14 56 14v250
h80v-246q41 -20 44 -64zM201 312q2 23 -14.5 41t-39.5 19q-24 1 -42 -16t-18 -41t18 -41t42 -16q22 1 37 16t17 38zM435 78q-1 23 -19 39t-41 15q-22 -1 -37.5 -15t-16.5 -36q-1 -24 16 -42t41 -18q23 0 40.5 17t16.5 40z" />
    <glyph glyph-name="p" unicode="p" horiz-adv-x="395" 
d="M372 0h-308v156h20v42h-20v112q0 7 4.5 21.5t24 35.5t51.5 27q24 5 52.5 -21.5t29.5 -58.5q1 -34 -22.5 -58.5t-57.5 -25.5v-22h102v-62h-102v-62h146v310h80v-394zM207 318q-2 24 -20.5 40t-42.5 14q-23 -2 -39.5 -18t-17.5 -39q-2 -24 12.5 -41.5t38.5 -21.5
q28 -4 50 17t19 49z" />
    <glyph glyph-name="q" unicode="q" horiz-adv-x="335" 
d="M310 271q-3 -18 -10 -44t-10 -40v-14v-257h-82v285q5 5 8 16.5t28 34.5q25 22 33.5 55.5t-17.5 42.5q-13 3 -29.5 -15t-28.5 -18q-8 0 -40 18q-10 6 -10 2q0 -1 1 -4q16 -43 -0.5 -85.5t-55.5 -42.5q-38 0 -54 43.5t-1 84.5q17 50 61 61q21 5 49 -19.5t48 -22.5
q16 1 37 24.5t39 18.5q20 -5 34 -25v-87q0 -1 0.5 -6t-0.5 -6zM144 274q-3 17 -16.5 26.5t-29.5 7.5t-26 -14t-10 -28q0 -33 34 -40q19 -4 35.5 12.5t12.5 35.5z" />
    <glyph glyph-name="r" unicode="r" horiz-adv-x="445" 
d="M423 0h-52l-106 230l-100 -230h-52v230q-35 -1 -59.5 23.5t-24.5 58.5t24 58.5t58 23.5q33 -1 56 -25t22 -57v-129h14l62 149l74 -163v225h84v-394zM165 315q1 23 -15 40.5t-39 19.5q-26 3 -47 -17t-19 -46q1 -25 21 -40.5t45 -13.5q23 2 38 18.5t16 38.5z" />
    <glyph glyph-name="s" unicode="s" horiz-adv-x="450" 
d="M446 326q6 -47 -34 -74v-252h-80v214q-37 -25 -66 -58q-39 -44 -62 -102v-54h-80v250q-29 -2 -50.5 16t-25.5 46q-4 32 19.5 56.5t56.5 25.5t57.5 -24t22.5 -58v-168q23 41 60 74q30 28 68 46q-33 13 -40 48q-7 31 19.5 57t60.5 25q29 -1 49.5 -20t24.5 -48zM417 330
q-2 19 -14 32.5t-31 15.5q-25 4 -45 -16.5t-15 -46.5q4 -21 20 -33.5t37 -11.5q22 1 36 19t12 41zM171 315q3 23 -13 41.5t-38 18.5t-38 -18.5t-13 -41.5q3 -21 19.5 -34t37.5 -11q40 5 45 45z" />
    <glyph glyph-name="t" unicode="t" horiz-adv-x="355" 
d="M332 302q2 -2 -7.5 -10t-26.5 -19t-36.5 -21.5t-43 -17t-42.5 -5.5q-49 3 -73 21q-41 30 -41 61q1 26 18 44t42 19q26 1 46.5 -18.5t17.5 -42.5q-2 -14 21 -22q20 -7 43 22q7 9 4 51q-2 13 1 13q2 0 5 -3zM324 70q1 -1 -23.5 -19.5t-63.5 -37t-69 -16.5q-49 3 -73 21
q-41 30 -41 61q1 26 18 44t42 19q26 1 46.5 -18.5t17.5 -42.5q-2 -14 21 -22q20 -7 43 22q7 9 4 51q-2 13 1 13q2 0 5 -3zM168 316q0 18 -14 30.5t-32 11.5t-30.5 -14.5t-11.5 -31.5q1 -17 15 -29t31 -11t29.5 14t12.5 30zM160 84q0 18 -14 30.5t-32 11.5t-30.5 -14.5
t-11.5 -31.5q1 -17 15 -29t31 -11t29.5 14t12.5 30z" />
    <glyph glyph-name="u" unicode="u" 
d="M-25 447h-333q-20 8 -20 28q0 5 2 10t4.5 7.5t7.5 7t7 7.5q34 37 84 40h122q3 -17 18 -29q16 -12 36 -9v58h72v-120zM-151 501q-1 7 -5 11.5t-11.5 6t-13.5 1.5t-17 -0.5t-15 -0.5h-11h-12.5h-11.5t-11 -1.5t-8 -3.5t-6 -6t-2 -9q0 -4 1 -7.5t3.5 -5.5t5 -3.5t7 -2.5
t8 -2t9 -1h8.5h9.5h8.5h7q14 0 21.5 0.5t17.5 2.5t14.5 7t3.5 14z" />
    <glyph glyph-name="v" unicode="v" horiz-adv-x="395" 
d="M372 0h-308v184q2 26 18 44t42 22q31 5 56.5 -15t24.5 -49q-1 -25 -18 -42.5t-43 -19.5v-62h148v224q0 16 -4 20q-6 6 -16 6h-172q-5 -12 -10 -18q-23 -28 -25 -25q-1 1 -1 3v78q3 16 12 26q11 14 28 18h184q24 3 46 -10q33 -18 38 -54v-330zM189 187q-1 20 -16.5 33
t-34.5 11q-37 -5 -40 -42q-2 -20 13 -35.5t35 -14.5q19 1 31.5 15t11.5 33z" />
    <glyph glyph-name="w" unicode="w" horiz-adv-x="305" 
d="M282 66q-1 -4 -3 -14.5t-3 -14t-4.5 -11t-9 -10.5t-15 -7t-22.5 -6q-25 -4 -44 15t-19 45v300l-27 -54l-123 231l123 -123l72 72h36v-360l11 -11q11 -10 21 -25t7 -27zM264 66q-1 17 -12 29t-27 13q-18 1 -31 -11.5t-14 -30.5q-1 -19 12 -33.5t30 -11.5q44 7 42 45z" />
    <glyph glyph-name="x" unicode="x" horiz-adv-x="460" 
d="M436 0h-291v230q0 8 -11.5 10t-25.5 3.5t-28 18.5t-18 51q-4 33 21.5 57t60.5 25t59.5 -23.5t24.5 -58.5v-230h126v375h82v-458zM206 316q1 25 -17.5 43.5t-44.5 18.5t-44.5 -18.5t-17.5 -43.5t19 -41.5t43 -16.5t43 16.5t19 41.5z" />
    <glyph glyph-name="y" unicode="y" 
d="M110 580l-40 -64q-14 -23 -65.5 -47.5t-98.5 -21.5q-49 3 -73 21q-41 30 -41 61q1 26 18 44t42 19q26 1 46.5 -18.5t17.5 -42.5q-1 -3 0 -6t3.5 -5.5t5 -3.5t6.5 -3.5t6 -3.5q26 -16 63 6q14 8 89 63q26 19 26 13q0 -3 -5 -11zM-98 532q0 19 -15 32t-35 12
q-19 -1 -32.5 -13.5t-13.5 -30.5t14.5 -31t33.5 -13t33.5 13t14.5 31z" />
    <glyph glyph-name="z" unicode="z" horiz-adv-x="395" 
d="M374 90q0 -41 -14 -60q-25 -33 -67 -30l-79 80l-79 -80q-34 4 -61 28q-32 28 -32 52v233q10 44 29 62.5t53 18.5t57.5 -23.5t24.5 -57.5t-24 -59t-60 -24v-115q0 -3 0.5 -8t2.5 -12t6 -7.5t11 4.5l76 75l74 -73v301h82v-305zM186 316q-1 26 -19 44.5t-43 17.5
q-24 -1 -40.5 -20t-15.5 -44q1 -24 16.5 -42.5t39.5 -19.5q26 -1 44.5 18t17.5 46z" />
    <glyph glyph-name="braceleft" unicode="{" horiz-adv-x="375" 
d="M376 433l-53 -66l27 -39v-214l-50 48q-3 5 -8 9.5t-10 14.5q-18 32 -88 16q-28 -6 -53.5 11t-26.5 45q-1 27 23.5 44.5t54.5 15.5q44 -2 62 -36l38 -75v109q0 8 -12 18q-5 4 -14 6.5t-14.5 2t-7.5 -0.5h-78q-10 3 -31 -1.5t-37 -10t-16 -6.5l-6 -6q-6 -7 -13.5 -17.5
t-10.5 -18.5q-10 48 24 84q29 31 74 28h113l34 -13l-13 52h92zM350 -23l-192 39q-22 -23 -54 -22q-27 1 -46 16t-20 40q-1 27 23 45.5t51 12.5q19 -4 39.5 -29t36.5 -31l118 -50v34h-36q-31 0 -55 14t-25 40t22.5 42t53.5 18q30 1 53 -15t31 -45v-109zM216 260
q-1 15 -12 25.5t-26 10.5t-26 -10.5t-12 -25.5q-1 -16 10.5 -28t27.5 -12t27.5 12t10.5 28zM308 88q0 16 -12.5 28t-29.5 10q-15 -2 -25.5 -12.5t-10.5 -25.5q0 -16 11 -26.5t27 -11.5t28 10.5t12 27.5zM140 52q0 16 -12 28t-28 12t-28 -12t-12 -28q0 -17 12.5 -29t29.5 -11
q16 1 27 12.5t11 27.5z" />
    <glyph glyph-name="bar" unicode="|" horiz-adv-x="657" 
d="M522 3q-24 0 -37.5 15.5t-13.5 34.5t13.5 34.5t37.5 15.5t37.5 -15.5t13.5 -34.5t-13.5 -34.5t-37.5 -15.5zM322 3q-24 0 -37.5 15.5t-13.5 34.5t13.5 34.5t37.5 15.5t37.5 -15.5t13.5 -34.5t-13.5 -34.5t-37.5 -15.5zM122 3q-24 0 -37.5 15.5t-13.5 34.5t13.5 34.5
t37.5 15.5t37.5 -15.5t13.5 -34.5t-13.5 -34.5t-37.5 -15.5z" />
    <glyph glyph-name="braceright" unicode="}" horiz-adv-x="455" 
d="M431 57q4 -34 -13 -45q-20 -16 -59 -13t-49 31l-87 83v-30q0 -34 -24 -58t-58 -25t-58.5 23t-25.5 59q-1 34 24 59.5t60 24.5v62q-35 -1 -60.5 24.5t-24.5 60.5t26 59t59 23t57.5 -24.5t24.5 -57.5v-114l87 -85q2 -4 15 -2.5t18 8.5q6 8 6 46v229h82v-338zM195 315
q0 22 -17 38t-40 16t-40 -16t-17 -38t17 -38t40 -16t40 16t17 38zM192 87q0 23 -16 39.5t-38 17.5q-24 1 -41.5 -17.5t-15.5 -42.5q2 -23 18.5 -39t38.5 -15t38 17.5t16 39.5z" />
    <glyph glyph-name="asciitilde" unicode="~" horiz-adv-x="365" 
d="M228 346q2 -47 -20 -116q-12 -36 -24 -60h-56q-13 28 -24 60q-23 72 -20 118q3 45 20 86h104q17 -43 20 -88zM210 74q1 -28 -10.5 -49.5t-35.5 -24.5q-26 -3 -43 20t-17 52t14.5 52t39.5 22q24 -1 37.5 -22.5t14.5 -49.5z" />
    <glyph glyph-name="nbspace" unicode="&#xa0;" horiz-adv-x="400" 
 />
    <glyph glyph-name="exclamdown" unicode="&#xa1;" horiz-adv-x="450" 
d="M392 51q-20 -21 -44 -34q-21 -12 -48 -17q20 15 28 35q9 22 4 45v145q-3 9 -8 12q-6 5 -12 7h-150q-7 -2 -14 -8q-6 -6 -8 -11v-145q1 -4 6 -9q6 -6 16 -6q24 -5 45 14.5t17 44.5q-1 10 -15.5 20t-14.5 20q0 17 13.5 29.5t30.5 12.5q13 0 21.5 -11.5t10.5 -20.5t6 -30
q8 -43 -28 -92q-26 -35 -40 -43q-11 -6 -24 -7q-20 -2 -58 18q-26 13 -46 33v203q21 21 44 33q26 13 44 17h140q20 -6 40 -17q25 -14 44 -33v-205zM258 172q-4 16 -22 16q-9 0 -16.5 -6.5t-7.5 -15.5q0 -10 8 -16.5t18 -5.5t16.5 9.5t3.5 18.5z" />
    <glyph glyph-name="cent" unicode="&#xa2;" horiz-adv-x="450" 
d="M456 472q-11 -73 -66.5 -150t-84.5 -79q-17 -1 -47.5 -1t-50 -1t-41.5 -5t-37 -14.5t-23 -27.5q-8 -16 -9 -36t1 -41.5t2 -28.5q-1 -13 11.5 -18t30.5 -6q48 -2 48 20q0 3 -26.5 21t-27.5 35q0 19 15.5 31t35 15.5t43.5 3.5q40 0 68.5 -11.5t27.5 -40.5q0 -16 -23 -34
t-23 -24t3.5 -9.5t11 -4.5t13 -1.5t14.5 -0.5q16 0 32.5 20.5t29.5 23.5q36 8 68 -8l-17.5 -6t-17.5 -6.5t-14 -8t-13 -13.5q-3 -4 -13.5 -21t-15 -22.5t-15.5 -13t-24 -9.5q-21 -4 -47 23t-45 29q-25 2 -59 -27t-59 -25q-39 7 -54 24q-19 22 -18 52v131q9 22 28 47
q20 27 85.5 41t134.5 9q30 -2 81.5 51t86.5 117zM306 138q0 36 -76 36q-73 0 -76 -34q-3 -24 22 -33.5t58 -8.5q72 2 72 40z" />
    <glyph glyph-name="sterling" unicode="&#xa3;" horiz-adv-x="450" 
d="M432 76q1 -30 -18 -52q-18 -21 -46 -24h-74q54 5 74 56q10 26 2 54v62q1 11 1 20.5t-8 19t-25 15.5q-41 18 -64 2q-2 -1 -7 -4t-7 -4.5t-6 -4t-6 -4.5t-5 -4.5t-5 -5l-4.5 -5.5t-4 -6.5t-3.5 -7.5q-5 9 -12 16t-12 10.5t-16.5 10l-16.5 9.5q-18 11 -55 -2
q-24 -24 -34.5 -36t-20.5 -33t-11 -47q5 32 27.5 54t54.5 21q33 -1 54.5 -28t21.5 -63q1 -38 -20.5 -66.5t-56.5 -28.5h-45q-29 3 -46 24q-19 24 -18 52v151q-1 9 4.5 30t17.5 31q19 16 42 16q35 4 70 -8q42 -15 72 -48q30 33 72 48q35 12 70 8q23 0 42 -16q12 -10 17.5 -31
t4.5 -30v-151zM184 96q0 27 -15.5 46.5t-40.5 19.5t-41 -21t-15 -49q1 -25 16 -44t38 -20q25 -1 41.5 19.5t16.5 48.5z" />
    <glyph glyph-name="currency" unicode="&#xa4;" horiz-adv-x="514" 
d="M475 183h-43v162l-51 -162h-47l-52 162v-162h-42v222h69l48 -153l50 153h68v-222zM218 368h-68v-185h-42v185h-69v37h179v-37z" />
    <glyph glyph-name="yen" unicode="&#xa5;" 
d="M74 694l-11 -32l-191 -69l21 30q-15 3 -27 12q-17 12 -18 30t12.5 31.5t32.5 13.5q18 0 30.5 -13t14.5 -32q4 -17 -6 -36l88 65h54zM110 550l-40 -64q-14 -23 -65.5 -47.5t-98.5 -21.5q-49 3 -73 21q-41 30 -41 61q1 26 18 44t42 19q26 1 46.5 -18.5t17.5 -42.5
q-1 -3 0 -6t3.5 -5.5t5 -3.5t6.5 -3.5t6 -3.5q26 -16 63 6q14 8 89 63q26 19 26 13q0 -3 -5 -11zM-74 666q1 15 -9.5 25.5t-25.5 10.5q-14 0 -24 -11t-9 -25q1 -12 11.5 -20t23.5 -8q30 0 33 28zM-98 502q0 19 -15 32t-35 12q-19 -1 -32.5 -13.5t-13.5 -30.5t14.5 -31
t33.5 -13t33.5 13t14.5 31z" />
    <glyph glyph-name="section" unicode="&#xa7;" horiz-adv-x="450" 
d="M392 51q-23 -24 -52 -37q-15 -6 -30.5 -9t-25.5 -3.5t-29.5 0t-30.5 0.5q-28 0 -51.5 -1t-45 8.5t-33.5 30.5q-30 51 6 106q32 49 74 48q33 -2 56 -26t16 -54q-7 -32 -47.5 -42.5t-62.5 12.5q41 -36 74 -36q44 0 70 5.5t52 26.5v145q-3 7 -8 12q-4 4 -12 7h-122
q-30 20 -50 44q-37 42 -51 84t-9 98q0 -79 58 -130q24 -22 58 -34h112q20 -6 40 -17q25 -14 44 -33v-205zM220 128q0 17 -14 28.5t-32 11.5t-31.5 -10.5t-14.5 -27.5q-1 -18 15 -31t35 -11q18 2 30 12.5t12 27.5z" />
    <glyph glyph-name="dieresis" unicode="&#xa8;" 
d="M-121 706l-82 -115h-63l23 76l-44 -24l-38 24l-24 -33q-1 -2 2 -1q12 2 14 1q30 -6 30 -30q0 -12 -8.5 -21t-20.5 -9q-6 0 -10.5 1.5t-9.5 8t-6 8.5l-6 12q-15 27 -2.5 63.5t40.5 31.5q10 -2 19 -19.5t20 -18.5t22 19t22 19q29 -4 33 -45q1 -12 -28 -49q-1 -2 0 -2l3 3
q-7 -14 8 0q8 7 29 29l22 22q9 7 33 31q26 26 26 24q0 -1 -4 -6zM-30 550l-40 -64q-14 -23 -65.5 -47.5t-98.5 -21.5q-49 3 -73 21q-41 30 -41 61q1 26 18 44t42 19q26 1 46.5 -18.5t17.5 -42.5q-1 -3 0 -6t3.5 -5.5t5 -3.5t6.5 -3.5t6 -3.5q26 -16 63 6q14 8 89 63
q26 19 26 13q0 -3 -5 -11zM-311 604q-2 20 -22 20q-19 0 -23 -18q-1 -10 6.5 -17t17.5 -7q21 2 21 22zM-238 502q0 19 -15 32t-35 12q-19 -1 -32.5 -13.5t-13.5 -30.5t14.5 -31t33.5 -13t33.5 13t14.5 31z" />
    <glyph glyph-name="copyright" unicode="&#xa9;" horiz-adv-x="419" 
d="M419 200q0 -87 -61.5 -148t-147.5 -61q-87 0 -148.5 61t-61.5 148q0 86 61.5 147.5t148.5 61.5q86 0 147.5 -61.5t61.5 -147.5zM381 200q0 70 -50.5 120.5t-120.5 50.5q-71 0 -121.5 -50t-50.5 -121t50.5 -121t121.5 -50q70 0 120.5 50.5t50.5 120.5zM315 160
q-9 -40 -36.5 -64.5t-68.5 -24.5q-52 0 -82 37t-30 92t30 92t82 37q41 0 68.5 -24.5t36.5 -64.5h-43q-15 46 -62 46q-35 0 -52 -24t-17 -62t17 -62t52 -24q47 0 62 46h43z" />
    <glyph glyph-name="ordfeminine" unicode="&#xaa;" horiz-adv-x="450" 
d="M380 470q7 -41 -20 -70q-24 -25 -59 -25h-119q-19 0 -36 -8.5t-19 -20.5q-3 -15 7.5 -26.5t25.5 -13.5h102q42 -9 74 -41q35 -35 43 -83q-18 39 -57 55q-28 11 -56 7h-122q-8 -3 -12 -7q-5 -5 -8 -12v-145q53 -43 122 -32q42 8 74 36q-22 -23 -62.5 -12.5t-47.5 42.5
q-7 30 16 54t56 26q42 1 74 -48q36 -55 6 -106q-12 -21 -33.5 -30.5t-45 -8.5t-51.5 1q-11 0 -30.5 -0.5t-29.5 0t-25.5 3.5t-30.5 9q-29 13 -52 37v205q-2 19 11 30q5 5 16.5 4.5t18 -2t7.5 0.5h-1q-1 0 -5 0.5t-7.5 2t-8.5 4.5t-9 7t-7.5 11t-5 15.5t-1.5 21t3 26.5
q7 37 73 37l138 -2q5 0 16.5 -0.5t16.5 -0.5t13.5 2t15.5 7q28 18 32 50zM328 126q1 18 -14 30.5t-34 11.5q-18 -1 -30.5 -11t-13.5 -27t12.5 -28t31.5 -12t32.5 9t15.5 27z" />
    <glyph glyph-name="guillemotleft" unicode="&#xab;" horiz-adv-x="305" 
d="M240 45l-87 75v62l87 75v-60l-57 -46l57 -46v-60zM139 45l-87 75v62l87 75v-60l-57 -46l57 -46v-60z" />
    <glyph glyph-name="logicalnot" unicode="&#xac;" 
d="M4 694l-11 -32l-191 -69l21 30q-15 3 -27 12q-17 12 -18 30t12.5 31.5t32.5 13.5q18 0 30.5 -13t14.5 -32q4 -17 -6 -36l88 65h54zM-91 587l-74 -61h-134q-14 -8 -20 -21q-8 -18 -1 -33h22l40 41q-6 -13 1 -25q7 -13 21 -16q4 19 18.5 30.5t34.5 10.5t34.5 -15t14.5 -34
q0 -21 -14 -36t-35 -16q-33 -1 -53 40q-6 13 -31 11q-13 -1 -13 -8q0 -1 1 -3l21 -40h-60q-18 0 -30 12t-12 29v73q0 20 15 32q12 9 27 9h167zM-144 666q1 15 -9.5 25.5t-25.5 10.5q-14 0 -24 -11t-9 -25q1 -12 11.5 -20t23.5 -8q30 0 33 28zM-148 464q0 15 -10 25t-25 11
t-26 -10t-11 -26t10.5 -26.5t25.5 -11.5t25.5 11.5t10.5 26.5z" />
    <glyph glyph-name="registered" unicode="&#xae;" horiz-adv-x="419" 
d="M419 200q0 -87 -61.5 -148t-147.5 -61q-87 0 -148.5 61t-61.5 148q0 86 61.5 147.5t148.5 61.5q86 0 147.5 -61.5t61.5 -147.5zM381 200q0 70 -50.5 120.5t-120.5 50.5q-71 0 -121.5 -50t-50.5 -121t50.5 -121t121.5 -50q70 0 120.5 50.5t50.5 120.5zM302 242
q0 -51 -45 -68l33 -82h-43l-30 79h-36v-79h-42v220h94q30 0 49.5 -19.5t19.5 -50.5zM260 242q0 15 -9 24.5t-23 9.5h-47v-69h47q14 0 23 10t9 25z" />
    <glyph glyph-name="macron" unicode="&#xaf;" horiz-adv-x="400" 
d="M410 -77h-420v30h420v-30z" />
    <glyph glyph-name="macron" unicode="&#x2c9;" horiz-adv-x="400" 
d="M410 -77h-420v30h420v-30z" />
    <glyph glyph-name="degree" unicode="&#xb0;" 
d="M-33 712l-82 -115h-63l23 76l-44 -24l-38 24l-24 -33q-1 -2 2 -1q12 2 14 1q30 -6 30 -30q0 -12 -8.5 -21t-20.5 -9q-6 0 -10.5 1.5t-9.5 8t-6 8.5l-6 12q-15 27 -2.5 63.5t40.5 31.5q10 -2 19 -19.5t20 -18.5t22 19t22 19q29 -4 33 -45q1 -12 -28 -49q-1 -2 0 -2l3 3
q-7 -14 8 0q8 7 29 29l22 22q9 7 33 31q26 26 26 24q0 -1 -4 -6zM-125 447h-333q-20 8 -20 28q0 5 2 10t4.5 7.5t7.5 7t7 7.5q34 37 84 40h122q47 -8 84 -41q28 -25 42 -59zM-223 610q-2 20 -22 20q-19 0 -23 -18q-1 -10 6.5 -17t17.5 -7q21 2 21 22zM-251 499q0 23 -56 20
h-6h-11.5t-13 -0.5t-11.5 -1t-11 -2.5t-8.5 -4t-6 -6.5t-0.5 -9.5q1 -7 5 -11.5t11.5 -5.5t13 -1t17 1t15.5 1q8 1 16 0.5t16.5 0t15 2t10.5 6t4 11.5z" />
    <glyph glyph-name="plusminus" unicode="&#xb1;" 
d="M74 694l-11 -32l-191 -69l21 30q-15 3 -27 12q-17 12 -18 30t12.5 31.5t32.5 13.5q18 0 30.5 -13t14.5 -32q4 -17 -6 -36l88 65h54zM-25 447h-333q-20 8 -20 28q0 5 2 10t4.5 7.5t7.5 7t7 7.5q34 37 84 40h122q47 -8 84 -41q28 -25 42 -59zM-74 666q1 15 -9.5 25.5
t-25.5 10.5q-14 0 -24 -11t-9 -25q1 -12 11.5 -20t23.5 -8q30 0 33 28zM-151 499q0 23 -56 20h-6h-11.5t-13 -0.5t-11.5 -1t-11 -2.5t-8.5 -4t-6 -6.5t-0.5 -9.5q1 -7 5 -11.5t11.5 -5.5t13 -1t17 1t15.5 1q8 1 16 0.5t16.5 0t15 2t10.5 6t4 11.5z" />
    <glyph glyph-name="acute" unicode="&#xb4;" 
d="M-33 712l-82 -115h-63l23 76l-44 -24l-38 24l-24 -33q-1 -2 2 -1q12 2 14 1q30 -6 30 -30q0 -12 -8.5 -21t-20.5 -9q-6 0 -10.5 1.5t-9.5 8t-6 8.5l-6 12q-15 27 -2.5 63.5t40.5 31.5q10 -2 19 -19.5t20 -18.5t22 19t22 19q29 -4 33 -45q1 -12 -28 -49q-1 -2 0 -2l3 3
q-7 -14 8 0q8 7 29 29l22 22q9 7 33 31q26 26 26 24q0 -1 -4 -6zM-125 447h-355q-20 8 -20 28q0 5 2 10t4.5 7.5t7.5 7t7 7.5q34 37 84 40h100q1 -10 9 -18t17 -9v50h61v-65h22v65h61v-123zM-223 610q-2 20 -22 20q-19 0 -23 -18q-1 -10 6.5 -17t17.5 -7q21 2 21 22z
M-293 499q0 7 -4 11.5t-12 6t-13.5 2t-18 0t-15.5 -0.5h-11h-12.5h-11t-10.5 -1.5t-8 -3.5t-6 -6t-2 -9t2 -9t6 -6t7.5 -3.5t10.5 -2t11 -0.5h12h11h11.5h13t11.5 0.5t11.5 2t8.5 4t6.5 6.5t1.5 9z" />
    <glyph glyph-name="mu" unicode="&#xb5;" 
d="M110 694l-11 -32l-191 -69l21 30q-15 3 -27 12q-17 12 -18 30t12.5 31.5t32.5 13.5q18 0 30.5 -13t14.5 -32q4 -17 -6 -36l88 65h54zM-17 504q2 -23 -13.5 -40t-37.5 -17t-37.5 17t-13.5 40q2 21 16 36t35 15t35 -15t16 -36zM-38 666q1 15 -9.5 25.5t-25.5 10.5
q-14 0 -24 -11t-9 -25q1 -12 11.5 -20t23.5 -8q30 0 33 28zM-35 504q-1 14 -10.5 23t-22.5 10q-14 1 -24.5 -9t-11.5 -24q-1 -15 10 -26t26 -10q14 1 24 11.5t9 24.5z" />
    <glyph glyph-name="mu" unicode="&#x3bc;" 
d="M110 694l-11 -32l-191 -69l21 30q-15 3 -27 12q-17 12 -18 30t12.5 31.5t32.5 13.5q18 0 30.5 -13t14.5 -32q4 -17 -6 -36l88 65h54zM-17 504q2 -23 -13.5 -40t-37.5 -17t-37.5 17t-13.5 40q2 21 16 36t35 15t35 -15t16 -36zM-38 666q1 15 -9.5 25.5t-25.5 10.5
q-14 0 -24 -11t-9 -25q1 -12 11.5 -20t23.5 -8q30 0 33 28zM-35 504q-1 14 -10.5 23t-22.5 10q-14 1 -24.5 -9t-11.5 -24q-1 -15 10 -26t26 -10q14 1 24 11.5t9 24.5z" />
    <glyph glyph-name="paragraph" unicode="&#xb6;" horiz-adv-x="450" 
d="M434 226q3 -39 2.5 -76t-10.5 -74q-1 -5 -3 -14t-3 -14t-4 -11.5t-8 -12.5q-18 -21 -46 -24h-74q54 5 74 56q10 26 2 54v62q1 11 1 20.5t-8 19t-25 15.5q-41 18 -64 2q-2 -1 -7 -4t-7 -4.5t-6 -4t-6 -4.5t-5 -4.5t-5 -5l-4.5 -5.5t-4 -6.5t-3.5 -7.5q-5 9 -12 16
t-12 10.5t-16.5 10l-16.5 9.5q-18 11 -55 -2q-23 -23 -34 -36t-21 -34t-11 -46q5 33 28 54.5t54 20.5q33 -1 54.5 -28t21.5 -63q1 -38 -20.5 -66.5t-56.5 -28.5h-45q-29 3 -46 24q-19 24 -18 52v151q-1 9 4.5 30t17.5 31q19 16 42 16q35 4 70 -8q42 -15 72 -48q30 33 72 48
q35 12 70 8q16 27 2 54q-15 30 -48 30q71 3 108 -58q9 -16 11.5 -31t0.5 -38t-2 -35zM178 96q0 26 -15 45.5t-39 20.5q-27 1 -43.5 -22t-14.5 -52q2 -25 17.5 -42.5t38.5 -17.5q24 0 40 20.5t16 47.5z" />
    <glyph glyph-name="periodcentered" unicode="&#xb7;" 
d="M-107 624h-30v-19h-45v19h-33v47h33v18h45v-18h30v-47zM-125 447h-333q-20 8 -20 28q0 5 2 10t4.5 7.5t7.5 7t7 7.5q34 37 84 40h122q3 -17 18 -29q16 -12 36 -9v58h72v-120zM-251 501q-1 7 -5 11.5t-11.5 6t-13.5 1.5t-17 -0.5t-15 -0.5h-11h-12.5h-11.5t-11 -1.5
t-8 -3.5t-6 -6t-2 -9q0 -4 1 -7.5t3.5 -5.5t5 -3.5t7 -2.5t8 -2t9 -1h8.5h9.5h8.5h7q14 0 21.5 0.5t17.5 2.5t14.5 7t3.5 14z" />
    <glyph glyph-name="periodcentered" unicode="&#x2219;" 
d="M-107 624h-30v-19h-45v19h-33v47h33v18h45v-18h30v-47zM-125 447h-333q-20 8 -20 28q0 5 2 10t4.5 7.5t7.5 7t7 7.5q34 37 84 40h122q3 -17 18 -29q16 -12 36 -9v58h72v-120zM-251 501q-1 7 -5 11.5t-11.5 6t-13.5 1.5t-17 -0.5t-15 -0.5h-11h-12.5h-11.5t-11 -1.5
t-8 -3.5t-6 -6t-2 -9q0 -4 1 -7.5t3.5 -5.5t5 -3.5t7 -2.5t8 -2t9 -1h8.5h9.5h8.5h7q14 0 21.5 0.5t17.5 2.5t14.5 7t3.5 14z" />
    <glyph glyph-name="ordmasculine" unicode="&#xba;" horiz-adv-x="450" 
d="M392 51q-19 -20 -44 -34q-20 -11 -40 -17h-140q-17 6 -42 20t-46 33v203q21 21 44 33q26 13 44 17h140q20 -6 40 -17q25 -14 44 -33v-205zM332 80v145q-3 9 -8 12q-6 5 -12 7h-150q-7 -2 -14 -8q-6 -6 -8 -11v-145q2 -6 6 -9q8 -6 16 -6h146q7 0 16 6q6 4 8 9z" />
    <glyph glyph-name="guillemotright" unicode="&#xbb;" horiz-adv-x="305" 
d="M245 120l-86 -75v60l56 46l-56 46v60l86 -75v-62zM144 120l-86 -75v60l56 46l-56 46v60l86 -75v-62z" />
    <glyph glyph-name="questiondown" unicode="&#xbf;" 
d="M-10 694l-11 -32l-191 -69l21 30q-15 3 -27 12q-17 12 -18 30t12.5 31.5t32.5 13.5q18 0 30.5 -13t14.5 -32q4 -17 -6 -36l88 65h54zM-137 504q2 -23 -13.5 -40t-37.5 -17t-37.5 17t-13.5 40q2 21 16 36t35 15t35 -15t16 -36zM-158 666q1 15 -9.5 25.5t-25.5 10.5
q-14 0 -24 -11t-9 -25q1 -12 11.5 -20t23.5 -8q30 0 33 28zM-155 504q-1 14 -10 23t-23 10t-24.5 -9t-11.5 -24q-1 -15 10 -26t26 -10q14 1 24 11.5t9 24.5z" />
    <glyph glyph-name="Agrave" unicode="&#xc0;" 
d="M-31 604h-53v90h53v-90zM-21 587l-74 -61h-134q-14 -8 -20 -21q-8 -18 -1 -33h22l40 41q-6 -13 1 -25q7 -13 21 -16q4 19 18.5 30.5t34.5 10.5t34.5 -15t14.5 -34q0 -21 -14 -36t-35 -16q-33 -1 -53 40q-6 13 -31 11q-13 -1 -13 -8q0 -1 1 -3l21 -40h-60q-18 0 -30 12
t-12 29v73q0 20 15 32q12 9 27 9h167zM-78 464q0 15 -10 25t-25 11t-26 -10t-11 -26t10.5 -26.5t25.5 -11.5t25.5 11.5t10.5 26.5z" />
    <glyph glyph-name="Aacute" unicode="&#xc1;" 
d="M78 715l-24 -46l-99 -8q-5 -2 -4.5 -4.5t2.5 -8t1 -8.5q-4 -47 -28 -55q-18 -6 -35 1t-24 24q-8 18 1 37.5t25 25.5q47 11 69 2zM-25 447h-333q-20 8 -20 28q0 5 2 10t4.5 7.5t7.5 7t7 7.5q34 37 84 40h122q47 -8 84 -41q28 -25 42 -59zM-64 619q4 10 -1.5 19.5
t-16.5 13.5q-11 5 -22 0.5t-15 -16.5q-8 -23 17 -35q12 -4 23.5 1t14.5 17zM-151 499q0 23 -56 20h-6h-11.5t-13 -0.5t-11.5 -1t-11 -2.5t-8.5 -4t-6 -6.5t-0.5 -9.5q1 -7 5 -11.5t11.5 -5.5t13 -1t17 1t15.5 1q8 1 16 0.5t16.5 0t15 2t10.5 6t4 11.5z" />
    <glyph glyph-name="Acircumflex" unicode="&#xc2;" 
d="M-129 624h-30v-19h-45v19h-33v47h33v18h45v-18h30v-47zM-91 587l-74 -61h-134q-14 -8 -20 -21q-8 -18 -1 -33h22l40 41q-6 -13 1 -25q7 -13 21 -16q4 19 18.5 30.5t34.5 10.5t34.5 -15t14.5 -34q0 -21 -14 -36t-35 -16q-33 -1 -53 40q-6 13 -31 11q-13 -1 -13 -8
q0 -1 1 -3l21 -40h-60q-18 0 -30 12t-12 29v73q0 20 15 32q12 9 27 9h167zM-148 464q0 15 -10 25t-25 11t-26 -10t-11 -26t10.5 -26.5t25.5 -11.5t25.5 11.5t10.5 26.5z" />
    <glyph glyph-name="Atilde" unicode="&#xc3;" 
d="M-141 604h-53v90h53v-90zM-102 508q-1 -26 -20 -44t-45 -17h-39h-253q-20 8 -20 28q0 5 2 10t4.5 7.5t7.5 7t7 7.5q34 37 84 40h42q3 -27 32 -41t52 0q17 10 24 30q18 36 58 36q26 0 45.5 -19t18.5 -45zM-127 512q0 16 -11.5 27t-27.5 12q-18 1 -32 -11.5t-13 -30.5
q1 -16 13.5 -26t28.5 -10q17 0 29.5 11.5t12.5 27.5zM-319 488q0 17 -22.5 20t-41.5 0h-8.5h-9.5h-9t-9 -1t-8 -2t-7.5 -2.5t-5 -3.5t-3.5 -5.5t-1 -7.5q0 -7 3.5 -11.5t11.5 -6t13.5 -2t17.5 0t15 0.5h11.5h13h11.5t11 1.5t8.5 4t6.5 6.5t2 9z" />
    <glyph glyph-name="Adieresis" unicode="&#xc4;" 
d="M-2 508q-1 -26 -20 -44t-45 -17h-39h-253q-20 8 -20 28q0 5 2 10t4.5 7.5t7.5 7t7 7.5q34 37 84 40h42q3 -27 32 -41t52 0q17 10 24 30q18 36 58 36q26 0 45.5 -19t18.5 -45zM-27 512q0 16 -11.5 27t-27.5 12q-18 1 -32 -11.5t-13 -30.5q1 -16 13.5 -26t28.5 -10
q17 0 29.5 11.5t12.5 27.5zM-219 488q0 17 -22.5 20t-41.5 0h-8.5h-9.5h-9t-9 -1t-8 -2t-7.5 -2.5t-5 -3.5t-3.5 -5.5t-1 -7.5q0 -7 3.5 -11.5t11.5 -6t13.5 -2t17.5 0t15 0.5h11.5h13h11.5t11 1.5t8.5 4t6.5 6.5t2 9z" />
    <glyph glyph-name="Aring" unicode="&#xc5;" 
d="M-25 447h-333q-20 8 -20 28q0 5 2 10t4.5 7.5t7.5 7t7 7.5q34 37 84 40h122q47 -8 84 -41q28 -25 42 -59zM-151 499q0 23 -56 20h-6h-11.5t-13 -0.5t-11.5 -1t-11 -2.5t-8.5 -4t-6 -6.5t-0.5 -9.5q1 -7 5 -11.5t11.5 -5.5t13 -1t17 1t15.5 1q8 1 16 0.5t16.5 0t15 2
t10.5 6t4 11.5z" />
    <glyph glyph-name="AE" unicode="&#xc6;" 
d="M-3 712l-82 -115h-63l23 76l-44 -24l-38 24l-24 -33q-1 -2 2 -1q12 2 14 1q30 -6 30 -30q0 -12 -8.5 -21t-20.5 -9q-6 0 -10.5 1.5t-9.5 8t-6 8.5l-6 12q-15 27 -2.5 63.5t40.5 31.5q10 -2 19 -19.5t20 -18.5t22 19t22 19q29 -4 33 -45q1 -12 -28 -49q-1 -2 0 -2l3 3
q-7 -14 8 0q8 7 29 29l22 22q9 7 33 31q26 26 26 24q0 -1 -4 -6zM-91 587l-74 -61h-134q-14 -8 -20 -21q-8 -18 -1 -33h22l40 41q-6 -13 1 -25q7 -13 21 -16q4 19 18.5 30.5t34.5 10.5t34.5 -15t14.5 -34q0 -21 -14 -36t-35 -16q-33 -1 -53 40q-6 13 -31 11q-13 -1 -13 -8
q0 -1 1 -3l21 -40h-60q-18 0 -30 12t-12 29v73q0 20 15 32q12 9 27 9h167zM-193 610q-2 20 -22 20q-19 0 -23 -18q-1 -10 6.5 -17t17.5 -7q21 2 21 22zM-148 464q0 15 -10 25t-25 11t-26 -10t-11 -26t10.5 -26.5t25.5 -11.5t25.5 11.5t10.5 26.5z" />
    <glyph glyph-name="Ccedilla" unicode="&#xc7;" 
d="M-25 447h-333q-20 8 -20 28q0 5 2 10t4.5 7.5t7.5 7t7 7.5q34 37 84 40h122q3 -17 18 -29q16 -12 36 -9v58h72v-120zM-151 501q-1 7 -5 11.5t-11.5 6t-13.5 1.5t-17 -0.5t-15 -0.5h-11h-12.5h-11.5t-11 -1.5t-8 -3.5t-6 -6t-2 -9q0 -4 1 -7.5t3.5 -5.5t5 -3.5t7 -2.5
t8 -2t9 -1h8.5h9.5h8.5h7q14 0 21.5 0.5t17.5 2.5t14.5 7t3.5 14z" />
    <glyph glyph-name="Egrave" unicode="&#xc8;" 
d="M78 715l-24 -46l-99 -8q-5 -2 -4.5 -4.5t2.5 -8t1 -8.5q-4 -47 -28 -55q-18 -6 -35 1t-24 24q-8 18 1 37.5t25 25.5q47 11 69 2zM-25 447h-355q-20 8 -20 28q0 5 2 10t4.5 7.5t7.5 7t7 7.5q34 37 84 40h100q1 -10 9 -18t17 -9v50h61v-65h22v65h61v-123zM-64 619
q4 10 -1.5 19.5t-16.5 13.5q-11 5 -22 0.5t-15 -16.5q-8 -23 17 -35q12 -4 23.5 1t14.5 17zM-193 499q0 7 -4 11.5t-12 6t-13.5 2t-18 0t-15.5 -0.5h-11h-12.5h-11t-10.5 -1.5t-8 -3.5t-6 -6t-2 -9t2 -9t6 -6t7.5 -3.5t10.5 -2t11 -0.5h12h11h11.5h13t11.5 0.5t11.5 2t8.5 4
t6.5 6.5t1.5 9z" />
    <glyph glyph-name="Eacute" unicode="&#xc9;" 
d="M-25 447h-355q-20 8 -20 28q0 5 2 10t4.5 7.5t7.5 7t7 7.5q34 37 84 40h100q1 -10 9 -18t17 -9v50h61v-65h22v65h61v-123zM-193 499q0 7 -4 11.5t-12 6t-13.5 2t-18 0t-15.5 -0.5h-11h-12.5h-11t-10.5 -1.5t-8 -3.5t-6 -6t-2 -9t2 -9t6 -6t7.5 -3.5t10.5 -2t11 -0.5h12
h11h11.5h13t11.5 0.5t11.5 2t8.5 4t6.5 6.5t1.5 9z" />
    <glyph glyph-name="Ecircumflex" unicode="&#xca;" 
d="M100 715l-24 -46l-99 -8q-5 -2 -4.5 -4.5t2.5 -8t1 -8.5q-4 -47 -28 -55q-18 -6 -35 1t-24 24q-8 18 1 37.5t25 25.5q47 11 69 2zM-2 508q-1 -26 -20 -44t-45 -17h-39h-253q-20 8 -20 28q0 5 2 10t4.5 7.5t7.5 7t7 7.5q34 37 84 40h42q3 -27 32 -41t52 0q17 10 24 30
q18 36 58 36q26 0 45.5 -19t18.5 -45zM-42 619q4 10 -1.5 19.5t-16.5 13.5q-11 5 -22 0.5t-15 -16.5q-8 -23 17 -35q12 -4 23.5 1t14.5 17zM-27 512q0 16 -11.5 27t-27.5 12q-18 1 -32 -11.5t-13 -30.5q1 -16 13.5 -26t28.5 -10q17 0 29.5 11.5t12.5 27.5zM-219 488
q0 17 -22.5 20t-41.5 0h-8.5h-9.5h-9t-9 -1t-8 -2t-7.5 -2.5t-5 -3.5t-3.5 -5.5t-1 -7.5q0 -7 3.5 -11.5t11.5 -6t13.5 -2t17.5 0t15 0.5h11.5h13h11.5t11 1.5t8.5 4t6.5 6.5t2 9z" />
    <glyph glyph-name="Edieresis" unicode="&#xcb;" 
d="M78 715l-24 -46l-99 -8q-5 -2 -4.5 -4.5t2.5 -8t1 -8.5q-4 -47 -28 -55q-18 -6 -35 1t-24 24q-8 18 1 37.5t25 25.5q47 11 69 2zM-25 447h-333q-20 8 -20 28q0 5 2 10t4.5 7.5t7.5 7t7 7.5q34 37 84 40h122q3 -17 18 -29q16 -12 36 -9v58h72v-120zM-64 619
q4 10 -1.5 19.5t-16.5 13.5q-11 5 -22 0.5t-15 -16.5q-8 -23 17 -35q12 -4 23.5 1t14.5 17zM-151 501q-1 7 -5 11.5t-11.5 6t-13.5 1.5t-17 -0.5t-15 -0.5h-11h-12.5h-11.5t-11 -1.5t-8 -3.5t-6 -6t-2 -9q0 -4 1 -7.5t3.5 -5.5t5 -3.5t7 -2.5t8 -2t9 -1h8.5h9.5h8.5h7
q14 0 21.5 0.5t17.5 2.5t14.5 7t3.5 14z" />
    <glyph glyph-name="Igrave" unicode="&#xcc;" 
d="M0 715l-24 -46l-99 -8q-5 -2 -4.5 -4.5t2.5 -8t1 -8.5q-4 -47 -28 -55q-18 -6 -35 1t-24 24q-8 18 1 37.5t25 25.5q47 11 69 2zM-102 508q-1 -26 -20 -44t-45 -17h-39h-253q-20 8 -20 28q0 5 2 10t4.5 7.5t7.5 7t7 7.5q34 37 84 40h42q3 -27 32 -41t52 0q17 10 24 30
q18 36 58 36q26 0 45.5 -19t18.5 -45zM-142 619q4 10 -1.5 19.5t-16.5 13.5q-11 5 -22 0.5t-15 -16.5q-8 -23 17 -35q12 -4 23.5 1t14.5 17zM-127 512q0 16 -11.5 27t-27.5 12q-18 1 -32 -11.5t-13 -30.5q1 -16 13.5 -26t28.5 -10q17 0 29.5 11.5t12.5 27.5zM-319 488
q0 17 -22.5 20t-41.5 0h-8.5h-9.5h-9t-9 -1t-8 -2t-7.5 -2.5t-5 -3.5t-3.5 -5.5t-1 -7.5q0 -7 3.5 -11.5t11.5 -6t13.5 -2t17.5 0t15 0.5h11.5h13h11.5t11 1.5t8.5 4t6.5 6.5t2 9z" />
    <glyph glyph-name="Iacute" unicode="&#xcd;" 
d="M78 715l-24 -46l-99 -8q-5 -2 -4.5 -4.5t2.5 -8t1 -8.5q-4 -47 -28 -55q-18 -6 -35 1t-24 24q-8 18 1 37.5t25 25.5q47 11 69 2zM110 550l-40 -64q-14 -23 -65.5 -47.5t-98.5 -21.5q-49 3 -73 21q-41 30 -41 61q1 26 18 44t42 19q26 1 46.5 -18.5t17.5 -42.5q-1 -3 0 -6
t3.5 -5.5t5 -3.5t6.5 -3.5t6 -3.5q26 -16 63 6q14 8 89 63q26 19 26 13q0 -3 -5 -11zM-64 619q4 10 -1.5 19.5t-16.5 13.5q-11 5 -22 0.5t-15 -16.5q-8 -23 17 -35q12 -4 23.5 1t14.5 17zM-98 502q0 19 -15 32t-35 12q-19 -1 -32.5 -13.5t-13.5 -30.5t14.5 -31t33.5 -13
t33.5 13t14.5 31z" />
    <glyph glyph-name="Icircumflex" unicode="&#xce;" 
d="M98 715l-24 -46l-99 -8q-5 -2 -4.5 -4.5t2.5 -8t1 -8.5q-4 -47 -28 -55q-18 -6 -35 1t-24 24q-8 18 1 37.5t25 25.5q47 11 69 2zM-17 504q2 -23 -13.5 -40t-37.5 -17t-37.5 17t-13.5 40q2 21 16 36t35 15t35 -15t16 -36zM-44 619q4 10 -1.5 19.5t-16.5 13.5
q-11 5 -22 0.5t-15 -16.5q-8 -23 17 -35q12 -4 23.5 1t14.5 17zM-35 504q-1 14 -10.5 23t-22.5 10q-14 1 -24.5 -9t-11.5 -24q-1 -15 10 -26t26 -10q14 1 24 11.5t9 24.5z" />
    <glyph glyph-name="Idieresis" unicode="&#xcf;" 
d="M84 715l-24 -46l-99 -8q-5 -2 -4.5 -4.5t2.5 -8t1 -8.5q-4 -47 -28 -55q-18 -6 -35 1t-24 24q-8 18 1 37.5t25 25.5q47 11 69 2zM-21 587l-74 -61h-134q-14 -8 -20 -21q-8 -18 -1 -33h22l40 41q-6 -13 1 -25q7 -13 21 -16q4 19 18.5 30.5t34.5 10.5t34.5 -15t14.5 -34
q0 -21 -14 -36t-35 -16q-33 -1 -53 40q-6 13 -31 11q-13 -1 -13 -8q0 -1 1 -3l21 -40h-60q-18 0 -30 12t-12 29v73q0 20 15 32q12 9 27 9h167zM-58 619q4 10 -1.5 19.5t-16.5 13.5q-11 5 -22 0.5t-15 -16.5q-8 -23 17 -35q12 -4 23.5 1t14.5 17zM-78 464q0 15 -10 25t-25 11
t-26 -10t-11 -26t10.5 -26.5t25.5 -11.5t25.5 11.5t10.5 26.5z" />
    <glyph glyph-name="Ntilde" unicode="&#xd1;" 
d="M110 550l-40 -64q-14 -23 -65.5 -47.5t-98.5 -21.5q-49 3 -73 21q-41 30 -41 61q1 26 18 44t42 19q26 1 46.5 -18.5t17.5 -42.5q-1 -3 0 -6t3.5 -5.5t5 -3.5t6.5 -3.5t6 -3.5q26 -16 63 6q14 8 89 63q26 19 26 13q0 -3 -5 -11zM-98 502q0 19 -15 32t-35 12
q-19 -1 -32.5 -13.5t-13.5 -30.5t14.5 -31t33.5 -13t33.5 13t14.5 31z" />
    <glyph glyph-name="Ograve" unicode="&#xd2;" 
d="M-62 715l-24 -46l-99 -8q-5 -2 -4.5 -4.5t2.5 -8t1 -8.5q-4 -47 -28 -55q-18 -6 -35 1t-24 24q-8 18 1 37.5t25 25.5q47 11 69 2zM-30 550l-40 -64q-14 -23 -65.5 -47.5t-98.5 -21.5q-49 3 -73 21q-41 30 -41 61q1 26 18 44t42 19q26 1 46.5 -18.5t17.5 -42.5q-1 -3 0 -6
t3.5 -5.5t5 -3.5t6.5 -3.5t6 -3.5q26 -16 63 6q14 8 89 63q26 19 26 13q0 -3 -5 -11zM-204 619q4 10 -1.5 19.5t-16.5 13.5q-11 5 -22 0.5t-15 -16.5q-8 -23 17 -35q12 -4 23.5 1t14.5 17zM-238 502q0 19 -15 32t-35 12q-19 -1 -32.5 -13.5t-13.5 -30.5t14.5 -31t33.5 -13
t33.5 13t14.5 31z" />
    <glyph glyph-name="Oacute" unicode="&#xd3;" 
d="M-22 715l-24 -46l-99 -8q-5 -2 -4.5 -4.5t2.5 -8t1 -8.5q-4 -47 -28 -55q-18 -6 -35 1t-24 24q-8 18 1 37.5t25 25.5q47 11 69 2zM-125 447h-333q-20 8 -20 28q0 5 2 10t4.5 7.5t7.5 7t7 7.5q34 37 84 40h122q47 -8 84 -41q28 -25 42 -59zM-164 619q4 10 -1.5 19.5
t-16.5 13.5q-11 5 -22 0.5t-15 -16.5q-8 -23 17 -35q12 -4 23.5 1t14.5 17zM-251 499q0 23 -56 20h-6h-11.5t-13 -0.5t-11.5 -1t-11 -2.5t-8.5 -4t-6 -6.5t-0.5 -9.5q1 -7 5 -11.5t11.5 -5.5t13 -1t17 1t15.5 1q8 1 16 0.5t16.5 0t15 2t10.5 6t4 11.5z" />
    <glyph glyph-name="Ocircumflex" unicode="&#xd4;" 
d="M-22 715l-24 -46l-99 -8q-5 -2 -4.5 -4.5t2.5 -8t1 -8.5q-4 -47 -28 -55q-18 -6 -35 1t-24 24q-8 18 1 37.5t25 25.5q47 11 69 2zM-125 447h-333q-20 8 -20 28q0 5 2 10t4.5 7.5t7.5 7t7 7.5q34 37 84 40h122q3 -17 18 -29q16 -12 36 -9v58h72v-120zM-164 619
q4 10 -1.5 19.5t-16.5 13.5q-11 5 -22 0.5t-15 -16.5q-8 -23 17 -35q12 -4 23.5 1t14.5 17zM-251 501q-1 7 -5 11.5t-11.5 6t-13.5 1.5t-17 -0.5t-15 -0.5h-11h-12.5h-11.5t-11 -1.5t-8 -3.5t-6 -6t-2 -9q0 -4 1 -7.5t3.5 -5.5t5 -3.5t7 -2.5t8 -2t9 -1h8.5h9.5h8.5h7
q14 0 21.5 0.5t17.5 2.5t14.5 7t3.5 14z" />
    <glyph glyph-name="Otilde" unicode="&#xd5;" 
d="M-131 604h-53v90h53v-90zM-125 447h-333q-20 8 -20 28q0 5 2 10t4.5 7.5t7.5 7t7 7.5q34 37 84 40h122q47 -8 84 -41q28 -25 42 -59zM-251 499q0 23 -56 20h-6h-11.5t-13 -0.5t-11.5 -1t-11 -2.5t-8.5 -4t-6 -6.5t-0.5 -9.5q1 -7 5 -11.5t11.5 -5.5t13 -1t17 1t15.5 1
q8 1 16 0.5t16.5 0t15 2t10.5 6t4 11.5z" />
    <glyph glyph-name="Odieresis" unicode="&#xd6;" 
d="M-17 504q2 -23 -13.5 -40t-37.5 -17t-37.5 17t-13.5 40q2 21 16 36t35 15t35 -15t16 -36zM-35 504q-1 14 -10.5 23t-22.5 10q-14 1 -24.5 -9t-11.5 -24q-1 -15 10 -26t26 -10q14 1 24 11.5t9 24.5z" />
    <glyph glyph-name="Oslash" unicode="&#xd8;" 
d="M110 694l-11 -32l-191 -69l21 30q-15 3 -27 12q-17 12 -18 30t12.5 31.5t32.5 13.5q18 0 30.5 -13t14.5 -32q4 -17 -6 -36l88 65h54zM-2 508q-1 -26 -20 -44t-45 -17h-39h-253q-20 8 -20 28q0 5 2 10t4.5 7.5t7.5 7t7 7.5q34 37 84 40h42q3 -27 32 -41t52 0q17 10 24 30
q18 36 58 36q26 0 45.5 -19t18.5 -45zM-38 666q1 15 -9.5 25.5t-25.5 10.5q-14 0 -24 -11t-9 -25q1 -12 11.5 -20t23.5 -8q30 0 33 28zM-27 512q0 16 -11.5 27t-27.5 12q-18 1 -32 -11.5t-13 -30.5q1 -16 13.5 -26t28.5 -10q17 0 29.5 11.5t12.5 27.5zM-219 488
q0 17 -22.5 20t-41.5 0h-8.5h-9.5h-9t-9 -1t-8 -2t-7.5 -2.5t-5 -3.5t-3.5 -5.5t-1 -7.5q0 -7 3.5 -11.5t11.5 -6t13.5 -2t17.5 0t15 0.5h11.5h13h11.5t11 1.5t8.5 4t6.5 6.5t2 9z" />
    <glyph glyph-name="Ugrave" unicode="&#xd9;" 
d="M-24 -215h-204v54q-24 8 -32 17.5t-10 38.5q-2 25 16 43.5t44 19.5t45 -18t18 -45v-60h45v123h78v-173zM-168 -102q2 19 -10.5 33t-31.5 15t-32.5 -14.5t-11.5 -35.5q2 -18 14.5 -29.5t29.5 -10.5t28.5 13t13.5 29z" />
    <glyph glyph-name="Uacute" unicode="&#xda;" 
d="M-22 715l-24 -46l-99 -8q-5 -2 -4.5 -4.5t2.5 -8t1 -8.5q-4 -47 -28 -55q-18 -6 -35 1t-24 24q-8 18 1 37.5t25 25.5q47 11 69 2zM-137 504q2 -23 -13.5 -40t-37.5 -17t-37.5 17t-13.5 40q2 21 16 36t35 15t35 -15t16 -36zM-164 619q4 10 -1.5 19.5t-16.5 13.5
q-11 5 -22 0.5t-15 -16.5q-8 -23 17 -35q12 -4 23.5 1t14.5 17zM-155 504q-1 14 -10 23t-23 10t-24.5 -9t-11.5 -24q-1 -15 10 -26t26 -10q14 1 24 11.5t9 24.5z" />
    <glyph glyph-name="Ucircumflex" unicode="&#xdb;" 
d="M-20 715l-24 -46l-99 -8q-5 -2 -4.5 -4.5t2.5 -8t1 -8.5q-4 -47 -28 -55q-18 -6 -35 1t-24 24q-8 18 1 37.5t25 25.5q47 11 69 2zM-91 587l-74 -61h-134q-14 -8 -20 -21q-8 -18 -1 -33h22l40 41q-6 -13 1 -25q7 -13 21 -16q4 19 18.5 30.5t34.5 10.5t34.5 -15t14.5 -34
q0 -21 -14 -36t-35 -16q-33 -1 -53 40q-6 13 -31 11q-13 -1 -13 -8q0 -1 1 -3l21 -40h-60q-18 0 -30 12t-12 29v73q0 20 15 32q12 9 27 9h167zM-162 619q4 10 -1.5 19.5t-16.5 13.5q-11 5 -22 0.5t-15 -16.5q-8 -23 17 -35q12 -4 23.5 1t14.5 17zM-148 464q0 15 -10 25
t-25 11t-26 -10t-11 -26t10.5 -26.5t25.5 -11.5t25.5 11.5t10.5 26.5z" />
    <glyph glyph-name="Udieresis" unicode="&#xdc;" 
d="M-21 587l-74 -61h-134q-14 -8 -20 -21q-8 -18 -1 -33h22l40 41q-6 -13 1 -25q7 -13 21 -16q4 19 18.5 30.5t34.5 10.5t34.5 -15t14.5 -34q0 -21 -14 -36t-35 -16q-33 -1 -53 40q-6 13 -31 11q-13 -1 -13 -8q0 -1 1 -3l21 -40h-60q-18 0 -30 12t-12 29v73q0 20 15 32
q12 9 27 9h167zM-78 464q0 15 -10 25t-25 11t-26 -10t-11 -26t10.5 -26.5t25.5 -11.5t25.5 11.5t10.5 26.5z" />
    <glyph glyph-name="germandbls" unicode="&#xdf;" 
d="M-33 712l-82 -115h-63l23 76l-44 -24l-38 24l-24 -33q-1 -2 2 -1q12 2 14 1q30 -6 30 -30q0 -12 -8.5 -21t-20.5 -9q-6 0 -10.5 1.5t-9.5 8t-6 8.5l-6 12q-15 27 -2.5 63.5t40.5 31.5q10 -2 19 -19.5t20 -18.5t22 19t22 19q29 -4 33 -45q1 -12 -28 -49q-1 -2 0 -2l3 3
q-7 -14 8 0q8 7 29 29l22 22q9 7 33 31q26 26 26 24q0 -1 -4 -6zM-125 447h-333q-20 8 -20 28q0 5 2 10t4.5 7.5t7.5 7t7 7.5q34 37 84 40h122q3 -17 18 -29q16 -12 36 -9v58h72v-120zM-223 610q-2 20 -22 20q-19 0 -23 -18q-1 -10 6.5 -17t17.5 -7q21 2 21 22zM-251 501
q-1 7 -5 11.5t-11.5 6t-13.5 1.5t-17 -0.5t-15 -0.5h-11h-12.5h-11.5t-11 -1.5t-8 -3.5t-6 -6t-2 -9q0 -4 1 -7.5t3.5 -5.5t5 -3.5t7 -2.5t8 -2t9 -1h8.5h9.5h8.5h7q14 0 21.5 0.5t17.5 2.5t14.5 7t3.5 14z" />
    <glyph glyph-name="agrave" unicode="&#xe0;" 
d="M29 581l-15 -43l-254 -91l28 40q-19 3 -36 15q-23 18 -24 41q-1 24 17 42t43 18q24 0 40 -17t20 -43q4 -25 -9 -48l118 86h72zM-168 544q1 19 -12.5 33.5t-33.5 14.5q-19 0 -32.5 -14.5t-12.5 -33.5q1 -17 15 -27.5t32 -10.5t30.5 10.5t13.5 27.5z" />
    <glyph glyph-name="aacute" unicode="&#xe1;" 
d="M23 621l-109 -154h-84l30 102l-59 -32l-50 32l-32 -44q-1 -2 0 -2q2 0 7 1q10 2 14 1q17 -3 28.5 -14t11.5 -27t-11 -27.5t-27 -12.5q-14 -1 -23 9t-18 27q-1 3 -2 5q-20 36 -3 84.5t54 40.5q13 -3 25.5 -25.5t26.5 -23.5q12 -1 20.5 12l17 25.5t20.5 11.5q20 -2 31 -19
t13 -40q1 -17 -36 -65q-3 -3 -1 -2q1 1 4 3q-8 -14 2 -7q3 2 64 61l13 13q11 10 42 42q36 35 36 33q0 -1 -5 -8zM-231 485q-1 11 -9 18t-20 7q-27 0 -30 -24q-1 -13 9 -22.5t23 -8.5q12 1 20 9.5t7 20.5z" />
    <glyph glyph-name="acircumflex" unicode="&#xe2;" 
d="M-28 447h-70v120h70v-120z" />
    <glyph glyph-name="atilde" unicode="&#xe3;" 
d="M95 709l-1 -69l-116 -66q-4 -4 -2.5 -6.5t7 -8.5t6.5 -10q19 -59 -4 -83q-17 -18 -42 -18.5t-44 16.5q-19 19 -18.5 47.5t16.5 41.5q20 17 45 29.5t36 11.5zM-20 513q-2 15 -14.5 23.5t-27.5 6.5q-16 -2 -26.5 -13.5t-9.5 -26.5t13 -24t27 -8q17 1 28.5 13.5t9.5 28.5z
" />
    <glyph glyph-name="adieresis" unicode="&#xe4;" 
d="M-2 473h-42v-26h-60v26h-42v61h42v24h60v-24h42v-61z" />
    <glyph glyph-name="aring" unicode="&#xe5;" 
d="M-102 508q-1 -26 -20 -44t-45 -17h-39h-253q-20 8 -20 28q0 5 2 10t4.5 7.5t7.5 7t7 7.5q34 37 84 40h42q3 -27 32 -41t52 0q17 10 24 30q18 36 58 36q26 0 45.5 -19t18.5 -45zM-127 512q0 16 -11.5 27t-27.5 12q-18 1 -32 -11.5t-13 -30.5q1 -16 13.5 -26t28.5 -10
q17 0 29.5 11.5t12.5 27.5zM-319 488q0 17 -22.5 20t-41.5 0h-8.5h-9.5h-9t-9 -1t-8 -2t-7.5 -2.5t-5 -3.5t-3.5 -5.5t-1 -7.5q0 -7 3.5 -11.5t11.5 -6t13.5 -2t17.5 0t15 0.5h11.5h13h11.5t11 1.5t8.5 4t6.5 6.5t2 9z" />
    <glyph glyph-name="ae" unicode="&#xe6;" 
d="M-26 694l-11 -32l-191 -69l21 30q-15 3 -27 12q-17 12 -18 30t12.5 31.5t32.5 13.5q18 0 30.5 -13t14.5 -32q4 -17 -6 -36l88 65h54zM-125 447h-355q-20 8 -20 28q0 5 2 10t4.5 7.5t7.5 7t7 7.5q34 37 84 40h100q1 -10 9 -18t17 -9v50h61v-65h22v65h61v-123zM-174 666
q1 15 -9.5 25.5t-25.5 10.5q-14 0 -24 -11t-9 -25q1 -12 11.5 -20t23.5 -8q30 0 33 28zM-293 499q0 7 -4 11.5t-12 6t-13.5 2t-18 0t-15.5 -0.5h-11h-12.5h-11t-10.5 -1.5t-8 -3.5t-6 -6t-2 -9t2 -9t6 -6t7.5 -3.5t10.5 -2t11 -0.5h12h11h11.5h13t11.5 0.5t11.5 2t8.5 4
t6.5 6.5t1.5 9z" />
    <glyph glyph-name="ccedilla" unicode="&#xe7;" 
d="M-125 447h-333q-20 8 -20 28q0 5 2 10t4.5 7.5t7.5 7t7 7.5q34 37 84 40h122q47 -8 84 -41q28 -25 42 -59zM-251 499q0 23 -56 20h-6h-11.5t-13 -0.5t-11.5 -1t-11 -2.5t-8.5 -4t-6 -6.5t-0.5 -9.5q1 -7 5 -11.5t11.5 -5.5t13 -1t17 1t15.5 1q8 1 16 0.5t16.5 0t15 2
t10.5 6t4 11.5z" />
    <glyph glyph-name="egrave" unicode="&#xe8;" 
d="M-125 447h-355q-20 8 -20 28q0 5 2 10t4.5 7.5t7.5 7t7 7.5q34 37 84 40h100q1 -10 9 -18t17 -9v50h61v-65h22v65h61v-123zM-293 499q0 7 -4 11.5t-12 6t-13.5 2t-18 0t-15.5 -0.5h-11h-12.5h-11t-10.5 -1.5t-8 -3.5t-6 -6t-2 -9t2 -9t6 -6t7.5 -3.5t10.5 -2t11 -0.5h12
h11h11.5h13t11.5 0.5t11.5 2t8.5 4t6.5 6.5t1.5 9z" />
    <glyph glyph-name="eacute" unicode="&#xe9;" 
d="M-125 447h-333q-20 8 -20 28q0 5 2 10t4.5 7.5t7.5 7t7 7.5q34 37 84 40h122q3 -17 18 -29q16 -12 36 -9v58h72v-120zM-251 501q-1 7 -5 11.5t-11.5 6t-13.5 1.5t-17 -0.5t-15 -0.5h-11h-12.5h-11.5t-11 -1.5t-8 -3.5t-6 -6t-2 -9q0 -4 1 -7.5t3.5 -5.5t5 -3.5t7 -2.5
t8 -2t9 -1h8.5h9.5h8.5h7q14 0 21.5 0.5t17.5 2.5t14.5 7t3.5 14z" />
    <glyph glyph-name="ecircumflex" unicode="&#xea;" 
d="M-30 550l-40 -64q-14 -23 -65.5 -47.5t-98.5 -21.5q-49 3 -73 21q-41 30 -41 61q1 26 18 44t42 19q26 1 46.5 -18.5t17.5 -42.5q-1 -3 0 -6t3.5 -5.5t5 -3.5t6.5 -3.5t6 -3.5q26 -16 63 6q14 8 89 63q26 19 26 13q0 -3 -5 -11zM-238 502q0 19 -15 32t-35 12
q-19 -1 -32.5 -13.5t-13.5 -30.5t14.5 -31t33.5 -13t33.5 13t14.5 31z" />
    <glyph glyph-name="edieresis" unicode="&#xeb;" 
d="M-137 504q2 -23 -13.5 -40t-37.5 -17t-37.5 17t-13.5 40q2 21 16 36t35 15t35 -15t16 -36zM-155 504q-1 14 -10 23t-23 10t-24.5 -9t-11.5 -24q-1 -15 10 -26t26 -10q14 1 24 11.5t9 24.5z" />
    <glyph glyph-name="igrave" unicode="&#xec;" 
d="M-17 621l-109 -154h-84l30 102l-59 -32l-50 32l-32 -44q-1 -2 0 -2q2 0 7 1q10 2 14 1q17 -3 28.5 -14t11.5 -27t-11 -27.5t-27 -12.5q-14 -1 -23 9t-18 27q-1 3 -2 5q-20 36 -3 84.5t54 40.5q13 -3 25.5 -25.5t26.5 -23.5q12 -1 20.5 12l17 25.5t20.5 11.5q20 -2 31 -19
t13 -40q1 -17 -36 -65q-3 -3 -1 -2q1 1 4 3q-8 -14 2 -7q3 2 64 61l13 13q11 10 42 42q36 35 36 33q0 -1 -5 -8zM-271 485q-1 11 -9 18t-20 7q-27 0 -30 -24q-1 -13 9 -22.5t23 -8.5q12 1 20 9.5t7 20.5z" />
    <glyph glyph-name="iacute" unicode="&#xed;" 
d="M-101 587l-74 -61h-134q-14 -8 -20 -21q-8 -18 -1 -33h22l40 41q-6 -13 1 -25q7 -13 21 -16q4 19 18.5 30.5t34.5 10.5t34.5 -15t14.5 -34q0 -21 -14 -36t-35 -16q-33 -1 -53 40q-6 13 -31 11q-13 -1 -13 -8q0 -1 1 -3l21 -40h-60q-18 0 -30 12t-12 29v73q0 20 15 32
q12 9 27 9h167zM-158 464q0 15 -10 25t-25 11t-26 -10t-11 -26t10.5 -26.5t25.5 -11.5t25.5 11.5t10.5 26.5z" />
    <glyph glyph-name="icircumflex" unicode="&#xee;" 
d="M-11 581l-15 -43l-254 -91l28 40q-19 3 -36 15q-23 18 -24 41q-1 24 17 42t43 18q24 0 40 -17t20 -43q4 -25 -9 -48l118 86h72zM-208 544q1 19 -12.5 33.5t-33.5 14.5q-19 0 -32.5 -14.5t-12.5 -33.5q1 -17 15 -27.5t32 -10.5t30.5 10.5t13.5 27.5z" />
    <glyph glyph-name="idieresis" unicode="&#xef;" 
d="M-148 447h-70v120h70v-120z" />
    <glyph glyph-name="ntilde" unicode="&#xf1;" 
d="M-122 473h-42v-26h-60v26h-42v61h42v24h60v-24h42v-61z" />
    <glyph glyph-name="ograve" unicode="&#xf2;" 
d="M99 712l-82 -115h-63l23 76l-44 -24l-38 24l-24 -33q-1 -2 2 -1q12 2 14 1q30 -6 30 -30q0 -12 -8.5 -21t-20.5 -9q-6 0 -10.5 1.5t-9.5 8t-6 8.5l-6 12q-15 27 -2.5 63.5t40.5 31.5q10 -2 19 -19.5t20 -18.5t22 19t22 19q29 -4 33 -45q1 -12 -28 -49q-1 -2 0 -2l3 3
q-7 -14 8 0q8 7 29 29l22 22q9 7 33 31q26 26 26 24q0 -1 -4 -6zM-2 508q-1 -26 -20 -44t-45 -17h-39h-253q-20 8 -20 28q0 5 2 10t4.5 7.5t7.5 7t7 7.5q34 37 84 40h42q3 -27 32 -41t52 0q17 10 24 30q18 36 58 36q26 0 45.5 -19t18.5 -45zM-91 610q-2 20 -22 20
q-19 0 -23 -18q-1 -10 6.5 -17t17.5 -7q21 2 21 22zM-27 512q0 16 -11.5 27t-27.5 12q-18 1 -32 -11.5t-13 -30.5q1 -16 13.5 -26t28.5 -10q17 0 29.5 11.5t12.5 27.5zM-219 488q0 17 -22.5 20t-41.5 0h-8.5h-9.5h-9t-9 -1t-8 -2t-7.5 -2.5t-5 -3.5t-3.5 -5.5t-1 -7.5
q0 -7 3.5 -11.5t11.5 -6t13.5 -2t17.5 0t15 0.5h11.5h13h11.5t11 1.5t8.5 4t6.5 6.5t2 9z" />
    <glyph glyph-name="oacute" unicode="&#xf3;" 
d="M-35 709l-1 -69l-116 -66q-4 -4 -2.5 -6.5t7 -8.5t6.5 -10q19 -59 -4 -83q-17 -18 -42 -18.5t-44 16.5q-19 19 -18.5 47.5t16.5 41.5q20 17 45 29.5t36 11.5zM-150 513q-2 15 -14.5 23.5t-27.5 6.5q-16 -2 -26.5 -13.5t-9.5 -26.5t13 -24t27 -8q17 1 28.5 13.5t9.5 28.5z
" />
    <glyph glyph-name="ocircumflex" unicode="&#xf4;" 
d="M67 712l-82 -115h-63l23 76l-44 -24l-38 24l-24 -33q-1 -2 2 -1q12 2 14 1q30 -6 30 -30q0 -12 -8.5 -21t-20.5 -9q-6 0 -10.5 1.5t-9.5 8t-6 8.5l-6 12q-15 27 -2.5 63.5t40.5 31.5q10 -2 19 -19.5t20 -18.5t22 19t22 19q29 -4 33 -45q1 -12 -28 -49q-1 -2 0 -2l3 3
q-7 -14 8 0q8 7 29 29l22 22q9 7 33 31q26 26 26 24q0 -1 -4 -6zM-25 447h-333q-20 8 -20 28q0 5 2 10t4.5 7.5t7.5 7t7 7.5q34 37 84 40h122q47 -8 84 -41q28 -25 42 -59zM-123 610q-2 20 -22 20q-19 0 -23 -18q-1 -10 6.5 -17t17.5 -7q21 2 21 22zM-151 499q0 23 -56 20
h-6h-11.5t-13 -0.5t-11.5 -1t-11 -2.5t-8.5 -4t-6 -6.5t-0.5 -9.5q1 -7 5 -11.5t11.5 -5.5t13 -1t17 1t15.5 1q8 1 16 0.5t16.5 0t15 2t10.5 6t4 11.5z" />
    <glyph glyph-name="otilde" unicode="&#xf5;" 
d="M67 712l-82 -115h-63l23 76l-44 -24l-38 24l-24 -33q-1 -2 2 -1q12 2 14 1q30 -6 30 -30q0 -12 -8.5 -21t-20.5 -9q-6 0 -10.5 1.5t-9.5 8t-6 8.5l-6 12q-15 27 -2.5 63.5t40.5 31.5q10 -2 19 -19.5t20 -18.5t22 19t22 19q29 -4 33 -45q1 -12 -28 -49q-1 -2 0 -2l3 3
q-7 -14 8 0q8 7 29 29l22 22q9 7 33 31q26 26 26 24q0 -1 -4 -6zM-25 447h-355q-20 8 -20 28q0 5 2 10t4.5 7.5t7.5 7t7 7.5q34 37 84 40h100q1 -10 9 -18t17 -9v50h61v-65h22v65h61v-123zM-123 610q-2 20 -22 20q-19 0 -23 -18q-1 -10 6.5 -17t17.5 -7q21 2 21 22z
M-193 499q0 7 -4 11.5t-12 6t-13.5 2t-18 0t-15.5 -0.5h-11h-12.5h-11t-10.5 -1.5t-8 -3.5t-6 -6t-2 -9t2 -9t6 -6t7.5 -3.5t10.5 -2t11 -0.5h12h11h11.5h13t11.5 0.5t11.5 2t8.5 4t6.5 6.5t1.5 9z" />
    <glyph glyph-name="odieresis" unicode="&#xf6;" 
d="M67 712l-82 -115h-63l23 76l-44 -24l-38 24l-24 -33q-1 -2 2 -1q12 2 14 1q30 -6 30 -30q0 -12 -8.5 -21t-20.5 -9q-6 0 -10.5 1.5t-9.5 8t-6 8.5l-6 12q-15 27 -2.5 63.5t40.5 31.5q10 -2 19 -19.5t20 -18.5t22 19t22 19q29 -4 33 -45q1 -12 -28 -49q-1 -2 0 -2l3 3
q-7 -14 8 0q8 7 29 29l22 22q9 7 33 31q26 26 26 24q0 -1 -4 -6zM-25 447h-333q-20 8 -20 28q0 5 2 10t4.5 7.5t7.5 7t7 7.5q34 37 84 40h122q3 -17 18 -29q16 -12 36 -9v58h72v-120zM-123 610q-2 20 -22 20q-19 0 -23 -18q-1 -10 6.5 -17t17.5 -7q21 2 21 22zM-151 501
q-1 7 -5 11.5t-11.5 6t-13.5 1.5t-17 -0.5t-15 -0.5h-11h-12.5h-11.5t-11 -1.5t-8 -3.5t-6 -6t-2 -9q0 -4 1 -7.5t3.5 -5.5t5 -3.5t7 -2.5t8 -2t9 -1h8.5h9.5h8.5h7q14 0 21.5 0.5t17.5 2.5t14.5 7t3.5 14z" />
    <glyph glyph-name="divide" unicode="&#xf7;" 
d="M-101 604h-53v90h53v-90zM-91 587l-74 -61h-134q-14 -8 -20 -21q-8 -18 -1 -33h22l40 41q-6 -13 1 -25q7 -13 21 -16q4 19 18.5 30.5t34.5 10.5t34.5 -15t14.5 -34q0 -21 -14 -36t-35 -16q-33 -1 -53 40q-6 13 -31 11q-13 -1 -13 -8q0 -1 1 -3l21 -40h-60q-18 0 -30 12
t-12 29v73q0 20 15 32q12 9 27 9h167zM-148 464q0 15 -10 25t-25 11t-26 -10t-11 -26t10.5 -26.5t25.5 -11.5t25.5 11.5t10.5 26.5z" />
    <glyph glyph-name="oslash" unicode="&#xf8;" 
d="M-66 694l-11 -32l-191 -69l21 30q-15 3 -27 12q-17 12 -18 30t12.5 31.5t32.5 13.5q18 0 30.5 -13t14.5 -32q4 -17 -6 -36l88 65h54zM-30 550l-40 -64q-14 -23 -65.5 -47.5t-98.5 -21.5q-49 3 -73 21q-41 30 -41 61q1 26 18 44t42 19q26 1 46.5 -18.5t17.5 -42.5
q-1 -3 0 -6t3.5 -5.5t5 -3.5t6.5 -3.5t6 -3.5q26 -16 63 6q14 8 89 63q26 19 26 13q0 -3 -5 -11zM-214 666q1 15 -9.5 25.5t-25.5 10.5q-14 0 -24 -11t-9 -25q1 -12 11.5 -20t23.5 -8q30 0 33 28zM-238 502q0 19 -15 32t-35 12q-19 -1 -32.5 -13.5t-13.5 -30.5t14.5 -31
t33.5 -13t33.5 13t14.5 31z" />
    <glyph glyph-name="ugrave" unicode="&#xf9;" 
d="M95 704l-82 -115h-63l23 76l-44 -24l-38 24l-24 -33q-1 -2 2 -1q12 2 14 1q30 -6 30 -30q0 -12 -8.5 -21t-20.5 -9q-6 0 -10.5 1.5t-9.5 8t-6 8.5l-6 12q-15 27 -2.5 63.5t40.5 31.5q10 -2 19 -19.5t20 -18.5t22 19t22 19q29 -4 33 -45q1 -12 -28 -49q-1 -2 0 -2l3 3
q-7 -14 8 0q8 7 29 29l22 22q9 7 33 31q26 26 26 24q0 -1 -4 -6zM-17 504q2 -23 -13.5 -40t-37.5 -17t-37.5 17t-13.5 40q2 21 16 36t35 15t35 -15t16 -36zM-95 602q-2 20 -22 20q-19 0 -23 -18q-1 -10 6.5 -17t17.5 -7q21 2 21 22zM-35 504q-1 14 -10.5 23t-22.5 10
q-14 1 -24.5 -9t-11.5 -24q-1 -15 10 -26t26 -10q14 1 24 11.5t9 24.5z" />
    <glyph glyph-name="uacute" unicode="&#xfa;" 
d="M19 706l-82 -115h-63l23 76l-44 -24l-38 24l-24 -33q-1 -2 2 -1q12 2 14 1q30 -6 30 -30q0 -12 -8.5 -21t-20.5 -9q-6 0 -10.5 1.5t-9.5 8t-6 8.5l-6 12q-15 27 -2.5 63.5t40.5 31.5q10 -2 19 -19.5t20 -18.5t22 19t22 19q29 -4 33 -45q1 -12 -28 -49q-1 -2 0 -2l3 3
q-7 -14 8 0q8 7 29 29l22 22q9 7 33 31q26 26 26 24q0 -1 -4 -6zM110 550l-40 -64q-14 -23 -65.5 -47.5t-98.5 -21.5q-49 3 -73 21q-41 30 -41 61q1 26 18 44t42 19q26 1 46.5 -18.5t17.5 -42.5q-1 -3 0 -6t3.5 -5.5t5 -3.5t6.5 -3.5t6 -3.5q26 -16 63 6q14 8 89 63
q26 19 26 13q0 -3 -5 -11zM-171 604q-2 20 -22 20q-19 0 -23 -18q-1 -10 6.5 -17t17.5 -7q21 2 21 22zM-98 502q0 19 -15 32t-35 12q-19 -1 -32.5 -13.5t-13.5 -30.5t14.5 -31t33.5 -13t33.5 13t14.5 31z" />
    <glyph glyph-name="ucircumflex" unicode="&#xfb;" 
d="M67 712l-82 -115h-63l23 76l-44 -24l-38 24l-24 -33q-1 -2 2 -1q12 2 14 1q30 -6 30 -30q0 -12 -8.5 -21t-20.5 -9q-6 0 -10.5 1.5t-9.5 8t-6 8.5l-6 12q-15 27 -2.5 63.5t40.5 31.5q10 -2 19 -19.5t20 -18.5t22 19t22 19q29 -4 33 -45q1 -12 -28 -49q-1 -2 0 -2l3 3
q-7 -14 8 0q8 7 29 29l22 22q9 7 33 31q26 26 26 24q0 -1 -4 -6zM-21 587l-74 -61h-134q-14 -8 -20 -21q-8 -18 -1 -33h22l40 41q-6 -13 1 -25q7 -13 21 -16q4 19 18.5 30.5t34.5 10.5t34.5 -15t14.5 -34q0 -21 -14 -36t-35 -16q-33 -1 -53 40q-6 13 -31 11q-13 -1 -13 -8
q0 -1 1 -3l21 -40h-60q-18 0 -30 12t-12 29v73q0 20 15 32q12 9 27 9h167zM-123 610q-2 20 -22 20q-19 0 -23 -18q-1 -10 6.5 -17t17.5 -7q21 2 21 22zM-78 464q0 15 -10 25t-25 11t-26 -10t-11 -26t10.5 -26.5t25.5 -11.5t25.5 11.5t10.5 26.5z" />
    <glyph glyph-name="udieresis" unicode="&#xfc;" 
d="M-1 712l-82 -115h-63l23 76l-44 -24l-38 24l-24 -33q-1 -2 2 -1q12 2 14 1q30 -6 30 -30q0 -12 -8.5 -21t-20.5 -9q-6 0 -10.5 1.5t-9.5 8t-6 8.5l-6 12q-15 27 -2.5 63.5t40.5 31.5q10 -2 19 -19.5t20 -18.5t22 19t22 19q29 -4 33 -45q1 -12 -28 -49q-1 -2 0 -2l3 3
q-7 -14 8 0q8 7 29 29l22 22q9 7 33 31q26 26 26 24q0 -1 -4 -6zM-102 508q-1 -26 -20 -44t-45 -17h-39h-253q-20 8 -20 28q0 5 2 10t4.5 7.5t7.5 7t7 7.5q34 37 84 40h42q3 -27 32 -41t52 0q17 10 24 30q18 36 58 36q26 0 45.5 -19t18.5 -45zM-191 610q-2 20 -22 20
q-19 0 -23 -18q-1 -10 6.5 -17t17.5 -7q21 2 21 22zM-127 512q0 16 -11.5 27t-27.5 12q-18 1 -32 -11.5t-13 -30.5q1 -16 13.5 -26t28.5 -10q17 0 29.5 11.5t12.5 27.5zM-319 488q0 17 -22.5 20t-41.5 0h-8.5h-9.5h-9t-9 -1t-8 -2t-7.5 -2.5t-5 -3.5t-3.5 -5.5t-1 -7.5
q0 -7 3.5 -11.5t11.5 -6t13.5 -2t17.5 0t15 0.5h11.5h13h11.5t11 1.5t8.5 4t6.5 6.5t2 9z" />
    <glyph glyph-name="ydieresis" unicode="&#xff;" 
d="M-7 624h-30v-19h-45v19h-33v47h33v18h45v-18h30v-47zM-25 447h-333q-20 8 -20 28q0 5 2 10t4.5 7.5t7.5 7t7 7.5q34 37 84 40h122q47 -8 84 -41q28 -25 42 -59zM-151 499q0 23 -56 20h-6h-11.5t-13 -0.5t-11.5 -1t-11 -2.5t-8.5 -4t-6 -6.5t-0.5 -9.5q1 -7 5 -11.5
t11.5 -5.5t13 -1t17 1t15.5 1q8 1 16 0.5t16.5 0t15 2t10.5 6t4 11.5z" />
    <glyph glyph-name="dotlessi" unicode="&#x131;" 
d="M-9 -62q0 -13 -8.5 -21.5t-21.5 -8.5q-12 0 -21 9t-9 21t9.5 21t20.5 9q13 0 21.5 -9t8.5 -21z" />
    <glyph glyph-name="OE" unicode="&#x152;" 
d="M-131 604h-53v90h53v-90zM-125 447h-333q-20 8 -20 28q0 5 2 10t4.5 7.5t7.5 7t7 7.5q34 37 84 40h122q3 -17 18 -29q16 -12 36 -9v58h72v-120zM-251 501q-1 7 -5 11.5t-11.5 6t-13.5 1.5t-17 -0.5t-15 -0.5h-11h-12.5h-11.5t-11 -1.5t-8 -3.5t-6 -6t-2 -9q0 -4 1 -7.5
t3.5 -5.5t5 -3.5t7 -2.5t8 -2t9 -1h8.5h9.5h8.5h7q14 0 21.5 0.5t17.5 2.5t14.5 7t3.5 14z" />
    <glyph glyph-name="oe" unicode="&#x153;" 
d="M-131 604h-53v90h53v-90zM-125 447h-355q-20 8 -20 28q0 5 2 10t4.5 7.5t7.5 7t7 7.5q34 37 84 40h100q1 -10 9 -18t17 -9v50h61v-65h22v65h61v-123zM-293 499q0 7 -4 11.5t-12 6t-13.5 2t-18 0t-15.5 -0.5h-11h-12.5h-11t-10.5 -1.5t-8 -3.5t-6 -6t-2 -9t2 -9t6 -6
t7.5 -3.5t10.5 -2t11 -0.5h12h11h11.5h13t11.5 0.5t11.5 2t8.5 4t6.5 6.5t1.5 9z" />
    <glyph glyph-name="Ydieresis" unicode="&#x178;" 
d="M-7 624h-30v-19h-45v19h-33v47h33v18h45v-18h30v-47zM-25 447h-333q-20 8 -20 28q0 5 2 10t4.5 7.5t7.5 7t7 7.5q34 37 84 40h122q3 -17 18 -29q16 -12 36 -9v58h72v-120zM-151 501q-1 7 -5 11.5t-11.5 6t-13.5 1.5t-17 -0.5t-15 -0.5h-11h-12.5h-11.5t-11 -1.5t-8 -3.5
t-6 -6t-2 -9q0 -4 1 -7.5t3.5 -5.5t5 -3.5t7 -2.5t8 -2t9 -1h8.5h9.5h8.5h7q14 0 21.5 0.5t17.5 2.5t14.5 7t3.5 14z" />
    <glyph glyph-name="florin" unicode="&#x192;" 
d="M-31 604h-53v90h53v-90zM-25 447h-333q-20 8 -20 28q0 5 2 10t4.5 7.5t7.5 7t7 7.5q34 37 84 40h122q47 -8 84 -41q28 -25 42 -59zM-151 499q0 23 -56 20h-6h-11.5t-13 -0.5t-11.5 -1t-11 -2.5t-8.5 -4t-6 -6.5t-0.5 -9.5q1 -7 5 -11.5t11.5 -5.5t13 -1t17 1t15.5 1
q8 1 16 0.5t16.5 0t15 2t10.5 6t4 11.5z" />
    <glyph glyph-name="circumflex" unicode="&#x2c6;" 
d="M-46 604h-53v90h53v-90zM-17 504q2 -23 -13.5 -40t-37.5 -17t-37.5 17t-13.5 40q2 21 16 36t35 15t35 -15t16 -36zM-35 504q-1 14 -10.5 23t-22.5 10q-14 1 -24.5 -9t-11.5 -24q-1 -15 10 -26t26 -10q14 1 24 11.5t9 24.5z" />
    <glyph glyph-name="breve" unicode="&#x2d8;" horiz-adv-x="404" 
d="M374 119q0 -55 -35.5 -87t-90.5 -32h-38v-45h-39v45h-126v400h126v47h39v-47h24q56 0 90.5 -29.5t34.5 -84.5q0 -57 -40 -76q24 -7 39.5 -33.5t15.5 -57.5zM278 286q0 20 -14 33.5t-34 13.5h-20v-95h20q20 0 34 14t14 34zM171 238v95h-50v-95h50zM292 119q0 22 -15 37
t-37 15h-30v-105h30q21 0 36.5 16t15.5 37zM171 66v105h-50v-105h50z" />
    <glyph glyph-name="tilde" unicode="&#x2dc;" horiz-adv-x="400" 
d="M380 175h-360v30h360v-30z" />
    <glyph glyph-name="Delta" unicode="&#x394;" 
d="M-31 604h-53v90h53v-90zM-25 447h-355q-20 8 -20 28q0 5 2 10t4.5 7.5t7.5 7t7 7.5q34 37 84 40h100q1 -10 9 -18t17 -9v50h61v-65h22v65h61v-123zM-193 499q0 7 -4 11.5t-12 6t-13.5 2t-18 0t-15.5 -0.5h-11h-12.5h-11t-10.5 -1.5t-8 -3.5t-6 -6t-2 -9t2 -9t6 -6
t7.5 -3.5t10.5 -2t11 -0.5h12h11h11.5h13t11.5 0.5t11.5 2t8.5 4t6.5 6.5t1.5 9z" />
    <glyph glyph-name="Delta" unicode="&#x2206;" 
d="M-31 604h-53v90h53v-90zM-25 447h-355q-20 8 -20 28q0 5 2 10t4.5 7.5t7.5 7t7 7.5q34 37 84 40h100q1 -10 9 -18t17 -9v50h61v-65h22v65h61v-123zM-193 499q0 7 -4 11.5t-12 6t-13.5 2t-18 0t-15.5 -0.5h-11h-12.5h-11t-10.5 -1.5t-8 -3.5t-6 -6t-2 -9t2 -9t6 -6
t7.5 -3.5t10.5 -2t11 -0.5h12h11h11.5h13t11.5 0.5t11.5 2t8.5 4t6.5 6.5t1.5 9z" />
    <glyph glyph-name="Omega" unicode="&#x3a9;" 
d="M-26 694l-11 -32l-191 -69l21 30q-15 3 -27 12q-17 12 -18 30t12.5 31.5t32.5 13.5q18 0 30.5 -13t14.5 -32q4 -17 -6 -36l88 65h54zM-125 447h-333q-20 8 -20 28q0 5 2 10t4.5 7.5t7.5 7t7 7.5q34 37 84 40h122q3 -17 18 -29q16 -12 36 -9v58h72v-120zM-174 666
q1 15 -9.5 25.5t-25.5 10.5q-14 0 -24 -11t-9 -25q1 -12 11.5 -20t23.5 -8q30 0 33 28zM-251 501q-1 7 -5 11.5t-11.5 6t-13.5 1.5t-17 -0.5t-15 -0.5h-11h-12.5h-11.5t-11 -1.5t-8 -3.5t-6 -6t-2 -9q0 -4 1 -7.5t3.5 -5.5t5 -3.5t7 -2.5t8 -2t9 -1h8.5h9.5h8.5h7
q14 0 21.5 0.5t17.5 2.5t14.5 7t3.5 14z" />
    <glyph glyph-name="Omega" unicode="&#x2126;" 
d="M-26 694l-11 -32l-191 -69l21 30q-15 3 -27 12q-17 12 -18 30t12.5 31.5t32.5 13.5q18 0 30.5 -13t14.5 -32q4 -17 -6 -36l88 65h54zM-125 447h-333q-20 8 -20 28q0 5 2 10t4.5 7.5t7.5 7t7 7.5q34 37 84 40h122q3 -17 18 -29q16 -12 36 -9v58h72v-120zM-174 666
q1 15 -9.5 25.5t-25.5 10.5q-14 0 -24 -11t-9 -25q1 -12 11.5 -20t23.5 -8q30 0 33 28zM-251 501q-1 7 -5 11.5t-11.5 6t-13.5 1.5t-17 -0.5t-15 -0.5h-11h-12.5h-11.5t-11 -1.5t-8 -3.5t-6 -6t-2 -9q0 -4 1 -7.5t3.5 -5.5t5 -3.5t7 -2.5t8 -2t9 -1h8.5h9.5h8.5h7
q14 0 21.5 0.5t17.5 2.5t14.5 7t3.5 14z" />
    <glyph glyph-name="pi" unicode="&#x3c0;" 
d="M10 694l-11 -32l-191 -69l21 30q-15 3 -27 12q-17 12 -18 30t12.5 31.5t32.5 13.5q18 0 30.5 -13t14.5 -32q4 -17 -6 -36l88 65h54zM-102 508q-1 -26 -20 -44t-45 -17h-39h-253q-20 8 -20 28q0 5 2 10t4.5 7.5t7.5 7t7 7.5q34 37 84 40h42q3 -27 32 -41t52 0q17 10 24 30
q18 36 58 36q26 0 45.5 -19t18.5 -45zM-138 666q1 15 -9.5 25.5t-25.5 10.5q-14 0 -24 -11t-9 -25q1 -12 11.5 -20t23.5 -8q30 0 33 28zM-127 512q0 16 -11.5 27t-27.5 12q-18 1 -32 -11.5t-13 -30.5q1 -16 13.5 -26t28.5 -10q17 0 29.5 11.5t12.5 27.5zM-319 488
q0 17 -22.5 20t-41.5 0h-8.5h-9.5h-9t-9 -1t-8 -2t-7.5 -2.5t-5 -3.5t-3.5 -5.5t-1 -7.5q0 -7 3.5 -11.5t11.5 -6t13.5 -2t17.5 0t15 0.5h11.5h13h11.5t11 1.5t8.5 4t6.5 6.5t2 9z" />
    <glyph glyph-name="endash" unicode="&#x2013;" 
d="M-171 604h-53v90h53v-90zM-30 550l-40 -64q-14 -23 -65.5 -47.5t-98.5 -21.5q-49 3 -73 21q-41 30 -41 61q1 26 18 44t42 19q26 1 46.5 -18.5t17.5 -42.5q-1 -3 0 -6t3.5 -5.5t5 -3.5t6.5 -3.5t6 -3.5q26 -16 63 6q14 8 89 63q26 19 26 13q0 -3 -5 -11zM-238 502
q0 19 -15 32t-35 12q-19 -1 -32.5 -13.5t-13.5 -30.5t14.5 -31t33.5 -13t33.5 13t14.5 31z" />
    <glyph glyph-name="emdash" unicode="&#x2014;" 
d="M-137 504q2 -23 -13.5 -40t-37.5 -17t-37.5 17t-13.5 40q2 21 16 36t35 15t35 -15t16 -36zM-155 504q-1 14 -10 23t-23 10t-24.5 -9t-11.5 -24q-1 -15 10 -26t26 -10q14 1 24 11.5t9 24.5zM-161 604h-53v90h53v-90z" />
    <glyph glyph-name="quoteleft" unicode="&#x2018;" horiz-adv-x="153" 
d="M113 243h-76v81q0 36 23 56t53 20v-19q-19 0 -31 -16.5t-12 -45.5h43v-76z" />
    <glyph glyph-name="quoteright" unicode="&#x2019;" horiz-adv-x="153" 
d="M112 319q0 -36 -23.5 -56t-52.5 -20v19q19 0 31 16.5t12 45.5h-43v76h76v-81z" />
    <glyph glyph-name="quotesinglbase" unicode="&#x201a;" 
d="M-107 624h-30v-19h-45v19h-33v47h33v18h45v-18h30v-47zM-125 447h-355q-20 8 -20 28q0 5 2 10t4.5 7.5t7.5 7t7 7.5q34 37 84 40h100q1 -10 9 -18t17 -9v50h61v-65h22v65h61v-123zM-293 499q0 7 -4 11.5t-12 6t-13.5 2t-18 0t-15.5 -0.5h-11h-12.5h-11t-10.5 -1.5
t-8 -3.5t-6 -6t-2 -9t2 -9t6 -6t7.5 -3.5t10.5 -2t11 -0.5h12h11h11.5h13t11.5 0.5t11.5 2t8.5 4t6.5 6.5t1.5 9z" />
    <glyph glyph-name="quotedblleft" unicode="&#x201c;" horiz-adv-x="274" 
d="M231 243h-76v81q0 36 23.5 56t52.5 20v-19q-19 0 -31 -16.5t-12 -45.5h43v-76zM115 243h-77v81q0 36 23.5 56t53.5 20v-19q-19 0 -31.5 -16.5t-12.5 -45.5h44v-76z" />
    <glyph glyph-name="quotedblright" unicode="&#x201d;" horiz-adv-x="274" 
d="M233 319q0 -36 -23.5 -56t-53.5 -20v19q19 0 31 16.5t12 45.5h-43v76h77v-81zM116 319q0 -36 -23.5 -56t-52.5 -20v19q19 0 31 16.5t12 45.5h-43v76h76v-81z" />
    <glyph glyph-name="quotedblbase" unicode="&#x201e;" 
d="M-147 624h-30v-19h-45v19h-33v47h33v18h45v-18h30v-47zM-30 550l-40 -64q-14 -23 -65.5 -47.5t-98.5 -21.5q-49 3 -73 21q-41 30 -41 61q1 26 18 44t42 19q26 1 46.5 -18.5t17.5 -42.5q-1 -3 0 -6t3.5 -5.5t5 -3.5t6.5 -3.5t6 -3.5q26 -16 63 6q14 8 89 63q26 19 26 13
q0 -3 -5 -11zM-238 502q0 19 -15 32t-35 12q-19 -1 -32.5 -13.5t-13.5 -30.5t14.5 -31t33.5 -13t33.5 13t14.5 31z" />
    <glyph glyph-name="daggerdbl" unicode="&#x2021;" 
d="M-107 624h-30v-19h-45v19h-33v47h33v18h45v-18h30v-47zM-125 447h-333q-20 8 -20 28q0 5 2 10t4.5 7.5t7.5 7t7 7.5q34 37 84 40h122q47 -8 84 -41q28 -25 42 -59zM-251 499q0 23 -56 20h-6h-11.5t-13 -0.5t-11.5 -1t-11 -2.5t-8.5 -4t-6 -6.5t-0.5 -9.5q1 -7 5 -11.5
t11.5 -5.5t13 -1t17 1t15.5 1q8 1 16 0.5t16.5 0t15 2t10.5 6t4 11.5z" />
    <glyph glyph-name="bullet" unicode="&#x2022;" horiz-adv-x="450" 
d="M446 95q1 -37 -20.5 -65t-55.5 -30q-61 -5 -86 56q-10 25 -57 36q-41 9 -46 -8q-1 -4 2 -10l33 -74h-122q-29 3 -46 24q-19 24 -18 52v151q-1 9 4.5 30t17.5 31q19 16 42 16h259l93 36l-114 -113h-208q-23 -17 -31 -38q-17 -41 -1 -79h61l63 76q-9 -23 1 -47
q10 -20 30 -28t41 0q1 32 25.5 54t56.5 21q33 -1 54 -28t22 -63zM424 95q0 26 -15 45.5t-39 20.5q-25 1 -41.5 -19t-16.5 -47t16.5 -48t40.5 -20q25 1 40 21t15 47z" />
    <glyph glyph-name="ellipsis" unicode="&#x2026;" 
d="M-31 604h-53v90h53v-90zM110 550l-40 -64q-14 -23 -65.5 -47.5t-98.5 -21.5q-49 3 -73 21q-41 30 -41 61q1 26 18 44t42 19q26 1 46.5 -18.5t17.5 -42.5q-1 -3 0 -6t3.5 -5.5t5 -3.5t6.5 -3.5t6 -3.5q26 -16 63 6q14 8 89 63q26 19 26 13q0 -3 -5 -11zM-98 502
q0 19 -15 32t-35 12q-19 -1 -32.5 -13.5t-13.5 -30.5t14.5 -31t33.5 -13t33.5 13t14.5 31z" />
    <glyph glyph-name="perthousand" unicode="&#x2030;" 
d="M-137 624h-30v-19h-45v19h-33v47h33v18h45v-18h30v-47zM-137 504q2 -23 -13.5 -40t-37.5 -17t-37.5 17t-13.5 40q2 21 16 36t35 15t35 -15t16 -36zM-155 504q-1 14 -10 23t-23 10t-24.5 -9t-11.5 -24q-1 -15 10 -26t26 -10q14 1 24 11.5t9 24.5z" />
    <glyph glyph-name="guilsinglleft" unicode="&#x2039;" 
d="M-7 624h-30v-19h-45v19h-33v47h33v18h45v-18h30v-47zM110 550l-40 -64q-14 -23 -65.5 -47.5t-98.5 -21.5q-49 3 -73 21q-41 30 -41 61q1 26 18 44t42 19q26 1 46.5 -18.5t17.5 -42.5q-1 -3 0 -6t3.5 -5.5t5 -3.5t6.5 -3.5t6 -3.5q26 -16 63 6q14 8 89 63q26 19 26 13
q0 -3 -5 -11zM-98 502q0 19 -15 32t-35 12q-19 -1 -32.5 -13.5t-13.5 -30.5t14.5 -31t33.5 -13t33.5 13t14.5 31z" />
    <glyph glyph-name="guilsinglright" unicode="&#x203a;" 
d="M-17 624h-30v-19h-45v19h-33v47h33v18h45v-18h30v-47zM-17 504q2 -23 -13.5 -40t-37.5 -17t-37.5 17t-13.5 40q2 21 16 36t35 15t35 -15t16 -36zM-35 504q-1 14 -10.5 23t-22.5 10q-14 1 -24.5 -9t-11.5 -24q-1 -15 10 -26t26 -10q14 1 24 11.5t9 24.5z" />
    <glyph glyph-name="fraction" unicode="&#x2044;" 
d="M-7 624h-30v-19h-45v19h-33v47h33v18h45v-18h30v-47zM-25 447h-355q-20 8 -20 28q0 5 2 10t4.5 7.5t7.5 7t7 7.5q34 37 84 40h100q1 -10 9 -18t17 -9v50h61v-65h22v65h61v-123zM-193 499q0 7 -4 11.5t-12 6t-13.5 2t-18 0t-15.5 -0.5h-11h-12.5h-11t-10.5 -1.5t-8 -3.5
t-6 -6t-2 -9t2 -9t6 -6t7.5 -3.5t10.5 -2t11 -0.5h12h11h11.5h13t11.5 0.5t11.5 2t8.5 4t6.5 6.5t1.5 9z" />
    <glyph glyph-name="fraction" unicode="&#x2215;" 
d="M-7 624h-30v-19h-45v19h-33v47h33v18h45v-18h30v-47zM-25 447h-355q-20 8 -20 28q0 5 2 10t4.5 7.5t7.5 7t7 7.5q34 37 84 40h100q1 -10 9 -18t17 -9v50h61v-65h22v65h61v-123zM-193 499q0 7 -4 11.5t-12 6t-13.5 2t-18 0t-15.5 -0.5h-11h-12.5h-11t-10.5 -1.5t-8 -3.5
t-6 -6t-2 -9t2 -9t6 -6t7.5 -3.5t10.5 -2t11 -0.5h12h11h11.5h13t11.5 0.5t11.5 2t8.5 4t6.5 6.5t1.5 9z" />
    <glyph glyph-name="trademark" unicode="&#x2122;" horiz-adv-x="450" 
d="M432 76q1 -31 -20 -54q-16 -18 -42 -22h-286q-29 3 -46 24q-19 24 -18 52v320l-40 74l102 -74v-316h302v92q1 8 0 9t-3 8t-2 18q0 10 -20 20q-24 12 -49 2q-32 -12 -38 -46q-15 30 -44 46q-3 2 -9.5 6t-10 5.5l-8.5 3.5t-10 1.5t-10 -2.5q-20 -7 -24 -33.5t12 -39.5
q11 30 43 28q17 -1 28.5 -14t12.5 -31q1 -22 -25.5 -32.5t-49.5 -8.5q-20 1 -30.5 2.5t-22 9t-11.5 20.5v83q-2 7 1.5 28.5t15.5 32.5q13 13 32 16q28 3 55 -8q36 -15 55 -48q20 34 56 48q27 11 55 8q19 -3 32 -16q26 -25 17 -60v-152zM241 151q4 12 -6.5 23t-24.5 10
q-12 -1 -20.5 -9t-7.5 -20q3 -20 28 -22t31 18z" />
    <glyph glyph-name="partialdiff" unicode="&#x2202;" horiz-adv-x="341" 
d="M332 -134h-102v529h-33v-529h-104v12q62 0 62 39v232h-21q-49 0 -82.5 39.5t-33.5 95.5t34.5 95t84.5 39h195v-13q-61 0 -61 -39v-449q0 -39 61 -39v-12zM155 172v223h-21q-23 0 -46.5 -31t-23.5 -80t23.5 -80.5t46.5 -31.5h21z" />
    <glyph glyph-name="product" unicode="&#x220f;" 
d="M74 694l-11 -32l-191 -69l21 30q-15 3 -27 12q-17 12 -18 30t12.5 31.5t32.5 13.5q18 0 30.5 -13t14.5 -32q4 -17 -6 -36l88 65h54zM-21 587l-74 -61h-134q-14 -8 -20 -21q-8 -18 -1 -33h22l40 41q-6 -13 1 -25q7 -13 21 -16q4 19 18.5 30.5t34.5 10.5t34.5 -15t14.5 -34
q0 -21 -14 -36t-35 -16q-33 -1 -53 40q-6 13 -31 11q-13 -1 -13 -8q0 -1 1 -3l21 -40h-60q-18 0 -30 12t-12 29v73q0 20 15 32q12 9 27 9h167zM-74 666q1 15 -9.5 25.5t-25.5 10.5q-14 0 -24 -11t-9 -25q1 -12 11.5 -20t23.5 -8q30 0 33 28zM-78 464q0 15 -10 25t-25 11
t-26 -10t-11 -26t10.5 -26.5t25.5 -11.5t25.5 11.5t10.5 26.5z" />
    <glyph glyph-name="summation" unicode="&#x2211;" horiz-adv-x="400" 
d="M238 254q13 -13 12.5 -32t-14.5 -32q-13 -13 -32 -12.5t-32 14.5q-13 13 -12.5 32t14.5 32q13 13 32 12.5t32 -14.5z" />
    <glyph glyph-name="radical" unicode="&#x221a;" 
d="M-41 604h-53v90h53v-90zM-2 508q-1 -26 -20 -44t-45 -17h-39h-253q-20 8 -20 28q0 5 2 10t4.5 7.5t7.5 7t7 7.5q34 37 84 40h42q3 -27 32 -41t52 0q17 10 24 30q18 36 58 36q26 0 45.5 -19t18.5 -45zM-27 512q0 16 -11.5 27t-27.5 12q-18 1 -32 -11.5t-13 -30.5
q1 -16 13.5 -26t28.5 -10q17 0 29.5 11.5t12.5 27.5zM-219 488q0 17 -22.5 20t-41.5 0h-8.5h-9.5h-9t-9 -1t-8 -2t-7.5 -2.5t-5 -3.5t-3.5 -5.5t-1 -7.5q0 -7 3.5 -11.5t11.5 -6t13.5 -2t17.5 0t15 0.5h11.5h13h11.5t11 1.5t8.5 4t6.5 6.5t2 9z" />
    <glyph glyph-name="infinity" unicode="&#x221e;" horiz-adv-x="450" 
d="M456 466l-54 -118q-14 -31 -41 -62t-40 -39q-2 -6 -44 -3t-61 0q-47 -6 -74 -16q-15 -5 -25 -18.5t-13 -32t-4 -34t-0.5 -34t0.5 -21.5q-1 -11 8 -15.5t26 -8.5q48 -11 48 10q0 3 -22.5 21.5t-23.5 34.5q-2 29 26 44t66 16q39 1 69.5 -15t28.5 -47q-1 -14 -19.5 -30.5
t-18.5 -23.5q0 -5 2 -7.5t6.5 -3t8.5 -0.5t10 0.5t9 0.5q15 0 31 20.5t29 23.5q36 8 68 -8l-17.5 -6t-17.5 -6.5t-14 -8t-13 -13.5q-3 -4 -13.5 -21t-15 -22.5t-15.5 -13t-24 -9.5q-21 -4 -47 23t-45 29q-25 2 -59 -27t-59 -25q-39 7 -54 24q-19 22 -18 52v101q0 20 4 27
l10.5 21.5t10.5 20.5t12 17t19 17q-33 27 -18 46q28 34 80 34q62 0 80 -32q13 -18 14 -18q20 -5 40 -4q21 1 44 17t35 29t18 22zM232 310q-2 38 -74 34q-53 -4 -60 -30q-6 -22 17 -36t51 -14q26 0 46.5 12t19.5 34zM306 128q1 24 -22.5 34t-55.5 10q-73 0 -74 -42
q-1 -24 23.5 -34.5t56.5 -9.5q71 2 72 42z" />
    <glyph glyph-name="integral" unicode="&#x222b;" 
d="M-26 694l-11 -32l-191 -69l21 30q-15 3 -27 12q-17 12 -18 30t12.5 31.5t32.5 13.5q18 0 30.5 -13t14.5 -32q4 -17 -6 -36l88 65h54zM-125 447h-333q-20 8 -20 28q0 5 2 10t4.5 7.5t7.5 7t7 7.5q34 37 84 40h122q47 -8 84 -41q28 -25 42 -59zM-174 666q1 15 -9.5 25.5
t-25.5 10.5q-14 0 -24 -11t-9 -25q1 -12 11.5 -20t23.5 -8q30 0 33 28zM-251 499q0 23 -56 20h-6h-11.5t-13 -0.5t-11.5 -1t-11 -2.5t-8.5 -4t-6 -6.5t-0.5 -9.5q1 -7 5 -11.5t11.5 -5.5t13 -1t17 1t15.5 1q8 1 16 0.5t16.5 0t15 2t10.5 6t4 11.5z" />
    <glyph glyph-name="approxequal" unicode="&#x2248;" 
d="M-31 604h-53v90h53v-90zM-25 447h-333q-20 8 -20 28q0 5 2 10t4.5 7.5t7.5 7t7 7.5q34 37 84 40h122q3 -17 18 -29q16 -12 36 -9v58h72v-120zM-151 501q-1 7 -5 11.5t-11.5 6t-13.5 1.5t-17 -0.5t-15 -0.5h-11h-12.5h-11.5t-11 -1.5t-8 -3.5t-6 -6t-2 -9q0 -4 1 -7.5
t3.5 -5.5t5 -3.5t7 -2.5t8 -2t9 -1h8.5h9.5h8.5h7q14 0 21.5 0.5t17.5 2.5t14.5 7t3.5 14z" />
    <glyph glyph-name="notequal" unicode="&#x2260;" 
d="M-25 704l-82 -115h-63l23 76l-44 -24l-38 24l-24 -33q-1 -2 2 -1q12 2 14 1q30 -6 30 -30q0 -12 -8.5 -21t-20.5 -9q-6 0 -10.5 1.5t-9.5 8t-6 8.5l-6 12q-15 27 -2.5 63.5t40.5 31.5q10 -2 19 -19.5t20 -18.5t22 19t22 19q29 -4 33 -45q1 -12 -28 -49q-1 -2 0 -2l3 3
q-7 -14 8 0q8 7 29 29l22 22q9 7 33 31q26 26 26 24q0 -1 -4 -6zM-137 504q2 -23 -13.5 -40t-37.5 -17t-37.5 17t-13.5 40q2 21 16 36t35 15t35 -15t16 -36zM-215 602q-2 20 -22 20q-19 0 -23 -18q-1 -10 6.5 -17t17.5 -7q21 2 21 22zM-155 504q-1 14 -10 23t-23 10
t-24.5 -9t-11.5 -24q-1 -15 10 -26t26 -10q14 1 24 11.5t9 24.5z" />
    <glyph glyph-name="lessequal" unicode="&#x2264;" 
d="M74 694l-11 -32l-191 -69l21 30q-15 3 -27 12q-17 12 -18 30t12.5 31.5t32.5 13.5q18 0 30.5 -13t14.5 -32q4 -17 -6 -36l88 65h54zM-25 447h-333q-20 8 -20 28q0 5 2 10t4.5 7.5t7.5 7t7 7.5q34 37 84 40h122q3 -17 18 -29q16 -12 36 -9v58h72v-120zM-74 666
q1 15 -9.5 25.5t-25.5 10.5q-14 0 -24 -11t-9 -25q1 -12 11.5 -20t23.5 -8q30 0 33 28zM-151 501q-1 7 -5 11.5t-11.5 6t-13.5 1.5t-17 -0.5t-15 -0.5h-11h-12.5h-11.5t-11 -1.5t-8 -3.5t-6 -6t-2 -9q0 -4 1 -7.5t3.5 -5.5t5 -3.5t7 -2.5t8 -2t9 -1h8.5h9.5h8.5h7
q14 0 21.5 0.5t17.5 2.5t14.5 7t3.5 14z" />
    <glyph glyph-name="greaterequal" unicode="&#x2265;" 
d="M74 694l-11 -32l-191 -69l21 30q-15 3 -27 12q-17 12 -18 30t12.5 31.5t32.5 13.5q18 0 30.5 -13t14.5 -32q4 -17 -6 -36l88 65h54zM-25 447h-355q-20 8 -20 28q0 5 2 10t4.5 7.5t7.5 7t7 7.5q34 37 84 40h100q1 -10 9 -18t17 -9v50h61v-65h22v65h61v-123zM-74 666
q1 15 -9.5 25.5t-25.5 10.5q-14 0 -24 -11t-9 -25q1 -12 11.5 -20t23.5 -8q30 0 33 28zM-193 499q0 7 -4 11.5t-12 6t-13.5 2t-18 0t-15.5 -0.5h-11h-12.5h-11t-10.5 -1.5t-8 -3.5t-6 -6t-2 -9t2 -9t6 -6t7.5 -3.5t10.5 -2t11 -0.5h12h11h11.5h13t11.5 0.5t11.5 2t8.5 4
t6.5 6.5t1.5 9z" />
    <glyph glyph-name="lozenge" unicode="&#x25ca;" 
d="M-15 624h-30v-19h-45v19h-33v47h33v18h45v-18h30v-47zM-2 508q-1 -26 -20 -44t-45 -17h-39h-253q-20 8 -20 28q0 5 2 10t4.5 7.5t7.5 7t7 7.5q34 37 84 40h42q3 -27 32 -41t52 0q17 10 24 30q18 36 58 36q26 0 45.5 -19t18.5 -45zM-27 512q0 16 -11.5 27t-27.5 12
q-18 1 -32 -11.5t-13 -30.5q1 -16 13.5 -26t28.5 -10q17 0 29.5 11.5t12.5 27.5zM-219 488q0 17 -22.5 20t-41.5 0h-8.5h-9.5h-9t-9 -1t-8 -2t-7.5 -2.5t-5 -3.5t-3.5 -5.5t-1 -7.5q0 -7 3.5 -11.5t11.5 -6t13.5 -2t17.5 0t15 0.5h11.5h13h11.5t11 1.5t8.5 4t6.5 6.5t2 9z
" />
    <glyph glyph-name="fi" unicode="&#xfb01;" 
d="M-7 624h-30v-19h-45v19h-33v47h33v18h45v-18h30v-47zM-21 587l-74 -61h-134q-14 -8 -20 -21q-8 -18 -1 -33h22l40 41q-6 -13 1 -25q7 -13 21 -16q4 19 18.5 30.5t34.5 10.5t34.5 -15t14.5 -34q0 -21 -14 -36t-35 -16q-33 -1 -53 40q-6 13 -31 11q-13 -1 -13 -8q0 -1 1 -3
l21 -40h-60q-18 0 -30 12t-12 29v73q0 20 15 32q12 9 27 9h167zM-78 464q0 15 -10 25t-25 11t-26 -10t-11 -26t10.5 -26.5t25.5 -11.5t25.5 11.5t10.5 26.5z" />
    <glyph glyph-name="fl" unicode="&#xfb02;" 
d="M-115 624h-30v-19h-45v19h-33v47h33v18h45v-18h30v-47zM-102 508q-1 -26 -20 -44t-45 -17h-39h-253q-20 8 -20 28q0 5 2 10t4.5 7.5t7.5 7t7 7.5q34 37 84 40h42q3 -27 32 -41t52 0q17 10 24 30q18 36 58 36q26 0 45.5 -19t18.5 -45zM-127 512q0 16 -11.5 27t-27.5 12
q-18 1 -32 -11.5t-13 -30.5q1 -16 13.5 -26t28.5 -10q17 0 29.5 11.5t12.5 27.5zM-319 488q0 17 -22.5 20t-41.5 0h-8.5h-9.5h-9t-9 -1t-8 -2t-7.5 -2.5t-5 -3.5t-3.5 -5.5t-1 -7.5q0 -7 3.5 -11.5t11.5 -6t13.5 -2t17.5 0t15 0.5h11.5h13h11.5t11 1.5t8.5 4t6.5 6.5t2 9z
" />
    <glyph glyph-name="apple" 
d="M-22 715l-24 -46l-99 -8q-5 -2 -4.5 -4.5t2.5 -8t1 -8.5q-4 -47 -28 -55q-18 -6 -35 1t-24 24q-8 18 1 37.5t25 25.5q47 11 69 2zM-125 447h-355q-20 8 -20 28q0 5 2 10t4.5 7.5t7.5 7t7 7.5q34 37 84 40h100q1 -10 9 -18t17 -9v50h61v-65h22v65h61v-123zM-164 619
q4 10 -1.5 19.5t-16.5 13.5q-11 5 -22 0.5t-15 -16.5q-8 -23 17 -35q12 -4 23.5 1t14.5 17zM-293 499q0 7 -4 11.5t-12 6t-13.5 2t-18 0t-15.5 -0.5h-11h-12.5h-11t-10.5 -1.5t-8 -3.5t-6 -6t-2 -9t2 -9t6 -6t7.5 -3.5t10.5 -2t11 -0.5h12h11h11.5h13t11.5 0.5t11.5 2t8.5 4
t6.5 6.5t1.5 9z" />
  </font>
</defs>
</svg>
