<?xml version="1.0" standalone="no"?>
<!DOCTYPE svg PUBLIC "-//W3C//DTD SVG 1.1//EN" "http://www.w3.org/Graphics/SVG/1.1/DTD/svg11.dtd" >
<svg>
<metadata>
Created by FontForge 20090622 at Tue Jul 11 09:18:59 2017
 By deploy user
Copyright &#194;&#169; 2006 Typodermic Do not distribute. Report piracy to piracy@typodermic.com. Visit www.typodermic.com and www.larabiefonts.com
</metadata>
<defs>
<font id="Marion-Bold" horiz-adv-x="513" >
  <font-face 
    font-family="Marion"
    font-weight="700"
    font-stretch="normal"
    units-per-em="1000"
    panose-1="2 2 8 2 6 4 0 2 0 3"
    ascent="769"
    descent="-231"
    x-height="433"
    cap-height="705"
    bbox="-450 -309 1372 891"
    underline-thickness="50"
    underline-position="-50"
    unicode-range="U+0020-U+FB04"
  />
<missing-glyph horiz-adv-x="788" 
d="M394 714q78 0 143.5 -27t113 -75t74.5 -115.5t27 -148.5q0 -77 -25.5 -143t-72 -115.5t-112.5 -77.5t-148 -28t-148.5 28.5t-113 77.5t-72 115.5t-25.5 142.5q0 78 28 145t76.5 116t114 77t140.5 28zM397 664q-61 0 -114.5 -23t-93.5 -65t-63 -100t-23 -128
q0 -86 29 -146.5t72.5 -98t95 -54.5t97.5 -17q80 0 136 30.5t91 77t51 102t16 106.5q0 84 -29 143.5t-73 98t-95.5 56.5t-96.5 18z" />
    <glyph glyph-name=".notdef" horiz-adv-x="788" 
d="M394 714q78 0 143.5 -27t113 -75t74.5 -115.5t27 -148.5q0 -77 -25.5 -143t-72 -115.5t-112.5 -77.5t-148 -28t-148.5 28.5t-113 77.5t-72 115.5t-25.5 142.5q0 78 28 145t76.5 116t114 77t140.5 28zM397 664q-61 0 -114.5 -23t-93.5 -65t-63 -100t-23 -128
q0 -86 29 -146.5t72.5 -98t95 -54.5t97.5 -17q80 0 136 30.5t91 77t51 102t16 106.5q0 84 -29 143.5t-73 98t-95.5 56.5t-96.5 18z" />
    <glyph glyph-name="space" unicode=" " horiz-adv-x="340" 
 />
    <glyph glyph-name="exclam" unicode="!" horiz-adv-x="356" 
d="M140 201q-8 83 -16 143t-15 102.5t-13 71l-10.5 48.5t-7 35t-2.5 30q0 42 27 61.5t63 19.5q34 0 61.5 -20t27.5 -61q0 -16 -2.5 -31.5t-7 -36.5t-11.5 -50t-15 -71.5t-17 -101.5t-19 -139h-43zM162 132q73 0 73 -74q0 -73 -73 -73q-78 0 -78 73q0 74 78 74z" />
    <glyph glyph-name="quotedbl" unicode="&#x22;" horiz-adv-x="339" 
d="M68 440q-33 174 -33 230q0 42 54 42q50 0 50 -42q0 -58 -36 -230h-35zM232 440q-16 88 -24 145t-8 85q0 42 54 42q50 0 50 -42q0 -30 -9 -87.5t-28 -142.5h-35z" />
    <glyph glyph-name="numbersign" unicode="#" horiz-adv-x="592" 
d="M459 469h98l-10 -69h-106q-6 -31 -10.5 -58t-10.5 -58h101l-10 -68h-105l-24.5 -109l-23.5 -107h-72l46 216h-110l-22 -109l-22 -107h-77l48 216h-114l10 68h118l9.5 58t10.5 58h-112l8 47t5 22h114l23.5 108l23.5 108h74l-45 -216h109l23 108l23 108h74zM260 400
l-25 -116h112q5 31 10.5 57.5t11.5 58.5h-109z" />
    <glyph glyph-name="dollar" unicode="$" horiz-adv-x="512" 
d="M276 672q170 -9 170 -135q0 -62 -47 -62q-45 0 -45 42q0 10 4 19t4 20q0 59 -86 68v-225q6 -4 11.5 -6t8.5 -4q33 -14 65.5 -30t58 -37.5t41.5 -51t16 -71.5q0 -215 -201 -218v-84q0 -19 -22 -19q-26 0 -26 19v85q-100 6 -146.5 44.5t-46.5 110.5q0 89 51 89q41 0 41 -47
q0 -23 -5 -36t-5 -25q0 -13 7.5 -26t22 -23.5t35 -18t46.5 -9.5v274l-66 31t-59 34.5t-42.5 46t-16.5 66.5q0 169 184 179v77q0 18 22 18q26 0 26 -18v-77zM276 41q57 5 82 35.5t25 87.5q0 27 -7 46.5t-20.5 34t-33.5 26t-46 23.5v-253zM228 624q-51 -5 -71 -28.5t-20 -66.5
q0 -40 21.5 -64t69.5 -44v203z" />
    <glyph glyph-name="percent" unicode="%" horiz-adv-x="799" 
d="M235 681q137 0 137 -164q0 -192 -188 -192q-149 0 -149 168q0 188 200 188zM239 643q-115 0 -115 -177q0 -99 67 -99q120 0 120 150q0 126 -72 126zM233 0h-67l396 696h71zM627 347q137 0 137 -164q0 -191 -188 -191q-148 0 -148 168q0 187 199 187zM631 310
q-115 0 -115 -177q0 -100 68 -100q119 0 119 150q0 127 -72 127z" />
    <glyph glyph-name="ampersand" unicode="&#x26;" horiz-adv-x="839" 
d="M785 388q-29 -1 -47.5 -12t-32 -29t-23.5 -41.5t-22.5 -49.5t-29.5 -53.5t-43 -52.5l24.5 -22t30.5 -25.5t32 -21t30 -8.5q15 0 31 7t30 17.5t24 22.5t13 21l39 -17q-4 -24 -16.5 -48.5t-32.5 -44t-49 -31.5t-66 -12q-24 0 -50.5 4.5t-53 14.5t-50.5 24.5t-42 34.5
q-40 -37 -89 -57.5t-103 -20.5q-118 0 -186 48t-68 147q0 69 44.5 127t129.5 103q-9 16 -20 32.5l-21 33t-16.5 32t-6.5 30.5q0 41 18 71.5t48 51t68.5 30.5t79.5 10q82 0 133 -34t51 -102q0 -25 -14 -49t-36 -45.5t-49.5 -41t-55.5 -35.5q35 -51 75.5 -102l86.5 -108
q68 74 68 134q0 67 -90 67v45h257v-45zM450 108l-119.5 135t-98.5 132q-18 -11 -28.5 -24.5t-16 -33t-7 -47.5t-1.5 -68q0 -27 7.5 -51.5t25 -43.5t46 -30.5t71.5 -11.5q29 0 59 7.5t62 35.5zM360 436q20 19 31.5 37t17.5 34t7.5 30.5t1.5 26.5q0 48 -10 71.5t-49 23.5
q-29 0 -38.5 -21t-9.5 -66q0 -22 7 -56.5t42 -79.5z" />
    <glyph glyph-name="quotesingle" unicode="'" horiz-adv-x="175" 
d="M68 440q-16 88 -24.5 145t-8.5 85q0 42 55 42q50 0 50 -42q0 -28 -9.5 -85t-27.5 -145h-35z" />
    <glyph glyph-name="parenleft" unicode="(" horiz-adv-x="306" 
d="M270 696q-38 -38 -61.5 -83.5t-36.5 -98.5t-17.5 -112.5t-4.5 -124.5q0 -55 4.5 -108t17.5 -104t36.5 -99.5t61.5 -95.5l-12 -38q-112 115 -167.5 224t-55.5 221q0 138 55.5 249.5t167.5 205.5z" />
    <glyph glyph-name="parenright" unicode=")" horiz-adv-x="306" 
d="M49 729q112 -115 166.5 -224.5t54.5 -218.5q0 -138 -56 -248.5t-165 -207.5l-14 37q38 37 61.5 82t37 97.5t18 112.5t4.5 127q0 54 -4.5 107t-17.5 104t-37 100.5t-62 96.5z" />
    <glyph glyph-name="asterisk" unicode="*" horiz-adv-x="478" 
d="M275 487q0 -10 12 -25l26 -31.5t26 -33.5t12 -32q0 -18 -12 -29t-27 -11q-24 0 -36 22.5t-18.5 50t-10 50t-8.5 22.5q-6 0 -10 -22.5t-10.5 -50t-18.5 -50t-34 -22.5q-17 0 -28.5 11t-11.5 30q0 15 12 33.5t26.5 36.5t26.5 31.5t12 18.5q0 1 -3 1q-10 0 -25 -7.5
l-32 -16.5t-34 -16.5t-32 -7.5q-20 0 -31 11.5t-11 28.5q0 22 19 34.5t57 12.5q22 0 36.5 -2.5t31.5 -2.5q15 0 15 5q0 8 -19.5 16.5t-43.5 20t-43.5 25.5t-19.5 33q0 17 11.5 28t28.5 11t34.5 -16t32.5 -35.5l26.5 -35.5t17.5 -16q1 0 1 7q0 27 -10 54.5t-10 59.5
q0 23 11.5 34.5t28.5 11.5q14 0 27.5 -11.5t13.5 -34.5q0 -15 -3.5 -29.5t-8 -29t-8 -28.5t-3.5 -29q0 -5 1 -5q8 0 20.5 16l27.5 35.5t31.5 35.5t32.5 16q17 0 28.5 -11.5t11.5 -28.5t-20 -32t-43.5 -27t-43.5 -21t-20 -14q0 -2 10.5 -2.5t23.5 -0.5q22 0 34 0.5t20 0.5
q70 0 70 -46q0 -16 -10.5 -28t-30.5 -12q-15 0 -32 7.5t-34 17t-32.5 17t-27.5 7.5z" />
    <glyph glyph-name="plus" unicode="+" horiz-adv-x="582" 
d="M330 392h197v-80h-197v-192h-84v192h-196v80h196v200h84v-200z" />
    <glyph glyph-name="comma" unicode="," horiz-adv-x="279" 
d="M53 -133q34 22 53 40t28 32.5t10.5 25.5t1.5 20q0 19 -17 19q-66 0 -66 58q0 74 70 74q89 0 89 -106q0 -66 -37.5 -112.5t-109.5 -84.5z" />
    <glyph glyph-name="hyphen" unicode="-" horiz-adv-x="327" 
d="M292 232h-257v76h257v-76z" />
    <glyph glyph-name="period" unicode="." horiz-adv-x="259" 
d="M132 132q73 0 73 -74q0 -73 -73 -73q-78 0 -78 73q0 74 78 74z" />
    <glyph glyph-name="slash" unicode="/" horiz-adv-x="417" 
d="M97 -55h-83l296 767h83z" />
    <glyph glyph-name="zero" unicode="0" horiz-adv-x="588" 
d="M300 717q50 0 95.5 -20.5t80.5 -64t55.5 -110t20.5 -159.5q0 -95 -21 -166t-57 -118t-85 -70.5t-105 -23.5q-53 0 -98.5 24t-79 69.5t-52.5 110t-19 145.5q0 99 21 171t57 119t84.5 70t102.5 23zM273 658q-26 0 -40.5 -27.5t-22 -69t-9 -91t-1.5 -94.5q0 -77 3 -138.5
t13.5 -104.5t30.5 -66.5t53 -23.5t51 23.5t26.5 62.5t10 89.5t1.5 104.5q0 31 -0.5 68t-4 74t-10.5 72t-20 62t-32.5 43t-48.5 16z" />
    <glyph glyph-name="one" unicode="1" horiz-adv-x="482" 
d="M334 711q-9 -45 -9 -73v-533q0 -60 122 -60v-45h-408v45q122 0 122 60v451q0 37 -32 37h-94v43q40 6 72.5 12t59.5 15.5t51.5 23t49.5 34.5z" />
    <glyph glyph-name="two" unicode="2" horiz-adv-x="552" 
d="M475 0h-355q-20 0 -40 -1t-40 -4l-5 38q137 137 213.5 256t76.5 233q0 29 -3.5 52.5t-14 40t-28.5 25t-48 8.5q-54 0 -82 -23t-30 -55q36 -14 36 -44q0 -57 -50 -57q-49 0 -49 73q0 81 52.5 128t161.5 47q48 0 88.5 -12.5t70.5 -36.5t46.5 -59t16.5 -80q0 -71 -31 -131.5
t-79 -113.5t-106.5 -99.5l-114.5 -88.5h164q26 0 44.5 3t32 12.5t24 26.5t20.5 45l71 -6z" />
    <glyph glyph-name="three" unicode="3" horiz-adv-x="519" 
d="M178 346q-18 0 -18 23q0 27 18 27q35 0 56.5 9.5t33.5 28t16 45t4 60.5q0 54 -16.5 84.5t-54.5 30.5q-36 0 -57 -12.5t-22 -29.5q8 -7 13.5 -17t5.5 -21q0 -51 -49 -51q-47 0 -47 49q0 69 47.5 107t144.5 38q42 0 77.5 -10t61.5 -30.5t41 -51.5t15 -74q0 -36 -10 -61
t-29 -43t-45 -29.5t-58 -19.5q82 -13 130 -58.5t48 -129.5q0 -56 -21 -98.5t-59 -70.5t-91.5 -42t-118.5 -14q-169 0 -169 109q0 57 58 57q43 0 43 -41q0 -31 -19 -40q8 -26 60 -26q43 0 70 10.5t42.5 30.5t21.5 50.5t6 71.5q0 69 -17 104t-60 35h-52z" />
    <glyph glyph-name="four" unicode="4" horiz-adv-x="579" 
d="M462 715q-6 -23 -9.5 -45t-3.5 -43v-329q0 -14 8 -14h40q14 0 27.5 3t29.5 8v-90h-97q-8 0 -8 -14v-110q0 -36 46 -36v-45h-257v45q51 0 51 36v110q0 14 -14 14h-253v48l363 468zM105 284h170q14 0 14 14v212z" />
    <glyph glyph-name="five" unicode="5" horiz-adv-x="523" 
d="M483 737q-13 -34 -36 -59.5t-51.5 -42t-61 -25t-65.5 -8.5q-54 0 -100 9l-31 -171q11 6 23 10t28 6.5t37 3.5t49 1q41 0 79.5 -10t68 -36.5t47.5 -72.5t18 -118q0 -59 -20.5 -103.5t-56.5 -74.5t-84 -45.5t-102 -15.5q-107 0 -152 22.5t-45 69.5q0 46 39 46q38 0 38 -38
q0 -15 -13 -28q23 -20 84 -20q43 0 70 12t42.5 36t21.5 59t6 80q0 41 -4 72.5t-15.5 53t-33 32.5t-55.5 11q-68 0 -103 -53l-46 20l59 354q90 -12 164 -12q26 0 52.5 2t50.5 6.5t43 11t30 15.5h25z" />
    <glyph glyph-name="six" unicode="6" horiz-adv-x="585" 
d="M400 642q-22 5 -34 5q-26 0 -53 -15.5t-49.5 -50.5t-37.5 -90.5t-18 -135.5q25 32 63 47t80 15q36 0 71.5 -11.5t63.5 -34.5t45.5 -57.5t17.5 -79.5q0 -71 -18 -118.5t-50.5 -76.5t-77.5 -41.5t-99 -12.5q-141 0 -205 71t-64 214q0 100 27 181t73.5 138t109.5 88t135 31
q96 0 96 -73q0 -47 -44 -47q-36 0 -36 33q0 14 4 21zM292 354q-29 0 -45.5 -9.5t-25 -28.5t-11 -47.5t-2.5 -65.5q0 -30 3 -59.5t13 -52t29 -36.5t51 -14q27 0 43.5 12t24.5 33t10.5 49t2.5 60q0 82 -18.5 120.5t-74.5 38.5z" />
    <glyph glyph-name="seven" unicode="7" horiz-adv-x="446" 
d="M446 653q-19 -31 -37 -73t-34.5 -87t-30.5 -88.5t-24 -77.5q-20 -66 -33 -134.5t-13 -134.5q0 -37 -21 -55t-54 -18t-59.5 16t-26.5 49q0 29 9.5 68t24 80t31.5 80.5l31 69.5q21 44 46.5 83l47 69l36.5 50t15 26q0 4 -3 4h-207q-37 0 -65 -97l-57 17l26 210
q26 -4 51 -4.5t57 -0.5h290v-52z" />
    <glyph glyph-name="eight" unicode="8" horiz-adv-x="590" 
d="M387 393q34 -11 64.5 -26t53.5 -37.5t36 -55t13 -78.5q0 -57 -22.5 -97t-59 -65.5t-84 -37t-97.5 -11.5q-45 0 -91 8.5t-82.5 30.5t-59.5 58.5t-23 92.5q0 66 40.5 109.5t115.5 63.5q-57 22 -94 63t-37 109q0 57 19 93.5t52 57.5t77.5 29t94.5 8q34 0 73.5 -8.5
t72.5 -27.5t55 -49.5t22 -74.5q0 -34 -12.5 -60.5t-32 -46t-44.5 -31.5t-50 -17zM259 319q-26 -6 -41 -20.5t-23.5 -34t-11 -44t-2.5 -49.5q0 -63 29 -102t89 -39q54 0 81.5 34t27.5 91q0 33 -12.5 57.5t-33.5 43.5t-48 34t-55 29zM335 416q33 18 41 52t8 73q0 54 -18.5 83
t-70.5 29q-48 0 -66 -24t-18 -73q0 -63 35 -96t89 -44z" />
    <glyph glyph-name="nine" unicode="9" horiz-adv-x="590" 
d="M187 46q28 -5 36 -5q30 0 58.5 16t50.5 49t36 83.5t15 119.5q-26 -32 -63 -48t-79 -16q-33 0 -69.5 12.5t-66.5 39t-50 67.5t-20 98q0 68 19 115t53 76t79.5 42t99.5 13q60 0 109 -18t84.5 -54.5t55 -91t19.5 -127.5q0 -99 -24.5 -179t-69 -136.5t-106 -86.5t-136.5 -30
q-103 0 -103 77q0 44 44 44q36 0 36 -32q0 -14 -8 -28zM286 654q-27 0 -43 -10t-24.5 -30.5t-10.5 -52.5t-2 -75t3 -75t12.5 -53.5t27.5 -32.5t49 -11q27 0 44 10.5t26 31t12 51.5t3 72q0 46 -3 79.5t-13.5 54.5t-29.5 31t-51 10z" />
    <glyph glyph-name="colon" unicode=":" horiz-adv-x="261" 
d="M131 132q73 0 73 -74q0 -73 -73 -73q-78 0 -78 73q0 74 78 74zM204 364q0 -73 -73 -73q-78 0 -78 73t78 73q73 0 73 -73z" />
    <glyph glyph-name="semicolon" unicode=";" horiz-adv-x="266" 
d="M204 364q0 -73 -73 -73q-77 0 -77 73t77 73q73 0 73 -73zM47 -133q34 22 53 40t28 32.5t10.5 25.5t1.5 20q0 19 -18 19q-65 0 -65 58q0 74 69 74q90 0 90 -106q0 -66 -37.5 -112.5t-109.5 -84.5z" />
    <glyph glyph-name="less" unicode="&#x3c;" horiz-adv-x="437" 
d="M402 472l-262 -121l262 -120v-74l-367 172v44l367 172v-73z" />
    <glyph glyph-name="equal" unicode="=" horiz-adv-x="535" 
d="M488 393h-441v77h441v-77zM488 236h-441v77h441v-77z" />
    <glyph glyph-name="greater" unicode="&#x3e;" horiz-adv-x="437" 
d="M402 332l-367 -172v73l262 119l-262 122v74l367 -172v-44z" />
    <glyph glyph-name="question" unicode="?" horiz-adv-x="425" 
d="M201 201h-38q-14 34 -14 76q0 31 7.5 55t18.5 44.5t24.5 39t24.5 38.5t18.5 43.5t7.5 54.5q0 20 -1.5 36.5t-8.5 28t-21.5 17.5t-39.5 6q-13 0 -28.5 -5.5t-20.5 -17.5q8 -5 8 -26q0 -23 -13.5 -36.5t-39.5 -13.5q-42 0 -42 59q0 54 43 81t121 27q37 0 70.5 -6
t58.5 -22.5t39.5 -47.5t14.5 -80q0 -42 -14 -72.5t-35 -54.5t-45.5 -43t-45.5 -38.5t-35 -41.5t-14 -52v-49zM183 132q73 0 73 -74q0 -73 -73 -73q-78 0 -78 73q0 74 78 74z" />
    <glyph glyph-name="at" unicode="@" horiz-adv-x="758" 
d="M499 248q5 -62 29 -62q64 0 89 60.5t25 168.5t-53 162.5t-179 54.5q-74 0 -127.5 -22t-88 -61t-51.5 -92.5t-17 -116.5q0 -67 19 -121t55 -92t88 -58.5t118 -20.5q123 0 237 90l32 -37q-107 -113 -280 -113q-179 0 -269.5 86t-90.5 266q0 182 93.5 269t277.5 87
q317 0 317 -281q0 -270 -215 -270q-68 0 -71 66q-48 -62 -109 -62q-33 0 -57.5 12t-40.5 33t-23.5 48.5t-7.5 57.5q0 39 13 79.5t37.5 73.5t60 54t81.5 21q38 0 55.5 -12.5t28.5 -40.5l7.5 20.5t5.5 19.5h89zM449 417q0 33 -12.5 49t-45.5 16q-18 0 -33.5 -20t-26 -50
t-16.5 -66t-6 -67q0 -36 8 -60.5t26 -24.5q20 0 40 21.5t34 72.5z" />
    <glyph glyph-name="A" unicode="A" horiz-adv-x="740" 
d="M676 85q5 -12 14.5 -19.5t21.5 -12t24.5 -6.5t24.5 -3v-44h-359v44l31 4t29.5 5t22 6t8.5 8t-2.5 12l-5.5 16l-47 129q-5 11 -21 16.5t-36 5.5h-155q-34 0 -41 -22l-35 -108q-4 -7 -4 -26q0 -41 91 -41v-49h-248v49q60 5 88 72l252 601l99 -13zM232 345q-11 -27 -11 -32
q0 -9 33 -9h131q25 0 25 5q-2 3 -5.5 17t-14.5 40l-73 182z" />
    <glyph glyph-name="B" unicode="B" horiz-adv-x="778" 
d="M330 418q0 -23 23 -23q51 0 82.5 7t48.5 22.5t22.5 40t5.5 59.5q0 32 -4.5 56t-16 39.5t-32 23.5t-52.5 8q-42 0 -59.5 -8t-17.5 -24v-201zM418 705q134 0 200 -38t66 -132q0 -66 -39.5 -102t-112.5 -54q46 -8 82.5 -20.5t61.5 -34.5t38 -54t13 -79q0 -60 -23 -97.5
t-62 -59.5t-90.5 -30t-107.5 -8q-91 0 -184.5 1.5t-204.5 2.5v45q99 0 99 52v496q0 66 -103 66v46h367zM330 83q0 -17 19 -25.5t65 -8.5q69 0 101.5 32.5t32.5 111.5q0 47 -11 76t-35 45t-61 21.5t-88 5.5q-23 0 -23 -33v-225z" />
    <glyph glyph-name="C" unicode="C" horiz-adv-x="719" 
d="M601 461q-26 108 -72 155t-125 47q-54 0 -88 -24t-53.5 -63t-27 -89.5t-7.5 -102.5q0 -71 8.5 -133t30.5 -107.5t60.5 -72t98.5 -26.5q77 0 128.5 42.5t89.5 139.5l45 -17q-15 -51 -42 -93t-64 -71.5t-82.5 -45.5t-97.5 -16q-97 0 -164 27t-109 75t-60.5 113t-18.5 141
q0 82 17 151.5t54.5 119.5t97 78t143.5 28q25 0 52.5 -3t54.5 -10t51 -18.5t41 -27.5q26 41 75 56q39 -92 39 -253h-75z" />
    <glyph glyph-name="D" unicode="D" horiz-adv-x="845" 
d="M51 706q26 -3 50 -4t48 -1q33 0 60.5 1t59 2.5t74 3t105.5 1.5q83 0 147.5 -19.5t108.5 -62.5t67 -111t23 -164q0 -91 -19.5 -157.5t-63.5 -109.5t-114.5 -64t-172.5 -21h-370v45q31 0 50.5 3t30 12.5t14.5 27t4 46.5v433q0 36 -5 52.5t-17 23t-31.5 8.5t-48.5 9v46z
M329 126q0 -25 4.5 -39.5t14.5 -21.5t27 -9t41 -2q103 0 154.5 72t51.5 226q0 152 -51 225.5t-172 73.5q-22 0 -35.5 -1.5t-21 -7.5t-10.5 -17.5t-3 -30.5v-468z" />
    <glyph glyph-name="E" unicode="E" horiz-adv-x="738" 
d="M670 497l-65 -6q-10 58 -27.5 90t-43 46.5t-58.5 17t-74 2.5q-73 0 -73 -40v-187q0 -12 5 -18.5t19 -6.5q25 0 46.5 3t38 14t27 33t14.5 61h61v-283h-61q-4 37 -11.5 59t-21 34t-33.5 16t-48 5q-36 -3 -36 -28v-199q0 -52 80 -52q64 0 103.5 10t63.5 31t39 53.5t31 76.5
l60 -9l-29 -220h-618v45q95 0 95 61v473q0 80 -103 80v46h611z" />
    <glyph glyph-name="F" unicode="F" horiz-adv-x="674" 
d="M667 501l-70 -6q-10 52 -27.5 82.5t-43.5 46t-62 19.5t-82 4q-57 0 -57 -36v-183q0 -33 53 -33q27 0 43 5t26 17t15.5 32.5t11.5 52.5h58v-279h-59v27q0 13 -3 28.5t-15 28.5t-35 21.5t-63 8.5q-20 0 -26 -6.5t-6 -17.5v-191q0 -77 108 -77v-45h-374v45q91 0 91 77v453
q0 84 -99 84v46h598z" />
    <glyph glyph-name="G" unicode="G" horiz-adv-x="771" 
d="M611 461q-26 108 -72 155t-125 47q-54 0 -88 -24t-53.5 -63t-27 -89.5t-7.5 -102.5q0 -48 3.5 -107.5t19.5 -112t50 -88t95 -35.5q66 0 98 32t32 108q0 101 -107 101v45h342v-45q-92 0 -92 -72v-222h-38q-20 9 -39.5 23.5t-33.5 31.5q-37 -28 -85.5 -43.5t-99.5 -15.5
q-158 0 -245 89t-87 267q0 82 19 151.5t58 119.5t100 78t145 28q25 0 52.5 -3t54.5 -10t51 -18.5t41 -27.5q26 41 75 56q39 -92 39 -253h-75z" />
    <glyph glyph-name="H" unicode="H" horiz-adv-x="925" 
d="M874 659q-96 0 -96 -84v-465q0 -65 96 -65v-45h-375v45q104 0 104 65v215q-11 5 -29 8.5t-44 3.5h-128q-39 0 -69 -12v-215q0 -65 96 -65v-45h-378v45q107 0 107 65v465q0 84 -107 84v46h378v-46q-96 0 -96 -84v-174q26 -10 69 -10h128q52 0 73 9v175q0 84 -104 84v46
h375v-46z" />
    <glyph glyph-name="I" unicode="I" horiz-adv-x="480" 
d="M425 659q-95 0 -95 -84v-465q0 -65 100 -65v-45h-375v45q99 0 99 65v465q0 84 -103 84v46h374v-46z" />
    <glyph glyph-name="J" unicode="J" horiz-adv-x="534" 
d="M506 659q-88 0 -88 -84v-326q0 -54 -16 -102t-45.5 -83t-72 -55.5t-96.5 -20.5q-29 0 -60.5 9.5t-58 26.5t-44 41t-17.5 53q0 31 18 54.5t49 23.5q54 0 54 -50q0 -51 -34 -51q-4 0 -8 0.5t-9 1.5q8 -20 29.5 -31.5t50.5 -11.5q30 0 47 20.5t25.5 51.5t10.5 67t2 68v310
q0 88 -107 88v46h370v-46z" />
    <glyph glyph-name="K" unicode="K" horiz-adv-x="852" 
d="M820 660q-29 -3 -49 -8.5t-39 -16.5t-40 -29.5l-52 -47.5l-119 -114l228 -330q22 -32 49.5 -51t78.5 -18v-45h-367v45q60 0 60 10q0 7 -5 20.5t-20 36.5l-144 216l-41 -38q-12 -11 -19.5 -23t-10.5 -29v-128q0 -32 21 -48.5t73 -16.5v-45h-365v45q95 0 95 65v480
q0 69 -103 69v46h370v-46q-91 0 -91 -69v-238l230 220q23 22 31 34t8 32q0 21 -72 21v46h293v-45z" />
    <glyph glyph-name="L" unicode="L" horiz-adv-x="680" 
d="M425 659q-96 0 -96 -73v-492q0 -36 61 -36h19q46 0 79 3t58 19.5t44.5 52t39.5 100.5l61 -6l-34 -227h-594v45q91 0 91 49v492q0 73 -103 73v46h374v-46z" />
    <glyph glyph-name="M" unicode="M" horiz-adv-x="1034" 
d="M975 659q-32 0 -51.5 -5t-30 -12.5t-14 -18t-3.5 -20.5l12 -481q2 -77 95 -77v-45h-337v45q92 0 92 70l-8 445l-211 -560h-96l-227 556l-4 -426q-1 -85 104 -85v-45h-265v45q48 0 73.5 22.5t26.5 70.5l8 465q0 12 -2 22.5t-12.5 18t-31.5 11.5t-58 4v46h285l206 -515
l197 515h252v-46z" />
    <glyph glyph-name="N" unicode="N" horiz-adv-x="789" 
d="M778 659q-97 0 -97 -108v-554l-36 -10l-452 476v-301q0 -117 108 -117v-45h-265v45q89 0 89 117v461q0 36 -104 36v46h201l399 -427v273q0 108 -107 108v46h264v-46z" />
    <glyph glyph-name="O" unicode="O" horiz-adv-x="834" 
d="M404 667q-58 0 -93 -25.5t-53.5 -68.5t-24.5 -99.5t-6 -117.5q0 -68 8.5 -126t30 -101t59 -67.5t95.5 -24.5q56 0 92 24t57 66t29 99t8 122q0 61 -8 118.5t-30 102t-61.5 71.5t-102.5 27zM788 356q0 -90 -28.5 -159.5t-79 -116.5t-119 -71.5t-149.5 -24.5
q-76 0 -143 20.5t-117 65t-79 113.5t-29 165t28 166t77 115t116.5 66.5t146.5 21.5q77 0 145.5 -22.5t119.5 -68t81 -113t30 -157.5z" />
    <glyph glyph-name="P" unicode="P" horiz-adv-x="731" 
d="M291 705q21 0 37 0.5t31 1.5t30 1.5t32 0.5q141 0 206 -52t65 -158q0 -41 -14.5 -77t-47.5 -62.5t-85.5 -42t-127.5 -15.5q-32 0 -52.5 2t-39.5 7v-193q0 -73 104 -73v-45h-374v45q95 0 95 69v489q0 56 -99 56v46h240zM325 365q20 -5 41.5 -7.5t50.5 -2.5q33 0 51.5 12.5
t27.5 33t11.5 47t2.5 55.5q0 39 -6.5 68t-23 48.5t-45 29.5t-72.5 10q-38 0 -38 -48v-246z" />
    <glyph glyph-name="Q" unicode="Q" horiz-adv-x="834" 
d="M798 -54q-12 -41 -30.5 -65t-39 -36.5t-41.5 -16t-38 -3.5q-58 0 -108 36t-92 124q-80 0 -152 18.5t-127 61.5t-87 112.5t-32 170.5q0 96 28 166t77 115t116.5 66.5t146.5 21.5q77 0 145.5 -22.5t119.5 -68t81 -113t30 -157.5q0 -67 -16 -122.5t-45.5 -99t-70.5 -75
t-91 -49.5q10 -22 25 -41.5t31.5 -34t34 -23t33.5 -8.5q41 0 60 43h42zM411 667q-58 0 -93 -25.5t-53.5 -68.5t-24.5 -99.5t-6 -117.5q0 -68 8.5 -126t30 -101t59 -67.5t95.5 -24.5q56 0 92 24t57 66t29 99t8 122q0 61 -8 118.5t-30 102t-61.5 71.5t-102.5 27z" />
    <glyph glyph-name="R" unicode="R" horiz-adv-x="799" 
d="M362 651q-32 0 -32 -52v-197q5 -11 17 -11h26q28 0 51.5 3.5t40 17t25.5 40t9 72.5q0 37 -9 62t-24.5 39t-37 20t-45.5 6h-21zM813 104q0 -14 -10 -34t-28 -38t-44 -31t-59 -13q-66 0 -96.5 20t-41.5 52l-38.5 114t-35.5 87t-43.5 56t-61.5 20q-21 0 -25 -7v-224
q0 -61 95 -61v-45h-366v45q91 0 91 61v493q0 60 -99 60v46h167q35 0 60 1t51.5 1.5t60.5 1.5t88 1q56 0 95 -14t64 -38t36 -57t11 -70q0 -72 -55.5 -118t-149.5 -57q39 -5 66 -12.5t46.5 -19.5t32.5 -29.5t24 -41.5q15 -34 23.5 -67.5t17 -60t20 -43t32.5 -16.5q24 0 37 49z
" />
    <glyph glyph-name="S" unicode="S" horiz-adv-x="604" 
d="M457 476q-8 42 -21 77t-31.5 60.5t-42.5 39.5t-54 14q-61 0 -95 -24t-34 -66q0 -29 12 -47.5t34 -32.5t54 -26l73 -28q46 -18 84 -36t65.5 -43.5t42.5 -62t15 -91.5q0 -53 -18 -95t-50 -71t-77 -44.5t-100 -15.5q-39 0 -76 10t-65 34q-20 -14 -43 -26.5t-48 -19.5
q-13 37 -18.5 75t-5.5 78q0 27 2 54t6 55h69q0 -35 9 -71.5t29.5 -66.5t52.5 -49.5t78 -19.5q41 0 69.5 9t46 25t25.5 36.5t8 44.5q0 38 -18.5 62.5t-63.5 39.5q-65 22 -119.5 44.5t-94 52.5t-62 71.5t-22.5 101.5q0 46 17.5 82.5t47.5 62t70 39t85 13.5q39 0 75 -14.5
t61 -48.5q12 21 34 35t44 21q16 -52 20 -116t4 -122h-74z" />
    <glyph glyph-name="T" unicode="T" horiz-adv-x="682" 
d="M673 481l-61 -5q-6 83 -36.5 125t-104.5 42q-45 0 -45 -28v-481q0 -89 112 -89v-45h-398v45q111 0 111 89v481q0 32 -44 32q-33 0 -57 -11t-41 -33.5t-29.5 -56t-22.5 -78.5l-65 10l29 236q28 -5 60.5 -7t52.5 -2h420q23 0 57.5 2t61.5 7v-233z" />
    <glyph glyph-name="U" unicode="U" horiz-adv-x="799" 
d="M791 659q-87 0 -87 -84v-318q0 -62 -12 -112t-42.5 -86t-84 -55.5t-136.5 -19.5q-63 0 -115.5 17.5t-90.5 48.5t-59 74t-21 94v372q0 69 -99 69v46h373v-46q-99 0 -99 -69v-345q0 -35 6 -70.5t22.5 -64t45.5 -47t76 -18.5q93 0 133.5 50.5t40.5 149.5v330q0 84 -107 84
v46h256v-46z" />
    <glyph glyph-name="V" unicode="V" horiz-adv-x="749" 
d="M756 659h-39q-28 0 -49 -51l-253 -624l-104 8l-239 604q-30 63 -91 63v46h354v-46h-54q-30 0 -30 -13q0 -23 8 -45l169 -449l156 428q4 8 4 35q0 44 -96 44v46h264v-46z" />
    <glyph glyph-name="W" unicode="W" horiz-adv-x="1042" 
d="M1057 659q-63 0 -95 -98l-188 -578l-86 12l-158 438l-142 -450l-97 12l-220 601q-12 32 -33.5 47.5t-46.5 15.5v46h324v-46q-50 0 -65 -9.5t-15 -25.5q0 -4 2.5 -9.5t5.5 -13.5l144 -425l116 348l-39 105q-6 15 -26.5 22.5t-49.5 7.5v46h320v-46q-77 0 -77 -35
q0 -13 7 -26l139 -421l119 384l5.5 26.5t2.5 23.5q0 48 -87 48v46h240v-46z" />
    <glyph glyph-name="X" unicode="X" horiz-adv-x="775" 
d="M747 659q-36 0 -63 -8t-43 -28l-186 -234l223 -314q11 -16 32.5 -23t59.5 -7v-45h-368v45q83 0 83 14q0 11 -19 39l-129 190l-133 -185q-7 -7 -7 -28q0 -30 91 -30v-45h-283v45q32 0 65 17t63 56l172 222l-193 275q-14 20 -39.5 31.5t-63.5 12.5v46h356v-46
q-75 0 -75 -21q0 -6 11 -23l121 -179l117 162q7 10 7 29q0 32 -76 32v46h277v-46z" />
    <glyph glyph-name="Y" unicode="Y" horiz-adv-x="702" 
d="M727 659q-57 0 -84 -36l-194 -332v-209q0 -37 103 -37v-45h-387v45q107 0 107 41v201l-174 288q-51 84 -115 84v46h355v-46q-76 0 -76 -29q0 -10 17 -37l140 -231l129 230q6 13 6 42q0 25 -83 25v46h256v-46z" />
    <glyph glyph-name="Z" unicode="Z" horiz-adv-x="586" 
d="M554 664l-330 -604q14 -3 32 -4.5t53 -1.5q43 0 74 12.5t54.5 35.5t41 56t33.5 75l63 -9l-30 -224h-517l-4 32l335 609q-19 3 -38.5 4.5t-35.5 1.5q-29 0 -55 -2.5t-48 -17t-40.5 -46t-33.5 -89.5h-65l22 222q11 -2 25 -3.5l28.5 -3t28 -2t23.5 -0.5h384v-41z" />
    <glyph glyph-name="bracketleft" unicode="[" horiz-adv-x="263" 
d="M227 697h-70v-748h70v-35h-172v813h172v-30z" />
    <glyph glyph-name="backslash" unicode="\" horiz-adv-x="492" 
d="M476 -55h-88l-353 771h98z" />
    <glyph glyph-name="bracketright" unicode="]" horiz-adv-x="271" 
d="M207 -86h-172v35h68v748h-68v30h172v-813z" />
    <glyph glyph-name="asciicircum" unicode="^" horiz-adv-x="519" 
d="M483 329h-103l-120 263l-121 -263h-104l173 367h103z" />
    <glyph glyph-name="underscore" unicode="_" horiz-adv-x="472" 
d="M475 -113h-477v67h477v-67z" />
    <glyph glyph-name="grave" unicode="`" horiz-adv-x="295" 
d="M235 454q-26 14 -54 25.5l-57 23.5q-4 1 -17 5t-27.5 11.5t-25.5 18.5t-11 26q0 13 8 26.5t34 13.5q16 -3 34 -15.5t38 -30.5l43.5 -38t51.5 -38z" />
    <glyph glyph-name="a" unicode="a" 
d="M431 85q0 -32 28 -32q12 0 31 13l21 -13q-10 -32 -42.5 -48.5t-68.5 -16.5q-31 0 -60 14.5t-39 46.5q-35 -28 -64 -44.5t-69 -16.5q-57 0 -95 26t-38 75q0 40 16 69t47.5 50t79.5 36t113 27v34q0 48 -8.5 71.5t-43.5 23.5q-34 0 -58.5 -9.5t-25.5 -37.5q10 -10 10 -32
q0 -46 -58 -46q-45 0 -45 53q0 25 11 48t34.5 40t60.5 27t90 10q33 0 64 -8t55.5 -25t39 -44.5t14.5 -66.5v-224zM295 223q-60 -8 -89.5 -31.5t-29.5 -75.5q0 -35 10 -51.5t39 -16.5q28 0 42 9t19.5 23.5t6 32.5t2.5 36v74z" />
    <glyph glyph-name="b" unicode="b" horiz-adv-x="555" 
d="M194 387q49 66 134 66q36 0 70.5 -13.5t61 -41t43 -68.5t16.5 -96q0 -64 -17 -110.5t-46.5 -76.5t-70 -44.5t-86.5 -14.5q-48 0 -78.5 11.5t-57.5 38.5q-6 -13 -19 -25t-30 -26l-53 11q7 34 10 73.5t3 84.5v419q0 76 -67 76v41l187 34v-339zM190 199q0 -20 2 -48.5
t12.5 -54.5t32.5 -44.5t62 -18.5q28 0 44 14.5t24 37.5t10 53t2 61t-2 64.5t-11.5 61t-29 45.5t-54.5 18q-33 0 -51.5 -16t-27.5 -39.5t-11 -51t-2 -50.5v-32z" />
    <glyph glyph-name="c" unicode="c" horiz-adv-x="452" 
d="M439 96q-12 -30 -32.5 -52t-46 -36t-53 -20.5t-53.5 -6.5q-47 0 -87.5 15t-69.5 43.5t-45.5 71t-16.5 96.5q0 118 66.5 182t187.5 64q26 0 51.5 -7.5t45.5 -21.5t32 -33t12 -43q0 -23 -19 -40t-43 -17q-50 0 -50 53q0 4 2 14t2 18q0 17 -17 24.5t-35 7.5q-28 0 -45 -15.5
t-26.5 -39.5t-12.5 -53.5t-3 -57.5q0 -39 4.5 -73.5t17 -60t34 -40.5t54.5 -15q64 0 107 64z" />
    <glyph glyph-name="d" unicode="d" horiz-adv-x="561" 
d="M481 133q0 -80 71 -85l-5 -39q-32 -1 -76 -6t-101 -16l-10 58q-47 -57 -120 -57q-44 0 -81.5 11.5t-65 37t-43 66.5t-15.5 100q0 67 18 114.5t48.5 77.5t70.5 44t84 14q29 0 56.5 -10.5t44.5 -27.5v208q0 28 -78 28v45l197 29q4 -43 4.5 -85t0.5 -87v-420zM260 400
q-29 0 -45 -14.5t-24 -37.5t-10 -52t-2 -58q0 -35 1.5 -68t10 -59t27 -42t53.5 -16q32 0 50 11t27 33t11 54.5t2 75.5q0 88 -22 130.5t-79 42.5z" />
    <glyph glyph-name="e" unicode="e" horiz-adv-x="494" 
d="M187 232q-12 0 -12 -9q0 -36 6.5 -66.5t20.5 -52.5t36 -34.5t54 -12.5q42 0 73 22t55 56l34 -24q-59 -123 -189 -123q-53 0 -96.5 14t-74 42t-47.5 69.5t-17 97.5q0 58 17.5 103t48.5 76t72.5 47t88.5 16q52 0 90.5 -14.5t64 -40t38.5 -61t13 -76.5v-14t-1 -15h-275z
M285 276q16 0 26 8.5t10 25.5q0 19 -3 36t-10.5 30t-21 20.5t-33.5 7.5q-23 0 -38 -10.5t-24 -27.5t-12.5 -39t-3.5 -45q0 -6 16 -6h94z" />
    <glyph glyph-name="f" unicode="f" horiz-adv-x="361" 
d="M348 381h-96q-9 0 -9 -5v-287q0 -44 91 -44v-45h-298v45q67 0 67 44v283q0 5 -5 5h-90v56h86q5 0 7 6.5t2 23.5q0 133 61.5 197t170.5 64q45 0 67 -19.5t22 -55.5q0 -23 -15.5 -37.5t-36.5 -14.5q-44 0 -44 37q0 6 2 12.5t4 11.5q-9 9 -23 9q-21 0 -34.5 -18.5t-21 -44
t-10 -53.5t-2.5 -46v-51q0 -21 9 -21q28 0 53.5 1t48.5 3z" />
    <glyph glyph-name="g" unicode="g" horiz-adv-x="507" 
d="M312 67q42 0 73.5 -10.5t52.5 -27.5t31.5 -39t10.5 -44q0 -25 -12 -49t-37 -43t-62 -30.5t-86 -11.5h-136q-29 0 -52.5 7.5t-40 20.5t-25 29t-8.5 34q0 26 19 50.5t64 41.5q-34 10 -49.5 32t-15.5 47q0 30 21 56.5t63 34.5q-19 8 -34.5 18.5t-27 25.5t-17.5 35.5t-6 49.5
q0 39 14.5 68.5t41.5 50t64.5 30.5t82.5 10q38 0 74 -10t65 -30q18 22 41 33t47 11q49 0 49 -43q0 -47 -39 -47q-22 0 -37 16q-6 -2 -11.5 -5l-10.5 -6q10 -17 15.5 -36t5.5 -42q0 -88 -57 -126t-166 -38q-12 0 -23.5 2t-25.5 6q-43 -6 -43 -35q0 -20 16.5 -28t53.5 -8h117z
M237 408q-41 0 -52 -25.5t-11 -77.5q0 -60 10 -91.5t49 -31.5q43 0 55 23t12 68q0 67 -11 101t-52 34zM183 -19q-23 -8 -35 -21.5t-12 -36.5q0 -31 23.5 -48.5t72.5 -17.5h30q60 0 80.5 18.5t20.5 56.5q0 24 -19 36.5t-76 12.5h-85z" />
    <glyph glyph-name="h" unicode="h" horiz-adv-x="673" 
d="M241 380q27 35 67.5 52t85.5 17q34 0 65 -9t55 -26.5t38 -44t14 -60.5v-228q0 -36 71 -36v-45h-274v45q67 0 67 36v157q0 69 -18.5 104t-63.5 35q-48 0 -73.5 -26.5t-33.5 -74.5v-187q0 -44 75 -44v-45h-281v45q67 0 67 44v486q0 76 -63 76v41l202 34v-346z" />
    <glyph glyph-name="i" unicode="i" horiz-adv-x="360" 
d="M245 97q0 -52 79 -52v-45h-289v45q70 0 70 56v204q0 76 -62 76v39l202 35v-358zM172 689q62 0 62 -66q0 -70 -66 -70q-62 0 -62 70q0 66 66 66z" />
    <glyph glyph-name="j" unicode="j" horiz-adv-x="288" 
d="M234 15q0 -35 -15.5 -70t-41.5 -62.5t-60 -45t-70 -17.5q-37 0 -65.5 16t-28.5 49q0 50 50 50q15 0 21 -8.5t9 -19t5 -19t9 -8.5q47 0 47 107v361q0 33 -78 33v39l218 39v-444zM165 689q61 0 61 -66q0 -70 -65 -70q-62 0 -62 70q0 66 66 66z" />
    <glyph glyph-name="k" unicode="k" horiz-adv-x="593" 
d="M569 392q-40 0 -110 -29l-29 -30l-36 -36l115 -204q34 -48 69 -48h30v-45h-269v45q32 0 36 7l-79 157q-11 -7 -23.5 -14t-27.5 -14v-96q0 -40 45 -40v-45h-251v45q67 0 67 44v518q0 44 -71 44v45l210 29v-478q20 13 43.5 31.5t44 37.5t34.5 36t14 28q0 12 -58 12v41h246
v-41z" />
    <glyph glyph-name="l" unicode="l" horiz-adv-x="367" 
d="M254 81q0 -36 78 -36v-45h-289v45q70 0 70 40v522q0 44 -78 44v41l219 33v-644z" />
    <glyph glyph-name="m" unicode="m" horiz-adv-x="954" 
d="M851 89q0 -44 67 -44v-45h-264v45q33 0 47 11t14 33v188q0 54 -16.5 81t-58.5 27q-33 0 -54.5 -20t-35.5 -62v-198q0 -29 14.5 -44.5t47.5 -15.5v-45h-259v45q32 0 45 16t13 47v142q0 67 -16.5 101t-58.5 34q-48 0 -69.5 -30t-21.5 -90v-172q0 -48 62 -48v-45h-260v45
q59 0 59 44v263q0 25 -71 25v40l198 37q9 -8 9 -28v-39q26 31 62 48t78 17t76 -18t56 -57q29 38 69.5 56.5t88.5 18.5q34 0 66 -7.5t57 -25.5t40.5 -48t15.5 -74v-208z" />
    <glyph glyph-name="n" unicode="n" horiz-adv-x="668" 
d="M566 77q0 -32 67 -32v-45h-269v45q34 0 48 9.5t14 26.5v169q0 67 -21 101t-69 34t-69.5 -30t-21.5 -90v-184q0 -17 16 -26.5t54 -9.5v-45h-268v45q59 0 59 40v263q0 29 -50 29h-21v40l198 37q8 -8 8 -28v-39q26 32 65 48t84 16q34 0 65.5 -9t56 -27.5t39.5 -46t15 -63.5
v-228z" />
    <glyph glyph-name="o" unicode="o" horiz-adv-x="546" 
d="M516 223q0 -63 -21.5 -109t-56 -75.5t-78 -43.5t-87.5 -14q-50 0 -94.5 16t-77.5 45.5t-52 72t-19 96.5q0 68 21 114.5t55.5 75t79 40.5t91.5 12q48 0 91.5 -16t76.5 -45.5t52 -72t19 -96.5zM273 404q-34 0 -53 -17.5t-28 -41.5t-11 -49.5t-2 -41.5q0 -33 1.5 -72t11 -73
t29.5 -57t56 -23q33 0 51.5 17t27.5 41t10.5 49.5t1.5 42.5q0 33 -2 72t-11 73t-28.5 57t-53.5 23z" />
    <glyph glyph-name="p" unicode="p" horiz-adv-x="578" 
d="M220 389q43 64 127 64q49 0 85.5 -17.5t61 -48t36.5 -71t12 -85.5q0 -60 -15 -105.5t-42 -76t-64.5 -46t-82.5 -15.5t-70 9t-45 25q1 -5 1 -12v-15v-114q0 -28 83 -28v-41h-282v41q56 0 56 24v455q0 41 -63 41v31l196 51q4 -10 5 -20t1 -20v-26zM220 184q4 -29 8.5 -54
t15 -44t28.5 -30t50 -11q29 0 45 14t24 36.5t9.5 52t1.5 59.5q0 31 -2.5 62.5t-12.5 57t-29.5 42t-52.5 16.5q-32 0 -49 -19t-25 -43.5t-9.5 -49t-1.5 -35.5v-54z" />
    <glyph glyph-name="q" unicode="q" horiz-adv-x="575" 
d="M507 446q-4 -35 -6.5 -62.5t-2.5 -47.5v-431q0 -52 62 -52v-41h-280v41q78 0 78 52v131q-26 -27 -53.5 -39t-63.5 -12q-54 0 -93 17.5t-64 47.5t-37 69.5t-12 83.5q0 131 58 187t168 56q45 0 78 -14t56 -37q8 13 17.5 25.5l18.5 25.5h76zM358 238q0 27 -3.5 56.5
t-13.5 53.5t-29.5 40t-50.5 16q-27 0 -43.5 -10.5t-25.5 -32t-12.5 -54t-3.5 -76.5q0 -38 3 -70.5t13 -56.5t29 -37.5t51 -13.5q48 0 67 30.5t19 91.5v63z" />
    <glyph glyph-name="r" unicode="r" horiz-adv-x="451" 
d="M333 373q-29 0 -46 -19t-26.5 -45.5t-12.5 -55.5t-3 -50v-110q0 -48 79 -48v-45h-286v45q67 0 67 52v216q0 68 -70 68v39l210 35v-88q7 14 19 29.5t27 28t32.5 20.5t36.5 8q86 0 86 -77q0 -66 -55 -66q-49 0 -49 46v8.5t1 8.5h-10z" />
    <glyph glyph-name="s" unicode="s" horiz-adv-x="407" 
d="M316 302q-22 54 -53.5 80t-63.5 26q-14 0 -29 -3.5t-27.5 -10.5t-20.5 -18.5t-8 -27.5q0 -17 16 -28.5t38 -20.5t45.5 -15t38.5 -11q24 -8 46.5 -17.5t40.5 -24t28.5 -36t10.5 -52.5q0 -36 -13.5 -65t-36.5 -50t-53 -32t-64 -11t-54.5 6t-37.5 19q-13 -10 -30 -15.5
t-48 -7.5q-6 38 -7.5 83t-1.5 93h50q11 -38 22 -63t25.5 -40t33.5 -21t45 -6q79 0 82 51q0 30 -18.5 46t-46.5 26.5t-60.5 19.5t-60.5 23.5t-46.5 40t-18.5 68.5q0 30 10.5 56.5t31.5 46t51.5 31t71.5 11.5q23 0 44.5 -4.5t41.5 -17.5q8 5 20.5 11.5t34.5 8.5
q10 -40 12.5 -76.5t2.5 -72.5h-44z" />
    <glyph glyph-name="t" unicode="t" horiz-adv-x="361" 
d="M207 433h76q12 0 26.5 3t27.5 8v-63h-130v-265q0 -11 0.5 -22t5 -20t13.5 -15t26 -6q27 0 49 21.5t27 54.5l37 -12q0 -31 -14.5 -55.5t-38 -41.5t-54 -26t-61.5 -9q-26 0 -49 6.5t-41 19.5t-28.5 33.5t-10.5 48.5v288h-68l5 43q24 4 49.5 18.5t48 35.5t39 47.5t22.5 55.5
l43 6v-154z" />
    <glyph glyph-name="u" unicode="u" horiz-adv-x="630" 
d="M533 89q0 -28 70 -32l11 -41l-210 -21q-4 7 -5 15.5t-1 19.5v16q-11 -14 -21.5 -24.5t-25 -18t-34.5 -11.5t-48 -4q-41 0 -74.5 8t-57.5 27t-37 50.5t-13 78.5v208q0 28 -66 28l-6 40l212 14v-271q0 -23 1.5 -44.5t8.5 -38t21 -26t38 -9.5q38 0 60.5 26.5t37.5 74.5v206
q0 28 -74 28l-6 40l219 13v-352z" />
    <glyph glyph-name="v" unicode="v" horiz-adv-x="515" 
d="M523 388q-27 0 -40.5 -13.5t-24.5 -39.5l-149 -346l-83 -9l-175 384q-7 15 -20.5 19.5t-35.5 4.5v45h274v-45q-63 0 -63 -20q0 -6 5 -23l96 -225l86 210q7 13 7 34q0 24 -59 24v45h182v-45z" />
    <glyph glyph-name="w" unicode="w" horiz-adv-x="775" 
d="M786 388q-42 0 -56 -35l-150 -368l-76 -5l-106 253l-110 -248l-75 -5l-155 373q-8 16 -24.5 25.5t-39.5 9.5v45h258v-45q-48 0 -48 -24q-2 -8 7 -29l84 -210l79 171l-21 68q-5 14 -23 19t-41 5v45h262v-45q-56 0 -56 -16q0 -2 2 -12l6 -29l80 -202l76 197q5 11 6.5 20.5
t1.5 17.5q0 24 -63 24v45h182v-45z" />
    <glyph glyph-name="x" unicode="x" horiz-adv-x="501" 
d="M480 388q-29 0 -48.5 -8.5t-32.5 -23.5l-101 -118l126 -164q21 -29 71 -29v-45h-237v45q51 0 51 11q-3 5 -6 11.5t-8 14.5l-62 87l-73 -81q-6 -7 -10 -12.5t-4 -10.5q0 -11 11.5 -15.5t43.5 -4.5v-45h-190v45q47 0 80 37l111 125l-122 161q-8 11 -26.5 15.5t-38.5 4.5v45
h229v-45q-47 0 -47 -12q0 -3 1.5 -9.5t5.5 -11.5l61 -80l62 70q6 7 9.5 14t3.5 17q0 12 -54 12v45h194v-45z" />
    <glyph glyph-name="y" unicode="y" horiz-adv-x="501" 
d="M518 388q-48 0 -60 -31l-119 -300q-20 -50 -40.5 -93t-44 -75t-50 -50.5t-59.5 -18.5q-68 0 -68 57q0 58 46 58q18 0 26 -8.5t11.5 -19l6.5 -19t11 -8.5q11 0 28 19.5t37 71.5l-186 382q-17 35 -59 35v45h266v-45h-27q-30 0 -32 -14q0 -10 1 -19t6 -18l98 -210l74 188
q11 30 11 49q0 24 -66 24v45h189v-45z" />
    <glyph glyph-name="z" unicode="z" horiz-adv-x="424" 
d="M388 404l-204 -340q6 -3 13 -3h39q28 0 47.5 6t33 18t23 30.5t17.5 44.5l44 -6q-5 -42 -12.5 -79.5t-16.5 -74.5h-343v37l199 336h-19q-32 0 -61 -8q-11 -3 -18 -6.5t-14.5 -12t-16.5 -24.5l-24 -44l-34 6q4 79 33 159q19 -5 46 -7.5t61 -2.5h207v-29z" />
    <glyph glyph-name="braceleft" unicode="{" horiz-adv-x="300" 
d="M265 698q-45 -11 -69 -39v-307l-33 -32l16.5 -16.5t16.5 -15.5v-281q8 -20 26.5 -36.5t42.5 -23.5v-34q-20 1 -44 5t-47.5 11t-45 16.5t-36.5 21.5v296l-57 57l57 56v277q11 15 30.5 27.5t43.5 22t50 16t49 9.5v-30z" />
    <glyph glyph-name="bar" unicode="|" horiz-adv-x="356" 
d="M217 -103q0 -10 -15 -14.5t-30 -4.5q-18 0 -33.5 4.5t-15.5 14.5v852q0 9 14.5 13.5t30.5 4.5q17 0 33 -4.5t16 -13.5v-852z" />
    <glyph glyph-name="braceright" unicode="}" horiz-adv-x="300" 
d="M208 379l57 -57l-57 -57v-277q-11 -15 -31 -27t-44 -21.5t-50 -16t-48 -10.5v30q22 6 39 15t30 25v307l33 32l-16.5 16l-16.5 16v280q-8 21 -26.5 37t-42.5 24v33q21 -2 44.5 -6t47 -11t45 -16t36.5 -20v-296z" />
    <glyph glyph-name="asciitilde" unicode="~" horiz-adv-x="591" 
d="M520 387q-14 -52 -53 -84.5t-93 -32.5q-29 0 -53.5 11t-46 24.5t-43 24.5t-44.5 11q-26 0 -50 -19t-42 -48l-39 20q8 26 23.5 47.5t35 37t42 24t43.5 8.5q43 0 67 -11t41.5 -23.5l34 -23.5t45.5 -11q26 0 49 15t44 54z" />
    <glyph glyph-name="exclamdown" unicode="&#xa1;" horiz-adv-x="316" 
d="M185 436q8 -83 16 -143t15 -102.5t13 -71l10.5 -48.5t7 -35t2.5 -30q0 -42 -27 -61.5t-63 -19.5q-35 0 -62 19.5t-27 61.5q0 16 2.5 31.5t7 36.5t11.5 50t15 71.5t17 101.5t19 139h43zM241 579q0 -74 -78 -74q-73 0 -73 74q0 73 73 73q78 0 78 -73z" />
    <glyph glyph-name="cent" unicode="&#xa2;" horiz-adv-x="465" 
d="M274 559q31 -1 58 -9.5t46.5 -22t30.5 -32.5t11 -41q0 -24 -20 -41t-42 -17q-50 0 -50 54q0 9 1 11l3 20q0 27 -38 32v-354q77 3 116 65l39 -23q-10 -27 -27.5 -47.5t-39 -34t-44.5 -21.5t-44 -11v-190q0 -19 -22 -19q-26 0 -26 19v190q-88 8 -139.5 67t-51.5 159
q0 57 13 98.5t37.5 70t60 46t80.5 26.5v195q0 18 22 18q26 0 26 -18v-190zM226 506q-19 -10 -31.5 -27.5t-20 -39.5t-11 -45.5t-3.5 -45.5q0 -63 14 -109.5t52 -68.5v336z" />
    <glyph glyph-name="sterling" unicode="&#xa3;" horiz-adv-x="705" 
d="M523 263h-181q-15 -38 -34 -65t-47 -50q12 4 22.5 5t21.5 1q31 0 63.5 -19.5t62.5 -55.5q20 -25 42.5 -36.5t55.5 -11.5q52 0 111 54l31 -22q-63 -78 -204 -78q-91 0 -139 67q-36 51 -88 51q-18 0 -44.5 -10.5t-53 -26t-48.5 -34.5t-32 -37l-40 38q22 32 44.5 55.5
t51.5 37.5q22 29 42.5 62t37.5 75h-72v53h92q12 29 20 60.5l16 61.5q37 141 109.5 205.5t184.5 64.5q63 0 92 -19.5t29 -54.5q0 -54 -45 -54q-50 0 -50 49q0 13 7 23q-18 9 -43 9q-42 0 -64.5 -35t-36.5 -87t-26 -112t-33 -111h145v-53z" />
    <glyph glyph-name="yen" unicode="&#xa5;" horiz-adv-x="715" 
d="M680 651q-25 0 -43.5 -8.5t-27.5 -26.5l-134 -269h145v-77h-174v-50h174v-77h-174v-62q0 -36 87 -36v-45h-343v45q91 0 91 40v58h-182v77h182v50h-182v77h149l-114 222q-22 42 -48.5 62t-50.5 20v45h317v-45q-64 0 -64 -28q0 -11 12 -33l118 -231l108 227q4 7 5 15t1 16
q0 9 -2.5 15t-10 10.5t-21.5 6.5t-37 2v45h219v-45z" />
    <glyph glyph-name="brokenbar" unicode="&#xa6;" horiz-adv-x="356" 
d="M217 414q0 -10 -15 -14.5t-30 -4.5q-18 0 -33.5 4.5t-15.5 14.5v335q0 9 14.5 13.5t30.5 4.5q17 0 33 -4.5t16 -13.5v-335zM217 -103q0 -10 -15 -14.5t-30 -4.5q-18 0 -33.5 4.5t-15.5 14.5v346q0 10 14.5 14.5t30.5 4.5q17 0 33 -4.5t16 -14.5v-346z" />
    <glyph glyph-name="section" unicode="&#xa7;" horiz-adv-x="405" 
d="M307 534q-47 105 -122 105q-28 0 -49.5 -14t-21.5 -46q0 -18 19 -31.5t47.5 -26l61.5 -26.5t61.5 -33t47.5 -45.5t19 -64.5q0 -45 -24 -74t-63 -46q35 -11 57.5 -35t22.5 -64q0 -33 -11.5 -58.5t-32 -44t-48 -30t-58.5 -15.5q-27 0 -49.5 5.5t-42.5 19.5q-25 -19 -68 -23
q-18 79 -18 176h40q12 -37 25 -62t29 -40t35.5 -21.5t43.5 -6.5q79 0 79 60q0 18 -6.5 30.5t-19.5 22.5t-33 18t-46 16q-23 7 -48.5 18t-47.5 27.5t-36.5 39t-14.5 52.5q0 42 20 75.5t60 50.5q-37 18 -55 45.5t-18 59.5q0 29 8.5 54t26.5 43.5t46 29t66 10.5q23 0 44 -5
t43 -17q8 5 19.5 10t24.5 10q11 -40 16 -78t5 -71h-34zM293 325q0 15 -7.5 30t-22 27t-35.5 19t-48 7q-29 0 -50.5 -14t-21.5 -46q0 -20 9 -36t24 -26.5t34 -16t39 -5.5q79 0 79 61z" />
    <glyph glyph-name="dieresis" unicode="&#xa8;" horiz-adv-x="374" 
d="M287 599q51 0 51 -53q0 -52 -51 -52q-55 0 -55 52q0 53 55 53zM143 546q0 -52 -53 -52q-55 0 -55 52q0 53 55 53q53 0 53 -53z" />
    <glyph glyph-name="copyright" unicode="&#xa9;" horiz-adv-x="797" 
d="M398 705q76 0 141 -26.5t112 -74t73.5 -114t26.5 -146.5q0 -76 -25 -141.5t-71 -114t-111 -76t-146 -27.5t-146.5 28t-111.5 76.5t-71 114t-25 140.5q0 77 27.5 143t75.5 114.5t112.5 76t138.5 27.5zM401 656q-60 0 -113 -22.5t-92.5 -64t-62.5 -99t-23 -126.5
q0 -86 28.5 -145t71.5 -96.5t94.5 -54t96.5 -16.5q79 0 134.5 30t90 76t50 101t15.5 105q0 82 -28.5 141.5t-72 97t-94.5 55.5t-95 18zM536 404q-15 54 -45 79.5t-72 25.5q-29 0 -47 -12.5t-27.5 -32.5t-12.5 -46t-3 -53q0 -40 3.5 -73t14.5 -56.5t30.5 -36.5t51.5 -13
q21 0 37.5 4t31 14.5t26.5 29t23 47.5l36 -12q-13 -66 -62 -98.5t-124 -32.5q-35 0 -69 12t-60.5 36.5t-43 62.5t-16.5 91q0 64 17.5 105t47 65t67 33t77.5 9q20 0 41.5 -7t40.5 -19q11 9 25 15t25 8q2 -3 6 -15.5t8 -32t7 -44.5t3 -53h-37z" />
    <glyph glyph-name="ordfeminine" unicode="&#xaa;" horiz-adv-x="293" 
d="M225 508q0 -13 11 -13q8 0 15 7l16 -9q-12 -38 -50 -38q-17 0 -27.5 6t-15.5 22q-34 -28 -77 -28q-62 0 -62 59q0 66 132 92v15q0 45 -33 45q-14 0 -23.5 -3t-11.5 -16q5 -15 5 -18q0 -26 -33 -26q-27 0 -27 30q0 13 8 25.5t21 21.5t30 14.5t35 5.5q48 0 67.5 -17.5
t19.5 -59.5v-115zM169 574q-29 -4 -52 -15.5t-23 -38.5q0 -28 27 -28q26 0 36 15.5t12 33.5v33z" />
    <glyph glyph-name="guillemotleft" unicode="&#xab;" horiz-adv-x="555" 
d="M474 414l-110 -151l110 -154l-26 -27l-196 181l197 181zM271 414l-111 -151l111 -154l-27 -27l-195 181l196 181z" />
    <glyph glyph-name="registered" unicode="&#xae;" horiz-adv-x="797" 
d="M398 705q76 0 141 -26.5t112 -74t73.5 -114t26.5 -146.5q0 -76 -25 -141.5t-71 -114t-111 -76t-146 -27.5t-146.5 28t-111.5 76.5t-71 114t-25 140.5q0 77 27.5 143t75.5 114.5t112.5 76t138.5 27.5zM401 656q-60 0 -113 -22.5t-92.5 -64t-62.5 -99t-23 -126.5
q0 -86 28.5 -145t71.5 -96.5t94.5 -54t96.5 -16.5q79 0 134.5 30t90 76t50 101t15.5 105q0 82 -28.5 141.5t-72 97t-94.5 55.5t-95 18zM368 374q1 -1 5.5 -1.5t21.5 -0.5q33 0 52.5 13t19.5 52q0 29 -16.5 42.5t-58.5 13.5q-24 0 -24 -25v-94zM615 210q0 -10 -4.5 -22
t-13 -22.5t-21 -18t-27.5 -7.5q-36 0 -56 14t-30.5 34.5t-14.5 44.5t-9 44.5t-14 34.5t-29 14h-17q-10 0 -11 -1v-107q0 -30 52 -30v-41h-194v41q50 0 50 30v250q0 29 -54 29v42h89q42 0 66 1t50 1q28 0 52.5 -4.5t42.5 -15.5t28.5 -30.5t10.5 -49.5q0 -46 -24 -69.5
t-72 -31.5q34 -11 49 -36t22 -50.5t11.5 -45t18.5 -19.5q6 0 11.5 6.5t7.5 20.5z" />
    <glyph glyph-name="degree" unicode="&#xb0;" horiz-adv-x="348" 
d="M253 566q0 32 -23 54t-57 22q-35 0 -57.5 -22t-22.5 -54q0 -38 22.5 -58.5t57.5 -20.5q34 0 57 20.5t23 58.5zM324 566q0 -30 -12 -56.5t-32 -46.5t-48 -31.5t-59 -11.5q-32 0 -59 11.5t-47 31.5t-31.5 46.5t-11.5 56.5q0 28 11.5 54t31.5 45.5t47 31t59 11.5
q31 0 59 -11.5t48 -31t32 -45.5t12 -54z" />
    <glyph glyph-name="twosuperior" unicode="&#xb2;" horiz-adv-x="360" 
d="M307 248h-215q-9 0 -26 -0.5t-31 -2.5l-6 36q85 84 135.5 155.5t50.5 137.5q0 31 -12 46t-44 15q-52 0 -58 -25q21 -11 21 -34q0 -43 -40 -43q-18 0 -28.5 13t-10.5 40q0 110 139 110q64 0 100.5 -29t36.5 -89q0 -66 -46.5 -125.5t-128.5 -127.5h82q26 0 40.5 9.5
t26.5 43.5l43 -2z" />
    <glyph glyph-name="threesuperior" unicode="&#xb3;" horiz-adv-x="358" 
d="M128 458q-22 0 -22 23q0 12 5 19.5t17 7.5q75 0 75 76q0 55 -47 55q-36 0 -42 -6q10 -9 10 -27q0 -40 -39 -40q-38 0 -38 39q0 92 125 92q57 0 94 -25t37 -79q0 -32 -21.5 -54.5t-46.5 -36.5q18 -6 34 -16t28.5 -24t20 -33t7.5 -43q0 -74 -52 -110.5t-136 -36.5
q-112 0 -112 76q0 43 45 43q35 0 35 -33q0 -8 -2.5 -15t-5.5 -12q7 -4 23 -4q95 0 95 90q0 37 -15 55.5t-41 18.5h-31z" />
    <glyph glyph-name="acute" unicode="&#xb4;" horiz-adv-x="294" 
d="M43 483q25 16 49.5 37l46.5 39.5t40.5 31.5t32.5 13q25 0 32 -13.5t7 -26.5q0 -14 -10 -24t-23 -17t-24.5 -11t-15.5 -5l-56.5 -23t-61.5 -30z" />
    <glyph glyph-name="paragraph" unicode="&#xb6;" horiz-adv-x="564" 
d="M536 651q-61 0 -61 -55v-596h-77v450q-12 -6 -30 -13t-31 -11v-426h-77v401q-17 -6 -38 -9.5t-38 -3.5q-39 0 -67 14t-46 37t-26.5 52.5t-8.5 60.5q0 67 36.5 105.5t114.5 38.5h349v-45z" />
    <glyph glyph-name="periodcentered" unicode="&#xb7;" horiz-adv-x="259" 
d="M205 354q0 -73 -73 -73q-78 0 -78 73t78 73q73 0 73 -73z" />
    <glyph glyph-name="cedilla" unicode="&#xb8;" horiz-adv-x="194" 
d="M120 -29q48 -2 66 -24.5t18 -48.5q0 -18 -10 -32.5t-26.5 -25t-39 -16t-47.5 -5.5v34q35 3 51 15.5t16 29.5q0 14 -6.5 22.5t-16.5 12.5t-22 5t-22 1v77h39v-45z" />
    <glyph glyph-name="onesuperior" unicode="&#xb9;" horiz-adv-x="297" 
d="M208 696q-4 -19 -5 -31t-1 -20v-323q0 -28 74 -28v-46h-250v46q74 0 74 28v274q0 12 -11 12h-65v44q25 4 42.5 7.5t31.5 9t26.5 14.5t28.5 23z" />
    <glyph glyph-name="ordmasculine" unicode="&#xba;" horiz-adv-x="290" 
d="M144 702q25 0 46.5 -10t36.5 -26.5t23.5 -38.5t8.5 -47q0 -29 -9.5 -52.5t-25.5 -40t-37.5 -25.5t-44.5 -9q-26 0 -48 9.5t-37.5 26t-24 38.5t-8.5 47q0 30 9.5 53.5t26 40t38 25.5t46.5 9zM142 670q-19 0 -30 -8.5t-16.5 -20t-7 -24t-1.5 -20.5q0 -17 1.5 -36.5
t7.5 -36.5t17 -28.5t31 -11.5q18 0 28.5 8.5t16.5 20.5t7.5 24.5t1.5 20.5q0 16 -2 36t-8 36.5t-17 28t-29 11.5z" />
    <glyph glyph-name="guillemotright" unicode="&#xbb;" horiz-adv-x="555" 
d="M74 82l-25 30l109 151l-109 154l26 27l195 -181zM276 82l-25 30l112 151l-112 154l26 27l197 -181z" />
    <glyph glyph-name="onequarter" unicode="&#xbc;" horiz-adv-x="837" 
d="M716 449q-11 -52 -11 -63v-199h20q8 0 19.5 3.5t25.5 8.5v-80h-65v-60q0 -13 29 -13v-46h-159v46q32 0 32 13v60h-163v44l206 288zM239 697q-3 -19 -4 -31.5t-1 -20.5v-323q0 -28 72 -28v-46h-249v46q74 0 74 28v274q0 12 -11 12h-65v44q26 3 46.5 6.5t37.5 9.5t32.5 15
t32.5 23zM253 0h-67l396 696h71zM522 187h85v116z" />
    <glyph glyph-name="onehalf" unicode="&#xbd;" horiz-adv-x="838" 
d="M240 697q-4 -19 -5 -31.5t-1 -20.5v-323q0 -28 72 -28v-46h-249v46q74 0 74 28v274q0 12 -11 12h-65v44q25 3 45.5 6.5t37.5 9.5t33 15t33 23zM253 0h-67l397 696h70zM768 0h-224q-11 0 -27 -1.5t-30 -1.5l-6 36q42 41 77.5 79.5t61.5 75t41 71t15 67.5q0 61 -66 61
q-52 0 -58 -25q22 -9 22 -34q0 -43 -41 -43q-18 0 -29 13t-11 40q0 110 141 110q64 0 105 -29t41 -89q0 -33 -13.5 -64.5t-38 -62t-58.5 -62t-75 -64.5h92q28 0 41.5 9.5t25.5 42.5l44 -2z" />
    <glyph glyph-name="threequarters" unicode="&#xbe;" horiz-adv-x="837" 
d="M256 502q69 -24 69 -116q0 -37 -13.5 -64.5t-38.5 -46t-59 -27.5t-76 -9q-113 0 -113 76q0 43 45 43q36 0 36 -33q0 -17 -9 -27q7 -4 23 -4q95 0 95 90q0 37 -18 55.5t-69 18.5q-21 0 -21 23q0 12 5 19.5t16 7.5q76 0 76 76q0 55 -48 55q-37 0 -41 -6q9 -9 9 -27
q0 -40 -39 -40q-37 0 -37 39q0 92 125 92q56 0 93 -25.5t37 -78.5q0 -32 -11 -54.5t-36 -36.5zM715 449l-7 -38t-3 -25v-199h20q8 0 19.5 3.5t25.5 8.5v-80h-65v-60q0 -13 29 -13v-46h-160v46q32 0 32 13v60h-162v44l206 288zM253 0h-67l396 696h71zM522 187h84v116z" />
    <glyph glyph-name="questiondown" unicode="&#xbf;" horiz-adv-x="418" 
d="M262 428q14 -34 14 -76q0 -31 -7.5 -55t-18.5 -44.5t-24.5 -39t-24.5 -38.5t-18.5 -43.5t-7.5 -54.5q0 -20 1.5 -36.5t8.5 -28t21 -17.5t40 -6q13 0 28.5 5.5t20.5 17.5q-8 5 -8 26q0 23 13.5 36.5t39.5 13.5q42 0 42 -59q0 -54 -43 -81t-121 -27q-38 0 -71 6t-58 22.5
t-39.5 47t-14.5 80.5q0 42 14 72.5t35 54.5t45.5 43t45.5 38.5t35 41.5t14 52v49h38zM320 571q0 -74 -78 -74q-73 0 -73 74q0 73 73 73q78 0 78 -73z" />
    <glyph glyph-name="Agrave" unicode="&#xc0;" horiz-adv-x="740" 
d="M676 85q5 -12 14.5 -19.5t21.5 -12t24.5 -6.5t24.5 -3v-44h-359v44l31 4t29.5 5t22 6t8.5 8t-2.5 12l-5.5 16l-47 129q-5 11 -21 16.5t-36 5.5h-155q-34 0 -41 -22l-35 -108q-4 -7 -4 -26q0 -41 91 -41v-49h-248v49q60 5 88 72l252 601l99 -13zM232 345q-11 -27 -11 -32
q0 -9 33 -9h131q25 0 25 5q-2 3 -5.5 17t-14.5 40l-73 182zM447 725q-26 14 -54 25.5l-57 23.5q-4 1 -17 5t-27.5 11.5t-25.5 18.5t-11 26q0 13 8 26.5t34 13.5q16 -3 34 -15.5t38 -30.5l43.5 -38t51.5 -38z" />
    <glyph glyph-name="Aacute" unicode="&#xc1;" horiz-adv-x="740" 
d="M676 85q5 -12 14.5 -19.5t21.5 -12t24.5 -6.5t24.5 -3v-44h-359v44l31 4t29.5 5t22 6t8.5 8t-2.5 12l-5.5 16l-47 129q-5 11 -21 16.5t-36 5.5h-155q-34 0 -41 -22l-35 -108q-4 -7 -4 -26q0 -41 91 -41v-49h-248v49q60 5 88 72l252 601l99 -13zM232 345q-11 -27 -11 -32
q0 -9 33 -9h131q25 0 25 5q-2 3 -5.5 17t-14.5 40l-73 182zM263 754q25 16 49.5 37l46.5 39.5t40.5 31.5t32.5 13q25 0 32 -13.5t7 -26.5q0 -14 -10 -24t-23 -17t-24.5 -11t-15.5 -5l-56.5 -23t-61.5 -30z" />
    <glyph glyph-name="Acircumflex" unicode="&#xc2;" horiz-adv-x="740" 
d="M676 85q5 -12 14.5 -19.5t21.5 -12t24.5 -6.5t24.5 -3v-44h-359v44l31 4t29.5 5t22 6t8.5 8t-2.5 12l-5.5 16l-47 129q-5 11 -21 16.5t-36 5.5h-155q-34 0 -41 -22l-35 -108q-4 -7 -4 -26q0 -41 91 -41v-49h-248v49q60 5 88 72l252 601l99 -13zM232 345q-11 -27 -11 -32
q0 -9 33 -9h131q25 0 25 5q-2 3 -5.5 17t-14.5 40l-73 182zM479 736l-100 58l-105 -57l-21 19l125 120l123 -120z" />
    <glyph glyph-name="Atilde" unicode="&#xc3;" horiz-adv-x="740" 
d="M676 85q5 -12 14.5 -19.5t21.5 -12t24.5 -6.5t24.5 -3v-44h-359v44l31 4t29.5 5t22 6t8.5 8t-2.5 12l-5.5 16l-47 129q-5 11 -21 16.5t-36 5.5h-155q-34 0 -41 -22l-35 -108q-4 -7 -4 -26q0 -41 91 -41v-49h-248v49q60 5 88 72l252 601l99 -13zM232 345q-11 -27 -11 -32
q0 -9 33 -9h131q25 0 25 5q-2 3 -5.5 17t-14.5 40l-73 182zM525 854q-9 -39 -36 -64.5t-65 -25.5q-20 0 -36 8.5t-30 18.5t-28 18.5t-30 8.5q-17 0 -32.5 -15t-28.5 -38l-29 18q12 42 40.5 67t58.5 25q28 0 44 -8.5t28 -18l23.5 -18t29.5 -8.5q16 0 31.5 11t29.5 42z" />
    <glyph glyph-name="Adieresis" unicode="&#xc4;" horiz-adv-x="740" 
d="M676 85q5 -12 14.5 -19.5t21.5 -12t24.5 -6.5t24.5 -3v-44h-359v44l31 4t29.5 5t22 6t8.5 8t-2.5 12l-5.5 16l-47 129q-5 11 -21 16.5t-36 5.5h-155q-34 0 -41 -22l-35 -108q-4 -7 -4 -26q0 -41 91 -41v-49h-248v49q60 5 88 72l252 601l99 -13zM232 345q-11 -27 -11 -32
q0 -9 33 -9h131q25 0 25 5q-2 3 -5.5 17t-14.5 40l-73 182zM471 870q51 0 51 -53q0 -52 -51 -52q-55 0 -55 52q0 53 55 53zM327 817q0 -52 -53 -52q-55 0 -55 52q0 53 55 53q53 0 53 -53z" />
    <glyph glyph-name="Aring" unicode="&#xc5;" horiz-adv-x="740" 
d="M676 85q5 -12 14.5 -19.5t21.5 -12t24.5 -6.5t24.5 -3v-44h-359v44l31 4t29.5 5t22 6t8.5 8t-2.5 12l-5.5 16l-47 129q-5 11 -21 16.5t-36 5.5h-155q-34 0 -41 -22l-35 -108q-4 -7 -4 -26q0 -41 91 -41v-49h-248v49q60 5 88 72l235 560q-31 14 -49.5 41t-18.5 61
q0 22 9.5 41.5t25.5 34.5t38 23.5t48 8.5t48.5 -8.5t39.5 -23.5t26.5 -34.5t9.5 -41.5q0 -29 -14.5 -53.5t-39.5 -39.5zM232 345q-5 -11 -8.5 -18t-2.5 -12q0 -6 7 -8.5t26 -2.5h131q25 0 25 5q-2 3 -5.5 17t-14.5 40l-73 182zM428 783q0 23 -18 39.5t-45 16.5t-45 -16.5
t-18 -39.5q0 -29 18 -44t45 -15t45 15t18 44z" />
    <glyph glyph-name="AE" unicode="&#xc6;" horiz-adv-x="1009" 
d="M941 497l-64 -6q-11 57 -25 88.5t-34 46.5t-48.5 18t-67.5 3h-28q-72 0 -72 -40v-187q0 -25 17 -25h35q25 0 41.5 3t27 14t16.5 33t10 61h63v-283h-63q-4 39 -9 61.5t-15 34t-26.5 15t-44.5 3.5q-29 0 -40.5 -7t-11.5 -21v-199q0 -52 76 -52h32q44 0 74 6.5t52.5 25.5
t41 52.5t39.5 86.5l61 -9l-30 -220h-619v45q95 0 95 61v125q-2 15 -16 15h-182q-34 0 -41 -22l-33 -102q-4 -8 -5 -16t-1 -16q0 -41 91 -41v-49h-248v49q58 4 87 72l213 499q0 7 2 9q-9 14 -82 14v62h724zM379 643q-22 0 -34 -28l-109 -259q-7 -16 -11 -26.5t-4 -16.5
q0 -9 33 -9h153q14 0 17 12v311q0 16 -20 16h-25z" />
    <glyph glyph-name="Ccedilla" unicode="&#xc7;" horiz-adv-x="719" 
d="M601 461q-26 108 -72 155t-125 47q-54 0 -88 -24t-53.5 -63t-27 -89.5t-7.5 -102.5q0 -71 8.5 -133t30.5 -107.5t60.5 -72t98.5 -26.5q77 0 128.5 42.5t89.5 139.5l45 -17q-30 -103 -107 -164.5t-195 -61.5v-13q48 -2 66 -24.5t18 -48.5q0 -18 -10 -32.5t-26.5 -25
t-39 -16t-47.5 -5.5v34q35 3 51 15.5t16 29.5q0 14 -6.5 22.5t-16.5 12.5t-22 5t-22 1v48q-81 7 -138 36.5t-92 76.5t-51 108t-16 132q0 82 17 151.5t54.5 119.5t97 78t143.5 28q25 0 52.5 -3t54.5 -10t51 -18.5t41 -27.5q26 41 75 56q39 -92 39 -253h-75z" />
    <glyph glyph-name="Egrave" unicode="&#xc8;" horiz-adv-x="738" 
d="M670 497l-65 -6q-10 58 -27.5 90t-43 46.5t-58.5 17t-74 2.5q-73 0 -73 -40v-187q0 -12 5 -18.5t19 -6.5q25 0 46.5 3t38 14t27 33t14.5 61h61v-283h-61q-4 37 -11.5 59t-21 34t-33.5 16t-48 5q-36 -3 -36 -28v-199q0 -52 80 -52q64 0 103.5 10t63.5 31t39 53.5t31 76.5
l60 -9l-29 -220h-618v45q95 0 95 61v473q0 80 -103 80v46h611zM484 725q-26 14 -54 25.5l-57 23.5q-4 1 -17 5t-27.5 11.5t-25.5 18.5t-11 26q0 13 8 26.5t34 13.5q16 -3 34 -15.5t38 -30.5l43.5 -38t51.5 -38z" />
    <glyph glyph-name="Eacute" unicode="&#xc9;" horiz-adv-x="738" 
d="M670 497l-65 -6q-10 58 -27.5 90t-43 46.5t-58.5 17t-74 2.5q-73 0 -73 -40v-187q0 -12 5 -18.5t19 -6.5q25 0 46.5 3t38 14t27 33t14.5 61h61v-283h-61q-4 37 -11.5 59t-21 34t-33.5 16t-48 5q-36 -3 -36 -28v-199q0 -52 80 -52q64 0 103.5 10t63.5 31t39 53.5t31 76.5
l60 -9l-29 -220h-618v45q95 0 95 61v473q0 80 -103 80v46h611zM303 754q25 16 49.5 37l46.5 39.5t40.5 31.5t32.5 13q25 0 32 -13.5t7 -26.5q0 -14 -10 -24t-23 -17t-24.5 -11t-15.5 -5l-56.5 -23t-61.5 -30z" />
    <glyph glyph-name="Ecircumflex" unicode="&#xca;" horiz-adv-x="738" 
d="M670 497l-65 -6q-10 58 -27.5 90t-43 46.5t-58.5 17t-74 2.5q-73 0 -73 -40v-187q0 -12 5 -18.5t19 -6.5q25 0 46.5 3t38 14t27 33t14.5 61h61v-283h-61q-4 37 -11.5 59t-21 34t-33.5 16t-48 5q-36 -3 -36 -28v-199q0 -52 80 -52q64 0 103.5 10t63.5 31t39 53.5t31 76.5
l60 -9l-29 -220h-618v45q95 0 95 61v473q0 80 -103 80v46h611zM487 736l-100 58l-105 -57l-21 19l125 120l123 -120z" />
    <glyph glyph-name="Edieresis" unicode="&#xcb;" horiz-adv-x="738" 
d="M670 497l-65 -6q-10 58 -27.5 90t-43 46.5t-58.5 17t-74 2.5q-73 0 -73 -40v-187q0 -12 5 -18.5t19 -6.5q25 0 46.5 3t38 14t27 33t14.5 61h61v-283h-61q-4 37 -11.5 59t-21 34t-33.5 16t-48 5q-36 -3 -36 -28v-199q0 -52 80 -52q64 0 103.5 10t63.5 31t39 53.5t31 76.5
l60 -9l-29 -220h-618v45q95 0 95 61v473q0 80 -103 80v46h611zM489 870q51 0 51 -53q0 -52 -51 -52q-55 0 -55 52q0 53 55 53zM345 817q0 -52 -53 -52q-55 0 -55 52q0 53 55 53q53 0 53 -53z" />
    <glyph glyph-name="Igrave" unicode="&#xcc;" horiz-adv-x="480" 
d="M425 659q-95 0 -95 -84v-465q0 -65 100 -65v-45h-375v45q99 0 99 65v465q0 84 -103 84v46h374v-46zM317 725q-26 14 -54 25.5l-57 23.5q-4 1 -17 5t-27.5 11.5t-25.5 18.5t-11 26q0 13 8 26.5t34 13.5q16 -3 34 -15.5t38 -30.5l43.5 -38t51.5 -38z" />
    <glyph glyph-name="Iacute" unicode="&#xcd;" horiz-adv-x="480" 
d="M425 659q-95 0 -95 -84v-465q0 -65 100 -65v-45h-375v45q99 0 99 65v465q0 84 -103 84v46h374v-46zM133 754q25 16 49.5 37l46.5 39.5t40.5 31.5t32.5 13q25 0 32 -13.5t7 -26.5q0 -14 -10 -24t-23 -17t-24.5 -11t-15.5 -5l-56.5 -23t-61.5 -30z" />
    <glyph glyph-name="Icircumflex" unicode="&#xce;" horiz-adv-x="480" 
d="M425 659q-95 0 -95 -84v-465q0 -65 100 -65v-45h-375v45q99 0 99 65v465q0 84 -103 84v46h374v-46zM337 736l-100 58l-105 -57l-21 19l125 120l123 -120z" />
    <glyph glyph-name="Idieresis" unicode="&#xcf;" horiz-adv-x="480" 
d="M425 659q-95 0 -95 -84v-465q0 -65 100 -65v-45h-375v45q99 0 99 65v465q0 84 -103 84v46h374v-46zM340 870q51 0 51 -53q0 -52 -51 -52q-55 0 -55 52q0 53 55 53zM196 817q0 -52 -53 -52q-55 0 -55 52q0 53 55 53q53 0 53 -53z" />
    <glyph glyph-name="Eth" unicode="&#xd0;" horiz-adv-x="845" 
d="M51 706q26 -3 50 -4t48 -1q33 0 60.5 1t59 2.5t74 3t105.5 1.5q83 0 147.5 -19.5t108.5 -62.5t67 -111t23 -164q0 -91 -19.5 -157.5t-63.5 -109.5t-114.5 -64t-172.5 -21h-370v45q31 0 50.5 3t30 12.5t14.5 27t4 46.5v194h-76v78h76v161q0 36 -5 52.5t-17 23t-31.5 8.5
t-48.5 9v46zM329 406h160v-78h-160v-202q0 -25 4.5 -39.5t14.5 -21.5t27 -9t41 -2q103 0 154.5 72t51.5 226q0 152 -51 225.5t-172 73.5q-22 0 -35.5 -1.5t-21 -7.5t-10.5 -17.5t-3 -30.5v-188z" />
    <glyph glyph-name="Ntilde" unicode="&#xd1;" horiz-adv-x="789" 
d="M778 659q-97 0 -97 -108v-554l-36 -10l-452 476v-301q0 -117 108 -117v-45h-265v45q89 0 89 117v461q0 36 -104 36v46h201l399 -427v273q0 108 -107 108v46h264v-46zM555 854q-9 -39 -36 -64.5t-65 -25.5q-20 0 -36 8.5t-30 18.5t-28 18.5t-30 8.5q-17 0 -32.5 -15
t-28.5 -38l-29 18q12 42 40.5 67t58.5 25q28 0 44 -8.5t28 -18l23.5 -18t29.5 -8.5q16 0 31.5 11t29.5 42z" />
    <glyph glyph-name="Ograve" unicode="&#xd2;" horiz-adv-x="834" 
d="M404 667q-58 0 -93 -25.5t-53.5 -68.5t-24.5 -99.5t-6 -117.5q0 -68 8.5 -126t30 -101t59 -67.5t95.5 -24.5q56 0 92 24t57 66t29 99t8 122q0 61 -8 118.5t-30 102t-61.5 71.5t-102.5 27zM788 356q0 -90 -28.5 -159.5t-79 -116.5t-119 -71.5t-149.5 -24.5
q-76 0 -143 20.5t-117 65t-79 113.5t-29 165t28 166t77 115t116.5 66.5t146.5 21.5q77 0 145.5 -22.5t119.5 -68t81 -113t30 -157.5zM506 725q-26 14 -54 25.5l-57 23.5q-4 1 -17 5t-27.5 11.5t-25.5 18.5t-11 26q0 13 8 26.5t34 13.5q16 -3 34 -15.5t38 -30.5l43.5 -38
t51.5 -38z" />
    <glyph glyph-name="Oacute" unicode="&#xd3;" horiz-adv-x="834" 
d="M404 667q-58 0 -93 -25.5t-53.5 -68.5t-24.5 -99.5t-6 -117.5q0 -68 8.5 -126t30 -101t59 -67.5t95.5 -24.5q56 0 92 24t57 66t29 99t8 122q0 61 -8 118.5t-30 102t-61.5 71.5t-102.5 27zM788 356q0 -90 -28.5 -159.5t-79 -116.5t-119 -71.5t-149.5 -24.5
q-76 0 -143 20.5t-117 65t-79 113.5t-29 165t28 166t77 115t116.5 66.5t146.5 21.5q77 0 145.5 -22.5t119.5 -68t81 -113t30 -157.5zM297 754q25 16 49.5 37l46.5 39.5t40.5 31.5t32.5 13q25 0 32 -13.5t7 -26.5q0 -14 -10 -24t-23 -17t-24.5 -11t-15.5 -5l-56.5 -23
t-61.5 -30z" />
    <glyph glyph-name="Ocircumflex" unicode="&#xd4;" horiz-adv-x="834" 
d="M404 667q-58 0 -93 -25.5t-53.5 -68.5t-24.5 -99.5t-6 -117.5q0 -68 8.5 -126t30 -101t59 -67.5t95.5 -24.5q56 0 92 24t57 66t29 99t8 122q0 61 -8 118.5t-30 102t-61.5 71.5t-102.5 27zM788 356q0 -90 -28.5 -159.5t-79 -116.5t-119 -71.5t-149.5 -24.5
q-76 0 -143 20.5t-117 65t-79 113.5t-29 165t28 166t77 115t116.5 66.5t146.5 21.5q77 0 145.5 -22.5t119.5 -68t81 -113t30 -157.5zM518 736l-100 58l-105 -57l-21 19l125 120l123 -120z" />
    <glyph glyph-name="Otilde" unicode="&#xd5;" horiz-adv-x="834" 
d="M404 667q-58 0 -93 -25.5t-53.5 -68.5t-24.5 -99.5t-6 -117.5q0 -68 8.5 -126t30 -101t59 -67.5t95.5 -24.5q56 0 92 24t57 66t29 99t8 122q0 61 -8 118.5t-30 102t-61.5 71.5t-102.5 27zM788 356q0 -90 -28.5 -159.5t-79 -116.5t-119 -71.5t-149.5 -24.5
q-76 0 -143 20.5t-117 65t-79 113.5t-29 165t28 166t77 115t116.5 66.5t146.5 21.5q77 0 145.5 -22.5t119.5 -68t81 -113t30 -157.5zM567 854q-9 -39 -36 -64.5t-65 -25.5q-20 0 -36 8.5t-30 18.5t-28 18.5t-30 8.5q-17 0 -32.5 -15t-28.5 -38l-29 18q12 42 40.5 67t58.5 25
q28 0 44 -8.5t28 -18l23.5 -18t29.5 -8.5q16 0 31.5 11t29.5 42z" />
    <glyph glyph-name="Odieresis" unicode="&#xd6;" horiz-adv-x="834" 
d="M404 667q-58 0 -93 -25.5t-53.5 -68.5t-24.5 -99.5t-6 -117.5q0 -68 8.5 -126t30 -101t59 -67.5t95.5 -24.5q56 0 92 24t57 66t29 99t8 122q0 61 -8 118.5t-30 102t-61.5 71.5t-102.5 27zM788 356q0 -90 -28.5 -159.5t-79 -116.5t-119 -71.5t-149.5 -24.5
q-76 0 -143 20.5t-117 65t-79 113.5t-29 165t28 166t77 115t116.5 66.5t146.5 21.5q77 0 145.5 -22.5t119.5 -68t81 -113t30 -157.5zM515 870q51 0 51 -53q0 -52 -51 -52q-55 0 -55 52q0 53 55 53zM371 817q0 -52 -53 -52q-55 0 -55 52q0 53 55 53q53 0 53 -53z" />
    <glyph glyph-name="multiply" unicode="&#xd7;" horiz-adv-x="590" 
d="M348 352l138 -139l-57 -57l-138 139l-136 -136l-60 60l135 136l-138 138l57 57l140 -138l140 141l60 -60z" />
    <glyph glyph-name="Oslash" unicode="&#xd8;" horiz-adv-x="834" 
d="M581 685q46 -19 84 -49t65.5 -71t42.5 -93.5t15 -115.5q0 -90 -28.5 -159.5t-79 -116.5t-119 -71.5t-149.5 -24.5q-58 0 -99 10l-18 -49l-55 21l16 43q-47 17 -86 45.5t-67 70.5t-43.5 97t-15.5 126q0 96 28 166t77 115t116.5 66.5t146.5 21.5q50 0 114 -14l15 38l56 -16
zM502 642q-20 12 -44 18.5t-54 6.5q-58 0 -93 -25.5t-53.5 -68.5t-24.5 -99.5t-6 -117.5q0 -85 13 -152.5t49 -110.5zM337 54q40 -17 83 -17q56 0 92 24t57 66t29 99t8 122q0 73 -12 140t-46 112z" />
    <glyph glyph-name="Ugrave" unicode="&#xd9;" horiz-adv-x="799" 
d="M791 659q-87 0 -87 -84v-318q0 -62 -12 -112t-42.5 -86t-84 -55.5t-136.5 -19.5q-63 0 -115.5 17.5t-90.5 48.5t-59 74t-21 94v372q0 69 -99 69v46h373v-46q-99 0 -99 -69v-345q0 -35 6 -70.5t22.5 -64t45.5 -47t76 -18.5q93 0 133.5 50.5t40.5 149.5v330q0 84 -107 84
v46h256v-46zM547 725q-26 14 -54 25.5l-57 23.5q-4 1 -17 5t-27.5 11.5t-25.5 18.5t-11 26q0 13 8 26.5t34 13.5q16 -3 34 -15.5t38 -30.5l43.5 -38t51.5 -38z" />
    <glyph glyph-name="Uacute" unicode="&#xda;" horiz-adv-x="799" 
d="M791 659q-87 0 -87 -84v-318q0 -62 -12 -112t-42.5 -86t-84 -55.5t-136.5 -19.5q-63 0 -115.5 17.5t-90.5 48.5t-59 74t-21 94v372q0 69 -99 69v46h373v-46q-99 0 -99 -69v-345q0 -35 6 -70.5t22.5 -64t45.5 -47t76 -18.5q93 0 133.5 50.5t40.5 149.5v330q0 84 -107 84
v46h256v-46zM366 754q25 16 49.5 37l46.5 39.5t40.5 31.5t32.5 13q25 0 32 -13.5t7 -26.5q0 -14 -10 -24t-23 -17t-24.5 -11t-15.5 -5l-56.5 -23t-61.5 -30z" />
    <glyph glyph-name="Ucircumflex" unicode="&#xdb;" horiz-adv-x="799" 
d="M791 659q-87 0 -87 -84v-318q0 -62 -12 -112t-42.5 -86t-84 -55.5t-136.5 -19.5q-63 0 -115.5 17.5t-90.5 48.5t-59 74t-21 94v372q0 69 -99 69v46h373v-46q-99 0 -99 -69v-345q0 -35 6 -70.5t22.5 -64t45.5 -47t76 -18.5q93 0 133.5 50.5t40.5 149.5v330q0 84 -107 84
v46h256v-46zM570 736l-100 58l-105 -57l-21 19l125 120l123 -120z" />
    <glyph glyph-name="Udieresis" unicode="&#xdc;" horiz-adv-x="799" 
d="M791 659q-87 0 -87 -84v-318q0 -62 -12 -112t-42.5 -86t-84 -55.5t-136.5 -19.5q-63 0 -115.5 17.5t-90.5 48.5t-59 74t-21 94v372q0 69 -99 69v46h373v-46q-99 0 -99 -69v-345q0 -35 6 -70.5t22.5 -64t45.5 -47t76 -18.5q93 0 133.5 50.5t40.5 149.5v330q0 84 -107 84
v46h256v-46zM548 870q51 0 51 -53q0 -52 -51 -52q-55 0 -55 52q0 53 55 53zM404 817q0 -52 -53 -52q-55 0 -55 52q0 53 55 53q53 0 53 -53z" />
    <glyph glyph-name="Yacute" unicode="&#xdd;" horiz-adv-x="702" 
d="M786 659q-57 0 -84 -36l-194 -332v-209q0 -37 103 -37v-45h-387v45q107 0 107 41v201l-174 288q-51 84 -115 84v46h355v-46q-76 0 -76 -29q0 -10 17 -37l140 -231l129 230q6 13 6 42q0 25 -83 25v46h256v-46zM282 754q25 16 49.5 37l46.5 39.5t40.5 31.5t32.5 13
q25 0 32 -13.5t7 -26.5q0 -14 -10 -24t-23 -17t-24.5 -11t-15.5 -5l-56.5 -23t-61.5 -30z" />
    <glyph glyph-name="Thorn" unicode="&#xde;" horiz-adv-x="720" 
d="M420 659q-95 0 -95 -84v-15q5 2 16 2h14h60q269 0 269 -210q0 -41 -15 -77t-47.5 -62.5t-84.5 -42t-126 -15.5q-28 0 -49.5 2.5t-36.5 6.5v-46q0 -73 104 -73v-45h-378v45q99 1 99 69v461q0 84 -103 84v46h373v-46zM325 218q17 -6 39 -8t47 -2q33 0 51 12t27 32.5
t11 47.5t2 56q0 39 -6 68.5t-22 49t-42.5 29.5t-68.5 10q-35 0 -38 -41v-254z" />
    <glyph glyph-name="germandbls" unicode="&#xdf;" horiz-adv-x="627" 
d="M241 0h-206v45q66 0 66 44v408q0 71 19 115.5t50.5 69t73.5 33.5t88 9q99 0 155.5 -40t56.5 -132q0 -31 -10 -53.5t-27 -39t-40.5 -28t-51.5 -19.5q33 -5 65 -18.5t57 -37t40 -57t15 -78.5q0 -66 -14.5 -110.5t-41.5 -72t-65 -39t-84 -11.5q-120 0 -120 105q0 54 55 54
q41 0 41 -39q0 -33 -19 -37q1 -13 6.5 -19.5t21.5 -6.5q34 0 48.5 48t14.5 145q0 123 -117 123v49q90 0 90 142q0 58 -15 86.5t-65 28.5q-39 0 -63 -29.5t-24 -89.5v-548z" />
    <glyph glyph-name="agrave" unicode="&#xe0;" 
d="M431 85q0 -32 28 -32q12 0 31 13l21 -13q-10 -32 -42.5 -48.5t-68.5 -16.5q-31 0 -60 14.5t-39 46.5q-35 -28 -64 -44.5t-69 -16.5q-57 0 -95 26t-38 75q0 40 16 69t47.5 50t79.5 36t113 27v34q0 48 -8.5 71.5t-43.5 23.5q-34 0 -58.5 -9.5t-25.5 -37.5q10 -10 10 -32
q0 -46 -58 -46q-45 0 -45 53q0 25 11 48t34.5 40t60.5 27t90 10q33 0 64 -8t55.5 -25t39 -44.5t14.5 -66.5v-224zM295 223q-60 -8 -89.5 -31.5t-29.5 -75.5q0 -35 10 -51.5t39 -16.5q28 0 42 9t19.5 23.5t6 32.5t2.5 36v74zM328 454q-26 14 -54 25.5l-57 23.5q-4 1 -17 5
t-27.5 11.5t-25.5 18.5t-11 26q0 13 8 26.5t34 13.5q16 -3 34 -15.5t38 -30.5l43.5 -38t51.5 -38z" />
    <glyph glyph-name="aacute" unicode="&#xe1;" 
d="M431 85q0 -32 28 -32q12 0 31 13l21 -13q-10 -32 -42.5 -48.5t-68.5 -16.5q-31 0 -60 14.5t-39 46.5q-35 -28 -64 -44.5t-69 -16.5q-57 0 -95 26t-38 75q0 40 16 69t47.5 50t79.5 36t113 27v34q0 48 -8.5 71.5t-43.5 23.5q-34 0 -58.5 -9.5t-25.5 -37.5q10 -10 10 -32
q0 -46 -58 -46q-45 0 -45 53q0 25 11 48t34.5 40t60.5 27t90 10q33 0 64 -8t55.5 -25t39 -44.5t14.5 -66.5v-224zM295 223q-60 -8 -89.5 -31.5t-29.5 -75.5q0 -35 10 -51.5t39 -16.5q28 0 42 9t19.5 23.5t6 32.5t2.5 36v74zM153 483q25 16 49.5 37l46.5 39.5t40.5 31.5
t32.5 13q25 0 32 -13.5t7 -26.5q0 -14 -10 -24t-23 -17t-24.5 -11t-15.5 -5l-56.5 -23t-61.5 -30z" />
    <glyph glyph-name="acircumflex" unicode="&#xe2;" 
d="M431 85q0 -32 28 -32q12 0 31 13l21 -13q-10 -32 -42.5 -48.5t-68.5 -16.5q-31 0 -60 14.5t-39 46.5q-35 -28 -64 -44.5t-69 -16.5q-57 0 -95 26t-38 75q0 40 16 69t47.5 50t79.5 36t113 27v34q0 48 -8.5 71.5t-43.5 23.5q-34 0 -58.5 -9.5t-25.5 -37.5q10 -10 10 -32
q0 -46 -58 -46q-45 0 -45 53q0 25 11 48t34.5 40t60.5 27t90 10q33 0 64 -8t55.5 -25t39 -44.5t14.5 -66.5v-224zM295 223q-60 -8 -89.5 -31.5t-29.5 -75.5q0 -35 10 -51.5t39 -16.5q28 0 42 9t19.5 23.5t6 32.5t2.5 36v74zM360 465l-100 58l-105 -57l-21 19l125 120
l123 -120z" />
    <glyph glyph-name="atilde" unicode="&#xe3;" 
d="M431 85q0 -32 28 -32q12 0 31 13l21 -13q-10 -32 -42.5 -48.5t-68.5 -16.5q-31 0 -60 14.5t-39 46.5q-35 -28 -64 -44.5t-69 -16.5q-57 0 -95 26t-38 75q0 40 16 69t47.5 50t79.5 36t113 27v34q0 48 -8.5 71.5t-43.5 23.5q-34 0 -58.5 -9.5t-25.5 -37.5q10 -10 10 -32
q0 -46 -58 -46q-45 0 -45 53q0 25 11 48t34.5 40t60.5 27t90 10q33 0 64 -8t55.5 -25t39 -44.5t14.5 -66.5v-224zM295 223q-60 -8 -89.5 -31.5t-29.5 -75.5q0 -35 10 -51.5t39 -16.5q28 0 42 9t19.5 23.5t6 32.5t2.5 36v74zM427 583q-9 -39 -36 -64.5t-65 -25.5
q-20 0 -36 8.5t-30 18.5t-28 18.5t-30 8.5q-17 0 -32.5 -15t-28.5 -38l-29 18q12 42 40.5 67t58.5 25q28 0 44 -8.5t28 -18l23.5 -18t29.5 -8.5q16 0 31.5 11t29.5 42z" />
    <glyph glyph-name="adieresis" unicode="&#xe4;" 
d="M431 85q0 -32 28 -32q12 0 31 13l21 -13q-10 -32 -42.5 -48.5t-68.5 -16.5q-31 0 -60 14.5t-39 46.5q-35 -28 -64 -44.5t-69 -16.5q-57 0 -95 26t-38 75q0 40 16 69t47.5 50t79.5 36t113 27v34q0 48 -8.5 71.5t-43.5 23.5q-34 0 -58.5 -9.5t-25.5 -37.5q10 -10 10 -32
q0 -46 -58 -46q-45 0 -45 53q0 25 11 48t34.5 40t60.5 27t90 10q33 0 64 -8t55.5 -25t39 -44.5t14.5 -66.5v-224zM295 223q-60 -8 -89.5 -31.5t-29.5 -75.5q0 -35 10 -51.5t39 -16.5q28 0 42 9t19.5 23.5t6 32.5t2.5 36v74zM364 599q51 0 51 -53q0 -52 -51 -52q-55 0 -55 52
q0 53 55 53zM220 546q0 -52 -53 -52q-55 0 -55 52q0 53 55 53q53 0 53 -53z" />
    <glyph glyph-name="aring" unicode="&#xe5;" 
d="M431 85q0 -32 28 -32q12 0 31 13l21 -13q-10 -32 -42.5 -48.5t-68.5 -16.5q-31 0 -60 14.5t-39 46.5q-35 -28 -64 -44.5t-69 -16.5q-57 0 -95 26t-38 75q0 40 16 69t47.5 50t79.5 36t113 27v34q0 48 -8.5 71.5t-43.5 23.5q-34 0 -58.5 -9.5t-25.5 -37.5q10 -10 10 -32
q0 -46 -58 -46q-45 0 -45 53q0 25 11 48t34.5 40t60.5 27t90 10q33 0 64 -8t55.5 -25t39 -44.5t14.5 -66.5v-224zM295 223q-60 -8 -89.5 -31.5t-29.5 -75.5q0 -35 10 -51.5t39 -16.5q28 0 42 9t19.5 23.5t6 32.5t2.5 36v74zM315 570q0 23 -18 39.5t-45 16.5t-45 -16.5
t-18 -39.5q0 -29 18 -44t45 -15t45 15t18 44zM376 570q0 -23 -9.5 -43.5t-26.5 -36t-39.5 -24.5t-48.5 -9t-48 9t-38 24.5t-25.5 36t-9.5 43.5q0 22 9.5 42t25.5 35t38 24t48 9t48.5 -9t39.5 -24t26.5 -35t9.5 -42z" />
    <glyph glyph-name="ae" unicode="&#xe6;" horiz-adv-x="755" 
d="M449 232q-12 0 -12 -9q0 -36 6.5 -66.5t20.5 -52.5t36 -34.5t54 -12.5q42 0 73 22t55 56l34 -24q-59 -123 -189 -123q-63 0 -110.5 18.5t-78.5 56.5q-15 -21 -36.5 -35t-45 -23t-47 -13t-41.5 -4q-57 0 -95 26t-38 75q0 40 16 69t47.5 50t79.5 36t113 27v34
q0 48 -8.5 71.5t-43.5 23.5q-34 0 -58.5 -9.5t-25.5 -37.5q10 -10 10 -32q0 -46 -58 -46q-45 0 -45 53q0 25 11 48t34.5 40t60.5 27t90 10q36 0 69.5 -9.5t58.5 -30.5q55 40 133 40q52 0 90.5 -14.5t64 -40t38.5 -61t13 -76.5v-14t-1 -15h-275zM295 223q-60 -8 -89.5 -31.5
t-29.5 -75.5q0 -35 10 -51.5t39 -16.5q28 0 42 9t19.5 23.5t6 32.5t2.5 36v74zM547 276q16 0 26 8.5t10 25.5q0 19 -3 36t-10.5 30t-21 20.5t-33.5 7.5q-23 0 -38 -10.5t-24 -27.5t-12.5 -39t-3.5 -45q0 -6 16 -6h94z" />
    <glyph glyph-name="ccedilla" unicode="&#xe7;" horiz-adv-x="452" 
d="M439 96q-12 -30 -32.5 -52t-46 -36t-53.5 -20.5t-55 -6.5v-10q48 -2 66 -24.5t18 -48.5q0 -18 -10 -32.5t-26.5 -25t-39 -16t-47.5 -5.5v34q35 3 51 15.5t16 29.5q0 14 -6.5 22.5t-16.5 12.5t-22 5t-22 1v45q-79 12 -128.5 69t-49.5 154q0 118 66.5 182t187.5 64
q26 0 51.5 -7.5t45.5 -21.5t32 -33t12 -43q0 -23 -19 -40t-43 -17q-50 0 -50 53q0 4 2 14t2 18q0 17 -17 24.5t-35 7.5q-28 0 -45 -15.5t-26.5 -39.5t-12.5 -53.5t-3 -57.5q0 -39 4.5 -73.5t17 -60t34 -40.5t54.5 -15q64 0 107 64z" />
    <glyph glyph-name="egrave" unicode="&#xe8;" horiz-adv-x="494" 
d="M187 232q-12 0 -12 -9q0 -36 6.5 -66.5t20.5 -52.5t36 -34.5t54 -12.5q42 0 73 22t55 56l34 -24q-59 -123 -189 -123q-53 0 -96.5 14t-74 42t-47.5 69.5t-17 97.5q0 58 17.5 103t48.5 76t72.5 47t88.5 16q52 0 90.5 -14.5t64 -40t38.5 -61t13 -76.5v-14t-1 -15h-275z
M285 276q16 0 26 8.5t10 25.5q0 19 -3 36t-10.5 30t-21 20.5t-33.5 7.5q-23 0 -38 -10.5t-24 -27.5t-12.5 -39t-3.5 -45q0 -6 16 -6h94zM339 454q-26 14 -54 25.5l-57 23.5q-4 1 -17 5t-27.5 11.5t-25.5 18.5t-11 26q0 13 8 26.5t34 13.5q16 -3 34 -15.5t38 -30.5l43.5 -38
t51.5 -38z" />
    <glyph glyph-name="eacute" unicode="&#xe9;" horiz-adv-x="494" 
d="M187 232q-12 0 -12 -9q0 -36 6.5 -66.5t20.5 -52.5t36 -34.5t54 -12.5q42 0 73 22t55 56l34 -24q-59 -123 -189 -123q-53 0 -96.5 14t-74 42t-47.5 69.5t-17 97.5q0 58 17.5 103t48.5 76t72.5 47t88.5 16q52 0 90.5 -14.5t64 -40t38.5 -61t13 -76.5v-14t-1 -15h-275z
M285 276q16 0 26 8.5t10 25.5q0 19 -3 36t-10.5 30t-21 20.5t-33.5 7.5q-23 0 -38 -10.5t-24 -27.5t-12.5 -39t-3.5 -45q0 -6 16 -6h94zM144 483q25 16 49.5 37l46.5 39.5t40.5 31.5t32.5 13q25 0 32 -13.5t7 -26.5q0 -14 -10 -24t-23 -17t-24.5 -11t-15.5 -5l-56.5 -23
t-61.5 -30z" />
    <glyph glyph-name="ecircumflex" unicode="&#xea;" horiz-adv-x="494" 
d="M187 232q-12 0 -12 -9q0 -36 6.5 -66.5t20.5 -52.5t36 -34.5t54 -12.5q42 0 73 22t55 56l34 -24q-59 -123 -189 -123q-53 0 -96.5 14t-74 42t-47.5 69.5t-17 97.5q0 58 17.5 103t48.5 76t72.5 47t88.5 16q52 0 90.5 -14.5t64 -40t38.5 -61t13 -76.5v-14t-1 -15h-275z
M285 276q16 0 26 8.5t10 25.5q0 19 -3 36t-10.5 30t-21 20.5t-33.5 7.5q-23 0 -38 -10.5t-24 -27.5t-12.5 -39t-3.5 -45q0 -6 16 -6h94zM355 465l-100 58l-105 -57l-21 19l125 120l123 -120z" />
    <glyph glyph-name="edieresis" unicode="&#xeb;" horiz-adv-x="494" 
d="M187 232q-12 0 -12 -9q0 -36 6.5 -66.5t20.5 -52.5t36 -34.5t54 -12.5q42 0 73 22t55 56l34 -24q-59 -123 -189 -123q-53 0 -96.5 14t-74 42t-47.5 69.5t-17 97.5q0 58 17.5 103t48.5 76t72.5 47t88.5 16q52 0 90.5 -14.5t64 -40t38.5 -61t13 -76.5v-14t-1 -15h-275z
M285 276q16 0 26 8.5t10 25.5q0 19 -3 36t-10.5 30t-21 20.5t-33.5 7.5q-23 0 -38 -10.5t-24 -27.5t-12.5 -39t-3.5 -45q0 -6 16 -6h94zM351 599q51 0 51 -53q0 -52 -51 -52q-55 0 -55 52q0 53 55 53zM207 546q0 -52 -53 -52q-55 0 -55 52q0 53 55 53q53 0 53 -53z" />
    <glyph glyph-name="igrave" unicode="&#xec;" horiz-adv-x="355" 
d="M245 97q0 -52 79 -52v-45h-289v45q70 0 70 56v204q0 76 -62 76v39l202 35v-358zM237 454q-26 14 -54 25.5l-57 23.5q-4 1 -17 5t-27.5 11.5t-25.5 18.5t-11 26q0 13 8 26.5t34 13.5q16 -3 34 -15.5t38 -30.5l43.5 -38t51.5 -38z" />
    <glyph glyph-name="iacute" unicode="&#xed;" horiz-adv-x="360" 
d="M250 97q0 -52 79 -52v-45h-289v45q70 0 70 56v204q0 76 -62 76v39l202 35v-358zM48 483q25 16 49.5 37l46.5 39.5t40.5 31.5t32.5 13q25 0 32 -13.5t7 -26.5q0 -14 -10 -24t-23 -17t-24.5 -11t-15.5 -5l-56.5 -23t-61.5 -30z" />
    <glyph glyph-name="icircumflex" unicode="&#xee;" horiz-adv-x="364" 
d="M254 97q0 -52 79 -52v-45h-289v45q70 0 70 56v204q0 76 -62 76v39l202 35v-358zM264 465l-100 58l-105 -57l-21 19l125 120l123 -120z" />
    <glyph glyph-name="idieresis" unicode="&#xef;" horiz-adv-x="348" 
d="M250 97q0 -52 79 -52v-45h-289v45q70 0 70 56v204q0 76 -62 76v39l202 35v-358zM263 599q51 0 51 -53q0 -52 -51 -52q-55 0 -55 52q0 53 55 53zM119 546q0 -52 -53 -52q-55 0 -55 52q0 53 55 53q53 0 53 -53z" />
    <glyph glyph-name="eth" unicode="&#xf0;" horiz-adv-x="526" 
d="M420 669l-97 -74q39 -38 70.5 -77.5t54.5 -84.5t35.5 -97t12.5 -113q0 -58 -20 -103t-52.5 -76t-74.5 -47t-86 -16q-50 0 -93 16t-74 47.5t-48.5 79.5t-17.5 112q0 52 19 92.5t48.5 68.5t65.5 42t70 14q28 0 53 -4.5t48 -18.5q-17 31 -37 58.5t-42 52.5l-80 -61l-35 48
l76 58q-45 50 -95 92l38 49l61.5 -46l58.5 -47l109 82zM263 404q-30 0 -46.5 -17.5t-25 -41.5t-10.5 -49.5t-2 -41.5q0 -33 2 -72t10.5 -73t26 -57t49.5 -23q28 0 44.5 17t24.5 41t10 49.5t2 42.5q0 33 -2 72t-10 73t-25 57t-48 23z" />
    <glyph glyph-name="ntilde" unicode="&#xf1;" horiz-adv-x="668" 
d="M566 77q0 -32 67 -32v-45h-269v45q34 0 48 9.5t14 26.5v169q0 67 -21 101t-69 34t-69.5 -30t-21.5 -90v-184q0 -17 16 -26.5t54 -9.5v-45h-268v45q59 0 59 40v263q0 29 -50 29h-21v40l198 37q8 -8 8 -28v-39q26 32 65 48t84 16q34 0 65.5 -9t56 -27.5t39.5 -46t15 -63.5
v-228zM475 583q-9 -39 -36 -64.5t-65 -25.5q-20 0 -36 8.5t-30 18.5t-28 18.5t-30 8.5q-17 0 -32.5 -15t-28.5 -38l-29 18q12 42 40.5 67t58.5 25q28 0 44 -8.5t28 -18l23.5 -18t29.5 -8.5q16 0 31.5 11t29.5 42z" />
    <glyph glyph-name="ograve" unicode="&#xf2;" horiz-adv-x="546" 
d="M516 223q0 -63 -21.5 -109t-56 -75.5t-78 -43.5t-87.5 -14q-50 0 -94.5 16t-77.5 45.5t-52 72t-19 96.5q0 68 21 114.5t55.5 75t79 40.5t91.5 12q48 0 91.5 -16t76.5 -45.5t52 -72t19 -96.5zM273 404q-34 0 -53 -17.5t-28 -41.5t-11 -49.5t-2 -41.5q0 -33 1.5 -72t11 -73
t29.5 -57t56 -23q33 0 51.5 17t27.5 41t10.5 49.5t1.5 42.5q0 33 -2 72t-11 73t-28.5 57t-53.5 23zM356 454q-26 14 -54 25.5l-57 23.5q-4 1 -17 5t-27.5 11.5t-25.5 18.5t-11 26q0 13 8 26.5t34 13.5q16 -3 34 -15.5t38 -30.5l43.5 -38t51.5 -38z" />
    <glyph glyph-name="oacute" unicode="&#xf3;" horiz-adv-x="546" 
d="M516 223q0 -63 -21.5 -109t-56 -75.5t-78 -43.5t-87.5 -14q-50 0 -94.5 16t-77.5 45.5t-52 72t-19 96.5q0 68 21 114.5t55.5 75t79 40.5t91.5 12q48 0 91.5 -16t76.5 -45.5t52 -72t19 -96.5zM273 404q-34 0 -53 -17.5t-28 -41.5t-11 -49.5t-2 -41.5q0 -33 1.5 -72t11 -73
t29.5 -57t56 -23q33 0 51.5 17t27.5 41t10.5 49.5t1.5 42.5q0 33 -2 72t-11 73t-28.5 57t-53.5 23zM154 483q25 16 49.5 37l46.5 39.5t40.5 31.5t32.5 13q25 0 32 -13.5t7 -26.5q0 -14 -10 -24t-23 -17t-24.5 -11t-15.5 -5l-56.5 -23t-61.5 -30z" />
    <glyph glyph-name="ocircumflex" unicode="&#xf4;" horiz-adv-x="546" 
d="M516 223q0 -63 -21.5 -109t-56 -75.5t-78 -43.5t-87.5 -14q-50 0 -94.5 16t-77.5 45.5t-52 72t-19 96.5q0 68 21 114.5t55.5 75t79 40.5t91.5 12q48 0 91.5 -16t76.5 -45.5t52 -72t19 -96.5zM273 404q-34 0 -53 -17.5t-28 -41.5t-11 -49.5t-2 -41.5q0 -33 1.5 -72t11 -73
t29.5 -57t56 -23q33 0 51.5 17t27.5 41t10.5 49.5t1.5 42.5q0 33 -2 72t-11 73t-28.5 57t-53.5 23zM372 465l-100 58l-105 -57l-21 19l125 120l123 -120z" />
    <glyph glyph-name="otilde" unicode="&#xf5;" horiz-adv-x="546" 
d="M516 223q0 -63 -21.5 -109t-56 -75.5t-78 -43.5t-87.5 -14q-50 0 -94.5 16t-77.5 45.5t-52 72t-19 96.5q0 68 21 114.5t55.5 75t79 40.5t91.5 12q48 0 91.5 -16t76.5 -45.5t52 -72t19 -96.5zM273 404q-34 0 -53 -17.5t-28 -41.5t-11 -49.5t-2 -41.5q0 -33 1.5 -72t11 -73
t29.5 -57t56 -23q33 0 51.5 17t27.5 41t10.5 49.5t1.5 42.5q0 33 -2 72t-11 73t-28.5 57t-53.5 23zM422 583q-9 -39 -36 -64.5t-65 -25.5q-20 0 -36 8.5t-30 18.5t-28 18.5t-30 8.5q-17 0 -32.5 -15t-28.5 -38l-29 18q12 42 40.5 67t58.5 25q28 0 44 -8.5t28 -18l23.5 -18
t29.5 -8.5q16 0 31.5 11t29.5 42z" />
    <glyph glyph-name="odieresis" unicode="&#xf6;" horiz-adv-x="546" 
d="M516 223q0 -63 -21.5 -109t-56 -75.5t-78 -43.5t-87.5 -14q-50 0 -94.5 16t-77.5 45.5t-52 72t-19 96.5q0 68 21 114.5t55.5 75t79 40.5t91.5 12q48 0 91.5 -16t76.5 -45.5t52 -72t19 -96.5zM273 404q-34 0 -53 -17.5t-28 -41.5t-11 -49.5t-2 -41.5q0 -33 1.5 -72t11 -73
t29.5 -57t56 -23q33 0 51.5 17t27.5 41t10.5 49.5t1.5 42.5q0 33 -2 72t-11 73t-28.5 57t-53.5 23zM364 599q51 0 51 -53q0 -52 -51 -52q-55 0 -55 52q0 53 55 53zM220 546q0 -52 -53 -52q-55 0 -55 52q0 53 55 53q53 0 53 -53z" />
    <glyph glyph-name="divide" unicode="&#xf7;" horiz-adv-x="572" 
d="M287 250q72 0 72 -74q0 -73 -72 -73q-78 0 -78 73q0 74 78 74zM287 595q72 0 72 -73q0 -74 -72 -74q-78 0 -78 74q0 73 78 73zM525 312h-477v80h477v-80z" />
    <glyph glyph-name="oslash" unicode="&#xf8;" horiz-adv-x="546" 
d="M410 418q48 -29 77 -78.5t29 -116.5q0 -63 -21.5 -109t-56 -75.5t-78 -43.5t-87.5 -14q-55 0 -93 16l-30 -55l-47 27l28 51q-46 29 -73.5 77t-27.5 114q0 68 21 114.5t55.5 75t79 40.5t91.5 12q49 0 82 -13l26 47l51 -21zM214 59q11 -14 26.5 -22t36.5 -8q33 0 51.5 17
t27.5 41t10.5 49.5t1.5 42.5q0 32 -2 69.5t-10 71.5zM327 381q-11 11 -24 17t-30 6q-34 0 -53 -17.5t-28 -41.5t-11 -49.5t-2 -41.5q0 -29 1 -63t8 -66z" />
    <glyph glyph-name="ugrave" unicode="&#xf9;" horiz-adv-x="630" 
d="M533 89q0 -28 70 -32l11 -41l-210 -21q-4 7 -5 15.5t-1 19.5v16q-11 -14 -21.5 -24.5t-25 -18t-34.5 -11.5t-48 -4q-41 0 -74.5 8t-57.5 27t-37 50.5t-13 78.5v208q0 28 -66 28l-6 40l212 14v-271q0 -23 1.5 -44.5t8.5 -38t21 -26t38 -9.5q38 0 60.5 26.5t37.5 74.5v206
q0 28 -74 28l-6 40l219 13v-352zM378 454q-26 14 -54 25.5l-57 23.5q-4 1 -17 5t-27.5 11.5t-25.5 18.5t-11 26q0 13 8 26.5t34 13.5q16 -3 34 -15.5t38 -30.5l43.5 -38t51.5 -38z" />
    <glyph glyph-name="uacute" unicode="&#xfa;" horiz-adv-x="630" 
d="M533 89q0 -28 70 -32l11 -41l-210 -21q-4 7 -5 15.5t-1 19.5v16q-11 -14 -21.5 -24.5t-25 -18t-34.5 -11.5t-48 -4q-41 0 -74.5 8t-57.5 27t-37 50.5t-13 78.5v208q0 28 -66 28l-6 40l212 14v-271q0 -23 1.5 -44.5t8.5 -38t21 -26t38 -9.5q38 0 60.5 26.5t37.5 74.5v206
q0 28 -74 28l-6 40l219 13v-352zM200 483q25 16 49.5 37l46.5 39.5t40.5 31.5t32.5 13q25 0 32 -13.5t7 -26.5q0 -14 -10 -24t-23 -17t-24.5 -11t-15.5 -5l-56.5 -23t-61.5 -30z" />
    <glyph glyph-name="ucircumflex" unicode="&#xfb;" horiz-adv-x="630" 
d="M533 89q0 -28 70 -32l11 -41l-210 -21q-4 7 -5 15.5t-1 19.5v16q-11 -14 -21.5 -24.5t-25 -18t-34.5 -11.5t-48 -4q-41 0 -74.5 8t-57.5 27t-37 50.5t-13 78.5v208q0 28 -66 28l-6 40l212 14v-271q0 -23 1.5 -44.5t8.5 -38t21 -26t38 -9.5q38 0 60.5 26.5t37.5 74.5v206
q0 28 -74 28l-6 40l219 13v-352zM393 465l-100 58l-105 -57l-21 19l125 120l123 -120z" />
    <glyph glyph-name="udieresis" unicode="&#xfc;" horiz-adv-x="630" 
d="M533 89q0 -28 70 -32l11 -41l-210 -21q-4 7 -5 15.5t-1 19.5v16q-11 -14 -21.5 -24.5t-25 -18t-34.5 -11.5t-48 -4q-41 0 -74.5 8t-57.5 27t-37 50.5t-13 78.5v208q0 28 -66 28l-6 40l212 14v-271q0 -23 1.5 -44.5t8.5 -38t21 -26t38 -9.5q38 0 60.5 26.5t37.5 74.5v206
q0 28 -74 28l-6 40l219 13v-352zM387 599q51 0 51 -53q0 -52 -51 -52q-55 0 -55 52q0 53 55 53zM243 546q0 -52 -53 -52q-55 0 -55 52q0 53 55 53q53 0 53 -53z" />
    <glyph glyph-name="yacute" unicode="&#xfd;" horiz-adv-x="501" 
d="M561 388q-48 0 -60 -31l-119 -300q-20 -50 -40.5 -93t-44 -75t-50 -50.5t-59.5 -18.5q-68 0 -68 57q0 58 46 58q18 0 26 -8.5t11.5 -19l6.5 -19t11 -8.5q11 0 28 19.5t37 71.5l-186 382q-17 35 -59 35v45h266v-45h-27q-30 0 -32 -14q0 -10 1 -19t6 -18l98 -210l74 188
q11 30 11 49q0 24 -66 24v45h189v-45zM175 483q25 16 49.5 37l46.5 39.5t40.5 31.5t32.5 13q25 0 32 -13.5t7 -26.5q0 -14 -10 -24t-23 -17t-24.5 -11t-15.5 -5l-56.5 -23t-61.5 -30z" />
    <glyph glyph-name="thorn" unicode="&#xfe;" horiz-adv-x="578" 
d="M220 389q23 35 52.5 49.5t64.5 14.5q53 0 91.5 -18t64 -49t37.5 -71t12 -84q0 -61 -15 -106.5t-42 -76t-64.5 -45.5t-82.5 -15q-46 0 -70.5 9t-44.5 25q1 -5 1 -12v-15v-114q0 -28 83 -28v-41h-282v41q56 0 56 24v698q0 76 -67 76v41l206 34v-337zM220 184q4 -29 8.5 -54
t15 -44t28.5 -30t50 -11q29 0 45 14t24 36.5t9.5 52t1.5 59.5q0 31 -2.5 62.5t-12.5 57t-29.5 42t-52.5 16.5q-30 0 -47.5 -19t-25.5 -43.5t-10 -49t-2 -35.5v-54z" />
    <glyph glyph-name="ydieresis" unicode="&#xff;" horiz-adv-x="501" 
d="M518 388q-48 0 -60 -31l-119 -300q-20 -50 -40.5 -93t-44 -75t-50 -50.5t-59.5 -18.5q-68 0 -68 57q0 58 46 58q18 0 26 -8.5t11.5 -19l6.5 -19t11 -8.5q11 0 28 19.5t37 71.5l-186 382q-17 35 -59 35v45h266v-45h-27q-30 0 -32 -14q0 -10 1 -19t6 -18l98 -210l74 188
q11 30 11 49q0 24 -66 24v45h189v-45zM368 599q51 0 51 -53q0 -52 -51 -52q-55 0 -55 52q0 53 55 53zM224 546q0 -52 -53 -52q-55 0 -55 52q0 53 55 53q53 0 53 -53z" />
    <glyph glyph-name="dotlessi" unicode="&#x131;" horiz-adv-x="360" 
d="M245 97q0 -52 79 -52v-45h-289v45q70 0 70 56v204q0 76 -62 76v39l202 35v-358z" />
    <glyph glyph-name="Lslash" unicode="&#x141;" horiz-adv-x="680" 
d="M425 659q-96 0 -96 -73v-177l151 70l29 -59l-180 -84v-242q0 -36 61 -36h19q46 0 79 3t58 19.5t44.5 52t39.5 100.5l61 -6l-34 -227h-594v45q91 0 91 49v161l-50 -23l-29 60l79 36v258q0 73 -103 73v46h374v-46z" />
    <glyph glyph-name="lslash" unicode="&#x142;" horiz-adv-x="341" 
d="M239 426l49 23l30 -59l-79 -38v-271q0 -36 78 -36v-45h-289v45q70 0 70 40v201l-38 -18l-30 59l68 32v248q0 44 -78 44v41l219 33v-299z" />
    <glyph glyph-name="OE" unicode="&#x152;" horiz-adv-x="1182" 
d="M1111 497l-65 -6q-10 58 -27.5 90t-43 46.5t-58.5 17t-74 2.5q-73 0 -73 -40v-187q0 -12 5 -18.5t19 -6.5q25 0 46.5 3t38 14t27 33t14.5 61h61v-283h-61q-4 37 -11.5 59t-21 34t-33.5 16t-48 5q-36 -3 -36 -28v-199q0 -52 80 -52q64 0 103.5 10t63.5 31t39 53.5t31 76.5
l60 -9l-29 -220h-592q-45 -16 -114 -16q-76 0 -143 20.5t-117 65t-79 113.5t-29 165t28 166t77 115t116.5 66.5t146.5 21.5q56 0 101 -12h590zM404 667q-58 0 -93 -25.5t-53.5 -68.5t-24.5 -99.5t-6 -117.5q0 -68 8.5 -126t30 -101t59 -67.5t95.5 -24.5q56 0 92 24t57 66
t29 99t8 122q0 61 -8 118.5t-30 102t-61.5 71.5t-102.5 27z" />
    <glyph glyph-name="oe" unicode="&#x153;" horiz-adv-x="827" 
d="M521 232q-12 0 -12 -9q0 -36 6.5 -66.5t20.5 -52.5t36 -34.5t54 -12.5q42 0 73 22t55 56l34 -24q-59 -123 -189 -123q-106 0 -164 54q-32 -32 -74.5 -46.5t-87.5 -14.5q-53 0 -98 16t-77 45.5t-50 72t-18 96.5q0 68 21 114.5t55.5 75t79 40.5t91.5 12q48 0 89 -16t71 -45
q29 29 67.5 45t86.5 16q52 0 90.5 -14.5t64 -40t38.5 -61t13 -76.5v-14t-1 -15h-275zM273 404q-34 0 -53 -17.5t-28 -41.5t-11 -49.5t-2 -41.5q0 -33 1.5 -72t11 -73t29.5 -57t56 -23q33 0 51.5 17t27.5 41t10.5 49.5t1.5 42.5q0 33 -2 72t-11 73t-28.5 57t-53.5 23z
M619 276q16 0 26 8.5t10 25.5q0 19 -3 36t-10.5 30t-21 20.5t-33.5 7.5q-23 0 -38 -10.5t-24 -27.5t-12.5 -39t-3.5 -45q0 -6 16 -6h94z" />
    <glyph glyph-name="Scaron" unicode="&#x160;" horiz-adv-x="604" 
d="M477 476q-8 42 -21 77t-31.5 60.5t-42.5 39.5t-54 14q-61 0 -95 -24t-34 -66q0 -29 12 -47.5t34 -32.5t54 -26l73 -28q46 -18 84 -36t65.5 -43.5t42.5 -62t15 -91.5q0 -53 -18 -95t-50 -71t-77 -44.5t-100 -15.5q-39 0 -76 10t-65 34q-20 -14 -43 -26.5t-48 -19.5
q-13 37 -18.5 75t-5.5 78q0 27 2 54t6 55h69q0 -35 9 -71.5t29.5 -66.5t52.5 -49.5t78 -19.5q41 0 69.5 9t46 25t25.5 36.5t8 44.5q0 38 -18.5 62.5t-63.5 39.5q-65 22 -119.5 44.5t-94 52.5t-62 71.5t-22.5 101.5q0 46 17.5 82.5t47.5 62t70 39t85 13.5q39 0 75 -14.5
t61 -48.5q12 21 34 35t44 21q16 -52 20 -116t4 -122h-74zM315 733l-124 121l23 21l100 -58l105 57l20 -20z" />
    <glyph glyph-name="scaron" unicode="&#x161;" horiz-adv-x="407" 
d="M334 302q-22 54 -53.5 80t-63.5 26q-14 0 -29 -3.5t-27.5 -10.5t-20.5 -18.5t-8 -27.5q0 -17 16 -28.5t38 -20.5t45.5 -15t38.5 -11q24 -8 46.5 -17.5t40.5 -24t28.5 -36t10.5 -52.5q0 -36 -13.5 -65t-36.5 -50t-53 -32t-64 -11t-54.5 6t-37.5 19q-13 -10 -30 -15.5
t-48 -7.5q-6 38 -7.5 83t-1.5 93h50q11 -38 22 -63t25.5 -40t33.5 -21t45 -6q79 0 82 51q0 30 -18.5 46t-46.5 26.5t-60.5 19.5t-60.5 23.5t-46.5 40t-18.5 68.5q0 30 10.5 56.5t31.5 46t51.5 31t71.5 11.5q23 0 44.5 -4.5t41.5 -17.5q8 5 20.5 11.5t34.5 8.5
q10 -40 12.5 -76.5t2.5 -72.5h-44zM216 462l-124 121l23 21l100 -58l105 57l20 -20z" />
    <glyph glyph-name="Ydieresis" unicode="&#x178;" horiz-adv-x="702" 
d="M727 659q-57 0 -84 -36l-194 -332v-209q0 -37 103 -37v-45h-387v45q107 0 107 41v201l-174 288q-51 84 -115 84v46h355v-46q-76 0 -76 -29q0 -10 17 -37l140 -231l129 230q6 13 6 42q0 25 -83 25v46h256v-46zM482 870q51 0 51 -53q0 -52 -51 -52q-55 0 -55 52q0 53 55 53
zM338 817q0 -52 -53 -52q-55 0 -55 52q0 53 55 53q53 0 53 -53z" />
    <glyph glyph-name="Zcaron" unicode="&#x17d;" horiz-adv-x="586" 
d="M558 664l-330 -604q14 -3 32 -4.5t53 -1.5q43 0 74 12.5t54.5 35.5t41 56t33.5 75l63 -9l-30 -224h-517l-4 32l335 609q-19 3 -38.5 4.5t-35.5 1.5q-29 0 -55 -2.5t-48 -17t-40.5 -46t-33.5 -89.5h-65l22 222q11 -2 25 -3.5l28.5 -3t28 -2t23.5 -0.5h384v-41zM299 733
l-124 121l23 21l100 -58l105 57l20 -20z" />
    <glyph glyph-name="zcaron" unicode="&#x17e;" horiz-adv-x="424" 
d="M392 404l-204 -340q6 -3 13 -3h39q28 0 47.5 6t33 18t23 30.5t17.5 44.5l44 -6q-5 -42 -12.5 -79.5t-16.5 -74.5h-343v37l199 336h-19q-32 0 -61 -8q-11 -3 -18 -6.5t-14.5 -12t-16.5 -24.5l-24 -44l-34 6q4 79 33 159q19 -5 46 -7.5t61 -2.5h207v-29zM221 462l-124 121
l23 21l100 -58l105 57l20 -20z" />
    <glyph glyph-name="circumflex" unicode="&#x2c6;" horiz-adv-x="334" 
d="M269 465l-100 58l-105 -57l-21 19l125 120l123 -120z" />
    <glyph glyph-name="caron" unicode="&#x2c7;" horiz-adv-x="334" 
d="M167 462l-124 121l23 21l100 -58l105 57l20 -20z" />
    <glyph glyph-name="ring" unicode="&#x2da;" horiz-adv-x="247" 
d="M185 524q0 23 -18 39.5t-45 16.5t-45 -16.5t-18 -39.5q0 -29 18 -44t45 -15t45 15t18 44zM246 524q0 -23 -9.5 -43.5t-26.5 -36t-39.5 -24.5t-48.5 -9t-48 9t-38 24.5t-25.5 36t-9.5 43.5q0 22 9.5 42t25.5 35t38 24t48 9t48.5 -9t39.5 -24t26.5 -35t9.5 -42z" />
    <glyph glyph-name="tilde" unicode="&#x2dc;" horiz-adv-x="360" 
d="M337 583q-9 -39 -36 -64.5t-65 -25.5q-20 0 -36 8.5t-30 18.5t-28 18.5t-30 8.5q-17 0 -32.5 -15t-28.5 -38l-29 18q12 42 40.5 67t58.5 25q28 0 44 -8.5t28 -18l23.5 -18t29.5 -8.5q16 0 31.5 11t29.5 42z" />
    <glyph glyph-name="endash" unicode="&#x2013;" horiz-adv-x="473" 
d="M437 232h-402v76h402v-76z" />
    <glyph glyph-name="emdash" unicode="&#x2014;" horiz-adv-x="787" 
d="M751 232h-716v76h716v-76z" />
    <glyph glyph-name="quoteleft" unicode="&#x2018;" horiz-adv-x="240" 
d="M204 695q-35 -23 -54 -41t-27.5 -33t-10 -26.5t-1.5 -20.5q0 -16 18 -16q65 0 65 -58q0 -74 -70 -74q-89 0 -89 106q0 66 37.5 112.5t109.5 83.5z" />
    <glyph glyph-name="quoteright" unicode="&#x2019;" horiz-adv-x="240" 
d="M35 459q35 22 54 40t28 33t10.5 26t1.5 20q0 18 -18 18q-64 0 -64 57q0 74 68 74q89 0 89 -105q0 -66 -37 -113t-109 -85z" />
    <glyph glyph-name="quotesinglbase" unicode="&#x201a;" horiz-adv-x="240" 
d="M35 -133q35 22 54 40.5t28 33t10.5 26t1.5 20.5q0 17 -18 17q-64 0 -64 58q0 74 68 74q89 0 89 -106q0 -66 -37 -112.5t-109 -84.5z" />
    <glyph glyph-name="quotedblleft" unicode="&#x201c;" horiz-adv-x="417" 
d="M205 695q-35 -23 -54 -41t-27.5 -33t-10 -26.5t-1.5 -20.5q0 -16 17 -16q65 0 65 -58q0 -74 -70 -74q-89 0 -89 106q0 66 38 112.5t110 83.5zM382 695q-35 -23 -54 -41t-27.5 -33t-10 -26.5t-1.5 -20.5q0 -16 17 -16q65 0 65 -58q0 -74 -69 -74q-89 0 -89 106
q0 66 37 112.5t109 83.5z" />
    <glyph glyph-name="quotedblright" unicode="&#x201d;" horiz-adv-x="417" 
d="M213 459q34 22 53 39.5t28 32t10.5 25.5t1.5 20q0 20 -17 20q-66 0 -66 57q0 74 70 74q89 0 89 -105q0 -66 -37.5 -113t-109.5 -85zM35 459q35 22 54 40t28 33t10.5 26t1.5 20q0 18 -17 18q-65 0 -65 57q0 74 69 74q89 0 89 -105q0 -66 -37 -113t-109 -85z" />
    <glyph glyph-name="quotedblbase" unicode="&#x201e;" horiz-adv-x="417" 
d="M213 -133q34 22 53 40t28 32.5t10.5 25.5t1.5 20q0 19 -17 19q-66 0 -66 58q0 74 70 74q89 0 89 -106q0 -66 -37.5 -112.5t-109.5 -84.5zM35 -133q35 22 54 40.5t28 33t10.5 26t1.5 20.5q0 17 -17 17q-65 0 -65 58q0 74 69 74q89 0 89 -106q0 -66 -37 -112.5t-109 -84.5z
" />
    <glyph glyph-name="dagger" unicode="&#x2020;" horiz-adv-x="442" 
d="M261 614l-5 -104q23 2 45 5t42 9h49q15 -15 15 -32t-15 -29h-48q-24 5 -43.5 8t-44.5 6l-19 -471h-35l-19 471q-22 -1 -42.5 -4.5t-43.5 -8.5h-46q-16 10 -16 31q0 19 18 30h45q22 -5 42 -9t42 -6l-5 104v54q17 29 43 29q11 0 22.5 -7t18.5 -22v-54z" />
    <glyph glyph-name="daggerdbl" unicode="&#x2021;" horiz-adv-x="445" 
d="M264 614l-5 -104q23 2 45 5t42 9h49q14 -14 14 -32t-14 -29h-49q-22 5 -43.5 8.5t-44.5 5.5l-7 -137l8 -130q23 2 44 6l42 8h46q16 -12 16 -31q0 -21 -17 -29h-45q-23 4 -42 6.5t-44 6.5l4 -103v-56q-17 -27 -40 -27q-24 0 -44 26v58l6 102q-22 0 -45 -3.5t-42 -8.5h-48
q-15 10 -15 30t16 30h46q21 -5 43.5 -8.5t45.5 -5.5l8 129l-7 137q-21 -1 -43 -4.5t-45 -8.5h-45q-8 6 -12.5 13t-4.5 18q0 19 18 30h45l43 -9t42 -6l-5 104v54q17 29 43 29q24 0 41 -29v-54z" />
    <glyph glyph-name="bullet" unicode="&#x2022;" horiz-adv-x="315" 
d="M279 329q0 -118 -119 -118q-125 0 -125 118q0 119 125 119q119 0 119 -119z" />
    <glyph glyph-name="ellipsis" unicode="&#x2026;" horiz-adv-x="1359" 
d="M186 58q0 -73 -74 -73q-77 0 -77 73q0 74 77 74q74 0 74 -74zM756 58q0 -73 -74 -73q-77 0 -77 73q0 74 77 74q74 0 74 -74zM1251 132q73 0 73 -74q0 -73 -73 -73q-78 0 -78 73q0 74 78 74z" />
    <glyph glyph-name="perthousand" unicode="&#x2030;" horiz-adv-x="798" 
d="M681 343q95 0 95 -164q0 -191 -130 -191q-103 0 -103 168q0 187 138 187zM684 306q-76 0 -76 -177q0 -100 43 -100q78 0 78 150q0 127 -45 127zM172 681q94 0 94 -164q0 -192 -128 -192q-103 0 -103 168q0 188 137 188zM175 643q-76 0 -76 -177q0 -99 44 -99q78 0 78 150
q0 126 -46 126zM173 0h-49l268 696h52zM438 347q94 0 94 -164q0 -191 -128 -191q-103 0 -103 168q0 187 137 187zM441 310q-75 0 -75 -177q0 -100 42 -100q79 0 79 150q0 127 -46 127z" />
    <glyph glyph-name="guilsinglleft" unicode="&#x2039;" horiz-adv-x="352" 
d="M271 414l-110 -151l110 -154l-26 -27l-196 181l197 181z" />
    <glyph glyph-name="guilsinglright" unicode="&#x203a;" horiz-adv-x="337" 
d="M74 82l-25 30l110 151l-110 154l26 27l195 -181z" />
    <glyph glyph-name="fraction" unicode="&#x2044;" horiz-adv-x="146" 
d="M-84 0h-67l397 696h70z" />
    <glyph glyph-name="Euro" unicode="&#x20ac;" horiz-adv-x="683" 
d="M490 361h-235q0 -14 0.5 -28t2.5 -29h213l-20 -61h-182q10 -45 25.5 -82t37.5 -62.5t51 -39.5t67 -14q48 0 86.5 15t73.5 54l42 -36q-83 -93 -226 -93q-134 0 -214 68.5t-106 189.5h-91l30 61h52v57h-82l30 60h57q13 63 43.5 116t73.5 91t96 59t111 21q47 0 89 -7.5
t73.5 -22.5t49.5 -38.5t18 -56.5q0 -23 -19 -40t-43 -17q-49 0 -49 53q0 5 2 15.5t2 16.5q0 15 -9 24t-24.5 13.5t-37.5 5.5t-48 1q-38 0 -68 -19t-52 -51.5t-35.5 -75t-18.5 -88.5h254z" />
    <glyph glyph-name="uni2117" unicode="&#x2117;" horiz-adv-x="797" 
d="M398 705q76 0 141 -26.5t112 -74t73.5 -114t26.5 -146.5q0 -76 -25 -141.5t-71 -114t-111 -76t-146 -27.5t-146.5 28t-111.5 76.5t-71 114t-25 140.5q0 77 27.5 143t75.5 114.5t112.5 76t138.5 27.5zM401 656q-60 0 -113 -22.5t-92.5 -64t-62.5 -99t-23 -126.5
q0 -86 28.5 -145t71.5 -96.5t94.5 -54t96.5 -16.5q79 0 134.5 30t90 76t50 101t15.5 105q0 82 -28.5 141.5t-72 97t-94.5 55.5t-95 18zM335 568q21 0 44 1.5t58 1.5q155 0 155 -137q0 -27 -9 -50t-28.5 -40.5t-49.5 -27.5t-71 -10q-21 0 -34 1t-31 4v-121q0 -43 67 -43v-35
h-217v35q61 0 61 41v312q0 35 -63 35v33h118zM369 350q16 -3 29.5 -4t35.5 -1q20 0 33 7.5t20.5 20.5t10.5 30t3 35q0 48 -22.5 72.5t-79.5 24.5q-17 0 -23.5 -8t-6.5 -22v-155z" />
    <glyph glyph-name="trademark" unicode="&#x2122;" horiz-adv-x="812" 
d="M772 661q-36 0 -36 -16v-200q0 -25 40 -25v-34h-145v34q34 0 34 22v139l-73 -195h-46l-83 199v-137q0 -28 44 -28v-34h-127v34q43 0 43 31v194q0 16 -44 16v35h129l81 -200l76 200h107v-35zM334 587l-34 -2q-5 69 -59 69q-11 0 -11 -4v-201q0 -29 47 -29v-34h-179v34
q48 0 48 29v201q0 6 -11 6q-49 0 -65 -78l-35 10l16 113q15 -3 26 -4t19 -1h188q9 0 22 1t28 4v-114z" />
    <glyph glyph-name="onethird" unicode="&#x2153;" horiz-adv-x="826" 
d="M240 697q-4 -19 -5 -31.5t-1 -20.5v-323q0 -28 72 -28v-46h-249v46q74 0 74 28v274q0 12 -11 12h-65v44q26 4 44.5 8t34 9.5t29.5 14t31 22.5zM253 0h-67l397 696h70zM604 212q-20 0 -20 23q0 12 4.5 19.5t15.5 7.5q38 0 51.5 19.5t13.5 56.5q0 28 -6.5 41.5t-29.5 13.5
q-36 0 -42 -6q10 -9 10 -27q0 -40 -39 -40t-39 39q0 92 126 92q57 0 89 -25.5t32 -79.5q0 -31 -17 -53.5t-41 -36.5q35 -12 57.5 -40.5t22.5 -76.5q0 -73 -46 -109.5t-131 -36.5q-113 0 -113 76q0 43 45 43q36 0 36 -34q0 -16 -9 -26q5 -5 23 -5q48 0 66.5 23t18.5 68
q0 36 -9.5 55t-36.5 19h-32z" />
    <glyph glyph-name="twothirds" unicode="&#x2154;" horiz-adv-x="815" 
d="M242 0h-67l396 696h71zM297 248h-215q-14 0 -27.5 -1t-29.5 -2l-6 36q85 84 135 155.5t50 137.5q0 31 -12 46t-43 15q-53 0 -59 -25q22 -10 22 -34q0 -43 -40 -43q-18 0 -29.5 13t-11.5 40q0 110 141 110q64 0 100.5 -29t36.5 -89q0 -67 -45.5 -126.5t-130.5 -126.5h83
q27 0 40.5 9.5t25.5 43.5l44 -2zM593 212q-20 0 -20 23q0 12 4.5 19.5t15.5 7.5q38 0 51.5 19.5t13.5 56.5q0 28 -6.5 41.5t-29.5 13.5q-36 0 -42 -6q10 -9 10 -27q0 -40 -39 -40t-39 39q0 92 126 92q57 0 89 -25.5t32 -79.5q0 -31 -17 -53.5t-41 -36.5q35 -12 57.5 -40.5
t22.5 -76.5q0 -73 -46 -109.5t-131 -36.5q-113 0 -113 76q0 43 45 43q36 0 36 -34q0 -16 -9 -26q5 -5 23 -5q48 0 66.5 23t18.5 68q0 36 -9.5 55t-36.5 19h-32z" />
    <glyph glyph-name="minus" unicode="&#x2212;" horiz-adv-x="582" 
d="M527 312h-477v80h477v-80z" />
    <glyph glyph-name="Aswash" unicode="&#xe000;" horiz-adv-x="1069" 
d="M1004 85q5 -12 14.5 -19.5t21.5 -12t24.5 -6.5t24.5 -3v-44h-359v44l31 4t29.5 5t22 6t8.5 8t-2.5 12l-5.5 16l-47 129q-5 11 -21.5 16.5t-35.5 5.5h-155q-34 0 -41 -22q-27 -78 -59.5 -152t-75.5 -132t-99.5 -93t-132.5 -35q-37 0 -69.5 11.5t-57 33.5t-38.5 53t-14 69
q0 34 10.5 61t29.5 46t44 29t55 10q66 0 66 -54t-50 -54q-42 0 -46 37q-24 -7 -36 -27t-12 -46q0 -24 10 -46t27.5 -39.5t40 -28t47.5 -10.5q49 0 90.5 32t77 82t65 112.5t55.5 123.5l216 515l99 -13zM560 345q-11 -27 -11 -32q0 -9 33 -9h131q25 0 25 5q-2 3 -5.5 17
t-14.5 40l-73 182z" />
    <glyph glyph-name="Bswash" unicode="&#xe001;" horiz-adv-x="887" 
d="M528 705q134 0 200 -38t66 -132q0 -66 -39.5 -102t-112.5 -54q46 -8 82.5 -20.5t61.5 -34.5t38 -54t13 -79q0 -60 -23 -97.5t-62 -59.5t-90.5 -30t-107.5 -8q-91 0 -184.5 1.5t-204.5 2.5v45q99 0 99 52v496q0 18 -8.5 30.5t-22 21t-30.5 12t-34 3.5q-30 0 -56 -10.5
t-44.5 -27.5t-29.5 -39t-11 -46q0 -26 12.5 -46t35.5 -28q4 36 46 36q50 0 50 -52q0 -55 -66 -55q-30 0 -55 10.5t-44 29.5t-29.5 46t-10.5 61q0 38 14.5 68.5t41 52.5t64 33.5t82.5 11.5h359zM440 83q0 -17 19 -25.5t65 -8.5q69 0 101.5 32.5t32.5 111.5q0 47 -11 76
t-35 45t-61 21.5t-88 5.5q-23 0 -23 -33v-225zM440 418q0 -23 23 -23q51 0 82.5 7t48.5 22.5t22.5 40t5.5 59.5q0 32 -4.5 56t-16 39.5t-32 23.5t-52.5 8q-42 0 -59.5 -8t-17.5 -24v-201z" />
    <glyph glyph-name="Cswash" unicode="&#xe002;" horiz-adv-x="803" 
d="M773 210q-24 -51 -46.5 -92.5t-53.5 -71t-77 -45.5t-116 -16q-73 0 -136 19.5t-109.5 62.5t-73 110.5t-26.5 162.5q0 100 30.5 174.5t76.5 122.5q-6 2 -18 2.5t-21 0.5q-43 0 -79.5 -13t-65.5 -32t-50.5 -42t-33.5 -42l-35 30q16 24 41.5 51.5t61.5 51.5t82.5 40
t104.5 16q36 0 67 -5t57 -14q28 12 63 19.5t92 7.5q42 0 77.5 -7t62 -22t41 -38t14.5 -55t-26.5 -55.5t-86.5 -23.5q-41 0 -70 9t-54.5 22.5t-50.5 29.5t-56 30q-22 -36 -35.5 -95t-13.5 -123q0 -72 10 -133t34.5 -106t65 -70.5t100.5 -25.5q31 0 60 9.5t55 31t49.5 56.5
t43.5 85zM425 648q34 -15 60 -30.5l46.5 -28.5t36.5 -21t30 -8q33 0 33 32q0 29 -33.5 46t-90.5 17q-30 0 -49 -2t-33 -5z" />
    <glyph glyph-name="Dswash" unicode="&#xe003;" horiz-adv-x="955" 
d="M165 0v45q31 0 50.5 3t30 12.5t14.5 27t4 46.5v433q0 20 -9 36.5t-22.5 28.5t-31 18.5t-33.5 6.5q-30 0 -55.5 -10.5t-44 -27.5t-29.5 -39t-11 -46q0 -26 12 -46t35 -28q4 36 47 36q50 0 50 -52q0 -55 -67 -55q-29 0 -54.5 10.5t-44 29.5t-29 46t-10.5 61q0 38 14.5 68.5
t41 52.5t63.5 33.5t82 11.5q67 0 113 1t86.5 2.5t84.5 2.5t107 1q83 0 147.5 -19.5t108.5 -62.5t67 -111t23 -164q0 -91 -19.5 -157.5t-63.5 -109.5t-114.5 -64t-172.5 -21h-370zM440 126q0 -25 4.5 -39.5t14.5 -21.5t27 -9t41 -2q103 0 154.5 72t51.5 226q0 152 -51 225.5
t-172 73.5q-22 0 -35.5 -1.5t-21 -7.5t-10.5 -17.5t-3 -30.5v-468z" />
    <glyph glyph-name="Eswash" unicode="&#xe004;" horiz-adv-x="846" 
d="M779 497l-65 -6q-10 58 -27.5 90t-43 46.5t-58.5 17t-74 2.5q-73 0 -73 -40v-187q0 -12 5 -18.5t19 -6.5q25 0 46.5 3t38 14t27 33t14.5 61h61v-283h-61q-4 37 -11.5 59t-21 34t-33.5 16t-48 5q-36 -3 -36 -28v-199q0 -52 80 -52q64 0 103.5 10t63.5 31t39 53.5t31 76.5
l60 -9l-29 -220h-618v45q95 0 95 61v473q0 42 -26 61.5t-68 19.5q-30 0 -56 -10.5t-44.5 -27.5t-29.5 -39t-11 -46q0 -26 12.5 -46t35.5 -28q3 36 46 36q50 0 50 -52q0 -55 -66 -55q-30 0 -55 10.5t-44 29.5t-29.5 46t-10.5 61q0 38 14.5 68.5t41 52.5t64 33.5t82.5 11.5
h602z" />
    <glyph glyph-name="Fswash" unicode="&#xe005;" horiz-adv-x="783" 
d="M776 501l-70 -6q-10 52 -27.5 82.5t-43.5 46t-62 19.5t-82 4q-57 0 -57 -36v-183q0 -33 53 -33q27 0 43 5t26 17t15.5 32.5t11.5 52.5h58v-279h-59v27q0 13 -3 28.5t-15 28.5t-35 21.5t-63 8.5q-20 0 -26 -6.5t-6 -17.5v-191q0 -77 108 -77v-45h-374v45q91 0 91 77v453
q0 42 -24.5 63.5t-66.5 21.5q-30 0 -55.5 -10.5t-44 -27.5t-29.5 -39t-11 -46q0 -26 12 -46t35 -28q4 36 47 36q50 0 50 -52q0 -55 -67 -55q-29 0 -54.5 10.5t-44 29.5t-29 46t-10.5 61q0 38 14.5 68.5t41 52.5t63.5 33.5t82 11.5h590z" />
    <glyph glyph-name="Gswash" unicode="&#xe006;" horiz-adv-x="843" 
d="M843 282q-92 0 -92 -72v-222h-38q-20 9 -39.5 23.5t-33.5 31.5q-37 -28 -85.5 -43.5t-99.5 -15.5q-158 0 -245 89t-87 267q0 47 10.5 90.5t27.5 81.5t38.5 70t42.5 55q-6 2 -18 2.5t-21 0.5q-43 0 -79.5 -13t-65.5 -32t-50.5 -42t-33.5 -42l-35 30q16 24 41.5 51.5
t61.5 51.5t82.5 40t104.5 16q36 0 67 -5t57 -14q28 12 63 19.5t92 7.5q42 0 77.5 -7t62 -22t41 -38t14.5 -55t-26.5 -55.5t-86.5 -23.5q-41 0 -70 9t-54.5 22.5t-50.5 29.5t-56 30q-27 -48 -38 -102.5t-11 -111.5q0 -48 3.5 -107.5t19.5 -112t50 -88t95 -35.5q66 0 98 32
t32 108q0 101 -107 101v45h342v-45zM425 648q34 -15 60 -30.5l46.5 -28.5t36.5 -21t30 -8q33 0 33 32q0 29 -33.5 46t-90.5 17q-30 0 -49 -2t-33 -5z" />
    <glyph glyph-name="Hswash" unicode="&#xe007;" horiz-adv-x="1034" 
d="M984 659q-96 0 -96 -84v-465q0 -65 96 -65v-45h-375v45q104 0 104 65v215q-11 5 -29 8.5t-44 3.5h-128q-39 0 -69 -12v-215q0 -65 96 -65v-45h-378v45q107 0 107 65v467q0 83 -99 83q-30 0 -56 -10.5t-44.5 -27.5t-29.5 -39t-11 -46q0 -26 12.5 -46t35.5 -28q4 36 46 36
q51 0 51 -52q0 -55 -67 -55q-30 0 -55 10.5t-44 29.5t-29.5 46t-10.5 61q0 38 14.5 68.5t41.5 52.5t64 33.5t82 11.5h370v-46q-96 0 -96 -84v-174q26 -10 69 -10h128q52 0 73 9v175q0 84 -104 84v46h375v-46z" />
    <glyph glyph-name="Iswash" unicode="&#xe008;" horiz-adv-x="590" 
d="M539 659q-96 0 -96 -84v-465q0 -65 96 -65v-45h-378v45q107 0 107 65v467q0 83 -99 83q-30 0 -56 -10.5t-44.5 -27.5t-29.5 -39t-11 -46q0 -26 12.5 -46t35.5 -28q4 36 46 36q51 0 51 -52q0 -55 -67 -55q-30 0 -55 10.5t-44 29.5t-29.5 46t-10.5 61q0 38 14.5 68.5
t41.5 52.5t64 33.5t82 11.5h370v-46z" />
    <glyph glyph-name="Jswash" unicode="&#xe009;" horiz-adv-x="558" 
d="M531 659q-88 0 -88 -84v-503q0 -54 -16 -102t-45.5 -83t-72 -55.5t-96.5 -20.5q-29 0 -60.5 9.5t-58 26.5t-44 41t-17.5 53q0 31 18 54.5t49 23.5q54 0 54 -50q0 -51 -34 -51q-4 0 -8 0.5t-9 1.5q8 -20 29.5 -31.5t50.5 -11.5q30 0 47 20.5t25.5 51.5t10.5 67t2 68v491
q0 42 -24 63.5t-75 21.5q-30 0 -56 -10.5t-44.5 -27.5t-29.5 -39t-11 -46q0 -26 12.5 -46t35.5 -28q4 36 46 36q51 0 51 -52q0 -55 -67 -55q-30 0 -55 10.5t-44 29.5t-29.5 46t-10.5 61q0 38 14.5 68.5t41.5 52.5t64 33.5t82 11.5h362v-46z" />
    <glyph glyph-name="Kswash" unicode="&#xe00a;" horiz-adv-x="966" 
d="M934 660q-29 -3 -49 -8.5t-39 -16.5t-40 -29.5l-52 -47.5l-119 -114l228 -330q22 -32 49.5 -51t78.5 -18v-45h-367v45q60 0 60 10q0 7 -5 20.5t-20 36.5l-144 216l-41 -38q-12 -11 -19.5 -23t-10.5 -29v-128q0 -32 21 -48.5t73 -16.5v-45h-365v45q95 0 95 65v467
q0 83 -99 83q-30 0 -56 -10.5t-44.5 -27.5t-29.5 -39t-11 -46q0 -26 12.5 -46t35.5 -28q4 36 46 36q51 0 51 -52q0 -55 -67 -55q-30 0 -55 10.5t-44 29.5t-29.5 46t-10.5 61q0 38 14.5 68.5t41.5 52.5t64 33.5t82 11.5h366v-46q-91 0 -91 -69v-238l230 220q23 22 31 34t8 32
q0 21 -72 21v46h293v-45z" />
    <glyph glyph-name="Lswash" unicode="&#xe00b;" horiz-adv-x="794" 
d="M539 659q-96 0 -96 -73v-492q0 -36 61 -36h19q46 0 79 3t58 19.5t44.5 52t39.5 100.5l61 -6l-34 -227h-594v45q91 0 91 49v491q0 37 -25.5 56t-73.5 19q-30 0 -56 -10.5t-44.5 -27.5t-29.5 -39t-11 -46q0 -26 12.5 -46t35.5 -28q4 36 46 36q51 0 51 -52q0 -55 -67 -55
q-30 0 -55 10.5t-44 29.5t-29.5 46t-10.5 61q0 38 14.5 68.5t41.5 52.5t64 33.5t82 11.5h370v-46z" />
    <glyph glyph-name="Mswash" unicode="&#xe00c;" horiz-adv-x="1333" 
d="M1274 659q-32 0 -51.5 -5t-30 -12.5t-14 -18t-3.5 -20.5l12 -481q2 -77 95 -77v-45h-337v45q89 0 92 70l-8 445l-211 -560h-96l-226 558v-292q0 -105 -23.5 -189t-67 -143t-105.5 -90.5t-139 -31.5q-42 0 -78 11.5t-61.5 33.5t-40 53t-14.5 69q0 34 10.5 61t29.5 46
t44.5 29t54.5 10q67 0 67 -54t-51 -54q-42 0 -46 37q-24 -7 -35.5 -27t-11.5 -46q0 -24 10.5 -46t29 -39.5t44 -28t56.5 -10.5q49 0 96.5 27.5t84.5 80.5t60 130t23 175v335q0 55 -89 55q-30 0 -55.5 -10.5t-44 -27.5t-29.5 -39t-11 -46q0 -27 12 -47t35 -27q4 36 48 36
q49 0 49 -52q0 -55 -66 -55q-29 0 -54.5 10.5t-44.5 29.5t-29.5 46t-10.5 61q0 38 14.5 68.5t41 52.5t63.5 33.5t82 11.5h275l206 -515l197 515h252v-46z" />
    <glyph glyph-name="Nswash" unicode="&#xe00d;" horiz-adv-x="1097" 
d="M1086 659q-97 0 -97 -108v-554l-36 -10l-452 476v-197q0 -105 -24 -189t-68.5 -143t-107.5 -90.5t-141 -31.5q-42 0 -77.5 11.5t-61 33.5t-40 53t-14.5 69q0 34 10.5 61t29 46t44 29t54.5 10q67 0 67 -54t-50 -54q-43 0 -47 37q-24 -7 -35.5 -27t-11.5 -46
q0 -24 10.5 -46t29 -39.5t44 -28t56.5 -10.5q49 0 96.5 27.5t85 80.5t60.5 130t23 175v319q0 32 -25.5 51.5t-79.5 19.5q-29 0 -53.5 -10.5t-42 -27.5t-27 -39t-9.5 -46q0 -27 12.5 -47t35.5 -27q4 36 47 36q50 0 50 -52q0 -55 -67 -55q-30 0 -55 10.5t-44 29.5t-29.5 46
t-10.5 61q0 38 14.5 68.5t41.5 52.5t64 33.5t82 11.5h193l399 -427v273q0 108 -107 108v46h264v-46z" />
    <glyph glyph-name="Oswash" unicode="&#xe00e;" horiz-adv-x="825" 
d="M415 423q62 0 62 -65q0 -69 -66 -69q-62 0 -62 69q0 65 66 65zM395 667q-58 0 -93 -25.5t-53.5 -68.5t-24.5 -99.5t-6 -117.5q0 -68 8.5 -126t30 -101t59 -67.5t95.5 -24.5q56 0 92 24t57 66t29 99t8 122q0 61 -8 118.5t-30 102t-61.5 71.5t-102.5 27zM779 356
q0 -90 -28.5 -159.5t-79 -116.5t-119 -71.5t-149.5 -24.5q-76 0 -143 20.5t-117 65t-79 113.5t-29 165t28 166t77 115t116.5 66.5t146.5 21.5q77 0 145.5 -22.5t119.5 -68t81 -113t30 -157.5z" />
    <glyph glyph-name="Pswash" unicode="&#xe00f;" horiz-adv-x="850" 
d="M409 705q21 0 37 0.5t31 1.5t30 1.5t32 0.5q141 0 206 -52t65 -158q0 -41 -14.5 -77t-47.5 -62.5t-85.5 -42t-127.5 -15.5q-32 0 -52.5 2t-39.5 7v-193q0 -73 104 -73v-45h-374v45q95 0 95 69v463q0 83 -99 83q-30 0 -56 -10.5t-44.5 -27.5t-29.5 -39t-11 -46
q0 -26 12.5 -46t35.5 -28q4 36 46 36q51 0 51 -52q0 -55 -67 -55q-30 0 -55 10.5t-44 29.5t-29.5 46t-10.5 61q0 38 14.5 68.5t41.5 52.5t64 33.5t82 11.5h240zM443 365q20 -5 41.5 -7.5t50.5 -2.5q33 0 51.5 12.5t27.5 33t11.5 47t2.5 55.5q0 39 -6.5 68t-23 48.5t-45 29.5
t-72.5 10q-38 0 -38 -48v-246z" />
    <glyph glyph-name="Qswash" unicode="&#xe010;" horiz-adv-x="815" 
d="M1021 -149q-13 23 -37.5 37.5t-56 22.5t-68 10.5t-72.5 2.5q-44 0 -77 -7.5t-60.5 -19t-52.5 -25t-53 -25t-61.5 -19t-78.5 -7.5q-28 0 -50 9t-37 23.5t-23 32t-8 35.5q0 47 22 72q-59 11 -109 37.5t-86.5 70t-57 105t-20.5 142.5q0 96 28 166t77 115t116.5 66.5
t146.5 21.5q77 0 145.5 -22.5t119.5 -68t81 -113t30 -157.5t-28.5 -159.5t-79.5 -116.5t-120.5 -71.5t-151.5 -24.5q-23 -8 -33 -24.5t-10 -34.5q0 -23 12 -37t34 -14q29 0 53 12.5t48 32l49.5 41.5t57.5 41.5t73.5 32t97.5 12.5q39 0 80.5 -12t79 -34t67 -53.5t43.5 -70.5z
M395 667q-58 0 -93 -25.5t-53.5 -68.5t-24.5 -99.5t-6 -117.5q0 -68 8.5 -126t30 -101t59 -67.5t95.5 -24.5q56 0 92 24t57 66t29 99t8 122q0 61 -8 118.5t-30 102t-61.5 71.5t-102.5 27zM407 423q62 0 62 -65q0 -69 -66 -69q-62 0 -62 69q0 65 66 65z" />
    <glyph glyph-name="Rswash" unicode="&#xe011;" horiz-adv-x="917" 
d="M931 104q0 -14 -10 -34t-28 -38t-44 -31t-59 -13q-66 0 -96.5 20t-41.5 52l-38.5 114t-35.5 87t-43.5 56t-61.5 20q-21 0 -25 -7v-224q0 -61 95 -61v-45h-366v45q91 0 91 61v479q0 37 -25.5 56t-73.5 19q-30 0 -56 -10.5t-44.5 -27.5t-29.5 -39t-11 -46q0 -26 12.5 -46
t35.5 -28q4 36 46 36q51 0 51 -52q0 -55 -67 -55q-30 0 -55 10.5t-44 29.5t-29.5 46t-10.5 61q0 38 14.5 68.5t41.5 52.5t64 33.5t82 11.5h167q35 0 60 1t51.5 1.5t60.5 1.5t88 1q56 0 95 -14t64 -38t36 -57t11 -70q0 -72 -55.5 -118t-149.5 -57q39 -5 66 -12.5t46.5 -19.5
t32.5 -29.5t24 -41.5q15 -34 23.5 -67.5t17 -60t20 -43t32.5 -16.5q24 0 37 49zM480 651q-32 0 -32 -52v-197q5 -11 17 -11h26q28 0 51.5 3.5t40 17t25.5 40t9 72.5q0 37 -9 62t-24.5 39t-37 20t-45.5 6h-21z" />
    <glyph glyph-name="Sswash" unicode="&#xe012;" horiz-adv-x="840" 
d="M371 244q0 -35 9 -71.5t29.5 -66.5t52.5 -49.5t78 -19.5q41 0 69.5 9t46 25t25.5 36.5t8 44.5q0 38 -18.5 62.5t-63.5 39.5q-65 22 -119.5 44.5t-94 52.5t-62 71.5t-22.5 101.5q0 58 28 101q-33 19 -73 30t-79 11q-31 0 -59.5 -7t-50 -21.5t-34.5 -36.5t-13 -53
q0 -26 12.5 -46t35.5 -27q5 35 46 35q51 0 51 -52q0 -55 -67 -55q-30 0 -55 10.5t-44 29.5t-29.5 46t-10.5 61q0 48 20.5 81.5t54 54.5t76.5 30.5t89 9.5q54 0 102.5 -10.5t84.5 -32.5q22 20 63 29t102 9q21 0 49 -3.5t53 -15t42 -31.5t17 -53q0 -26 -10.5 -44t-28.5 -29.5
t-41.5 -16.5t-50.5 -5q-45 0 -91 13.5t-83 34.5q1 -27 13.5 -44.5t35 -31t54 -25.5l70.5 -27q46 -18 84 -36t65.5 -43.5t42.5 -62t15 -91.5q0 -53 -18 -95t-50 -71t-77 -44.5t-100 -15.5q-39 0 -76 10t-65 34q-20 -14 -43 -26.5t-48 -19.5q-13 37 -18.5 75t-5.5 78
q0 27 2 54t6 55h69zM447 641q30 -26 67 -46.5t73 -20.5q30 0 41.5 15.5t11.5 37.5q0 21 -22 36.5t-53 15.5q-32 0 -61 -9t-57 -29z" />
    <glyph glyph-name="Tswash" unicode="&#xe013;" horiz-adv-x="755" 
d="M746 481l-61 -5q-6 83 -36.5 125t-104.5 42q-45 0 -45 -28v-481q0 -89 112 -89v-45h-398v45q111 0 111 89v447q0 24 -8 37.5t-26 19.5t-48 7.5t-73 1.5q-30 0 -56 -8.5t-44.5 -23t-29.5 -34.5t-11 -44q0 -26 12.5 -46t35.5 -28q4 36 46 36q51 0 51 -52q0 -55 -67 -55
q-30 0 -55 10.5t-44 29.5t-29.5 46t-10.5 61q0 38 14.5 68.5t41.5 52.5t64 33.5t82 11.5h458q23 0 57.5 2t61.5 7v-233z" />
    <glyph glyph-name="Uswash" unicode="&#xe014;" horiz-adv-x="925" 
d="M916 659q-87 0 -87 -84v-318q0 -62 -12 -112t-42.5 -86t-84 -55.5t-136.5 -19.5q-63 0 -115.5 17.5t-90.5 48.5t-59 74t-21 94v367q0 37 -25.5 56t-73.5 19q-30 0 -56 -10.5t-44.5 -27.5t-29.5 -39t-11 -46q0 -26 12.5 -46t35.5 -28q4 36 46 36q51 0 51 -52
q0 -55 -67 -55q-30 0 -55 10.5t-44 29.5t-29.5 46t-10.5 61q0 38 14.5 68.5t41.5 52.5t64 33.5t82 11.5h373v-46q-99 0 -99 -69v-345q0 -35 6 -70.5t22.5 -64t45.5 -47t76 -18.5q93 0 133.5 50.5t40.5 149.5v330q0 84 -107 84v46h256v-46z" />
    <glyph glyph-name="Vswash" unicode="&#xe015;" horiz-adv-x="932" 
d="M939 659h-39q-28 0 -49 -51l-253 -624l-104 8l-239 604q-30 64 -91 64q-29 0 -54 -10.5t-43 -28t-28.5 -39.5t-10.5 -45q0 -26 12 -46t35 -28q4 36 47 36q50 0 50 -52q0 -55 -67 -55q-29 0 -54.5 10.5t-44 29.5t-29 46t-10.5 61q0 38 14.5 68.5t41 52.5t63.5 33.5
t82 11.5h350v-46h-54q-30 0 -30 -13q0 -23 8 -45l169 -449l156 428q4 8 4 35q0 44 -96 44v46h264v-46z" />
    <glyph glyph-name="Wswash" unicode="&#xe016;" horiz-adv-x="1227" 
d="M1242 659q-63 0 -95 -98l-188 -578l-86 12l-158 438l-142 -450l-97 12l-208 567q-21 58 -47.5 78t-56.5 20q-29 0 -54 -10.5t-43 -28t-28.5 -39.5t-10.5 -45q0 -26 12 -46t35 -28q4 36 47 36q50 0 50 -52q0 -55 -67 -55q-29 0 -54.5 10.5t-44 29.5t-29 46t-10.5 61
q0 38 14.5 68.5t41 52.5t63.5 33.5t82 11.5h332v-46q-14 0 -28 -0.5t-25 -3.5t-18 -10t-7 -19q0 -10 6 -25l144 -425l116 348l-39 105q-6 15 -26.5 22.5t-49.5 7.5v46h320v-46q-77 0 -77 -35q0 -13 7 -26l139 -421l119 384l5.5 26.5t2.5 23.5q0 48 -87 48v46h240v-46z" />
    <glyph glyph-name="Xswash" unicode="&#xe017;" horiz-adv-x="1122" 
d="M1093 659q-36 0 -63 -8t-43 -28l-186 -234l223 -314q11 -16 32.5 -23t59.5 -7v-45h-368v45q83 0 83 14q0 11 -19 39l-129 190l-114 -159q-38 -52 -84.5 -108t-100.5 -102.5t-113.5 -76.5t-122.5 -30q-37 0 -70 11.5t-57.5 33.5t-39 52.5t-14.5 69.5q0 34 10.5 61t29.5 46
t44.5 29t54.5 10q67 0 67 -54t-51 -54q-42 0 -46 37q-24 -7 -35.5 -27t-11.5 -46q0 -24 10 -46t27.5 -39.5t40 -28t46.5 -10.5q34 0 73 20.5t79 54t79 75.5t73 85l194 248l-194 275q-15 21 -39 33t-56 12q-30 0 -56 -10.5t-45 -27.5t-29.5 -39t-10.5 -46q0 -27 12 -47
t35 -27q4 36 47 36q51 0 51 -52q0 -55 -67 -55q-30 0 -55.5 10.5t-44 29.5t-29.5 46t-11 61q0 38 14.5 68.5t41.5 52.5t64.5 33.5t82.5 11.5h349v-46q-75 0 -75 -21q0 -6 11 -23l121 -179l117 162q7 10 7 29q0 32 -76 32v46h277v-46z" />
    <glyph glyph-name="Yswash" unicode="&#xe018;" horiz-adv-x="877" 
d="M903 659q-57 0 -84 -36l-194 -332v-209q0 -37 103 -37v-45h-387v45q107 0 107 41v201l-174 288q-9 15 -20 30t-26 27.5t-34 20t-44 7.5q-23 0 -45 -10.5t-39 -27.5t-27.5 -39t-10.5 -46q0 -26 12 -46t35 -28q4 36 47 36q50 0 50 -52q0 -55 -67 -55q-29 0 -54.5 10.5
t-44 29.5t-29 46t-10.5 61q0 38 14.5 68.5t41 52.5t63.5 33.5t82 11.5h346v-46q-76 0 -76 -29q0 -10 17 -37l140 -231l123 219q12 22 12 53q0 25 -83 25v46h256v-46z" />
    <glyph glyph-name="Zswash" unicode="&#xe019;" horiz-adv-x="606" 
d="M561 658l-379 -563q45 29 77 40.5t58 11.5t46.5 -8.5t39 -18t38 -18t43.5 -8.5q17 0 37 5.5t44 18.5l29 -36q-40 -58 -82 -77.5t-91 -19.5q-27 0 -55.5 4t-57.5 9.5t-58.5 9.5t-57.5 4q-29 0 -59.5 -6t-60.5 -22l-29 37l377 558q-35 -23 -65 -31.5t-56 -8.5
q-28 0 -52 7.5t-46 16l-41.5 16t-38.5 7.5q-14 0 -28 -5t-28 -19l-30 36q40 57 81 77t90 20q26 0 51.5 -4.5t51 -9.5t52 -9.5t55.5 -4.5t56 6t59 23z" />
    <glyph glyph-name="bswash" unicode="&#xe01a;" horiz-adv-x="529" 
d="M168 387q49 66 134 66q36 0 70.5 -13.5t61 -41t43 -68.5t16.5 -96q0 -64 -17 -110.5t-46.5 -76.5t-70 -44.5t-86.5 -14.5q-48 0 -78.5 11.5t-57.5 38.5q-6 -13 -19 -25t-30 -26l-53 11q7 34 10 73.5t3 84.5v321q0 55 6.5 91t17.5 62q-136 79 -223 79q-48 0 -89.5 -12.5
t-75 -31.5t-58.5 -42t-39 -43l-37 29q22 28 52 56.5t70 51.5t91.5 37.5t116.5 14.5q63 0 133 -15t133 -47q32 31 70 46.5t89 15.5q32 0 61 -5t50.5 -18.5t34.5 -36.5t13 -58q0 -29 -12 -50t-32 -34t-47.5 -19t-58.5 -6q-72 0 -139 34q-5 -11 -6 -30t-1 -46v-113zM164 199
q0 -20 2 -48.5t12.5 -54.5t32.5 -44.5t62 -18.5q28 0 44 14.5t24 37.5t10 53t2 61t-2 64.5t-11.5 61t-29 45.5t-54.5 18q-33 0 -51.5 -16t-27.5 -39.5t-11 -51t-2 -50.5v-32zM207 656q64 -64 106 -64q24 0 40 15t16 44q0 31 -20.5 46.5t-53.5 15.5q-45 0 -88 -57z" />
    <glyph glyph-name="cswash" unicode="&#xe01b;" horiz-adv-x="586" 
d="M728 257q-11 -29 -42.5 -76t-80.5 -91.5t-114.5 -76.5t-145.5 -32q-69 0 -126 14t-98 43.5t-63.5 75t-22.5 109.5q0 41 14 82t45 74t79.5 53.5t117.5 20.5q26 0 51.5 -7.5t45.5 -21.5t32 -33t12 -43q0 -23 -19 -40t-43 -17q-50 0 -50 53q0 4 2 14t2 18q0 17 -17 24.5
t-35 7.5q-28 0 -45.5 -15.5t-27 -38.5t-13 -48.5t-3.5 -45.5q0 -60 10.5 -100t34 -63.5t62 -33.5t94.5 -10q38 0 74 13.5t67.5 35t58.5 48t48.5 51.5t36 45.5t21.5 31.5z" />
    <glyph glyph-name="dswash" unicode="&#xe01c;" horiz-adv-x="558" 
d="M458 133q0 -80 71 -85l-5 -39q-32 -1 -76 -6t-101 -16l-10 58q-47 -57 -120 -57q-44 0 -81.5 11.5t-65 37t-43 66.5t-15.5 100q0 67 18 114.5t48.5 77.5t70.5 44t84 14q29 0 57 -10.5t44 -27.5v74q0 50 7 82.5t17 58.5q-136 79 -223 79q-48 0 -89.5 -12.5t-75 -31.5
t-58.5 -42t-39 -43l-37 29q22 28 52 56.5t70 51.5t91.5 37.5t116.5 14.5q63 0 133 -15t133 -47q32 31 70 46.5t89 15.5q32 0 61 -5t50.5 -18.5t34.5 -36.5t13 -58q0 -29 -12 -50t-32 -34t-47.5 -19t-58.5 -6q-72 0 -139 34q-1 -3 -1.5 -12.5t-1 -22.5t-0.5 -28v-28v-352z
M237 400q-29 0 -45 -14.5t-24 -37.5t-10 -52t-2 -58q0 -35 1.5 -68t10 -59t27 -42t53.5 -16q32 0 50 11t27 33t11 54.5t2 75.5q0 88 -22 130.5t-79 42.5zM493 656q64 -64 106 -64q24 0 40 15t16 44q0 31 -20.5 46.5t-53.5 15.5q-45 0 -88 -57z" />
    <glyph glyph-name="fswash" unicode="&#xe01d;" horiz-adv-x="344" 
d="M324 381h-96q-9 0 -9 -5v-287q0 -44 91 -44v-45h-298v45q67 0 67 44v283q0 5 -5 5h-90v56h86q5 0 7 6.5t2 23.5q0 61 7 100.5t18 66.5q-136 79 -223 79q-48 0 -89.5 -12.5t-75 -31.5t-58.5 -42t-39 -43l-37 29q22 28 52 56.5t70 51.5t91.5 37.5t116.5 14.5q63 0 133 -15
t133 -47q32 31 70 46.5t89 15.5q32 0 61 -5t50.5 -18.5t34.5 -36.5t13 -58q0 -29 -12 -50t-32 -34t-47.5 -19t-58.5 -6q-18 0 -32.5 2t-28 6.5t-27.5 11l-31 14.5q-2 -7 -3.5 -15.5t-2.5 -22.5t-1.5 -34t-0.5 -50q0 -21 9 -21q28 0 53.5 1t48.5 3zM239 656q64 -64 106 -64
q24 0 40 15t16 44q0 31 -20.5 46.5t-53.5 15.5q-45 0 -88 -57z" />
    <glyph glyph-name="gswash" unicode="&#xe01e;" 
d="M493 437q-7 -34 -10 -73.5t-3 -84.5v-296q0 -55 -6.5 -91t-17.5 -62q66 -40 110.5 -59.5t85.5 -19.5q48 0 90.5 11.5t77 29.5t59.5 41t38 47l37 -29q-21 -27 -51.5 -55.5t-71 -52t-92.5 -38t-118 -14.5q-63 0 -119.5 15t-119.5 47q-32 -31 -70 -46.5t-89 -15.5
q-32 0 -61 5t-51 18.5t-34.5 36.5t-12.5 58q0 29 12 50t32 34t47.5 19t58.5 6q72 0 139 -34q7 21 7 76v88q-50 -66 -134 -66q-36 0 -70.5 13.5t-61 41t-43 68.5t-16.5 96q0 64 17 110.5t46.5 76.5t69.5 44.5t87 14.5q48 0 78.5 -11.5t57.5 -38.5q6 13 19 25t30 26zM364 236
q0 20 -2 48.5t-12.5 54.5t-32.5 44.5t-62 18.5q-28 0 -44 -14.5t-24 -37.5t-10 -53t-2 -61t2 -64.5t11.5 -61t29 -45.5t54.5 -18q33 0 51.5 16t27.5 39.5t11 51t2 50.5v32zM321 -196q-64 64 -106 64q-24 0 -40 -15t-16 -44q0 -31 20.5 -46.5t53.5 -15.5q44 0 88 57z" />
    <glyph glyph-name="hswash" unicode="&#xe01f;" horiz-adv-x="652" 
d="M546 81q0 -36 71 -36v-45h-274v45q67 0 67 36v157q0 69 -18.5 104t-63.5 35q-48 0 -73.5 -26.5t-33.5 -74.5v-187q0 -44 75 -44v-45h-281v45q67 0 67 44v388q0 55 6.5 91t17.5 62q-136 79 -223 79q-48 0 -89.5 -12.5t-75 -31.5t-58.5 -42t-39 -43l-37 29q22 28 52 56.5
t70 51.5t91.5 37.5t116.5 14.5q63 0 133 -15t133 -47q32 31 70 46.5t89 15.5q32 0 61 -5t50.5 -18.5t34.5 -36.5t13 -58q0 -29 -12 -50t-32 -34t-47.5 -19t-58.5 -6q-36 0 -62.5 7.5t-57.5 26.5q-7 -21 -7 -76v-120q27 35 67.5 52t85.5 17q34 0 65 -9t55 -26.5t38 -44
t14 -60.5v-228zM241 656q64 -64 106 -64q24 0 40 15t16 44q0 31 -20.5 46.5t-53.5 15.5q-45 0 -88 -57z" />
    <glyph glyph-name="jswash" unicode="&#xe020;" horiz-adv-x="249" 
d="M242 -17q0 -55 -6.5 -91t-17.5 -62l57.5 -35t43 -24.5t37 -14.5t38.5 -5q48 0 90.5 11.5t77 29.5t59.5 41t38 47l37 -29q-21 -27 -51.5 -55.5t-71 -52t-92.5 -38t-118 -14.5q-63 0 -119.5 15t-119.5 47q-32 -31 -70 -46.5t-89 -15.5q-32 0 -61 5t-51 18.5t-34.5 36.5
t-12.5 58q0 29 12 50t32 34t47.5 19t58.5 6q72 0 139 -34q7 21 7 76v388q0 33 -78 33v39l218 39v-476zM173 689q61 0 61 -66q0 -70 -65 -70q-62 0 -62 70q0 66 66 66zM63 -196q-64 64 -106 64q-24 0 -40 -15t-16 -44q0 -31 20.5 -46.5t53.5 -15.5q44 0 88 57z" />
    <glyph glyph-name="kswash" unicode="&#xe021;" horiz-adv-x="593" 
d="M569 392q-40 0 -110 -29l-29 -30l-36 -36l115 -204q34 -48 69 -48h30v-45h-269v45q32 0 36 7l-79 157q-11 -7 -23.5 -14t-27.5 -14v-96q0 -40 45 -40v-45h-251v45q67 0 67 44v388q0 55 6.5 91t17.5 62q-136 79 -223 79q-48 0 -89.5 -12.5t-75 -31.5t-58.5 -42t-39 -43
l-37 29q22 28 52 56.5t70 51.5t91.5 37.5t116.5 14.5q63 0 133 -15t133 -47q32 31 70 46.5t89 15.5q32 0 61 -5t50.5 -18.5t34.5 -36.5t13 -58q0 -29 -12 -50t-32 -34t-47.5 -19t-58.5 -6q-36 0 -62.5 7.5t-57.5 26.5q-7 -21 -7 -76v-253q20 13 43.5 31.5t44 37.5t34.5 36
t14 28q0 12 -58 12v41h246v-41zM265 656q64 -64 106 -64q24 0 40 15t16 44q0 31 -20.5 46.5t-53.5 15.5q-45 0 -88 -57z" />
    <glyph glyph-name="lswash" unicode="&#xe022;" horiz-adv-x="344" 
d="M229 89q0 -44 75 -44v-45h-281v45q67 0 67 44v388q0 55 6.5 91t17.5 62q-136 79 -223 79q-48 0 -89.5 -12.5t-75 -31.5t-58.5 -42t-39 -43l-37 29q22 28 52 56.5t70 51.5t91.5 37.5t116.5 14.5q63 0 133 -15t133 -47q32 31 70 46.5t89 15.5q32 0 61 -5t50.5 -18.5
t34.5 -36.5t13 -58q0 -29 -12 -50t-32 -34t-47.5 -19t-58.5 -6q-36 0 -62.5 7.5t-57.5 26.5q-7 -21 -7 -76v-411zM249 656q64 -64 106 -64q24 0 40 15t16 44q0 31 -20.5 46.5t-53.5 15.5q-45 0 -88 -57z" />
    <glyph glyph-name="mswash" unicode="&#xe023;" horiz-adv-x="934" 
d="M851 29q0 -85 10 -124t42 -39q21 0 37.5 9t24.5 23q-1 -1 -11 -1q-30 0 -30 41q0 43 46 43q24 0 39 -20.5t15 -43.5q0 -24 -10.5 -43t-27.5 -33t-39 -21.5t-44 -7.5q-44 0 -78.5 16t-59 44t-37.5 66t-13 82v257q0 54 -16.5 81t-58.5 27q-33 0 -54.5 -20t-35.5 -62v-198
q0 -29 14.5 -44.5t47.5 -15.5v-45h-259v45q32 0 45 16t13 47v142q0 67 -16.5 101t-58.5 34q-48 0 -69.5 -30t-21.5 -90v-172q0 -48 62 -48v-45h-260v45q59 0 59 44v263q0 25 -71 25v40l198 37q9 -8 9 -28v-39q26 31 62 48t78 17t76 -18t56 -57q29 38 69.5 56.5t88.5 18.5
q34 0 66 -7.5t57 -25.5t40.5 -48t15.5 -74v-268z" />
    <glyph glyph-name="nswash" unicode="&#xe024;" horiz-adv-x="644" 
d="M566 29q0 -85 8 -124t40 -39q21 0 37.5 9t24.5 23q-1 -1 -11 -1q-30 0 -30 41q0 43 46 43q24 0 39 -20.5t15 -43.5q0 -24 -10.5 -43t-27.5 -33t-39 -21.5t-44 -7.5q-44 0 -78.5 16t-59 44t-37.5 66t-13 82v230q0 67 -21 101t-69 34t-69.5 -30t-21.5 -90v-184
q0 -17 16 -26.5t54 -9.5v-45h-268v45q59 0 59 40v263q0 29 -50 29h-21v40l198 37q8 -8 8 -28v-39q26 32 65 48t84 16q34 0 65.5 -9t56 -27.5t39.5 -46t15 -63.5v-276z" />
    <glyph glyph-name="oswash" unicode="&#xe025;" horiz-adv-x="546" 
d="M330 223q0 -55 -55 -55q-51 0 -51 55q0 51 54 51q52 0 52 -51zM516 223q0 -63 -21.5 -109t-56 -75.5t-78 -43.5t-87.5 -14q-50 0 -94.5 16t-77.5 45.5t-52 72t-19 96.5q0 68 21 114.5t55.5 75t79 40.5t91.5 12q48 0 91.5 -16t76.5 -45.5t52 -72t19 -96.5zM273 404
q-34 0 -53 -17.5t-28 -41.5t-11 -49.5t-2 -41.5q0 -33 1.5 -72t11 -73t29.5 -57t56 -23q33 0 51.5 17t27.5 41t10.5 49.5t1.5 42.5q0 33 -2 72t-11 73t-28.5 57t-53.5 23z" />
    <glyph glyph-name="pswash" unicode="&#xe026;" horiz-adv-x="541" 
d="M231 389q43 64 127 64q49 0 85.5 -17.5t61 -48t36.5 -71t12 -85.5q0 -60 -15 -105.5t-42 -76t-64.5 -46t-82.5 -15.5t-70 9t-45 25q1 -5 1 -12v-15v-12q0 -55 -8 -91t-19 -62l57.5 -35t43 -24.5t37 -14.5t38.5 -5q48 0 90.5 11.5t77 29.5t59.5 41t38 47l37 -29
q-21 -27 -51.5 -55.5t-71 -52t-92.5 -38t-118 -14.5q-63 0 -119.5 15t-119.5 47q-32 -31 -70 -46.5t-89 -15.5q-32 0 -61 5t-51 18.5t-34.5 36.5t-12.5 58q0 29 12 50t32 34t47.5 19t58.5 6q72 0 139 -34q7 21 7 76v372q0 41 -63 41v31l196 51q4 -10 5 -20t1 -20v-26z
M231 184q4 -28 10 -53t17 -44t29 -30.5t46 -11.5q29 0 45 14t24 36.5t9.5 52t1.5 59.5q0 31 -2.5 62.5t-12.5 57t-29.5 42t-52.5 16.5q-32 0 -49 -19t-25 -43.5t-9.5 -49t-1.5 -35.5v-54zM53 -196q-64 64 -106 64q-24 0 -40 -15t-16 -44q0 -31 20.5 -46.5t53.5 -15.5
q44 0 88 57z" />
    <glyph glyph-name="qswash" unicode="&#xe027;" horiz-adv-x="549" 
d="M507 446q-4 -35 -6.5 -62.5t-2.5 -47.5v-377q0 -85 8 -124t40 -39q21 0 37.5 9t24.5 23q-1 -1 -11 -1q-30 0 -30 41q0 43 46 43q24 0 39 -20.5t15 -43.5q0 -24 -10.5 -43t-27.5 -33t-39 -21.5t-44 -7.5q-44 0 -78.5 16t-59 44t-37.5 66t-13 82v86q-26 -27 -53.5 -39
t-63.5 -12q-54 0 -93 17.5t-64 47.5t-37 69.5t-12 83.5q0 131 58 187t168 56q45 0 78 -14t56 -37q8 13 17.5 25.5l18.5 25.5h76zM358 238q0 27 -3.5 56.5t-13.5 53.5t-29.5 40t-50.5 16q-27 0 -43.5 -10.5t-25.5 -32t-12.5 -54t-3.5 -76.5q0 -38 3 -70.5t13 -56.5t29 -37.5
t51 -13.5q48 0 67 30.5t19 91.5v63z" />
    <glyph glyph-name="rswash" unicode="&#xe028;" 
d="M245 404q38 83 97 118.5t127 35.5q45 0 72.5 -18t27.5 -57q0 -26 -14 -42.5t-41 -16.5q-50 0 -50 47q0 11 2.5 18.5t5.5 13.5q-84 -6 -137.5 -67t-89.5 -165v-178q0 -48 79 -48v-45h-286v45q67 0 67 52v216q0 68 -70 68v39l210 35v-51z" />
    <glyph glyph-name="sswash" unicode="&#xe029;" horiz-adv-x="421" 
d="M328 302q-20 48 -51 77t-66 29q-26 0 -38.5 -19.5t-12.5 -52.5q0 -24 5.5 -40.5t16.5 -30t27 -25t36 -24.5q36 -24 64 -47t46.5 -50t28 -60t9.5 -78q0 -35 -15 -66t-41 -54t-60.5 -36t-74.5 -13q-43 0 -75 10.5t-53 29.5t-31.5 44t-10.5 55q0 66 56 66q53 0 53 -50
q0 -43 -37 -46q8 -24 33.5 -37.5t61.5 -13.5t56.5 27.5t20.5 84.5q0 43 -22.5 74t-64.5 63l-49.5 38.5t-44 43t-31.5 52t-12 64.5q0 29 11.5 54t33.5 43t52.5 28.5t69.5 10.5q23 0 42.5 -4.5t40.5 -17.5q8 7 23 13t32 7q10 -42 12.5 -78.5t2.5 -70.5h-44z" />
    <glyph glyph-name="vswash" unicode="&#xe02a;" horiz-adv-x="478" 
d="M170 613q24 28 59.5 55.5t78 49.5t89.5 36t94 14q45 0 74 -14.5t50 -34.5q30 23 63.5 36.5t75.5 13.5q21 0 42.5 -5.5t38.5 -18t28 -32t11 -47.5q0 -35 -14 -59.5t-37 -39.5t-52 -22t-59 -7q-51 0 -80.5 18t-47.5 44q-14 -17 -28 -38t-30.5 -51.5t-36 -74l-45.5 -105.5
l-59 -146l-76 -196l-83 -9l-175 384q-7 15 -20.5 19.5t-35.5 4.5v45h274v-45q-63 0 -63 -20q0 -5 5 -23l96 -225q42 124 76 210t62.5 146t53.5 100.5t49 73.5q-17 24 -42 42t-68 18q-35 0 -72.5 -13.5t-72 -34t-62.5 -43.5t-44 -41zM649 676q3 -8 10.5 -22t18.5 -27.5
t25.5 -23t31.5 -9.5q12 0 25 3.5t24 11.5t18 20.5t7 30.5q0 27 -18 40t-41 13q-29 0 -53.5 -10t-47.5 -27z" />
    <glyph glyph-name="wswash" unicode="&#xe02b;" horiz-adv-x="753" 
d="M445 613q24 28 59.5 55.5t78 49.5t89.5 36t94 14q45 0 74 -14.5t50 -34.5q30 23 63.5 36.5t75.5 13.5q21 0 42.5 -5.5t38.5 -18t28 -32t11 -47.5q0 -35 -14 -59.5t-37 -39.5t-52 -22t-59 -7q-51 0 -80.5 18t-47.5 44q-14 -17 -28 -37.5t-30.5 -51.5t-37 -74.5t-46.5 -106
l-59.5 -147.5l-76.5 -198l-76 -5l-106 253l-110 -248l-75 -5l-155 373q-8 16 -24.5 25.5t-39.5 9.5v45h258v-45q-48 0 -48 -24q-2 -8 7 -29l84 -210l79 171l-21 68q-5 14 -23 19t-41 5v45h262v-45q-56 0 -56 -16q0 -2 2 -12l6 -29l80 -202q42 122 75.5 206.5t62 143.5t53 99
t48.5 72q-17 24 -42 42t-68 18q-35 0 -72.5 -13.5t-72 -34t-62.5 -43.5t-44 -41zM924 676q3 -8 10.5 -22t18.5 -27.5t25.5 -23t31.5 -9.5q12 0 25 3.5t24 11.5t18 20.5t7 30.5q0 27 -18 40t-41 13q-29 0 -53.5 -10t-47.5 -27z" />
    <glyph glyph-name="xswash" unicode="&#xe02c;" horiz-adv-x="459" 
d="M240 613q24 28 59.5 55.5t78 49.5t89.5 36t94 14q45 0 74 -14.5t50 -34.5q30 23 63.5 36.5t75.5 13.5q21 0 42.5 -5.5t38.5 -18t28 -32t11 -47.5q0 -35 -14 -59.5t-37 -39.5t-52 -22t-59 -7q-51 0 -80.5 18t-47.5 44l-67.5 -52t-80.5 -71t-96 -101t-113 -141l127 -161
q11 -14 27.5 -21.5t43.5 -7.5v-45h-237v45q51 0 51 11q-3 5 -6 11.5t-8 14.5l-62 87l-73 -81q-14 -15 -14 -24q0 -10 13 -14.5t42 -4.5v-45h-190v45q47 0 80 37l111 125l-122 161q-8 11 -26.5 15.5t-38.5 4.5v45h229v-45q-47 0 -47 -12q0 -3 1.5 -9.5t5.5 -11.5l64 -82
l106.5 137.5t90.5 105t79.5 78t73.5 56.5q-17 24 -42 42t-68 18q-35 0 -72.5 -13.5t-72 -34t-62.5 -43.5t-44 -41zM719 676q3 -8 10.5 -22t18.5 -27.5t25.5 -23t31.5 -9.5q12 0 25 3.5t24 11.5t18 20.5t7 30.5q0 27 -18 40t-41 13q-29 0 -53.5 -10t-47.5 -27z" />
    <glyph glyph-name="yswash" unicode="&#xe02d;" horiz-adv-x="456" 
d="M483 388q-48 0 -60 -31l-119 -300q-9 -21 -24 -51l-31.5 -60t-33 -57t-27.5 -42q33 -15 64 -32l58.5 -31.5t52.5 -23.5t46 -9q48 0 90.5 11.5t77 29.5t59.5 41t38 47l37 -29q-21 -27 -51.5 -55.5t-71 -52t-92.5 -38t-118 -14.5q-63 0 -119.5 15t-119.5 47
q-32 -31 -70 -46.5t-89 -15.5q-32 0 -61 5t-51 18.5t-34.5 36.5t-12.5 58q0 29 12 50t32 34t47.5 19t58.5 6q18 0 40 -5t44.5 -12.5t43.5 -16t38 -16.5q1 4 5.5 10t12.5 18t19 34t25 59l-177 364q-17 35 -59 35v45h266v-45h-27q-32 0 -32 -17q0 -11 2 -19t5 -15l98 -210
l74 188q6 15 8.5 27t2.5 22q0 24 -66 24v45h189v-45zM83 -206q-33 32 -61.5 53t-49.5 21q-24 0 -40 -15t-16 -44q0 -31 20.5 -46.5t53.5 -15.5q23 0 47 9t46 38z" />
    <glyph glyph-name="zswash" unicode="&#xe02e;" horiz-adv-x="416" 
d="M387 411l-233 -323q18 14 33 19.5t29 5.5q16 0 30.5 -6t27.5 -13t26 -13t27 -6q11 0 23.5 5t26.5 19l31 -35q-30 -41 -60 -55t-63 -14q-37 0 -73 8.5t-73 8.5q-18 0 -37.5 -4t-41.5 -17l-29 35l231 323q-16 -8 -29.5 -10.5t-25.5 -2.5q-17 0 -31 4t-26.5 9t-24 9t-22.5 4
t-22 -5t-23 -19l-31 37q29 40 57.5 54t63.5 14q34 0 66 -8.5t69 -8.5q17 0 34.5 4.5t39.5 15.5z" />
    <glyph glyph-name="a_b" unicode="&#xe02f;" horiz-adv-x="1040" 
d="M679 387q49 66 134 66q36 0 70.5 -13.5t61 -41t43 -68.5t16.5 -96q0 -64 -17 -110.5t-46.5 -76.5t-70 -44.5t-86.5 -14.5q-23 0 -47 5.5t-46 15.5t-40.5 22.5t-31.5 26.5q-27 -32 -72 -51t-93 -19q-39 0 -75 15t-59 47q-27 -35 -65 -48.5t-87 -13.5q-57 0 -95 26t-38 75
q0 40 16 69t47.5 50t79.5 36t113 27v34q0 48 -8.5 71.5t-43.5 23.5q-34 0 -58.5 -9.5t-25.5 -37.5q10 -10 10 -32q0 -46 -58 -46q-45 0 -45 53q0 25 11 48t34.5 40t60.5 27t90 10q33 0 64 -8t55.5 -25t39 -44.5t14.5 -66.5v-201q0 -33 9.5 -44t40.5 -11q14 0 28 6.5t25 19.5
t18 32t7 45v419q0 76 -67 76v41l187 34v-339zM675 199q0 -20 2 -48.5t12.5 -54.5t32.5 -44.5t62 -18.5q28 0 44 14.5t24 37.5t10 53t2 61t-2 64.5t-11.5 61t-29 45.5t-54.5 18q-33 0 -51.5 -16t-27.5 -39.5t-11 -51t-2 -50.5v-32zM295 223q-60 -8 -89.5 -31.5t-29.5 -75.5
q0 -35 10 -51.5t39 -16.5q28 0 42 9t19.5 23.5t6 32.5t2.5 36v74z" />
    <glyph glyph-name="c_t" unicode="&#xe030;" horiz-adv-x="810" 
d="M786 381h-130v-265q0 -11 0.5 -22t5 -20t13.5 -15t26 -6q27 0 49 21.5t27 54.5l37 -12q0 -31 -14.5 -55.5t-38 -41.5t-54 -26t-61.5 -9q-26 0 -49 6.5t-41 19.5t-28.5 33.5t-10.5 48.5v288h-68l5 43q15 2 32.5 8.5t33 19.5t26 31.5t10.5 44.5q0 37 -26 61t-71 24
q-48 0 -72 -29.5t-24 -77.5q0 -29 10.5 -48t23 -35.5t23 -33.5t10.5 -41q0 -23 -19 -40t-43 -17q-50 0 -50 53q0 4 2 14t2 18q0 17 -17 24.5t-35 7.5q-28 0 -45 -15.5t-26.5 -39.5t-12.5 -53.5t-3 -57.5q0 -39 4.5 -73.5t17 -60t34 -40.5t54.5 -15q64 0 107 64l39 -21
q-12 -30 -32.5 -52t-46 -36t-53 -20.5t-53.5 -6.5q-47 0 -87.5 15t-69.5 43.5t-45.5 71t-16.5 96.5q0 118 66.5 182t187.5 64q9 0 19 -1.5t21 -3.5q-11 36 -11 62q0 28 9.5 53t29 43.5t50.5 29.5t75 11q79 0 126.5 -39t47.5 -120v-55h76q12 0 26.5 3t27.5 8v-63z" />
    <glyph glyph-name="e_b" unicode="&#xe031;" horiz-adv-x="995" 
d="M634 387q49 66 134 66q36 0 70.5 -13.5t61 -41t43 -68.5t16.5 -96q0 -128 -68 -187t-186 -59q-39 0 -68 9.5t-49.5 24.5t-34.5 34t-24 39q-37 -45 -93.5 -76t-125.5 -31q-280 0 -280 223q0 58 17.5 103t48.5 76t72.5 47t88.5 16q52 0 90.5 -14.5t64 -40t38.5 -61
t13 -76.5v-14t-1 -15h-275q-12 0 -12 -9q0 -36 7 -66.5t23.5 -52.5t44.5 -34.5t70 -12.5q28 0 56 9t53.5 23t47 31t37.5 34v421q0 76 -67 76v41l187 34v-339zM630 199q0 -20 2 -48.5t12.5 -54.5t32.5 -44.5t62 -18.5q28 0 44 14.5t24 37.5t10 53t2 61t-2 64.5t-11.5 61
t-29 45.5t-54.5 18q-33 0 -51.5 -16t-27.5 -39.5t-11 -51t-2 -50.5v-32zM285 276q16 0 26 8.5t10 25.5q0 19 -3 36t-10.5 30t-21 20.5t-33.5 7.5q-23 0 -38 -10.5t-24 -27.5t-12.5 -39t-3.5 -45q0 -6 16 -6h94z" />
    <glyph glyph-name="e_e" unicode="&#xe032;" horiz-adv-x="971" 
d="M660 232q-12 0 -12 -9q0 -36 6.5 -66.5t20.5 -52.5t36 -34.5t54 -12.5q42 0 73 22t55 56l34 -24q-59 -123 -189 -123q-75 0 -128.5 26t-81.5 80q-37 -45 -93 -75.5t-125 -30.5q-280 0 -280 223q0 58 17.5 103t48.5 76t72.5 47t88.5 16q52 0 90.5 -14.5t64 -40t38.5 -61
t13 -76.5v-14t-1 -15h-275q-12 0 -12 -9q0 -36 7 -66.5t23.5 -52.5t44.5 -34.5t70 -12.5q27 0 54 8.5t51.5 21.5t46 29.5t37.5 32.5q-6 28 -6 62q0 58 17.5 103t48.5 76t72.5 47t88.5 16q52 0 90.5 -14.5t64 -40t38.5 -61t13 -76.5v-14t-1 -15h-275zM758 276q16 0 26 8.5
t10 25.5q0 19 -3 36t-10.5 30t-21 20.5t-33.5 7.5q-23 0 -38 -10.5t-24 -27.5t-12.5 -39t-3.5 -45q0 -6 16 -6h94zM285 276q16 0 26 8.5t10 25.5q0 19 -3 36t-10.5 30t-21 20.5t-33.5 7.5q-23 0 -38 -10.5t-24 -27.5t-12.5 -39t-3.5 -45q0 -6 16 -6h94z" />
    <glyph glyph-name="f_j" unicode="&#xe033;" horiz-adv-x="615" 
d="M561 15q0 -51 -18.5 -88t-46.5 -60.5t-61 -35t-62 -11.5q-52 0 -72.5 16t-20.5 49q0 50 50 50q15 0 21.5 -8.5t9 -19l4.5 -19t8 -8.5q48 0 48 107v361q0 33 -61 33h-106q-10 0 -10 -5v-287q0 -44 91 -44v-45h-298v45q67 0 67 44v283q0 5 -5 5h-91v56h88q8 0 8 21
q0 76 21.5 127.5t57.5 83t83.5 45.5t100.5 14q21 0 50 -5.5t54.5 -21t43.5 -43.5t18 -72q0 -11 -3.5 -23.5t-11 -22.5t-18.5 -16.5t-26 -6.5q-25 0 -42.5 12t-17.5 38q0 15 4.5 29t22.5 22q-9 30 -35.5 41.5t-61.5 11.5q-34 0 -53.5 -16t-30 -40t-13.5 -52.5t-3 -53.5v-51
q0 -21 10 -21h307v-418z" />
    <glyph glyph-name="f_t" unicode="&#xe034;" horiz-adv-x="689" 
d="M665 381h-130v-265q0 -11 0.5 -22t5 -20t13.5 -15t26 -6q27 0 48.5 21.5t27.5 54.5l37 -12q-7 -29 -17.5 -53.5t-27 -42t-41 -27t-59.5 -9.5q-30 0 -57.5 6.5t-48.5 21.5t-34 39t-13 60v269h-142q-10 0 -10 -5v-287q0 -44 91 -44v-45h-298v45q67 0 67 44v283q0 5 -5 5
h-90v56h87q8 0 8 21q0 54 15 102.5t46 86t79.5 59.5t116.5 22q91 0 134 -24.5t43 -66.5q0 -22 -14 -34.5t-35 -12.5q-28 0 -37.5 11.5t-9.5 37.5q0 3 0.5 5.5t5.5 7.5q-11 9 -34 15t-56 6q-48 0 -81 -47.5t-33 -141.5v-26q0 -21 10 -21h95q22 0 46 9t44 25t34.5 38.5
t18.5 50.5l44 6v-129h76q24 0 54 11v-63z" />
    <glyph glyph-name="g_g" unicode="&#xe035;" horiz-adv-x="950" 
d="M755 67q42 0 73.5 -10.5t52.5 -27.5t31.5 -39t10.5 -44q0 -25 -12 -49t-37 -43t-62 -30.5t-86 -11.5h-136q-29 0 -52.5 7.5t-40 20.5t-25 29t-8.5 34q0 26 19 50.5t64 41.5q-34 10 -49.5 32t-15.5 47q0 30 21 56.5t63 34.5q-19 8 -34.5 18.5t-27 25.5t-17.5 35.5t-6 49.5
q0 75 54 117q-9 26 -23.5 38t-29.5 12q-23 0 -42.5 -22t-22.5 -59q23 -35 23 -86q0 -88 -57 -126t-166 -38q-12 0 -23.5 2t-25.5 6q-43 -6 -43 -35q0 -20 16.5 -28t53.5 -8h77q42 0 73.5 -10.5t52.5 -27.5t31.5 -39t10.5 -44q0 -25 -12 -49t-37 -43t-62 -30.5t-86 -11.5h-96
q-29 0 -52.5 7.5t-40 20.5t-25 29t-8.5 34q0 26 19 50.5t64 41.5q-34 10 -49.5 32t-15.5 47q0 30 21 56.5t63 34.5q-19 8 -34.5 18.5t-27 25.5t-17.5 35.5t-6 49.5q0 39 14.5 68.5t41.5 50t64.5 30.5t82.5 10q85 0 138 -35q2 22 11.5 38.5t24 28t32 17.5t35.5 6
q31 0 57.5 -18t36.5 -56q39 19 108 19q38 0 74 -10t65 -30q18 22 41 33t47 11q49 0 49 -43q0 -47 -39 -47q-22 0 -37 16q-6 -2 -11.5 -5l-10.5 -6q10 -17 15.5 -36t5.5 -42q0 -88 -57 -126t-166 -38q-12 0 -23.5 2t-25.5 6q-43 -6 -43 -35q0 -20 16.5 -28t53.5 -8h117z
M237 408q-41 0 -52 -25.5t-11 -77.5q0 -60 10 -91.5t49 -31.5q43 0 55 23t12 68q0 67 -11 101t-52 34zM680 408q-41 0 -52 -25.5t-11 -77.5q0 -60 10 -91.5t49 -31.5q43 0 55 23t12 68q0 67 -11 101t-52 34zM626 -19q-23 -8 -35 -21.5t-12 -36.5q0 -31 23.5 -48.5
t72.5 -17.5h30q60 0 80.5 18.5t20.5 56.5q0 24 -19 36.5t-76 12.5h-85zM183 -19q-23 -8 -35 -21.5t-12 -36.5q0 -31 22 -48.5t64 -17.5q60 0 80.5 18.5t20.5 56.5q0 24 -19 36.5t-76 12.5h-45z" />
    <glyph glyph-name="g_i" unicode="&#xe036;" horiz-adv-x="814" 
d="M700 97q0 -52 79 -52v-45h-289v45q70 0 70 56v204q0 76 -62 76h-86q28 -37 28 -87q0 -88 -57 -126t-166 -38q-12 0 -23.5 2t-25.5 6q-43 -6 -43 -35q0 -20 16.5 -28t53.5 -8h117q42 0 73.5 -10.5t52.5 -27.5t31.5 -39t10.5 -44q0 -25 -12 -49t-37 -43t-62 -30.5
t-86 -11.5h-136q-29 0 -52.5 7.5t-40 20.5t-25 29t-8.5 34q0 26 19 50.5t64 41.5q-34 10 -49.5 32t-15.5 47q0 30 21 56.5t63 34.5q-19 8 -34.5 18.5t-27 25.5t-17.5 35.5t-6 49.5q0 39 14.5 68.5t41.5 50t64.5 30.5t82.5 10q53 0 104 -20h355v-336zM237 408
q-41 0 -52 -25.5t-11 -77.5q0 -60 10 -91.5t49 -31.5q43 0 55 23t12 68q0 67 -11 101t-52 34zM183 -19q-23 -8 -35 -21.5t-12 -36.5q0 -31 23.5 -48.5t72.5 -17.5h30q60 0 80.5 18.5t20.5 56.5q0 24 -19 36.5t-76 12.5h-85zM627 689q62 0 62 -66q0 -70 -66 -70q-62 0 -62 70
q0 66 66 66z" />
    <glyph glyph-name="g_m" unicode="&#xe037;" horiz-adv-x="1408" 
d="M1305 89q0 -44 67 -44v-45h-264v45q33 0 47 11t14 33v188q0 54 -16.5 81t-58.5 27q-33 0 -54.5 -20t-35.5 -62v-198q0 -29 14.5 -44.5t47.5 -15.5v-45h-259v45q32 0 45 16t13 47v142q0 67 -16.5 101t-58.5 34q-43 0 -64.5 -25t-25.5 -73v-190q0 -52 79 -52v-45h-289v45
q70 0 70 56v204q0 76 -62 76h-86q28 -37 28 -87q0 -88 -57 -126t-166 -38q-12 0 -23.5 2t-25.5 6q-43 -6 -43 -35q0 -20 16.5 -28t53.5 -8h117q42 0 73.5 -10.5t52.5 -27.5t31.5 -39t10.5 -44q0 -25 -12 -49t-37 -43t-62 -30.5t-86 -11.5h-136q-29 0 -52.5 7.5t-40 20.5
t-25 29t-8.5 34q0 26 19 50.5t64 41.5q-34 10 -49.5 32t-15.5 47q0 30 21 56.5t63 34.5q-19 8 -34.5 18.5t-27 25.5t-17.5 35.5t-6 49.5q0 39 14.5 68.5t41.5 50t64.5 30.5t82.5 10q53 0 104 -20h347v-41q26 29 65 44.5t79 15.5q42 0 76 -18t56 -57q29 38 69.5 56.5
t88.5 18.5q34 0 66 -7.5t57 -25.5t40.5 -48t15.5 -74v-208zM237 408q-41 0 -52 -25.5t-11 -77.5q0 -60 10 -91.5t49 -31.5q43 0 55 23t12 68q0 67 -11 101t-52 34zM183 -19q-23 -8 -35 -21.5t-12 -36.5q0 -31 23.5 -48.5t72.5 -17.5h30q60 0 80.5 18.5t20.5 56.5
q0 24 -19 36.5t-76 12.5h-85z" />
    <glyph glyph-name="g_n" unicode="&#xe038;" horiz-adv-x="1119" 
d="M1021 105q0 -29 14.5 -44.5t47.5 -15.5v-45h-266v45q62 0 62 63v142q0 67 -23.5 101t-65.5 34q-43 0 -64.5 -25t-25.5 -73v-190q0 -26 16 -39t55 -13v-45h-281v45q70 0 70 56v204q0 76 -62 76h-86q28 -37 28 -87q0 -88 -57 -126t-166 -38q-12 0 -23.5 2t-25.5 6
q-43 -6 -43 -35q0 -20 16.5 -28t53.5 -8h117q42 0 73.5 -10.5t52.5 -27.5t31.5 -39t10.5 -44q0 -25 -12 -49t-37 -43t-62 -30.5t-86 -11.5h-136q-29 0 -52.5 7.5t-40 20.5t-25 29t-8.5 34q0 26 19 50.5t64 41.5q-34 10 -49.5 32t-15.5 47q0 30 21 56.5t63 34.5
q-19 8 -34.5 18.5t-27 25.5t-17.5 35.5t-6 49.5q0 39 14.5 68.5t41.5 50t64.5 30.5t82.5 10q53 0 104 -20h355v-41q54 60 136 60q91 0 138 -41.5t47 -107.5v-198zM237 408q-41 0 -52 -25.5t-11 -77.5q0 -60 10 -91.5t49 -31.5q43 0 55 23t12 68q0 67 -11 101t-52 34z
M183 -19q-23 -8 -35 -21.5t-12 -36.5q0 -31 23.5 -48.5t72.5 -17.5h30q60 0 80.5 18.5t20.5 56.5q0 24 -19 36.5t-76 12.5h-85z" />
    <glyph glyph-name="g_r" unicode="&#xe039;" horiz-adv-x="907" 
d="M789 373q-29 0 -46 -19t-26.5 -45.5t-12.5 -55.5t-3 -50v-110q0 -48 79 -48v-45h-276v45q26 0 41 12.5t15 43.5v204q0 76 -62 76h-86q28 -37 28 -87q0 -88 -57 -126t-166 -38q-12 0 -23.5 2t-25.5 6q-43 -6 -43 -35q0 -20 16.5 -28t53.5 -8h117q42 0 73.5 -10.5
t52.5 -27.5t31.5 -39t10.5 -44q0 -25 -12 -49t-37 -43t-62 -30.5t-86 -11.5h-136q-29 0 -52.5 7.5t-40 20.5t-25 29t-8.5 34q0 26 19 50.5t64 41.5q-34 10 -49.5 32t-15.5 47q0 30 21 56.5t63 34.5q-19 8 -34.5 18.5t-27 25.5t-17.5 35.5t-6 49.5q0 39 14.5 68.5t41.5 50
t64.5 30.5t82.5 10q53 0 104 -20h356v-66q7 14 19 29.5t27 28t32.5 20.5t36.5 8q86 0 86 -77q0 -66 -55 -66q-49 0 -49 46v8.5t1 8.5h-10zM237 408q-41 0 -52 -25.5t-11 -77.5q0 -60 10 -91.5t49 -31.5q43 0 55 23t12 68q0 67 -11 101t-52 34zM183 -19q-23 -8 -35 -21.5
t-12 -36.5q0 -31 23.5 -48.5t72.5 -17.5h30q60 0 80.5 18.5t20.5 56.5q0 24 -19 36.5t-76 12.5h-85z" />
    <glyph glyph-name="g_t" unicode="&#xe03a;" horiz-adv-x="786" 
d="M632 433h76q12 0 26.5 3t27.5 8v-63h-119l-11 -10v-255q0 -11 0.5 -22t5 -20t13.5 -15t26 -6q27 0 49 21.5t27 54.5l37 -12q0 -31 -14.5 -55.5t-38 -41.5t-54 -26t-61.5 -9q-26 0 -49 6.5t-41 19.5t-28.5 33.5t-10.5 48.5v288h-81q28 -37 28 -87q0 -88 -57 -126t-166 -38
q-12 0 -23.5 2t-25.5 6q-43 -6 -43 -35q0 -20 16.5 -28t53.5 -8h117q42 0 73.5 -10.5t52.5 -27.5t31.5 -39t10.5 -44q0 -25 -12 -49t-37 -43t-62 -30.5t-86 -11.5h-136q-29 0 -52.5 7.5t-40 20.5t-25 29t-8.5 34q0 26 19 50.5t64 41.5q-34 10 -49.5 32t-15.5 47
q0 30 21 56.5t63 34.5q-19 8 -34.5 18.5t-27 25.5t-17.5 35.5t-6 49.5q0 39 14.5 68.5t41.5 50t64.5 30.5t82.5 10q53 0 104 -20h82q35 0 62.5 13.5t47.5 35t33 47.5t19 52l43 6v-154zM237 408q-41 0 -52 -25.5t-11 -77.5q0 -60 10 -91.5t49 -31.5q43 0 55 23t12 68
q0 67 -11 101t-52 34zM183 -19q-23 -8 -35 -21.5t-12 -36.5q0 -31 23.5 -48.5t72.5 -17.5h30q60 0 80.5 18.5t20.5 56.5q0 24 -19 36.5t-76 12.5h-85z" />
    <glyph glyph-name="g_u" unicode="&#xe03b;" horiz-adv-x="1083" 
d="M986 89q0 -28 70 -32l11 -41l-210 -21q-4 7 -5 15.5t-1 19.5v16q-11 -14 -21.5 -24.5t-25 -18t-34.5 -11.5t-48 -4q-38 0 -71 8.5t-57.5 26.5t-39 45.5t-14.5 65.5v178q0 69 -62 69h-66q28 -37 28 -87q0 -88 -57 -126t-166 -38q-12 0 -23.5 2t-25.5 6q-43 -6 -43 -35
q0 -20 16.5 -28t53.5 -8h117q42 0 73.5 -10.5t52.5 -27.5t31.5 -39t10.5 -44q0 -25 -12 -49t-37 -43t-62 -30.5t-86 -11.5h-136q-29 0 -52.5 7.5t-40 20.5t-25 29t-8.5 34q0 26 19 50.5t64 41.5q-34 10 -49.5 32t-15.5 47q0 30 21 56.5t63 34.5q-19 8 -34.5 18.5t-27 25.5
t-17.5 35.5t-6 49.5q0 39 14.5 68.5t41.5 50t64.5 30.5t82.5 10q53 0 104 -20h335v-262q0 -23 1.5 -44.5t8.5 -38t21 -26t38 -9.5q38 0 60.5 26.5t37.5 74.5v206q0 28 -74 28l-6 40l219 13v-352zM237 408q-41 0 -52 -25.5t-11 -77.5q0 -60 10 -91.5t49 -31.5q43 0 55 23
t12 68q0 67 -11 101t-52 34zM183 -19q-23 -8 -35 -21.5t-12 -36.5q0 -31 23.5 -48.5t72.5 -17.5h30q60 0 80.5 18.5t20.5 56.5q0 24 -19 36.5t-76 12.5h-85z" />
    <glyph glyph-name="g_y" unicode="&#xe03c;" horiz-adv-x="939" 
d="M956 388q-48 0 -60 -31l-119 -300q-20 -50 -40.5 -93t-44 -75t-50 -50.5t-59.5 -18.5q-68 0 -68 57q0 58 46 58q18 0 26 -8.5t11.5 -19l6.5 -19t11 -8.5q11 0 28 19.5t37 71.5l-186 382q-5 9 -19 18.5t-34 9.5h-30q28 -37 28 -87q0 -88 -57 -126t-166 -38q-12 0 -23.5 2
t-25.5 6q-43 -6 -43 -35q0 -20 16.5 -28t53.5 -8h117q42 0 73.5 -10.5t52.5 -27.5t31.5 -39t10.5 -44q0 -25 -12 -49t-37 -43t-62 -30.5t-86 -11.5h-136q-29 0 -52.5 7.5t-40 20.5t-25 29t-8.5 34q0 26 19 50.5t64 41.5q-34 10 -49.5 32t-15.5 47q0 30 21 56.5t63 34.5
q-19 8 -34.5 18.5t-27 25.5t-17.5 35.5t-6 49.5q0 39 14.5 68.5t41.5 50t64.5 30.5t82.5 10q53 0 104 -20h357v-45h-27q-30 0 -32 -14q0 -10 1 -19t6 -18l98 -210l74 188q11 30 11 49q0 24 -66 24v45h189v-45zM237 408q-41 0 -52 -25.5t-11 -77.5q0 -60 10 -91.5t49 -31.5
q43 0 55 23t12 68q0 67 -11 101t-52 34zM183 -19q-23 -8 -35 -21.5t-12 -36.5q0 -31 23.5 -48.5t72.5 -17.5h30q60 0 80.5 18.5t20.5 56.5q0 24 -19 36.5t-76 12.5h-85z" />
    <glyph glyph-name="o_o" unicode="&#xe03d;" horiz-adv-x="883" 
d="M439 386q32 36 76 51.5t98 15.5q48 0 91.5 -16t76.5 -45.5t52 -72t19 -96.5q0 -63 -21.5 -109t-56 -75.5t-78 -43.5t-87.5 -14q-54 0 -97 18t-72 51q-32 -35 -75.5 -52t-91.5 -17q-50 0 -94.5 16t-77.5 45.5t-52 72t-19 96.5q0 68 21 114.5t55.5 75t79 40.5t91.5 12
q51 0 92 -17.5t70 -49.5zM609 404q-34 0 -53 -17.5t-28 -41.5t-11 -49.5t-2 -41.5q0 -33 1.5 -72t11 -73t29.5 -57t56 -23q33 0 51.5 17t27.5 41t10.5 49.5t1.5 42.5q0 33 -2 72t-11 73t-28.5 57t-53.5 23zM273 404q-34 0 -53 -17.5t-28 -41.5t-11 -49.5t-2 -41.5
q0 -33 1.5 -72t11 -73t29.5 -57t56 -23q33 0 51.5 17t27.5 41t10.5 49.5t1.5 42.5q0 33 -2 72t-11 73t-28.5 57t-53.5 23z" />
    <glyph glyph-name="r_a" unicode="&#xe03e;" horiz-adv-x="885" 
d="M803 85q0 -32 28 -32q12 0 31 13l21 -13q-10 -32 -42.5 -48.5t-68.5 -16.5q-31 0 -60 14.5t-39 46.5q-35 -28 -64 -44.5t-69 -16.5q-57 0 -95 26t-38 75q0 40 16 69t47.5 50t79.5 36t113 27v34q0 48 -8.5 71.5t-43.5 23.5q-34 0 -58 -9.5t-30 -27.5q15 -18 15 -38
t-16 -35t-43 -15q-26 0 -37 14t-11 33q0 24 16 46q-21 9 -42 9q-29 0 -58 -14.5t-51.5 -38.5t-36.5 -55.5t-14 -65.5v-110q0 -48 79 -48v-45h-286v45q67 0 67 52v216q0 68 -70 68v39l210 35v-88q8 15 24 30.5t37 28.5t45.5 21.5t49.5 8.5q22 0 44 -7.5t42 -25.5
q31 16 68 24.5t75 8.5q34 0 65 -8t55 -25.5t38.5 -45.5t14.5 -68v-224zM667 223q-60 -8 -89.5 -31.5t-29.5 -75.5q0 -35 10 -51.5t39 -16.5q28 0 42 9t19.5 23.5t6 32.5t2.5 36v74z" />
    <glyph glyph-name="r_f" unicode="&#xe03f;" horiz-adv-x="668" 
d="M550 473q21 -5 45.5 -12.5t45.5 -19.5t35.5 -28t14.5 -37q0 -66 -54 -66q-50 0 -50 46q0 8 3 21l5 21q-9 7 -20.5 12.5t-24.5 7.5v-329q0 -44 91 -44v-45h-287v45q32 0 44.5 11t12.5 33v342q-50 -15 -82.5 -36.5t-51 -50t-25.5 -63.5t-7 -78v-110q0 -23 15 -35.5
t53 -12.5v-45h-275v45q67 0 67 52v216q0 68 -70 68v39l210 35v-85q18 39 59 70t107 38q2 66 19.5 112.5t47.5 76.5t71.5 43.5t92.5 13.5q45 0 67 -19.5t22 -55.5q0 -23 -15.5 -37.5t-36.5 -14.5q-44 0 -44 37q0 6 2 12.5t4 11.5q-8 9 -23 9q-21 0 -34.5 -18.5t-21 -44
t-10 -53.5t-2.5 -46v-32z" />
    <glyph glyph-name="r_g" unicode="&#xe040;" horiz-adv-x="837" 
d="M245 367q14 27 37.5 48.5t52.5 36t61 22t64 7.5q30 0 57 -7t47 -21q88 0 146 -40q18 22 41 33t47 11q49 0 49 -43q0 -47 -39 -47q-22 0 -37 16q-6 -2 -11.5 -5l-10.5 -6q10 -17 15.5 -36t5.5 -42q0 -88 -57 -126t-166 -38q-12 0 -23.5 2t-25.5 6q-43 -6 -43 -35
q0 -20 16.5 -28t53.5 -8h117q42 0 73.5 -10.5t52.5 -27.5t31.5 -39t10.5 -44q0 -25 -12 -49t-37 -43t-62 -30.5t-86 -11.5h-136q-29 0 -52.5 7.5t-40 20.5t-25 29t-8.5 34q0 26 19 50.5t64 41.5q-34 10 -49.5 32t-15.5 47q0 30 21 56.5t63 34.5q-19 8 -34.5 18.5t-27 25.5
t-17.5 35.5t-6 49.5q0 51 23 84.5t65 52.5q-6 1 -11.5 1.5t-11.5 0.5q-38 0 -72 -22t-60 -56t-41 -74.5t-15 -77.5v-110q0 -48 79 -48v-45h-286v45q67 0 67 52v216q0 68 -70 68v39l210 35v-88zM567 408q-41 0 -52 -25.5t-11 -77.5q0 -60 10 -91.5t49 -31.5q43 0 55 23t12 68
q0 67 -11 101t-52 34zM513 -19q-23 -8 -35 -21.5t-12 -36.5q0 -31 23.5 -48.5t72.5 -17.5h30q60 0 80.5 18.5t20.5 56.5q0 24 -19 36.5t-76 12.5h-85z" />
    <glyph glyph-name="r_t" unicode="&#xe041;" horiz-adv-x="719" 
d="M556 477q34 -3 61 -12.5t46 -23.5t29 -30.5t10 -34.5q0 -66 -54 -66q-49 0 -49 46q0 20 15 44q-12 11 -26.5 17.5t-31.5 11.5v-313q0 -11 0.5 -22t5 -20t13.5 -15t26 -6q27 0 48.5 21.5t27.5 54.5l37 -12q-13 -59 -48 -95.5t-103 -36.5q-27 0 -53 6t-47 19.5t-34 33.5
t-13 49v329q-46 -12 -78 -34t-52.5 -51t-30 -63.5t-9.5 -70.5v-110q0 -48 78 -48v-45h-285v45q67 0 67 52v216q0 68 -71 68v39l211 35v-96q32 49 81.5 77.5t104.5 37.5q7 13 16.5 27l18.5 27.5t16 27t10 26.5l63 5v-110z" />
    <glyph glyph-name="r_y" unicode="&#xe042;" horiz-adv-x="868" 
d="M886 388q-48 0 -60 -31l-119 -300q-20 -50 -40.5 -93t-44 -75t-50.5 -50.5t-59 -18.5q-68 0 -68 57q0 58 46 58q18 0 26 -8.5t11.5 -19l6.5 -19t11 -8.5q11 0 28 19.5t37 71.5l-168 344q-18 36 -43.5 47t-47.5 11q-29 0 -49 -19t-33 -45.5t-19 -55.5t-6 -50v-110
q0 -48 79 -48v-45h-286v45q67 0 67 52v216q0 68 -70 68v39l210 35v-88q7 14 19 29.5t29.5 28t39 20.5t48.5 8q33 0 61 -3t52.5 -15t45.5 -35t40 -63l98 -210l74 188q11 30 11 49q0 24 -66 24v45h189v-45z" />
    <glyph glyph-name="t_a" unicode="&#xe043;" horiz-adv-x="887" 
d="M772 85q0 -32 28 -32q12 0 31 13l21 -13q-10 -32 -42.5 -48.5t-68.5 -16.5q-31 0 -60 14.5t-39 46.5q-35 -28 -64 -44.5t-69 -16.5t-71 12.5t-48 37.5q-29 -25 -67 -39.5t-95 -14.5q-31 0 -60 8t-51 25.5t-35.5 46t-13.5 69.5v248h-68l5 43q24 4 49.5 18.5t48 35.5
t39 47.5t22.5 55.5l43 6v-154h76q12 0 26.5 3t27.5 8v-63h-130v-245q0 -47 25.5 -66.5t58.5 -19.5q23 0 46 7.5t40 19.5q0 45 15 76t46 53.5t79 37.5t115 27v34q0 48 -8.5 71.5t-43.5 23.5q-34 0 -58.5 -9.5t-25.5 -37.5q10 -10 10 -32q0 -46 -58 -46q-45 0 -45 53
q0 25 11 48t34.5 40t60.5 27t90 10q33 0 64 -8t55.5 -25t39 -44.5t14.5 -66.5v-224zM636 223q-60 -8 -89.5 -31.5t-29.5 -75.5q0 -35 10 -51.5t39 -16.5q28 0 42 9t19.5 23.5t6 32.5t2.5 36v74z" />
    <glyph glyph-name="t_f" unicode="&#xe044;" horiz-adv-x="708" 
d="M696 381h-96q-10 0 -10 -5v-287q0 -44 91 -44v-45h-297v45q66 0 66 44v283q0 5 -4 5h-239v-261q0 -11 0.5 -22t5 -20t13.5 -15t26 -6q27 0 49 21.5t27 54.5l37 -12q-6 -29 -16.5 -53.5t-27 -42t-40.5 -27t-57 -9.5q-27 0 -54.5 6t-50 19.5t-37 33.5t-14.5 49v288h-68
l5 43q23 4 45.5 18.5t41 35.5t32.5 47.5t20 55.5l63 6v-154h235q8 0 8 21q0 73 16 124.5t46 84t73 47t97 14.5q45 0 67 -19.5t22 -55.5q0 -23 -15.5 -37.5t-36.5 -14.5q-44 0 -44 37q0 6 2 12.5t4 11.5q-8 9 -23 9q-21 0 -34.5 -18.5t-21 -44t-10 -53.5t-2.5 -46v-51
q0 -21 10 -21q23 0 51 0.5t51 3.5z" />
    <glyph glyph-name="t_o" unicode="&#xe045;" horiz-adv-x="904" 
d="M207 433h76q12 0 26.5 3t27.5 8v-63h-130v-225q0 -26 7.5 -45t20.5 -32t29.5 -19.5t33.5 -6.5q13 0 28.5 4t30.5 11.5t27.5 18t19.5 22.5q-21 43 -21 102q0 68 21 114.5t55.5 75t79 40.5t91.5 12q48 0 91.5 -16t76.5 -45.5t52 -72t19 -96.5q0 -63 -21.5 -109t-56 -75.5
t-78 -43.5t-87.5 -14q-61 0 -112 22.5t-84 64.5q-22 -39 -63.5 -61t-95.5 -22q-26 0 -61.5 7t-67 24t-53.5 47t-22 76v242h-67l4 43q24 4 46.5 18.5t41 35.5t32.5 47.5t20 55.5l63 6v-154zM626 404q-34 0 -53 -17.5t-28 -41.5t-11 -49.5t-2 -41.5q0 -33 1.5 -72t11 -73
t29.5 -57t56 -23q33 0 51.5 17t27.5 41t10.5 49.5t1.5 42.5q0 33 -2 72t-11 73t-28.5 57t-53.5 23z" />
    <glyph glyph-name="s_h" unicode="&#xe046;" horiz-adv-x="987" 
d="M555 380q27 35 67.5 52t85.5 17q34 0 65 -9t55 -26.5t38 -44t14 -60.5v-228q0 -36 71 -36v-45h-274v45q67 0 67 36v157q0 69 -18.5 104t-63.5 35q-48 0 -73.5 -26.5t-33.5 -74.5v-187q0 -44 75 -44v-45h-259v45q24 0 34.5 11t10.5 33v283q-27 10 -55.5 17t-54 11t-48 6
t-37.5 2q-45 0 -76 -14t-31 -46q0 -17 16 -28.5t38 -20.5t45.5 -15t38.5 -11q24 -8 46.5 -17.5t40.5 -24t28.5 -36t10.5 -52.5q0 -36 -13.5 -65t-36.5 -50t-53 -32t-64 -11t-54.5 6t-37.5 19q-13 -10 -30 -15.5t-48 -7.5q-6 38 -7.5 83t-1.5 93h50q11 -38 22 -63t25.5 -40
t33.5 -21t45 -6q79 0 82 51q0 30 -18.5 46t-46.5 26.5t-60.5 19.5t-60.5 23.5t-46.5 40t-18.5 68.5q0 30 11 56.5t34 46t58 31t83 11.5q55 0 107 -6t84 -15v143q0 76 -63 76v41l202 34v-346z" />
    <glyph glyph-name="s_t" unicode="&#xe047;" horiz-adv-x="773" 
d="M749 381h-130v-265q0 -11 0.5 -22t5 -20t13.5 -15t26 -6q27 0 49 21.5t27 54.5l37 -12q0 -31 -14.5 -55.5t-38 -41.5t-54 -26t-61.5 -9q-26 0 -49 6.5t-41 19.5t-28.5 33.5t-10.5 48.5v288h-68l5 43q46 7 72.5 28t26.5 74q0 42 -27.5 64.5t-65.5 22.5q-51 0 -68 -33.5
t-17 -90.5q0 -33 5.5 -80t16.5 -107h-45q-49 106 -116 106q-14 0 -29 -3.5t-27.5 -10.5t-20.5 -18.5t-8 -27.5q0 -17 16 -28.5t38 -20.5t45.5 -15t38.5 -11q24 -8 46.5 -17.5t40.5 -24t28.5 -36t10.5 -52.5q0 -36 -13.5 -65t-36.5 -50t-53 -32t-64 -11t-54.5 6t-37.5 19
q-13 -10 -30 -15.5t-48 -7.5q-6 38 -7.5 83t-1.5 93h50q11 -38 22 -63t25.5 -40t33.5 -21t45 -6q79 0 82 51q0 30 -18.5 46t-46.5 26.5t-60.5 19.5t-60.5 23.5t-46.5 40t-18.5 68.5q0 30 10.5 56.5t31.5 46t51.5 31t71.5 11.5q17 0 35.5 -5.5t35.5 -17.5q-2 14 -3.5 27
t-1.5 24q0 34 8 65t27.5 54.5t51 37.5t78.5 14q42 0 76 -8.5t58 -28.5t37 -52t13 -79v-51h76q12 0 26.5 3t27.5 8v-63z" />
    <glyph glyph-name="Asmall" unicode="&#xe048;" 
d="M475 68q6 -15 22 -18.5t36 -4.5v-45h-261v45q35 0 47.5 4.5t12.5 12.5q0 6 -3 12l-31 85q-5 11 -33 11h-107q-18 0 -21 -11l-24 -74q-2 -8 -2 -11q0 -14 13 -21.5t49 -7.5v-45h-184v44q22 2 37 15.5t25 33.5l174 418l78 -11zM173 250q-4 -7 -4 -14q0 -13 19 -13h67
q15 0 15 13q0 8 -6 22l-44 106z" />
    <glyph glyph-name="Bsmall" unicode="&#xe049;" horiz-adv-x="580" 
d="M256 294q0 -9 9 -9q33 0 53.5 5t31.5 15t14.5 26t3.5 38q0 40 -13 63.5t-52 23.5q-25 0 -36 -7t-11 -15v-140zM310 501q94 0 141.5 -27.5t47.5 -96.5q0 -42 -21 -68t-60 -41q54 -12 82.5 -40.5t28.5 -88.5q0 -44 -16.5 -71.5t-44 -43t-64 -21.5t-76.5 -6q-66 0 -132 1.5
t-142 1.5v45q68 0 68 29v343q0 39 -71 39v45h259zM256 64q0 -8 11.5 -13.5t39.5 -5.5q45 0 65.5 21.5t20.5 72.5q0 30 -7.5 49t-23 29t-39.5 13.5t-58 3.5q-9 0 -9 -15v-155z" />
    <glyph glyph-name="Csmall" unicode="&#xe04a;" horiz-adv-x="535" 
d="M431 317q-18 75 -48.5 107t-81.5 32q-35 0 -57 -16t-35 -42t-17.5 -59.5t-4.5 -67.5q0 -48 5.5 -89t20 -71.5t39.5 -48t64 -17.5q51 0 84.5 29.5t60.5 96.5l45 -16q-22 -76 -76.5 -121t-129.5 -45q-68 0 -115.5 19t-77 53t-43 79.5t-13.5 99.5q0 58 12.5 107.5t39 84.5
t68.5 55t102 20q16 0 34 -2.5t36.5 -7t35.5 -11.5t30 -16q20 26 55 37q31 -66 31 -190h-64z" />
    <glyph glyph-name="Dsmall" unicode="&#xe04b;" horiz-adv-x="626" 
d="M51 502q26 -4 46.5 -4.5t37.5 -0.5q21 0 39 1t39 2.5t49 3t69 1.5q117 0 180.5 -60t63.5 -196q0 -65 -14 -111.5t-44.5 -77.5t-80 -45.5t-121.5 -14.5h-262v45q21 0 34.5 1.5t21 7.5t10 16.5t2.5 28.5v298q0 23 -3.5 33.5t-12 15t-22 6t-32.5 5.5v45zM256 93
q0 -30 11.5 -39t41.5 -9q134 0 134 204q0 101 -33 154t-113 53q-26 0 -33.5 -6.5t-7.5 -29.5v-327z" />
    <glyph glyph-name="Esmall" unicode="&#xe04c;" horiz-adv-x="563" 
d="M506 345l-58 -4q-6 40 -20 63t-34 34.5t-44.5 14.5t-50.5 3q-21 0 -32.5 -9t-11.5 -20v-132q0 -10 10 -10q16 0 29.5 2t24 9.5t17.5 23t10 41.5h54v-208h-54q-3 25 -8 40.5t-13 24t-20.5 11.5t-31.5 3q-18 -2 -18 -13v-137q0 -14 13 -25.5t36 -11.5q42 0 70.5 8.5
t48 24.5t32 39.5t23.5 54.5l54 -8l-22 -164h-454v45q65 0 65 34v329q0 48 -70 48v46h449z" />
    <glyph glyph-name="Fsmall" unicode="&#xe04d;" horiz-adv-x="506" 
d="M499 345l-61 -5q-7 36 -17 59t-26 35.5t-40 17t-58 4.5q-16 0 -29.5 -7.5t-13.5 -21.5v-126q0 -16 29 -16q16 0 26 3t16 11.5t10 22.5t8 36h53v-205h-54v25q0 8 -2 17.5t-9.5 17.5t-22.5 13.5t-40 5.5q-14 0 -14 -10v-131q0 -46 74 -46v-45h-271v45q62 0 62 46v314
q0 51 -68 51v46h435z" />
    <glyph glyph-name="Gsmall" unicode="&#xe04e;" horiz-adv-x="560" 
d="M437 317q-18 75 -48 107t-81 32q-35 0 -57.5 -16t-35 -42t-17.5 -59.5t-5 -67.5q0 -32 2 -71.5t12.5 -74.5t32.5 -59t62 -24q42 0 62 20.5t20 69.5q0 62 -73 62v44h249v-44q-63 0 -63 -43v-160h-34q-27 13 -51 37q-26 -18 -59 -28.5t-68 -10.5q-112 0 -173 61t-61 190
q0 58 13.5 107.5t41 84.5t70.5 55t103 20q16 0 34 -2.5t36.5 -7t35.5 -11.5t30 -16q10 13 23 22t33 15q30 -71 30 -190h-64z" />
    <glyph glyph-name="Hsmall" unicode="&#xe04f;" horiz-adv-x="681" 
d="M630 456q-66 0 -66 -51v-323q0 -37 66 -37v-45h-271v45q71 0 71 37v145q-20 5 -43 5h-88q-23 0 -41 -6v-144q0 -37 66 -37v-45h-273v45q73 0 73 37v323q0 51 -73 51v46h273v-46q-66 0 -66 -51v-117q10 -3 19 -4t22 -1h88q14 0 25.5 1t17.5 3v118q0 51 -71 51v46h271v-46z
" />
    <glyph glyph-name="Ismall" unicode="&#xe050;" horiz-adv-x="376" 
d="M321 456q-65 0 -65 -51v-323q0 -37 69 -37v-45h-271v45q68 0 68 37v323q0 51 -71 51v46h270v-46z" />
    <glyph glyph-name="Jsmall" unicode="&#xe051;" horiz-adv-x="396" 
d="M369 456q-61 0 -61 -51v-227q0 -39 -11.5 -73t-32.5 -59.5t-51.5 -40t-68.5 -14.5q-63 0 -99.5 26.5t-36.5 71.5q0 24 13 41.5t45 17.5q44 0 44 -40q0 -42 -28 -43q12 -15 41 -15q18 0 28.5 13.5t15.5 34t6.5 44.5t1.5 44v216q0 54 -74 54v46h268v-46z" />
    <glyph glyph-name="Ksmall" unicode="&#xe052;" horiz-adv-x="608" 
d="M593 458q-21 -3 -35.5 -6.5t-27.5 -10.5t-27 -19t-35 -33l-78 -78l154 -222q14 -21 34 -32.5t55 -11.5v-45h-266v45q30 0 30 16q0 11 -13 30l-86 131l-22 -21q-8 -8 -13 -14.5t-6 -16.5v-88q0 -18 14.5 -27.5t49.5 -9.5v-45h-264v45q66 0 66 37v334q0 40 -72 40v46h268
v-46q-62 0 -62 -40v-151l147 143q14 14 19.5 22t5.5 19q0 7 -51 7v46h215v-44z" />
    <glyph glyph-name="Lsmall" unicode="&#xe053;" horiz-adv-x="494" 
d="M322 456q-67 0 -67 -43v-349q0 -19 36 -19h12q31 0 53 3.5t38.5 16.5t29.5 38.5t27 69.5l54 -4l-25 -169h-421v45q62 0 62 27v341q0 43 -70 43v46h271v-46z" />
    <glyph glyph-name="Msmall" unicode="&#xe054;" horiz-adv-x="750" 
d="M693 456q-42 0 -54 -9t-13 -23l7 -333q1 -46 66 -46v-45h-245v45q61 0 63 41l-6 269l-133 -355h-75l-145 356l-3 -260q1 -51 72 -51v-45h-196v45q67 0 69 57l5 322q0 7 -1.5 13t-8.5 10.5t-21.5 6.5t-39.5 2v46h207l137 -344l130 344h185v-46z" />
    <glyph glyph-name="Nsmall" unicode="&#xe055;" horiz-adv-x="566" 
d="M555 456q-67 0 -67 -67v-390l-33 -9l-302 322v-194q0 -73 75 -73v-45h-197v45q62 0 62 73v320q0 18 -72 18v46h147l266 -284v171q0 67 -74 67v46h195v-46z" />
    <glyph glyph-name="Osmall" unicode="&#xe056;" horiz-adv-x="614" 
d="M299 459q-38 0 -60.5 -17t-34.5 -46t-16 -66.5t-4 -77.5q0 -45 5.5 -83.5t19.5 -67.5t38.5 -45.5t62.5 -16.5q36 0 59.5 16t37 44t19 65.5t5.5 81.5q0 41 -5 79.5t-19.5 68t-40.5 47.5t-67 18zM569 252q0 -64 -20 -113t-55.5 -82.5t-84 -50.5t-105.5 -17
q-54 0 -101.5 14.5t-82.5 46t-55.5 80t-20.5 116.5t20 117.5t54.5 81.5t82 47t103.5 15q55 0 103 -16t84 -48t57 -80t21 -111z" />
    <glyph glyph-name="Psmall" unicode="&#xe057;" horiz-adv-x="544" 
d="M222 502q29 0 47.5 1t42.5 1q100 0 146.5 -39t46.5 -115q0 -30 -10.5 -56t-33.5 -45.5t-60.5 -30.5t-91.5 -11q-20 0 -32.5 1.5t-23.5 3.5v-124q0 -43 71 -43v-45h-271v45q65 0 65 40v339q0 32 -67 32v46h171zM253 263q13 -2 26 -3.5t30 -1.5q20 0 31.5 8t17 21t7 30
t1.5 36q0 49 -19 76t-75 27q-19 0 -19 -26v-167z" />
    <glyph glyph-name="Qsmall" unicode="&#xe058;" horiz-adv-x="618" 
d="M582 -23q-9 -33 -23 -52.5t-30 -29t-31.5 -12.5t-27.5 -3q-42 0 -77.5 24.5t-64.5 84.5q-56 0 -106 13.5t-88 44t-60.5 79.5t-22.5 120q0 68 20 117.5t54.5 81.5t82 47t103.5 15q55 0 103 -16t84 -48t57 -80t21 -111q0 -91 -42 -153t-109 -89q14 -26 36 -44.5t41 -18.5
q11 0 21 7t16 23h43zM306 459q-38 0 -60.5 -17t-34.5 -46t-16 -66.5t-4 -77.5q0 -45 5.5 -83.5t19.5 -67.5t38.5 -45.5t62.5 -16.5q36 0 59.5 16t37 44t19 65.5t5.5 81.5q0 41 -5 79.5t-19.5 68t-40.5 47.5t-67 18z" />
    <glyph glyph-name="Rsmall" unicode="&#xe059;" horiz-adv-x="574" 
d="M257 288q2 -5 23 -5q18 0 32.5 2t25 10.5t16 25.5t5.5 46q0 48 -21 68.5t-51 20.5q-19 0 -24.5 -12t-5.5 -26v-130zM589 84q0 -11 -7.5 -27t-21 -30.5t-32.5 -25t-43 -10.5q-45 0 -71.5 18t-42 44.5t-24 58t-16.5 58t-19.5 44.5t-32.5 18q-17 0 -22 -5v-148q0 -34 65 -34
v-45h-265v45q62 0 62 34v339q0 35 -68 35v46h122q24 0 41.5 0.5l35.5 1t41.5 1t60.5 0.5q40 0 68 -10t46 -27.5t26 -41t8 -51.5q0 -46 -29.5 -77.5t-83.5 -43.5q36 -11 57 -29.5t32 -40t15.5 -43l8.5 -39.5t9.5 -29t19.5 -11q8 0 14.5 8t9.5 28z" />
    <glyph glyph-name="Ssmall" unicode="&#xe05a;" horiz-adv-x="462" 
d="M338 327q-11 58 -34.5 95t-67.5 37q-39 0 -60.5 -15t-21.5 -40q0 -33 25.5 -48t70.5 -31q36 -13 66.5 -28.5t52.5 -36t34.5 -47.5t12.5 -62q0 -76 -48 -119t-129 -43q-39 0 -62.5 9.5t-32.5 17.5q-15 -10 -31.5 -17t-36.5 -14q-10 29 -14 57t-4 58q0 36 6 81h60
q0 -24 6 -49t19 -46t34 -34t51 -13q53 0 74 21.5t21 50.5q0 24 -13 39t-39 24q-43 15 -81 31.5t-66.5 39t-45 52t-16.5 70.5q0 40 14.5 67t37 44t50.5 24.5t56 7.5q35 0 60 -13t38 -26q11 14 26.5 22.5t32.5 13.5q13 -40 15.5 -87.5t2.5 -92.5h-63z" />
    <glyph glyph-name="Tsmall" unicode="&#xe05b;" horiz-adv-x="486" 
d="M476 335l-56 -5q-4 58 -23 92t-67 34q-12 0 -18.5 -7.5t-6.5 -15.5v-334q0 -54 78 -54v-45h-288v45q77 0 77 54v334q0 8 -6.5 15.5t-17.5 7.5q-42 0 -62.5 -34.5t-34.5 -97.5l-59 8l23 177q22 -4 46 -5.5t37 -1.5h289q16 0 41 1.5t48 5.5v-174z" />
    <glyph glyph-name="Usmall" unicode="&#xe05c;" horiz-adv-x="579" 
d="M571 456q-60 0 -60 -51v-222q0 -44 -8.5 -79.5t-30.5 -61t-60 -39.5t-97 -14q-44 0 -81.5 12.5t-64.5 35t-42 53t-15 67.5v259q0 40 -68 40v46h271v-46q-69 0 -69 -40v-241q0 -23 4 -46t14.5 -41.5t29.5 -30.5t49 -12q60 0 86 33.5t26 96.5v230q0 51 -74 51v46h190v-46z
" />
    <glyph glyph-name="Vsmall" unicode="&#xe05d;" horiz-adv-x="522" 
d="M529 456h-34q-16 0 -28 -31l-176 -436l-81 5l-165 423q-15 39 -64 39v46h258v-46h-44q-14 0 -14 -11l5 -20l110 -294l101 280q2 10 2 11q0 8 -2 14.5t-9 11t-20 6.5t-35 2v46h196v-46z" />
    <glyph glyph-name="Wsmall" unicode="&#xe05e;" horiz-adv-x="721" 
d="M737 456q-44 0 -65 -63l-132 -402l-68 3l-104 287l-93 -290l-76 3l-154 424q-8 20 -22.5 29t-31.5 9v46h237v-46q-33 0 -44.5 -4t-11.5 -13q0 -1 1 -4q1 -2 1.5 -5.5t2.5 -7.5l93 -272l72 217l-26 74q-6 15 -53 15v46h235v-46q-53 0 -53 -17q0 -13 9 -34l84 -254l75 246
q6 18 6 33q0 26 -60 26v46h178v-46z" />
    <glyph glyph-name="Xsmall" unicode="&#xe05f;" horiz-adv-x="551" 
d="M529 456q-27 0 -46 -4.5t-29 -17.5l-124 -157l151 -215q15 -17 64 -17v-45h-267v45q51 0 51 13q0 12 -13 25l-77 113l-77 -113q-9 -14 -9 -25q0 -13 60 -13v-45h-208v45q23 0 46.5 10.5t42.5 36.5l115 151l-129 186q-18 25 -72 27v46h259v-46q-48 0 -48 -7q0 -8 9 -21
l71 -105l75 102q4 7 4 16q0 15 -52 15v46h203v-46z" />
    <glyph glyph-name="Ysmall" unicode="&#xe060;" horiz-adv-x="483" 
d="M508 456q-42 0 -58 -22l-133 -226v-145q0 -18 71 -18v-45h-280v45q74 0 74 21v139l-118 196q-17 28 -39 41.5t-42 13.5v46h258v-46q-52 0 -52 -13q0 -6 10 -22l91 -149l76 135q8 26 8 31q0 18 -55 18v46h189v-46z" />
    <glyph glyph-name="Zsmall" unicode="&#xe061;" horiz-adv-x="426" 
d="M402 465l-224 -412q16 -3 49 -3q27 0 47 8.5t35 25t27 39t23 51.5l56 -7l-23 -167h-364l-4 30l227 416q-4 2 -10 2h-6h-33q-17 0 -32.5 -2.5t-29 -13.5t-25 -32.5t-20.5 -58.5h-58l16 168q18 -4 41.5 -5.5t37.5 -1.5h270v-37z" />
    <glyph glyph-name="zerooldstyle" unicode="&#xe062;" horiz-adv-x="568" 
d="M532 228q0 -59 -19.5 -104.5t-54 -76t-82 -46.5t-102.5 -16q-53 0 -97 16t-75.5 45t-49 70.5t-17.5 92.5q0 64 19.5 110.5t53.5 76t81 43.5t101 14q50 0 94 -16t77 -45t52 -70.5t19 -93.5zM263 392q-30 0 -47 -15t-25.5 -38.5t-11 -51.5t-2.5 -54q0 -44 4.5 -79t17.5 -59
t34.5 -37t56.5 -13q38 0 58.5 13t30.5 35t11.5 50.5t1.5 60.5q0 25 -2.5 57.5t-15 61.5t-38.5 49t-73 20z" />
    <glyph glyph-name="oneoldstyle" unicode="&#xe063;" horiz-adv-x="458" 
d="M423 388q-122 0 -122 -60v-223q0 -60 122 -60v-45h-388v45q122 0 122 60v223q0 60 -122 60v45h388v-45z" />
    <glyph glyph-name="twooldstyle" unicode="&#xe064;" horiz-adv-x="562" 
d="M485 0h-365q-20 0 -40 -1t-40 -4l-5 38q69 49 124.5 83.5t94.5 63.5t60 56.5t21 63.5q0 43 -22.5 64t-81.5 21q-51 0 -79.5 -14t-32.5 -36q36 -14 36 -43q0 -58 -50 -58q-49 0 -49 74q0 30 13.5 56.5t40.5 46t67 31t93 11.5q97 0 154.5 -31.5t57.5 -94.5q0 -41 -19.5 -74
t-53.5 -60.5t-80.5 -51t-100.5 -45.5h117q26 0 44.5 3t32 12.5t24 26.5t20.5 45l61 -6z" />
    <glyph glyph-name="threeoldstyle" unicode="&#xe065;" horiz-adv-x="509" 
d="M178 110q-18 0 -18 24q0 27 18 27q35 0 58.5 10.5t37 28.5t19 42t5.5 50t-2.5 44.5t-10 30.5t-22 17.5t-37.5 5.5q-43 0 -65 -7.5t-23 -26.5q19 -10 19 -36q0 -53 -49 -53q-47 0 -47 51q0 135 192 135q85 0 135 -37t50 -112q0 -65 -35.5 -96.5t-96.5 -44.5
q76 -10 122 -50t46 -123q0 -90 -75 -134.5t-205 -44.5q-169 0 -169 109q0 57 58 57q43 0 43 -41q0 -32 -19 -41q8 -26 60 -26q43 0 71.5 8t46 23t25 37t7.5 50q0 64 -16.5 93.5t-70.5 29.5h-52z" />
    <glyph glyph-name="fouroldstyle" unicode="&#xe066;" horiz-adv-x="559" 
d="M442 472q-6 -23 -9.5 -45t-3.5 -43v-291q0 -13 8 -13h40q14 0 27.5 3t29.5 8v-91h-97q-8 0 -8 -13v-175h-140v175q0 13 -14 13h-253v49l354 428zM113 80h162q14 0 14 13v200z" />
    <glyph glyph-name="fiveoldstyle" unicode="&#xe067;" 
d="M453 477q-26 -69 -74.5 -108t-114.5 -39q-28 0 -53 2.5t-47 7.5l-25 -117q45 21 96 21q112 0 177.5 -49.5t65.5 -148.5q0 -117 -76 -175.5t-210 -58.5q-164 0 -164 93q0 46 39 46q38 0 38 -38q0 -8 -2.5 -15t-10.5 -13q22 -21 84 -21q43 0 71.5 11.5t46 34t25 57
t7.5 79.5q0 66 -24.5 97.5t-93.5 31.5q-67 0 -103 -51l-46 19l59 311q45 -6 86 -9.5t78 -3.5q104 0 146 36h25z" />
    <glyph glyph-name="sixoldstyle" unicode="&#xe068;" horiz-adv-x="565" 
d="M390 642q-22 5 -34 5q-26 0 -53.5 -14.5t-51.5 -45t-41 -78.5t-21 -114q23 35 53.5 46.5t82.5 11.5q41 0 78 -14t65 -41.5t44.5 -68.5t16.5 -95q0 -59 -16.5 -105t-47.5 -78t-74 -49t-97 -17q-59 0 -107 16.5t-82 49.5t-52 83.5t-18 119.5q0 106 25 190t70 142.5
t106.5 90t133.5 31.5q96 0 96 -73q0 -47 -44 -47q-36 0 -36 33q0 14 4 21zM281 400q-29 0 -47 -16t-28.5 -42t-14 -59.5t-3.5 -69.5t4.5 -67.5t16.5 -54.5t32.5 -36.5t52.5 -13.5q27 0 45 13.5t28 36.5t14 54t4 67q0 94 -23.5 141t-80.5 47z" />
    <glyph glyph-name="sevenoldstyle" unicode="&#xe069;" horiz-adv-x="446" 
d="M446 382l-67.5 -117t-54.5 -116t-36.5 -123.5t-13.5 -140.5q0 -37 -21 -55t-54 -18t-54.5 16t-21.5 49q0 61 25 127t61 127t75 112t68 84h-220q-17 0 -27.5 -19t-25.5 -68l-57 18l26 180q26 -4 51 -4.5t57 -0.5h290v-51z" />
    <glyph glyph-name="eightoldstyle" unicode="&#xe06a;" horiz-adv-x="570" 
d="M377 393q33 -11 61.5 -27.5t50 -40.5t33.5 -56t12 -73q0 -57 -20.5 -97t-55.5 -65.5t-81 -37t-96 -11.5q-45 0 -89.5 9t-79 30.5t-56 58t-21.5 92.5q0 38 11.5 66t31 48.5t46.5 34.5t57 24q-115 61 -115 172q0 52 16.5 88t46.5 58.5t72 32t92 9.5q35 0 72 -8.5
t67.5 -27.5t50 -49.5t19.5 -74.5q0 -36 -10 -61t-27 -42.5t-40 -29.5t-48 -22zM249 319q-27 -6 -44.5 -20t-27 -33.5t-13 -43.5t-3.5 -51q0 -63 34 -102t94 -39q54 0 86.5 34t32.5 91q0 37 -14.5 62t-37 43t-51 31.5zM325 416q21 12 33 25.5t18 29.5t7 33t1 37
q0 54 -22.5 83t-76.5 29q-94 0 -94 -97q0 -32 11 -55.5t29 -40.5t42.5 -27.5t51.5 -16.5z" />
    <glyph glyph-name="nineoldstyle" unicode="&#xe06b;" horiz-adv-x="571" 
d="M179 -128l19.5 -3.5t15.5 -1.5q36 0 68.5 17.5t58 46.5t42 67t20.5 79q-26 -33 -62 -48t-95 -15q-38 0 -76 12t-68 37t-48.5 62t-18.5 88q0 63 17.5 108.5t49.5 75t76.5 43t98.5 13.5q59 0 107 -12t81.5 -40.5t51.5 -76t18 -117.5q0 -86 -21 -158.5t-62 -125t-102 -82.5
t-141 -30q-103 0 -103 77q0 44 44 44q36 0 36 -32q0 -15 -7 -28zM277 399q-28 0 -45.5 -11.5t-27.5 -33.5t-14 -53.5t-4 -71.5q0 -41 4.5 -69t16 -45.5t31.5 -25t51 -7.5q25 0 43 13.5t29 36.5t16.5 53.5t5.5 65.5q0 32 -4.5 59.5t-16.5 47t-32.5 30.5t-52.5 11z" />
    <glyph glyph-name="Asmallgrave" unicode="&#xe06c;" 
d="M331 505q-26 14 -54 25.5l-57 23.5q-4 1 -17 5t-27.5 11.5t-25.5 18.5t-11 26q0 13 8 26.5t34 13.5q16 -3 34 -15.5t38 -30.5l43.5 -38t51.5 -38zM475 68q6 -15 22 -18.5t36 -4.5v-45h-261v45q35 0 47.5 4.5t12.5 12.5q0 6 -3 12l-31 85q-5 11 -33 11h-107q-18 0 -21 -11
l-24 -74q-2 -8 -2 -11q0 -14 13 -21.5t49 -7.5v-45h-184v44q22 2 37 15.5t25 33.5l174 418l78 -11zM173 250q-4 -7 -4 -14q0 -13 19 -13h67q15 0 15 13q0 8 -6 22l-44 106z" />
    <glyph glyph-name="Asmallacute" unicode="&#xe06d;" 
d="M139 534q25 16 49.5 37l46.5 39.5t40.5 31.5t32.5 13q25 0 32 -13.5t7 -26.5q0 -14 -10 -24t-23 -17t-24.5 -11t-15.5 -5l-56.5 -23t-61.5 -30zM475 68q6 -15 22 -18.5t36 -4.5v-45h-261v45q35 0 47.5 4.5t12.5 12.5q0 6 -3 12l-31 85q-5 11 -33 11h-107q-18 0 -21 -11
l-24 -74q-2 -8 -2 -11q0 -14 13 -21.5t49 -7.5v-45h-184v44q22 2 37 15.5t25 33.5l174 418l78 -11zM173 250q-4 -7 -4 -14q0 -13 19 -13h67q15 0 15 13q0 8 -6 22l-44 106z" />
    <glyph glyph-name="Asmallcircumflex" unicode="&#xe06e;" 
d="M350 516l-100 58l-105 -57l-21 19l125 120l123 -120zM475 68q6 -15 22 -18.5t36 -4.5v-45h-261v45q35 0 47.5 4.5t12.5 12.5q0 6 -3 12l-31 85q-5 11 -33 11h-107q-18 0 -21 -11l-24 -74q-2 -8 -2 -11q0 -14 13 -21.5t49 -7.5v-45h-184v44q22 2 37 15.5t25 33.5l174 418
l78 -11zM173 250q-4 -7 -4 -14q0 -13 19 -13h67q15 0 15 13q0 8 -6 22l-44 106z" />
    <glyph glyph-name="Asmalldieresis" unicode="&#xe06f;" 
d="M353 650q51 0 51 -53q0 -52 -51 -52q-55 0 -55 52q0 53 55 53zM209 597q0 -52 -53 -52q-55 0 -55 52q0 53 55 53q53 0 53 -53zM475 68q6 -15 22 -18.5t36 -4.5v-45h-261v45q35 0 47.5 4.5t12.5 12.5q0 6 -3 12l-31 85q-5 11 -33 11h-107q-18 0 -21 -11l-24 -74
q-2 -8 -2 -11q0 -14 13 -21.5t49 -7.5v-45h-184v44q22 2 37 15.5t25 33.5l174 418l78 -11zM173 250q-4 -7 -4 -14q0 -13 19 -13h67q15 0 15 13q0 8 -6 22l-44 106z" />
    <glyph glyph-name="Asmalltilde" unicode="&#xe070;" 
d="M409 634q-9 -39 -36 -64.5t-65 -25.5q-20 0 -36 8.5t-30 18.5t-28 18.5t-30 8.5q-17 0 -32.5 -15t-28.5 -38l-29 18q12 42 40.5 67t58.5 25q28 0 44 -8.5t28 -18l23.5 -18t29.5 -8.5q16 0 31.5 11t29.5 42zM475 68q6 -15 22 -18.5t36 -4.5v-45h-261v45q35 0 47.5 4.5
t12.5 12.5q0 6 -3 12l-31 85q-5 11 -33 11h-107q-18 0 -21 -11l-24 -74q-2 -8 -2 -11q0 -14 13 -21.5t49 -7.5v-45h-184v44q22 2 37 15.5t25 33.5l174 418l78 -11zM173 250q-4 -7 -4 -14q0 -13 19 -13h67q15 0 15 13q0 8 -6 22l-44 106z" />
    <glyph glyph-name="Asmallring" unicode="&#xe071;" 
d="M475 68q6 -15 22 -18.5t36 -4.5v-45h-261v45q35 0 47.5 4.5t12.5 12.5q0 6 -3 12l-31 85q-5 11 -33 11h-107q-18 0 -21 -11l-24 -74q-2 -8 -2 -11q0 -14 13 -21.5t49 -7.5v-45h-184v44q22 2 37 15.5t25 33.5l148 356q-26 15 -42 40.5t-16 56.5q0 22 9.5 42t25.5 35t38 24
t48 9t48.5 -9t39.5 -24t26.5 -35t9.5 -42q0 -32 -17 -58t-46 -40zM173 250q-4 -7 -4 -14q0 -13 19 -13h67q15 0 15 13q0 8 -6 22l-44 106zM325 546q0 23 -18 39.5t-45 16.5t-45 -16.5t-18 -39.5q0 -29 18 -44t45 -15t45 15t18 44z" />
    <glyph glyph-name="AEsmall" unicode="&#xe072;" horiz-adv-x="697" 
d="M657 345l-57 -4q-7 39 -16 62t-22 35t-31.5 15t-44.5 3h-20q-21 0 -31.5 -8t-10.5 -19v-134q0 -10 5 -10h24q16 0 26 2t16.5 9.5t10 23t6.5 41.5h56v-208h-56q-3 27 -6 42.5t-9 23.5t-16.5 10.5t-27.5 2.5t-23 -3t-6 -10v-137q0 -14 11 -25.5t34 -11.5h23q28 0 47.5 6
t34.5 20.5t27.5 39t27.5 61.5l54 -8l-22 -164h-439v45q66 0 66 34v86q-3 5 -5 5h-125q-18 0 -21 -11l-23 -70q-4 -7 -4 -20q0 -24 63 -24v-45h-184v45q19 2 36 15t25 33l141 346q0 11 -16.5 14t-40.5 3v46h517zM268 456q-13 0 -17 -16l-81 -195q-4 -7 -4 -13q0 -9 12 -9h105
q3 0 5 2v226q0 5 -8 5h-12z" />
    <glyph glyph-name="Csmallcedilla" unicode="&#xe073;" horiz-adv-x="535" 
d="M431 317q-18 75 -48.5 107t-81.5 32q-35 0 -57 -16t-35 -42t-17.5 -59.5t-4.5 -67.5q0 -48 5.5 -89t20 -71.5t39.5 -48t64 -17.5q51 0 84.5 29.5t60.5 96.5l45 -16q-22 -76 -76 -120.5t-129 -45.5v-18q48 -2 66 -24.5t18 -48.5q0 -18 -10 -32.5t-26.5 -25t-39 -16
t-47.5 -5.5v34q35 3 51 15.5t16 29.5q0 14 -6.5 22.5t-16.5 12.5t-22 5t-22 1v52q-58 5 -98 26t-65 54t-36.5 76t-11.5 93q0 58 12.5 107.5t39 84.5t68.5 55t102 20q16 0 34 -2.5t36.5 -7t35.5 -11.5t30 -16q20 26 55 37q31 -66 31 -190h-64z" />
    <glyph glyph-name="Esmallgrave" unicode="&#xe074;" horiz-adv-x="563" 
d="M374 505q-26 14 -54 25.5l-57 23.5q-4 1 -17 5t-27.5 11.5t-25.5 18.5t-11 26q0 13 8 26.5t34 13.5q16 -3 34 -15.5t38 -30.5l43.5 -38t51.5 -38zM506 345l-58 -4q-6 40 -20 63t-34 34.5t-44.5 14.5t-50.5 3q-21 0 -32.5 -9t-11.5 -20v-132q0 -10 10 -10q16 0 29.5 2
t24 9.5t17.5 23t10 41.5h54v-208h-54q-3 25 -8 40.5t-13 24t-20.5 11.5t-31.5 3q-18 -2 -18 -13v-137q0 -14 13 -25.5t36 -11.5q42 0 70.5 8.5t48 24.5t32 39.5t23.5 54.5l54 -8l-22 -164h-454v45q65 0 65 34v329q0 48 -70 48v46h449z" />
    <glyph glyph-name="Esmallacute" unicode="&#xe075;" horiz-adv-x="563" 
d="M188 534q25 16 49.5 37l46.5 39.5t40.5 31.5t32.5 13q25 0 32 -13.5t7 -26.5q0 -14 -10 -24t-23 -17t-24.5 -11t-15.5 -5l-56.5 -23t-61.5 -30zM506 345l-58 -4q-6 40 -20 63t-34 34.5t-44.5 14.5t-50.5 3q-21 0 -32.5 -9t-11.5 -20v-132q0 -10 10 -10q16 0 29.5 2
t24 9.5t17.5 23t10 41.5h54v-208h-54q-3 25 -8 40.5t-13 24t-20.5 11.5t-31.5 3q-18 -2 -18 -13v-137q0 -14 13 -25.5t36 -11.5q42 0 70.5 8.5t48 24.5t32 39.5t23.5 54.5l54 -8l-22 -164h-454v45q65 0 65 34v329q0 48 -70 48v46h449z" />
    <glyph glyph-name="Esmallcircumflex" unicode="&#xe076;" horiz-adv-x="563" 
d="M405 516l-100 58l-105 -57l-21 19l125 120l123 -120zM506 345l-58 -4q-6 40 -20 63t-34 34.5t-44.5 14.5t-50.5 3q-21 0 -32.5 -9t-11.5 -20v-132q0 -10 10 -10q16 0 29.5 2t24 9.5t17.5 23t10 41.5h54v-208h-54q-3 25 -8 40.5t-13 24t-20.5 11.5t-31.5 3q-18 -2 -18 -13
v-137q0 -14 13 -25.5t36 -11.5q42 0 70.5 8.5t48 24.5t32 39.5t23.5 54.5l54 -8l-22 -164h-454v45q65 0 65 34v329q0 48 -70 48v46h449z" />
    <glyph glyph-name="Esmalldieresis" unicode="&#xe077;" horiz-adv-x="563" 
d="M397 640q51 0 51 -53q0 -52 -51 -52q-55 0 -55 52q0 53 55 53zM253 587q0 -52 -53 -52q-55 0 -55 52q0 53 55 53q53 0 53 -53zM506 345l-58 -4q-6 40 -20 63t-34 34.5t-44.5 14.5t-50.5 3q-21 0 -32.5 -9t-11.5 -20v-132q0 -10 10 -10q16 0 29.5 2t24 9.5t17.5 23
t10 41.5h54v-208h-54q-3 25 -8 40.5t-13 24t-20.5 11.5t-31.5 3q-18 -2 -18 -13v-137q0 -14 13 -25.5t36 -11.5q42 0 70.5 8.5t48 24.5t32 39.5t23.5 54.5l54 -8l-22 -164h-454v45q65 0 65 34v329q0 48 -70 48v46h449z" />
    <glyph glyph-name="Ismallgrave" unicode="&#xe078;" horiz-adv-x="376" 
d="M263 505q-26 14 -54 25.5l-57 23.5q-4 1 -17 5t-27.5 11.5t-25.5 18.5t-11 26q0 13 8 26.5t34 13.5q16 -3 34 -15.5t38 -30.5l43.5 -38t51.5 -38zM321 456q-65 0 -65 -51v-323q0 -37 69 -37v-45h-271v45q68 0 68 37v323q0 51 -71 51v46h270v-46z" />
    <glyph glyph-name="Ismallacute" unicode="&#xe079;" horiz-adv-x="376" 
d="M75 534q25 16 49.5 37l46.5 39.5t40.5 31.5t32.5 13q25 0 32 -13.5t7 -26.5q0 -14 -10 -24t-23 -17t-24.5 -11t-15.5 -5l-56.5 -23t-61.5 -30zM321 456q-65 0 -65 -51v-323q0 -37 69 -37v-45h-271v45q68 0 68 37v323q0 51 -71 51v46h270v-46z" />
    <glyph glyph-name="Ismallcircumflex" unicode="&#xe07a;" horiz-adv-x="376" 
d="M285 516l-100 58l-105 -57l-21 19l125 120l123 -120zM321 456q-65 0 -65 -51v-323q0 -37 69 -37v-45h-271v45q68 0 68 37v323q0 51 -71 51v46h270v-46z" />
    <glyph glyph-name="Ismalldieresis" unicode="&#xe07b;" horiz-adv-x="376" 
d="M283 650q51 0 51 -53q0 -52 -51 -52q-55 0 -55 52q0 53 55 53zM139 597q0 -52 -53 -52q-55 0 -55 52q0 53 55 53q53 0 53 -53zM321 456q-65 0 -65 -51v-323q0 -37 69 -37v-45h-271v45q68 0 68 37v323q0 51 -71 51v46h270v-46z" />
    <glyph glyph-name="Ethsmall" unicode="&#xe07c;" horiz-adv-x="626" 
d="M51 502q26 -4 46.5 -4.5t37.5 -0.5q21 0 39 1t39 2.5t49 3t69 1.5q117 0 180.5 -60t63.5 -196q0 -65 -14 -111.5t-44.5 -77.5t-80 -45.5t-121.5 -14.5h-262v45q21 0 34.5 1.5t21 7.5t10 16.5t2.5 28.5v137h-47v66h47v95q0 23 -3.5 33.5t-12 15t-22 6t-32.5 5.5v45z
M256 302h93v-66h-93v-143q0 -30 11.5 -39t41.5 -9q134 0 134 204q0 101 -33 154t-113 53q-26 0 -33.5 -6.5t-7.5 -29.5v-118z" />
    <glyph glyph-name="Nsmalltilde" unicode="&#xe07d;" horiz-adv-x="566" 
d="M428 634q-9 -39 -36 -64.5t-65 -25.5q-20 0 -36 8.5t-30 18.5t-28 18.5t-30 8.5q-17 0 -32.5 -15t-28.5 -38l-29 18q12 42 40.5 67t58.5 25q28 0 44 -8.5t28 -18l23.5 -18t29.5 -8.5q16 0 31.5 11t29.5 42zM555 456q-67 0 -67 -67v-390l-33 -9l-302 322v-194
q0 -73 75 -73v-45h-197v45q62 0 62 73v320q0 18 -72 18v46h147l266 -284v171q0 67 -74 67v46h195v-46z" />
    <glyph glyph-name="Osmallgrave" unicode="&#xe07e;" horiz-adv-x="614" 
d="M388 505q-26 14 -54 25.5l-57 23.5q-4 1 -17 5t-27.5 11.5t-25.5 18.5t-11 26q0 13 8 26.5t34 13.5q16 -3 34 -15.5t38 -30.5l43.5 -38t51.5 -38zM299 459q-38 0 -60.5 -17t-34.5 -46t-16 -66.5t-4 -77.5q0 -45 5.5 -83.5t19.5 -67.5t38.5 -45.5t62.5 -16.5q36 0 59.5 16
t37 44t19 65.5t5.5 81.5q0 41 -5 79.5t-19.5 68t-40.5 47.5t-67 18zM569 252q0 -64 -20 -113t-55.5 -82.5t-84 -50.5t-105.5 -17q-54 0 -101.5 14.5t-82.5 46t-55.5 80t-20.5 116.5t20 117.5t54.5 81.5t82 47t103.5 15q55 0 103 -16t84 -48t57 -80t21 -111z" />
    <glyph glyph-name="Osmallacute" unicode="&#xe07f;" horiz-adv-x="614" 
d="M189 534q25 16 49.5 37l46.5 39.5t40.5 31.5t32.5 13q25 0 32 -13.5t7 -26.5q0 -14 -10 -24t-23 -17t-24.5 -11t-15.5 -5l-56.5 -23t-61.5 -30zM299 459q-38 0 -60.5 -17t-34.5 -46t-16 -66.5t-4 -77.5q0 -45 5.5 -83.5t19.5 -67.5t38.5 -45.5t62.5 -16.5q36 0 59.5 16
t37 44t19 65.5t5.5 81.5q0 41 -5 79.5t-19.5 68t-40.5 47.5t-67 18zM569 252q0 -64 -20 -113t-55.5 -82.5t-84 -50.5t-105.5 -17q-54 0 -101.5 14.5t-82.5 46t-55.5 80t-20.5 116.5t20 117.5t54.5 81.5t82 47t103.5 15q55 0 103 -16t84 -48t57 -80t21 -111z" />
    <glyph glyph-name="Osmallcircumflex" unicode="&#xe080;" horiz-adv-x="614" 
d="M402 516l-100 58l-105 -57l-21 19l125 120l123 -120zM299 459q-38 0 -60.5 -17t-34.5 -46t-16 -66.5t-4 -77.5q0 -45 5.5 -83.5t19.5 -67.5t38.5 -45.5t62.5 -16.5q36 0 59.5 16t37 44t19 65.5t5.5 81.5q0 41 -5 79.5t-19.5 68t-40.5 47.5t-67 18zM569 252
q0 -64 -20 -113t-55.5 -82.5t-84 -50.5t-105.5 -17q-54 0 -101.5 14.5t-82.5 46t-55.5 80t-20.5 116.5t20 117.5t54.5 81.5t82 47t103.5 15q55 0 103 -16t84 -48t57 -80t21 -111z" />
    <glyph glyph-name="Osmalldieresis" unicode="&#xe081;" horiz-adv-x="614" 
d="M398 650q51 0 51 -53q0 -52 -51 -52q-55 0 -55 52q0 53 55 53zM254 597q0 -52 -53 -52q-55 0 -55 52q0 53 55 53q53 0 53 -53zM299 459q-38 0 -60.5 -17t-34.5 -46t-16 -66.5t-4 -77.5q0 -45 5.5 -83.5t19.5 -67.5t38.5 -45.5t62.5 -16.5q36 0 59.5 16t37 44t19 65.5
t5.5 81.5q0 41 -5 79.5t-19.5 68t-40.5 47.5t-67 18zM569 252q0 -64 -20 -113t-55.5 -82.5t-84 -50.5t-105.5 -17q-54 0 -101.5 14.5t-82.5 46t-55.5 80t-20.5 116.5t20 117.5t54.5 81.5t82 47t103.5 15q55 0 103 -16t84 -48t57 -80t21 -111z" />
    <glyph glyph-name="Osmalltilde" unicode="&#xe082;" horiz-adv-x="614" 
d="M456 634q-9 -39 -36 -64.5t-65 -25.5q-20 0 -36 8.5t-30 18.5t-28 18.5t-30 8.5q-17 0 -32.5 -15t-28.5 -38l-29 18q12 42 40.5 67t58.5 25q28 0 44 -8.5t28 -18l23.5 -18t29.5 -8.5q16 0 31.5 11t29.5 42zM299 459q-38 0 -60.5 -17t-34.5 -46t-16 -66.5t-4 -77.5
q0 -45 5.5 -83.5t19.5 -67.5t38.5 -45.5t62.5 -16.5q36 0 59.5 16t37 44t19 65.5t5.5 81.5q0 41 -5 79.5t-19.5 68t-40.5 47.5t-67 18zM569 252q0 -64 -20 -113t-55.5 -82.5t-84 -50.5t-105.5 -17q-54 0 -101.5 14.5t-82.5 46t-55.5 80t-20.5 116.5t20 117.5t54.5 81.5
t82 47t103.5 15q55 0 103 -16t84 -48t57 -80t21 -111z" />
    <glyph glyph-name="Osmallslash" unicode="&#xe083;" horiz-adv-x="614" 
d="M472 458q45 -32 71 -83t26 -123q0 -64 -20 -113t-55.5 -82.5t-84 -50.5t-105.5 -17q-22 0 -44 3t-45 8l-29 -51l-53 25l27 47q-54 29 -85 83t-31 142q0 68 20 117.5t54.5 81.5t82 47t103.5 15q69 0 119 -22l33 58l50 -24zM387 422q-15 17 -36.5 27t-51.5 10
q-38 0 -60.5 -17t-34.5 -46t-16 -66.5t-4 -77.5q0 -45 5 -81.5t18 -65.5zM246 56q26 -17 64 -17q36 0 59.5 16t37 44t19 65.5t5.5 81.5q0 31 -2.5 60.5t-10.5 55.5z" />
    <glyph glyph-name="Usmallgrave" unicode="&#xe084;" horiz-adv-x="579" 
d="M394 505q-26 14 -54 25.5l-57 23.5q-4 1 -17 5t-27.5 11.5t-25.5 18.5t-11 26q0 13 8 26.5t34 13.5q16 -3 34 -15.5t38 -30.5l43.5 -38t51.5 -38zM571 456q-60 0 -60 -51v-222q0 -44 -8.5 -79.5t-30.5 -61t-60 -39.5t-97 -14q-44 0 -81.5 12.5t-64.5 35t-42 53t-15 67.5
v259q0 40 -68 40v46h271v-46q-69 0 -69 -40v-241q0 -23 4 -46t14.5 -41.5t29.5 -30.5t49 -12q60 0 86 33.5t26 96.5v230q0 51 -74 51v46h190v-46z" />
    <glyph glyph-name="Usmallacute" unicode="&#xe085;" horiz-adv-x="579" 
d="M232 534q25 16 49.5 37l46.5 39.5t40.5 31.5t32.5 13q25 0 32 -13.5t7 -26.5q0 -14 -10 -24t-23 -17t-24.5 -11t-15.5 -5l-56.5 -23t-61.5 -30zM571 456q-60 0 -60 -51v-222q0 -44 -8.5 -79.5t-30.5 -61t-60 -39.5t-97 -14q-44 0 -81.5 12.5t-64.5 35t-42 53t-15 67.5
v259q0 40 -68 40v46h271v-46q-69 0 -69 -40v-241q0 -23 4 -46t14.5 -41.5t29.5 -30.5t49 -12q60 0 86 33.5t26 96.5v230q0 51 -74 51v46h190v-46z" />
    <glyph glyph-name="Usmallcircumflex" unicode="&#xe086;" horiz-adv-x="579" 
d="M443 516l-100 58l-105 -57l-21 19l125 120l123 -120zM571 456q-60 0 -60 -51v-222q0 -44 -8.5 -79.5t-30.5 -61t-60 -39.5t-97 -14q-44 0 -81.5 12.5t-64.5 35t-42 53t-15 67.5v259q0 40 -68 40v46h271v-46q-69 0 -69 -40v-241q0 -23 4 -46t14.5 -41.5t29.5 -30.5t49 -12
q60 0 86 33.5t26 96.5v230q0 51 -74 51v46h190v-46z" />
    <glyph glyph-name="Usmalldieresis" unicode="&#xe087;" horiz-adv-x="579" 
d="M439 650q51 0 51 -53q0 -52 -51 -52q-55 0 -55 52q0 53 55 53zM295 597q0 -52 -53 -52q-55 0 -55 52q0 53 55 53q53 0 53 -53zM571 456q-60 0 -60 -51v-222q0 -44 -8.5 -79.5t-30.5 -61t-60 -39.5t-97 -14q-44 0 -81.5 12.5t-64.5 35t-42 53t-15 67.5v259q0 40 -68 40v46
h271v-46q-69 0 -69 -40v-241q0 -23 4 -46t14.5 -41.5t29.5 -30.5t49 -12q60 0 86 33.5t26 96.5v230q0 51 -74 51v46h190v-46z" />
    <glyph glyph-name="Ysmallacute" unicode="&#xe088;" horiz-adv-x="483" 
d="M153 534q25 16 49.5 37l46.5 39.5t40.5 31.5t32.5 13q25 0 32 -13.5t7 -26.5q0 -14 -10 -24t-23 -17t-24.5 -11t-15.5 -5l-56.5 -23t-61.5 -30zM508 456q-42 0 -58 -22l-133 -226v-145q0 -18 71 -18v-45h-280v45q74 0 74 21v139l-118 196q-17 28 -39 41.5t-42 13.5v46
h258v-46q-52 0 -52 -13q0 -6 10 -22l91 -149l76 135q8 26 8 31q0 18 -55 18v46h189v-46z" />
    <glyph glyph-name="Thornsmall" unicode="&#xe089;" horiz-adv-x="538" 
d="M318 456q-32 0 -48.5 -14.5t-16.5 -39.5v-4q11 1 27.5 1.5t27.5 0.5q94 0 142.5 -37.5t48.5 -113.5q0 -30 -10.5 -55.5t-33.5 -45t-60 -30.5t-90 -11q-18 0 -29.5 0.5t-22.5 2.5v-22q0 -43 71 -43v-45h-273v45q67 1 67 40v317q0 25 -17.5 39.5t-52.5 14.5v46h270v-46z
M253 161q10 -3 23.5 -3.5t28.5 -0.5q19 0 30.5 7.5t17 20.5t7 30t1.5 37q0 51 -18 76t-71 25q-18 0 -19 -22v-170z" />
    <glyph glyph-name="OEsmall" unicode="&#xe08a;" horiz-adv-x="840" 
d="M792 342l-57 -4q-7 40 -19 63.5t-29 35.5t-38.5 15.5t-48.5 3.5q-20 0 -31 -10.5t-11 -21.5v-129q0 -5 1.5 -7.5t7.5 -2.5q16 0 29.5 2t24 9.5t17.5 23t10 41.5h54v-208h-54q-3 25 -8 40.5t-13.5 24t-21 11.5t-30.5 3q-17 -2 -17 -13v-137q0 -14 12 -25.5t35 -11.5
q43 0 69 8.5t42.5 24.5t26.5 39.5t21 54.5l53 -8l-21 -164h-412q-39 -11 -80 -11q-54 0 -101.5 14.5t-82.5 46t-55.5 80t-20.5 116.5t20 117.5t54.5 81.5t82 47.5t103.5 15.5q18 0 37.5 -1.5t33.5 -4.5h411zM299 459q-38 0 -60.5 -17t-34.5 -46t-16 -66.5t-4 -77.5
q0 -45 5.5 -83.5t19.5 -67.5t38.5 -45.5t62.5 -16.5q36 0 59.5 16t37 44t19 65.5t5.5 81.5q0 41 -5 79.5t-19.5 68t-40.5 47.5t-67 18z" />
    <glyph glyph-name="Lsmallslash" unicode="&#xe08b;" horiz-adv-x="494" 
d="M322 456q-67 0 -67 -43v-115l61 16l18 -60l-79 -20v-170q0 -19 36 -19h12q31 0 53 3.5t38.5 16.5t29.5 38.5t27 69.5l54 -4l-25 -169h-421v45q62 0 62 27v130l-44 -11l-17 59l61 15v148q0 43 -70 43v46h271v-46z" />
    <glyph glyph-name="Ssmallcaron" unicode="&#xe08c;" horiz-adv-x="462" 
d="M241 513l-124 121l23 21l100 -58l105 57l20 -20zM338 327q-11 58 -34.5 95t-67.5 37q-39 0 -60.5 -15t-21.5 -40q0 -33 25.5 -48t70.5 -31q36 -13 66.5 -28.5t52.5 -36t34.5 -47.5t12.5 -62q0 -76 -48 -119t-129 -43q-39 0 -62.5 9.5t-32.5 17.5q-15 -10 -31.5 -17
t-36.5 -14q-10 29 -14 57t-4 58q0 36 6 81h60q0 -24 6 -49t19 -46t34 -34t51 -13q53 0 74 21.5t21 50.5q0 24 -13 39t-39 24q-43 15 -81 31.5t-66.5 39t-45 52t-16.5 70.5q0 40 14.5 67t37 44t50.5 24.5t56 7.5q35 0 60 -13t38 -26q11 14 26.5 22.5t32.5 13.5
q13 -40 15.5 -87.5t2.5 -92.5h-63z" />
    <glyph glyph-name="Zsmallcaron" unicode="&#xe08d;" horiz-adv-x="426" 
d="M225 513l-124 121l23 21l100 -58l105 57l20 -20zM402 465l-224 -412q16 -3 49 -3q27 0 47 8.5t35 25t27 39t23 51.5l56 -7l-23 -167h-364l-4 30l227 416q-4 2 -10 2h-6h-33q-17 0 -32.5 -2.5t-29 -13.5t-25 -32.5t-20.5 -58.5h-58l16 168q18 -4 41.5 -5.5t37.5 -1.5h270
v-37z" />
    <glyph glyph-name="SSsmall" unicode="&#xe08e;" horiz-adv-x="924" 
d="M338 327q-11 58 -34.5 95t-67.5 37q-39 0 -60.5 -15t-21.5 -40q0 -33 25.5 -48t70.5 -31q36 -13 66.5 -28.5t52.5 -36t34.5 -47.5t12.5 -62q0 -76 -48 -119t-129 -43q-39 0 -62.5 9.5t-32.5 17.5q-15 -10 -31.5 -17t-36.5 -14q-10 29 -14 57t-4 58q0 36 6 81h60
q0 -24 6 -49t19 -46t34 -34t51 -13q53 0 74 21.5t21 50.5q0 24 -13 39t-39 24q-43 15 -81 31.5t-66.5 39t-45 52t-16.5 70.5q0 40 14.5 67t37 44t50.5 24.5t56 7.5q35 0 60 -13t38 -26q11 14 26.5 22.5t32.5 13.5q13 -40 15.5 -87.5t2.5 -92.5h-63zM800 327q-11 58 -34.5 95
t-67.5 37q-39 0 -60.5 -15t-21.5 -40q0 -33 25.5 -48t70.5 -31q36 -13 66.5 -28.5t52.5 -36t34.5 -47.5t12.5 -62q0 -76 -48 -119t-129 -43q-39 0 -62.5 9.5t-32.5 17.5q-15 -10 -31.5 -17t-36.5 -14q-10 29 -14 57t-4 58q0 36 6 81h60q0 -24 6 -49t19 -46t34 -34t51 -13
q53 0 74 21.5t21 50.5q0 24 -13 39t-39 24q-43 15 -81 31.5t-66.5 39t-45 52t-16.5 70.5q0 40 14.5 67t37 44t50.5 24.5t56 7.5q35 0 60 -13t38 -26q11 14 26.5 22.5t32.5 13.5q13 -40 15.5 -87.5t2.5 -92.5h-63z" />
    <glyph glyph-name="ff" unicode="&#xfb00;" horiz-adv-x="728" 
d="M715 381h-96q-8 0 -8 -5v-287q0 -44 90 -44v-45h-297v45q67 0 67 44v287q0 5 -6 5h-213q-10 0 -10 -5v-287q0 -44 91 -44v-45h-297v45q67 0 67 44v283q0 5 -5 5h-90v56h86q9 0 9 21q0 71 16 122t46 84t72.5 48.5t96.5 15.5q45 0 67.5 -19.5t22.5 -55.5q0 -23 -16 -37.5
t-37 -14.5q-43 0 -43 37q0 9 5 24q-4 5 -10 7t-13 2q-21 0 -34.5 -18.5t-21 -44t-10 -53.5t-2.5 -46v-51q0 -21 10 -21h209q10 0 10 21q0 138 61 204t170 66q45 0 67 -19.5t22 -55.5q0 -23 -15 -37.5t-37 -14.5q-44 0 -44 37q0 6 2 12.5t4 11.5q-8 9 -22 9q-22 0 -35 -18.5
t-20.5 -44t-10 -53.5t-2.5 -46v-51q0 -21 8 -21q24 0 51.5 1t50.5 3z" />
    <glyph glyph-name="fi" unicode="&#xfb01;" horiz-adv-x="681" 
d="M568 97q0 -52 78 -52v-45h-268v45q34 0 41.5 14t7.5 42v204q0 76 -55 76h-121q-9 0 -9 -5v-287q0 -22 13 -33t58 -11v-45h-278v45q67 0 67 44v283q0 5 -5 5h-89v56h85q9 0 9 21q0 86 25.5 139t66.5 82t93 39t105 10q21 0 49 -5.5t53 -21t42 -43.5t17 -72
q0 -11 -3.5 -23.5t-11 -22.5t-18.5 -16.5t-26 -6.5q-25 0 -42.5 11.5t-17.5 34.5q0 20 5.5 33.5t21.5 21.5q-8 30 -33 41.5t-60 11.5q-34 0 -58 -16t-39 -40t-22 -52.5t-7 -53.5v-51q0 -21 9 -21h317v-336z" />
    <glyph glyph-name="fl" unicode="&#xfb02;" horiz-adv-x="730" 
d="M617 81q0 -36 78 -36v-45h-289v45q71 0 71 40v522q0 29 -15.5 44.5t-60.5 15.5h-59q-35 0 -55 -14t-29.5 -37t-12 -52t-2.5 -59v-51q0 -21 9 -21h157l-6 -52h-151q-9 0 -9 -5v-287q0 -44 91 -44v-45h-298v45q67 0 67 44v283q0 5 -5 5h-90v56h86q9 0 9 21q0 76 16 128
t52 83.5t94 45t142 13.5h210v-643z" />
    <glyph glyph-name="ffi" unicode="&#xfb03;" horiz-adv-x="1040" 
d="M927 97q0 -52 78 -52v-45h-258v45q35 0 47.5 14t12.5 42v204q0 76 -56 76h-141q-8 0 -8 -5v-287q0 -22 17.5 -33t62.5 -11v-45h-287v45q67 0 67 44v288q0 5 -6 5h-203q-10 0 -10 -5v-288q0 -44 91 -44v-45h-297v45q66 0 66 44v283q0 5 -4 5h-91v56h87q8 0 8 21
q0 139 62.5 204.5t169.5 65.5q45 0 67 -19.5t22 -55.5q0 -23 -15.5 -37.5t-36.5 -14.5q-44 0 -44 37q0 6 2 12.5t4 11.5q-8 9 -23 9q-21 0 -34.5 -18.5t-21 -44t-10 -53.5t-2.5 -46v-51q0 -21 10 -21h199q10 0 10 21q0 78 27 130t69.5 83t96 44t107.5 13q21 0 49 -5.5
t52.5 -21t42 -43.5t17.5 -72q0 -11 -4 -23.5t-11.5 -22.5t-19 -16.5t-25.5 -6.5q-24 0 -42 12t-18 38q0 19 5.5 31.5t22.5 19.5q-8 30 -38.5 41.5t-65.5 11.5q-34 0 -57.5 -16t-38.5 -40t-22 -52.5t-7 -53.5v-51q0 -21 8 -21h317v-336z" />
    <glyph glyph-name="ffl" unicode="&#xfb04;" horiz-adv-x="1096" 
d="M983 81q0 -36 78 -36v-45h-289v45q71 0 71 40v522q0 29 -15 44.5t-60 15.5h-60q-35 0 -54.5 -14t-29.5 -37t-12 -52t-2 -59v-51q0 -21 8 -21h157l-5 -52h-152q-8 0 -8 -5v-287q0 -44 90 -44v-45h-297v45q67 0 67 44v287q0 5 -6 5h-212q-10 0 -10 -5v-287q0 -44 91 -44
v-45h-297v45q66 0 66 44v283q0 5 -4 5h-90v56h86q8 0 8 21q0 59 16 108.5t46 85.5t73 56t97 20q45 0 67 -19.5t22 -55.5q0 -23 -15.5 -37.5t-36.5 -14.5q-44 0 -44 37q0 6 2 12.5t4 11.5q-8 9 -23 9q-21 0 -34.5 -18.5t-21 -44t-10 -53.5t-2.5 -46v-51q0 -21 10 -21h208
q10 0 10 21q0 76 15.5 128t51.5 83.5t94 45t142 13.5h210v-643z" />
    <glyph glyph-name=".null" horiz-adv-x="0" 
 />
    <glyph glyph-name="RS" horiz-adv-x="0" 
 />
    <glyph glyph-name="LF" horiz-adv-x="0" 
 />
    <glyph glyph-name="DC2" horiz-adv-x="0" 
 />
    <glyph glyph-name="US" horiz-adv-x="0" 
 />
    <glyph glyph-name="HT" horiz-adv-x="0" 
 />
    <glyph glyph-name="nonmarkingreturn" horiz-adv-x="0" 
 />
    <glyph glyph-name="NUL" horiz-adv-x="0" 
 />
    <glyph glyph-name="DC4" horiz-adv-x="0" 
 />
    <glyph glyph-name="DLE" horiz-adv-x="0" 
 />
    <glyph glyph-name="DC3" horiz-adv-x="0" 
 />
    <glyph glyph-name="DC1" horiz-adv-x="0" 
 />
    </font>
</defs>
</svg>
