<?xml version="1.0" standalone="no"?>
<!DOCTYPE svg PUBLIC "-//W3C//DTD SVG 1.1//EN" "http://www.w3.org/Graphics/SVG/1.1/DTD/svg11.dtd" >
<svg>
<metadata>
Created by FontForge 20090622 at Mon Jul 10 13:33:53 2017
 By deploy user
</metadata>
<defs>
<font id="GillSans-BoldItalic" horiz-adv-x="552" >
  <font-face 
    font-family="GillSans Bold Italic"
    font-weight="500"
    font-style="italic"
    font-stretch="normal"
    units-per-em="1000"
    panose-1="2 0 6 3 4 0 0 2 0 3"
    ascent="800"
    descent="-200"
    x-height="454"
    cap-height="682"
    bbox="-82 -230 1069 917"
    underline-thickness="105"
    underline-position="-54"
    unicode-range="U+0020-U+FB02"
  />
<missing-glyph horiz-adv-x="278" 
 />
    <glyph glyph-name=".notdef" horiz-adv-x="278" 
 />
    <glyph glyph-name=".null" horiz-adv-x="0" 
 />
    <glyph glyph-name="nonmarkingreturn" horiz-adv-x="278" 
 />
    <glyph glyph-name="uni0020" unicode=" " horiz-adv-x="278" 
 />
    <glyph glyph-name="numbersign" unicode="#" horiz-adv-x="668" 
d="M36 505v-105h127l-27 -135h-100v-105h78l-39 -181h106l38 181h162l-40 -181h106l39 181h146v105h-126l28 135h98v105h-78l40 183h-106l-39 -183h-160l40 183h-105l-41 -183h-147zM268 400h161l-28 -134h-160z" />
    <glyph glyph-name="dollar" unicode="$" horiz-adv-x="490" 
d="M473 594q-54 37 -128 54l5 43h-79l-5 -37q-89 -11 -140 -61t-51 -125q0 -38 14.5 -70.5t43.5 -56.5l17 -13.5t15 -11t19.5 -12.5l29.5 -18l-28 -194q-38 5 -76.5 20.5t-78.5 41.5l-18 -101q21 -12 40 -21.5t37.5 -16t38 -11.5t43.5 -9l-16 -118h78l17 114q26 4 40 7
t31 11q56 23 89 72t33 108q0 80 -65 133l-15.5 12t-14 10l-18 11.5t-26.5 17.5l26 178q37 -10 65 -22t63 -34zM232 417q-25 17 -35.5 32.5t-10.5 33.5q0 51 66 71zM287 242q45 -26 45 -68q0 -55 -66 -79z" />
    <glyph glyph-name="percent" unicode="%" horiz-adv-x="719" 
d="M347 528q0 34 -12.5 63.5t-34 51.5t-50.5 35t-62 13q-34 0 -64 -13t-52 -35t-35 -51.5t-13 -63.5q0 -33 13 -62t35 -50.5t51.5 -34t63.5 -12.5q33 0 62 12.5t51 34t34.5 50.5t12.5 62zM256 528q0 -29 -20.5 -49.5t-49.5 -20.5q-30 0 -51 20.5t-21 49.5q0 30 21.5 51
t52.5 21q28 0 48 -21t20 -51zM695 155q0 33 -12.5 62t-33.5 50.5t-49.5 34t-61.5 12.5q-35 0 -65 -12.5t-53 -34t-36 -50.5t-13 -62q0 -34 13 -63.5t35.5 -51.5t52 -35t63.5 -13q33 0 62 13t51 35t34.5 51.5t12.5 63.5zM603 154q0 -29 -21 -50.5t-50 -21.5t-49.5 21
t-20.5 51q0 29 21.5 49.5t51.5 20.5q28 0 48 -20.5t20 -49.5zM638 691h-80l-480 -699h83z" />
    <glyph glyph-name="ampersand" unicode="&#x26;" horiz-adv-x="729" 
d="M541 306q-11 -29 -30 -55t-43 -46q-11 17 -19.5 32.5t-16 32.5t-14 37t-13.5 46l33.5 7t26.5 6.5l23 7t24 8.5q135 52 135 164q0 65 -47 105t-124 40q-50 0 -90.5 -16.5t-69.5 -46.5t-45 -73t-16 -95q0 -5 0.5 -14t0.5 -20q-19 -3 -33 -5.5t-25 -5.5t-21.5 -6.5
t-23.5 -8.5q-74 -29 -113.5 -81t-39.5 -121q0 -45 18 -82.5t50.5 -65.5t76.5 -43.5t96 -15.5q35 0 71.5 7t67.5 20l12.5 5.5l11.5 5.5t13 7t17 9q72 -54 165 -54q14 0 23 2t23 7l46 117q-13 -2 -20.5 -2.5t-18.5 -0.5q-28 0 -48.5 4.5t-43.5 15.5l19.5 20.5t15 17l13.5 18
t15 22.5l16 23.5t12 21l10.5 22t11.5 27.5h-132zM389 449q-3 14 -4 22t-1 24q0 51 23 80.5t64 29.5q30 0 49 -16.5t19 -42.5q0 -52 -88 -82q-12 -4 -23 -6.5zM356 122q-27 -13 -47.5 -18t-43.5 -5q-52 0 -85 31t-33 79q0 45 33 74.5t93 40.5q7 -34 19 -70t27 -67
q8 -17 15.5 -29.5z" />
    <glyph glyph-name="quotesingle" unicode="'" horiz-adv-x="240" 
d="M71 461h101l23 134v121h-150v-121z" />
    <glyph glyph-name="parenleft" unicode="(" horiz-adv-x="344" 
d="M283 689l-22 -26l-18 -22.5t-18.5 -25l-22.5 -33.5q-24 -35 -42.5 -67t-32.5 -60q-37 -74 -55 -149.5t-18 -152.5q0 -33 3 -67.5t11 -69.5q11 -56 29.5 -109.5t50.5 -118.5l8 -18h101q-33 73 -50.5 161.5t-17.5 179.5q0 78 14 157t39.5 154t62.5 143t83 124h-105z" />
    <glyph glyph-name="parenright" unicode=")" horiz-adv-x="344" 
d="M76 -230l22 26l18 22.5t18.5 25l22.5 33.5q48 72 75 127q73 146 73 302q0 33 -3 67.5t-11 69.5q-11 56 -30 109t-50 119l-8 18h-101q33 -74 50.5 -162t17.5 -179q0 -78 -14 -157.5t-39.5 -154.5t-62.5 -143t-83 -123h105z" />
    <glyph glyph-name="asterisk" unicode="*" horiz-adv-x="479" 
d="M295 506l-14 7l41 138l3 10q1 5 1.5 8t0.5 5q0 15 -32 15h-50q-19 0 -26.5 -3.5t-7.5 -14.5q0 -2 0.5 -3.5t0.5 -3.5l4 -11l41 -140l-12 -7l-100 110l-7 7q-5 4 -7 6l-2 2q-4 2 -8 2q-7 0 -11 -4t-12 -15l-26 -43q-11 -17 -11 -28q0 -8 7 -12.5t25 -9.5l141 -36v-14
l-151 -30q-23 -5 -23 -19q0 -10 7 -23l26 -48q13 -24 23 -24q5 0 13 7q8 8 9 8q3 3 5 4.5t3 3.5l99 104l12 -13l-44 -143l-2 -6q-1 -3 -1 -8q0 -22 35 -22h50q32 0 32 20q0 1 -0.5 3.5l-1.5 7.5q0 2 -0.5 3.5t-0.5 3.5l-43 141l14 13l93 -108q19 -23 30 -23q10 0 23 20
l31 50q2 5 4.5 12t2.5 12q0 8 -9.5 14t-25.5 10l-139 30v14l152 34q22 4 22 18q0 6 -8 22l-22 41q-15 28 -28 28q-9 0 -24 -15z" />
    <glyph glyph-name="plus" unicode="+" horiz-adv-x="668" 
d="M59 393v-121h214v-213h121v213h214v121h-214v215h-121v-215h-214z" />
    <glyph glyph-name="comma" unicode="," horiz-adv-x="260" 
d="M-45 -145q39 2 68 8t54 18q50 24 80.5 67t30.5 91q0 22 -7.5 41t-20.5 33t-30.5 22.5t-37.5 8.5q-36 0 -60 -23t-24 -57q0 -49 48 -76q-22 -57 -86 -72z" />
    <glyph glyph-name="hyphen" unicode="-" horiz-adv-x="344" 
d="M338 294h-312l-20 -138h312z" />
    <glyph glyph-name="hyphen" unicode="&#xad;" horiz-adv-x="344" 
d="M338 294h-312l-20 -138h312z" />
    <glyph glyph-name="period" unicode="." horiz-adv-x="260" 
d="M182 79q0 36 -25.5 61t-62.5 25q-18 0 -33.5 -7t-27 -18.5t-18.5 -27.5t-7 -34q0 -17 7 -32.5t19 -27.5t28 -19t34 -7t33.5 7t27 19t18.5 27.5t7 33.5z" />
    <glyph glyph-name="slash" unicode="/" horiz-adv-x="281" 
d="M-60 -12h99l354 740h-98z" />
    <glyph glyph-name="zero" unicode="0" horiz-adv-x="531" 
d="M506 434q0 121 -49 189t-137 68q-56 0 -105 -34.5t-85 -94.5t-57 -140.5t-21 -173.5q0 -121 49 -189t136 -68q58 0 108.5 36.5t86.5 103.5q25 48 42 102q7 23 13 49t10 53t6.5 52.5t2.5 46.5zM369 471q0 -28 -2 -53.5t-8 -61.5q-9 -54 -17 -88.5t-20 -66.5
q-31 -83 -77 -83q-56 0 -56 100q0 31 4.5 70t11.5 78t16.5 74.5t20.5 59.5q13 30 31.5 47.5t38.5 17.5q57 0 57 -94z" />
    <glyph glyph-name="one" unicode="1" horiz-adv-x="531" 
d="M399 681l-139 -1l-105 -99v-136l80 80l-74 -525h145z" />
    <glyph glyph-name="two" unicode="2" horiz-adv-x="531" 
d="M440 135h-170l16 21l60 81q29 40 58 89q34 56 48 97.5t14 83.5q0 40 -14 74t-39 58.5t-59.5 38t-76.5 13.5q-44 0 -80.5 -12.5t-71.5 -40.5l-21 -149q85 69 145 69q31 0 51 -19.5t20 -49.5q0 -14 -4 -30t-12.5 -35.5t-22.5 -44t-34 -56.5l-28 -43l-29 -42.5l-36 -50.5
l-49 -67l-26.5 -34.5t-18 -24l-14.5 -19.5l-17 -21v-21h392z" />
    <glyph glyph-name="three" unicode="3" horiz-adv-x="531" 
d="M102 513q25 14 46 23.5t40 15.5t37 9t37 3q39 0 62.5 -20t23.5 -53q0 -36 -30.5 -60t-76.5 -24q-17 0 -36.5 3t-42.5 8l-18 -130q18 3 28 4t24 1q51 0 81 -23.5t30 -61.5q0 -19 -8.5 -35.5t-23.5 -29t-35 -19.5t-43 -7q-33 0 -68 11t-81 36l-19 -130q26 -12 47.5 -20
t42 -13.5t40.5 -7.5t42 -2q56 0 103 15.5t80.5 43.5t52 67.5t18.5 86.5q0 103 -79 144q55 18 84.5 60.5t29.5 104.5q0 40 -15 72.5t-42 56t-65 36.5t-84 13q-38 0 -80 -9.5t-82 -27.5z" />
    <glyph glyph-name="four" unicode="4" horiz-adv-x="531" 
d="M477 691h-112l-336 -420v-114h232l-22 -157h140l23 157h75l13 93h-75zM303 460l2 -2l-30 -208h-139z" />
    <glyph glyph-name="five" unicode="5" horiz-adv-x="531" 
d="M486 682h-316l-62 -369q40 6 77 6q60 0 95.5 -26t35.5 -71q0 -44 -33 -71t-85 -27q-17 0 -32.5 2t-31.5 7.5t-33 14t-38 21.5l-40 -127q39 -26 82.5 -38.5t94.5 -12.5q57 0 104.5 17.5t81.5 49t52.5 75t18.5 96.5q0 175 -187 202l18 109h178z" />
    <glyph glyph-name="six" unicode="6" horiz-adv-x="531" 
d="M449 682h-159l-154 -234q-25 -37 -44 -73q-23 -42 -35.5 -85.5t-12.5 -85.5q0 -48 15 -87.5t42 -67t65.5 -43t85.5 -15.5q52 0 97 20t78 55t52 82t19 102q0 39 -11.5 71.5t-31.5 55.5t-48 36t-62 13q-36 0 -66 -12l-2 2zM357 241q0 -24 -8.5 -46t-22.5 -38.5t-32.5 -26
t-39.5 -9.5q-32 0 -51.5 20.5t-19.5 53.5q0 24 8.5 44.5t23 36.5t34 25t41.5 9q30 0 48.5 -19t18.5 -50z" />
    <glyph glyph-name="seven" unicode="7" horiz-adv-x="531" 
d="M520 682h-400l-27 -137h225l-216 -545h149z" />
    <glyph glyph-name="eight" unicode="8" horiz-adv-x="531" 
d="M380 352q26 13 38.5 21t25.5 20q29 25 45 61t16 72t-13.5 66t-38 52t-58 34.5t-72.5 12.5q-44 0 -83 -15t-67.5 -41.5t-45 -62t-16.5 -75.5q0 -42 16 -72.5t51 -56.5q-15 -4 -26 -8t-20 -9t-17.5 -12t-17.5 -16q-27 -28 -42 -64.5t-15 -77.5q0 -42 15.5 -76.5t43.5 -60
t66.5 -39.5t85.5 -14t88.5 16t72 44.5t48 66.5t17.5 82q0 51 -25.5 91.5t-71.5 60.5zM365 514q0 -42 -20 -69.5t-49 -27.5q-23 0 -37 14.5t-14 38.5q0 42 19.5 70.5t49.5 28.5q23 0 37 -15.5t14 -39.5zM339 219q0 -44 -25.5 -73.5t-62.5 -29.5q-30 0 -48.5 20t-18.5 53
q0 21 7 40t18.5 33t27 22t33.5 8q30 0 49.5 -20.5t19.5 -52.5z" />
    <glyph glyph-name="nine" unicode="9" horiz-adv-x="531" 
d="M107 0h158l162 244q11 17 21 35l20 36q23 45 33 83t10 80q0 49 -14.5 88t-41.5 67t-65 43t-86 15q-52 0 -97 -20t-78 -55t-52 -82t-19 -102q0 -38 11.5 -70.5t32 -55.5t49 -36t62.5 -13q17 0 30 2.5t35 10.5l2 -2zM373 486q-1 -23 -9.5 -43.5t-23 -35.5t-32.5 -23.5
t-39 -8.5q-32 0 -50.5 18t-18.5 48q0 24 8.5 46t22.5 39t32 27t38 10q32 0 52.5 -20.5t20.5 -52.5q0 -1 -0.5 -1.5t-0.5 -2.5z" />
    <glyph glyph-name="colon" unicode=":" horiz-adv-x="260" 
d="M229 378q0 17 -6.5 32t-17 26.5t-25 18.5t-30.5 7q-34 0 -57.5 -24t-23.5 -57q0 -34 23.5 -58t56.5 -24q16 0 30.5 6.5t25.5 17.5t17.5 25t6.5 30zM186 71q0 33 -23.5 56t-56.5 23q-17 0 -31.5 -6.5t-25.5 -17t-17.5 -24.5t-6.5 -30t6.5 -30.5t17.5 -25.5t25.5 -17.5
t30.5 -6.5t31 6.5t26 17t17.5 25t6.5 30.5z" />
    <glyph glyph-name="semicolon" unicode=";" horiz-adv-x="260" 
d="M-61 -160q52 4 95.5 21t74.5 43t48 60t17 73q0 47 -26 76.5t-68 29.5q-36 0 -59.5 -23t-23.5 -59q0 -50 47 -76q-18 -32 -40 -50.5t-56 -27.5zM252 380q0 34 -23 58t-56 24q-34 0 -57.5 -23.5t-23.5 -57.5t23 -58t56 -24q34 0 57.5 23.5t23.5 57.5z" />
    <glyph glyph-name="semicolon" unicode="&#x37e;" horiz-adv-x="260" 
d="M-61 -160q52 4 95.5 21t74.5 43t48 60t17 73q0 47 -26 76.5t-68 29.5q-36 0 -59.5 -23t-23.5 -59q0 -50 47 -76q-18 -32 -40 -50.5t-56 -27.5zM252 380q0 34 -23 58t-56 24q-34 0 -57.5 -23.5t-23.5 -57.5t23 -58t56 -24q34 0 57.5 23.5t23.5 57.5z" />
    <glyph glyph-name="less" unicode="&#x3c;" horiz-adv-x="667" 
d="M608 50v131l-383 152l383 152v130l-549 -228v-109z" />
    <glyph glyph-name="equal" unicode="=" horiz-adv-x="667" 
d="M59 511v-121h549v121h-549zM59 276v-121h549v121h-549z" />
    <glyph glyph-name="greater" unicode="&#x3e;" horiz-adv-x="667" 
d="M59 615v-130l383 -152l-383 -152v-131l549 229v109z" />
    <glyph glyph-name="question" unicode="?" horiz-adv-x="323" 
d="M178 216q4 19 10 35t16 31t25 31.5t37 36.5q17 15 30.5 29t24.5 27q20 26 32 59t12 65q0 34 -12.5 63.5t-34.5 51t-52 34t-65 12.5q-37 0 -70.5 -11t-73.5 -36l-20 -144q45 31 76.5 45.5t57.5 14.5t42 -14t16 -34q0 -30 -31 -64l-37 -42q-59 -66 -76 -117
q-6 -18 -8.5 -32t-4.5 -41h106zM197 71q0 34 -23.5 58t-56.5 24t-56.5 -23.5t-23.5 -57.5q0 -33 23.5 -56.5t55.5 -23.5q34 0 57.5 23t23.5 56z" />
    <glyph glyph-name="at" unicode="@" horiz-adv-x="979" 
d="M868 9q-103 -130 -336 -130q-96 0 -172.5 24.5t-130 69.5t-82 110t-28.5 146q0 38 6.5 76.5t18.5 74.5t29.5 68t38.5 58q54 66 134 99.5t183 33.5q74 0 135 -20.5t104 -57.5t66.5 -89t23.5 -115q0 -57 -21 -109t-62 -95q-22 -23 -47 -38t-42 -15q-19 0 -19 24q0 6 1 14.5
t6 28.5l74 350h-129l-12 -54q-41 66 -129 66q-89 0 -155 -61q-51 -50 -80 -119.5t-29 -143.5q0 -45 14 -83t38.5 -65t59 -42t76.5 -15q74 0 132 56q8 -29 29 -42.5t60 -13.5q66 0 125 28t103 76t69.5 112t25.5 136q0 84 -30 153t-85 118.5t-131 77t-169 27.5
q-86 0 -163.5 -21.5t-137.5 -63.5q-47 -32 -84 -76.5t-62.5 -97t-39.5 -112t-14 -121.5q0 -105 35 -187.5t100.5 -140t160 -88t214.5 -30.5h3q156 0 266 56.5t163 162.5h-104zM340 210q2 51 14 93t31.5 73t46 48t57.5 17q42 0 66.5 -30.5t24.5 -83.5q0 -28 -5.5 -57.5
t-15.5 -57t-23.5 -50.5t-29.5 -39q-34 -34 -78 -34q-41 0 -64.5 31t-23.5 83v7z" />
    <glyph glyph-name="A" unicode="A" horiz-adv-x="625" 
d="M461 691h-154l-334 -691h160l66 149h212l21 -149h149zM359 519h2l38 -273h-158z" />
    <glyph glyph-name="B" unicode="B" horiz-adv-x="635" 
d="M142 682l-101 -682l257 -1l72 1q57 1 98.5 14t76.5 42q32 29 49.5 65t17.5 77q0 42 -17 77t-49 59q-14 10 -26 16.5t-35 14.5q49 25 74 63.5t25 88.5q0 45 -22 80.5t-60 55.5q-32 17 -69 23t-97 6h-194zM271 577h58q63 0 88 -17.5t25 -60.5q0 -47 -30 -67t-99 -20h-66z
M232 309h69q30 0 50 -1t34 -3t23.5 -6.5t20.5 -11.5q17 -11 27 -31t10 -43q0 -35 -20.5 -63.5t-53.5 -37.5q-27 -8 -53 -8q-8 -1 -21 -1h-30h-85z" />
    <glyph glyph-name="C" unicode="C" horiz-adv-x="688" 
d="M688 666q-51 13 -96 19t-93 6q-98 0 -179 -28.5t-139 -79.5t-90.5 -122.5t-32.5 -157.5q0 -70 24 -127.5t67.5 -98.5t104.5 -63.5t135 -22.5q61 0 119 13t121 41l24 160l-28 -17l-21.5 -12.5t-19 -10l-20.5 -9.5q-81 -36 -160 -36q-91 0 -144 48t-53 133q0 41 13.5 81
t38.5 74q79 107 245 107q39 0 77 -5.5t83 -17.5z" />
    <glyph glyph-name="D" unicode="D" horiz-adv-x="750" 
d="M137 682l-97 -682l227 -1l59 1q29 1 50 1h33q65 3 121.5 29.5t99.5 75.5q42 48 64 110.5t22 134.5q0 100 -43 175.5t-121 115.5q-23 12 -46 19.5t-51.5 12t-66.5 6.5t-90 2h-161zM266 566h46q27 0 47.5 -1.5t37 -4.5t31.5 -8t30 -13q107 -57 107 -186q0 -74 -31 -130.5
t-88 -85.5q-26 -13 -53.5 -18t-68.5 -5h-42h-80z" />
    <glyph glyph-name="E" unicode="E" horiz-adv-x="583" 
d="M564 682h-426l-96 -682h499l16 113h-354l26 180h246l16 113h-246l23 161h280z" />
    <glyph glyph-name="F" unicode="F" horiz-adv-x="490" 
d="M531 682h-391l-99 -682h147l42 292h212l16 113h-212l22 161h246z" />
    <glyph glyph-name="G" unicode="G" horiz-adv-x="740" 
d="M740 666q-53 14 -98 19.5t-101 5.5q-110 0 -200.5 -28.5t-155.5 -80t-101 -124t-36 -159.5q0 -139 105 -226q50 -41 109 -59q38 -11 85.5 -17t99.5 -6q48 0 99.5 5t99.5 15l50 348h-272l-15 -108h125l-17 -121q-32 -7 -50 -9t-43 -2q-51 0 -93 13.5t-71.5 39t-45.5 60.5
t-16 79q0 56 25.5 103t70.5 81t107.5 53t137.5 19q23 0 44 -1.5t42.5 -4.5t45 -8.5l51.5 -12.5z" />
    <glyph glyph-name="H" unicode="H" horiz-adv-x="792" 
d="M780 682h-147l-39 -270h-346l38 270h-144l-101 -682h148l39 278h347l-39 -278h143z" />
    <glyph glyph-name="I" unicode="I" horiz-adv-x="302" 
d="M287 682h-145l-99 -682h147z" />
    <glyph glyph-name="J" unicode="J" horiz-adv-x="302" 
d="M289 682h-145l-88 -617q-7 -48 -11.5 -76t-9.5 -44t-12 -24t-17 -16q-25 -19 -72 -19l-16 -113q9 -1 15 -1.5t20 -0.5q16 0 28.5 0.5t23 2l20.5 3t21 4.5q63 17 97 63t46 129l12 90z" />
    <glyph glyph-name="K" unicode="K" horiz-adv-x="646" 
d="M704 682h-171l-290 -293l-2 2l43 291h-145l-97 -682h145l54 362l255 -362h167l-264 374z" />
    <glyph glyph-name="L" unicode="L" horiz-adv-x="531" 
d="M282 682h-145l-97 -682h455l16 112h-309z" />
    <glyph glyph-name="M" unicode="M" horiz-adv-x="948" 
d="M862 682h-154l-230 -429l-110 429h-159l-222 -682h146l154 474h2l119 -474h70l253 461h2l21 -461h140z" />
    <glyph glyph-name="N" unicode="N" horiz-adv-x="781" 
d="M770 682h-144l-67 -445l-273 445h-145l-101 -682h145l68 460h2l279 -460h135z" />
    <glyph glyph-name="O" unicode="O" horiz-adv-x="833" 
d="M797 380q0 69 -24.5 126t-69 98.5t-106 64t-136.5 22.5q-87 0 -160.5 -29t-127 -80t-83.5 -121t-30 -153q0 -71 25 -129.5t70.5 -100t109 -64.5t140.5 -23q164 0 270 97q28 26 51 59t38.5 71t24 79t8.5 83zM647 369q0 -53 -19 -99.5t-51.5 -80.5t-76.5 -53.5t-95 -19.5
q-43 0 -79 14.5t-61.5 40.5t-40 62t-14.5 80q0 52 19 97.5t51.5 79.5t76.5 54t94 20q42 0 78 -14.5t62.5 -40.5t41 -62t14.5 -78z" />
    <glyph glyph-name="P" unicode="P" horiz-adv-x="583" 
d="M142 682l-101 -682h149l36 257h56h59q117 0 182.5 59t65.5 164q0 94 -64 148q-36 33 -85 44q-20 5 -41 7.5t-43 2.5h-70h-144zM271 574h23q45 0 71.5 -7t45.5 -24q30 -26 30 -70q0 -39 -21 -66t-58 -36q-18 -4 -36.5 -5.5t-54.5 -1.5h-30z" />
    <glyph glyph-name="Q" unicode="Q" horiz-adv-x="833" 
d="M690 -98l-18 17q-8 -3 -12.5 -3.5t-14.5 -0.5q-47 0 -88 22q-20 11 -37.5 24.5t-42.5 38.5q18 3 31.5 6t25.5 6.5t23.5 8l25.5 10.5q49 22 89 57.5t67.5 80.5t42.5 98t15 110q0 71 -24 129t-68 99t-106 63.5t-137 22.5q-87 0 -160.5 -29t-127 -80t-83.5 -121.5
t-30 -153.5q0 -102 47 -173t146 -117q16 -20 28 -33.5l22.5 -24.5l20.5 -21t24 -22q24 -21 49.5 -39.5t53.5 -34.5q19 -11 33.5 -18.5t28.5 -13t29 -10t35 -8.5zM648 367q0 -52 -19 -98t-52 -80t-77.5 -54t-94.5 -20q-43 0 -79 14.5t-61.5 40t-40 61.5t-14.5 80q0 53 19 99
t51.5 80.5t76.5 54t95 19.5q42 0 78 -15t62.5 -41t41 -62t14.5 -79z" />
    <glyph glyph-name="R" unicode="R" horiz-adv-x="646" 
d="M140 682l-99 -682h147l39 276h32q20 0 31 -1.5t22 -5.5q10 -4 19.5 -12.5t20 -23.5t23 -38.5t28.5 -56.5l66 -138h159l-82 171l-29 59t-21 34.5t-20 19.5t-25 13v2q32 7 48.5 13.5t35.5 20.5q33 25 50.5 63t17.5 84q0 51 -21 93t-60 69q-35 24 -78 33q-18 3 -36.5 5
t-38.5 2h-62h-167zM269 573h39q28 0 47.5 -1t33 -4.5t23.5 -9.5t19 -15q25 -25 25 -61q0 -49 -41 -76q-20 -14 -46 -19t-73 -5h-54z" />
    <glyph glyph-name="S" unicode="S" horiz-adv-x="521" 
d="M509 637l-11.5 6.5t-8.5 4.5q-18 10 -39.5 18t-44.5 13.5t-46.5 8.5t-44.5 3q-52 0 -96 -15.5t-76 -43t-50 -65t-18 -81.5q0 -55 31 -97t104 -86l41.5 -25.5t28.5 -18.5q24 -16 36.5 -36t12.5 -41q0 -35 -27 -55.5t-72 -20.5q-29 0 -59.5 8t-69.5 25q-12 5 -20.5 9
t-15.5 8t-14 8.5l-16 10.5l-22 -119q16 -11 26 -16.5t30 -13.5q42 -19 81.5 -27t87.5 -8q57 0 98 12.5t73 41.5t49.5 68.5t17.5 84.5q0 30 -8 56t-25 49.5t-44.5 46t-66.5 45.5l-58.5 35.5t-32.5 24t-14 20.5t-3 24q0 32 27.5 52.5t69.5 20.5q38 0 78 -13t91 -42z" />
    <glyph glyph-name="T" unicode="T" horiz-adv-x="619" 
d="M666 682h-583l-16 -115h216l-80 -567h146l81 567h220z" />
    <glyph glyph-name="U" unicode="U" horiz-adv-x="750" 
d="M747 682h-148l-46 -329l-10 -68q-7 -48 -21 -79.5t-39 -52.5q-21 -18 -52 -28t-63 -10q-69 0 -111 35t-42 92q0 25 6 66q2 8 4 21t4 30l46 323h-147l-45 -315l-8 -59q-4 -21 -5.5 -40.5t-1.5 -36.5q0 -91 59 -154q42 -46 99 -66t143 -20q72 0 126.5 17.5t96.5 54.5
q49 43 70 99l10.5 29t8 30.5t7.5 44l10 69.5z" />
    <glyph glyph-name="V" unicode="V" 
d="M609 682h-149l-183 -401h-2l-70 401h-138l138 -691h71z" />
    <glyph glyph-name="W" unicode="W" horiz-adv-x="948" 
d="M998 682h-147l-184 -401h-2l-102 401h-70l-218 -401h-2l-72 401h-137l137 -682h67l225 413l108 -413h65z" />
    <glyph glyph-name="X" unicode="X" horiz-adv-x="677" 
d="M742 682h-180l-195 -224l-136 224h-159l200 -332l-309 -350h180l203 227l137 -227h159l-202 335z" />
    <glyph glyph-name="Y" unicode="Y" horiz-adv-x="563" 
d="M618 682h-155l-158 -263l-88 263h-144l144 -396l-41 -286h145l40 286z" />
    <glyph glyph-name="Z" unicode="Z" horiz-adv-x="635" 
d="M702 682h-591l-16 -120h333l-462 -562h601l16 115h-342z" />
    <glyph glyph-name="bracketleft" unicode="[" horiz-adv-x="375" 
d="M419 682h-259l-130 -903h261l16 113h-130l96 675h130z" />
    <glyph glyph-name="backslash" unicode="\" horiz-adv-x="281" 
d="M167 -12h98l-111 740h-98z" />
    <glyph glyph-name="bracketright" unicode="]" horiz-adv-x="375" 
d="M-48 -221h260l129 903h-261l-16 -115h130l-96 -675h-130z" />
    <glyph glyph-name="asciicircum" unicode="^" horiz-adv-x="583" 
d="M68 292h140l96 239l96 -239h139l-179 390h-109z" />
    <glyph glyph-name="underscore" unicode="_" 
d="M-9 -198h570v89h-570v-89z" />
    <glyph glyph-name="grave" unicode="`" horiz-adv-x="333" 
d="M87 651l102 -146h95l-62 146h-135z" />
    <glyph glyph-name="a" unicode="a" 
d="M521 447q-42 8 -75 11.5t-76 3.5q-60 0 -102.5 -8.5t-83.5 -29.5q-69 -35 -106.5 -96t-37.5 -142q0 -43 11.5 -78.5t32.5 -61t50 -40t64 -14.5t65.5 11.5t65.5 38.5l-6 -42h130zM341 132q-23 -18 -49 -28t-49 -10q-32 0 -50 23t-18 63q0 45 18.5 84t47.5 58
q22 14 47.5 20.5t59.5 6.5h10t14 -1z" />
    <glyph glyph-name="b" unicode="b" horiz-adv-x="542" 
d="M259 682h-133l-96 -676q41 -7 84 -10.5t84 -3.5q53 0 94 7t76 23q33 15 59 39t45 54.5t29 67t10 75.5q0 44 -12.5 81.5t-35 64.5t-53.5 42.5t-67 15.5q-32 0 -60 -12.5t-63 -41.5zM205 298q25 29 45 40.5t44 11.5q37 0 58.5 -27t21.5 -73q0 -54 -23.5 -91t-63.5 -48
q-16 -5 -34 -6.5t-41 -1.5h-18q-6 0 -17 2z" />
    <glyph glyph-name="c" unicode="c" horiz-adv-x="469" 
d="M451 446q-21 7 -56.5 11.5t-67.5 4.5q-62 0 -115.5 -19.5t-92.5 -53.5t-61.5 -80t-22.5 -100q0 -48 17 -88t47.5 -68.5t72.5 -44.5t93 -16q34 0 73 4.5t68 12.5l19 135q-42 -21 -73 -29.5t-64 -8.5q-54 0 -84 26.5t-30 74.5q0 29 12.5 54t34 43.5t51 29t63.5 10.5
q25 0 48.5 -4.5t50.5 -15.5z" />
    <glyph glyph-name="d" unicode="d" horiz-adv-x="542" 
d="M548 682h-135l-31 -228q-10 3 -17 4.5t-14.5 2l-15.5 1t-20 0.5q-60 0 -111.5 -19.5t-89 -53t-59 -80t-21.5 -100.5q0 -50 18.5 -90.5t52.5 -68.5t83 -43t111 -15q35 0 70.5 3t79.5 11zM332 106q-12 -2 -19 -2.5t-18 -0.5q-57 0 -89 28t-32 78q0 61 43 97.5t116 36.5h13
t19 -1z" />
    <glyph glyph-name="e" unicode="e" horiz-adv-x="510" 
d="M468 208q5 20 6 34t1 32q0 42 -14 77t-39.5 59.5t-61 38t-79.5 13.5q-51 0 -96 -19.5t-78.5 -53.5t-52.5 -79.5t-19 -97.5q0 -51 16 -91.5t45.5 -69t71 -44t93.5 -15.5q36 0 76 8.5t82 24.5l25 119q-39 -23 -84.5 -36t-84.5 -13q-49 0 -76.5 27.5t-27.5 75.5v10h297z
M190 286q29 83 90 83q27 0 45 -18t18 -46q0 -3 -0.5 -8t-1.5 -11h-151z" />
    <glyph glyph-name="f" unicode="f" horiz-adv-x="333" 
d="M457 668q-31 12 -57 17.5t-54 5.5q-80 0 -133 -50q-32 -28 -51 -70q-6 -14 -10 -25t-7 -23.5l-6.5 -28.5t-7.5 -40h-92l-13 -99h91l-78 -554h132l79 554h84l14 99h-84v5q8 62 31.5 89.5t68.5 27.5q17 0 33.5 -3.5t42.5 -13.5z" />
    <glyph glyph-name="g" unicode="g" horiz-adv-x="490" 
d="M506 454h-198q-23 0 -40 -0.5t-27 -0.5q-37 0 -73 -11q-52 -16 -84.5 -59.5t-32.5 -96.5q0 -86 79 -133l-8 -2l-19 -6q-29 -8 -47 -29.5t-18 -46.5q0 -26 17 -48.5t46 -36.5q-112 -34 -112 -104q0 -53 55 -81.5t158 -28.5q100 0 157 24q35 16 58 49t23 71q0 31 -15.5 60
t-41.5 46q-12 8 -26 14t-34 11t-49 10.5t-72 12.5q-36 6 -36 25q0 14 14 18.5t58 4.5q34 1 51.5 3t37.5 10q51 20 80.5 61.5t29.5 94.5q0 21 -3 35t-13 37h72zM309 299q0 -45 -19 -70.5t-53 -25.5q-26 0 -42.5 17.5t-16.5 46.5q0 46 18.5 71.5t52.5 25.5q27 0 43.5 -18
t16.5 -47zM190 -49q9 -2 14 -3.5t18 -4.5q28 -5 45.5 -9.5t27.5 -9.5t14 -11t4 -15q0 -38 -106 -38q-100 0 -100 42q0 18 19 29t64 20z" />
    <glyph glyph-name="h" unicode="h" 
d="M261 682h-135l-97 -682h135l42 295q67 62 117 62q39 0 39 -45v-12t-1 -12l-6 -38l-35 -250h136l31 216l8 56q2 14 3 28.5t1 26.5q0 65 -33 100t-93 35q-39 0 -78 -15.5t-73 -44.5z" />
    <glyph glyph-name="i" unicode="i" horiz-adv-x="260" 
d="M227 454h-134l-64 -454h134zM249 581q0 29 -20 49t-49 20t-49 -20.5t-20 -49.5t19.5 -49.5t48.5 -20.5t49.5 20.5t20.5 50.5z" />
    <glyph glyph-name="j" unicode="j" horiz-adv-x="260" 
d="M226 454h-133l-67 -454q-5 -35 -11 -57t-15 -35.5t-22 -18.5t-31 -5h-7l-16 -108q15 -4 24 -5t23 -1q67 0 117 42q30 26 44 62l7.5 22.5t6.5 25.5t6.5 38l9.5 60zM249 580q0 29 -20 49.5t-49 20.5t-49.5 -21t-20.5 -50t20 -49t49 -20t49.5 20.5t20.5 49.5z" />
    <glyph glyph-name="k" unicode="k" horiz-adv-x="509" 
d="M259 682h-130l-99 -682h132l35 224l164 -224h156l-169 238l179 216h-166l-162 -196l-2 2z" />
    <glyph glyph-name="l" unicode="l" horiz-adv-x="260" 
d="M261 682h-132l-98 -682h133z" />
    <glyph glyph-name="m" unicode="m" horiz-adv-x="823" 
d="M225 454h-133l-64 -454h133l41 291q64 68 108 68q43 0 43 -58q0 -14 -1 -27t-5 -42l-33 -232h132l41 291q29 32 59 50.5t52 18.5q41 0 41 -61q0 -8 -1 -17.5t-3 -20.5l-5 -37l-32 -224h133l27 190l9 63q2 21 4 37.5t2 27.5q0 67 -35 105.5t-97 38.5q-26 0 -53.5 -8.5
t-51.5 -25.5l-14.5 -10.5t-13 -9.5t-14 -12l-18.5 -17q-9 39 -38.5 61t-74.5 22q-73 0 -144 -68l-2 2z" />
    <glyph glyph-name="n" unicode="n" 
d="M227 454h-133l-64 -454h132l42 292l11 10q64 58 107 58q19 0 30.5 -13.5t11.5 -34.5q0 -11 -1.5 -26t-6.5 -47l-34 -239h133l32 209q1 4 2.5 19t4.5 41l3.5 36.5t1.5 23.5q0 62 -33 97.5t-90 35.5q-42 0 -78 -13.5t-78 -45.5z" />
    <glyph glyph-name="o" unicode="o" horiz-adv-x="563" 
d="M522 248q0 47 -16.5 86t-46.5 67.5t-71.5 44.5t-90.5 16q-54 0 -101.5 -20t-83.5 -54.5t-56.5 -80.5t-20.5 -98q0 -46 17.5 -85.5t48.5 -69t73 -46t90 -16.5q55 0 102 19.5t81.5 54t54.5 81.5t20 101zM383 249q0 -30 -9.5 -57.5t-25.5 -47.5t-37.5 -32t-45.5 -12
q-39 0 -65.5 28.5t-26.5 71.5q0 31 9 58t25 47.5t37.5 32t46.5 11.5q42 0 67 -27.5t25 -72.5z" />
    <glyph glyph-name="p" unicode="p" horiz-adv-x="583" 
d="M275 542h-132l-24 -166q-25 -22 -41 -38t-29 -32q-8 -11 -16 -23.5t-15 -26.5q-22 -41 -22 -58q0 -10 9 -10q10 0 16 8l21 28q11 13 28 29.5t36 31.5l-73 -515h132l33 230q20 -5 31 -6.5t31 -1.5q59 0 111 21t90.5 58t60.5 86.5t22 106.5q0 44 -14.5 80.5t-40.5 62.5
t-62.5 40.5t-80.5 14.5q-9 0 -19 -0.5t-21 -1.5q-23 -2 -44 -6zM249 356l6 2l22 5q12 3 28 3q47 0 72.5 -26.5t25.5 -74.5q0 -73 -40.5 -116.5t-109.5 -43.5q-11 0 -18.5 1t-20.5 4z" />
    <glyph glyph-name="q" unicode="q" 
d="M519 460h-106h-52t-33 -1q-56 -2 -96.5 -12.5t-75.5 -31.5q-60 -35 -90 -93t-30 -134q0 -89 42.5 -142.5t114.5 -53.5q32 0 63 9t69 30l-37 -261h133zM339 124q-44 -29 -85 -29q-36 0 -57 26t-21 71q0 73 44.5 114t125.5 41q5 0 10.5 -0.5t13.5 -0.5z" />
    <glyph glyph-name="r" unicode="r" horiz-adv-x="365" 
d="M220 454h-133l-57 -454h134l33 270q17 31 38 48.5t43 17.5q31 0 63 -49l63 125q-23 27 -41.5 38.5t-38.5 11.5q-26 0 -52 -18t-57 -57l-2 2z" />
    <glyph glyph-name="s" unicode="s" horiz-adv-x="375" 
d="M359 421q-39 22 -73 31.5t-70 9.5t-67 -10.5t-53.5 -29.5t-35.5 -45t-13 -56q0 -37 18.5 -65.5t64.5 -62.5l39 -28q32 -24 32 -42q0 -12 -12 -19t-33 -7q-45 0 -126 37l-19 -101q44 -22 80 -31.5t77 -9.5q37 0 68.5 10.5t54 29.5t35 45t12.5 57q0 35 -19.5 64.5
t-64.5 64.5l-38 29t-20.5 17.5t-8 11.5t-1.5 12q0 20 35 20q21 0 46 -7.5t67 -25.5l14 -6z" />
    <glyph glyph-name="t" unicode="t" horiz-adv-x="365" 
d="M276 549h-135l-17 -95h-92l-17 -101h91l-19 -104l-8 -44t-4.5 -28.5t-2 -20.5t-0.5 -19q0 -67 38 -106t104 -39q29 0 55 6.5t60 22.5v123q-48 -31 -81 -31q-40 0 -40 48q0 16 3 36l8 42l21 114h100l17 101h-99z" />
    <glyph glyph-name="u" unicode="u" 
d="M516 454h-133l-42 -296q-62 -67 -119 -67q-38 0 -38 52q0 14 1.5 34.5t5.5 43.5l33 233h-133l-31 -219l-8 -55q-2 -14 -3 -27t-1 -26q0 -64 34 -99.5t96 -35.5q37 0 76 15.5t72 43.5l-7 -51h133z" />
    <glyph glyph-name="v" unicode="v" horiz-adv-x="458" 
d="M480 454h-142l-122 -232l-58 232h-131l116 -462h92z" />
    <glyph glyph-name="w" unicode="w" horiz-adv-x="729" 
d="M757 454h-142l-129 -245h-2l-49 245h-81l-137 -245l-53 245h-131l114 -462h85l131 235l49 -235h87z" />
    <glyph glyph-name="x" unicode="x" horiz-adv-x="531" 
d="M552 454h-164l-107 -133l-68 133h-149l130 -216l-215 -238h170l117 142l74 -142h148l-136 222z" />
    <glyph glyph-name="y" unicode="y" horiz-adv-x="490" 
d="M510 454h-141l-120 -248l-90 248h-134l145 -412l-132 -272h141z" />
    <glyph glyph-name="z" unicode="z" horiz-adv-x="458" 
d="M458 454h-394l-16 -112h185l-232 -330v-12h413l16 113h-197l225 325v16z" />
    <glyph glyph-name="braceleft" unicode="{" horiz-adv-x="385" 
d="M29 200q24 -1 33.5 -3t21.5 -8q15 -8 25 -20t16 -31t8.5 -46.5t2.5 -66.5v-8v-9q0 -28 1 -48.5t2.5 -36t4.5 -28t8 -24.5q7 -15 18 -28.5t27 -23.5q13 -9 26 -14.5t29 -8.5t36.5 -4.5t48.5 -1.5h26v117h-6q-29 0 -47.5 3t-29 10.5t-14 21t-3.5 35.5q0 69 -4.5 119
t-13.5 76q-17 55 -73 87q16 10 27.5 19.5t20 19.5t15 21.5t11.5 26.5q8 24 12.5 75t5.5 119q0 22 3.5 36t13.5 22t28 10.5t48 2.5h6v117h-25q-28 0 -48.5 -1.5t-36.5 -4.5t-29 -8.5t-27 -14.5q-30 -19 -44 -52q-5 -11 -8 -23.5t-5 -28t-3 -36.5t-1 -49v-9v-8
q0 -26 -0.5 -44.5t-2 -32t-4.5 -24t-8 -21.5q-11 -28 -31.5 -39.5t-60.5 -13.5v-118z" />
    <glyph glyph-name="bar" unicode="|" horiz-adv-x="611" 
d="M245 814v-832h122v832h-122z" />
    <glyph glyph-name="braceright" unicode="}" horiz-adv-x="385" 
d="M356 318q-24 1 -33.5 3t-21.5 8q-15 7 -25 19t-16 31.5t-8.5 47t-2.5 66.5v8v9q0 28 -1 48.5t-2.5 36t-5 28t-7.5 24.5q-7 15 -18 28.5t-27 23.5q-13 9 -26 14.5t-29 8.5t-36.5 4.5t-48.5 1.5h-26v-117h6q30 0 48.5 -2.5t28.5 -10.5t13.5 -22t3.5 -36q0 -68 4.5 -118
t13.5 -76q9 -29 25.5 -48t48.5 -39q-29 -17 -46 -37.5t-28 -49.5q-8 -23 -13 -74.5t-5 -120.5q0 -22 -3.5 -35.5t-14 -21t-28.5 -10.5t-47 -3h-7v-117h26q28 0 48 1.5t36 4.5t29 8.5t27 14.5q31 19 45 52q10 22 13 51.5t3 85.5v9v8q0 26 0.5 44t2.5 31.5t5 24.5t8 22
q11 28 31.5 39.5t59.5 13.5v118z" />
    <glyph glyph-name="asciitilde" unicode="~" horiz-adv-x="583" 
d="M44 242q41 39 69.5 53.5t63.5 14.5q24 0 50 -7.5t68 -25.5l41 -16.5t31 -10.5t26 -5.5t26 -1.5q18 0 34 3t33 10.5t35.5 20t41.5 31.5v132q-40 -39 -69.5 -54t-64.5 -15q-17 0 -32.5 4t-44.5 16q-34 14 -57.5 22.5t-41 13.5t-32 7t-30.5 2q-23 0 -40.5 -3t-34.5 -11
t-34 -21t-38 -33v-126z" />
    <glyph glyph-name="Adieresis" unicode="&#xc4;" horiz-adv-x="625" 
d="M461 691h-154l-334 -691h160l66 149h212l21 -149h149zM359 519h2l38 -273h-158zM218 801q0 -28 19.5 -47.5t46.5 -19.5q28 0 47.5 19.5t19.5 47.5q0 27 -19.5 46.5t-47.5 19.5q-27 0 -46.5 -19.5t-19.5 -46.5zM439 801q0 -28 19.5 -47.5t46.5 -19.5q28 0 47 19.5t19 47.5
q0 27 -19 46.5t-47 19.5q-27 0 -46.5 -19.5t-19.5 -46.5z" />
    <glyph glyph-name="Aring" unicode="&#xc5;" horiz-adv-x="625" 
d="M461 691h-154l-334 -691h160l66 149h212l21 -149h149zM359 519h2l38 -273h-158zM284 816q0 -20 7.5 -37t20.5 -29.5t30 -20t37 -7.5q19 0 36.5 7.5t30 20t20 29.5t7.5 37t-7.5 37.5t-20 30t-30 20t-36.5 7.5q-20 0 -37 -7.5t-30 -20t-20.5 -30t-7.5 -37.5zM337 816
q0 17 12.5 29.5t29.5 12.5t29 -12.5t12 -29.5t-12 -29t-29 -12t-29.5 12t-12.5 29z" />
    <glyph glyph-name="Ccedilla" unicode="&#xc7;" horiz-adv-x="688" 
d="M688 666q-51 13 -96 19t-93 6q-98 0 -179 -28.5t-139 -79.5t-90.5 -122.5t-32.5 -157.5q0 -70 24 -127.5t67.5 -98.5t104.5 -63.5t135 -22.5q61 0 119 13t121 41l24 160l-28 -17l-21.5 -12.5t-19 -10l-20.5 -9.5q-81 -36 -160 -36q-91 0 -144 48t-53 133q0 41 13.5 81
t38.5 74q79 107 245 107q39 0 77 -5.5t83 -17.5zM185 -206q8 -1 19.5 -1.5t27.5 -0.5q47 0 86.5 8.5t67.5 23.5t43.5 36t15.5 47q0 37 -30 58.5t-82 21.5q-14 0 -28 -2t-33 -7l-16 -48l25.5 3.5t19.5 1.5q26 0 40.5 -9t14.5 -26q0 -21 -33.5 -35t-84.5 -14h-5h-15h-10z" />
    <glyph glyph-name="Eacute" unicode="&#xc9;" horiz-adv-x="583" 
d="M564 682h-426l-96 -682h499l16 113h-354l26 180h246l16 113h-246l23 161h280zM398 873l-102 -146h94l158 146h-150z" />
    <glyph glyph-name="Ntilde" unicode="&#xd1;" horiz-adv-x="781" 
d="M770 682h-144l-67 -445l-273 445h-145l-101 -682h145l68 460h2l279 -460h135zM366 735q10 40 44 40q4 0 8.5 -0.5t11 -2.5t16.5 -6l27 -11q27 -11 41.5 -15t27.5 -4q38 0 64.5 31t34.5 86h-63q-10 -38 -33 -38q-8 0 -19 3t-34 11q-38 14 -57 19t-34 5q-76 0 -96 -118h61z
" />
    <glyph glyph-name="Odieresis" unicode="&#xd6;" horiz-adv-x="833" 
d="M797 380q0 69 -24.5 126t-69 98.5t-106 64t-136.5 22.5q-87 0 -160.5 -29t-127 -80t-83.5 -121t-30 -153q0 -71 25 -129.5t70.5 -100t109 -64.5t140.5 -23q164 0 270 97q28 26 51 59t38.5 71t24 79t8.5 83zM647 369q0 -53 -19 -99.5t-51.5 -80.5t-76.5 -53.5t-95 -19.5
q-43 0 -79 14.5t-61.5 40.5t-40 62t-14.5 80q0 52 19 97.5t51.5 79.5t76.5 54t94 20q42 0 78 -14.5t62.5 -40.5t41 -62t14.5 -78zM322 801q0 -28 19.5 -47.5t46.5 -19.5q28 0 47.5 19.5t19.5 47.5q0 27 -19.5 46.5t-47.5 19.5q-27 0 -46.5 -19.5t-19.5 -46.5zM543 801
q0 -28 19.5 -47.5t46.5 -19.5q28 0 47 19.5t19 47.5q0 27 -19 46.5t-47 19.5q-27 0 -46.5 -19.5t-19.5 -46.5z" />
    <glyph glyph-name="Udieresis" unicode="&#xdc;" horiz-adv-x="750" 
d="M747 682h-148l-46 -329l-10 -68q-7 -48 -21 -79.5t-39 -52.5q-21 -18 -52 -28t-63 -10q-69 0 -111 35t-42 92q0 25 6 66q2 8 4 21t4 30l46 323h-147l-45 -315l-8 -59q-4 -21 -5.5 -40.5t-1.5 -36.5q0 -91 59 -154q42 -46 99 -66t143 -20q72 0 126.5 17.5t96.5 54.5
q49 43 70 99l10.5 29t8 30.5t7.5 44l10 69.5zM281 801q0 -28 19.5 -47.5t46.5 -19.5q28 0 47.5 19.5t19.5 47.5q0 27 -19.5 46.5t-47.5 19.5q-27 0 -46.5 -19.5t-19.5 -46.5zM502 801q0 -28 19.5 -47.5t46.5 -19.5q28 0 47 19.5t19 47.5q0 27 -19 46.5t-47 19.5
q-27 0 -46.5 -19.5t-19.5 -46.5z" />
    <glyph glyph-name="aacute" unicode="&#xe1;" 
d="M521 447q-42 8 -75 11.5t-76 3.5q-60 0 -102.5 -8.5t-83.5 -29.5q-69 -35 -106.5 -96t-37.5 -142q0 -43 11.5 -78.5t32.5 -61t50 -40t64 -14.5t65.5 11.5t65.5 38.5l-6 -42h130zM341 132q-23 -18 -49 -28t-49 -10q-32 0 -50 23t-18 63q0 45 18.5 84t47.5 58
q22 14 47.5 20.5t59.5 6.5h10t14 -1zM348 649l-102 -146h94l158 146h-150z" />
    <glyph glyph-name="agrave" unicode="&#xe0;" 
d="M521 447q-42 8 -75 11.5t-76 3.5q-60 0 -102.5 -8.5t-83.5 -29.5q-69 -35 -106.5 -96t-37.5 -142q0 -43 11.5 -78.5t32.5 -61t50 -40t64 -14.5t65.5 11.5t65.5 38.5l-6 -42h130zM341 132q-23 -18 -49 -28t-49 -10q-32 0 -50 23t-18 63q0 45 18.5 84t47.5 58
q22 14 47.5 20.5t59.5 6.5h10t14 -1zM197 651l102 -146h95l-62 146h-135z" />
    <glyph glyph-name="acircumflex" unicode="&#xe2;" 
d="M521 447q-42 8 -75 11.5t-76 3.5q-60 0 -102.5 -8.5t-83.5 -29.5q-69 -35 -106.5 -96t-37.5 -142q0 -43 11.5 -78.5t32.5 -61t50 -40t64 -14.5t65.5 11.5t65.5 38.5l-6 -42h130zM341 132q-23 -18 -49 -28t-49 -10q-32 0 -50 23t-18 63q0 45 18.5 84t47.5 58
q22 14 47.5 20.5t59.5 6.5h10t14 -1zM338 590l37 -87h97l-59 147h-131l-145 -147h115z" />
    <glyph glyph-name="adieresis" unicode="&#xe4;" 
d="M521 447q-42 8 -75 11.5t-76 3.5q-60 0 -102.5 -8.5t-83.5 -29.5q-69 -35 -106.5 -96t-37.5 -142q0 -43 11.5 -78.5t32.5 -61t50 -40t64 -14.5t65.5 11.5t65.5 38.5l-6 -42h130zM341 132q-23 -18 -49 -28t-49 -10q-32 0 -50 23t-18 63q0 45 18.5 84t47.5 58
q22 14 47.5 20.5t59.5 6.5h10t14 -1zM147 577q0 -28 19.5 -47.5t46.5 -19.5q28 0 47.5 19.5t19.5 47.5q0 27 -19.5 46.5t-47.5 19.5q-27 0 -46.5 -19.5t-19.5 -46.5zM368 577q0 -28 19.5 -47.5t46.5 -19.5q28 0 47 19.5t19 47.5q0 27 -19 46.5t-47 19.5q-27 0 -46.5 -19.5
t-19.5 -46.5z" />
    <glyph glyph-name="atilde" unicode="&#xe3;" 
d="M521 447q-42 8 -75 11.5t-76 3.5q-60 0 -102.5 -8.5t-83.5 -29.5q-69 -35 -106.5 -96t-37.5 -142q0 -43 11.5 -78.5t32.5 -61t50 -40t64 -14.5t65.5 11.5t65.5 38.5l-6 -42h130zM341 132q-23 -18 -49 -28t-49 -10q-32 0 -50 23t-18 63q0 45 18.5 84t47.5 58
q22 14 47.5 20.5t59.5 6.5h10t14 -1zM217 511q10 40 44 40q4 0 8.5 -0.5t11 -2.5t16.5 -6l27 -11q27 -11 41.5 -15t27.5 -4q38 0 64.5 31t34.5 86h-63q-10 -38 -33 -38q-8 0 -19 3t-34 11q-38 14 -57 19t-34 5q-76 0 -96 -118h61z" />
    <glyph glyph-name="aring" unicode="&#xe5;" 
d="M521 447q-42 8 -75 11.5t-76 3.5q-60 0 -102.5 -8.5t-83.5 -29.5q-69 -35 -106.5 -96t-37.5 -142q0 -43 11.5 -78.5t32.5 -61t50 -40t64 -14.5t65.5 11.5t65.5 38.5l-6 -42h130zM341 132q-23 -18 -49 -28t-49 -10q-32 0 -50 23t-18 63q0 45 18.5 84t47.5 58
q22 14 47.5 20.5t59.5 6.5h10t14 -1zM213 592q0 -20 7.5 -37t20.5 -29.5t30 -20t37 -7.5q19 0 36.5 7.5t30 20t20 29.5t7.5 37t-7.5 37.5t-20 30t-30 20t-36.5 7.5q-20 0 -37 -7.5t-30 -20t-20.5 -30t-7.5 -37.5zM266 592q0 17 12.5 29.5t29.5 12.5t29 -12.5t12 -29.5
t-12 -29t-29 -12t-29.5 12t-12.5 29z" />
    <glyph glyph-name="ccedilla" unicode="&#xe7;" horiz-adv-x="469" 
d="M451 446q-21 7 -56.5 11.5t-67.5 4.5q-62 0 -115.5 -19.5t-92.5 -53.5t-61.5 -80t-22.5 -100q0 -48 17 -88t47.5 -68.5t72.5 -44.5t93 -16q34 0 73 4.5t68 12.5l19 135q-42 -21 -73 -29.5t-64 -8.5q-54 0 -84 26.5t-30 74.5q0 29 12.5 54t34 43.5t51 29t63.5 10.5
q25 0 48.5 -4.5t50.5 -15.5zM75 -206q8 -1 19.5 -1.5t27.5 -0.5q47 0 86.5 8.5t67.5 23.5t43.5 36t15.5 47q0 37 -30 58.5t-82 21.5q-14 0 -28 -2t-33 -7l-16 -48l25.5 3.5t19.5 1.5q26 0 40.5 -9t14.5 -26q0 -21 -33.5 -35t-84.5 -14h-5h-15h-10z" />
    <glyph glyph-name="eacute" unicode="&#xe9;" horiz-adv-x="510" 
d="M468 208q5 20 6 34t1 32q0 42 -14 77t-39.5 59.5t-61 38t-79.5 13.5q-51 0 -96 -19.5t-78.5 -53.5t-52.5 -79.5t-19 -97.5q0 -51 16 -91.5t45.5 -69t71 -44t93.5 -15.5q36 0 76 8.5t82 24.5l25 119q-39 -23 -84.5 -36t-84.5 -13q-49 0 -76.5 27.5t-27.5 75.5v10h297z
M190 286q29 83 90 83q27 0 45 -18t18 -46q0 -3 -0.5 -8t-1.5 -11h-151zM327 649l-102 -146h94l158 146h-150z" />
    <glyph glyph-name="egrave" unicode="&#xe8;" horiz-adv-x="510" 
d="M468 208q5 20 6 34t1 32q0 42 -14 77t-39.5 59.5t-61 38t-79.5 13.5q-51 0 -96 -19.5t-78.5 -53.5t-52.5 -79.5t-19 -97.5q0 -51 16 -91.5t45.5 -69t71 -44t93.5 -15.5q36 0 76 8.5t82 24.5l25 119q-39 -23 -84.5 -36t-84.5 -13q-49 0 -76.5 27.5t-27.5 75.5v10h297z
M190 286q29 83 90 83q27 0 45 -18t18 -46q0 -3 -0.5 -8t-1.5 -11h-151zM176 651l102 -146h95l-62 146h-135z" />
    <glyph glyph-name="ecircumflex" unicode="&#xea;" horiz-adv-x="510" 
d="M468 208q5 20 6 34t1 32q0 42 -14 77t-39.5 59.5t-61 38t-79.5 13.5q-51 0 -96 -19.5t-78.5 -53.5t-52.5 -79.5t-19 -97.5q0 -51 16 -91.5t45.5 -69t71 -44t93.5 -15.5q36 0 76 8.5t82 24.5l25 119q-39 -23 -84.5 -36t-84.5 -13q-49 0 -76.5 27.5t-27.5 75.5v10h297z
M190 286q29 83 90 83q27 0 45 -18t18 -46q0 -3 -0.5 -8t-1.5 -11h-151zM317 590l37 -87h97l-59 147h-131l-145 -147h115z" />
    <glyph glyph-name="edieresis" unicode="&#xeb;" horiz-adv-x="510" 
d="M468 208q5 20 6 34t1 32q0 42 -14 77t-39.5 59.5t-61 38t-79.5 13.5q-51 0 -96 -19.5t-78.5 -53.5t-52.5 -79.5t-19 -97.5q0 -51 16 -91.5t45.5 -69t71 -44t93.5 -15.5q36 0 76 8.5t82 24.5l25 119q-39 -23 -84.5 -36t-84.5 -13q-49 0 -76.5 27.5t-27.5 75.5v10h297z
M190 286q29 83 90 83q27 0 45 -18t18 -46q0 -3 -0.5 -8t-1.5 -11h-151zM126 577q0 -28 19.5 -47.5t46.5 -19.5q28 0 47.5 19.5t19.5 47.5q0 27 -19.5 46.5t-47.5 19.5q-27 0 -46.5 -19.5t-19.5 -46.5zM347 577q0 -28 19.5 -47.5t46.5 -19.5q28 0 47 19.5t19 47.5
q0 27 -19 46.5t-47 19.5q-27 0 -46.5 -19.5t-19.5 -46.5z" />
    <glyph glyph-name="iacute" unicode="&#xed;" horiz-adv-x="260" 
d="M227 454h-132l-65 -454h133zM202 649l-102 -146h94l158 146h-150z" />
    <glyph glyph-name="igrave" unicode="&#xec;" horiz-adv-x="260" 
d="M227 454h-132l-65 -454h133zM51 651l102 -146h95l-62 146h-135z" />
    <glyph glyph-name="icircumflex" unicode="&#xee;" horiz-adv-x="260" 
d="M227 454h-132l-65 -454h133zM192 590l37 -87h97l-59 147h-131l-145 -147h115z" />
    <glyph glyph-name="idieresis" unicode="&#xef;" horiz-adv-x="260" 
d="M227 454h-132l-65 -454h133zM1 577q0 -28 19.5 -47.5t46.5 -19.5q28 0 47.5 19.5t19.5 47.5q0 27 -19.5 46.5t-47.5 19.5q-27 0 -46.5 -19.5t-19.5 -46.5zM222 577q0 -28 19.5 -47.5t46.5 -19.5q28 0 47 19.5t19 47.5q0 27 -19 46.5t-47 19.5q-27 0 -46.5 -19.5
t-19.5 -46.5z" />
    <glyph glyph-name="ntilde" unicode="&#xf1;" 
d="M227 454h-133l-64 -454h132l42 292l11 10q64 58 107 58q19 0 30.5 -13.5t11.5 -34.5q0 -11 -1.5 -26t-6.5 -47l-34 -239h133l32 209q1 4 2.5 19t4.5 41l3.5 36.5t1.5 23.5q0 62 -33 97.5t-90 35.5q-42 0 -78 -13.5t-78 -45.5zM217 511q10 40 44 40q4 0 8.5 -0.5t11 -2.5
t16.5 -6l27 -11q27 -11 41.5 -15t27.5 -4q38 0 64.5 31t34.5 86h-63q-10 -38 -33 -38q-8 0 -19 3t-34 11q-38 14 -57 19t-34 5q-76 0 -96 -118h61z" />
    <glyph glyph-name="oacute" unicode="&#xf3;" horiz-adv-x="563" 
d="M522 248q0 47 -16.5 86t-46.5 67.5t-71.5 44.5t-90.5 16q-54 0 -101.5 -20t-83.5 -54.5t-56.5 -80.5t-20.5 -98q0 -46 17.5 -85.5t48.5 -69t73 -46t90 -16.5q55 0 102 19.5t81.5 54t54.5 81.5t20 101zM383 249q0 -30 -9.5 -57.5t-25.5 -47.5t-37.5 -32t-45.5 -12
q-39 0 -65.5 28.5t-26.5 71.5q0 31 9 58t25 47.5t37.5 32t46.5 11.5q42 0 67 -27.5t25 -72.5zM353 649l-102 -146h94l158 146h-150z" />
    <glyph glyph-name="ograve" unicode="&#xf2;" horiz-adv-x="563" 
d="M522 248q0 47 -16.5 86t-46.5 67.5t-71.5 44.5t-90.5 16q-54 0 -101.5 -20t-83.5 -54.5t-56.5 -80.5t-20.5 -98q0 -46 17.5 -85.5t48.5 -69t73 -46t90 -16.5q55 0 102 19.5t81.5 54t54.5 81.5t20 101zM383 249q0 -30 -9.5 -57.5t-25.5 -47.5t-37.5 -32t-45.5 -12
q-39 0 -65.5 28.5t-26.5 71.5q0 31 9 58t25 47.5t37.5 32t46.5 11.5q42 0 67 -27.5t25 -72.5zM202 651l102 -146h95l-62 146h-135z" />
    <glyph glyph-name="ocircumflex" unicode="&#xf4;" horiz-adv-x="563" 
d="M522 248q0 47 -16.5 86t-46.5 67.5t-71.5 44.5t-90.5 16q-54 0 -101.5 -20t-83.5 -54.5t-56.5 -80.5t-20.5 -98q0 -46 17.5 -85.5t48.5 -69t73 -46t90 -16.5q55 0 102 19.5t81.5 54t54.5 81.5t20 101zM383 249q0 -30 -9.5 -57.5t-25.5 -47.5t-37.5 -32t-45.5 -12
q-39 0 -65.5 28.5t-26.5 71.5q0 31 9 58t25 47.5t37.5 32t46.5 11.5q42 0 67 -27.5t25 -72.5zM343 590l37 -87h97l-59 147h-131l-145 -147h115z" />
    <glyph glyph-name="odieresis" unicode="&#xf6;" horiz-adv-x="563" 
d="M522 248q0 47 -16.5 86t-46.5 67.5t-71.5 44.5t-90.5 16q-54 0 -101.5 -20t-83.5 -54.5t-56.5 -80.5t-20.5 -98q0 -46 17.5 -85.5t48.5 -69t73 -46t90 -16.5q55 0 102 19.5t81.5 54t54.5 81.5t20 101zM383 249q0 -30 -9.5 -57.5t-25.5 -47.5t-37.5 -32t-45.5 -12
q-39 0 -65.5 28.5t-26.5 71.5q0 31 9 58t25 47.5t37.5 32t46.5 11.5q42 0 67 -27.5t25 -72.5zM152 577q0 -28 19.5 -47.5t46.5 -19.5q28 0 47.5 19.5t19.5 47.5q0 27 -19.5 46.5t-47.5 19.5q-27 0 -46.5 -19.5t-19.5 -46.5zM373 577q0 -28 19.5 -47.5t46.5 -19.5
q28 0 47 19.5t19 47.5q0 27 -19 46.5t-47 19.5q-27 0 -46.5 -19.5t-19.5 -46.5z" />
    <glyph glyph-name="otilde" unicode="&#xf5;" horiz-adv-x="563" 
d="M522 248q0 47 -16.5 86t-46.5 67.5t-71.5 44.5t-90.5 16q-54 0 -101.5 -20t-83.5 -54.5t-56.5 -80.5t-20.5 -98q0 -46 17.5 -85.5t48.5 -69t73 -46t90 -16.5q55 0 102 19.5t81.5 54t54.5 81.5t20 101zM383 249q0 -30 -9.5 -57.5t-25.5 -47.5t-37.5 -32t-45.5 -12
q-39 0 -65.5 28.5t-26.5 71.5q0 31 9 58t25 47.5t37.5 32t46.5 11.5q42 0 67 -27.5t25 -72.5zM222 511q10 40 44 40q4 0 8.5 -0.5t11 -2.5t16.5 -6l27 -11q27 -11 41.5 -15t27.5 -4q38 0 64.5 31t34.5 86h-63q-10 -38 -33 -38q-8 0 -19 3t-34 11q-38 14 -57 19t-34 5
q-76 0 -96 -118h61z" />
    <glyph glyph-name="uacute" unicode="&#xfa;" 
d="M516 454h-133l-42 -296q-62 -67 -119 -67q-38 0 -38 52q0 14 1.5 34.5t5.5 43.5l33 233h-133l-31 -219l-8 -55q-2 -14 -3 -27t-1 -26q0 -64 34 -99.5t96 -35.5q37 0 76 15.5t72 43.5l-7 -51h133zM348 649l-102 -146h94l158 146h-150z" />
    <glyph glyph-name="ugrave" unicode="&#xf9;" 
d="M516 454h-133l-42 -296q-62 -67 -119 -67q-38 0 -38 52q0 14 1.5 34.5t5.5 43.5l33 233h-133l-31 -219l-8 -55q-2 -14 -3 -27t-1 -26q0 -64 34 -99.5t96 -35.5q37 0 76 15.5t72 43.5l-7 -51h133zM197 651l102 -146h95l-62 146h-135z" />
    <glyph glyph-name="ucircumflex" unicode="&#xfb;" 
d="M516 454h-133l-42 -296q-62 -67 -119 -67q-38 0 -38 52q0 14 1.5 34.5t5.5 43.5l33 233h-133l-31 -219l-8 -55q-2 -14 -3 -27t-1 -26q0 -64 34 -99.5t96 -35.5q37 0 76 15.5t72 43.5l-7 -51h133zM338 590l37 -87h97l-59 147h-131l-145 -147h115z" />
    <glyph glyph-name="udieresis" unicode="&#xfc;" 
d="M516 454h-133l-42 -296q-62 -67 -119 -67q-38 0 -38 52q0 14 1.5 34.5t5.5 43.5l33 233h-133l-31 -219l-8 -55q-2 -14 -3 -27t-1 -26q0 -64 34 -99.5t96 -35.5q37 0 76 15.5t72 43.5l-7 -51h133zM147 577q0 -28 19.5 -47.5t46.5 -19.5q28 0 47.5 19.5t19.5 47.5
q0 27 -19.5 46.5t-47.5 19.5q-27 0 -46.5 -19.5t-19.5 -46.5zM368 577q0 -28 19.5 -47.5t46.5 -19.5q28 0 47 19.5t19 47.5q0 27 -19 46.5t-47 19.5q-27 0 -46.5 -19.5t-19.5 -46.5z" />
    <glyph glyph-name="dagger" unicode="&#x2020;" horiz-adv-x="531" 
d="M327 361l28 -12q43 -19 87 -19q37 0 58.5 18.5t21.5 50.5q0 29 -16.5 46t-45.5 17q-26 0 -55.5 -9t-75.5 -32q7 18 12 27l25 58.5t16 43.5t8 35t2 32q0 34 -17.5 54t-46.5 20q-81 0 -81 -133q0 -34 2.5 -67t7.5 -70q-12 8 -29 15.5t-34.5 13t-34.5 9t-30 3.5
q-35 0 -57 -19t-22 -48q0 -28 19 -46.5t48 -18.5q12 0 23 1.5t24.5 5t31.5 9.5t42 15q2 1 5 2t7 3l-6 -21l-14 -49.5t-12 -44l-14.5 -56.5l-21.5 -87l-15 -64l-9 -40q-9 -45 -13.5 -80.5t-4.5 -59.5q0 -43 18.5 -68.5t49.5 -25.5q38 0 62.5 42t32.5 120q3 33 5.5 83.5
t4.5 113.5q1 42 3 135q1 24 1 42v31v29z" />
    <glyph glyph-name="degree" unicode="&#xb0;" horiz-adv-x="396" 
d="M42 572q0 -32 12.5 -60.5t33.5 -49.5t49.5 -33.5t60.5 -12.5t60.5 12.5t49.5 33.5t33.5 49.5t12.5 60.5t-12.5 60.5t-33.5 49.5t-49.5 33.5t-60.5 12.5t-60.5 -12.5t-49.5 -33.5t-33.5 -49.5t-12.5 -60.5zM123 572q0 31 22 53t53 22t52.5 -21.5t21.5 -53.5
q0 -31 -21.5 -52.5t-52.5 -21.5t-53 21.5t-22 52.5z" />
    <glyph glyph-name="cent" unicode="&#xa2;" horiz-adv-x="469" 
d="M463 633h-65l-54 -171h-18q-62 0 -115.5 -19.5t-92.5 -54t-61.5 -81t-22.5 -100.5q0 -78 45 -134t120 -73l-59 -187h66l57 178q42 0 78 5.5t65 16.5l18 134q-32 -18 -60.5 -27t-63.5 -12l73 236q16 -2 27.5 -5.5t31.5 -11.5l18 121q-10 2 -15 3.5t-20 3.5q-5 0 -9 1z
M236 116q-62 27 -62 93q0 54 36.5 91t96.5 45z" />
    <glyph glyph-name="sterling" unicode="&#xa3;" horiz-adv-x="542" 
d="M518 663q-41 28 -99 28q-68 0 -124 -50q-16 -15 -29 -31.5t-23 -35.5q-14 -26 -28 -59.5t-23 -62.5l-25 -85h-91l-17 -106h76l-76 -256v-14h9q35 13 64.5 18t66.5 5q23 0 54.5 -2.5t58.5 -7.5l61 -10q22 -3 45 -3q27 0 40.5 2.5t33.5 11.5l26 138q-25 -14 -47.5 -19
t-54.5 -5q-12 0 -23 1t-21 3l-41 8q-12 2 -22 3t-20 1q-25 0 -53 -5l39 131h99l18 106h-85l20 66q8 29 20 57t23 44t28.5 25t36.5 9q17 0 32 -6t38 -22z" />
    <glyph glyph-name="section" unicode="&#xa7;" 
d="M525 534v9q0 21 -8 47q-17 53 -57.5 77t-112.5 24q-48 0 -86.5 -11.5t-66 -32.5t-42.5 -50.5t-15 -65.5q0 -26 8.5 -50.5t29.5 -56.5q-132 -64 -132 -173q0 -42 17 -75q7 -15 16.5 -28t24 -27.5t35 -31t49.5 -37.5l55 -41.5t32.5 -28.5t15 -22t3.5 -22q0 -24 -19.5 -38
t-52.5 -14q-73 0 -80 74l-114 -31q2 -26 4.5 -37.5t7.5 -28.5q34 -93 181 -93q46 0 84.5 12t66 34t42.5 52.5t15 68.5q0 27 -9.5 52t-31.5 57l22.5 14t16 10.5l12.5 9l14 10.5q58 50 58 131q0 30 -7.5 55.5t-25 50t-47 49.5t-72.5 54q-26 17 -42.5 30t-27 24.5t-14.5 21.5
t-4 21q0 23 18.5 37.5t47.5 14.5q33 0 51.5 -17t19.5 -49zM284 323q30 -22 49 -37.5t29.5 -28t14.5 -24.5t4 -27q0 -53 -61 -92l-45 34l-37 27q-37 28 -51 47t-14 39q0 55 69 93z" />
    <glyph glyph-name="bullet" unicode="&#x2022;" horiz-adv-x="354" 
d="M333 341q0 30 -11.5 56t-31 45.5t-46 31t-56.5 11.5t-56 -11.5t-45.5 -31t-31 -45.5t-11.5 -56t11.5 -56.5t31 -46t45.5 -30.5t56 -11t56.5 11t46 30.5t31 46t11.5 56.5z" />
    <glyph glyph-name="paragraph" unicode="&#xb6;" 
d="M310 -197v785h70v-785h116v785h55v128h-291q-42 0 -68.5 -1t-45.5 -5t-34 -11.5t-33 -19.5q-38 -24 -59 -68t-21 -97q0 -89 50 -141t142 -59v-511h119z" />
    <glyph glyph-name="uni00DF" unicode="&#xdf;" 
d="M27 0h132l62 430q7 50 13.5 78t14.5 45q8 19 26 30.5t39 11.5q31 0 51 -21.5t20 -54.5q0 -39 -24 -64t-61 -25h-7l-14 -99h9q32 0 53.5 -26.5t21.5 -68.5q0 -61 -23.5 -96.5t-62.5 -35.5q-8 0 -13 1t-17 3l-15 -108q20 -5 30.5 -6.5t26.5 -1.5q46 0 85.5 16.5t68 46.5
t44.5 70.5t16 88.5q0 82 -47 127q-10 11 -19 17t-28 15q104 37 104 146q0 79 -53 125.5t-143 46.5q-85 0 -142 -45q-36 -30 -52 -68q-6 -15 -11 -29t-9 -33t-8 -45.5l-10 -65.5z" />
    <glyph glyph-name="registered" unicode="&#xae;" horiz-adv-x="740" 
d="M546 156l-46 80l-26 43t-19 26t-18 14.5t-22 9.5v2q51 6 79 36t28 75q0 54 -34.5 82.5t-98.5 28.5h-47h-141v-397h80v163h15q20 0 35 -4.5t28.5 -15.5t26.5 -30t28 -48l33 -65h99zM281 382v109h33h41q82 0 82 -54q0 -29 -20 -41.5t-71 -13.5h-32h-33zM744 356
q0 78 -29.5 146t-80.5 118.5t-119 80t-145 29.5q-78 0 -146 -29.5t-118.5 -80t-80 -118.5t-29.5 -146q0 -77 29.5 -145t80 -119t118.5 -80.5t146 -29.5q77 0 145 29.5t119 80.5t80.5 119t29.5 145zM671 356q0 -62 -23.5 -117t-64.5 -95.5t-95.5 -64t-117.5 -23.5
q-62 0 -117 23.5t-96 64.5t-64.5 95.5t-23.5 116.5t23.5 117t64.5 96t96 64.5t117 23.5q63 0 117.5 -23.5t95.5 -64.5t64.5 -96t23.5 -117z" />
    <glyph glyph-name="copyright" unicode="&#xa9;" horiz-adv-x="740" 
d="M461 301q-26 -84 -92 -84q-46 0 -71.5 36.5t-25.5 102.5t26.5 102t74.5 36q62 0 87 -68l79 19q-23 61 -62 90t-102 29q-43 0 -78 -15t-59.5 -42t-38 -65.5t-13.5 -86.5q0 -96 50.5 -151.5t138.5 -55.5q61 0 103 32t61 94zM744 356q0 78 -29.5 146t-80.5 118.5t-119 80
t-145 29.5q-78 0 -146 -29.5t-118.5 -80t-80 -118.5t-29.5 -146q0 -77 29.5 -145t80 -119t118.5 -80.5t146 -29.5q77 0 145 29.5t119 80.5t80.5 119t29.5 145zM670 356q0 -62 -23.5 -117t-64 -95.5t-95.5 -64t-117 -23.5t-117 23.5t-96 64.5t-64.5 95.5t-23.5 116.5
t23.5 117t64.5 96t96 64.5t117 23.5t117 -23.5t95.5 -64.5t64 -96t23.5 -117z" />
    <glyph glyph-name="trademark" unicode="&#x2122;" horiz-adv-x="1000" 
d="M229 316h81v330h120v70h-324v-70h123v-330zM478 316h77v319h2l84 -319h73l85 319h2v-319h77v400h-127l-72 -276h-2l-72 276h-127v-400z" />
    <glyph glyph-name="acute" unicode="&#xb4;" horiz-adv-x="333" 
d="M238 649l-102 -146h94l158 146h-150z" />
    <glyph glyph-name="dieresis" unicode="&#xa8;" horiz-adv-x="333" 
d="M37 577q0 -28 19.5 -47.5t46.5 -19.5q28 0 47.5 19.5t19.5 47.5q0 27 -19.5 46.5t-47.5 19.5q-27 0 -46.5 -19.5t-19.5 -46.5zM258 577q0 -28 19.5 -47.5t46.5 -19.5q28 0 47 19.5t19 47.5q0 27 -19 46.5t-47 19.5q-27 0 -46.5 -19.5t-19.5 -46.5z" />
    <glyph glyph-name="notequal" unicode="&#x2260;" horiz-adv-x="549" 
d="M402 549l-91 -164h-296v-55h265l-77 -139h-188v-55h157l-74 -133l49 -28l90 161h303v55h-273l78 139h195v55h-165l76 136z" />
    <glyph glyph-name="AE" unicode="&#xc6;" horiz-adv-x="990" 
d="M974 682h-601l-438 -682h167l108 169h239l-24 -169h530l19 114h-387l26 180h273l16 114h-273l23 160h309zM507 581l-44 -311h-189l198 311h35z" />
    <glyph glyph-name="Oslash" unicode="&#xd8;" horiz-adv-x="833" 
d="M771 682l-68 27l-54 -62q-49 24 -92 34t-98 10q-86 0 -159 -29t-126 -80t-83.5 -121t-30.5 -152q0 -50 12.5 -95t36.5 -80q9 -14 16 -22.5t22 -23.5l-86 -97l47 -44l90 100q85 -56 203 -56q87 0 159.5 28.5t125 79t82 121t29.5 154.5q0 73 -24 132.5t-70 101.5zM604 498
q44 -50 44 -130q0 -53 -19 -98.5t-52 -79.5t-77 -53.5t-95 -19.5q-33 0 -59.5 7.5t-54.5 25.5zM244 197q-35 52 -35 121q0 51 19 96t52 79t76.5 53.5t92.5 19.5q32 0 56.5 -6t47.5 -19z" />
    <glyph glyph-name="infinity" unicode="&#x221e;" horiz-adv-x="713" 
d="M357 297l-39.5 35t-30.5 24.5t-27.5 18.5t-31.5 16q-36 16 -71 13t-63 -20t-46.5 -44.5t-21.5 -60.5q-3 -28 6.5 -56.5t29.5 -51.5t48 -36t63 -10q39 4 69 18t52.5 31t38 33t24.5 24q9 -8 24.5 -24t38 -33t52.5 -31t69 -18q34 -3 62.5 10t48.5 36t29.5 51.5t6.5 56.5
q-3 33 -21.5 60.5t-46.5 44.5t-63 20t-71 -13q-18 -8 -31.5 -16t-27.5 -18.5t-30.5 -24.5zM324 264l-37.5 -36t-29.5 -25t-29 -16.5t-36 -11.5t-41 -0.5t-36.5 15.5t-27 29t-11.5 40q0 16 8 36t24 35t40.5 20.5t56.5 -5.5q13 -5 25 -11t26 -16t30.5 -23zM390 264l37.5 31
t30.5 23t26 16t25 11q32 11 56.5 5.5t40.5 -20.5t24 -35t8 -36q-1 -22 -11.5 -40t-27 -29t-36.5 -15.5t-41 0.5t-36 11.5t-29 16.5t-29.5 25z" />
    <glyph glyph-name="plusminus" unicode="&#xb1;" horiz-adv-x="668" 
d="M59 484v-121h214v-214h121v214h214v121h-214v214h-121v-214h-214zM59 89v-121h549v121h-549z" />
    <glyph glyph-name="lessequal" unicode="&#x2264;" horiz-adv-x="549" 
d="M29 0h497v55h-497v-55zM29 347l497 -230v62l-433 199l433 199v62l-497 -230v-62z" />
    <glyph glyph-name="greaterequal" unicode="&#x2265;" horiz-adv-x="549" 
d="M526 55h-497v-55h497v55zM526 409l-497 230v-62l433 -199l-433 -199v-62l497 230v62z" />
    <glyph glyph-name="yen" unicode="&#xa5;" 
d="M316 0l29 136h180l19 94h-180l13 62h180l20 94h-137l227 330h-160l-62 -95q-12 -18 -27.5 -44l-31.5 -54.5l-31 -56t-26 -49.5l-4 -7l-2 10q-11 59 -20.5 102t-15.5 67l-35 127h-142l99 -330h-132l-20 -94h182l-13 -62h-182l-20 -94h182l-28 -136h138z" />
    <glyph glyph-name="uni00B5" unicode="&#xb5;" horiz-adv-x="615" 
d="M143 454l-153 -629h133l55 223q22 -34 43.5 -46.5t58.5 -12.5q16 0 29.5 2.5t25.5 8.5t25 16t30 26l2 -2l-11 -40h120l110 454h-133l-58 -238q-6 -26 -14 -48t-16 -36q-14 -23 -39 -37t-55 -14q-39 0 -62.5 21.5t-23.5 56.5q0 25 8 57l8 28l50 210h-133z" />
    <glyph glyph-name="uni00B5" unicode="&#x3bc;" horiz-adv-x="615" 
d="M143 454l-153 -629h133l55 223q22 -34 43.5 -46.5t58.5 -12.5q16 0 29.5 2.5t25.5 8.5t25 16t30 26l2 -2l-11 -40h120l110 454h-133l-58 -238q-6 -26 -14 -48t-16 -36q-14 -23 -39 -37t-55 -14q-39 0 -62.5 21.5t-23.5 56.5q0 25 8 57l8 28l50 210h-133z" />
    <glyph glyph-name="partialdiff" unicode="&#x2202;" horiz-adv-x="494" 
d="M104 667q22 9 36 16t27.5 11t30 5t43.5 -1q23 -2 42 -12t33 -23.5t23 -28.5t14 -25q5 -12 10.5 -31.5t10.5 -41.5t8 -45t3 -41q-1 -29 -3 -56.5t-8 -59.5l-43.5 32t-34.5 20.5t-33 11t-39 4.5q-48 2 -82 -18.5t-60 -52.5q-9 -11 -19.5 -28.5t-19.5 -40t-14 -49.5t-2 -57
q5 -57 30 -91t54 -54q19 -13 42 -21.5t48.5 -10t52 4t52.5 19.5q42 23 63 53.5t41 74.5q15 32 25 71.5t16 76.5t8.5 68t2.5 46q0 9 -1 32.5t-6 53.5t-14.5 63.5t-26.5 63.5q-36 63 -79 93t-89 41q-25 6 -51 5.5t-50 -4.5t-44.5 -11t-35.5 -13zM366 299q-6 -49 -16 -96
t-28 -92q-15 -35 -34 -58t-47 -35q-22 -10 -42 -9.5t-41 14.5q-17 11 -26 28t-13.5 35t-5.5 34.5t-1 27.5q0 38 10 78.5t40 82.5q39 52 96 54q23 0 39.5 -6.5t29.5 -16.5t22 -21z" />
    <glyph glyph-name="summation" unicode="&#x2211;" horiz-adv-x="713" 
d="M617 745h-497q-26 0 -52 2.5t-52 4.5l347 -454l-349 -398q15 0 29 1.5t29 1.5h503q19 0 38 -4t39 -7l8.5 63.5t8 48.5t11 48.5l15.5 63.5h-23q-13 -33 -25 -55t-26.5 -35t-34.5 -18t-49 -5h-371l294 339l-273 358h263q48 0 75 -8.5t42 -24t21.5 -36.5l14.5 -45h20z" />
    <glyph glyph-name="product" unicode="&#x220f;" horiz-adv-x="823" 
d="M706 629q0 35 10.5 55t25.5 29.5t31 12t27 2.5v23h-773v-23q10 0 26.5 -2.5t31.5 -12t26 -29.5t11 -55v-626q0 -26 -6.5 -42t-19.5 -24.5t-31 -11.5t-40 -3v-23h307v23q-22 0 -40 3t-30.5 11.5t-19.5 24.5t-7 42v693h358v-693q0 -26 -7 -42t-19.5 -24.5t-30 -11.5
t-39.5 -3v-23h306v23q-22 0 -40 3t-30.5 11.5t-19.5 24.5t-7 42v626z" />
    <glyph glyph-name="pi" unicode="&#x3c0;" horiz-adv-x="549" 
d="M335 401l-17 -161q-2 -20 -3 -43.5t-0.5 -47t3 -44.5t7.5 -36q9 -27 23 -46t26 -28q20 -14 44.5 -10.5t39.5 12.5q10 6 22.5 18t23 30.5t18 45t8.5 60.5h-21q-1 -6 -2 -13.5t-3 -16t-7 -17t-14 -15.5q-12 -9 -23 -11.5t-21 -0.5t-17.5 6.5t-12.5 9.5q-11 11 -18 31.5
t-7 41.5q0 29 1.5 88t10.5 147h126v86h-373q-35 0 -58 -17t-36 -35q-23 -32 -32 -59t-13 -38h17l21 31q8 12 26.5 22t39.5 10h47l-29 -229q-4 -32 -21 -51t-29 -35l-19 -26.5t-4 -39.5q4 -17 23 -30t39 -8q24 6 36.5 22.5t18.5 45.5q9 41 21.5 125.5t24.5 225.5h113z" />
    <glyph glyph-name="integral" unicode="&#x222b;" horiz-adv-x="274" 
d="M190 488q0 51 -3.5 103.5t-7 98.5t-6.5 80t-2 48t12 21t28 -11q7 -8 17.5 -10.5t20.5 -0.5t19 7t14 11q7 9 8.5 19t-1.5 19.5t-8.5 17t-11.5 11.5t-15 7.5t-19.5 5.5t-22 0.5t-21.5 -8.5q-16 -10 -28 -30t-17 -35q-8 -27 -13 -56t-8 -66t-4 -82.5t-1 -105.5v-144
q0 -62 0.5 -108.5t1.5 -83t2 -65.5l2 -57q1 -23 -1 -46t-7 -39.5t-13 -22.5t-19 6q-14 14 -27 21.5t-30 -1.5q-18 -9 -24 -23.5t0 -31.5q3 -8 12 -20.5t21 -18.5t26.5 -5t27 5.5t22 10t12.5 9.5q6 8 13.5 20t15.5 41q10 35 21.5 105t12.5 188z" />
    <glyph glyph-name="ordfeminine" unicode="&#xaa;" horiz-adv-x="365" 
d="M392 681q-30 6 -52 8t-51 2q-101 0 -158.5 -44t-57.5 -122q0 -52 29.5 -84.5t76.5 -32.5q41 0 76 22l-2 -18h95zM265 494q-17 -11 -30.5 -15t-27.5 -4q-17 0 -26.5 12.5t-9.5 34.5q0 46 27 71t78 25h8z" />
    <glyph glyph-name="ordmasculine" unicode="&#xba;" horiz-adv-x="375" 
d="M394 562q0 28 -11 52t-31 41t-47 26.5t-60 9.5q-36 0 -67.5 -12t-55.5 -32.5t-37.5 -48.5t-13.5 -59q0 -28 12 -52t32.5 -41.5t48.5 -27.5t60 -10q36 0 67 12t54 32.5t36 48.5t13 61zM294 563q0 -35 -20.5 -60t-49.5 -25q-23 0 -38 16t-15 39q0 35 20.5 60t49.5 25
q24 0 38.5 -14.5t14.5 -40.5z" />
    <glyph glyph-name="Omega" unicode="&#x3a9;" horiz-adv-x="768" 
d="M313 152l-26.5 11t-30 17.5t-31 31.5t-30.5 54q-12 28 -19 72t-4 92t19 94.5t49 79.5q31 31 69 41.5t76 10.5t76 -10.5t69 -41.5q33 -33 49 -79.5t19 -94.5t-4 -92t-19 -72q-15 -34 -30.5 -54t-31 -31.5t-30 -17.5l-26.5 -11l-16 -152h295v162h-15q-5 -18 -9.5 -30
t-12 -19t-18 -9.5t-26.5 -2.5h-158l2 28q58 17 97 40.5t70 68.5q26 39 38 79t12 79t-9 74t-25 63q-15 27 -31 45.5t-31 31t-28.5 20.5l-23.5 14q-35 20 -82 32t-101 12t-101 -12t-82 -32l-23.5 -14t-28.5 -20.5t-31 -31t-31 -45.5q-16 -28 -25 -63t-9 -74t12 -79t38 -79
q31 -45 70 -68.5t97 -40.5l2 -28h-158q-16 0 -26.5 2.5t-18 9.5t-12.5 19t-9 30h-15v-162h295z" />
    <glyph glyph-name="Omega" unicode="&#x2126;" horiz-adv-x="768" 
d="M313 152l-26.5 11t-30 17.5t-31 31.5t-30.5 54q-12 28 -19 72t-4 92t19 94.5t49 79.5q31 31 69 41.5t76 10.5t76 -10.5t69 -41.5q33 -33 49 -79.5t19 -94.5t-4 -92t-19 -72q-15 -34 -30.5 -54t-31 -31.5t-30 -17.5l-26.5 -11l-16 -152h295v162h-15q-5 -18 -9.5 -30
t-12 -19t-18 -9.5t-26.5 -2.5h-158l2 28q58 17 97 40.5t70 68.5q26 39 38 79t12 79t-9 74t-25 63q-15 27 -31 45.5t-31 31t-28.5 20.5l-23.5 14q-35 20 -82 32t-101 12t-101 -12t-82 -32l-23.5 -14t-28.5 -20.5t-31 -31t-31 -45.5q-16 -28 -25 -63t-9 -74t12 -79t38 -79
q31 -45 70 -68.5t97 -40.5l2 -28h-158q-16 0 -26.5 2.5t-18 9.5t-12.5 19t-9 30h-15v-162h295z" />
    <glyph glyph-name="ae" unicode="&#xe6;" horiz-adv-x="688" 
d="M650 207q5 23 6.5 36.5t1.5 30.5q0 41 -13.5 75.5t-38 59.5t-58 39t-73.5 14q-36 0 -66.5 -10t-60.5 -32q-45 42 -116 42q-36 0 -73.5 -11t-70.5 -31l-17 -117l7 4l25 15q26 15 54.5 24.5t48.5 9.5q21 0 33.5 -10t12.5 -27v-10t-2 -11l-3 -21l-1 -5q-125 -19 -188.5 -62
t-63.5 -107q0 -24 9.5 -44.5t26.5 -35t40.5 -23t51.5 -8.5q43 0 80 16t79 52q15 -15 24 -22t23 -15q53 -31 123 -31q17 0 38 2.5t42.5 7.5t41.5 11t37 14l16 115q-84 -48 -151 -48q-48 0 -77 25.5t-29 66.5v10t1 11h280zM383 284q12 39 34.5 60.5t52.5 21.5q26 0 41 -16.5
t15 -45.5q0 -3 -0.5 -8t-1.5 -12h-141zM222 101q-35 -19 -58 -19q-16 0 -26.5 10.5t-10.5 25.5q0 26 24 41.5t83 27.5z" />
    <glyph glyph-name="oslash" unicode="&#xf8;" horiz-adv-x="563" 
d="M518 474l-38 31l-63 -75q-29 17 -57.5 24.5t-60.5 7.5q-54 0 -102 -20t-84 -54.5t-57 -81t-21 -98.5q0 -44 15 -79t50 -73l-64 -73l37 -33l66 76q56 -34 126 -34q54 0 100.5 19.5t81 53.5t54.5 80t20 99q0 97 -64 158zM372 301q11 -18 11 -51q0 -32 -9 -59t-25 -47.5
t-37.5 -32t-46.5 -11.5q-16 0 -27.5 4t-22.5 12zM182 154q-5 16 -7 25.5t-2 21.5q0 31 9 58.5t25 47.5t37.5 32t45.5 12q13 0 23 -2.5t25 -9.5z" />
    <glyph glyph-name="questiondown" unicode="&#xbf;" horiz-adv-x="323" 
d="M141 246q-5 -20 -11 -35.5t-16 -31t-25 -31.5t-37 -36q-33 -32 -54 -57t-33 -58.5t-12 -65.5q0 -34 12.5 -63.5t35 -51t52 -34t64.5 -12.5q37 0 70.5 11t73.5 37l21 143q-45 -31 -77 -45t-58 -14q-25 0 -41.5 13.5t-16.5 34.5q0 28 31 64l38 42q57 64 75 117q7 18 9.5 32
t4.5 41h-106zM122 390q0 -34 23 -58t56 -24t56.5 24t23.5 57t-23 56t-56 23t-56.5 -23t-23.5 -55z" />
    <glyph glyph-name="exclamdown" unicode="&#xa1;" horiz-adv-x="260" 
d="M101 247l-62 -247q-13 -52 -20.5 -95t-7.5 -63q0 -34 17 -53t47 -19q44 0 64.5 39t24.5 127l2 44l15 267h-80zM78 391q0 -32 23.5 -55.5t55.5 -23.5q33 0 56.5 23t23.5 56q0 16 -6.5 31t-17 26t-24.5 17.5t-30 6.5q-34 0 -57.5 -24t-23.5 -57z" />
    <glyph glyph-name="logicalnot" unicode="&#xac;" horiz-adv-x="668" 
d="M59 516v-121h428v-238h121v359h-549z" />
    <glyph glyph-name="radical" unicode="&#x221a;" horiz-adv-x="549" 
d="M26 417l96 47l243 -502l150 950l-35 5l-127 -798l-197 403l-146 -72z" />
    <glyph glyph-name="uni0192" unicode="&#x192;" 
d="M135 415h98l-73 -426q-5 -27 -9 -43t-10.5 -25t-16 -12t-24.5 -3t-32.5 2t-42.5 7l-7 2l-28 -108q27 -8 65 -13.5t72 -5.5q76 0 113 34q19 17 29.5 42t18.5 72l84 477h100l18 103h-101l5 28q4 19 8.5 32t11.5 20t16.5 10t23.5 3q32 0 77 -13l27 110q-31 10 -65.5 15
t-65.5 5q-26 0 -47 -3.5t-41 -11.5q-18 -7 -30 -16t-20.5 -25t-15.5 -42.5t-14 -67.5l-8 -44h-98z" />
    <glyph glyph-name="approxequal" unicode="&#x2248;" horiz-adv-x="549" 
d="M490 394q-9 -14 -24 -25.5t-27 -16.5q-26 -11 -45 -12.5t-34 3.5l-151 42q-55 15 -105 -2t-90 -70l43 -27q5 6 14.5 19t26 24t41 15.5t60.5 -5.5l150 -43q22 -6 47 -4.5t49 10.5t45.5 26t36.5 42zM490 243q-9 -14 -24 -25.5t-27 -16.5q-26 -11 -45 -12.5t-34 3.5l-151 42
q-55 15 -105 -2t-90 -70l43 -27q5 6 14.5 19t26 24t41 15.5t60.5 -5.5l150 -43q22 -6 47 -4.5t49 10.5t45.5 26t36.5 42z" />
    <glyph glyph-name="Delta" unicode="&#x394;" horiz-adv-x="612" 
d="M326 688l-320 -688h602zM290 517l194 -468h-412z" />
    <glyph glyph-name="Delta" unicode="&#x2206;" horiz-adv-x="612" 
d="M326 688l-320 -688h602zM290 517l194 -468h-412z" />
    <glyph glyph-name="ellipsis" unicode="&#x2026;" horiz-adv-x="1000" 
d="M920 78q0 18 -7 33.5t-19 27t-28 18.5t-34 7t-33.5 -7t-27 -18.5t-18.5 -27t-7 -33.5t7 -33.5t19 -27t28 -18.5t34 -7q35 0 60.5 25.5t25.5 60.5zM587 78q0 18 -7 33.5t-18.5 27t-27.5 18.5t-34 7t-34 -7t-27.5 -18.5t-18.5 -27t-7 -33.5t7 -33.5t19 -27t28 -18.5t34 -7
q35 0 60.5 25.5t25.5 60.5zM254 78q0 18 -7 33.5t-18.5 27t-27.5 18.5t-34 7t-34 -7t-27.5 -18.5t-18.5 -27t-7 -33.5t7 -33.5t19 -27t28 -18.5t34 -7t33.5 7t27 19t18.5 27.5t7 32.5z" />
    <glyph glyph-name="uni00A0" unicode="&#xa0;" horiz-adv-x="250" 
 />
    <glyph glyph-name="Agrave" unicode="&#xc0;" horiz-adv-x="625" 
d="M461 691h-154l-334 -691h160l66 149h212l21 -149h149zM359 519h2l38 -273h-158zM268 875l102 -146h95l-62 146h-135z" />
    <glyph glyph-name="Atilde" unicode="&#xc3;" horiz-adv-x="625" 
d="M461 691h-154l-334 -691h160l66 149h212l21 -149h149zM359 519h2l38 -273h-158zM288 735q10 40 44 40q4 0 8.5 -0.5t11 -2.5t16.5 -6l27 -11q27 -11 41.5 -15t27.5 -4q38 0 64.5 31t34.5 86h-63q-10 -38 -33 -38q-8 0 -19 3t-34 11q-38 14 -57 19t-34 5q-76 0 -96 -118
h61z" />
    <glyph glyph-name="Otilde" unicode="&#xd5;" horiz-adv-x="833" 
d="M797 380q0 69 -24.5 126t-69 98.5t-106 64t-136.5 22.5q-87 0 -160.5 -29t-127 -80t-83.5 -121t-30 -153q0 -71 25 -129.5t70.5 -100t109 -64.5t140.5 -23q164 0 270 97q28 26 51 59t38.5 71t24 79t8.5 83zM647 369q0 -53 -19 -99.5t-51.5 -80.5t-76.5 -53.5t-95 -19.5
q-43 0 -79 14.5t-61.5 40.5t-40 62t-14.5 80q0 52 19 97.5t51.5 79.5t76.5 54t94 20q42 0 78 -14.5t62.5 -40.5t41 -62t14.5 -78zM392 735q10 40 44 40q4 0 8.5 -0.5t11 -2.5t16.5 -6l27 -11q27 -11 41.5 -15t27.5 -4q38 0 64.5 31t34.5 86h-63q-10 -38 -33 -38q-8 0 -19 3
t-34 11q-38 14 -57 19t-34 5q-76 0 -96 -118h61z" />
    <glyph glyph-name="OE" unicode="&#x152;" horiz-adv-x="1052" 
d="M1039 682h-537h-53t-32 -1q-48 -2 -98 -17t-91 -39q-83 -51 -130.5 -137t-47.5 -186q0 -67 24 -122.5t66.5 -95.5t102 -62t131.5 -22h95h554l16 114h-363l26 180h259l16 113h-259l23 161h282zM595 568l-64 -454h-77q-45 0 -74.5 1.5t-50.5 6t-36 12t-30 20.5
q-64 52 -64 155q0 72 30.5 130t87.5 91q15 9 30 15t32 10t36.5 6.5t44.5 4.5q16 1 30 1.5t28 0.5h77z" />
    <glyph glyph-name="oe" unicode="&#x153;" horiz-adv-x="792" 
d="M754 209q5 22 6.5 34t1.5 29q0 42 -13.5 76.5t-38.5 60t-59 39.5t-74 14q-41 0 -81.5 -15t-75.5 -43q-35 32 -67 45t-76 13q-50 0 -93.5 -19t-75.5 -53t-50.5 -79.5t-18.5 -98.5q0 -47 15.5 -87t43.5 -69.5t65 -46.5t81 -17q41 0 74.5 13t73.5 43q36 -29 76 -42.5
t90 -13.5q36 0 77 9t76 26l24 116q-52 -26 -88 -36t-74 -10q-50 0 -77.5 22t-27.5 63v12t2 15h284zM483 285q14 43 35 62t53 19q26 0 43 -16t17 -42q0 -5 -0.5 -10t-1.5 -13h-146zM341 268q0 -36 -7.5 -67t-20 -53.5t-30.5 -35t-39 -12.5q-31 0 -48.5 25t-17.5 68
q0 34 7.5 63t20 51t30 34.5t37.5 12.5q31 0 49.5 -24t18.5 -62z" />
    <glyph glyph-name="endash" unicode="&#x2013;" horiz-adv-x="500" 
d="M508 297h-516v-132h516v132z" />
    <glyph glyph-name="emdash" unicode="&#x2014;" horiz-adv-x="1000" 
d="M1007 297h-1014v-132h1014v132z" />
    <glyph glyph-name="quotedblleft" unicode="&#x201c;" horiz-adv-x="490" 
d="M305 689q-39 -2 -68 -8t-54 -18q-50 -24 -80.5 -67t-30.5 -90q0 -22 7.5 -41.5t20.5 -33.5t31 -22.5t38 -8.5q35 0 59.5 23t24.5 57q0 49 -49 76q23 59 87 72zM533 689q-74 -3 -122 -26q-50 -24 -80 -67t-30 -90q0 -45 27.5 -75.5t68.5 -30.5q35 0 59.5 23t24.5 57
q0 49 -49 76q22 58 87 72z" />
    <glyph glyph-name="quotedblright" unicode="&#x201d;" horiz-adv-x="490" 
d="M276 403q38 2 67 8t54 18q51 24 81 67t30 90q0 22 -7.5 41t-20.5 33.5t-30.5 22.5t-37.5 8q-35 0 -59.5 -22.5t-24.5 -56.5q0 -48 49 -75q-23 -58 -87 -73zM49 403q38 2 67.5 8t54.5 18q50 24 80 67t30 90q0 45 -27.5 75t-68.5 30q-35 0 -59.5 -22.5t-24.5 -56.5
q0 -48 49 -75q-22 -58 -87 -73z" />
    <glyph glyph-name="quoteleft" unicode="&#x2018;" horiz-adv-x="260" 
d="M300 689q-39 -2 -68 -8t-54 -18q-50 -24 -80.5 -67t-30.5 -90q0 -22 7.5 -41.5t20.5 -33.5t30.5 -22.5t37.5 -8.5q36 0 60 23t24 57q0 50 -48 76q23 59 87 72z" />
    <glyph glyph-name="quoteright" unicode="&#x2019;" horiz-adv-x="260" 
d="M49 400q74 4 121 27q25 12 45.5 29t35 38t22.5 44t8 46q0 22 -7.5 42t-20.5 34t-30.5 22.5t-37.5 8.5q-35 0 -59.5 -23t-24.5 -58q0 -49 49 -76q-23 -59 -87 -72z" />
    <glyph glyph-name="divide" unicode="&#xf7;" horiz-adv-x="668" 
d="M261 539q0 -30 21 -51t50 -21t50 21t21 50t-21 50t-50 21t-50 -20.5t-21 -49.5zM261 130q0 -29 21 -49.5t51 -20.5t51 21t21 50q0 30 -21 51t-51 21t-51 -21.5t-21 -51.5zM59 390v-114h549v114h-549z" />
    <glyph glyph-name="ydieresis" unicode="&#xff;" horiz-adv-x="490" 
d="M510 454h-141l-120 -248l-90 248h-134l145 -412l-132 -272h141zM116 577q0 -28 19.5 -47.5t46.5 -19.5q28 0 47.5 19.5t19.5 47.5q0 27 -19.5 46.5t-47.5 19.5q-27 0 -46.5 -19.5t-19.5 -46.5zM337 577q0 -28 19.5 -47.5t46.5 -19.5q28 0 47 19.5t19 47.5q0 27 -19 46.5
t-47 19.5q-27 0 -46.5 -19.5t-19.5 -46.5z" />
    <glyph glyph-name="Ydieresis" unicode="&#x178;" horiz-adv-x="563" 
d="M618 682h-155l-158 -263l-88 263h-144l144 -396l-41 -286h145l40 286zM187 801q0 -28 19.5 -47.5t46.5 -19.5q28 0 47.5 19.5t19.5 47.5q0 27 -19.5 46.5t-47.5 19.5q-27 0 -46.5 -19.5t-19.5 -46.5zM408 801q0 -28 19.5 -47.5t46.5 -19.5q28 0 47 19.5t19 47.5
q0 27 -19 46.5t-47 19.5q-27 0 -46.5 -19.5t-19.5 -46.5z" />
    <glyph glyph-name="uni2044" unicode="&#x2044;" horiz-adv-x="740" 
d="M740 666q-53 14 -98 19.5t-101 5.5q-110 0 -200.5 -28.5t-155.5 -80t-101 -124t-36 -159.5q0 -139 105 -226q50 -41 109 -59q38 -11 85.5 -17t99.5 -6q48 0 99.5 5t99.5 15l50 348h-272l-15 -108h125l-17 -121q-32 -7 -50 -9t-43 -2q-51 0 -93 13.5t-71.5 39t-45.5 60.5
t-16 79q0 56 25.5 103t70.5 81t107.5 53t137.5 19q23 0 44 -1.5t42.5 -4.5t45 -8.5l51.5 -12.5zM241 867q9 -69 45 -105t96 -36q57 0 101 37.5t63 103.5h-64q-38 -71 -96 -71q-31 0 -48.5 16.5t-28.5 54.5h-68z" />
    <glyph glyph-name="uni2044" unicode="&#x2215;" horiz-adv-x="740" 
d="M740 666q-53 14 -98 19.5t-101 5.5q-110 0 -200.5 -28.5t-155.5 -80t-101 -124t-36 -159.5q0 -139 105 -226q50 -41 109 -59q38 -11 85.5 -17t99.5 -6q48 0 99.5 5t99.5 15l50 348h-272l-15 -108h125l-17 -121q-32 -7 -50 -9t-43 -2q-51 0 -93 13.5t-71.5 39t-45.5 60.5
t-16 79q0 56 25.5 103t70.5 81t107.5 53t137.5 19q23 0 44 -1.5t42.5 -4.5t45 -8.5l51.5 -12.5zM241 867q9 -69 45 -105t96 -36q57 0 101 37.5t63 103.5h-64q-38 -71 -96 -71q-31 0 -48.5 16.5t-28.5 54.5h-68z" />
    <glyph glyph-name="currency" unicode="&#xa4;" horiz-adv-x="490" 
d="M506 454h-198q-23 0 -40 -0.5t-27 -0.5q-37 0 -73 -11q-52 -16 -84.5 -59.5t-32.5 -96.5q0 -86 79 -133l-8 -2l-19 -6q-29 -8 -47 -29.5t-18 -46.5q0 -26 17 -48.5t46 -36.5q-112 -34 -112 -104q0 -53 55 -81.5t158 -28.5q100 0 157 24q35 16 58 49t23 71q0 31 -15.5 60
t-41.5 46q-12 8 -26 14t-34 11t-49 10.5t-72 12.5q-36 6 -36 25q0 14 14 18.5t58 4.5q34 1 51.5 3t37.5 10q51 20 80.5 61.5t29.5 94.5q0 21 -3 35t-13 37h72zM309 299q0 -45 -19 -70.5t-53 -25.5q-26 0 -42.5 17.5t-16.5 46.5q0 46 18.5 71.5t52.5 25.5q27 0 43.5 -18
t16.5 -47zM190 -49q9 -2 14 -3.5t18 -4.5q28 -5 45.5 -9.5t27.5 -9.5t14 -11t4 -15q0 -38 -106 -38q-100 0 -100 42q0 18 19 29t64 20zM95 631q9 -69 45 -105t96 -36q57 0 101 37.5t63 103.5h-64q-38 -71 -96 -71q-31 0 -48.5 16.5t-28.5 54.5h-68z" />
    <glyph glyph-name="guilsinglleft" unicode="&#x2039;" horiz-adv-x="302" 
d="M287 682h-145l-99 -682h147zM158 781q0 -28 19.5 -47t47.5 -19q27 0 46.5 19t19.5 47q0 27 -19.5 46.5t-46.5 19.5q-28 0 -47.5 -19.5t-19.5 -46.5z" />
    <glyph glyph-name="guilsinglright" unicode="&#x203a;" horiz-adv-x="260" 
d="M227 454h-134l-64 -454h134z" />
    <glyph glyph-name="fi" unicode="&#xfb01;" horiz-adv-x="521" 
d="M509 637l-11.5 6.5t-8.5 4.5q-18 10 -39.5 18t-44.5 13.5t-46.5 8.5t-44.5 3q-52 0 -96 -15.5t-76 -43t-50 -65t-18 -81.5q0 -55 31 -97t104 -86l41.5 -25.5t28.5 -18.5q24 -16 36.5 -36t12.5 -41q0 -35 -27 -55.5t-72 -20.5q-29 0 -59.5 8t-69.5 25q-12 5 -20.5 9
t-15.5 8t-14 8.5l-16 10.5l-22 -119q16 -11 26 -16.5t30 -13.5q42 -19 81.5 -27t87.5 -8q57 0 98 12.5t73 41.5t49.5 68.5t17.5 84.5q0 30 -8 56t-25 49.5t-44.5 46t-66.5 45.5l-58.5 35.5t-32.5 24t-14 20.5t-3 24q0 32 27.5 52.5t69.5 20.5q38 0 78 -13t91 -42zM130 -206
q8 -1 19.5 -1.5t27.5 -0.5q47 0 86.5 8.5t67.5 23.5t43.5 36t15.5 47q0 37 -30 58.5t-82 21.5q-14 0 -28 -2t-33 -7l-16 -48l25.5 3.5t19.5 1.5q26 0 40.5 -9t14.5 -26q0 -21 -33.5 -35t-84.5 -14h-5h-15h-10z" />
    <glyph glyph-name="fl" unicode="&#xfb02;" horiz-adv-x="375" 
d="M359 421q-39 22 -73 31.5t-70 9.5t-67 -10.5t-53.5 -29.5t-35.5 -45t-13 -56q0 -37 18.5 -65.5t64.5 -62.5l39 -28q32 -24 32 -42q0 -12 -12 -19t-33 -7q-45 0 -126 37l-19 -101q44 -22 80 -31.5t77 -9.5q37 0 68.5 10.5t54 29.5t35 45t12.5 57q0 35 -19.5 64.5
t-64.5 64.5l-38 29t-20.5 17.5t-8 11.5t-1.5 12q0 20 35 20q21 0 46 -7.5t67 -25.5l14 -6zM55 -206q8 -1 19.5 -1.5t27.5 -0.5q47 0 86.5 8.5t67.5 23.5t43.5 36t15.5 47q0 37 -30 58.5t-82 21.5q-14 0 -28 -2t-33 -7l-16 -48l25.5 3.5t19.5 1.5q26 0 40.5 -9t14.5 -26
q0 -21 -33.5 -35t-84.5 -14h-5h-15h-10z" />
    <glyph glyph-name="daggerdbl" unicode="&#x2021;" horiz-adv-x="510" 
d="M323 388l28 -13q24 -11 50 -18.5t44 -7.5q32 0 50.5 19t18.5 50q0 27 -17.5 44.5t-45.5 17.5q-23 0 -51 -10t-74 -33l-12 -6q3 12 5.5 20.5t6 16.5l8 17.5t12.5 24.5q21 38 28.5 60.5t7.5 44.5q0 32 -19.5 54t-48.5 22q-16 0 -30.5 -7t-25 -19.5t-17 -29.5t-6.5 -36
q0 -26 6 -54l11 -55q2 -11 3 -23.5t1 -26.5v-9q-47 26 -79.5 37.5t-56.5 11.5q-28 0 -45 -17t-17 -46t19 -48t48 -19q13 0 24.5 1.5t25 6t30 12t39.5 19.5q4 1 12 6q-6 -35 -22 -78t-37 -85q4 -18 6 -32t3.5 -26.5t2 -25.5t0.5 -29q0 -18 -1 -27.5t-3 -26.5q-42 23 -75 34
t-64 11t-50.5 -19t-19.5 -49q0 -27 18 -45t44 -18q22 0 57.5 13t81.5 37l-1.5 -4.5t-0.5 -3.5q-2 -6 -4 -11l-4.5 -11t-7.5 -15l-13 -24q-19 -35 -27.5 -62t-8.5 -50q0 -33 20 -55.5t49 -22.5q34 0 55.5 25.5t21.5 67.5q0 25 -6 60l-7.5 39.5t-2.5 17.5q-2 16 -3 37l-1 12
q87 -50 132 -50q29 0 46.5 18t17.5 47t-18.5 47t-50.5 18q-23 0 -56 -11.5t-71 -32.5q4 40 15.5 79.5t34.5 87.5l-3.5 24.5t-2.5 20.5t-1 21v29v23t1 16t2.5 13.5l3.5 15.5z" />
    <glyph glyph-name="periodcentered" unicode="&#xb7;" horiz-adv-x="260" 
d="M217 346q0 18 -7 33.5t-18.5 27.5t-27.5 19t-34 7t-34 -7t-27.5 -19t-18.5 -27.5t-7 -33.5t7 -33.5t19 -27.5t28 -19t34 -7t33.5 7t27 19t18.5 27.5t7 33.5z" />
    <glyph glyph-name="periodcentered" unicode="&#x2219;" horiz-adv-x="260" 
d="M217 346q0 18 -7 33.5t-18.5 27.5t-27.5 19t-34 7t-34 -7t-27.5 -19t-18.5 -27.5t-7 -33.5t7 -33.5t19 -27.5t28 -19t34 -7t33.5 7t27 19t18.5 27.5t7 33.5z" />
    <glyph glyph-name="quotesinglbase" unicode="&#x201a;" horiz-adv-x="260" 
d="M-45 -147q39 2 68 8t54 18q50 24 80.5 67.5t30.5 90.5q0 22 -7.5 42t-20.5 34t-30.5 22.5t-37.5 8.5q-36 0 -60 -23t-24 -58q0 -49 48 -77q-22 -57 -86 -72z" />
    <glyph glyph-name="quotedblbase" unicode="&#x201e;" horiz-adv-x="490" 
d="M187 -145q38 2 67 8t54 18q51 24 81 67t30 91q0 22 -7.5 41t-20.5 33t-30.5 22.5t-37.5 8.5q-35 0 -59.5 -23t-24.5 -57q0 -49 49 -76q-23 -57 -87 -72zM-40 -145q74 3 122 26q50 24 80 67t30 91q0 44 -27.5 74.5t-68.5 30.5q-35 0 -59.5 -23t-24.5 -57q0 -49 49 -76
q-22 -57 -87 -72z" />
    <glyph glyph-name="perthousand" unicode="&#x2030;" horiz-adv-x="1083" 
d="M337 528q0 34 -12.5 63.5t-34 51.5t-50 35t-61.5 13q-34 0 -64 -13t-52 -35t-35 -51.5t-13 -63.5q0 -33 13 -62t35 -50.5t51.5 -34t63.5 -12.5q33 0 62 12.5t50.5 34t34 50.5t12.5 62zM247 528q0 -29 -20.5 -49.5t-49.5 -20.5q-30 0 -51 20.5t-21 49.5q0 30 21.5 51
t51.5 21q29 0 49 -21t20 -51zM686 155q0 33 -12.5 62t-33.5 50.5t-49.5 34t-61.5 12.5q-35 0 -65 -12.5t-53 -34t-36 -50.5t-13 -62q0 -34 13 -63.5t35 -51.5t52 -35t64 -13q33 0 62 13t51 35t34.5 51.5t12.5 63.5zM594 154q0 -29 -21 -50.5t-50 -21.5t-49.5 21t-20.5 51
q0 29 21 49.5t52 20.5q28 0 48 -20.5t20 -49.5zM1069 155q0 33 -12.5 62t-33.5 50.5t-49.5 34t-61.5 12.5q-35 0 -65 -12.5t-53 -34t-36 -50.5t-13 -62q0 -34 13 -63.5t35 -51.5t52 -35t64 -13q33 0 62 13t51 35t34.5 51.5t12.5 63.5zM977 154q0 -29 -21 -50.5t-50 -21.5
t-50 21t-21 51q0 29 21.5 49.5t52.5 20.5q28 0 48 -20.5t20 -49.5zM629 691h-81l-479 -699h83z" />
    <glyph glyph-name="Acircumflex" unicode="&#xc2;" horiz-adv-x="625" 
d="M461 691h-154l-334 -691h160l66 149h212l21 -149h149zM359 519h2l38 -273h-158zM409 814l37 -87h97l-59 147h-131l-145 -147h115z" />
    <glyph glyph-name="Ecircumflex" unicode="&#xca;" horiz-adv-x="583" 
d="M564 682h-426l-96 -682h499l16 113h-354l26 180h246l16 113h-246l23 161h280zM388 814l37 -87h97l-59 147h-131l-145 -147h115z" />
    <glyph glyph-name="Aacute" unicode="&#xc1;" horiz-adv-x="625" 
d="M461 691h-154l-334 -691h160l66 149h212l21 -149h149zM359 519h2l38 -273h-158zM419 873l-102 -146h94l158 146h-150z" />
    <glyph glyph-name="Edieresis" unicode="&#xcb;" horiz-adv-x="583" 
d="M564 682h-426l-96 -682h499l16 113h-354l26 180h246l16 113h-246l23 161h280zM197 801q0 -28 19.5 -47.5t46.5 -19.5q28 0 47.5 19.5t19.5 47.5q0 27 -19.5 46.5t-47.5 19.5q-27 0 -46.5 -19.5t-19.5 -46.5zM418 801q0 -28 19.5 -47.5t46.5 -19.5q28 0 47 19.5t19 47.5
q0 27 -19 46.5t-47 19.5q-27 0 -46.5 -19.5t-19.5 -46.5z" />
    <glyph glyph-name="Egrave" unicode="&#xc8;" horiz-adv-x="583" 
d="M564 682h-426l-96 -682h499l16 113h-354l26 180h246l16 113h-246l23 161h280zM247 875l102 -146h95l-62 146h-135z" />
    <glyph glyph-name="Iacute" unicode="&#xcd;" horiz-adv-x="302" 
d="M287 682h-145l-99 -682h147zM258 873l-102 -146h94l158 146h-150z" />
    <glyph glyph-name="Icircumflex" unicode="&#xce;" horiz-adv-x="302" 
d="M287 682h-145l-99 -682h147zM248 814l37 -87h97l-59 147h-131l-145 -147h115z" />
    <glyph glyph-name="Idieresis" unicode="&#xcf;" horiz-adv-x="302" 
d="M287 682h-145l-99 -682h147zM57 801q0 -28 19.5 -47.5t46.5 -19.5q28 0 47.5 19.5t19.5 47.5q0 27 -19.5 46.5t-47.5 19.5q-27 0 -46.5 -19.5t-19.5 -46.5zM278 801q0 -28 19.5 -47.5t46.5 -19.5q28 0 47 19.5t19 47.5q0 27 -19 46.5t-47 19.5q-27 0 -46.5 -19.5
t-19.5 -46.5z" />
    <glyph glyph-name="Igrave" unicode="&#xcc;" horiz-adv-x="302" 
d="M287 682h-145l-99 -682h147zM107 875l102 -146h95l-62 146h-135z" />
    <glyph glyph-name="Oacute" unicode="&#xd3;" horiz-adv-x="833" 
d="M797 380q0 69 -24.5 126t-69 98.5t-106 64t-136.5 22.5q-87 0 -160.5 -29t-127 -80t-83.5 -121t-30 -153q0 -71 25 -129.5t70.5 -100t109 -64.5t140.5 -23q164 0 270 97q28 26 51 59t38.5 71t24 79t8.5 83zM647 369q0 -53 -19 -99.5t-51.5 -80.5t-76.5 -53.5t-95 -19.5
q-43 0 -79 14.5t-61.5 40.5t-40 62t-14.5 80q0 52 19 97.5t51.5 79.5t76.5 54t94 20q42 0 78 -14.5t62.5 -40.5t41 -62t14.5 -78zM523 873l-102 -146h94l158 146h-150z" />
    <glyph glyph-name="Ocircumflex" unicode="&#xd4;" horiz-adv-x="833" 
d="M797 380q0 69 -24.5 126t-69 98.5t-106 64t-136.5 22.5q-87 0 -160.5 -29t-127 -80t-83.5 -121t-30 -153q0 -71 25 -129.5t70.5 -100t109 -64.5t140.5 -23q164 0 270 97q28 26 51 59t38.5 71t24 79t8.5 83zM647 369q0 -53 -19 -99.5t-51.5 -80.5t-76.5 -53.5t-95 -19.5
q-43 0 -79 14.5t-61.5 40.5t-40 62t-14.5 80q0 52 19 97.5t51.5 79.5t76.5 54t94 20q42 0 78 -14.5t62.5 -40.5t41 -62t14.5 -78zM513 814l37 -87h97l-59 147h-131l-145 -147h115z" />
    <glyph glyph-name="Ograve" unicode="&#xd2;" horiz-adv-x="833" 
d="M797 380q0 69 -24.5 126t-69 98.5t-106 64t-136.5 22.5q-87 0 -160.5 -29t-127 -80t-83.5 -121t-30 -153q0 -71 25 -129.5t70.5 -100t109 -64.5t140.5 -23q164 0 270 97q28 26 51 59t38.5 71t24 79t8.5 83zM647 369q0 -53 -19 -99.5t-51.5 -80.5t-76.5 -53.5t-95 -19.5
q-43 0 -79 14.5t-61.5 40.5t-40 62t-14.5 80q0 52 19 97.5t51.5 79.5t76.5 54t94 20q42 0 78 -14.5t62.5 -40.5t41 -62t14.5 -78zM372 875l102 -146h95l-62 146h-135z" />
    <glyph glyph-name="Uacute" unicode="&#xda;" horiz-adv-x="750" 
d="M747 682h-148l-46 -329l-10 -68q-7 -48 -21 -79.5t-39 -52.5q-21 -18 -52 -28t-63 -10q-69 0 -111 35t-42 92q0 25 6 66q2 8 4 21t4 30l46 323h-147l-45 -315l-8 -59q-4 -21 -5.5 -40.5t-1.5 -36.5q0 -91 59 -154q42 -46 99 -66t143 -20q72 0 126.5 17.5t96.5 54.5
q49 43 70 99l10.5 29t8 30.5t7.5 44l10 69.5zM482 873l-102 -146h94l158 146h-150z" />
    <glyph glyph-name="Ucircumflex" unicode="&#xdb;" horiz-adv-x="750" 
d="M747 682h-148l-46 -329l-10 -68q-7 -48 -21 -79.5t-39 -52.5q-21 -18 -52 -28t-63 -10q-69 0 -111 35t-42 92q0 25 6 66q2 8 4 21t4 30l46 323h-147l-45 -315l-8 -59q-4 -21 -5.5 -40.5t-1.5 -36.5q0 -91 59 -154q42 -46 99 -66t143 -20q72 0 126.5 17.5t96.5 54.5
q49 43 70 99l10.5 29t8 30.5t7.5 44l10 69.5zM472 814l37 -87h97l-59 147h-131l-145 -147h115z" />
    <glyph glyph-name="Ugrave" unicode="&#xd9;" horiz-adv-x="750" 
d="M747 682h-148l-46 -329l-10 -68q-7 -48 -21 -79.5t-39 -52.5q-21 -18 -52 -28t-63 -10q-69 0 -111 35t-42 92q0 25 6 66q2 8 4 21t4 30l46 323h-147l-45 -315l-8 -59q-4 -21 -5.5 -40.5t-1.5 -36.5q0 -91 59 -154q42 -46 99 -66t143 -20q72 0 126.5 17.5t96.5 54.5
q49 43 70 99l10.5 29t8 30.5t7.5 44l10 69.5zM331 875l102 -146h95l-62 146h-135z" />
    <glyph glyph-name="dotlessi" unicode="&#x131;" horiz-adv-x="260" 
d="M227 454h-132l-65 -454h133z" />
    <glyph glyph-name="uni02C6" unicode="&#x2c6;" horiz-adv-x="333" 
d="M228 590l37 -87h97l-59 147h-131l-145 -147h115z" />
    <glyph glyph-name="uni02DC" unicode="&#x2dc;" horiz-adv-x="333" 
d="M107 511q10 40 44 40q4 0 8.5 -0.5t11 -2.5t16.5 -6l27 -11q27 -11 41.5 -15t27.5 -4q38 0 64.5 31t34.5 86h-63q-10 -38 -33 -38q-8 0 -19 3t-34 11q-38 14 -57 19t-34 5q-76 0 -96 -118h61z" />
    <glyph glyph-name="uni00AF" unicode="&#xaf;" horiz-adv-x="333" 
d="M57 615l-19 -94h312l20 94h-313z" />
    <glyph glyph-name="uni00AF" unicode="&#x2c9;" horiz-adv-x="333" 
d="M57 615l-19 -94h312l20 94h-313z" />
    <glyph glyph-name="uni02D8" unicode="&#x2d8;" horiz-adv-x="333" 
d="M38 645q9 -69 45 -105t96 -36q57 0 101 37.5t63 103.5h-64q-38 -71 -96 -71q-31 0 -48.5 16.5t-28.5 54.5h-68z" />
    <glyph glyph-name="uni02D9" unicode="&#x2d9;" horiz-adv-x="333" 
d="M131 582q0 -28 19.5 -47t47.5 -19q27 0 46.5 19t19.5 47q0 27 -19.5 46.5t-46.5 19.5q-28 0 -47.5 -19.5t-19.5 -46.5z" />
    <glyph glyph-name="uni02DA" unicode="&#x2da;" horiz-adv-x="333" 
d="M103 592q0 -20 7.5 -37t20.5 -29.5t30 -20t37 -7.5q19 0 36.5 7.5t30 20t20 29.5t7.5 37t-7.5 37.5t-20 30t-30 20t-36.5 7.5q-20 0 -37 -7.5t-30 -20t-20.5 -30t-7.5 -37.5zM156 592q0 17 12.5 29.5t29.5 12.5t29 -12.5t12 -29.5t-12 -29t-29 -12t-29.5 12t-12.5 29z
" />
    <glyph glyph-name="cedilla" unicode="&#xb8;" horiz-adv-x="333" 
d="M7 -206q8 -1 19.5 -1.5t27.5 -0.5q47 0 86.5 8.5t67.5 23.5t43.5 36t15.5 47q0 37 -30 58.5t-82 21.5q-14 0 -28 -2t-33 -7l-16 -48l25.5 3.5t19.5 1.5q26 0 40.5 -9t14.5 -26q0 -21 -33.5 -35t-84.5 -14h-5h-15h-10z" />
    <glyph glyph-name="uni02DD" unicode="&#x2dd;" horiz-adv-x="333" 
d="M277 647l-99 -145h81l160 145h-142zM83 647l-97 -145h78l164 145h-145z" />
    <glyph glyph-name="uni02DB" unicode="&#x2db;" horiz-adv-x="333" 
d="M223 -115q-23 -8 -47 -13.5t-38 -5.5q-22 0 -34.5 12.5t-12.5 34.5q0 17 6.5 41.5t18.5 54.5h-69q-14 -28 -23 -63t-9 -63q0 -44 22.5 -67.5t65.5 -23.5q23 0 54 9t53 21z" />
    <glyph glyph-name="uni02C7" unicode="&#x2c7;" horiz-adv-x="333" 
d="M214 563l-37 87h-97l60 -147h130l146 147h-116z" />
    <glyph glyph-name="uni0000" horiz-adv-x="280" 
 />
    <glyph glyph-name="uni0000" horiz-adv-x="280" 
 />
    <glyph glyph-name="quotedbl" unicode="&#x22;" horiz-adv-x="479" 
d="M81 461h101l22 134v121h-149v-121zM301 461h101l23 134v121h-150v-121z" />
    <glyph glyph-name="exclam" unicode="!" horiz-adv-x="260" 
d="M159 213l62 248q13 51 20.5 94t7.5 63q0 34 -17 53.5t-47 19.5q-44 0 -64.5 -39t-24.5 -127l-2 -44l-15 -268h80zM182 71q0 32 -23.5 55t-55.5 23q-33 0 -56.5 -23t-23.5 -55t23.5 -55.5t55.5 -23.5q33 0 56.5 23t23.5 56z" />
    <glyph glyph-name="eth" unicode="&#xf0;" horiz-adv-x="490" 
d="M506 454h-198q-23 0 -40 -0.5t-27 -0.5q-37 0 -73 -11q-52 -16 -84.5 -59.5t-32.5 -96.5q0 -86 79 -133l-8 -2l-19 -6q-29 -8 -47 -29.5t-18 -46.5q0 -26 17 -48.5t46 -36.5q-112 -34 -112 -104q0 -53 55 -81.5t158 -28.5q100 0 157 24q35 16 58 49t23 71q0 31 -15.5 60
t-41.5 46q-12 8 -26 14t-34 11t-49 10.5t-72 12.5q-36 6 -36 25q0 14 14 18.5t58 4.5q34 1 51.5 3t37.5 10q51 20 80.5 61.5t29.5 94.5q0 21 -3 35t-13 37h72zM309 299q0 -45 -19 -70.5t-53 -25.5q-26 0 -42.5 17.5t-16.5 46.5q0 46 18.5 71.5t52.5 25.5q27 0 43.5 -18
t16.5 -47zM190 -49q9 -2 14 -3.5t18 -4.5q28 -5 45.5 -9.5t27.5 -9.5t14 -11t4 -15q0 -38 -106 -38q-100 0 -100 42q0 18 19 29t64 20zM351 655q-6 -71 -85 -71t-85 71h-67q6 -67 46 -104.5t106 -37.5t106 37.5t46 104.5h-67z" />
    <glyph glyph-name="Eth" unicode="&#xd0;" horiz-adv-x="740" 
d="M740 666q-53 14 -98 19.5t-101 5.5q-110 0 -200.5 -28.5t-155.5 -80t-101 -124t-36 -159.5q0 -139 105 -226q50 -41 109 -59q38 -11 85.5 -17t99.5 -6q48 0 99.5 5t99.5 15l50 348h-272l-15 -108h125l-17 -121q-32 -7 -50 -9t-43 -2q-51 0 -93 13.5t-71.5 39t-45.5 60.5
t-16 79q0 56 25.5 103t70.5 81t107.5 53t137.5 19q23 0 44 -1.5t42.5 -4.5t45 -8.5l51.5 -12.5zM586 884q-6 -71 -85 -71t-85 71h-67q6 -67 46 -104.5t106 -37.5t106 37.5t46 104.5h-67z" />
    <glyph glyph-name="yacute" unicode="&#xfd;" horiz-adv-x="260" 
d="M227 454h-134l-64 -454h134z" />
    <glyph glyph-name="Yacute" unicode="&#xdd;" horiz-adv-x="302" 
d="M287 682h-145l-99 -682h147zM305 806q0 29 -20 49t-49 20t-49 -20.5t-20 -49.5t19.5 -49.5t48.5 -20.5t49.5 20.5t20.5 50.5z" />
    <glyph glyph-name="Thorn" unicode="&#xde;" horiz-adv-x="375" 
d="M359 421q-39 22 -73 31.5t-70 9.5t-67 -10.5t-53.5 -29.5t-35.5 -45t-13 -56q0 -37 18.5 -65.5t64.5 -62.5l39 -28q32 -24 32 -42q0 -12 -12 -19t-33 -7q-45 0 -126 37l-19 -101q44 -22 80 -31.5t77 -9.5q37 0 68.5 10.5t54 29.5t35 45t12.5 57q0 35 -19.5 64.5
t-64.5 64.5l-38 29t-20.5 17.5t-8 11.5t-1.5 12q0 20 35 20q21 0 46 -7.5t67 -25.5l14 -6zM14 -210q8 -1 19.5 -1.5t27.5 -0.5q47 0 86.5 8.5t67.5 23.5t43.5 36t15.5 47q0 37 -30 58.5t-82 21.5q-14 0 -28 -2t-33 -7l-16 -48l25.5 3.5t19.5 1.5q26 0 40.5 -9t14.5 -26
q0 -21 -33.5 -35t-84.5 -14h-5h-15h-10z" />
    <glyph glyph-name="thorn" unicode="&#xfe;" horiz-adv-x="521" 
d="M509 637l-11.5 6.5t-8.5 4.5q-18 10 -39.5 18t-44.5 13.5t-46.5 8.5t-44.5 3q-52 0 -96 -15.5t-76 -43t-50 -65t-18 -81.5q0 -55 31 -97t104 -86l41.5 -25.5t28.5 -18.5q24 -16 36.5 -36t12.5 -41q0 -35 -27 -55.5t-72 -20.5q-29 0 -59.5 8t-69.5 25q-12 5 -20.5 9
t-15.5 8t-14 8.5l-16 10.5l-22 -119q16 -11 26 -16.5t30 -13.5q42 -19 81.5 -27t87.5 -8q57 0 98 12.5t73 41.5t49.5 68.5t17.5 84.5q0 30 -8 56t-25 49.5t-44.5 46t-66.5 45.5l-58.5 35.5t-32.5 24t-14 20.5t-3 24q0 32 27.5 52.5t69.5 20.5q38 0 78 -13t91 -42zM76 -209
q8 -1 19.5 -1.5t27.5 -0.5q47 0 86.5 8.5t67.5 23.5t43.5 36t15.5 47q0 37 -30 58.5t-82 21.5q-14 0 -28 -2t-33 -7l-16 -48l25.5 3.5t19.5 1.5q26 0 40.5 -9t14.5 -26q0 -21 -33.5 -35t-84.5 -14h-5h-15h-10z" />
    <glyph glyph-name="scedilla" unicode="&#x15f;" horiz-adv-x="375" 
d="M359 421q-39 22 -73 31.5t-70 9.5t-67 -10.5t-53.5 -29.5t-35.5 -45t-13 -56q0 -37 18.5 -65.5t64.5 -62.5l39 -28q32 -24 32 -42q0 -12 -12 -19t-33 -7q-45 0 -126 37l-19 -101q44 -22 80 -31.5t77 -9.5q37 0 68.5 10.5t54 29.5t35 45t12.5 57q0 35 -19.5 64.5
t-64.5 64.5l-38 29t-20.5 17.5t-8 11.5t-1.5 12q0 20 35 20q21 0 46 -7.5t67 -25.5l14 -6zM55 -206q8 -1 19.5 -1.5t27.5 -0.5q47 0 86.5 8.5t67.5 23.5t43.5 36t15.5 47q0 37 -30 58.5t-82 21.5q-14 0 -28 -2t-33 -7l-16 -48l25.5 3.5t19.5 1.5q26 0 40.5 -9t14.5 -26
q0 -21 -33.5 -35t-84.5 -14h-5h-15h-10z" />
    <glyph glyph-name="Scedilla" unicode="&#x15e;" horiz-adv-x="521" 
d="M509 637l-11.5 6.5t-8.5 4.5q-18 10 -39.5 18t-44.5 13.5t-46.5 8.5t-44.5 3q-52 0 -96 -15.5t-76 -43t-50 -65t-18 -81.5q0 -55 31 -97t104 -86l41.5 -25.5t28.5 -18.5q24 -16 36.5 -36t12.5 -41q0 -35 -27 -55.5t-72 -20.5q-29 0 -59.5 8t-69.5 25q-12 5 -20.5 9
t-15.5 8t-14 8.5l-16 10.5l-22 -119q16 -11 26 -16.5t30 -13.5q42 -19 81.5 -27t87.5 -8q57 0 98 12.5t73 41.5t49.5 68.5t17.5 84.5q0 30 -8 56t-25 49.5t-44.5 46t-66.5 45.5l-58.5 35.5t-32.5 24t-14 20.5t-3 24q0 32 27.5 52.5t69.5 20.5q38 0 78 -13t91 -42zM130 -206
q8 -1 19.5 -1.5t27.5 -0.5q47 0 86.5 8.5t67.5 23.5t43.5 36t15.5 47q0 37 -30 58.5t-82 21.5q-14 0 -28 -2t-33 -7l-16 -48l25.5 3.5t19.5 1.5q26 0 40.5 -9t14.5 -26q0 -21 -33.5 -35t-84.5 -14h-5h-15h-10z" />
    <glyph glyph-name="uni0130" unicode="&#x130;" horiz-adv-x="302" 
d="M287 682h-145l-99 -682h147zM305 806q0 29 -20 49t-49 20t-49 -20.5t-20 -49.5t19.5 -49.5t48.5 -20.5t49.5 20.5t20.5 50.5z" />
    <glyph glyph-name="gbreve" unicode="&#x11f;" horiz-adv-x="490" 
d="M506 454h-198q-23 0 -40 -0.5t-27 -0.5q-37 0 -73 -11q-52 -16 -84.5 -59.5t-32.5 -96.5q0 -86 79 -133l-8 -2l-19 -6q-29 -8 -47 -29.5t-18 -46.5q0 -26 17 -48.5t46 -36.5q-112 -34 -112 -104q0 -53 55 -81.5t158 -28.5q100 0 157 24q35 16 58 49t23 71q0 31 -15.5 60
t-41.5 46q-12 8 -26 14t-34 11t-49 10.5t-72 12.5q-36 6 -36 25q0 14 14 18.5t58 4.5q34 1 51.5 3t37.5 10q51 20 80.5 61.5t29.5 94.5q0 21 -3 35t-13 37h72zM309 299q0 -45 -19 -70.5t-53 -25.5q-26 0 -42.5 17.5t-16.5 46.5q0 46 18.5 71.5t52.5 25.5q27 0 43.5 -18
t16.5 -47zM190 -49q9 -2 14 -3.5t18 -4.5q28 -5 45.5 -9.5t27.5 -9.5t14 -11t4 -15q0 -38 -106 -38q-100 0 -100 42q0 18 19 29t64 20zM351 655q-6 -71 -85 -71t-85 71h-67q6 -67 46 -104.5t106 -37.5t106 37.5t46 104.5h-67z" />
    <glyph glyph-name="Gbreve" unicode="&#x11e;" horiz-adv-x="740" 
d="M740 666q-53 14 -98 19.5t-101 5.5q-110 0 -200.5 -28.5t-155.5 -80t-101 -124t-36 -159.5q0 -139 105 -226q50 -41 109 -59q38 -11 85.5 -17t99.5 -6q48 0 99.5 5t99.5 15l50 348h-272l-15 -108h125l-17 -121q-32 -7 -50 -9t-43 -2q-51 0 -93 13.5t-71.5 39t-45.5 60.5
t-16 79q0 56 25.5 103t70.5 81t107.5 53t137.5 19q23 0 44 -1.5t42.5 -4.5t45 -8.5l51.5 -12.5zM586 884q-6 -71 -85 -71t-85 71h-67q6 -67 46 -104.5t106 -37.5t106 37.5t46 104.5h-67z" />
  </font>
</defs>
</svg>
