<?xml version="1.0" standalone="no"?>
<!DOCTYPE svg PUBLIC "-//W3C//DTD SVG 1.1//EN" "http://www.w3.org/Graphics/SVG/1.1/DTD/svg11.dtd" >
<svg>
<metadata>
Created by FontForge 20090622 at Tue Jul 11 09:18:53 2017
 By deploy user
Copyright &#194;&#169; 2006 Typodermic Do not distribute. Report piracy to piracy@typodermic.com. Visit www.typodermic.com and www.larabiefonts.com
</metadata>
<defs>
<font id="Marion-Italic" horiz-adv-x="0" >
  <font-face 
    font-family="Marion"
    font-weight="400"
    font-style="italic"
    font-stretch="normal"
    units-per-em="1000"
    panose-1="2 2 5 2 6 4 0 2 0 3"
    ascent="769"
    descent="-231"
    x-height="453"
    cap-height="705"
    bbox="-136 -195 1224 881"
    underline-thickness="50"
    underline-position="-50"
    slope="-9"
    unicode-range="U+0020-U+FB04"
  />
<missing-glyph horiz-adv-x="747" 
d="M426 714q78 0 143.5 -27t113 -75t74.5 -115.5t27 -148.5q0 -77 -25.5 -143t-72 -115.5t-112.5 -77.5t-148 -28t-148.5 28.5t-113 77.5t-72 115.5t-25.5 142.5q0 78 28 145t77 116t114 77t140 28zM429 677q-64 0 -120 -24t-97.5 -67.5t-65.5 -104t-24 -133.5
q0 -90 30 -152.5t75.5 -102t99.5 -57t102 -17.5q84 0 142 31.5t95 80t53.5 106.5t16.5 111q0 87 -30.5 149.5t-76.5 102t-100 58.5t-100 19z" />
    <glyph glyph-name=".notdef" horiz-adv-x="747" 
d="M426 714q78 0 143.5 -27t113 -75t74.5 -115.5t27 -148.5q0 -77 -25.5 -143t-72 -115.5t-112.5 -77.5t-148 -28t-148.5 28.5t-113 77.5t-72 115.5t-25.5 142.5q0 78 28 145t77 116t114 77t140 28zM429 677q-64 0 -120 -24t-97.5 -67.5t-65.5 -104t-24 -133.5
q0 -90 30 -152.5t75.5 -102t99.5 -57t102 -17.5q84 0 142 31.5t95 80t53.5 106.5t16.5 111q0 87 -30.5 149.5t-76.5 102t-100 58.5t-100 19z" />
    <glyph glyph-name="space" unicode=" " horiz-adv-x="306" 
 />
    <glyph glyph-name="exclam" unicode="!" horiz-adv-x="287" 
d="M147 207q5 89 8 151.5l5 106t2.5 71.5t1.5 47t2 32.5t3 28.5q11 77 70 77q49 0 49 -53q0 -6 -0.5 -11.5t-1.5 -12.5q-2 -15 -4.5 -28.5t-7 -32.5t-12 -47l-19 -71.5l-28 -106l-39.5 -151.5h-29zM203 71q0 -45 -19.5 -66t-53.5 -21q-57 0 -57 51q0 42 20.5 64.5t56.5 22.5
q53 0 53 -51z" />
    <glyph glyph-name="quotedbl" unicode="&#x22;" horiz-adv-x="301" 
d="M124 454q-2 11 -2 21v20v26q0 25 -0.5 46.5t-0.5 39.5q0 30 1.5 51.5t7.5 35.5t17 20.5t30 6.5q36 0 36 -28q0 -25 -18.5 -85l-48.5 -154h-22zM277 454q-2 35 -2 68v60q0 73 8.5 106t46.5 33q36 0 36 -28q0 -24 -17.5 -84.5t-49.5 -154.5h-22z" />
    <glyph glyph-name="numbersign" unicode="#" horiz-adv-x="534" 
d="M477 470h91l-16 -57h-99l-40 -134h94l-15 -56h-98l-75 -223h-54l74 223h-116l-71 -223h-58l74 223h-106l16 56h109l41 134h-106q6 20 11 34.5t8 22.5h106l75 223h55l-72 -223h113l75 223h55zM286 413l-44 -134h116l41 134h-113z" />
    <glyph glyph-name="dollar" unicode="$" horiz-adv-x="461" 
d="M338 680q141 -8 141 -108q0 -42 -13.5 -62t-33.5 -20q-32 0 -32 29q0 7 2.5 12t5 11.5t5 15t2.5 22.5q0 57 -82 64l-34 -243q5 -4 10 -7t10 -5q25 -13 50 -27.5t44.5 -33.5t32 -44t12.5 -59q0 -7 -0.5 -13.5t-1.5 -13.5q-32 -218 -218 -218l-12 -93q-3 -13 -16 -13
q-17 0 -17 13l13 93q-159 10 -159 127q0 55 17 83.5t38 28.5q27 0 27 -31q0 -14 -9 -33.5t-12 -45.5q4 -74 105 -81l42 296q-7 0 -10 4q-24 12 -48.5 26t-44 31.5t-32 39.5t-12.5 50q0 49 14.5 86.5t40.5 63t62.5 39.5t80.5 16l12 86q1 12 17 12t16 -12zM246 28q63 2 102 42
t39 116q0 25 -8 42.5t-21.5 31t-32.5 25l-40 23.5zM300 644q-57 -4 -89 -35t-32 -88q0 -38 24 -61.5t66 -42.5z" />
    <glyph glyph-name="percent" unicode="%" horiz-adv-x="727" 
d="M308 689q100 0 100 -115q0 -121 -53.5 -179.5t-144.5 -58.5q-112 0 -112 119q0 118 56.5 176t153.5 58zM308 664q-28 0 -54 -14.5t-46 -43t-32 -71t-12 -99.5q0 -71 56 -71q63 0 104 53t41 161q0 85 -57 85zM205 0h-48l460 705h52zM623 344q101 0 101 -113
q0 -119 -54.5 -179t-144.5 -60q-112 0 -112 119q0 118 56.5 175.5t153.5 57.5zM623 320q-28 0 -54 -14t-46 -42.5t-32 -71t-12 -98.5q0 -74 57 -74q64 0 104 52.5t40 161.5q0 86 -57 86z" />
    <glyph glyph-name="ampersand" unicode="&#x26;" horiz-adv-x="719" 
d="M725 401q-35 0 -56.5 -22t-45.5 -57q-12 -17 -22 -37t-22.5 -42t-30.5 -46t-45 -49l58 -61t46 -26q15 0 31.5 7.5t31.5 18t26.5 22.5t16.5 21l23 -13q-7 -23 -21 -46t-35 -41.5t-48 -30t-60 -11.5q-86 0 -142 83q-86 -83 -190 -83q-187 0 -187 152q0 82 42 153.5
t141 123.5q-11 28 -18.5 58.5t-7.5 56.5q0 45 13 79t36 56.5t54 34t67 11.5q129 0 129 -106q0 -63 -42.5 -113.5t-112.5 -88.5q27 -55 58 -112t68 -118q93 91 93 165q0 61 -74 61l5 32h226zM415 104l-93 144.5t-76 140.5q-58 -32 -78.5 -77.5t-20.5 -108.5q0 -150 139 -150
q29 0 61 9t68 42zM340 433q31 28 51 51.5t31.5 44.5t16 39.5t4.5 36.5q0 75 -68 75q-33 0 -58.5 -27t-25.5 -81q0 -48 49 -139z" />
    <glyph glyph-name="quotesingle" unicode="'" horiz-adv-x="148" 
d="M124 454q-2 11 -2 21v20v26q0 25 -0.5 46.5t-0.5 39.5q0 30 1.5 51.5t7.5 35.5t17 20.5t30 6.5q36 0 36 -28q0 -25 -18.5 -85l-48.5 -154h-22z" />
    <glyph glyph-name="parenleft" unicode="(" horiz-adv-x="268" 
d="M336 713q-46 -45 -84.5 -103.5t-66 -127.5t-42.5 -147t-15 -162q0 -169 86 -315l-11 -24q-138 187 -138 372q0 79 19 152.5t54 141t84 127t110 110.5z" />
    <glyph glyph-name="parenright" unicode=")" horiz-adv-x="268" 
d="M143 733q137 -188 137 -370q0 -80 -19 -154t-53.5 -141t-84 -127t-109.5 -111l-5 24q45 43 83.5 100.5t66 126.5t43 146.5t15.5 161.5q0 171 -86 320z" />
    <glyph glyph-name="asterisk" unicode="*" horiz-adv-x="429" 
d="M390 526q9 1 18.5 1h17.5q65 0 65 -41q0 -13 -9 -23.5t-26 -10.5q-15 0 -32.5 8t-35 17.5t-34 17.5t-28.5 8q-7 0 -7 -8q0 -11 12 -26.5t27 -33t27 -35t12 -30.5q0 -16 -10 -25.5t-23 -9.5q-23 0 -34 23.5t-17 51.5t-10.5 51.5t-13.5 23.5q-7 0 -11.5 -11t-8 -28t-7 -36
t-10 -36t-15.5 -28t-24 -11q-14 0 -24 9.5t-10 26.5q0 15 12.5 34t27.5 37l27.5 32.5t12.5 20.5q0 8 -10 8q-11 0 -26.5 -8l-33 -17t-35.5 -17t-33 -8q-17 0 -26.5 10.5t-9.5 24.5q0 39 72 39h70q22 0 22 9q0 11 -20.5 21l-44.5 21.5t-44.5 25t-20.5 30.5q0 14 10 23.5
t24 9.5q17 0 34 -16.5t32 -36.5l28 -36.5t21 -16.5t8 14q0 31 -10.5 60t-10.5 58q0 20 10.5 30t24.5 10q11 0 23 -10t12 -30q0 -14 -4 -28.5l-8.5 -29.5t-8 -30.5t-3.5 -31.5q0 -12 8 -12q10 0 24 16.5t29 36.5t31.5 36.5t31.5 16.5q14 0 24 -10t10 -24q0 -17 -20.5 -31.5
t-45 -26.5l-45 -22t-20.5 -18q1 -5 13.5 -7t28.5 -2h20z" />
    <glyph glyph-name="plus" unicode="+" horiz-adv-x="525" 
d="M346 391h183l-10 -69h-183l-27 -198h-66l28 198h-182l10 69h182l29 206h66z" />
    <glyph glyph-name="comma" unicode="," horiz-adv-x="241" 
d="M25 -146q36 23 56.5 43t30.5 36t12.5 29t2.5 23q0 12 -10.5 15.5t-22.5 7t-22.5 10.5t-10.5 26q0 40 19 61t49 21q65 0 65 -74q0 -75 -42.5 -129t-114.5 -93z" />
    <glyph glyph-name="hyphen" unicode="-" horiz-adv-x="290" 
d="M291 239h-227l10 65h226z" />
    <glyph glyph-name="period" unicode="." horiz-adv-x="224" 
d="M183 69q0 -42 -20 -63.5t-52 -21.5q-58 0 -58 51q0 42 20.5 64.5t56.5 22.5q53 0 53 -53z" />
    <glyph glyph-name="slash" unicode="/" horiz-adv-x="348" 
d="M47 -57h-44l381 778h44z" />
    <glyph glyph-name="zero" unicode="0" horiz-adv-x="476" 
d="M344 717q38 0 67 -21t49 -57t30 -84.5t10 -103.5q0 -52 -9.5 -107t-27 -107t-42.5 -98t-55.5 -80.5t-66 -54.5t-74.5 -20t-68.5 19.5t-48.5 53.5t-28.5 80t-9.5 99q0 58 10 116t28 111.5t43 99.5t55.5 80.5t65 54t72.5 19.5zM312 670q-30 0 -53.5 -27.5t-41 -70.5
t-29.5 -95.5t-19.5 -103.5t-10.5 -94t-3 -66q0 -88 21.5 -135.5t69.5 -47.5q45 0 77 40.5t52.5 104.5t30 141t9.5 151q0 39 -4.5 75.5t-16.5 65t-32 45.5t-50 17z" />
    <glyph glyph-name="one" unicode="1" horiz-adv-x="377" 
d="M341 721q-7 -20 -11 -37.5t-6 -31.5l-79 -551q-1 -1 -1 -11q0 -58 105 -58l-3 -32h-311l4 32q53 0 85 17.5t37 51.5l67 466q0 3 0.5 6t0.5 5q0 34 -31 34h-81l4 32q37 6 62.5 12t46.5 15t41 23t46 35z" />
    <glyph glyph-name="two" unicode="2" horiz-adv-x="468" 
d="M400 0h-296q-20 0 -38 -1t-33 -3v28l144 143t118.5 137t80 131t29.5 126q0 49 -27 73.5t-78 24.5q-55 0 -86 -22t-36 -61q27 -11 27 -33q0 -30 -14 -44.5t-34 -14.5q-31 0 -31 43q0 91 57.5 140t160.5 49q150 0 150 -134q0 -67 -22 -127t-67 -119.5t-112.5 -120.5
t-158.5 -130h171q25 0 43.5 3t33 12.5t27 27t26.5 46.5l24 -4z" />
    <glyph glyph-name="three" unicode="3" horiz-adv-x="440" 
d="M321 399q119 -14 119 -142q0 -136 -72.5 -204t-198.5 -68q-136 0 -136 87q0 70 56 70q28 0 28 -27q0 -38 -24 -45q0 -19 13 -29t44 -10q91 0 142 55t51 167q0 104 -88 104h-47q-9 0 -9 11q0 27 14 27q73 0 116.5 48t43.5 139q0 84 -77 84q-88 0 -95 -45q14 -9 14 -27
q0 -27 -13 -40.5t-33 -13.5q-32 0 -32 31q0 72 51.5 109t139.5 37q129 0 129 -117q0 -76 -34.5 -124.5t-100.5 -67.5z" />
    <glyph glyph-name="four" unicode="4" horiz-adv-x="469" 
d="M460 717q-8 -23 -14 -44t-9 -41l-48 -340q-1 -1 -1 -8q0 -13 11 -13h37q20 0 49 8l-11 -76h-84q-15 0 -18 -21l-14 -105q-1 -1 -1 -10q0 -35 38 -35l-4 -32h-171l4 32q48 0 54 45l14 105q0 9 -2 15t-13 6h-229l5 40l375 478zM115 271h171q20 0 23 21l38 275z" />
    <glyph glyph-name="five" unicode="5" horiz-adv-x="444" 
d="M507 734q-63 -125 -179 -125q-27 0 -51 3t-46 8l-59 -195q47 29 102 29q173 0 173 -173q0 -151 -72.5 -224t-207.5 -73q-134 0 -134 76q0 53 36 53q25 0 25 -23q0 -12 -4 -20.5t-15 -16.5q17 -29 83 -29q89 0 142.5 62t53.5 185q0 126 -113 126q-65 0 -106 -53l-30 16
l103 350q75 -12 145 -12q98 0 143 36h11z" />
    <glyph glyph-name="six" unicode="6" horiz-adv-x="472" 
d="M439 659q-18 9 -40 9q-27 0 -61 -17.5t-67 -57t-60.5 -103t-40.5 -154.5q53 77 164 77q66 0 103 -41t37 -105q0 -67 -18 -119.5t-49.5 -89t-73.5 -55.5t-90 -19q-94 0 -139 50t-45 141q0 14 1.5 29t3.5 31q16 115 49 205t78.5 151.5t103 93.5t123.5 32q74 0 74 -54
q0 -56 -40 -56q-25 0 -25 22q0 18 12 30zM286 365q-60 0 -99 -51t-39 -151q0 -27 6 -51.5t18.5 -43t31.5 -29.5t45 -11q33 0 58.5 18.5t43 49t26.5 69.5t9 80q0 63 -26 91.5t-74 28.5z" />
    <glyph glyph-name="seven" unicode="7" horiz-adv-x="400" 
d="M492 660q-21 -32 -44 -74t-45 -86.5t-41.5 -88t-33.5 -78.5q-28 -69 -50 -139.5t-32 -140.5q-11 -69 -63 -69q-48 0 -48 44q0 28 14 69.5t35 87t44.5 89.5l41.5 77l44 76.5l44.5 75l39 64.5t25.5 44q0 9 -8 9h-221q-39 0 -79 -97l-21 12l48 174q18 -3 40.5 -3.5
t53.5 -0.5h262z" />
    <glyph glyph-name="eight" unicode="8" horiz-adv-x="478" 
d="M366 398q48 -25 78 -66t30 -101q0 -62 -20 -108t-54 -77t-77.5 -46.5t-91.5 -15.5q-37 0 -69.5 10t-57 30t-38.5 49t-14 68q0 42 12.5 75t33.5 58.5t48.5 44.5t57.5 32q-34 28 -56 59.5t-22 82.5t16 92t45 70.5t69.5 45.5t89.5 16q29 0 56.5 -9t49 -26.5t34.5 -42.5
t13 -58t-11.5 -60.5t-30.5 -50t-43 -40.5t-48 -32zM251 330q-30 -6 -54 -24t-41.5 -43t-27 -55.5t-9.5 -61.5q0 -29 9.5 -52.5t26 -40.5t39 -26.5t49.5 -9.5q28 0 56.5 12t51 33t36.5 50t14 64t-15 58t-37.5 39.5t-49 29.5t-48.5 27zM334 415q52 28 76.5 68t24.5 91
q0 48 -28 74t-74 26q-24 0 -47.5 -8t-42 -24t-29.5 -40t-11 -56q0 -29 11.5 -51t30.5 -38t42 -26t47 -16z" />
    <glyph glyph-name="nine" unicode="9" horiz-adv-x="478" 
d="M400 334q-29 -38 -66 -59.5t-97 -21.5q-30 0 -56.5 13t-45.5 36.5t-30 56t-11 71.5q0 50 17 101t48 92.5t75 67.5t97 26q180 0 180 -205q0 -108 -27.5 -204t-74.5 -168t-110 -114t-135 -42q-81 0 -81 58q0 53 42 53q23 0 23 -19q0 -20 -15 -39q19 -9 41 -9q33 0 68.5 19
t67 57t55.5 95.5t35 134.5zM325 675q-29 0 -54 -14t-44 -43.5t-30 -75t-11 -109.5q0 -123 98 -123q30 0 56.5 15.5t46 45.5t30.5 75.5t11 105.5q0 66 -26 94.5t-77 28.5z" />
    <glyph glyph-name="colon" unicode=":" horiz-adv-x="226" 
d="M182 69q0 -42 -20 -63.5t-52 -21.5q-57 0 -57 53q0 42 20 63.5t56 21.5q53 0 53 -53zM227 385q0 -42 -20 -63.5t-52 -21.5q-57 0 -57 53q0 42 20 63t56 21q53 0 53 -52z" />
    <glyph glyph-name="semicolon" unicode=";" horiz-adv-x="229" 
d="M225 385q0 -42 -20 -63.5t-52 -21.5q-57 0 -57 53q0 84 77 84q52 0 52 -52zM20 -146q37 24 57.5 44t30.5 36.5t12 29.5t2 23q0 11 -10.5 14t-22.5 6t-22.5 10t-10.5 26q0 42 18 62.5t49 20.5q65 0 65 -73q0 -75 -42 -129.5t-115 -93.5z" />
    <glyph glyph-name="less" unicode="&#x3c;" horiz-adv-x="391" 
d="M427 486l-270 -128l234 -128l-9 -62l-304 171l6 37l352 171z" />
    <glyph glyph-name="equal" unicode="=" horiz-adv-x="481" 
d="M495 401h-397l9 65h397zM471 239h-396l9 65h397z" />
    <glyph glyph-name="greater" unicode="&#x3e;" horiz-adv-x="391" 
d="M408 342l-353 -171l8 61l270 127l-233 129l9 62l304 -171z" />
    <glyph glyph-name="question" unicode="?" horiz-adv-x="362" 
d="M194 624q0 -4 1.5 -6t1.5 -5q0 -28 -15.5 -41t-32.5 -13q-26 0 -26 37q0 30 11.5 52t30.5 36.5t44.5 21.5t52.5 7q67 0 108 -32t41 -92q0 -6 -0.5 -12.5t-1.5 -13.5q-7 -43 -23.5 -74t-38 -55t-44 -43.5t-43 -39.5t-35 -44t-18.5 -56l-6 -44h-26q-3 12 -3 30
q0 43 11.5 74.5t29.5 57t38 48t38 47t29.5 54.5t11.5 70q0 34 -17 53t-62 19q-14 0 -31.5 -6t-23.5 -22zM228 69q0 -42 -20.5 -63.5t-52.5 -21.5q-57 0 -57 53q0 42 20.5 63.5t55.5 21.5q54 0 54 -53z" />
    <glyph glyph-name="at" unicode="@" horiz-adv-x="679" 
d="M474 251q-1 -5 -1 -10v-10q0 -53 25 -53q31 0 61 20.5t54 59t38.5 93.5t14.5 124q0 177 -211 177q-75 0 -136.5 -24t-104.5 -72t-66.5 -120.5t-23.5 -168.5q0 -231 239 -231q116 0 232 90l18 -29q-109 -109 -267 -109q-274 0 -274 265q0 112 27.5 197t78 141.5t122 85
t159.5 28.5q252 0 252 -218q0 -84 -18 -147.5t-50 -105.5t-75.5 -63t-93.5 -21q-51 0 -51 51q0 7 0.5 16.5t4.5 17.5q-59 -81 -120 -81q-38 0 -63.5 23.5t-25.5 80.5q0 17 3 38q17 121 70.5 178t127.5 57q77 0 77 -73l27 60h58zM473 421q1 5 1 9.5v9.5q0 58 -59 58
q-20 0 -42 -18t-40 -50.5t-30 -78.5t-12 -103q0 -34 9.5 -48t26.5 -14q39 0 98 102z" />
    <glyph glyph-name="A" unicode="A" horiz-adv-x="613" 
d="M565 77q3 -13 7.5 -21t13 -12.5t20.5 -6.5l29 -5l-3 -32h-263l3 32l28.5 4.5t29 5.5t22 8t8.5 11q-3 5 -2 11.5t-1 20.5l-24 130q-3 14 -20.5 21t-34.5 7h-142q-38 0 -48 -28l-49 -110q-2 -7 -5 -16t-3 -19q0 -42 78 -42l-4 -36h-215l6 36q27 2 48 21.5t40 55.5l317 608
l27 -12zM250 348q-16 -25 -16 -39q0 -13 33 -13h121q17 0 23.5 3.5t6.5 11.5q0 5 -1.5 13t-3.5 20l-48 227z" />
    <glyph glyph-name="B" unicode="B" horiz-adv-x="645" 
d="M395 664q-66 0 -73 -40l-29 -205q0 -15 4.5 -22.5t19.5 -7.5q69 0 113 9.5t68.5 30.5t33.5 54t9 80q0 101 -108 101h-38zM480 377q69 -12 109 -49t40 -98q0 -66 -22.5 -110.5t-59 -72t-82.5 -39.5t-93 -12q-40 0 -78 0.5t-77 1.5t-80.5 1.5t-87.5 0.5l4 32q90 0 99 60
l72 506q1 1 1 14q0 60 -85 60l5 33h276q46 0 86 -7.5t68.5 -24t45 -43t16.5 -64.5q0 -41 -12.5 -71.5t-33.5 -52t-49.5 -36.5t-60.5 -25zM311 348q-28 0 -34 -41l-32 -229q0 -2 -0.5 -3t-0.5 -3q0 -36 63 -36h42q34 0 66.5 10.5t57 33t39.5 59t15 89.5q0 37 -13 60.5
t-36.5 37t-57 18t-75.5 4.5h-34z" />
    <glyph glyph-name="C" unicode="C" horiz-adv-x="626" 
d="M618 470q-8 103 -54.5 154.5t-119.5 51.5q-68 0 -115 -39t-76.5 -98t-43 -130t-13.5 -134q0 -54 9.5 -98.5t30.5 -77t54 -50t80 -17.5q36 0 66.5 8.5t58 29.5t53 56t52.5 89l27 -12q-17 -55 -46.5 -96t-67.5 -68.5t-82 -41t-90 -13.5q-60 0 -107 21.5t-79.5 59.5
t-49.5 90.5t-17 114.5q0 96 31 178t81 142t114.5 93.5t130.5 33.5q74 0 132 -49q37 37 75 45q3 -5 6 -30.5t3 -67.5q0 -31 -2 -67t-8 -78h-33z" />
    <glyph glyph-name="D" unicode="D" horiz-adv-x="725" 
d="M145 705q20 -3 40.5 -3.5t42.5 -0.5q29 0 54.5 1t50 2.5l51 3t57.5 1.5q147 0 220 -72t73 -209q0 -97 -27 -176t-82 -135t-138.5 -86.5t-196.5 -30.5h-241l4 32q28 0 46.5 3t29.5 13.5t17 30t11 51.5l63 441q1 2 1 12q0 5 -0.5 8.5t-0.5 7.5q0 8 4 15q0 20 -5.5 29.5
t-16 14.5t-26 7t-36.5 7zM388 664q-18 0 -30 -2t-20 -8.5t-12.5 -19.5t-7.5 -35l-67 -477q-3 -20 -3 -33q0 -17 4.5 -26.5t13.5 -14.5t23.5 -6t34.5 -1h29q112 0 177.5 75.5t88.5 235.5q4 25 5.5 47.5t1.5 42.5q0 115 -51.5 168.5t-148.5 53.5h-38z" />
    <glyph glyph-name="E" unicode="E" horiz-adv-x="617" 
d="M627 506l-30 -4q-1 58 -14.5 90t-36 47t-53.5 18t-67 3h-26q-43 0 -60 -12t-20 -36l-27 -191q0 -2 -0.5 -4t-0.5 -4q0 -24 19 -24h33q24 0 45 3t38.5 14t30.5 34t22 62h36l-39 -275h-36q0 7 0.5 13t0.5 12q0 30 -6 48.5t-18.5 28t-32.5 12.5t-48 3h-10q-46 0 -50 -36
l-29 -203q-1 -1 -1 -10q0 -50 70 -50h29q61 0 99 10.5t64 31.5t44.5 54t39.5 78l24 -8l-54 -211h-510l4 32q38 0 64.5 17.5t31.5 51.5l69 482q1 5 1 9.5v9.5q0 70 -83 70l5 33h503z" />
    <glyph glyph-name="F" unicode="F" horiz-adv-x="559" 
d="M624 510l-34 -4q-2 54 -14.5 84.5t-35 46t-55 19.5t-74.5 4h-29q-58 0 -64 -44l-27 -187q-1 -1 -1 -8q0 -32 50 -32h14q31 0 50.5 5t32 17t21 33t18.5 54h32l-38 -271h-33l4 21q1 5 1 10v11q0 13 -3.5 26.5t-14.5 24t-31 17.5t-52 7h-44q-18 0 -23 -32l-28 -195
q-1 -5 -1 -9v-8q0 -68 89 -68l-4 -32h-277l4 32q83 0 95 85l66 462q1 6 1.5 11.5t0.5 10.5q0 71 -80 71l5 33h491z" />
    <glyph glyph-name="G" unicode="G" horiz-adv-x="695" 
d="M643 470q-4 47 -17.5 85.5t-36 66.5t-54.5 43t-73 15q-67 0 -116.5 -37t-82.5 -96t-49 -132t-16 -144q0 -52 10 -96.5t31 -77t53.5 -51t76.5 -18.5q33 0 64.5 9.5t56 31t40 55t15.5 81.5q0 83 -84 83l4 32h274l-5 -32q-50 0 -70.5 -20.5t-25.5 -60.5l-31 -219h-25l-35 32
l-26 25q-37 -29 -84.5 -45t-95.5 -16q-59 0 -105.5 22t-79.5 61t-50.5 92t-17.5 116q0 81 29 161t79 143t117 102.5t144 39.5q42 0 77 -16t68 -37q38 38 76 45q9 -42 9 -99q0 -32 -3 -67t-8 -77h-33z" />
    <glyph glyph-name="H" unicode="H" horiz-adv-x="780" 
d="M829 672q-88 0 -101 -93l-68 -474q-1 -1 -1 -13q0 -60 79 -60l-4 -32h-277l4 32q95 0 105 73l31 223q-15 16 -70 16h-172q-41 0 -72 -16l-31 -223q-1 -1 -1 -13q0 -60 79 -60l-3 -32h-281l3 32q51 0 77 18.5t31 54.5l68 474q1 5 1.5 10.5t0.5 10.5q0 72 -87 72l5 33h281
l-5 -33q-89 0 -102 -93l-26 -182q28 -12 68 -12h172q54 0 74 12l26 182q1 6 1.5 11.5t0.5 10.5q0 71 -83 71l4 33h277z" />
    <glyph glyph-name="I" unicode="I" horiz-adv-x="372" 
d="M417 672q-88 0 -101 -93l-68 -474q-1 -3 -1 -6.5v-6.5q0 -60 83 -60l-3 -32h-278l4 32q91 0 101 73l67 474q1 5 1.5 10.5t0.5 10.5q0 72 -83 72l5 33h276z" />
    <glyph glyph-name="J" unicode="J" horiz-adv-x="422" 
d="M491 672q-80 0 -93 -93l-47 -332q-8 -54 -25.5 -101t-44.5 -82.5t-63.5 -55.5t-81.5 -20q-24 0 -45 7.5t-36.5 22t-25 34.5t-9.5 45q0 16 5 32t14 29t21.5 20.5t26.5 7.5q38 0 38 -33q0 -28 -9.5 -42t-22.5 -14q-19 0 -25 8q0 -28 20.5 -46t54.5 -18q27 0 46.5 22
t33 54.5t22 70.5t13.5 71l45 316q1 6 1.5 11.5t0.5 10.5q0 75 -86 75l4 33h273z" />
    <glyph glyph-name="K" unicode="K" horiz-adv-x="690" 
d="M770 672q-29 -3 -48.5 -8.5t-37.5 -16.5t-39 -30l-54 -50l-156 -146l174 -316q9 -17 18.5 -30.5t21.5 -23t28 -14.5t39 -5l-3 -32h-263l3 32q31 0 44 4.5t13 15.5q0 7 -4 19t-14 30l-136 247l-49 -44q-12 -11 -22.5 -24.5t-15.5 -32.5l-21 -142q-1 -1 -1 -12
q0 -61 87 -61l-4 -32h-277l4 32q87 0 97 73l70 490q1 4 1 7.5v6.5q0 63 -85 63l5 33h272l-4 -33q-84 0 -95 -77l-36 -259l255 235q23 22 35 36.5t12 37.5q0 14 -14 20.5t-47 6.5l4 33h248z" />
    <glyph glyph-name="L" unicode="L" horiz-adv-x="564" 
d="M417 672q-87 0 -99 -81l-72 -502q0 -2 -0.5 -3.5t-0.5 -3.5q0 -37 57 -37h44q43 0 75.5 3.5t58.5 20.5t49.5 53t49.5 101l25 -4l-59 -219h-488l3 32q84 0 92 57l71 502q1 5 1 8.5v8.5q0 64 -84 64l5 33h276z" />
    <glyph glyph-name="M" unicode="M" horiz-adv-x="854" 
d="M895 672q-32 0 -51 -5t-29.5 -13.5t-14.5 -20.5t-5 -25l-59 -491q-1 -5 -1.5 -9.5t-0.5 -9.5q0 -66 78 -66l-4 -32h-270l4 32q84 0 95 78l63 494l-289 -604h-26l-135 595l-71 -469q-1 -6 -1.5 -11.5t-0.5 -10.5q0 -72 85 -72l-4 -32h-230l3 32q90 0 107 102l74 474
q1 5 1 9v8q0 12 -2 21t-11 15t-26.5 8.5t-47.5 2.5l4 33h197l117 -539l262 539h194z" />
    <glyph glyph-name="N" unicode="N" horiz-adv-x="711" 
d="M795 672q-89 0 -105 -117l-79 -559l-26 -8l-339 599l-60 -429q-3 -20 -3 -36q0 -90 84 -90l-3 -32h-231l4 32q81 0 99 126l66 470q0 22 -19 33t-70 11l5 33h175l300 -531l54 381q3 18 3 33q0 84 -84 84l4 33h230z" />
    <glyph glyph-name="O" unicode="O" horiz-adv-x="715" 
d="M441 680q-64 0 -111 -37t-78 -97t-46.5 -135.5t-15.5 -151.5q0 -52 10 -95t31 -74t53.5 -48.5t77.5 -17.5q60 0 107.5 33.5t81 90.5t51.5 132t18 158q0 50 -9.5 94t-31 77t-55.5 52t-83 19zM453 717q62 0 112.5 -22t86.5 -61.5t55.5 -94.5t19.5 -120q0 -74 -28.5 -151.5
t-78.5 -140.5t-119.5 -103t-151.5 -40q-62 0 -111 23t-83.5 63t-53 94.5t-18.5 118.5q0 78 28 155.5t77.5 139.5t117 100.5t147.5 38.5z" />
    <glyph glyph-name="P" unicode="P" horiz-adv-x="602" 
d="M305 705q31 0 49 0.5t32 1.5t28 1.5t38 0.5q189 0 189 -160q0 -48 -14.5 -91.5t-45.5 -76.5t-78 -53t-113 -20q-61 0 -115 12l-29 -207q-1 -5 -1 -8.5v-8.5q0 -64 85 -64l-3 -32h-278l4 32q87 0 98 77l72 510q0 53 -83 53l5 33h160zM366 672q-40 0 -48 -56l-36 -256
q45 -12 115 -12q35 0 62 17t45.5 44.5t28 62.5t9.5 71q0 129 -151 129h-25z" />
    <glyph glyph-name="Q" unicode="Q" horiz-adv-x="724" 
d="M680 -69q-15 -37 -33.5 -58.5t-38 -33t-38.5 -14.5t-34 -3q-102 0 -129 162h-37q-87 0 -141.5 26.5t-86 68.5t-43 93t-11.5 99q0 88 30.5 169.5t82.5 144t121 99.5t146 37q63 0 112.5 -24t83 -65.5t51.5 -97t18 -118.5q0 -56 -14 -113.5t-44 -110.5t-77.5 -99.5
t-114.5 -80.5q5 -26 16 -48.5t26 -39.5t31.5 -27t32.5 -10q41 0 65 44h26zM462 676q-50 0 -97.5 -24.5t-85 -75.5t-60.5 -129.5t-23 -185.5q0 -112 45.5 -174.5t133.5 -62.5q57 0 104 32t80 87.5t51.5 129t18.5 157.5q0 48 -9 92t-28.5 78.5t-51.5 55t-78 20.5z" />
    <glyph glyph-name="R" unicode="R" horiz-adv-x="638" 
d="M364 664q-26 0 -33.5 -15t-11.5 -45l-28 -203q0 -16 19 -16h51q28 0 58.5 5.5t56 23t41.5 51t16 89.5q0 32 -11 53.5t-29 34t-40 17.5t-43 5h-46zM264 705q31 0 53.5 1t43.5 1.5t44.5 1.5t56.5 1q38 0 70 -11.5t55 -31.5t36 -47.5t13 -59.5q0 -43 -15.5 -76t-41.5 -57.5
t-61.5 -41t-75.5 -25.5l-1 -4q45 -24 69 -60.5t29 -70.5q3 -22 6.5 -51.5t10 -56.5t17.5 -45.5t29 -18.5q22 0 40 48l20 -8q-2 -13 -10 -31t-20.5 -34.5t-29.5 -28t-38 -11.5q-57 0 -82 22t-33 71q-6 40 -11 86t-14.5 85.5t-28.5 65.5t-54 26h-29q-27 0 -31 -12l-34 -231
q-1 -1 -1 -12q0 -57 80 -57l-4 -32h-269l4 32q35 0 61 17.5t31 51.5l72 503q1 1 1 13q0 55 -82 55l5 33h119z" />
    <glyph glyph-name="S" unicode="S" horiz-adv-x="519" 
d="M489 490q-7 88 -45 139t-104 51q-29 0 -54 -10t-43.5 -27t-29 -40.5t-10.5 -50.5q0 -32 20 -57t59 -45q49 -25 90.5 -42.5t72 -38t47.5 -49.5t17 -77q0 -44 -13.5 -89.5t-41 -83.5t-70.5 -62t-102 -24q-33 0 -57 5.5t-40 13t-24.5 14.5t-11.5 11q-41 -32 -79 -44
q1 79 4 141t10 110h33q-2 -6 -2 -12q0 -44 12 -81t33 -63t50 -40.5t63 -14.5q22 0 50 9t53 28t42.5 47.5t17.5 67.5q0 73 -71 103l-88.5 35t-75.5 37.5t-52.5 53t-19.5 82.5q0 52 18 95t48 74t67.5 48t76.5 17q20 0 36.5 -5t30.5 -11.5t26.5 -14.5t24.5 -14q29 23 67 37
q2 -19 3 -38t1 -39q0 -34 -3 -70.5t-8 -75.5h-28z" />
    <glyph glyph-name="T" unicode="T" horiz-adv-x="559" 
d="M619 490l-27 -4q1 8 1 14.5v13.5q0 142 -130 142q-48 0 -52 -36l-70 -490q-1 -6 -1.5 -11t-0.5 -10q0 -77 91 -77l-3 -32h-299l3 32q98 0 115 98l71 490q0 20 -8 30t-34 10q-124 0 -187 -182l-27 8l57 227q22 -4 41.5 -6t37.5 -2h368q20 0 41.5 2t44.5 6z" />
    <glyph glyph-name="U" unicode="U" horiz-adv-x="721" 
d="M808 672q-46 0 -66.5 -22.5t-27.5 -70.5l-45 -324q-9 -61 -26 -111t-51.5 -85.5t-91 -55t-144.5 -19.5q-52 0 -89.5 14.5t-62 40t-36.5 61t-12 78.5q-1 9 0.5 18t3.5 19l54 380q1 1 1 15q0 62 -81 62l4 33h277l-5 -33q-54 0 -75 -19t-26 -58l-51 -352q-3 -20 -5 -39
t-2 -39q0 -27 6 -51t23.5 -42t48 -29t79.5 -11q58 0 97.5 20.5t64 51.5t36.5 68.5t17 70.5l47 336q1 5 1.5 10.5t0.5 10.5q0 72 -86 72l4 33h223z" />
    <glyph glyph-name="V" unicode="V" horiz-adv-x="622" 
d="M723 672h-30q-30 0 -59 -56l-320 -632l-32 8l-131 612q-8 35 -27.5 51.5t-45.5 16.5l5 33h257l-4 -33h-44q-27 0 -32 -11t-5 -31q0 -6 0.5 -17t2.5 -18l91 -469l215 457q5 11 7 24t2 21q0 44 -80 44l5 33h229z" />
    <glyph glyph-name="W" unicode="W" horiz-adv-x="868" 
d="M975 672q-56 0 -102 -105l-253 -579l-38 -4l-82 474l-201 -470l-37 -4l-113 620q-18 68 -62 68l5 33h239l-4 -33q-45 0 -62.5 -11.5t-17.5 -33.5q0 -9 2 -20t3 -17l73 -440l167 377l-21 109q-4 18 -19 27t-45 9l4 33h249l-5 -33q-37 0 -57.5 -12t-20.5 -35q0 -5 0.5 -12
t1.5 -12l71 -451l175 413q7 16 11.5 33t4.5 29q0 47 -73 47l4 33h208z" />
    <glyph glyph-name="X" unicode="X" horiz-adv-x="658" 
d="M726 672q-62 0 -101 -40l-209 -243l162 -324q16 -33 79 -33l-4 -32h-284l3 32q43 0 61.5 6t18.5 18q0 15 -12 41l-95 203l-157 -199q-8 -18 -12 -32q0 -18 18.5 -27.5t60.5 -9.5l-3 -32h-248l4 32q54 0 128 77l192 231l-138 284q-24 48 -87 48l5 33h273l-5 -33
q-74 0 -74 -31q0 -6 2 -12t5 -13l90 -191l137 174q8 9 10 19t3 19q0 35 -64 35l4 33h242z" />
    <glyph glyph-name="Y" unicode="Y" horiz-adv-x="581" 
d="M698 672q-49 0 -82 -40l-226 -340l-31 -215q0 -2 -0.5 -3t-0.5 -3q0 -39 89 -39l-3 -32h-292l4 32q97 0 104 49l30 207l-118 295q-36 89 -92 89l5 33h260l-4 -33q-75 0 -75 -44q0 -7 3 -13t7 -16l100 -251l158 247q5 10 9.5 23.5t4.5 24.5q0 29 -72 29l4 33h223z" />
    <glyph glyph-name="Z" unicode="Z" horiz-adv-x="520" 
d="M590 672l-443 -623q17 -4 32.5 -6t29.5 -2h73q49 0 87 20.5t66 49t47 59.5t30 53l28 -8l-55 -215h-460l-2 24l448 628q-20 4 -40 6t-40 2h-43q-48 0 -80 -8.5t-55 -27.5t-40 -49t-34 -73h-28l47 211q19 -4 36 -6t36 -2h365z" />
    <glyph glyph-name="bracketleft" unicode="[" horiz-adv-x="201" 
d="M270 720h-65l-112 -787h64l-3 -22h-119l118 826h119z" />
    <glyph glyph-name="backslash" unicode="\" horiz-adv-x="418" 
d="M394 -57h-51l-210 782h59z" />
    <glyph glyph-name="bracketright" unicode="]" horiz-adv-x="209" 
d="M137 -89h-120l4 22h63l113 787h-64l2 17h120z" />
    <glyph glyph-name="asciicircum" unicode="^" horiz-adv-x="405" 
d="M419 340h-55l-73 280l-157 -280h-56l207 365h33z" />
    <glyph glyph-name="underscore" unicode="_" horiz-adv-x="426" 
d="M410 -117h-428l9 56h427z" />
    <glyph glyph-name="grave" unicode="`" horiz-adv-x="256" 
d="M273 471q-20 12 -46.5 24t-50.5 24t-40.5 24.5t-16.5 26.5q0 11 7 25.5t29 14.5q14 -4 29 -18t31.5 -32l34 -37.5t36.5 -33.5z" />
    <glyph glyph-name="a" unicode="a" horiz-adv-x="445" 
d="M340 392q-10 10 -22.5 15.5t-30.5 5.5q-35 0 -63 -31t-47 -75.5t-29 -95t-10 -89.5q0 -26 2 -40t5.5 -20.5t9 -8t13.5 -1.5q12 0 32 18.5t42.5 46.5t43 61t33.5 63zM375 132q-4 -14 -4 -24v-21q0 -8 1.5 -12.5t7.5 -4.5q10 0 47 43l14 -23q-11 -17 -27 -34.5t-34 -32
t-35.5 -24t-30.5 -9.5q-11 0 -17.5 7t-8.5 26q0 5 0.5 10.5t1.5 11.5l13 106q-14 -24 -35 -52t-45.5 -53t-51 -41.5t-51.5 -16.5q-11 0 -23 3.5t-22 16t-16 36.5t-6 65q0 69 24 132t62.5 111t86.5 76t96 28q19 0 30.5 -3.5t21 -8t19 -8t24.5 -3.5z" />
    <glyph glyph-name="b" unicode="b" horiz-adv-x="439" 
d="M199 415q26 20 50.5 30.5t59.5 10.5q64 0 97 -48t33 -124q0 -60 -17 -113.5t-48.5 -94t-77.5 -64.5t-104 -24q-33 0 -66.5 10t-55.5 23l80 563q1 7 1.5 13.5t0.5 12.5q0 61 -43 61l4 29l131 33zM152 101q2 -26 19 -48t55 -22q26 0 50.5 15.5t43.5 44t30.5 68.5t11.5 90
q0 26 -3.5 53t-12.5 49.5t-25.5 36.5t-42.5 14q-31 0 -49.5 -9t-38.5 -28z" />
    <glyph glyph-name="c" unicode="c" horiz-adv-x="376" 
d="M364 100q-14 -30 -33.5 -51t-41.5 -34.5t-45.5 -20t-45.5 -6.5q-69 0 -103.5 42.5t-34.5 120.5q0 58 19 113t51 97t74 67.5t88 25.5q39 0 65.5 -12t26.5 -38q0 -25 -14 -39t-23 -14q-12 0 -18 8.5t-12.5 19t-17.5 19.5t-33 9q-31 0 -53.5 -21t-37.5 -53t-22.5 -70.5
t-7.5 -72.5q0 -67 23 -100t77 -33q30 0 53 13t46 47z" />
    <glyph glyph-name="d" unicode="d" horiz-adv-x="461" 
d="M390 132q-2 -16 -4.5 -27.5t-2.5 -19.5q0 -16 7 -16q11 0 53 44l12 -23q-11 -17 -27 -34.5t-33.5 -32t-35 -24t-30.5 -9.5q-11 0 -18 8t-8 28q0 5 0.5 9.5t0.5 9.5l14 102q-14 -21 -37 -48.5t-50 -52t-56 -41.5t-54 -17q-11 0 -23 3.5t-22 16t-16 37.5t-6 67
q0 69 22 131.5t57.5 109.5t81.5 75t94 28q14 0 25 -4.5t22 -12.5l27 200q0 17 -14.5 24.5t-47.5 7.5l5 33l148 29zM347 355q-16 58 -78 58q-36 0 -61 -31t-40.5 -75.5t-23 -95t-7.5 -89.5q0 -24 2 -38t6 -21t10 -9t14 -2q12 0 34.5 18.5t46.5 46.5t46 60.5t34 60.5z" />
    <glyph glyph-name="e" unicode="e" horiz-adv-x="370" 
d="M365 95q-16 -24 -32 -43.5t-34 -33.5t-39.5 -22t-47.5 -8q-39 0 -67.5 14t-47.5 38.5t-28 57.5t-9 71q0 56 17 108t46 91.5t67.5 63.5t80.5 24q46 0 77.5 -19t31.5 -67q0 -11 -4.5 -29.5t-27 -42.5t-70 -52t-134.5 -58q3 -69 29.5 -102t71.5 -33q31 0 58.5 19t43.5 39z
M145 223l56 26t53 30t39.5 35t15.5 41q0 63 -47 63q-27 0 -48.5 -17.5t-36.5 -45t-23.5 -62.5t-8.5 -70z" />
    <glyph glyph-name="f" unicode="f" horiz-adv-x="234" 
d="M288 402h-81q-12 0 -15 -12l-49 -333q-6 -43 -21 -87.5t-38 -81t-54 -59.5t-71 -23q-37 0 -57 15t-20 44q0 18 7.5 31t27.5 13q12 0 18 -7.5t11.5 -16.5t13.5 -16.5t25 -7.5q19 0 32.5 14.5t23 40.5t16.5 62t13 79l49 333q0 12 -9 12h-51l23 42h31q12 0 16 28
q7 57 28 104.5t49.5 82.5t60 54.5t59.5 19.5q29 0 45 -15.5t16 -36.5q0 -20 -8 -35.5t-27 -15.5q-11 0 -16.5 7.5t-9.5 16.5t-10 16.5t-18 7.5q-24 0 -42 -26.5t-30 -61.5t-18 -71.5t-6 -55.5t12 -19h84z" />
    <glyph glyph-name="g" unicode="g" horiz-adv-x="379" 
d="M449 431l-33 -53l-48 -5q3 -8 6 -23.5t3 -32.5q0 -34 -12 -68.5t-37 -63t-63 -48t-89 -23.5q-17 -12 -17 -23q0 -8 5 -14t20 -15.5t43 -24l74 -38.5q25 -13 41.5 -28.5t16.5 -36.5q0 -26 -17 -49t-46.5 -40.5t-70 -28t-86.5 -10.5q-32 0 -59.5 6.5t-48.5 18t-33 26.5
t-12 32q0 20 14 38.5t35 35t46 30t48 24.5q-18 11 -29.5 21.5t-11.5 24.5t11 30t37 34q-32 19 -44 50.5t-12 68.5q0 39 13 76.5t37 67t58 47.5t76 18q26 0 45.5 -11t36.5 -28l94 29zM255 421q-20 0 -39 -13.5t-33 -36.5t-22.5 -53t-8.5 -63q0 -45 14.5 -72.5t46.5 -27.5
q16 0 33 13.5t30.5 37t22 55.5t8.5 70q0 39 -11 64.5t-41 25.5zM155 3q-24 -8 -41.5 -20.5t-29.5 -25.5t-17.5 -25.5t-5.5 -19.5q0 -29 33.5 -46.5t81.5 -17.5q34 0 54 5.5t31 13.5t14.5 17t3.5 16q0 12 -11 26t-29 28t-40 27t-44 22z" />
    <glyph glyph-name="h" unicode="h" horiz-adv-x="439" 
d="M156 268q134 188 219 188q16 0 27 -17t11 -54q0 -23 -4.5 -48.5l-9.5 -51.5l-29 -153q-2 -9 -4 -20t-2 -19t1 -15.5t7 -7.5q13 0 50 43l13 -23q-11 -17 -28 -34.5t-36 -32t-37 -24t-31 -9.5q-23 0 -24 34q0 9 0.5 13.5t1.5 7.5l44 223q7 36 11 61.5t4 35.5q0 28 -18 28
q-23 0 -64.5 -43.5t-107.5 -131.5l-42 -209l-71 -26l113 621q2 4 2 9q0 29 -8.5 43.5t-33.5 14.5l4 29l135 33z" />
    <glyph glyph-name="i" unicode="i" horiz-adv-x="237" 
d="M167 132l-4 -22.5t-2 -21.5q0 -18 8 -18q13 0 50 43l12 -23q-11 -17 -28 -34.5t-35.5 -32t-36.5 -24t-30 -9.5q-17 0 -21 12t-4 27q0 5 0.5 8t1.5 8l59 313q1 1 1 7q0 8 -6 8q-13 0 -50 -43l-13 23q12 17 29 34.5t35.5 32t36 24t31.5 9.5q11 0 17.5 -8t6.5 -31
q0 -4 -0.5 -7.5t-1.5 -8.5zM213 672q52 0 52 -59q0 -62 -56 -62q-52 0 -52 62q0 59 56 59z" />
    <glyph glyph-name="j" unicode="j" horiz-adv-x="190" 
d="M186 193q-20 -102 -47 -175t-55.5 -120.5t-55 -69.5t-44.5 -22q-11 0 -16.5 4.5t-8.5 10.5t-3.5 13t-0.5 12q0 20 6.5 25t17 6t24 3.5t27.5 17t28 47.5t25 95l57 324q-2 9 -6 9q-10 0 -50 -43l-13 23q12 17 29 34.5t35.5 32t36 24t31.5 9.5q11 0 17.5 -7t7.5 -27
q0 -5 -0.5 -10.5t-1.5 -10.5zM207 672q52 0 52 -59q0 -62 -56 -62q-52 0 -52 62q0 59 56 59z" />
    <glyph glyph-name="k" unicode="k" horiz-adv-x="418" 
d="M157 261q75 97 128 145t101 48q15 0 27 -10t12 -31q0 -20 -8.5 -32t-26.5 -12q-8 0 -12.5 2t-9 5t-9.5 5t-14 2q-20 0 -35.5 -6t-29.5 -17t-27 -26.5l-27 -33.5q13 -38 31 -81.5t36 -80.5t35 -61t28 -24q4 0 11 5.5t14.5 14t15 18.5t13.5 19l14 -25q-32 -51 -62 -75.5
t-43 -24.5q-9 0 -22.5 8t-31 35t-38 77.5t-43.5 136.5l-41 -51l-35 -182l-71 -26l112 621q2 4 2 9q0 29 -8.5 43.5t-33.5 14.5l4 29l135 33z" />
    <glyph glyph-name="l" unicode="l" horiz-adv-x="201" 
d="M140 132l-3.5 -23.5t-1.5 -19.5q0 -19 9 -19q14 0 51 43l13 -23q-11 -17 -28 -34.5t-35.5 -32t-36.5 -24t-31 -9.5q-12 0 -19 9t-8 32q0 3 0.5 7t1.5 9l97 557q1 5 1.5 12t0.5 12q-3 43 -45 43l4 29l132 33z" />
    <glyph glyph-name="m" unicode="m" horiz-adv-x="676" 
d="M610 132q-3 -17 -4 -29t-1 -18q0 -15 7 -15q9 0 48 43l11 -23q-11 -17 -27 -34.5t-34 -32t-36 -24t-31 -9.5q-12 0 -17.5 9t-6.5 32q0 6 3 14l42 223q15 78 15 101q0 12 -6 18t-12 6q-42 0 -162 -203l-30 -176l-80 -25l58 279q15 70 15 96q0 29 -17 29q-45 0 -169 -196
l-37 -188l-70 -26l64 347q2 5 2 12t1 16q0 15 -7 15q-13 0 -47 -43l-13 23q12 17 27.5 34.5t32 32t33 24t30.5 9.5q9 0 14 -6t7 -22q0 -18 -4.5 -55t-22.5 -108q131 194 213 194q14 0 23 -18t9 -53q0 -23 -4.5 -50t-12.5 -59q63 91 111 135.5t90 44.5q10 0 23 -14.5
t13 -45.5q0 -16 -3.5 -44t-9.5 -67z" />
    <glyph glyph-name="n" unicode="n" horiz-adv-x="473" 
d="M405 132q-4 -20 -5 -31.5t-1 -16.5q0 -14 8 -14q11 0 50 43l12 -23q-11 -17 -28 -34.5t-36 -32t-37 -24t-31 -9.5t-18.5 8t-5.5 31q0 5 3 16l43 223q7 36 11 59.5t4 37.5q0 28 -18 28q-46 0 -176 -196l-40 -188l-71 -26l69 347q1 5 1.5 11.5t0.5 12.5q0 19 -7 19
q-13 0 -50 -43l-14 23q12 17 28.5 34.5t33.5 32t34 24t31 9.5q11 0 16.5 -7.5t5.5 -27.5q0 -8 -1 -19t-4 -28.5t-8.5 -43.5t-14.5 -65q135 194 220 194q15 0 26.5 -17t11.5 -53q0 -23 -4.5 -49t-9.5 -52z" />
    <glyph glyph-name="o" unicode="o" horiz-adv-x="434" 
d="M290 455q34 0 60 -14t43.5 -38.5t26.5 -57.5t9 -71q0 -69 -21 -123.5t-53.5 -93t-72 -58.5t-76.5 -20q-36 0 -63 14t-45 38t-27.5 57.5t-9.5 72.5q0 67 21.5 121.5t54.5 93t73.5 59t79.5 20.5zM281 418q-45 0 -72.5 -29t-42.5 -70.5t-20 -87.5t-5 -80q0 -25 3.5 -48
t12 -41t23 -28.5t37.5 -10.5q43 0 70 28t41 69t19 86t5 80q0 25 -3 49t-11 42.5t-21.5 29.5t-35.5 11z" />
    <glyph glyph-name="p" unicode="p" horiz-adv-x="446" 
d="M225 442q29 13 89 13q30 0 54.5 -7.5t42 -26t27 -49t9.5 -75.5q0 -60 -19 -116t-52.5 -99t-80.5 -69t-104 -26q-10 0 -21 3t-16 8l-18 -98q-4 -11 -4 -27q0 -21 12 -29.5t53 -8.5l-6 -29h-191l6 29q43 0 49 33l91 511q-14 -4 -34 -15t-46 -28l-8 32q27 17 48.5 29
t38.5 20l11 52l90 56zM165 58q6 -6 13.5 -16.5t30.5 -10.5q33 0 62 23.5t50.5 60.5t34 83t12.5 92q0 33 -8 55t-21.5 35.5t-31 19.5t-36.5 6q-12 0 -25 -1t-27 -4z" />
    <glyph glyph-name="q" unicode="q" horiz-adv-x="417" 
d="M349 -103q-1 -4 -1.5 -8.5t-0.5 -10.5q0 -14 8 -28.5t38 -14.5l-4 -29h-194l4 29q64 0 75 62l46 257q-12 -18 -33.5 -46t-48 -54.5t-57 -45.5t-60.5 -19q-23 0 -36.5 8.5t-20.5 23t-9.5 34t-2.5 42.5q0 88 27.5 155.5t69.5 112.5t92 68t95 23q40 0 61.5 -8t36.5 -21z
M354 389q-14 14 -32.5 17.5t-36.5 3.5q-24 0 -51.5 -19.5t-51 -54.5t-39 -84.5t-15.5 -109.5q0 -32 3 -49t8 -25t11.5 -9.5t13.5 -1.5q23 0 48 20t48 47.5t41 56.5t27 47z" />
    <glyph glyph-name="r" unicode="r" horiz-adv-x="328" 
d="M64 353q12 17 27.5 34.5t32 32t33 24t30.5 9.5q10 0 16.5 -6t6.5 -23q0 -13 -2 -44.5t-15 -79.5q13 28 30 56.5t35.5 51.5t37.5 37t36 14t29 -12t12 -35q0 -29 -10.5 -45.5t-29.5 -16.5q-11 0 -16 3.5t-8.5 7t-8.5 7t-15 3.5q-16 0 -39.5 -36t-61.5 -114l-37 -212
l-71 -26l61 347q1 6 1.5 12t0.5 12q0 19 -8 19q-5 0 -20 -11t-35 -32z" />
    <glyph glyph-name="s" unicode="s" horiz-adv-x="303" 
d="M314 393q0 -14 -8.5 -28t-20.5 -14q-17 0 -24 8.5t-13 19t-15 19.5t-29 9q-8 0 -17 -2.5t-17 -8.5t-13.5 -17t-5.5 -28q0 -21 10.5 -37.5t26 -31.5t33.5 -29.5t33.5 -31.5t26 -37t10.5 -46q0 -32 -15.5 -59t-39.5 -47.5t-52.5 -32t-53.5 -11.5q-26 0 -44.5 8t-30 19.5
t-17 24t-5.5 21.5q0 13 4.5 22t10.5 15t12 9t9 3q15 0 20.5 -11.5l12 -26t19.5 -26t43 -11.5q27 0 45 16t18 51q0 22 -10.5 38.5t-25.5 30.5t-33.5 26.5t-33.5 27.5t-25.5 34.5t-10.5 46.5q0 31 13 58.5t35 47t50.5 31t59.5 11.5q21 0 34 -7t20.5 -17t10.5 -20t3 -17z" />
    <glyph glyph-name="t" unicode="t" horiz-adv-x="268" 
d="M220 444h60q12 0 21.5 2.5t17.5 5.5l-28 -46l-80 -3l-48 -271q-2 -9 -4 -21.5t-2 -20.5q0 -11 3 -18.5t11 -7.5q11 0 30.5 13.5t36.5 35.5l13 -23q-11 -17 -29 -34.5t-38 -32t-40.5 -24t-35.5 -9.5q-14 0 -23.5 10t-10.5 30q0 4 0.5 7.5t0.5 7.5l63 357h-64l19 42h53
l19 94l60 60l24 -13z" />
    <glyph glyph-name="u" unicode="u" horiz-adv-x="464" 
d="M391 109q-1 -5 -1.5 -11t-0.5 -13q0 -20 8 -20q10 0 49 44l13 -24q-12 -17 -28 -34.5t-33.5 -32t-35 -24t-30.5 -9.5q-12 0 -17 8t-5 31q0 8 1.5 19t4.5 28.5t9 43l15 62.5q-69 -100 -119.5 -147t-92.5 -47q-17 0 -27.5 18.5t-10.5 55.5q0 22 4 46t9 50l29 153
q4 15 5 25.5t1 16.5q0 21 -7 21q-11 0 -50 -44l-12 24q11 16 28 34t35.5 32.5t36.5 24t32 9.5q13 0 18 -9.5t5 -36.5q0 -4 -2 -10l-44 -222q-15 -75 -15 -101q0 -25 19 -25q23 0 62 48t105 148l40 189l71 26z" />
    <glyph glyph-name="v" unicode="v" horiz-adv-x="391" 
d="M219 91q22 30 45.5 68t43 76t32.5 72t13 57q0 9 -2 14.5t-5 10t-5 9t-2 11.5q0 20 13 31.5t28 11.5q23 0 31.5 -15t8.5 -40q0 -18 -6.5 -39t-24.5 -54.5t-49.5 -84l-81.5 -128.5l-66 -103l-34 -9l-32 377q-2 18 -10 18q-6 0 -17 -10t-24 -32l-16 21q6 17 18 34.5t26 32
t29.5 24t28.5 9.5q2 0 8 -3t12.5 -10t12 -17t6.5 -25z" />
    <glyph glyph-name="w" unicode="w" horiz-adv-x="606" 
d="M434 90l1 1l43.5 67.5t43 73t32.5 70t13 57.5q0 20 -7 28t-7 20q0 21 12.5 33t29.5 12q20 0 29.5 -12.5t9.5 -34.5q0 -18 -5 -39t-22 -55t-49 -86.5t-86 -133.5l-69 -108l-25 -4l-32 320l-163 -316l-21 -4l-31 377q-3 18 -10 18q-14 0 -41 -42l-16 21q7 16 18.5 34
t25 32.5t28.5 24t29 9.5t25.5 -13t13.5 -42l18 -272l155 318h25z" />
    <glyph glyph-name="x" unicode="x" horiz-adv-x="425" 
d="M263 286q43 81 77 124t75 43q4 0 10.5 -3t12.5 -8t10.5 -13t4.5 -17q0 -20 -8 -33.5t-19 -13.5q-9 0 -13.5 3.5t-8 7t-8 7t-11.5 3.5q-9 0 -22 -10t-28 -28t-31 -42.5t-31 -52.5l39 -121q21 -66 47 -66q20 0 49 47l23 -23q-6 -13 -18.5 -30t-27.5 -32.5t-31 -26.5
t-28 -11q-24 0 -34.5 13t-20.5 42l-45 129l-45 -81.5t-39 -57.5t-38.5 -34t-43.5 -11q-9 0 -22 11.5t-15 29.5q0 20 8 34t18 14q9 0 14 -3.5t9 -7.5t8 -7.5t11 -3.5q12 0 24 8.5t26.5 26.5t32 47l40.5 70l-46 150q-5 18 -21 18q-11 0 -25 -16t-20 -31l-25 23q9 18 22 36
t27.5 32.5t29.5 23t27 8.5q30 0 46 -55z" />
    <glyph glyph-name="y" unicode="y" horiz-adv-x="391" 
d="M231 92q21 31 43 68.5t39 74.5t28 71t11 58q0 9 -2 14.5t-5 10t-5 9t-2 11.5q0 20 13.5 31.5t27.5 11.5q23 0 31.5 -15.5t8.5 -41.5q0 -18 -6 -39.5t-22.5 -56t-46.5 -86l-78 -128.5l-85 -131.5t-62.5 -86.5t-44 -47t-29.5 -14q-35 0 -35 32q0 17 6.5 25t17.5 13t25.5 10
t32 16.5t36.5 32.5t38 58l-33 363q-2 18 -10 18q-6 0 -17 -10t-24 -32l-16 21q7 16 19 33.5t26 32.5t28.5 24.5t28.5 9.5t25.5 -13t13.5 -42z" />
    <glyph glyph-name="z" unicode="z" horiz-adv-x="378" 
d="M128 93q7 4 19 4q16 0 32 -7.5t31 -16.5l28.5 -16.5t25.5 -7.5q34 0 57.5 25.5t49.5 73.5l21 -11q-12 -32 -26 -60.5t-29.5 -51t-33.5 -35.5t-39 -13q-30 0 -50.5 10t-37.5 22t-33.5 22t-40.5 10q-21 0 -34 -14.5t-21 -35.5l-15 19q4 23 15 43t27 38l253 292
q-24 -10 -59 -10q-25 0 -46.5 6t-36.5 6q-25 0 -46.5 -17.5t-43.5 -70.5l-24 14q4 18 11.5 42t20 45t29.5 35.5t41 14.5q49 0 85 -10t63 -10q23 0 42 7.5t31 30.5l31 -24z" />
    <glyph glyph-name="braceleft" unicode="{" horiz-adv-x="233" 
d="M303 720q-39 -11 -71 -46l-45 -315l-38 -36l28 -36l-41 -289q4 -24 18.5 -40.5t36.5 -24.5l-4 -22q-66 6 -112 52l44 304l-43 56l58 55l41 286q23 30 57.5 48t72.5 25z" />
    <glyph glyph-name="bar" unicode="|" horiz-adv-x="283" 
d="M140 -113q-3 -13 -23 -13q-14 0 -19 3t-5 10l126 879q0 12 23 12q14 0 18.5 -3t4.5 -9z" />
    <glyph glyph-name="braceright" unicode="}" horiz-adv-x="233" 
d="M204 381l42 -56l-58 -55l-41 -286q-23 -30 -57 -48t-73 -25l3 17q39 10 70 46l45 315l39 36l-28 36l40 289q-3 24 -17.5 40.5t-36.5 24.5l3 22q66 -6 112 -51z" />
    <glyph glyph-name="asciitilde" unicode="~" horiz-adv-x="531" 
d="M521 389q-19 -49 -57.5 -79.5t-86.5 -30.5q-26 0 -46.5 11.5t-38.5 25t-37 25t-42 11.5q-26 0 -51.5 -19t-45.5 -48l-24 15q10 25 26 45t35.5 34.5t40.5 22.5t40 8q39 0 59 -11t34.5 -24.5t29.5 -24.5t42 -11q25 0 49.5 15t48.5 53z" />
    <glyph glyph-name="exclamdown" unicode="&#xa1;" horiz-adv-x="251" 
d="M201 437q-7 -89 -11 -152t-5.5 -106.5t-2 -71t-0.5 -46.5t-0.5 -32.5t-2.5 -28.5q-7 -39 -25.5 -58t-44.5 -19q-49 0 -49 52q0 6 0.5 12t2.5 13q2 15 4.5 28.5t7 32.5l11.5 46.5l18.5 71l28 106.5l39.5 152h29zM274 608q0 -42 -20.5 -63.5t-55.5 -21.5q-54 0 -54 50
q0 45 19.5 66t54.5 21q56 0 56 -52z" />
    <glyph glyph-name="cent" unicode="&#xa2;" horiz-adv-x="407" 
d="M311 563q54 0 88 -24.5t34 -64.5q0 -25 -18.5 -45t-42.5 -20q-33 0 -33 36q0 6 5 21t5 32q0 28 -42 33l-55 -381q80 0 127 65l22 -17q-12 -26 -31 -45.5t-40.5 -33t-44 -21t-41.5 -9.5l-29 -202q-3 -13 -16 -13q-17 0 -17 10q0 1 0.5 1.5t0.5 1.5l28 202q-70 4 -105 53
t-35 124q0 51 14 100t40.5 88.5t65 67.5t87.5 37l30 207q1 12 16 12q10 0 13 -3t3 -9zM273 527q-29 -12 -50 -39.5t-34 -61t-19 -68.5t-6 -63q0 -49 14 -85t43 -52z" />
    <glyph glyph-name="sterling" unicode="&#xa3;" horiz-adv-x="571" 
d="M442 271h-156q-16 -26 -31.5 -46t-32 -37.5t-34.5 -32.5t-40 -31q46 21 80 21q23 0 51.5 -19.5t50.5 -54.5q8 -14 15.5 -23.5t17 -16.5t23 -10t32.5 -3q51 0 111 54l17 -16q-60 -72 -190 -72q-81 0 -114 67q-28 55 -80 55q-18 0 -34 -10.5t-30.5 -26t-27.5 -34.5l-25 -36
l-23 29q22 30 45.5 53.5t52.5 36.5q27 32 50.5 68.5t49.5 84.5h-69l6 41h84q21 43 38.5 89.5l35 91.5t37 85.5t45 71.5t59 49t79.5 18q51 0 74.5 -15.5t23.5 -44.5q0 -28 -13 -43t-31 -15q-35 0 -35 34q0 21 15 35q-17 14 -47 14q-29 0 -50 -16t-37 -44t-29.5 -64.5
t-27 -77.5t-30 -84.5t-38.5 -83.5h138z" />
    <glyph glyph-name="yen" unicode="&#xa5;" horiz-adv-x="594" 
d="M657 672q-44 0 -71 -40l-170 -288h138l-9 -65h-162l-10 -66h162l-9 -65h-162l-10 -71q0 -2 -0.5 -3t-0.5 -3q0 -39 76 -39l-3 -32h-251l4 32q84 0 91 49l10 67h-169l9 65h169l10 66h-170l9 65h143l-77 239q-15 45 -36.5 67t-41.5 22l4 33h226l-4 -33q-65 0 -65 -45
q0 -10 6 -28l80 -251l142 247q5 11 8.5 23.5t3.5 25.5q0 28 -61 28l5 33h190z" />
    <glyph glyph-name="brokenbar" unicode="&#xa6;" horiz-adv-x="283" 
d="M216 420q-2 -12 -24 -12q-14 0 -18.5 3t-4.5 9l50 346q0 12 23 12q14 0 18.5 -3t4.5 -9zM140 -113q-3 -13 -23 -13q-14 0 -19 3t-5 10l51 357q1 12 23 12q24 0 24 -12z" />
    <glyph glyph-name="section" unicode="&#xa7;" horiz-adv-x="362" 
d="M359 551q-30 109 -102 109q-13 0 -27.5 -4.5t-27 -13.5t-20.5 -23.5t-8 -33.5t15.5 -33t38.5 -26l49.5 -25t49.5 -30t38.5 -40t15.5 -56q0 -57 -33.5 -93t-82.5 -51q33 -8 54.5 -28t21.5 -57q0 -35 -13.5 -63t-35 -48.5t-49.5 -33.5t-58 -17q-47 0 -81 28
q-24 -20 -60 -24q-1 10 -1 19.5v20.5q0 60 9 126h26q6 -38 15 -64t21.5 -41.5t30.5 -22t42 -6.5q43 0 67 20.5t24 62.5q0 24 -15 39t-38 26t-49 21.5t-49 25.5t-38 36.5t-15 54.5q0 51 28.5 89.5t74.5 52.5q-29 16 -45.5 41.5t-16.5 55.5q0 31 10.5 58t30 47t47 31.5
t62.5 11.5q43 0 77 -25q18 14 40 21q3 -35 3 -66q0 -19 -1 -37t-3 -35h-22zM317 339q0 32 -25.5 57t-73.5 25q-15 0 -30 -4.5t-27 -14.5t-19.5 -25.5t-7.5 -37.5q0 -38 28.5 -59t64.5 -21q42 0 66 20.5t24 59.5z" />
    <glyph glyph-name="dieresis" unicode="&#xa8;" horiz-adv-x="333" 
d="M380 568q0 -29 -13.5 -43.5t-36.5 -14.5q-39 0 -39 36q0 29 14 43.5t39 14.5q36 0 36 -36zM198 568q0 -29 -14 -43.5t-37 -14.5q-38 0 -38 35q0 59 52 59q37 0 37 -36z" />
    <glyph glyph-name="copyright" unicode="&#xa9;" horiz-adv-x="746" 
d="M425 714q78 0 143.5 -27t113.5 -75t74.5 -115.5t26.5 -148.5q0 -77 -25.5 -143t-72 -115.5t-112.5 -77.5t-148 -28q-83 0 -149 28.5t-112.5 77.5t-71.5 115.5t-25 142.5q0 78 28 145t76.5 116t114 77t139.5 28zM428 677q-64 0 -120 -24t-97.5 -67.5t-65.5 -104
t-24 -133.5q0 -90 30 -152.5t75.5 -102t99.5 -57t102 -17.5q84 0 142 31.5t95 80t53.5 106.5t16.5 111q0 87 -30.5 149.5t-76 102t-99.5 58.5t-101 19zM557 417q-15 57 -48 82.5t-79 25.5q-32 0 -55 -13.5t-37.5 -35t-21.5 -49.5t-7 -57q0 -43 7.5 -78.5t23.5 -60.5t41 -39
t60 -14q23 0 41.5 4t34 15t28 29.5t23.5 47.5l24 -8q-6 -30 -21.5 -53.5t-37.5 -39t-49 -23.5t-56 -8q-42 0 -77 15.5t-60 43t-38.5 64.5t-13.5 79q0 47 15 86t40.5 67t60 43.5t73.5 15.5q44 0 85 -29q11 10 24.5 16.5t24.5 8.5q4 -5 12 -43t8 -92h-25z" />
    <glyph glyph-name="ordfeminine" unicode="&#xaa;" horiz-adv-x="256" 
d="M267 517q0 -2 -0.5 -3t-0.5 -3q0 -14 15 -14q7 0 16 6l5 -4q-12 -29 -43 -29q-29 0 -31 35q-41 -35 -80 -35q-45 0 -45 43q0 71 137 100l3 21q0 26 -5 40t-25 14q-17 0 -28.5 -4.5t-13.5 -24.5q1 -3 1.5 -5.5t0.5 -6.5q0 -25 -27 -25q-17 0 -17 18q0 13 8 25.5t21 22.5
t29 15.5t33 5.5q35 0 50.5 -12t15.5 -40q0 -5 -0.5 -10t-1.5 -11zM239 594q-16 -2 -32.5 -6.5t-30 -12.5t-22 -21.5t-8.5 -32.5q0 -27 28 -27q29 0 41.5 18.5t17.5 38.5z" />
    <glyph glyph-name="guillemotleft" unicode="&#xab;" horiz-adv-x="495" 
d="M480 420l-125 -155l80 -158l-18 -19l-148 177l198 176zM291 420l-125 -155l80 -158l-18 -19l-148 177l198 176z" />
    <glyph glyph-name="registered" unicode="&#xae;" horiz-adv-x="746" 
d="M425 714q78 0 143.5 -27t113.5 -75t74.5 -115.5t26.5 -148.5q0 -77 -25.5 -143t-72 -115.5t-112.5 -77.5t-148 -28q-83 0 -149 28.5t-112.5 77.5t-71.5 115.5t-25 142.5q0 78 28 145t76.5 116t114 77t139.5 28zM428 677q-64 0 -120 -24t-97.5 -67.5t-65.5 -104
t-24 -133.5q0 -90 30 -152.5t75.5 -102t99.5 -57t102 -17.5q84 0 142 31.5t95 80t53.5 106.5t16.5 111q0 87 -30.5 149.5t-76 102t-99.5 58.5t-101 19zM377 379q1 -9 14 -9h31q19 0 35.5 3t29 11.5t20 22.5t7.5 37q0 34 -28.5 49.5t-76.5 15.5q-32 0 -32 -33v-97zM642 204
q0 -8 -4 -18.5t-12 -19.5t-19 -15t-26 -6q-32 0 -50 14t-29 35.5t-17.5 46.5t-14.5 46.5t-21 35.5t-36 14h-18q-17 0 -18 -6v-113q0 -38 54 -38v-28h-166v28q52 0 52 38v258q0 37 -56 37v29h74q43 0 68 1t52 1q55 0 88 -28t33 -68q0 -41 -28.5 -64t-73.5 -38v-2
q21 -7 35.5 -22t24 -33t16 -37t13.5 -35t15 -26t21 -10t19 27z" />
    <glyph glyph-name="degree" unicode="&#xb0;" horiz-adv-x="321" 
d="M331 577q0 36 -25.5 61t-63.5 25q-39 0 -64.5 -25t-25.5 -61q0 -42 25.5 -65t64.5 -23q38 0 63.5 23t25.5 65zM95 577q0 28 11.5 53.5t31 44.5t46.5 30.5t58 11.5t58 -11.5t47 -30.5t32 -44.5t12 -53.5q0 -29 -12 -55t-32 -45.5t-47 -31t-58 -11.5t-58 11.5t-46.5 31
t-31 45.5t-11.5 55z" />
    <glyph glyph-name="twosuperior" unicode="&#xb2;" horiz-adv-x="310" 
d="M299 256h-186q-8 0 -21 -1l-26 -2l-1 27l87.5 86.5t72 83t48.5 78.5t18 74q0 54 -59 54q-58 0 -65 -37q16 -7 16 -28t-11 -31t-25 -10q-26 0 -26 35q0 60 38.5 90t101.5 30q97 0 97 -87q0 -79 -53 -149t-151 -147h83q28 0 43.5 9.5t31.5 44.5l28 -2z" />
    <glyph glyph-name="threesuperior" unicode="&#xb3;" horiz-adv-x="300" 
d="M177 473q-11 0 -11 12q0 25 17 25q40 0 65 27t25 76q0 47 -43 47q-45 0 -49 -16q8 -6 8 -21q0 -20 -10.5 -29.5t-24.5 -9.5q-25 0 -25 27q0 48 34.5 71.5t88.5 23.5q84 0 84 -76q0 -90 -72 -121q62 -14 62 -87q0 -88 -46 -131.5t-125 -43.5q-90 0 -90 58q0 51 42 51
q23 0 23 -20q0 -25 -15 -34q4 -12 29 -12q51 0 81 30.5t30 93.5q0 59 -49 59h-29z" />
    <glyph glyph-name="acute" unicode="&#xb4;" horiz-adv-x="256" 
d="M107 489q22 14 46.5 35l47.5 40t42 32.5t30 13.5q17 0 21.5 -9.5t4.5 -20.5q0 -18 -19.5 -32t-47.5 -27t-60.5 -25t-57.5 -25z" />
    <glyph glyph-name="paragraph" unicode="&#xb6;" horiz-adv-x="500" 
d="M570 672q-57 0 -66 -64l-86 -608h-58l65 463q-27 -13 -64 -24l-61 -439h-59l59 417q-36 -16 -81 -16q-30 0 -50.5 10.5t-34 28t-19.5 41t-6 49.5q0 81 40.5 128t115.5 47h309z" />
    <glyph glyph-name="periodcentered" unicode="&#xb7;" horiz-adv-x="224" 
d="M226 375q0 -42 -20 -63.5t-52 -21.5q-57 0 -57 52q0 42 20 63.5t57 21.5q52 0 52 -52z" />
    <glyph glyph-name="cedilla" unicode="&#xb8;" horiz-adv-x="166" 
d="M89 -44q39 0 54 -17t15 -39q0 -20 -9 -36t-24.5 -27t-36 -17.5t-43.5 -6.5l3 21q37 3 54 21t17 42q0 14 -5.5 22t-14 12t-18 5t-18.5 1l9 66h23z" />
    <glyph glyph-name="onesuperior" unicode="&#xb9;" horiz-adv-x="244" 
d="M260 707q-5 -16 -7 -28t-4 -20l-48 -334q0 -18 13.5 -26.5t49.5 -8.5l-4 -34h-202l5 34q70 0 75 35l40 283q0 20 -13 20h-55l4 32q24 4 40 8t29 9.5t25.5 14t29.5 22.5z" />
    <glyph glyph-name="ordmasculine" unicode="&#xba;" horiz-adv-x="256" 
d="M227 711q40 0 62 -28t22 -70q0 -33 -10.5 -60t-28 -46t-39 -29t-42.5 -10q-42 0 -66 28t-24 70q0 33 11.5 60t29.5 45.5t40.5 29t44.5 10.5zM222 692q-26 0 -40.5 -14t-21.5 -33.5t-9 -40t-2 -33.5q0 -15 1.5 -30.5t6 -27.5t13.5 -19.5t24 -7.5q25 0 40 14t22 33.5
t9 39.5t2 32q0 16 -1.5 31.5t-6 28t-13.5 20t-24 7.5z" />
    <glyph glyph-name="guillemotright" unicode="&#xbb;" horiz-adv-x="495" 
d="M268 264l-197 -176l-13 21l124 155l-80 158l19 19zM458 264l-199 -176l-13 21l126 155l-81 158l18 19z" />
    <glyph glyph-name="onequarter" unicode="&#xbc;" horiz-adv-x="724" 
d="M288 707q-5 -16 -7 -28t-4 -20l-48 -334q0 -18 13.5 -26.5t48.5 -8.5l-4 -34h-201l5 34q69 0 74 35l41 283q0 20 -14 20h-54l4 32q24 4 40 7.5t28.5 9t25 14.5t29.5 23zM205 0h-48l460 705h52zM675 450l-10.5 -32.5t-6.5 -26.5l-29 -207q0 -1 -1 -2q0 -3 3 -3h22
q12 0 36 8l-9 -64h-57q-3 0 -4 -6l-9 -63q0 -11 5 -16t19 -5l-17 -33h-103l3 33q30 0 33 21l9 63q0 6 -5 6h-146l6 35l230 294zM471 179h91q5 0 7 5l19 144z" />
    <glyph glyph-name="onehalf" unicode="&#xbd;" horiz-adv-x="724" 
d="M288 707q-5 -16 -7 -28t-4 -20l-48 -334q0 -18 13.5 -26.5t48.5 -8.5l-4 -34h-201l5 34q69 0 74 35l41 283q0 20 -14 20h-54l4 32q24 4 40 7.5t28.5 9t25 14.5t29.5 23zM205 0h-48l460 705h52zM663 0h-184q-10 0 -24 -1t-26 -2l-1 27l88 87.5t72 82.5t48.5 78t17.5 75
q0 53 -58 53t-65 -37q15 -8 15 -25q0 -44 -37 -44q-24 0 -24 32q0 60 38 91.5t102 31.5q96 0 96 -85q0 -80 -52 -150t-152 -148h84q15 0 25 2t18.5 7.5t15.5 16t15 27.5l29 -2z" />
    <glyph glyph-name="threequarters" unicode="&#xbe;" horiz-adv-x="724" 
d="M205 0h-48l460 705h52zM675 450l-10.5 -32.5t-6.5 -26.5l-29 -207q0 -1 -1 -2q0 -3 3 -3h22q12 0 36 8l-9 -64h-57q-3 0 -4 -6l-9 -63q0 -11 5 -16t19 -5l-17 -33h-103l3 33q30 0 33 21l9 63q0 6 -5 6h-146l6 35l230 294zM471 179h91q5 0 7 5l19 144zM177 473
q-11 0 -11 12q0 25 17 25q40 0 65 27t25 76q0 47 -43 47q-45 0 -49 -16q8 -6 8 -21q0 -20 -10.5 -29.5t-24.5 -9.5q-25 0 -25 27q0 48 34.5 71.5t88.5 23.5q84 0 84 -76q0 -90 -72 -121q62 -14 62 -87q0 -88 -46 -131.5t-125 -43.5q-90 0 -90 58q0 51 42 51q23 0 23 -20
q0 -25 -15 -34q4 -12 29 -12q51 0 81 30.5t30 93.5q0 59 -49 59h-29z" />
    <glyph glyph-name="questiondown" unicode="&#xbf;" horiz-adv-x="355" 
d="M273 429q5 -18 5 -32q0 -43 -12 -75t-29.5 -57.5t-38 -47.5t-38 -46.5t-29.5 -54t-12 -68.5q0 -34 17.5 -53t62.5 -19q14 0 31.5 6t23.5 22l1 8q0 4 -1.5 6t-1.5 6q8 53 48 53q26 0 26 -35q0 -31 -11.5 -53.5t-31 -37t-44.5 -21.5t-52 -7q-67 0 -108 32t-41 93
q0 6 0.5 12t1.5 13q5 43 21 74t37 55t44.5 43.5t44 39.5t35.5 44t20 56l6 44h25zM352 598q0 -42 -21 -63t-56 -21q-53 0 -53 52q0 43 20 64.5t53 21.5q57 0 57 -54z" />
    <glyph glyph-name="Agrave" unicode="&#xc0;" horiz-adv-x="613" 
d="M565 77q3 -13 7.5 -21t13 -12.5t20.5 -6.5l29 -5l-3 -32h-263l3 32l28.5 4.5t29 5.5t22 8t8.5 11q-3 5 -2 11.5t-1 20.5l-24 130q-3 14 -20.5 21t-34.5 7h-142q-38 0 -48 -28l-49 -110q-2 -7 -5 -16t-3 -19q0 -42 78 -42l-4 -36h-215l6 36q27 2 48 21.5t40 55.5l317 608
l27 -12zM250 348q-16 -25 -16 -39q0 -13 33 -13h121q17 0 23.5 3.5t6.5 11.5q0 5 -1.5 13t-3.5 20l-48 227zM488 742q-20 12 -46.5 24t-50.5 24t-40.5 24.5t-16.5 26.5q0 11 7 25.5t29 14.5q14 -4 29 -18t31.5 -32l34 -37.5t36.5 -33.5z" />
    <glyph glyph-name="Aacute" unicode="&#xc1;" horiz-adv-x="613" 
d="M565 77q3 -13 7.5 -21t13 -12.5t20.5 -6.5l29 -5l-3 -32h-263l3 32l28.5 4.5t29 5.5t22 8t8.5 11q-3 5 -2 11.5t-1 20.5l-24 130q-3 14 -20.5 21t-34.5 7h-142q-38 0 -48 -28l-49 -110q-2 -7 -5 -16t-3 -19q0 -42 78 -42l-4 -36h-215l6 36q27 2 48 21.5t40 55.5l317 608
l27 -12zM250 348q-16 -25 -16 -39q0 -13 33 -13h121q17 0 23.5 3.5t6.5 11.5q0 5 -1.5 13t-3.5 20l-48 227zM322 760q22 14 46.5 35l47.5 40t42 32.5t30 13.5q17 0 21.5 -9.5t4.5 -20.5q0 -18 -19.5 -32t-47.5 -27t-60.5 -25t-57.5 -25z" />
    <glyph glyph-name="Acircumflex" unicode="&#xc2;" horiz-adv-x="613" 
d="M565 77q3 -13 7.5 -21t13 -12.5t20.5 -6.5l29 -5l-3 -32h-263l3 32l28.5 4.5t29 5.5t22 8t8.5 11q-3 5 -2 11.5t-1 20.5l-24 130q-3 14 -20.5 21t-34.5 7h-142q-38 0 -48 -28l-49 -110q-2 -7 -5 -16t-3 -19q0 -42 78 -42l-4 -36h-215l6 36q27 2 48 21.5t40 55.5l317 608
l27 -12zM250 348q-16 -25 -16 -39q0 -13 33 -13h121q17 0 23.5 3.5t6.5 11.5q0 5 -1.5 13t-3.5 20l-48 227zM518 765l-14 -12l-85 58l-103 -58l-10 12l123 116z" />
    <glyph glyph-name="Atilde" unicode="&#xc3;" horiz-adv-x="613" 
d="M565 77q3 -13 7.5 -21t13 -12.5t20.5 -6.5l29 -5l-3 -32h-263l3 32l28.5 4.5t29 5.5t22 8t8.5 11q-3 5 -2 11.5t-1 20.5l-24 130q-3 14 -20.5 21t-34.5 7h-142q-38 0 -48 -28l-49 -110q-2 -7 -5 -16t-3 -19q0 -42 78 -42l-4 -36h-215l6 36q27 2 48 21.5t40 55.5l317 608
l27 -12zM250 348q-16 -25 -16 -39q0 -13 33 -13h121q17 0 23.5 3.5t6.5 11.5q0 5 -1.5 13t-3.5 20l-48 227zM564 864q-14 -37 -40.5 -60.5t-58.5 -23.5q-17 0 -30 8.5t-25 19t-24 19.5t-28 9q-17 0 -34 -14.5t-31 -37.5l-17 12q14 38 42.5 61.5t54.5 23.5q25 0 38.5 -8.5
t22.5 -19t19 -19t28 -8.5q17 0 33.5 11.5t33.5 41.5z" />
    <glyph glyph-name="Adieresis" unicode="&#xc4;" horiz-adv-x="613" 
d="M565 77q3 -13 7.5 -21t13 -12.5t20.5 -6.5l29 -5l-3 -32h-263l3 32l28.5 4.5t29 5.5t22 8t8.5 11q-3 5 -2 11.5t-1 20.5l-24 130q-3 14 -20.5 21t-34.5 7h-142q-38 0 -48 -28l-49 -110q-2 -7 -5 -16t-3 -19q0 -42 78 -42l-4 -36h-215l6 36q27 2 48 21.5t40 55.5l317 608
l27 -12zM250 348q-16 -25 -16 -39q0 -13 33 -13h121q17 0 23.5 3.5t6.5 11.5q0 5 -1.5 13t-3.5 20l-48 227zM557 839q0 -29 -13.5 -43.5t-36.5 -14.5q-39 0 -39 36q0 29 14 43.5t39 14.5q36 0 36 -36zM375 839q0 -29 -14 -43.5t-37 -14.5q-38 0 -38 35q0 59 52 59
q37 0 37 -36z" />
    <glyph glyph-name="Aring" unicode="&#xc5;" horiz-adv-x="613" 
d="M565 77l5.5 -13t9 -11.5t19 -10.5t36.5 -10l-3 -32h-263l3 32q13 1 28.5 3.5t28 6t21.5 8.5t10 11q-2 1 -1 9t-2 23l-24 130q-3 14 -19 21t-36 7h-142q-38 0 -48 -28l-49 -110q-2 -7 -5 -16t-3 -19q0 -42 78 -42l-4 -36h-215l6 36q51 5 88 77l288 556q-26 11 -41.5 34
t-15.5 54q0 24 10 46.5t26.5 39.5t38.5 27.5t47 10.5q42 0 68.5 -27.5t26.5 -65.5q0 -21 -8 -40.5t-21 -35.5t-31 -27.5t-37 -16.5zM250 348q-8 -16 -12.5 -24t-3.5 -14q0 -8 7.5 -11t25.5 -3h121q17 0 23.5 3.5t6.5 11.5q0 5 -1.5 13t-3.5 20l-48 227zM488 783
q0 24 -15.5 40t-41.5 16q-31 0 -53.5 -23t-22.5 -54q0 -27 16 -41.5t41 -14.5q28 0 52 20.5t24 56.5z" />
    <glyph glyph-name="AE" unicode="&#xc6;" horiz-adv-x="867" 
d="M876 506l-29 -4q-2 58 -14.5 90t-35 47t-53 18t-68.5 3h-25q-45 0 -61.5 -12t-19.5 -36l-27 -191q0 -2 -0.5 -4t-0.5 -4q0 -24 19 -24h32q25 0 46 3t38 14t30.5 34t22.5 62h37l-40 -275h-37q0 7 0.5 13.5t0.5 12.5q0 30 -5.5 48t-18 27.5t-32.5 12.5t-48 3h-11
q-45 0 -49 -36l-29 -203q-1 -1 -1 -10q0 -50 70 -50h29q61 0 99.5 10.5t64 32t43.5 54t39 77.5l25 -8l-54 -211h-511l4 32q85 0 96 69l19 128q0 22 -19 22h-166q-38 0 -48 -28l-49 -110q-2 -6 -5 -16t-3 -19q0 -42 78 -42l-4 -36h-215l6 36q53 5 88 77l269 512q2 6 3 7
q0 12 -17 18t-55 6l7 49h606zM434 656q-26 0 -42 -33l-142 -275q-16 -25 -16 -39q0 -13 33 -13h141q19 0 25 19l46 317q0 12 -4.5 18t-18.5 6h-22z" />
    <glyph glyph-name="Ccedilla" unicode="&#xc7;" horiz-adv-x="626" 
d="M618 470q-8 103 -54.5 154.5t-119.5 51.5q-68 0 -115 -39t-76.5 -98t-43 -130t-13.5 -134q0 -54 9.5 -98.5t30.5 -77t54 -50t80 -17.5q36 0 66.5 8.5t58 29.5t53 56t52.5 89l27 -12q-17 -55 -46.5 -96t-67.5 -68.5t-82 -41t-90 -13.5h-9.5t-9.5 1l-4 -29q40 0 55 -17.5
t15 -39.5q0 -19 -9.5 -35t-25 -27t-36.5 -17.5t-43 -6.5l3 21q38 3 54.5 21.5t16.5 43.5q0 13 -5.5 20.5t-13.5 11.5t-18 5t-19 1l7 50q-50 7 -89 31t-66 61t-41.5 85.5t-14.5 105.5q0 96 31 178t81 142t114.5 93.5t130.5 33.5q74 0 132 -49q37 37 75 45q3 -5 6 -30.5
t3 -67.5q0 -31 -2 -67t-8 -78h-33z" />
    <glyph glyph-name="Egrave" unicode="&#xc8;" horiz-adv-x="617" 
d="M627 506l-30 -4q-1 58 -14.5 90t-36 47t-53.5 18t-67 3h-26q-43 0 -60 -12t-20 -36l-27 -191q0 -2 -0.5 -4t-0.5 -4q0 -24 19 -24h33q24 0 45 3t38.5 14t30.5 34t22 62h36l-39 -275h-36q0 7 0.5 13t0.5 12q0 30 -6 48.5t-18.5 28t-32.5 12.5t-48 3h-10q-46 0 -50 -36
l-29 -203q-1 -1 -1 -10q0 -50 70 -50h29q61 0 99 10.5t64 31.5t44.5 54t39.5 78l24 -8l-54 -211h-510l4 32q38 0 64.5 17.5t31.5 51.5l69 482q1 5 1 9.5v9.5q0 70 -83 70l5 33h503zM490 742q-20 12 -46.5 24t-50.5 24t-40.5 24.5t-16.5 26.5q0 11 7 25.5t29 14.5
q14 -4 29 -18t31.5 -32l34 -37.5t36.5 -33.5z" />
    <glyph glyph-name="Eacute" unicode="&#xc9;" horiz-adv-x="617" 
d="M627 506l-30 -4q-1 58 -14.5 90t-36 47t-53.5 18t-67 3h-26q-43 0 -60 -12t-20 -36l-27 -191q0 -2 -0.5 -4t-0.5 -4q0 -24 19 -24h33q24 0 45 3t38.5 14t30.5 34t22 62h36l-39 -275h-36q0 7 0.5 13t0.5 12q0 30 -6 48.5t-18.5 28t-32.5 12.5t-48 3h-10q-46 0 -50 -36
l-29 -203q-1 -1 -1 -10q0 -50 70 -50h29q61 0 99 10.5t64 31.5t44.5 54t39.5 78l24 -8l-54 -211h-510l4 32q38 0 64.5 17.5t31.5 51.5l69 482q1 5 1 9.5v9.5q0 70 -83 70l5 33h503zM324 760q22 14 46.5 35l47.5 40t42 32.5t30 13.5q17 0 21.5 -9.5t4.5 -20.5
q0 -18 -19.5 -32t-47.5 -27t-60.5 -25t-57.5 -25z" />
    <glyph glyph-name="Ecircumflex" unicode="&#xca;" horiz-adv-x="617" 
d="M627 506l-30 -4q-1 58 -14.5 90t-36 47t-53.5 18t-67 3h-26q-43 0 -60 -12t-20 -36l-27 -191q0 -2 -0.5 -4t-0.5 -4q0 -24 19 -24h33q24 0 45 3t38.5 14t30.5 34t22 62h36l-39 -275h-36q0 7 0.5 13t0.5 12q0 30 -6 48.5t-18.5 28t-32.5 12.5t-48 3h-10q-46 0 -50 -36
l-29 -203q-1 -1 -1 -10q0 -50 70 -50h29q61 0 99 10.5t64 31.5t44.5 54t39.5 78l24 -8l-54 -211h-510l4 32q38 0 64.5 17.5t31.5 51.5l69 482q1 5 1 9.5v9.5q0 70 -83 70l5 33h503zM520 765l-14 -12l-85 58l-103 -58l-10 12l123 116z" />
    <glyph glyph-name="Edieresis" unicode="&#xcb;" horiz-adv-x="617" 
d="M627 506l-30 -4q-1 58 -14.5 90t-36 47t-53.5 18t-67 3h-26q-43 0 -60 -12t-20 -36l-27 -191q0 -2 -0.5 -4t-0.5 -4q0 -24 19 -24h33q24 0 45 3t38.5 14t30.5 34t22 62h36l-39 -275h-36q0 7 0.5 13t0.5 12q0 30 -6 48.5t-18.5 28t-32.5 12.5t-48 3h-10q-46 0 -50 -36
l-29 -203q-1 -1 -1 -10q0 -50 70 -50h29q61 0 99 10.5t64 31.5t44.5 54t39.5 78l24 -8l-54 -211h-510l4 32q38 0 64.5 17.5t31.5 51.5l69 482q1 5 1 9.5v9.5q0 70 -83 70l5 33h503zM559 839q0 -29 -13.5 -43.5t-36.5 -14.5q-39 0 -39 36q0 29 14 43.5t39 14.5q36 0 36 -36z
M377 839q0 -29 -14 -43.5t-37 -14.5q-38 0 -38 35q0 59 52 59q37 0 37 -36z" />
    <glyph glyph-name="Igrave" unicode="&#xcc;" horiz-adv-x="372" 
d="M417 672q-88 0 -101 -93l-68 -474q-1 -3 -1 -6.5v-6.5q0 -60 83 -60l-3 -32h-278l4 32q91 0 101 73l67 474q1 5 1.5 10.5t0.5 10.5q0 72 -83 72l5 33h276zM367 742q-20 12 -46.5 24t-50.5 24t-40.5 24.5t-16.5 26.5q0 11 7 25.5t29 14.5q14 -4 29 -18t31.5 -32l34 -37.5
t36.5 -33.5z" />
    <glyph glyph-name="Iacute" unicode="&#xcd;" horiz-adv-x="372" 
d="M417 672q-88 0 -101 -93l-68 -474q-1 -3 -1 -6.5v-6.5q0 -60 83 -60l-3 -32h-278l4 32q91 0 101 73l67 474q1 5 1.5 10.5t0.5 10.5q0 72 -83 72l5 33h276zM201 760q22 14 46.5 35l47.5 40t42 32.5t30 13.5q17 0 21.5 -9.5t4.5 -20.5q0 -18 -19.5 -32t-47.5 -27t-60.5 -25
t-57.5 -25z" />
    <glyph glyph-name="Icircumflex" unicode="&#xce;" horiz-adv-x="372" 
d="M417 672q-88 0 -101 -93l-68 -474q-1 -3 -1 -6.5v-6.5q0 -60 83 -60l-3 -32h-278l4 32q91 0 101 73l67 474q1 5 1.5 10.5t0.5 10.5q0 72 -83 72l5 33h276zM398 765l-14 -12l-85 58l-103 -58l-10 12l123 116z" />
    <glyph glyph-name="Idieresis" unicode="&#xcf;" horiz-adv-x="372" 
d="M417 672q-88 0 -101 -93l-68 -474q-1 -3 -1 -6.5v-6.5q0 -60 83 -60l-3 -32h-278l4 32q91 0 101 73l67 474q1 5 1.5 10.5t0.5 10.5q0 72 -83 72l5 33h276zM436 839q0 -29 -13.5 -43.5t-36.5 -14.5q-39 0 -39 36q0 29 14 43.5t39 14.5q36 0 36 -36zM254 839
q0 -29 -14 -43.5t-37 -14.5q-38 0 -38 35q0 59 52 59q37 0 37 -36z" />
    <glyph glyph-name="Eth" unicode="&#xd0;" horiz-adv-x="725" 
d="M145 705q20 -3 40.5 -3.5t42.5 -0.5q29 0 54.5 1t50 2.5l51 3t57.5 1.5q147 0 220 -72t73 -209q0 -97 -27 -176t-82 -135t-138.5 -86.5t-196.5 -30.5h-241l4 32q28 0 46 3t29.5 13.5t17.5 30t11 51.5l30 205h-51l9 65h51l24 171v25q0 11 4 18q0 20 -5.5 29.5t-16 14.5
t-26 7t-36.5 7zM388 664q-18 0 -30 -2t-20 -8.5t-12.5 -19.5t-7.5 -35l-27 -199h173l-9 -65h-173l-31 -213q-3 -20 -3 -33q0 -17 4.5 -26.5t13.5 -14.5t23.5 -6t34.5 -1h29q112 0 177.5 75.5t88.5 235.5q4 25 5.5 47.5t1.5 42.5q0 115 -51.5 168.5t-148.5 53.5h-38z" />
    <glyph glyph-name="Ntilde" unicode="&#xd1;" horiz-adv-x="711" 
d="M795 672q-89 0 -105 -117l-79 -559l-26 -8l-339 599l-60 -429q-3 -20 -3 -36q0 -90 84 -90l-3 -32h-231l4 32q81 0 99 126l66 470q0 22 -19 33t-70 11l5 33h175l300 -531l54 381q3 18 3 33q0 84 -84 84l4 33h230zM614 864q-14 -37 -40.5 -60.5t-58.5 -23.5q-17 0 -30 8.5
t-25 19t-24 19.5t-28 9q-17 0 -34 -14.5t-31 -37.5l-17 12q14 38 42.5 61.5t54.5 23.5q25 0 38.5 -8.5t22.5 -19t19 -19t28 -8.5q17 0 33.5 11.5t33.5 41.5z" />
    <glyph glyph-name="Ograve" unicode="&#xd2;" horiz-adv-x="715" 
d="M441 680q-64 0 -111 -37t-78 -97t-46.5 -135.5t-15.5 -151.5q0 -52 10 -95t31 -74t53.5 -48.5t77.5 -17.5q60 0 107.5 33.5t81 90.5t51.5 132t18 158q0 50 -9.5 94t-31 77t-55.5 52t-83 19zM453 717q62 0 112.5 -22t86.5 -61.5t55.5 -94.5t19.5 -120q0 -74 -28.5 -151.5
t-78.5 -140.5t-119.5 -103t-151.5 -40q-62 0 -111 23t-83.5 63t-53 94.5t-18.5 118.5q0 78 28 155.5t77.5 139.5t117 100.5t147.5 38.5zM538 742q-20 12 -46.5 24t-50.5 24t-40.5 24.5t-16.5 26.5q0 11 7 25.5t29 14.5q14 -4 29 -18t31.5 -32l34 -37.5t36.5 -33.5z" />
    <glyph glyph-name="Oacute" unicode="&#xd3;" horiz-adv-x="715" 
d="M441 680q-64 0 -111 -37t-78 -97t-46.5 -135.5t-15.5 -151.5q0 -52 10 -95t31 -74t53.5 -48.5t77.5 -17.5q60 0 107.5 33.5t81 90.5t51.5 132t18 158q0 50 -9.5 94t-31 77t-55.5 52t-83 19zM453 717q62 0 112.5 -22t86.5 -61.5t55.5 -94.5t19.5 -120q0 -74 -28.5 -151.5
t-78.5 -140.5t-119.5 -103t-151.5 -40q-62 0 -111 23t-83.5 63t-53 94.5t-18.5 118.5q0 78 28 155.5t77.5 139.5t117 100.5t147.5 38.5zM372 760q22 14 46.5 35l47.5 40t42 32.5t30 13.5q17 0 21.5 -9.5t4.5 -20.5q0 -18 -19.5 -32t-47.5 -27t-60.5 -25t-57.5 -25z" />
    <glyph glyph-name="Ocircumflex" unicode="&#xd4;" horiz-adv-x="715" 
d="M441 680q-64 0 -111 -37t-78 -97t-46.5 -135.5t-15.5 -151.5q0 -52 10 -95t31 -74t53.5 -48.5t77.5 -17.5q60 0 107.5 33.5t81 90.5t51.5 132t18 158q0 50 -9.5 94t-31 77t-55.5 52t-83 19zM453 717q62 0 112.5 -22t86.5 -61.5t55.5 -94.5t19.5 -120q0 -74 -28.5 -151.5
t-78.5 -140.5t-119.5 -103t-151.5 -40q-62 0 -111 23t-83.5 63t-53 94.5t-18.5 118.5q0 78 28 155.5t77.5 139.5t117 100.5t147.5 38.5zM569 765l-14 -12l-85 58l-103 -58l-10 12l123 116z" />
    <glyph glyph-name="Otilde" unicode="&#xd5;" horiz-adv-x="715" 
d="M441 680q-64 0 -111 -37t-78 -97t-46.5 -135.5t-15.5 -151.5q0 -52 10 -95t31 -74t53.5 -48.5t77.5 -17.5q60 0 107.5 33.5t81 90.5t51.5 132t18 158q0 50 -9.5 94t-31 77t-55.5 52t-83 19zM453 717q62 0 112.5 -22t86.5 -61.5t55.5 -94.5t19.5 -120q0 -74 -28.5 -151.5
t-78.5 -140.5t-119.5 -103t-151.5 -40q-62 0 -111 23t-83.5 63t-53 94.5t-18.5 118.5q0 78 28 155.5t77.5 139.5t117 100.5t147.5 38.5zM616 864q-14 -37 -40.5 -60.5t-58.5 -23.5q-17 0 -30 8.5t-25 19t-24 19.5t-28 9q-17 0 -34 -14.5t-31 -37.5l-17 12q14 38 42.5 61.5
t54.5 23.5q25 0 38.5 -8.5t22.5 -19t19 -19t28 -8.5q17 0 33.5 11.5t33.5 41.5z" />
    <glyph glyph-name="Odieresis" unicode="&#xd6;" horiz-adv-x="715" 
d="M441 680q-64 0 -111 -37t-78 -97t-46.5 -135.5t-15.5 -151.5q0 -52 10 -95t31 -74t53.5 -48.5t77.5 -17.5q60 0 107.5 33.5t81 90.5t51.5 132t18 158q0 50 -9.5 94t-31 77t-55.5 52t-83 19zM453 717q62 0 112.5 -22t86.5 -61.5t55.5 -94.5t19.5 -120q0 -74 -28.5 -151.5
t-78.5 -140.5t-119.5 -103t-151.5 -40q-62 0 -111 23t-83.5 63t-53 94.5t-18.5 118.5q0 78 28 155.5t77.5 139.5t117 100.5t147.5 38.5zM608 839q0 -29 -13.5 -43.5t-36.5 -14.5q-39 0 -39 36q0 29 14 43.5t39 14.5q36 0 36 -36zM426 839q0 -29 -14 -43.5t-37 -14.5
q-38 0 -38 35q0 59 52 59q37 0 37 -36z" />
    <glyph glyph-name="multiply" unicode="&#xd7;" horiz-adv-x="525" 
d="M504 502l-152 -146l108 -143l-52 -49l-107 144l-146 -141l-40 52l147 140l-109 143l51 49l109 -143l151 146z" />
    <glyph glyph-name="Oslash" unicode="&#xd8;" horiz-adv-x="715" 
d="M593 680q63 -36 98.5 -104t35.5 -159q0 -49 -13 -100.5t-36.5 -99.5t-57.5 -90.5t-76 -74t-91.5 -50t-103.5 -18.5q-48 0 -90 15l-27 -53l-36 17l27 51q-66 36 -103 106.5t-37 161.5q0 78 27.5 155.5t77 140t117.5 101t148 38.5q29 0 55 -5t50 -14l21 42l37 -13zM536 654
q-19 12 -42.5 19t-52.5 7q-65 0 -112 -37.5t-78 -98t-46 -136.5t-15 -153q0 -60 14 -108t45 -79zM281 44q16 -11 36.5 -15.5t44.5 -4.5q60 0 107.5 33.5t80.5 90t51 131.5t18 158q0 57 -12 106t-40 83z" />
    <glyph glyph-name="Ugrave" unicode="&#xd9;" horiz-adv-x="721" 
d="M808 672q-46 0 -66.5 -22.5t-27.5 -70.5l-45 -324q-9 -61 -26 -111t-51.5 -85.5t-91 -55t-144.5 -19.5q-52 0 -89.5 14.5t-62 40t-36.5 61t-12 78.5q-1 9 0.5 18t3.5 19l54 380q1 1 1 15q0 62 -81 62l4 33h277l-5 -33q-54 0 -75 -19t-26 -58l-51 -352q-3 -20 -5 -39
t-2 -39q0 -27 6 -51t23.5 -42t48 -29t79.5 -11q58 0 97.5 20.5t64 51.5t36.5 68.5t17 70.5l47 336q1 5 1.5 10.5t0.5 10.5q0 72 -86 72l4 33h223zM542 742q-20 12 -46.5 24t-50.5 24t-40.5 24.5t-16.5 26.5q0 11 7 25.5t29 14.5q14 -4 29 -18t31.5 -32l34 -37.5t36.5 -33.5z
" />
    <glyph glyph-name="Uacute" unicode="&#xda;" horiz-adv-x="721" 
d="M808 672q-46 0 -66.5 -22.5t-27.5 -70.5l-45 -324q-9 -61 -26 -111t-51.5 -85.5t-91 -55t-144.5 -19.5q-52 0 -89.5 14.5t-62 40t-36.5 61t-12 78.5q-1 9 0.5 18t3.5 19l54 380q1 1 1 15q0 62 -81 62l4 33h277l-5 -33q-54 0 -75 -19t-26 -58l-51 -352q-3 -20 -5 -39
t-2 -39q0 -27 6 -51t23.5 -42t48 -29t79.5 -11q58 0 97.5 20.5t64 51.5t36.5 68.5t17 70.5l47 336q1 5 1.5 10.5t0.5 10.5q0 72 -86 72l4 33h223zM376 760q22 14 46.5 35l47.5 40t42 32.5t30 13.5q17 0 21.5 -9.5t4.5 -20.5q0 -18 -19.5 -32t-47.5 -27t-60.5 -25t-57.5 -25z
" />
    <glyph glyph-name="Ucircumflex" unicode="&#xdb;" horiz-adv-x="721" 
d="M808 672q-46 0 -66.5 -22.5t-27.5 -70.5l-45 -324q-9 -61 -26 -111t-51.5 -85.5t-91 -55t-144.5 -19.5q-52 0 -89.5 14.5t-62 40t-36.5 61t-12 78.5q-1 9 0.5 18t3.5 19l54 380q1 1 1 15q0 62 -81 62l4 33h277l-5 -33q-54 0 -75 -19t-26 -58l-51 -352q-3 -20 -5 -39
t-2 -39q0 -27 6 -51t23.5 -42t48 -29t79.5 -11q58 0 97.5 20.5t64 51.5t36.5 68.5t17 70.5l47 336q1 5 1.5 10.5t0.5 10.5q0 72 -86 72l4 33h223zM572 765l-14 -12l-85 58l-103 -58l-10 12l123 116z" />
    <glyph glyph-name="Udieresis" unicode="&#xdc;" horiz-adv-x="721" 
d="M808 672q-46 0 -66.5 -22.5t-27.5 -70.5l-45 -324q-9 -61 -26 -111t-51.5 -85.5t-91 -55t-144.5 -19.5q-52 0 -89.5 14.5t-62 40t-36.5 61t-12 78.5q-1 9 0.5 18t3.5 19l54 380q1 1 1 15q0 62 -81 62l4 33h277l-5 -33q-54 0 -75 -19t-26 -58l-51 -352q-3 -20 -5 -39
t-2 -39q0 -27 6 -51t23.5 -42t48 -29t79.5 -11q58 0 97.5 20.5t64 51.5t36.5 68.5t17 70.5l47 336q1 5 1.5 10.5t0.5 10.5q0 72 -86 72l4 33h223zM611 839q0 -29 -13.5 -43.5t-36.5 -14.5q-39 0 -39 36q0 29 14 43.5t39 14.5q36 0 36 -36zM429 839q0 -29 -14 -43.5
t-37 -14.5q-38 0 -38 35q0 59 52 59q37 0 37 -36z" />
    <glyph glyph-name="Yacute" unicode="&#xdd;" horiz-adv-x="581" 
d="M698 672q-49 0 -82 -40l-226 -340l-31 -215q0 -2 -0.5 -3t-0.5 -3q0 -39 89 -39l-3 -32h-292l4 32q97 0 104 49l30 207l-118 295q-36 89 -92 89l5 33h260l-4 -33q-75 0 -75 -44q0 -7 3 -13t7 -16l100 -251l158 247q5 10 9.5 23.5t4.5 24.5q0 29 -72 29l4 33h223zM306 760
q22 14 46.5 35l47.5 40t42 32.5t30 13.5q17 0 21.5 -9.5t4.5 -20.5q0 -18 -19.5 -32t-47.5 -27t-60.5 -25t-57.5 -25z" />
    <glyph glyph-name="Thorn" unicode="&#xde;" horiz-adv-x="592" 
d="M413 672q-43 0 -69 -22.5t-32 -70.5l-3 -23q32 2 59 2.5t57 0.5q187 0 187 -159q0 -48 -14.5 -92t-44.5 -77.5t-77 -53t-112 -19.5q-31 0 -57 3t-53 9l-8 -57q-1 -5 -1 -8.5v-8.5q0 -64 85 -64l-3 -32h-281l3 32q92 2 102 77l67 470q1 5 1.5 10.5t0.5 10.5q0 72 -83 72
l4 33h276zM260 211q23 -6 49 -9.5t61 -3.5q36 0 63 17.5t44.5 45.5t26.5 63.5t9 71.5q0 63 -38.5 95t-129.5 32q-38 0 -47 -49z" />
    <glyph glyph-name="germandbls" unicode="&#xdf;" horiz-adv-x="454" 
d="M143 57q-6 -43 -21.5 -87.5t-38.5 -81t-54 -59.5t-70 -23q-37 0 -57 15t-20 44q0 18 7.5 31t27.5 13q12 0 18 -7.5t11.5 -16.5t13.5 -16.5t25 -7.5q18 0 31.5 14.5t23 40.5t17 62t13.5 79l49 333q0 12 -9 12h-51l23 42h31q12 0 16 28q7 51 27 98t48.5 83t64.5 58t75 22
q26 0 49.5 -7.5t41.5 -25.5t28.5 -48.5t10.5 -76.5q0 -29 -5 -57.5t-17 -54.5t-33.5 -47t-54.5 -34q16 -10 32.5 -23.5t30 -33.5t22 -49.5t8.5 -72.5q0 -48 -14.5 -88t-38 -69t-52 -45t-56.5 -16q-57 0 -86.5 21t-29.5 66q0 70 56 70q28 0 28 -27q0 -38 -24 -45
q0 -39 37 -39q18 0 34.5 9.5t29.5 28.5t21 48.5t8 68.5q0 51 -5.5 84t-17.5 52.5t-31.5 27.5t-46.5 8q-9 0 -9 11q0 27 14 27q36 0 60 12.5t37.5 35.5t19 56.5t5.5 74.5q0 20 -4.5 38.5t-13.5 33t-23.5 23t-34.5 8.5q-33 0 -53.5 -20.5t-33.5 -52.5t-19.5 -70t-11.5 -72z
" />
    <glyph glyph-name="agrave" unicode="&#xe0;" horiz-adv-x="445" 
d="M340 392q-10 10 -22.5 15.5t-30.5 5.5q-35 0 -63 -31t-47 -75.5t-29 -95t-10 -89.5q0 -26 2 -40t5.5 -20.5t9 -8t13.5 -1.5q12 0 32 18.5t42.5 46.5t43 61t33.5 63zM375 132q-4 -14 -4 -24v-21q0 -8 1.5 -12.5t7.5 -4.5q10 0 47 43l14 -23q-11 -17 -27 -34.5t-34 -32
t-35.5 -24t-30.5 -9.5q-11 0 -17.5 7t-8.5 26q0 5 0.5 10.5t1.5 11.5l13 106q-14 -24 -35 -52t-45.5 -53t-51 -41.5t-51.5 -16.5q-11 0 -23 3.5t-22 16t-16 36.5t-6 65q0 69 24 132t62.5 111t86.5 76t96 28q19 0 30.5 -3.5t21 -8t19 -8t24.5 -3.5zM377 471q-20 12 -46.5 24
t-50.5 24t-40.5 24.5t-16.5 26.5q0 11 7 25.5t29 14.5q14 -4 29 -18t31.5 -32l34 -37.5t36.5 -33.5z" />
    <glyph glyph-name="aacute" unicode="&#xe1;" horiz-adv-x="445" 
d="M340 392q-10 10 -22.5 15.5t-30.5 5.5q-35 0 -63 -31t-47 -75.5t-29 -95t-10 -89.5q0 -26 2 -40t5.5 -20.5t9 -8t13.5 -1.5q12 0 32 18.5t42.5 46.5t43 61t33.5 63zM375 132q-4 -14 -4 -24v-21q0 -8 1.5 -12.5t7.5 -4.5q10 0 47 43l14 -23q-11 -17 -27 -34.5t-34 -32
t-35.5 -24t-30.5 -9.5q-11 0 -17.5 7t-8.5 26q0 5 0.5 10.5t1.5 11.5l13 106q-14 -24 -35 -52t-45.5 -53t-51 -41.5t-51.5 -16.5q-11 0 -23 3.5t-22 16t-16 36.5t-6 65q0 69 24 132t62.5 111t86.5 76t96 28q19 0 30.5 -3.5t21 -8t19 -8t24.5 -3.5zM207 489q22 14 46.5 35
l47.5 40t42 32.5t30 13.5q17 0 21.5 -9.5t4.5 -20.5q0 -18 -19.5 -32t-47.5 -27t-60.5 -25t-57.5 -25z" />
    <glyph glyph-name="acircumflex" unicode="&#xe2;" horiz-adv-x="445" 
d="M340 392q-10 10 -22.5 15.5t-30.5 5.5q-35 0 -63 -31t-47 -75.5t-29 -95t-10 -89.5q0 -26 2 -40t5.5 -20.5t9 -8t13.5 -1.5q12 0 32 18.5t42.5 46.5t43 61t33.5 63zM375 132q-4 -14 -4 -24v-21q0 -8 1.5 -12.5t7.5 -4.5q10 0 47 43l14 -23q-11 -17 -27 -34.5t-34 -32
t-35.5 -24t-30.5 -9.5q-11 0 -17.5 7t-8.5 26q0 5 0.5 10.5t1.5 11.5l13 106q-14 -24 -35 -52t-45.5 -53t-51 -41.5t-51.5 -16.5q-11 0 -23 3.5t-22 16t-16 36.5t-6 65q0 69 24 132t62.5 111t86.5 76t96 28q19 0 30.5 -3.5t21 -8t19 -8t24.5 -3.5zM406 494l-14 -12l-85 58
l-103 -58l-10 12l123 116z" />
    <glyph glyph-name="atilde" unicode="&#xe3;" horiz-adv-x="445" 
d="M340 392q-10 10 -22.5 15.5t-30.5 5.5q-35 0 -63 -31t-47 -75.5t-29 -95t-10 -89.5q0 -26 2 -40t5.5 -20.5t9 -8t13.5 -1.5q12 0 32 18.5t42.5 46.5t43 61t33.5 63zM375 132q-4 -14 -4 -24v-21q0 -8 1.5 -12.5t7.5 -4.5q10 0 47 43l14 -23q-11 -17 -27 -34.5t-34 -32
t-35.5 -24t-30.5 -9.5q-11 0 -17.5 7t-8.5 26q0 5 0.5 10.5t1.5 11.5l13 106q-14 -24 -35 -52t-45.5 -53t-51 -41.5t-51.5 -16.5q-11 0 -23 3.5t-22 16t-16 36.5t-6 65q0 69 24 132t62.5 111t86.5 76t96 28q19 0 30.5 -3.5t21 -8t19 -8t24.5 -3.5zM454 593
q-14 -37 -40.5 -60.5t-58.5 -23.5q-17 0 -30 8.5t-25 19t-24 19.5t-28 9q-17 0 -34 -14.5t-31 -37.5l-17 12q14 38 42.5 61.5t54.5 23.5q25 0 38.5 -8.5t22.5 -19t19 -19t28 -8.5q17 0 33.5 11.5t33.5 41.5z" />
    <glyph glyph-name="adieresis" unicode="&#xe4;" horiz-adv-x="445" 
d="M340 392q-10 10 -22.5 15.5t-30.5 5.5q-35 0 -63 -31t-47 -75.5t-29 -95t-10 -89.5q0 -26 2 -40t5.5 -20.5t9 -8t13.5 -1.5q12 0 32 18.5t42.5 46.5t43 61t33.5 63zM375 132q-4 -14 -4 -24v-21q0 -8 1.5 -12.5t7.5 -4.5q10 0 47 43l14 -23q-11 -17 -27 -34.5t-34 -32
t-35.5 -24t-30.5 -9.5q-11 0 -17.5 7t-8.5 26q0 5 0.5 10.5t1.5 11.5l13 106q-14 -24 -35 -52t-45.5 -53t-51 -41.5t-51.5 -16.5q-11 0 -23 3.5t-22 16t-16 36.5t-6 65q0 69 24 132t62.5 111t86.5 76t96 28q19 0 30.5 -3.5t21 -8t19 -8t24.5 -3.5zM445 568
q0 -29 -13.5 -43.5t-36.5 -14.5q-39 0 -39 36q0 29 14 43.5t39 14.5q36 0 36 -36zM263 568q0 -29 -14 -43.5t-37 -14.5q-38 0 -38 35q0 59 52 59q37 0 37 -36z" />
    <glyph glyph-name="aring" unicode="&#xe5;" horiz-adv-x="445" 
d="M340 392q-10 10 -22.5 15.5t-30.5 5.5q-35 0 -63 -31t-47 -75.5t-29 -95t-10 -89.5q0 -26 2 -40t5.5 -20.5t9 -8t13.5 -1.5q12 0 32 18.5t42.5 46.5t43 61t33.5 63zM375 132q-4 -14 -4 -24v-21q0 -8 1.5 -12.5t7.5 -4.5q10 0 47 43l14 -23q-11 -17 -27 -34.5t-34 -32
t-35.5 -24t-30.5 -9.5q-11 0 -17.5 7t-8.5 26q0 5 0.5 10.5t1.5 11.5l13 106q-14 -24 -35 -52t-45.5 -53t-51 -41.5t-51.5 -16.5q-11 0 -23 3.5t-22 16t-16 36.5t-6 65q0 69 24 132t62.5 111t86.5 76t96 28q19 0 30.5 -3.5t21 -8t19 -8t24.5 -3.5zM388 591q0 23 -15.5 38.5
t-40.5 15.5q-32 0 -53.5 -23t-21.5 -55q0 -26 15.5 -40.5t40.5 -14.5q29 0 52 20.5t23 58.5zM433 594q0 -25 -10.5 -47.5t-28.5 -39.5t-40.5 -27t-46.5 -10q-40 0 -65.5 27t-25.5 66q0 24 10 46.5t26.5 39.5t38.5 27.5t47 10.5q21 0 38 -7.5t30 -20t20 -29.5t7 -36z" />
    <glyph glyph-name="ae" unicode="&#xe6;" horiz-adv-x="621" 
d="M386 376q21 35 58 57.5t91 22.5q19 0 36.5 -4.5t30.5 -15.5t21 -29t8 -45q0 -12 -6 -30t-30 -40.5t-71 -49t-128 -54.5q2 -69 28.5 -102t72.5 -33q15 0 30 5.5t28.5 13.5t24.5 18.5t18 20.5l19 -16q-32 -47 -66.5 -77t-86.5 -30q-36 0 -63 11.5t-45.5 32.5t-29.5 49.5
t-14 62.5q-18 -25 -42 -52.5t-50 -50.5t-52 -38t-48 -15q-11 0 -23 3.5t-22 16t-16 36.5t-6 65q0 69 24.5 132t60.5 111t78.5 76t78.5 28q19 0 31.5 -1.5t21.5 -4t15.5 -4t14.5 -1.5q5 0 11 0.5t12 2.5zM340 392q-10 10 -22.5 15.5t-30.5 5.5q-35 0 -63 -31t-47 -75.5
t-29 -95t-10 -89.5q0 -26 2 -40t5.5 -20.5t9 -8t13.5 -1.5q12 0 32 18.5t42.5 46.5t43 61t33.5 63zM396 223q28 12 57 26t53 30t39.5 35t15.5 42q0 62 -48 62q-26 0 -47.5 -17.5t-37 -45t-24 -62.5t-8.5 -70z" />
    <glyph glyph-name="ccedilla" unicode="&#xe7;" horiz-adv-x="376" 
d="M364 100q-14 -30 -33.5 -51t-41.5 -34.5t-45.5 -20t-45.5 -6.5l-4 -32q39 0 54 -17t15 -39q0 -20 -9 -36t-24.5 -27t-36 -17.5t-43.5 -6.5l3 21q37 3 54 21t17 42q0 14 -5.5 22t-14 12t-18 5t-18.5 1l7 53q-57 7 -86 48t-29 113q0 58 19 113t51 97t74 67.5t88 25.5
q39 0 65.5 -12t26.5 -38q0 -25 -14 -39t-23 -14q-12 0 -18 8.5t-12.5 19t-17.5 19.5t-33 9q-31 0 -53.5 -21t-37.5 -53t-22.5 -70.5t-7.5 -72.5q0 -67 23 -100t77 -33q30 0 53 13t46 47z" />
    <glyph glyph-name="egrave" unicode="&#xe8;" horiz-adv-x="370" 
d="M365 95q-16 -24 -32 -43.5t-34 -33.5t-39.5 -22t-47.5 -8q-39 0 -67.5 14t-47.5 38.5t-28 57.5t-9 71q0 56 17 108t46 91.5t67.5 63.5t80.5 24q46 0 77.5 -19t31.5 -67q0 -11 -4.5 -29.5t-27 -42.5t-70 -52t-134.5 -58q3 -69 29.5 -102t71.5 -33q31 0 58.5 19t43.5 39z
M145 223l56 26t53 30t39.5 35t15.5 41q0 63 -47 63q-27 0 -48.5 -17.5t-36.5 -45t-23.5 -62.5t-8.5 -70zM340 471q-20 12 -46.5 24t-50.5 24t-40.5 24.5t-16.5 26.5q0 11 7 25.5t29 14.5q14 -4 29 -18t31.5 -32l34 -37.5t36.5 -33.5z" />
    <glyph glyph-name="eacute" unicode="&#xe9;" horiz-adv-x="370" 
d="M365 95q-16 -24 -32 -43.5t-34 -33.5t-39.5 -22t-47.5 -8q-39 0 -67.5 14t-47.5 38.5t-28 57.5t-9 71q0 56 17 108t46 91.5t67.5 63.5t80.5 24q46 0 77.5 -19t31.5 -67q0 -11 -4.5 -29.5t-27 -42.5t-70 -52t-134.5 -58q3 -69 29.5 -102t71.5 -33q31 0 58.5 19t43.5 39z
M145 223l56 26t53 30t39.5 35t15.5 41q0 63 -47 63q-27 0 -48.5 -17.5t-36.5 -45t-23.5 -62.5t-8.5 -70zM169 489q22 14 46.5 35l47.5 40t42 32.5t30 13.5q17 0 21.5 -9.5t4.5 -20.5q0 -18 -19.5 -32t-47.5 -27t-60.5 -25t-57.5 -25z" />
    <glyph glyph-name="ecircumflex" unicode="&#xea;" horiz-adv-x="370" 
d="M365 95q-16 -24 -32 -43.5t-34 -33.5t-39.5 -22t-47.5 -8q-39 0 -67.5 14t-47.5 38.5t-28 57.5t-9 71q0 56 17 108t46 91.5t67.5 63.5t80.5 24q46 0 77.5 -19t31.5 -67q0 -11 -4.5 -29.5t-27 -42.5t-70 -52t-134.5 -58q3 -69 29.5 -102t71.5 -33q31 0 58.5 19t43.5 39z
M145 223l56 26t53 30t39.5 35t15.5 41q0 63 -47 63q-27 0 -48.5 -17.5t-36.5 -45t-23.5 -62.5t-8.5 -70zM369 494l-14 -12l-85 58l-103 -58l-10 12l123 116z" />
    <glyph glyph-name="edieresis" unicode="&#xeb;" horiz-adv-x="370" 
d="M365 95q-16 -24 -32 -43.5t-34 -33.5t-39.5 -22t-47.5 -8q-39 0 -67.5 14t-47.5 38.5t-28 57.5t-9 71q0 56 17 108t46 91.5t67.5 63.5t80.5 24q46 0 77.5 -19t31.5 -67q0 -11 -4.5 -29.5t-27 -42.5t-70 -52t-134.5 -58q3 -69 29.5 -102t71.5 -33q31 0 58.5 19t43.5 39z
M145 223l56 26t53 30t39.5 35t15.5 41q0 63 -47 63q-27 0 -48.5 -17.5t-36.5 -45t-23.5 -62.5t-8.5 -70zM408 568q0 -29 -13.5 -43.5t-36.5 -14.5q-39 0 -39 36q0 29 14 43.5t39 14.5q36 0 36 -36zM226 568q0 -29 -14 -43.5t-37 -14.5q-38 0 -38 35q0 59 52 59q37 0 37 -36z
" />
    <glyph glyph-name="igrave" unicode="&#xec;" horiz-adv-x="237" 
d="M167 132l-4 -22.5t-2 -21.5q0 -18 8 -18q13 0 50 43l12 -23q-11 -17 -28 -34.5t-35.5 -32t-36.5 -24t-30 -9.5q-17 0 -21 12t-4 27q0 5 0.5 8t1.5 8l59 313q1 1 1 7q0 8 -6 8q-13 0 -50 -43l-13 23q12 17 29 34.5t35.5 32t36 24t31.5 9.5q11 0 17.5 -8t6.5 -31
q0 -4 -0.5 -7.5t-1.5 -8.5zM273 471q-20 12 -46.5 24t-50.5 24t-40.5 24.5t-16.5 26.5q0 11 7 25.5t29 14.5q14 -4 29 -18t31.5 -32l34 -37.5t36.5 -33.5z" />
    <glyph glyph-name="iacute" unicode="&#xed;" horiz-adv-x="237" 
d="M167 132l-4 -22.5t-2 -21.5q0 -18 8 -18q13 0 50 43l12 -23q-11 -17 -28 -34.5t-35.5 -32t-36.5 -24t-30 -9.5q-17 0 -21 12t-4 27q0 5 0.5 8t1.5 8l59 313q1 1 1 7q0 8 -6 8q-13 0 -50 -43l-13 23q12 17 29 34.5t35.5 32t36 24t31.5 9.5q11 0 17.5 -8t6.5 -31
q0 -4 -0.5 -7.5t-1.5 -8.5zM107 489q22 14 46.5 35l47.5 40t42 32.5t30 13.5q17 0 21.5 -9.5t4.5 -20.5q0 -18 -19.5 -32t-47.5 -27t-60.5 -25t-57.5 -25z" />
    <glyph glyph-name="icircumflex" unicode="&#xee;" horiz-adv-x="237" 
d="M167 132l-4 -22.5t-2 -21.5q0 -18 8 -18q13 0 50 43l12 -23q-11 -17 -28 -34.5t-35.5 -32t-36.5 -24t-30 -9.5q-17 0 -21 12t-4 27q0 5 0.5 8t1.5 8l59 313q1 1 1 7q0 8 -6 8q-13 0 -50 -43l-13 23q12 17 29 34.5t35.5 32t36 24t31.5 9.5q11 0 17.5 -8t6.5 -31
q0 -4 -0.5 -7.5t-1.5 -8.5zM304 494l-14 -12l-85 58l-103 -58l-10 12l123 116z" />
    <glyph glyph-name="idieresis" unicode="&#xef;" horiz-adv-x="237" 
d="M167 132l-4 -22.5t-2 -21.5q0 -18 8 -18q13 0 50 43l12 -23q-11 -17 -28 -34.5t-35.5 -32t-36.5 -24t-30 -9.5q-17 0 -21 12t-4 27q0 5 0.5 8t1.5 8l59 313q1 1 1 7q0 8 -6 8q-13 0 -50 -43l-13 23q12 17 29 34.5t35.5 32t36 24t31.5 9.5q11 0 17.5 -8t6.5 -31
q0 -4 -0.5 -7.5t-1.5 -8.5zM331 568q0 -29 -13.5 -43.5t-36.5 -14.5q-39 0 -39 36q0 29 14 43.5t39 14.5q36 0 36 -36zM149 568q0 -29 -14 -43.5t-37 -14.5q-38 0 -38 35q0 59 52 59q37 0 37 -36z" />
    <glyph glyph-name="eth" unicode="&#xf0;" horiz-adv-x="443" 
d="M383 660l-55 -51q48 -60 80.5 -139.5t32.5 -170.5q0 -66 -15.5 -123.5t-45.5 -99.5t-73.5 -66.5t-99.5 -24.5q-78 0 -112.5 42t-34.5 130q0 69 21.5 124.5t56 94t77.5 59t87 20.5q25 0 38 -4q-10 29 -25.5 58.5t-33.5 55.5l-67 -62l-26 41l65 61q-14 16 -29 31t-29.5 28
t-26.5 22t-19 12l12 35q13 -3 30.5 -11.5t36 -20.5t36.5 -26t33 -29l59 56zM291 418q-24 0 -50 -17.5t-47.5 -49t-36 -76t-14.5 -98.5q0 -28 4 -55.5t13 -49t23.5 -35t35.5 -13.5q28 0 54 21t45.5 57t31 84.5t11.5 102.5q0 24 -2.5 47t-10 41t-21.5 29.5t-36 11.5z" />
    <glyph glyph-name="ntilde" unicode="&#xf1;" horiz-adv-x="473" 
d="M405 132q-4 -20 -5 -31.5t-1 -16.5q0 -14 8 -14q11 0 50 43l12 -23q-11 -17 -28 -34.5t-36 -32t-37 -24t-31 -9.5t-18.5 8t-5.5 31q0 5 3 16l43 223q7 36 11 59.5t4 37.5q0 28 -18 28q-46 0 -176 -196l-40 -188l-71 -26l69 347q1 5 1.5 11.5t0.5 12.5q0 19 -7 19
q-13 0 -50 -43l-14 23q12 17 28.5 34.5t33.5 32t34 24t31 9.5q11 0 16.5 -7.5t5.5 -27.5q0 -8 -1 -19t-4 -28.5t-8.5 -43.5t-14.5 -65q135 194 220 194q15 0 26.5 -17t11.5 -53q0 -23 -4.5 -49t-9.5 -52zM468 593q-14 -37 -40.5 -60.5t-58.5 -23.5q-17 0 -30 8.5t-25 19
t-24 19.5t-28 9q-17 0 -34 -14.5t-31 -37.5l-17 12q14 38 42.5 61.5t54.5 23.5q25 0 38.5 -8.5t22.5 -19t19 -19t28 -8.5q17 0 33.5 11.5t33.5 41.5z" />
    <glyph glyph-name="ograve" unicode="&#xf2;" horiz-adv-x="434" 
d="M290 455q34 0 60 -14t43.5 -38.5t26.5 -57.5t9 -71q0 -69 -21 -123.5t-53.5 -93t-72 -58.5t-76.5 -20q-36 0 -63 14t-45 38t-27.5 57.5t-9.5 72.5q0 67 21.5 121.5t54.5 93t73.5 59t79.5 20.5zM281 418q-45 0 -72.5 -29t-42.5 -70.5t-20 -87.5t-5 -80q0 -25 3.5 -48
t12 -41t23 -28.5t37.5 -10.5q43 0 70 28t41 69t19 86t5 80q0 25 -3 49t-11 42.5t-21.5 29.5t-35.5 11zM372 471q-20 12 -46.5 24t-50.5 24t-40.5 24.5t-16.5 26.5q0 11 7 25.5t29 14.5q14 -4 29 -18t31.5 -32l34 -37.5t36.5 -33.5z" />
    <glyph glyph-name="oacute" unicode="&#xf3;" horiz-adv-x="434" 
d="M290 455q34 0 60 -14t43.5 -38.5t26.5 -57.5t9 -71q0 -69 -21 -123.5t-53.5 -93t-72 -58.5t-76.5 -20q-36 0 -63 14t-45 38t-27.5 57.5t-9.5 72.5q0 67 21.5 121.5t54.5 93t73.5 59t79.5 20.5zM281 418q-45 0 -72.5 -29t-42.5 -70.5t-20 -87.5t-5 -80q0 -25 3.5 -48
t12 -41t23 -28.5t37.5 -10.5q43 0 70 28t41 69t19 86t5 80q0 25 -3 49t-11 42.5t-21.5 29.5t-35.5 11zM201 489q22 14 46.5 35l47.5 40t42 32.5t30 13.5q17 0 21.5 -9.5t4.5 -20.5q0 -18 -19.5 -32t-47.5 -27t-60.5 -25t-57.5 -25z" />
    <glyph glyph-name="ocircumflex" unicode="&#xf4;" horiz-adv-x="434" 
d="M290 455q34 0 60 -14t43.5 -38.5t26.5 -57.5t9 -71q0 -69 -21 -123.5t-53.5 -93t-72 -58.5t-76.5 -20q-36 0 -63 14t-45 38t-27.5 57.5t-9.5 72.5q0 67 21.5 121.5t54.5 93t73.5 59t79.5 20.5zM281 418q-45 0 -72.5 -29t-42.5 -70.5t-20 -87.5t-5 -80q0 -25 3.5 -48
t12 -41t23 -28.5t37.5 -10.5q43 0 70 28t41 69t19 86t5 80q0 25 -3 49t-11 42.5t-21.5 29.5t-35.5 11zM401 494l-14 -12l-85 58l-103 -58l-10 12l123 116z" />
    <glyph glyph-name="otilde" unicode="&#xf5;" horiz-adv-x="434" 
d="M290 455q34 0 60 -14t43.5 -38.5t26.5 -57.5t9 -71q0 -69 -21 -123.5t-53.5 -93t-72 -58.5t-76.5 -20q-36 0 -63 14t-45 38t-27.5 57.5t-9.5 72.5q0 67 21.5 121.5t54.5 93t73.5 59t79.5 20.5zM281 418q-45 0 -72.5 -29t-42.5 -70.5t-20 -87.5t-5 -80q0 -25 3.5 -48
t12 -41t23 -28.5t37.5 -10.5q43 0 70 28t41 69t19 86t5 80q0 25 -3 49t-11 42.5t-21.5 29.5t-35.5 11zM449 593q-14 -37 -40.5 -60.5t-58.5 -23.5q-17 0 -30 8.5t-25 19t-24 19.5t-28 9q-17 0 -34 -14.5t-31 -37.5l-17 12q14 38 42.5 61.5t54.5 23.5q25 0 38.5 -8.5
t22.5 -19t19 -19t28 -8.5q17 0 33.5 11.5t33.5 41.5z" />
    <glyph glyph-name="odieresis" unicode="&#xf6;" horiz-adv-x="434" 
d="M290 455q34 0 60 -14t43.5 -38.5t26.5 -57.5t9 -71q0 -69 -21 -123.5t-53.5 -93t-72 -58.5t-76.5 -20q-36 0 -63 14t-45 38t-27.5 57.5t-9.5 72.5q0 67 21.5 121.5t54.5 93t73.5 59t79.5 20.5zM281 418q-45 0 -72.5 -29t-42.5 -70.5t-20 -87.5t-5 -80q0 -25 3.5 -48
t12 -41t23 -28.5t37.5 -10.5q43 0 70 28t41 69t19 86t5 80q0 25 -3 49t-11 42.5t-21.5 29.5t-35.5 11zM440 568q0 -29 -13.5 -43.5t-36.5 -14.5q-39 0 -39 36q0 29 14 43.5t39 14.5q36 0 36 -36zM258 568q0 -29 -14 -43.5t-37 -14.5q-38 0 -38 35q0 59 52 59q37 0 37 -36z
" />
    <glyph glyph-name="divide" unicode="&#xf7;" horiz-adv-x="516" 
d="M344 193q0 -42 -20 -64.5t-52 -22.5q-57 0 -57 53q0 85 76 85q53 0 53 -51zM395 548q0 -42 -20 -63.5t-52 -21.5q-58 0 -58 52q0 42 21 63.5t57 21.5q52 0 52 -52zM517 322h-430l10 69h430z" />
    <glyph glyph-name="oslash" unicode="&#xf8;" horiz-adv-x="434" 
d="M359 436q70 -46 70 -164q0 -68 -21 -122t-54 -92t-72.5 -58.5t-75.5 -20.5q-29 0 -50 9l-19 -40h-36l25 55q-34 23 -49.5 65t-15.5 94q0 67 21.5 121t54.5 92.5t73.5 59t79.5 20.5q8 0 17.5 -1.5t20.5 -3.5l25 53h37zM176 35q16 -12 41 -12q42 0 68.5 25t41.5 62.5
t20.5 80.5t5.5 78q0 31 -2.5 62.5t-15.5 52.5zM310 410q-14 8 -29 8q-47 0 -74.5 -29.5t-42.5 -72t-19.5 -88.5t-4.5 -79q0 -25 3.5 -45.5t11.5 -38.5z" />
    <glyph glyph-name="ugrave" unicode="&#xf9;" horiz-adv-x="464" 
d="M391 109q-1 -5 -1.5 -11t-0.5 -13q0 -20 8 -20q10 0 49 44l13 -24q-12 -17 -28 -34.5t-33.5 -32t-35 -24t-30.5 -9.5q-12 0 -17 8t-5 31q0 8 1.5 19t4.5 28.5t9 43l15 62.5q-69 -100 -119.5 -147t-92.5 -47q-17 0 -27.5 18.5t-10.5 55.5q0 22 4 46t9 50l29 153
q4 15 5 25.5t1 16.5q0 21 -7 21q-11 0 -50 -44l-12 24q11 16 28 34t35.5 32.5t36.5 24t32 9.5q13 0 18 -9.5t5 -36.5q0 -4 -2 -10l-44 -222q-15 -75 -15 -101q0 -25 19 -25q23 0 62 48t105 148l40 189l71 26zM387 471q-20 12 -46.5 24t-50.5 24t-40.5 24.5t-16.5 26.5
q0 11 7 25.5t29 14.5q14 -4 29 -18t31.5 -32l34 -37.5t36.5 -33.5z" />
    <glyph glyph-name="uacute" unicode="&#xfa;" horiz-adv-x="464" 
d="M391 109q-1 -5 -1.5 -11t-0.5 -13q0 -20 8 -20q10 0 49 44l13 -24q-12 -17 -28 -34.5t-33.5 -32t-35 -24t-30.5 -9.5q-12 0 -17 8t-5 31q0 8 1.5 19t4.5 28.5t9 43l15 62.5q-69 -100 -119.5 -147t-92.5 -47q-17 0 -27.5 18.5t-10.5 55.5q0 22 4 46t9 50l29 153
q4 15 5 25.5t1 16.5q0 21 -7 21q-11 0 -50 -44l-12 24q11 16 28 34t35.5 32.5t36.5 24t32 9.5q13 0 18 -9.5t5 -36.5q0 -4 -2 -10l-44 -222q-15 -75 -15 -101q0 -25 19 -25q23 0 62 48t105 148l40 189l71 26zM216 489q22 14 46.5 35l47.5 40t42 32.5t30 13.5q17 0 21.5 -9.5
t4.5 -20.5q0 -18 -19.5 -32t-47.5 -27t-60.5 -25t-57.5 -25z" />
    <glyph glyph-name="ucircumflex" unicode="&#xfb;" horiz-adv-x="464" 
d="M391 109q-1 -5 -1.5 -11t-0.5 -13q0 -20 8 -20q10 0 49 44l13 -24q-12 -17 -28 -34.5t-33.5 -32t-35 -24t-30.5 -9.5q-12 0 -17 8t-5 31q0 8 1.5 19t4.5 28.5t9 43l15 62.5q-69 -100 -119.5 -147t-92.5 -47q-17 0 -27.5 18.5t-10.5 55.5q0 22 4 46t9 50l29 153
q4 15 5 25.5t1 16.5q0 21 -7 21q-11 0 -50 -44l-12 24q11 16 28 34t35.5 32.5t36.5 24t32 9.5q13 0 18 -9.5t5 -36.5q0 -4 -2 -10l-44 -222q-15 -75 -15 -101q0 -25 19 -25q23 0 62 48t105 148l40 189l71 26zM416 494l-14 -12l-85 58l-103 -58l-10 12l123 116z" />
    <glyph glyph-name="udieresis" unicode="&#xfc;" horiz-adv-x="464" 
d="M391 109q-1 -5 -1.5 -11t-0.5 -13q0 -20 8 -20q10 0 49 44l13 -24q-12 -17 -28 -34.5t-33.5 -32t-35 -24t-30.5 -9.5q-12 0 -17 8t-5 31q0 8 1.5 19t4.5 28.5t9 43l15 62.5q-69 -100 -119.5 -147t-92.5 -47q-17 0 -27.5 18.5t-10.5 55.5q0 22 4 46t9 50l29 153
q4 15 5 25.5t1 16.5q0 21 -7 21q-11 0 -50 -44l-12 24q11 16 28 34t35.5 32.5t36.5 24t32 9.5q13 0 18 -9.5t5 -36.5q0 -4 -2 -10l-44 -222q-15 -75 -15 -101q0 -25 19 -25q23 0 62 48t105 148l40 189l71 26zM455 568q0 -29 -13.5 -43.5t-36.5 -14.5q-39 0 -39 36
q0 29 14 43.5t39 14.5q36 0 36 -36zM273 568q0 -29 -14 -43.5t-37 -14.5q-38 0 -38 35q0 59 52 59q37 0 37 -36z" />
    <glyph glyph-name="yacute" unicode="&#xfd;" horiz-adv-x="391" 
d="M231 92q21 31 43 68.5t39 74.5t28 71t11 58q0 9 -2 14.5t-5 10t-5 9t-2 11.5q0 20 13.5 31.5t27.5 11.5q23 0 31.5 -15.5t8.5 -41.5q0 -18 -6 -39.5t-22.5 -56t-46.5 -86l-78 -128.5l-85 -131.5t-62.5 -86.5t-44 -47t-29.5 -14q-35 0 -35 32q0 17 6.5 25t17.5 13t25.5 10
t32 16.5t36.5 32.5t38 58l-33 363q-2 18 -10 18q-6 0 -17 -10t-24 -32l-16 21q7 16 19 33.5t26 32.5t28.5 24.5t28.5 9.5t25.5 -13t13.5 -42zM180 489q22 14 46.5 35l47.5 40t42 32.5t30 13.5q17 0 21.5 -9.5t4.5 -20.5q0 -18 -19.5 -32t-47.5 -27t-60.5 -25t-57.5 -25z" />
    <glyph glyph-name="thorn" unicode="&#xfe;" horiz-adv-x="440" 
d="M200 415q26 20 50.5 30.5t59.5 10.5q63 0 96.5 -48t33.5 -124q0 -60 -17 -113.5t-49 -94t-78 -64.5t-104 -24q-30 0 -51 7l-19 -107q-1 -5 -1.5 -9t-0.5 -8q0 -18 14.5 -27t51.5 -9l-6 -29h-191l6 29q18 0 32 8.5t16 24.5l106 701q1 8 1 15.5v14.5q-2 29 -11 43t-32 14
l4 29l132 33zM153 101q2 -26 19 -48t55 -22q26 0 50.5 15.5t43.5 44t30.5 68.5t11.5 90q0 26 -3.5 53t-13 49.5t-26 36.5t-41.5 14q-31 0 -49.5 -9t-38.5 -28z" />
    <glyph glyph-name="ydieresis" unicode="&#xff;" horiz-adv-x="391" 
d="M231 92q21 31 43 68.5t39 74.5t28 71t11 58q0 9 -2 14.5t-5 10t-5 9t-2 11.5q0 20 13.5 31.5t27.5 11.5q23 0 31.5 -15.5t8.5 -41.5q0 -18 -6 -39.5t-22.5 -56t-46.5 -86l-78 -128.5l-85 -131.5t-62.5 -86.5t-44 -47t-29.5 -14q-35 0 -35 32q0 17 6.5 25t17.5 13t25.5 10
t32 16.5t36.5 32.5t38 58l-33 363q-2 18 -10 18q-6 0 -17 -10t-24 -32l-16 21q7 16 19 33.5t26 32.5t28.5 24.5t28.5 9.5t25.5 -13t13.5 -42zM418 568q0 -29 -13.5 -43.5t-36.5 -14.5q-39 0 -39 36q0 29 14 43.5t39 14.5q36 0 36 -36zM236 568q0 -29 -14 -43.5t-37 -14.5
q-38 0 -38 35q0 59 52 59q37 0 37 -36z" />
    <glyph glyph-name="dotlessi" unicode="&#x131;" horiz-adv-x="237" 
d="M167 132l-4 -22.5t-2 -21.5q0 -18 8 -18q13 0 50 43l12 -23q-11 -17 -28 -34.5t-35.5 -32t-36.5 -24t-30 -9.5q-17 0 -21 12t-4 27q0 5 0.5 8t1.5 8l59 313q1 1 1 7q0 8 -6 8q-13 0 -50 -43l-13 23q12 17 29 34.5t35.5 32t36 24t31.5 9.5q11 0 17.5 -8t6.5 -31
q0 -4 -0.5 -7.5t-1.5 -8.5z" />
    <glyph glyph-name="Lslash" unicode="&#x141;" horiz-adv-x="564" 
d="M417 672q-87 0 -99 -81l-32 -223l220 105l15 -49l-244 -116l-31 -219q0 -2 -0.5 -3.5t-0.5 -3.5q0 -37 57 -37h44q43 0 75.5 3.5t58.5 20.5t49.5 53t49.5 101l25 -4l-59 -219h-488l3 32q84 0 92 57l24 170l-43 -20l-14 49l65 31l39 272q1 5 1 8.5v8.5q0 64 -84 64l5 33
h276z" />
    <glyph glyph-name="lslash" unicode="&#x142;" horiz-adv-x="220" 
d="M196 375l59 21l7 -58l-77 -27l-30 -179l-4 -18t-2 -18q0 -26 9 -26q13 0 52 43l13 -23q-11 -17 -28 -34.5t-35.5 -32t-36.5 -24t-31 -9.5q-12 0 -18.5 8t-7.5 29q0 3 0.5 7.5t1.5 10.5l40 239l-45 -17l-8 58l63 22l43 257q1 5 1 9.5v9.5q0 19 -8.5 32.5t-34.5 15.5l4 29
l133 33z" />
    <glyph glyph-name="OE" unicode="&#x152;" horiz-adv-x="1013" 
d="M1020 506l-30 -4q-1 58 -14.5 90t-36 47t-53.5 18t-67 3h-25q-45 0 -61 -12t-19 -36l-27 -191q-1 -1 -1 -11q0 -21 18 -21h32q25 0 46 3t38 14t30.5 34t22.5 62h37l-40 -275h-37q1 8 1 15v13q0 29 -5.5 46.5t-18 27t-32.5 12.5t-48 3h-11q-45 0 -49 -36l-28 -203
q-1 -1 -1 -12q0 -48 69 -48h29q61 0 99.5 10.5t64 31.5t43.5 54t39 78l26 -8l-55 -211h-512q-20 -8 -44.5 -12t-50.5 -4q-62 0 -111 23t-83.5 63t-53 94.5t-18.5 118.5q0 78 28 155.5t77.5 139.5t117 100.5t147.5 38.5q28 0 67 -12h520zM441 680q-64 0 -111 -37t-78 -97
t-46.5 -135.5t-15.5 -151.5q0 -52 10 -95t31 -74t53.5 -48.5t77.5 -17.5q60 0 106 35t77 94t47 137t16 164q0 47 -8.5 88t-28 72t-51.5 48.5t-79 17.5z" />
    <glyph glyph-name="oe" unicode="&#x153;" horiz-adv-x="653" 
d="M650 95q-32 -47 -66.5 -77t-86.5 -30q-51 0 -82.5 21.5t-50.5 59.5q-35 -45 -76.5 -67.5t-81.5 -22.5q-36 0 -63 14t-45 38t-27.5 57.5t-9.5 72.5q0 67 21.5 121.5t54.5 93t73.5 59t79.5 20.5q43 0 73.5 -22t47.5 -60q29 39 65 61t78 22q49 0 79 -20.5t30 -73.5
q0 -12 -6 -30t-30 -40.5t-71 -49t-128 -54.5q3 -69 29.5 -102t71.5 -33q31 0 59 19t44 39zM281 418q-45 0 -72.5 -29t-42.5 -70.5t-20 -87.5t-5 -80q0 -25 3.5 -48t12 -41t23 -28.5t37.5 -10.5q43 0 70 28t41 69t19 86t5 80q0 25 -3 49t-11 42.5t-21.5 29.5t-35.5 11z
M429 223l57.5 25.5t53.5 30t39 35.5t15 42q0 62 -48 62q-27 0 -48.5 -17.5t-36.5 -45t-23.5 -62.5t-8.5 -70z" />
    <glyph glyph-name="Scaron" unicode="&#x160;" horiz-adv-x="519" 
d="M489 490q-7 88 -45 139t-104 51q-29 0 -54 -10t-43.5 -27t-29 -40.5t-10.5 -50.5q0 -32 20 -57t59 -45q49 -25 90.5 -42.5t72 -38t47.5 -49.5t17 -77q0 -44 -13.5 -89.5t-41 -83.5t-70.5 -62t-102 -24q-33 0 -57 5.5t-40 13t-24.5 14.5t-11.5 11q-41 -32 -79 -44
q1 79 4 141t10 110h33q-2 -6 -2 -12q0 -44 12 -81t33 -63t50 -40.5t63 -14.5q22 0 50 9t53 28t42.5 47.5t17.5 67.5q0 73 -71 103l-88.5 35t-75.5 37.5t-52.5 53t-19.5 82.5q0 52 18 95t48 74t67.5 48t76.5 17q20 0 36.5 -5t30.5 -11.5t26.5 -14.5t24.5 -14q29 23 67 37
q2 -19 3 -38t1 -39q0 -34 -3 -70.5t-8 -75.5h-28zM487 866l-124 -115l-89 115l15 13l84 -58l104 58z" />
    <glyph glyph-name="scaron" unicode="&#x161;" horiz-adv-x="303" 
d="M314 393q0 -14 -8.5 -28t-20.5 -14q-17 0 -24 8.5t-13 19t-15 19.5t-29 9q-8 0 -17 -2.5t-17 -8.5t-13.5 -17t-5.5 -28q0 -21 10.5 -37.5t26 -31.5t33.5 -29.5t33.5 -31.5t26 -37t10.5 -46q0 -32 -15.5 -59t-39.5 -47.5t-52.5 -32t-53.5 -11.5q-26 0 -44.5 8t-30 19.5
t-17 24t-5.5 21.5q0 13 4.5 22t10.5 15t12 9t9 3q15 0 20.5 -11.5l12 -26t19.5 -26t43 -11.5q27 0 45 16t18 51q0 22 -10.5 38.5t-25.5 30.5t-33.5 26.5t-33.5 27.5t-25.5 34.5t-10.5 46.5q0 31 13 58.5t35 47t50.5 31t59.5 11.5q21 0 34 -7t20.5 -17t10.5 -20t3 -17z
M352 595l-124 -115l-89 115l15 13l84 -58l104 58z" />
    <glyph glyph-name="Ydieresis" unicode="&#x178;" horiz-adv-x="581" 
d="M698 672q-49 0 -82 -40l-226 -340l-31 -215q0 -2 -0.5 -3t-0.5 -3q0 -39 89 -39l-3 -32h-292l4 32q97 0 104 49l30 207l-118 295q-36 89 -92 89l5 33h260l-4 -33q-75 0 -75 -44q0 -7 3 -13t7 -16l100 -251l158 247q5 10 9.5 23.5t4.5 24.5q0 29 -72 29l4 33h223zM541 839
q0 -29 -13.5 -43.5t-36.5 -14.5q-39 0 -39 36q0 29 14 43.5t39 14.5q36 0 36 -36zM359 839q0 -29 -14 -43.5t-37 -14.5q-38 0 -38 35q0 59 52 59q37 0 37 -36z" />
    <glyph glyph-name="Zcaron" unicode="&#x17d;" horiz-adv-x="520" 
d="M590 672l-443 -623q17 -4 32.5 -6t29.5 -2h73q49 0 87 20.5t66 49t47 59.5t30 53l28 -8l-55 -215h-460l-2 24l448 628q-20 4 -40 6t-40 2h-43q-48 0 -80 -8.5t-55 -27.5t-40 -49t-34 -73h-28l47 211q19 -4 36 -6t36 -2h365zM487 866l-124 -115l-89 115l15 13l84 -58
l104 58z" />
    <glyph glyph-name="zcaron" unicode="&#x17e;" horiz-adv-x="378" 
d="M128 93q7 4 19 4q16 0 32 -7.5t31 -16.5l28.5 -16.5t25.5 -7.5q34 0 57.5 25.5t49.5 73.5l21 -11q-12 -32 -26 -60.5t-29.5 -51t-33.5 -35.5t-39 -13q-30 0 -50.5 10t-37.5 22t-33.5 22t-40.5 10q-21 0 -34 -14.5t-21 -35.5l-15 19q4 23 15 43t27 38l253 292
q-24 -10 -59 -10q-25 0 -46.5 6t-36.5 6q-25 0 -46.5 -17.5t-43.5 -70.5l-24 14q4 18 11.5 42t20 45t29.5 35.5t41 14.5q49 0 85 -10t63 -10q23 0 42 7.5t31 30.5l31 -24zM389 595l-124 -115l-89 115l15 13l84 -58l104 58z" />
    <glyph glyph-name="circumflex" unicode="&#x2c6;" horiz-adv-x="290" 
d="M320 494l-14 -12l-85 58l-103 -58l-10 12l123 116z" />
    <glyph glyph-name="caron" unicode="&#x2c7;" horiz-adv-x="290" 
d="M335 595l-124 -115l-89 115l15 13l84 -58l104 58z" />
    <glyph glyph-name="ring" unicode="&#x2da;" horiz-adv-x="217" 
d="M247 545q0 23 -15.5 38.5t-40.5 15.5q-32 0 -53.5 -23t-21.5 -55q0 -26 15.5 -40.5t40.5 -14.5q29 0 52 20.5t23 58.5zM292 548q0 -25 -10.5 -47.5t-28.5 -39.5t-40.5 -27t-46.5 -10q-40 0 -65.5 27t-25.5 66q0 24 10 46.5t26.5 39.5t38.5 27.5t47 10.5q21 0 38 -7.5
t30 -20t20 -29.5t7 -36z" />
    <glyph glyph-name="tilde" unicode="&#x2dc;" horiz-adv-x="319" 
d="M381 593q-14 -37 -40.5 -60.5t-58.5 -23.5q-17 0 -30 8.5t-25 19t-24 19.5t-28 9q-17 0 -34 -14.5t-31 -37.5l-17 12q14 38 42.5 61.5t54.5 23.5q25 0 38.5 -8.5t22.5 -19t19 -19t28 -8.5q17 0 33.5 11.5t33.5 41.5z" />
    <glyph glyph-name="endash" unicode="&#x2013;" horiz-adv-x="425" 
d="M425 239h-361l10 65h361z" />
    <glyph glyph-name="emdash" unicode="&#x2014;" horiz-adv-x="716" 
d="M716 239h-652l10 65h652z" />
    <glyph glyph-name="quoteleft" unicode="&#x2018;" horiz-adv-x="206" 
d="M273 712q-36 -24 -56 -44t-30 -36.5t-12.5 -29.5t-2.5 -22q0 -12 10.5 -15t22.5 -6t22.5 -10t10.5 -26q0 -42 -18.5 -62.5t-50.5 -20.5q-64 0 -64 74q0 75 42.5 129t115.5 93z" />
    <glyph glyph-name="quoteright" unicode="&#x2019;" horiz-adv-x="206" 
d="M96 465q37 24 57.5 43.5t30.5 35.5t12.5 29t2.5 22q0 13 -10.5 16.5t-23 7t-23 10.5t-10.5 27q0 40 20 60t49 20q64 0 64 -71q0 -75 -42 -130t-115 -95z" />
    <glyph glyph-name="quotesinglbase" unicode="&#x201a;" horiz-adv-x="206" 
d="M9 -146q37 24 58 44t31 36.5t12 29.5t2 23q0 11 -10.5 14t-22.5 6t-22.5 10t-10.5 26q0 42 19 62.5t48 20.5q64 0 64 -71q0 -78 -40.5 -131.5t-115.5 -93.5z" />
    <glyph glyph-name="quotedblleft" unicode="&#x201c;" horiz-adv-x="370" 
d="M273 712q-36 -24 -56 -44t-30 -36.5t-12.5 -29.5t-2.5 -22q0 -12 10.5 -15t22.5 -6t22.5 -10t10.5 -26q0 -42 -18.5 -62.5t-50.5 -20.5q-64 0 -64 74q0 75 42.5 129t115.5 93zM438 712q-35 -23 -54.5 -41.5t-29.5 -34t-13 -28t-5 -22.5q0 -15 10.5 -19.5t23 -8t23 -10.5
t10.5 -26q0 -40 -20 -61t-49 -21q-64 0 -64 72q0 76 40.5 130.5t115.5 93.5z" />
    <glyph glyph-name="quotedblright" unicode="&#x201d;" horiz-adv-x="370" 
d="M261 465q37 24 57.5 44t30.5 36t12 28.5t2 22.5q0 12 -10.5 16t-23 7t-23 10t-10.5 26q0 42 19.5 61.5t49.5 19.5q64 0 64 -71q0 -76 -41 -130.5t-116 -94.5zM96 465q37 24 57.5 43.5t30.5 35.5t12.5 29t2.5 22q0 13 -10.5 16.5t-23 7t-23 10.5t-10.5 27q0 40 20 60
t49 20q64 0 64 -71q0 -75 -42 -130t-115 -95z" />
    <glyph glyph-name="quotedblbase" unicode="&#x201e;" horiz-adv-x="370" 
d="M174 -146q37 24 57.5 44t30.5 36.5t12 29.5t2 23q0 11 -10.5 14t-23 6t-23 10t-10.5 27q0 40 19.5 61t49.5 21q64 0 64 -72q0 -76 -42 -130.5t-115 -93.5zM9 -146q37 24 58 44t31 36.5t12 29.5t2 23q0 11 -10.5 14t-22.5 6t-22.5 10t-10.5 26q0 42 19 62.5t48 20.5
q64 0 64 -71q0 -78 -40.5 -131.5t-115.5 -93.5z" />
    <glyph glyph-name="dagger" unicode="&#x2020;" horiz-adv-x="396" 
d="M302 627l-5 -115q27 2 52 5t46 10h46q11 -11 11 -26t-11 -23h-46l-47.5 8t-50.5 6l-20 -486h-22l-20 486q-25 -1 -49 -4.5t-48 -8.5h-43q-13 9 -13 25q0 17 13 24h43q24 -6 47 -10t49 -6l-5 115v55q13 24 37 24q10 0 20 -6t16 -18v-55z" />
    <glyph glyph-name="daggerdbl" unicode="&#x2021;" horiz-adv-x="400" 
d="M283 627l-5 -115q27 2 52 5t46 10h46q11 -11 11 -26t-11 -23h-46l-47.5 8t-50.5 6l-9 -148l9 -141q26 2 49.5 5.5t46.5 8.5h44q12 -9 12 -25t-12 -23h-44q-23 4 -46.5 7.5l-49.5 7.5l4 -170q-14 -23 -35 -23t-38 23v56l6 114l-51.5 -6t-47.5 -8h-44q-12 9 -12 24
q0 16 12 24h44q24 -5 48.5 -8t51.5 -7l9 141l-9 148q-25 -1 -49 -4.5t-48 -8.5h-43q-12 10 -12 25q0 17 13 24h42q24 -6 47 -10t49 -6l-5 115v55q13 24 37 24q10 0 20 -6t16 -18v-55z" />
    <glyph glyph-name="bullet" unicode="&#x2022;" horiz-adv-x="288" 
d="M196 449q115 0 115 -116q0 -115 -115 -115q-123 0 -123 115q0 116 123 116z" />
    <glyph glyph-name="ellipsis" unicode="&#x2026;" horiz-adv-x="1248" 
d="M166 71q0 -87 -73 -87q-57 0 -57 51q0 42 21 64.5t56 22.5q53 0 53 -51zM696 69q0 -43 -20.5 -64t-52.5 -21q-57 0 -57 53q0 42 20 63.5t56 21.5q54 0 54 -53zM1224 69q0 -42 -20 -63.5t-53 -21.5q-57 0 -57 53q0 42 20.5 63.5t56.5 21.5q53 0 53 -53z" />
    <glyph glyph-name="perthousand" unicode="&#x2030;" horiz-adv-x="727" 
d="M672 340q65 0 65 -101q0 -62 -11.5 -109t-31.5 -78.5t-47 -47.5t-57 -16q-71 0 -71 102q0 125 43.5 187.5t109.5 62.5zM672 316q-18 0 -37 -15t-34.5 -45t-26 -74.5t-10.5 -103.5q0 -62 34 -62q21 0 41 14.5t35 43.5t24 72.5t9 100.5q0 69 -35 69zM250 689q63 0 63 -99
q0 -63 -11.5 -110.5t-31 -79.5t-46 -48t-56.5 -16q-71 0 -71 105q0 124 43.5 186t109.5 62zM249 664q-76 0 -103 -190q-2 -15 -3.5 -27.5t-1.5 -23.5q0 -58 35 -58q21 0 40.5 14.5t34.5 43t24 71.5t9 100q0 70 -35 70zM149 0h-31l343 705h34zM448 344q63 0 63 -97
q0 -63 -11.5 -110.5t-31 -80t-46.5 -48.5t-57 -16q-70 0 -70 103q0 125 43.5 187t109.5 62zM447 320q-18 0 -37 -15t-34.5 -45t-25.5 -74.5t-10 -103.5q0 -62 34 -62q21 0 40.5 14.5t34.5 43.5t24 72.5t9 100.5q0 69 -35 69z" />
    <glyph glyph-name="guilsinglleft" unicode="&#x2039;" horiz-adv-x="306" 
d="M291 420l-125 -155l80 -158l-18 -19l-148 177l198 176z" />
    <glyph glyph-name="guilsinglright" unicode="&#x203a;" horiz-adv-x="292" 
d="M268 264l-197 -176l-13 21l124 155l-80 158l19 19z" />
    <glyph glyph-name="fraction" unicode="&#x2044;" horiz-adv-x="123" 
d="M-88 0h-48l460 705h51z" />
    <glyph glyph-name="Euro" unicode="&#x20ac;" horiz-adv-x="617" 
d="M492 373h-247q-3 -19 -5.5 -37t-2.5 -36h223l-22 -49h-201q3 -50 14 -90.5t32 -69t52.5 -44t75.5 -15.5q46 0 84.5 15t74.5 54l25 -28q-83 -89 -214 -89q-59 0 -105 19t-78 53.5t-50 84t-20 110.5h-80l28 49h52l10 73h-72l27 48h55q21 65 56.5 119.5t80 93.5t96 61
t105.5 22q40 0 75 -6.5t61 -19.5t41 -33.5t15 -48.5q0 -26 -18 -46t-42 -20q-34 0 -34 35q0 6 5 21t5 34q0 29 -31 36t-79 7t-86 -21t-67 -56.5t-49 -81.5t-31 -96h262z" />
    <glyph glyph-name="uni2117" unicode="&#x2117;" horiz-adv-x="746" 
d="M425 714q78 0 143.5 -27t113.5 -75t74.5 -115.5t26.5 -148.5q0 -77 -25.5 -143t-72 -115.5t-112.5 -77.5t-148 -28q-83 0 -149 28.5t-112.5 77.5t-71.5 115.5t-25 142.5q0 78 28 145t76.5 116t114 77t139.5 28zM428 677q-64 0 -120 -24t-97.5 -67.5t-65.5 -104
t-24 -133.5q0 -90 30 -152.5t75.5 -102t99.5 -57t102 -17.5q84 0 142 31.5t95 80t53.5 106.5t16.5 111q0 87 -30.5 149.5t-76 102t-99.5 58.5t-101 19zM360 572q22 0 35 0.5t23 1l20.5 1t27.5 0.5q153 0 153 -134q0 -26 -9 -48.5t-28.5 -39.5t-49 -27t-70.5 -10q-55 0 -84 7
v-134q0 -51 69 -51v-22h-199v22q63 0 63 49v322q0 43 -66 43v20h115zM408 552q-30 0 -30 -38v-165q27 -7 84 -7q23 0 39.5 8.5t27 22.5t15.5 33t5 39q0 107 -123 107h-18z" />
    <glyph glyph-name="trademark" unicode="&#x2122;" horiz-adv-x="705" 
d="M778 682q-37 0 -37 -23v-207q0 -32 41 -32v-22h-136v22q36 0 36 29v185l-88 -236h-18l-96 234v-176q0 -36 45 -36v-22h-117v22q42 0 44 39v200q0 23 -45 23v23h101l88 -221l84 221h98v-23zM357 606l-21 -2q-5 71 -68 71q-19 0 -19 -11v-207q0 -37 49 -37v-22h-150v22
q49 0 49 37v207q0 13 -18 13q-56 0 -72 -78l-22 6l14 104q11 -2 21.5 -3t18.5 -1h173q9 0 20.5 1t24.5 3v-103z" />
    <glyph glyph-name="onethird" unicode="&#x2153;" horiz-adv-x="724" 
d="M288 707q-5 -16 -7 -28t-4 -20l-48 -334q0 -18 13.5 -26.5t48.5 -8.5l-4 -34h-201l5 34q69 0 74 35l41 283q0 20 -14 20h-54l4 32q24 4 40 7.5t28.5 9t25 14.5t29.5 23zM205 0h-48l460 705h52zM564 219q-11 0 -11 11t4.5 18.5t12.5 7.5q42 0 66 26.5t24 75.5q0 48 -42 48
q-45 0 -49 -16q7 -7 7 -19q0 -21 -10 -31t-24 -10q-26 0 -26 27q0 48 35 71.5t89 23.5q84 0 84 -76q0 -90 -72 -121q62 -14 62 -87q0 -88 -46.5 -131.5t-125.5 -43.5q-89 0 -89 58q0 51 42 51q23 0 23 -20q0 -25 -15 -34q2 -5 9 -9t20 -4q51 0 81 31t30 94q0 59 -49 59h-30z
" />
    <glyph glyph-name="twothirds" unicode="&#x2154;" horiz-adv-x="724" 
d="M205 0h-48l460 705h52zM564 219q-11 0 -11 11t4.5 18.5t12.5 7.5q42 0 66 26.5t24 75.5q0 48 -42 48q-45 0 -49 -16q7 -7 7 -19q0 -21 -10 -31t-24 -10q-26 0 -26 27q0 48 35 71.5t89 23.5q84 0 84 -76q0 -90 -72 -121q62 -14 62 -87q0 -88 -46.5 -131.5t-125.5 -43.5
q-89 0 -89 58q0 51 42 51q23 0 23 -20q0 -25 -15 -34q2 -5 9 -9t20 -4q51 0 81 31t30 94q0 59 -49 59h-30zM290 256h-186q-8 0 -21 -1l-26 -2l-1 27l87.5 86.5t72 83t48.5 78.5t18 74q0 27 -15.5 40.5t-43.5 13.5q-58 0 -65 -37q16 -7 16 -28t-11 -31t-25 -10q-27 0 -27 36
q0 58 39 88.5t102 30.5q97 0 97 -87q0 -79 -52.5 -149t-152.5 -147h84q14 0 24.5 2t19 7.5t15.5 16t15 28.5l29 -2z" />
    <glyph glyph-name="minus" unicode="&#x2212;" horiz-adv-x="525" 
d="M519 322h-430l10 69h430z" />
    <glyph glyph-name="Asmall" unicode="&#xe048;" horiz-adv-x="430" 
d="M401 62q4 -17 17.5 -22t33.5 -8l-4 -32h-192l4 32q23 2 41 6.5t18 12.5q0 3 -0.5 7.5t-1.5 9.5l-17 92q0 16 -35 16h-99q-21 0 -28 -16l-34 -77q-5 -17 -5 -22q0 -26 54 -26l-4 -35h-159l6 35q16 2 32 14.5t29 37.5l225 429l23 -11zM181 247q-11 -20 -11 -23q0 -7 20 -7
h84q17 0 17 6q0 1 -5 24l-31 144z" />
    <glyph glyph-name="Bsmall" unicode="&#xe049;" horiz-adv-x="489" 
d="M294 465q-42 0 -45 -24l-20 -142q0 -8 2 -12t10 -4q47 0 76.5 6t46 19.5t22.5 35t6 51.5q0 70 -72 70h-26zM314 503q34 0 62.5 -5.5t49 -17.5t32 -31.5t11.5 -47.5t-8 -49t-21.5 -36.5t-31.5 -26.5t-39 -19q45 -10 69.5 -36t24.5 -68q0 -47 -16 -79t-41.5 -51.5
t-58.5 -27.5t-67 -8h-231l3 32q29 1 47.5 10t21.5 28l51 354q0 24 -13 35.5t-48 11.5l5 32h198zM236 244q-15 0 -18 -24l-23 -160q0 -11 8.5 -18t30.5 -7h30q22 0 43.5 6.5t38 21.5t26.5 39.5t10 59.5q0 51 -33 66.5t-90 15.5h-23z" />
    <glyph glyph-name="Csmall" unicode="&#xe04a;" horiz-adv-x="469" 
d="M447 329q-6 72 -37 108.5t-82 36.5q-45 0 -76.5 -26.5t-52 -67t-30 -89t-9.5 -93.5q0 -75 27.5 -120.5t90.5 -45.5q25 0 46 6t39.5 21t36 40t36.5 63l26 -12q-12 -41 -33 -71t-48.5 -50t-59 -30t-64.5 -10q-43 0 -76.5 15t-57 42t-36 64.5t-12.5 82.5q0 69 22.5 127.5
t58.5 101t82 66.5t94 24q49 0 90 -33q27 24 56 30q2 -3 4.5 -24t2.5 -53q0 -22 -1.5 -48t-5.5 -55h-31z" />
    <glyph glyph-name="Dsmall" unicode="&#xe04b;" horiz-adv-x="544" 
d="M116 504q17 -2 32.5 -3t29.5 -1q23 0 41.5 1l35.5 2l34.5 2t38.5 1q103 0 156 -52t53 -149q0 -69 -19.5 -125.5t-58.5 -96t-98.5 -61.5t-139.5 -22h-172l3 32q19 0 32 2t21 8.5t12.5 19.5t7.5 34l44 309q1 8 1.5 14.5t0.5 11.5q0 14 -4 21t-11.5 10t-18.5 4.5t-26 5.5z
M289 465q-22 0 -30 -6.5t-12 -34.5l-47 -334q-2 -6 -2 -9q0 -15 1.5 -23.5t6.5 -13t14.5 -5.5t25.5 -1h20q40 0 74 16.5t59 50t39 85.5t14 123q0 78 -35 115t-102 37h-26z" />
    <glyph glyph-name="Esmall" unicode="&#xe04c;" horiz-adv-x="463" 
d="M462 355l-31 -4q0 40 -8.5 62.5t-23.5 33.5t-36.5 13.5t-46.5 2.5h-17q-47 0 -51 -30l-19 -133q0 -8 1 -12.5t7 -4.5h23q16 0 30 2t26 9.5t21 23.5t15 43h34l-29 -202h-34q0 27 -3 43t-10.5 25t-20.5 11.5t-34 2.5h-9q-14 0 -19.5 -5t-7.5 -15l-21 -142q-1 -1 -1 -8
q0 -29 43 -29h22q41 0 67 7t43.5 22t30.5 38t28 55l25 -7l-39 -157h-366l4 32q61 0 67 44l49 348q0 47 -60 47l5 32h361z" />
    <glyph glyph-name="Fsmall" unicode="&#xe04d;" horiz-adv-x="417" 
d="M460 358l-34 -5q0 39 -8.5 61t-24 33t-37.5 13.5t-50 2.5h-20q-21 0 -29.5 -6.5t-10.5 -20.5l-18 -130q0 -2 -0.5 -3t-0.5 -2q0 -18 30 -18h10q21 0 33.5 3.5t21 11.5t14 22.5t12.5 37.5h32l-28 -199h-33l3 20q1 1 1 15q0 9 -2.5 17t-10 15t-20.5 11t-34 4h-29
q-8 0 -11 -17l-21 -146q0 -46 62 -46l-3 -32h-203l4 32q58 0 65 55l46 323q1 4 1 8v7q0 46 -56 46l5 32h354z" />
    <glyph glyph-name="Gsmall" unicode="&#xe04e;" horiz-adv-x="508" 
d="M465 329q-5 66 -36 107t-88 41q-45 0 -78.5 -25.5t-56 -66t-33.5 -91t-11 -99.5q0 -35 6.5 -65t21 -52.5t36 -35t51.5 -12.5q22 0 43 6.5t37.5 20.5t27 36t10.5 54q0 55 -59 55l5 32h200l-6 -32q-58 0 -65 -52l-23 -158h-22q-16 9 -26 20t-18 18q-26 -20 -58.5 -30.5
t-65.5 -10.5q-42 0 -75.5 15.5t-57.5 43t-36.5 65.5t-12.5 82q0 58 21 115t57 102.5t84 73.5t102 28q28 0 52.5 -10.5t47.5 -24.5q27 24 58 30q4 -16 5.5 -34.5t1.5 -39.5q0 -23 -2 -50t-6 -56h-31z" />
    <glyph glyph-name="Hsmall" unicode="&#xe04f;" horiz-adv-x="582" 
d="M602 471q-60 0 -69 -61l-47 -331q-1 -1 -1 -9q0 -38 55 -38l-4 -32h-201l3 32q64 0 72 47l22 154q-14 8 -45 8h-120q-25 0 -46 -9l-21 -153q-1 -1 -1 -9q0 -38 56 -38l-4 -32h-205l3 32q68 0 76 47l47 331q1 3 1 6.5v6.5q0 48 -62 48l5 32h205l-4 -32q-62 0 -71 -61
l-17 -123q24 -8 44 -8h119q18 0 29 2t19 5l17 124q1 1 1 14q0 47 -58 47l5 32h201z" />
    <glyph glyph-name="Ismall" unicode="&#xe050;" horiz-adv-x="297" 
d="M314 471q-60 0 -69 -61l-47 -331q-1 -1 -1 -9q0 -38 58 -38l-4 -32h-202l3 32q62 0 70 47l47 331q1 1 1 13q0 48 -59 48l5 32h202z" />
    <glyph glyph-name="Jsmall" unicode="&#xe051;" horiz-adv-x="313" 
d="M354 471q-55 0 -64 -61l-33 -232q-6 -39 -18 -72.5t-31.5 -59t-46 -40t-61.5 -14.5q-34 0 -58.5 21.5t-24.5 56.5q0 25 13.5 48t38.5 23q30 0 30 -27q0 -23 -8.5 -34.5t-19.5 -11.5l-10 2q3 -14 15.5 -23t30.5 -9q19 0 32 15t22 37.5t14 48t8 47.5l31 222q1 1 1 14
q0 49 -61 49l4 32h201z" />
    <glyph glyph-name="Ksmall" unicode="&#xe052;" horiz-adv-x="499" 
d="M561 472q-19 -3 -32 -7t-26 -11.5t-28.5 -20.5l-39.5 -34l-106 -100l120 -217q13 -23 28 -36.5t48 -13.5l-4 -32h-192l4 32q39 0 39 7q0 5 -2.5 12.5t-10.5 21.5l-93 169l-29 -27q-10 -9 -16 -17.5t-9 -20.5l-14 -98q-1 -1 -1 -9q0 -38 60 -38l-3 -32h-203l4 32
q23 0 43 12t24 35l48 336q1 5 1.5 9.5t0.5 6.5q0 40 -61 40l5 32h200l-5 -32q-58 0 -65 -49l-24 -170l170 156q12 11 21 22.5t11 25.5q0 8 -10.5 11.5t-34.5 3.5l4 32h183z" />
    <glyph glyph-name="Lsmall" unicode="&#xe053;" horiz-adv-x="416" 
d="M314 471q-61 0 -68 -52l-50 -351q0 -13 7 -19.5t27 -6.5h32q30 0 51.5 2t39.5 14t34 37.5t35 71.5l25 -5l-43 -162h-350l3 32q57 0 63 36l51 351q0 26 -12.5 39t-47.5 13l5 32h202z" />
    <glyph glyph-name="Msmall" unicode="&#xe054;" horiz-adv-x="629" 
d="M643 471q-24 0 -37.5 -3.5t-20.5 -9t-8.5 -13t-2.5 -15.5l-41 -343q-1 -1 -1 -12q0 -43 55 -43l-4 -32h-198l4 32q26 0 43.5 12.5t20.5 37.5l42 317l-192 -399h-23l-91 397l-46 -304q-1 -1 -1 -15q0 -46 59 -46l-3 -32h-170l3 32q62 0 73 66l53 342q0 2 0.5 4t0.5 4
q0 11 -11.5 17t-50.5 6l5 32h145l80 -367l179 367h143z" />
    <glyph glyph-name="Nsmall" unicode="&#xe055;" horiz-adv-x="515" 
d="M570 471q-61 0 -72 -77l-56 -396l-25 -7l-231 410l-40 -286q-1 -6 -1.5 -12t-0.5 -11q0 -60 58 -60l-3 -32h-170l3 32q57 0 69 83l46 330q0 13 -14 19.5t-49 6.5l5 32h129l206 -362l36 253q1 5 1 9v9q0 59 -60 59l5 32h169z" />
    <glyph glyph-name="Osmall" unicode="&#xe056;" horiz-adv-x="533" 
d="M325 477q-44 0 -76 -25.5t-53 -67t-31 -93.5t-10 -104q0 -70 27 -115t89 -45q40 0 72.5 23t55 62t34.5 90.5t12 108.5q0 34 -6.5 64.5t-20.5 53t-37 35.5t-56 13zM336 512q44 0 80 -15.5t61.5 -44t39 -67.5t13.5 -85q0 -53 -20 -108t-55.5 -100t-85 -74t-108.5 -29
q-44 0 -79.5 16t-60 44.5t-38 67.5t-13.5 85q0 55 20 110.5t55.5 100t84.5 72t106 27.5z" />
    <glyph glyph-name="Psmall" unicode="&#xe057;" horiz-adv-x="454" 
d="M232 503q22 0 34 0.5t22 1l20 1t28 0.5q135 0 135 -116q0 -35 -10.5 -66.5t-32.5 -55.5t-56 -38t-81 -14q-48 0 -75 7l-20 -139q0 -2 -0.5 -4.5t-0.5 -4.5q0 -43 60 -43l-4 -32h-202l3 32q60 0 68 50l50 348q0 21 -12.5 31t-46.5 10l5 32h116zM274 471q-23 0 -28 -35
l-25 -175q16 -3 34.5 -5t41.5 -2q24 0 42 11.5t30 30t18 41.5t6 47q0 87 -102 87h-17z" />
    <glyph glyph-name="Qsmall" unicode="&#xe058;" horiz-adv-x="540" 
d="M500 -38q-11 -29 -25 -46.5t-28 -26.5t-28 -11.5t-25 -2.5q-75 0 -94 114h-23q-62 0 -101 19t-61.5 48.5t-30.5 65.5t-8 71q0 63 21.5 121.5t58.5 102.5t86 70.5t104 26.5q45 0 80 -17t60 -46t38 -68t13 -84q0 -39 -10 -79.5t-31.5 -78.5t-54.5 -71.5t-79 -58.5
q3 -17 10.5 -31.5t17 -25.5t20.5 -17.5t21 -6.5q26 0 43 32h26zM341 474q-33 0 -65.5 -17t-58 -52t-41 -88t-15.5 -126q0 -78 30.5 -121t90.5 -43q39 0 70.5 22t54 60t35 89t12.5 108q0 32 -6 62.5t-19 54t-35 37.5t-53 14z" />
    <glyph glyph-name="Rsmall" unicode="&#xe059;" horiz-adv-x="465" 
d="M273 465q-19 0 -21 -9t-5 -29l-19 -139q0 -9 9 -9h36q17 0 37 3.5t37.5 15t29 34t11.5 60.5q0 21 -7.5 35.5t-19.5 22.5t-27 11.5t-29 3.5h-32zM204 503q32 0 66.5 2t73.5 2q55 0 90 -31t35 -79q0 -30 -10.5 -53t-28.5 -41t-42 -30t-51 -19q27 -15 43.5 -38.5t21.5 -63.5
q2 -16 5 -34.5t7.5 -34t11 -26t15.5 -10.5q10 0 24 35l23 -7q-2 -11 -8 -25t-16 -27t-23 -22t-29 -9q-35 0 -53 18.5t-26.5 46t-11.5 60t-8.5 60t-18 46t-38.5 18.5h-19q-14 0 -17 -5l-22 -160q-1 -1 -1 -9q0 -35 55 -35l-4 -32h-197l4 32q59 0 65 44l50 359q0 36 -59 36
l5 32h88z" />
    <glyph glyph-name="Ssmall" unicode="&#xe05a;" horiz-adv-x="400" 
d="M358 343q-5 60 -30 97t-70 37q-38 0 -64.5 -24.5t-26.5 -60.5q0 -22 11 -36.5t27.5 -24.5t34.5 -17t32 -13q24 -11 44 -22.5t34.5 -26t22 -33t7.5 -43.5q0 -32 -9.5 -65t-29.5 -60t-51 -44.5t-73 -17.5t-63.5 10.5t-29.5 18.5q-28 -21 -59 -31q1 58 3 105t7 82h32
q-1 -6 -1.5 -12t-0.5 -12q0 -28 9.5 -50.5t24.5 -38.5t34 -25t39 -9q14 0 32.5 6t35 18t28 30.5t11.5 43.5q0 47 -48 70q-32 15 -61.5 27t-52.5 27.5t-36.5 37.5t-13.5 57q0 38 13 69.5t34.5 54t48.5 34.5t56 12t46 -8.5t34 -21.5q11 8 24 14.5t27 11.5q2 -16 3.5 -32.5
t1.5 -33.5q0 -23 -2 -48.5t-6 -52.5h-29z" />
    <glyph glyph-name="Tsmall" unicode="&#xe05b;" horiz-adv-x="401" 
d="M440 344l-27 -5l1 20q0 101 -87 101q-29 0 -32 -22l-49 -342q-1 -1 -1 -13q0 -51 64 -51l-3 -32h-219l4 32q72 0 81 64l48 342q0 13 -5 19t-20 6q-83 0 -129 -130l-25 8l42 168q31 -6 59 -6h257q29 0 64 6z" />
    <glyph glyph-name="Usmall" unicode="&#xe05c;" horiz-adv-x="527" 
d="M586 471q-57 0 -66 -61l-32 -227q-6 -44 -18 -79.5t-36.5 -61t-65 -39.5t-103.5 -14q-41 0 -68.5 11t-44.5 31.5t-24 49t-7 63.5q0 5 2 11l39 277q0 39 -57 39l5 32h202l-4 -32q-64 0 -71 -49l-36 -247q-5 -18 -5 -27q0 -22 2 -43t12 -37t31.5 -26t60.5 -10q36 0 62 14
t43.5 35t27.5 46t13 48l33 235q1 1 1 15q0 46 -61 46l5 32h164z" />
    <glyph glyph-name="Vsmall" unicode="&#xe05d;" horiz-adv-x="436" 
d="M508 471h-24q-13 0 -20.5 -9t-17.5 -28l-225 -446l-28 7l-91 430q-10 46 -53 46l5 32h188l-5 -32h-34q-14 0 -17.5 -7.5t-3.5 -16.5v-10t1 -8l63 -321l144 307q6 13 6 27q0 29 -57 29l5 32h169z" />
    <glyph glyph-name="Wsmall" unicode="&#xe05e;" horiz-adv-x="609" 
d="M689 471q-15 0 -25.5 -4.5t-18 -13t-14 -21.5t-13.5 -31l-180 -409l-31 -3l-58 320l-135 -317l-32 -3l-79 436q-5 24 -18.5 35t-26.5 11l5 32h175l-4 -32q-29 0 -41.5 -6t-12.5 -17q0 -4 1 -9l2 -10l50 -302l109 247l-15 75q-4 22 -45 22l4 32h183l-5 -32q-29 0 -41.5 -8
t-12.5 -25q1 0 1 -2q0 -5 1 -8l48 -300l115 273q4 9 7.5 20.5t3.5 22.5q0 27 -52 27l4 32h156z" />
    <glyph glyph-name="Xsmall" unicode="&#xe05f;" horiz-adv-x="472" 
d="M517 471q-22 -1 -40.5 -7t-30.5 -20l-144 -167l113 -223q3 -6 6 -10t9 -6.5t15.5 -4t25.5 -1.5l-4 -32h-207l4 32q52 0 53 10q-2 5 -2.5 11.5t-5.5 16.5l-63 136l-105 -132q-7 -10 -7 -22q0 -20 57 -20l-4 -32h-183l4 32q20 0 43 12t46 40l133 159l-95 195
q-8 17 -24.5 24.5t-37.5 8.5l4 32h200l-4 -32q-27 0 -39 -4.5t-12 -12.5q0 1 5 -16l59 -126l92 115q7 10 7 24q0 20 -45 20l5 32h177z" />
    <glyph glyph-name="Ysmall" unicode="&#xe060;" horiz-adv-x="405" 
d="M493 471q-21 0 -35 -6t-23 -20l-159 -237l-21 -149q0 -13 14.5 -20t48.5 -7l-3 -32h-213l3 32q68 0 73 30l21 143l-83 205q-25 61 -65 61l5 32h191l-4 -32q-31 0 -41 -7t-10 -20q0 -5 2.5 -11.5t6.5 -15.5l63 -158l103 158q5 8 8.5 18.5t3.5 19.5q0 16 -51 16l5 32h165z
" />
    <glyph glyph-name="Zsmall" unicode="&#xe061;" horiz-adv-x="383" 
d="M429 474l-307 -431q10 -3 19 -4t17 -1h52q33 0 59 14.5t45.5 35t32.5 42.5t21 37l27 -7l-40 -160h-331l-1 23l310 435q-12 2 -24.5 3.5t-23.5 1.5h-30q-21 0 -40 -2t-37 -12.5t-34.5 -33.5t-32.5 -64h-29l38 158q27 -6 53 -6h260z" />
    <glyph glyph-name="zerooldstyle" unicode="&#xe062;" horiz-adv-x="476" 
d="M306 454q40 0 72 -15t54 -41.5t33.5 -61t11.5 -73.5q0 -48 -18.5 -97.5t-52 -90t-80 -66t-101.5 -25.5q-42 0 -73.5 14.5t-52.5 39.5t-31.5 58t-10.5 71q0 52 18.5 103.5t51.5 92.5t78.5 66t100.5 25zM274 405q-41 0 -66.5 -27.5t-40.5 -66t-20.5 -78.5t-5.5 -65
q0 -66 25 -101t80 -35q43 0 71 19.5t45 51t24 71t7 79.5q0 26 -5 53t-18 49t-36.5 36t-59.5 14z" />
    <glyph glyph-name="oneoldstyle" unicode="&#xe063;" horiz-adv-x="373" 
d="M398 401q-63 0 -91 -17t-33 -52l-33 -231q-1 -1 -1 -10q0 -59 105 -59l-3 -32h-311l4 32q57 0 87 17.5t35 51.5l35 241q0 59 -105 59l5 32h310z" />
    <glyph glyph-name="twooldstyle" unicode="&#xe064;" horiz-adv-x="468" 
d="M400 0h-296q-20 0 -38 -1t-33 -3v28q69 50 130.5 87t107.5 70t73 65.5t27 74.5q0 38 -28.5 57t-80.5 19q-55 0 -85 -17t-34 -46q28 -10 28 -33q0 -30 -14 -44.5t-34 -14.5q-32 0 -32 44q0 34 14 65t41 53.5t67 36t93 13.5q79 0 117 -31t38 -85q0 -48 -21 -84.5
t-58.5 -65.5t-88.5 -53.5t-112 -49.5h124q25 0 43.5 3t33 12.5t27 27t26.5 46.5l24 -4z" />
    <glyph glyph-name="threeoldstyle" unicode="&#xe065;" horiz-adv-x="440" 
d="M286 156q122 -15 122 -134q0 -41 -15.5 -80t-48 -69.5t-82 -49t-118.5 -18.5q-137 0 -137 88q0 69 56 69q29 0 29 -28q0 -37 -25 -44q0 -20 13 -29.5t45 -9.5q98 0 142 45t44 124q0 49 -22 71.5t-68 22.5h-47q-10 0 -10 10q0 14 4.5 21t10.5 7q39 0 68.5 14.5t49.5 38.5
t30 55t10 64q0 42 -19.5 60.5t-59.5 18.5q-88 0 -94 -46q13 -10 13 -28q0 -26 -13 -39.5t-33 -13.5q-32 0 -32 33q0 36 14 63t39.5 45.5t60.5 27.5t78 9q66 0 97 -32.5t31 -84.5q0 -40 -9 -68.5t-26 -48.5t-41.5 -33t-54.5 -22z" />
    <glyph glyph-name="fouroldstyle" unicode="&#xe066;" horiz-adv-x="469" 
d="M426 474q-18 -41 -24 -85l-42 -300q-1 -1 -1 -7q0 -13 12 -13h37q19 0 48 8l-10 -77h-83q-16 0 -19 -20l-25 -174h-80l25 174q0 10 -2.5 15t-12.5 5h-229l4 41l369 437zM93 69h164q20 0 23 20l33 238z" />
    <glyph glyph-name="fiveoldstyle" unicode="&#xe067;" horiz-adv-x="444" 
d="M471 478q-63 -126 -180 -126q-54 0 -97 12l-53 -154q49 28 103 28q176 0 176 -153q0 -70 -20 -122t-56 -87t-87.5 -52.5t-114.5 -17.5q-134 0 -134 74q0 55 36 55q24 0 24 -24q0 -22 -18 -37q18 -28 83 -28q41 0 76.5 14t61.5 42.5t41 71.5t15 100q0 107 -117 107
q-66 0 -106 -52l-30 16l97 309q38 -6 74 -9.5t71 -3.5q97 0 143 37h12z" />
    <glyph glyph-name="sixoldstyle" unicode="&#xe068;" horiz-adv-x="472" 
d="M439 659q-18 9 -40 9q-27 0 -61 -17t-67 -53.5t-59.5 -93t-37.5 -135.5q13 26 30.5 42.5t38.5 26t45 13t51 3.5q63 0 100 -41.5t37 -122.5q0 -72 -17.5 -129t-48 -96t-73.5 -60t-94 -21q-94 0 -139 50t-45 141q0 78 14.5 149t40 131t60 108.5t74.5 82.5t83.5 52.5
t86.5 18.5q74 0 74 -54q0 -56 -40 -56q-25 0 -25 22q0 18 12 30zM292 413q-32 0 -58.5 -22.5t-45.5 -58t-29.5 -80t-10.5 -87.5q0 -60 23.5 -98.5t77.5 -38.5q33 0 59 20.5t44 55t28 79t10 92.5q0 69 -26 103.5t-72 34.5z" />
    <glyph glyph-name="sevenoldstyle" unicode="&#xe069;" horiz-adv-x="400" 
d="M453 389q-45 -62 -82.5 -120.5t-67 -120t-50.5 -128.5t-32 -146q-5 -34 -24.5 -51t-39.5 -17q-47 0 -47 44v7.5t1 8.5q9 63 41 132.5t73.5 134t84.5 119t74 87.5q0 9 -8 9h-220q-38 0 -80 -97l-20 12l47 174q19 -3 41 -3.5t53 -0.5h263z" />
    <glyph glyph-name="eightoldstyle" unicode="&#xe06a;" horiz-adv-x="478" 
d="M366 398q48 -25 78 -66t30 -101q0 -62 -20 -108t-54 -77t-77.5 -46.5t-91.5 -15.5q-37 0 -69.5 10t-57 30t-38.5 49t-14 68q0 42 12.5 75t33.5 58.5t48.5 44.5t57.5 32q-34 28 -56 59.5t-22 82.5t16 92t45 70.5t69.5 45.5t89.5 16q29 0 56.5 -9t49 -26.5t34.5 -42.5
t13 -58t-11.5 -60.5t-30.5 -50t-43 -40.5t-48 -32zM251 330q-30 -6 -54 -24t-41.5 -43t-27 -55.5t-9.5 -61.5q0 -29 9.5 -52.5t26 -40.5t39 -26.5t49.5 -9.5q28 0 56.5 12t51 33t36.5 50t14 64t-15 58t-37.5 39.5t-49 29.5t-48.5 27zM334 415q52 28 76.5 68t24.5 91
q0 48 -28 74t-74 26q-24 0 -47.5 -8t-42 -24t-29.5 -40t-11 -56q0 -29 11.5 -51t30.5 -38t42 -26t47 -16z" />
    <glyph glyph-name="nineoldstyle" unicode="&#xe06b;" horiz-adv-x="479" 
d="M368 95q-32 -43 -68.5 -62t-96.5 -19q-30 0 -57 9.5t-46.5 29t-31 49t-11.5 69.5q0 64 18.5 116.5t50.5 89.5t75 57t93 20q91 0 138.5 -40t47.5 -135q0 -91 -24.5 -176.5t-69 -151.5t-107.5 -106t-140 -40q-81 0 -81 58q0 53 42 53q23 0 23 -20q0 -10 -4 -20t-10 -18
q18 -9 41 -9q37 0 73.5 20.5t66 55t50.5 78.5t28 92zM289 412q-29 0 -54.5 -16.5t-44.5 -47t-30 -74t-11 -97.5q0 -60 25.5 -83t76.5 -23q27 0 52.5 18t45 48t31.5 70t12 84q0 54 -24.5 87.5t-78.5 33.5z" />
    <glyph glyph-name="Asmallgrave" unicode="&#xe06c;" horiz-adv-x="430" 
d="M401 62q4 -17 17.5 -22t33.5 -8l-4 -32h-192l4 32q23 2 41 6.5t18 12.5q0 3 -0.5 7.5t-1.5 9.5l-17 92q0 16 -35 16h-99q-21 0 -28 -16l-34 -77q-5 -17 -5 -22q0 -26 54 -26l-4 -35h-159l6 35q16 2 32 14.5t29 37.5l225 429l23 -11zM181 247q-11 -20 -11 -23q0 -7 20 -7
h84q17 0 17 6q0 1 -5 24l-31 144zM364 512q-20 12 -46.5 24t-50.5 24t-40.5 24.5t-16.5 26.5q0 11 7 25.5t29 14.5q14 -4 29 -18t31.5 -32l34 -37.5t36.5 -33.5z" />
    <glyph glyph-name="Asmallacute" unicode="&#xe06d;" horiz-adv-x="430" 
d="M401 62q4 -17 17.5 -22t33.5 -8l-4 -32h-192l4 32q23 2 41 6.5t18 12.5q0 3 -0.5 7.5t-1.5 9.5l-17 92q0 16 -35 16h-99q-21 0 -28 -16l-34 -77q-5 -17 -5 -22q0 -26 54 -26l-4 -35h-159l6 35q16 2 32 14.5t29 37.5l225 429l23 -11zM181 247q-11 -20 -11 -23q0 -7 20 -7
h84q17 0 17 6q0 1 -5 24l-31 144zM198 530q22 14 46.5 35l47.5 40t42 32.5t30 13.5q17 0 21.5 -9.5t4.5 -20.5q0 -18 -19.5 -32t-47.5 -27t-60.5 -25t-57.5 -25z" />
    <glyph glyph-name="Asmallcircumflex" unicode="&#xe06e;" horiz-adv-x="430" 
d="M401 62q4 -17 17.5 -22t33.5 -8l-4 -32h-192l4 32q23 2 41 6.5t18 12.5q0 3 -0.5 7.5t-1.5 9.5l-17 92q0 16 -35 16h-99q-21 0 -28 -16l-34 -77q-5 -17 -5 -22q0 -26 54 -26l-4 -35h-159l6 35q16 2 32 14.5t29 37.5l225 429l23 -11zM181 247q-11 -20 -11 -23q0 -7 20 -7
h84q17 0 17 6q0 1 -5 24l-31 144zM395 535l-14 -12l-85 58l-103 -58l-10 12l123 116z" />
    <glyph glyph-name="Asmalldieresis" unicode="&#xe06f;" horiz-adv-x="430" 
d="M401 62q4 -17 17.5 -22t33.5 -8l-4 -32h-192l4 32q23 2 41 6.5t18 12.5q0 3 -0.5 7.5t-1.5 9.5l-17 92q0 16 -35 16h-99q-21 0 -28 -16l-34 -77q-5 -17 -5 -22q0 -26 54 -26l-4 -35h-159l6 35q16 2 32 14.5t29 37.5l225 429l23 -11zM181 247q-11 -20 -11 -23q0 -7 20 -7
h84q17 0 17 6q0 1 -5 24l-31 144zM433 609q0 -29 -13.5 -43.5t-36.5 -14.5q-39 0 -39 36q0 29 14 43.5t39 14.5q36 0 36 -36zM251 609q0 -29 -14 -43.5t-37 -14.5q-38 0 -38 35q0 59 52 59q37 0 37 -36z" />
    <glyph glyph-name="Asmalltilde" unicode="&#xe070;" horiz-adv-x="430" 
d="M401 62q4 -17 17.5 -22t33.5 -8l-4 -32h-192l4 32q23 2 41 6.5t18 12.5q0 3 -0.5 7.5t-1.5 9.5l-17 92q0 16 -35 16h-99q-21 0 -28 -16l-34 -77q-5 -17 -5 -22q0 -26 54 -26l-4 -35h-159l6 35q16 2 32 14.5t29 37.5l225 429l23 -11zM181 247q-11 -20 -11 -23q0 -7 20 -7
h84q17 0 17 6q0 1 -5 24l-31 144zM441 634q-14 -37 -40.5 -60.5t-58.5 -23.5q-17 0 -30 8.5t-25 19t-24 19.5t-28 9q-17 0 -34 -14.5t-31 -37.5l-17 12q14 38 42.5 61.5t54.5 23.5q25 0 38.5 -8.5t22.5 -19t19 -19t28 -8.5q17 0 33.5 11.5t33.5 41.5z" />
    <glyph glyph-name="Asmallring" unicode="&#xe071;" horiz-adv-x="430" 
d="M401 62q4 -17 15.5 -21t35.5 -9l-4 -32h-192l4 32q23 1 41 5.5t18 13.5q0 3 -0.5 7.5t-1.5 9.5l-17 92q0 16 -35 16h-99q-21 0 -28 -16l-34 -77q-5 -17 -5 -22q0 -26 54 -26l-4 -35h-159l6 35q17 2 32.5 14.5t28.5 37.5l198 380q-32 8 -50.5 33t-18.5 59q0 24 10 46
t27 39t39.5 27t46.5 10q42 0 68 -26.5t26 -64.5q0 -42 -26 -74.5t-64 -45.5zM181 247q-11 -20 -11 -23q0 -7 20 -7h84q17 0 17 5q0 2 -1.5 8t-3.5 17l-31 144zM304 640q-15 0 -29 -6t-24.5 -16.5t-17 -24.5t-6.5 -30q0 -27 16 -42t42 -15q29 0 52 21t23 56q0 25 -15.5 41
t-40.5 16z" />
    <glyph glyph-name="AEsmall" unicode="&#xe072;" horiz-adv-x="600" 
d="M614 355l-31 -4q0 40 -8.5 62.5t-23.5 33.5t-36 13.5t-46 2.5h-18q-47 0 -51 -30l-19 -133q0 -8 1 -12.5t7 -4.5h23q16 0 30 2t26 9.5t21 23.5t15 43h34l-29 -202h-34q0 27 -2.5 43t-10 25t-21 11.5t-34.5 2.5h-8q-14 0 -20 -5t-8 -15l-21 -142q-1 -1 -1 -8q0 -29 43 -29
h22q41 0 67 7t43.5 22t30.5 38t28 55l25 -7l-39 -157h-366l4 32q61 0 67 44l12 88q-2 12 -14 12h-106q-21 0 -28 -16l-34 -77q-5 -17 -5 -22q0 -26 54 -26l-4 -35h-159l6 35q34 3 61 52l221 416h351zM292 455l-111 -208q-11 -20 -11 -23q0 -7 20 -7h88q15 0 17 5l27 191
q1 5 1.5 10.5t0.5 10.5q0 8 -2.5 14.5t-8.5 6.5h-21z" />
    <glyph glyph-name="Csmallcedilla" unicode="&#xe073;" horiz-adv-x="469" 
d="M447 329q-6 72 -37 108.5t-82 36.5q-45 0 -76.5 -26.5t-52 -67t-30 -89t-9.5 -93.5q0 -75 27.5 -120.5t90.5 -45.5q25 0 46 6t39.5 21t36 40t36.5 63l26 -12q-24 -78 -77.5 -118t-117.5 -42l-4 -34q39 0 54 -17t15 -39q0 -20 -9 -36t-25 -27t-36.5 -17.5t-43.5 -6.5l2 21
q37 3 54.5 21t17.5 43q0 13 -5.5 21t-13.5 12t-18 5t-19 1l7 53q-81 6 -124.5 60.5t-43.5 142.5q0 69 22.5 127.5t58.5 101t82 66.5t94 24q49 0 90 -33q27 24 56 30q2 -3 4.5 -24t2.5 -53q0 -22 -1.5 -48t-5.5 -55h-31z" />
    <glyph glyph-name="Esmallgrave" unicode="&#xe074;" horiz-adv-x="463" 
d="M462 355l-31 -4q0 40 -8.5 62.5t-23.5 33.5t-36.5 13.5t-46.5 2.5h-17q-47 0 -51 -30l-19 -133q0 -8 1 -12.5t7 -4.5h23q16 0 30 2t26 9.5t21 23.5t15 43h34l-29 -202h-34q0 27 -3 43t-10.5 25t-20.5 11.5t-34 2.5h-9q-14 0 -19.5 -5t-7.5 -15l-21 -142q-1 -1 -1 -8
q0 -29 43 -29h22q41 0 67 7t43.5 22t30.5 38t28 55l25 -7l-39 -157h-366l4 32q61 0 67 44l49 348q0 47 -60 47l5 32h361zM381 512q-20 12 -46.5 24t-50.5 24t-40.5 24.5t-16.5 26.5q0 11 7 25.5t29 14.5q14 -4 29 -18t31.5 -32l34 -37.5t36.5 -33.5z" />
    <glyph glyph-name="Esmallacute" unicode="&#xe075;" horiz-adv-x="463" 
d="M462 355l-31 -4q0 40 -8.5 62.5t-23.5 33.5t-36.5 13.5t-46.5 2.5h-17q-47 0 -51 -30l-19 -133q0 -8 1 -12.5t7 -4.5h23q16 0 30 2t26 9.5t21 23.5t15 43h34l-29 -202h-34q0 27 -3 43t-10.5 25t-20.5 11.5t-34 2.5h-9q-14 0 -19.5 -5t-7.5 -15l-21 -142q-1 -1 -1 -8
q0 -29 43 -29h22q41 0 67 7t43.5 22t30.5 38t28 55l25 -7l-39 -157h-366l4 32q61 0 67 44l49 348q0 47 -60 47l5 32h361zM215 530q22 14 46.5 35l47.5 40t42 32.5t30 13.5q17 0 21.5 -9.5t4.5 -20.5q0 -18 -19.5 -32t-47.5 -27t-60.5 -25t-57.5 -25z" />
    <glyph glyph-name="Esmallcircumflex" unicode="&#xe076;" horiz-adv-x="463" 
d="M462 355l-31 -4q0 40 -8.5 62.5t-23.5 33.5t-36.5 13.5t-46.5 2.5h-17q-47 0 -51 -30l-19 -133q0 -8 1 -12.5t7 -4.5h23q16 0 30 2t26 9.5t21 23.5t15 43h34l-29 -202h-34q0 27 -3 43t-10.5 25t-20.5 11.5t-34 2.5h-9q-14 0 -19.5 -5t-7.5 -15l-21 -142q-1 -1 -1 -8
q0 -29 43 -29h22q41 0 67 7t43.5 22t30.5 38t28 55l25 -7l-39 -157h-366l4 32q61 0 67 44l49 348q0 47 -60 47l5 32h361zM411 535l-14 -12l-85 58l-103 -58l-10 12l123 116z" />
    <glyph glyph-name="Esmalldieresis" unicode="&#xe077;" horiz-adv-x="463" 
d="M462 355l-31 -4q0 40 -8.5 62.5t-23.5 33.5t-36.5 13.5t-46.5 2.5h-17q-47 0 -51 -30l-19 -133q0 -8 1 -12.5t7 -4.5h23q16 0 30 2t26 9.5t21 23.5t15 43h34l-29 -202h-34q0 27 -3 43t-10.5 25t-20.5 11.5t-34 2.5h-9q-14 0 -19.5 -5t-7.5 -15l-21 -142q-1 -1 -1 -8
q0 -29 43 -29h22q41 0 67 7t43.5 22t30.5 38t28 55l25 -7l-39 -157h-366l4 32q61 0 67 44l49 348q0 47 -60 47l5 32h361zM450 609q0 -29 -13.5 -43.5t-36.5 -14.5q-39 0 -39 36q0 29 14 43.5t39 14.5q36 0 36 -36zM268 609q0 -29 -14 -43.5t-37 -14.5q-38 0 -38 35
q0 59 52 59q37 0 37 -36z" />
    <glyph glyph-name="Ismallgrave" unicode="&#xe078;" horiz-adv-x="297" 
d="M314 471q-60 0 -69 -61l-47 -331q-1 -1 -1 -9q0 -38 58 -38l-4 -32h-202l3 32q62 0 70 47l47 331q1 1 1 13q0 48 -59 48l5 32h202zM297 512q-20 12 -46.5 24t-50.5 24t-40.5 24.5t-16.5 26.5q0 11 7 25.5t29 14.5q14 -4 29 -18t31.5 -32l34 -37.5t36.5 -33.5z" />
    <glyph glyph-name="Ismallacute" unicode="&#xe079;" horiz-adv-x="297" 
d="M314 471q-60 0 -69 -61l-47 -331q-1 -1 -1 -9q0 -38 58 -38l-4 -32h-202l3 32q62 0 70 47l47 331q1 1 1 13q0 48 -59 48l5 32h202zM131 530q22 14 46.5 35l47.5 40t42 32.5t30 13.5q17 0 21.5 -9.5t4.5 -20.5q0 -18 -19.5 -32t-47.5 -27t-60.5 -25t-57.5 -25z" />
    <glyph glyph-name="Ismallcircumflex" unicode="&#xe07a;" horiz-adv-x="297" 
d="M314 471q-60 0 -69 -61l-47 -331q-1 -1 -1 -9q0 -38 58 -38l-4 -32h-202l3 32q62 0 70 47l47 331q1 1 1 13q0 48 -59 48l5 32h202zM328 535l-14 -12l-85 58l-103 -58l-10 12l123 116z" />
    <glyph glyph-name="Ismalldieresis" unicode="&#xe07b;" horiz-adv-x="297" 
d="M314 471q-60 0 -69 -61l-47 -331q-1 -1 -1 -9q0 -38 58 -38l-4 -32h-202l3 32q62 0 70 47l47 331q1 1 1 13q0 48 -59 48l5 32h202zM371 609q0 -29 -13.5 -43.5t-36.5 -14.5q-39 0 -39 36q0 29 14 43.5t39 14.5q36 0 36 -36zM189 609q0 -29 -14 -43.5t-37 -14.5
q-38 0 -38 35q0 59 52 59q37 0 37 -36z" />
    <glyph glyph-name="Ethsmall" unicode="&#xe07c;" horiz-adv-x="544" 
d="M116 504q17 -2 32.5 -3t29.5 -1q23 0 41.5 1l35.5 2l34.5 2t38.5 1q103 0 156 -52t53 -149q0 -69 -19.5 -125.5t-58.5 -96t-98.5 -61.5t-139.5 -22h-172l3 32q19 0 32 2t21 8.5t12.5 19.5t7.5 34l21 148h-45l8 54h45l15 107q1 8 1.5 14.5t0.5 11.5q0 14 -4 21t-11.5 10
t-18.5 4.5t-26 5.5zM289 465q-22 0 -30 -6.5t-12 -34.5l-18 -126h105l-8 -54h-105l-21 -154q-2 -6 -2 -9q0 -15 1.5 -23.5t6.5 -13t14.5 -5.5t25.5 -1h20q40 0 74 16.5t59 50t39 85.5t14 123q0 78 -35 115t-102 37h-26z" />
    <glyph glyph-name="Nsmalltilde" unicode="&#xe07d;" horiz-adv-x="515" 
d="M570 471q-61 0 -72 -77l-56 -396l-25 -7l-231 410l-40 -286q-1 -6 -1.5 -12t-0.5 -11q0 -60 58 -60l-3 -32h-170l3 32q57 0 69 83l46 330q0 13 -14 19.5t-49 6.5l5 32h129l206 -362l36 253q1 5 1 9v9q0 59 -60 59l5 32h169zM483 634q-14 -37 -40.5 -60.5t-58.5 -23.5
q-17 0 -30 8.5t-25 19t-24 19.5t-28 9q-17 0 -34 -14.5t-31 -37.5l-17 12q14 38 42.5 61.5t54.5 23.5q25 0 38.5 -8.5t22.5 -19t19 -19t28 -8.5q17 0 33.5 11.5t33.5 41.5z" />
    <glyph glyph-name="Osmallgrave" unicode="&#xe07e;" horiz-adv-x="533" 
d="M325 477q-44 0 -76 -25.5t-53 -67t-31 -93.5t-10 -104q0 -70 27 -115t89 -45q40 0 72.5 23t55 62t34.5 90.5t12 108.5q0 34 -6.5 64.5t-20.5 53t-37 35.5t-56 13zM336 512q44 0 80 -15.5t61.5 -44t39 -67.5t13.5 -85q0 -53 -20 -108t-55.5 -100t-85 -74t-108.5 -29
q-44 0 -79.5 16t-60 44.5t-38 67.5t-13.5 85q0 55 20 110.5t55.5 100t84.5 72t106 27.5zM416 512q-20 12 -46.5 24t-50.5 24t-40.5 24.5t-16.5 26.5q0 11 7 25.5t29 14.5q14 -4 29 -18t31.5 -32l34 -37.5t36.5 -33.5z" />
    <glyph glyph-name="Osmallacute" unicode="&#xe07f;" horiz-adv-x="533" 
d="M325 477q-44 0 -76 -25.5t-53 -67t-31 -93.5t-10 -104q0 -70 27 -115t89 -45q40 0 72.5 23t55 62t34.5 90.5t12 108.5q0 34 -6.5 64.5t-20.5 53t-37 35.5t-56 13zM336 512q44 0 80 -15.5t61.5 -44t39 -67.5t13.5 -85q0 -53 -20 -108t-55.5 -100t-85 -74t-108.5 -29
q-44 0 -79.5 16t-60 44.5t-38 67.5t-13.5 85q0 55 20 110.5t55.5 100t84.5 72t106 27.5zM250 530q22 14 46.5 35l47.5 40t42 32.5t30 13.5q17 0 21.5 -9.5t4.5 -20.5q0 -18 -19.5 -32t-47.5 -27t-60.5 -25t-57.5 -25z" />
    <glyph glyph-name="Osmallcircumflex" unicode="&#xe080;" horiz-adv-x="533" 
d="M325 477q-44 0 -76 -25.5t-53 -67t-31 -93.5t-10 -104q0 -70 27 -115t89 -45q40 0 72.5 23t55 62t34.5 90.5t12 108.5q0 34 -6.5 64.5t-20.5 53t-37 35.5t-56 13zM336 512q44 0 80 -15.5t61.5 -44t39 -67.5t13.5 -85q0 -53 -20 -108t-55.5 -100t-85 -74t-108.5 -29
q-44 0 -79.5 16t-60 44.5t-38 67.5t-13.5 85q0 55 20 110.5t55.5 100t84.5 72t106 27.5zM446 535l-14 -12l-85 58l-103 -58l-10 12l123 116z" />
    <glyph glyph-name="Osmalldieresis" unicode="&#xe081;" horiz-adv-x="533" 
d="M325 477q-44 0 -76 -25.5t-53 -67t-31 -93.5t-10 -104q0 -70 27 -115t89 -45q40 0 72.5 23t55 62t34.5 90.5t12 108.5q0 34 -6.5 64.5t-20.5 53t-37 35.5t-56 13zM336 512q44 0 80 -15.5t61.5 -44t39 -67.5t13.5 -85q0 -53 -20 -108t-55.5 -100t-85 -74t-108.5 -29
q-44 0 -79.5 16t-60 44.5t-38 67.5t-13.5 85q0 55 20 110.5t55.5 100t84.5 72t106 27.5zM484 609q0 -29 -13.5 -43.5t-36.5 -14.5q-39 0 -39 36q0 29 14 43.5t39 14.5q36 0 36 -36zM302 609q0 -29 -14 -43.5t-37 -14.5q-38 0 -38 35q0 59 52 59q37 0 37 -36z" />
    <glyph glyph-name="Osmalltilde" unicode="&#xe082;" horiz-adv-x="533" 
d="M325 477q-44 0 -76 -25.5t-53 -67t-31 -93.5t-10 -104q0 -70 27 -115t89 -45q40 0 72.5 23t55 62t34.5 90.5t12 108.5q0 34 -6.5 64.5t-20.5 53t-37 35.5t-56 13zM336 512q44 0 80 -15.5t61.5 -44t39 -67.5t13.5 -85q0 -53 -20 -108t-55.5 -100t-85 -74t-108.5 -29
q-44 0 -79.5 16t-60 44.5t-38 67.5t-13.5 85q0 55 20 110.5t55.5 100t84.5 72t106 27.5zM492 634q-14 -37 -40.5 -60.5t-58.5 -23.5q-17 0 -30 8.5t-25 19t-24 19.5t-28 9q-17 0 -34 -14.5t-31 -37.5l-17 12q14 38 42.5 61.5t54.5 23.5q25 0 38.5 -8.5t22.5 -19t19 -19
t28 -8.5q17 0 33.5 11.5t33.5 41.5z" />
    <glyph glyph-name="Osmallslash" unicode="&#xe083;" horiz-adv-x="533" 
d="M468 463q29 -29 45.5 -70.5t16.5 -92.5q0 -53 -20 -108t-55.5 -100t-85 -74t-108.5 -29q-25 0 -47 5.5t-42 14.5l-39 -60l-33 20l40 62q-33 29 -51.5 72.5t-18.5 97.5q0 55 20 111t55.5 100t84 72t106.5 28q28 0 53.5 -7t45.5 -19l40 59l33 -19zM408 441q-32 36 -83 36
q-44 0 -76 -26t-53 -68t-31.5 -94.5t-10.5 -105.5q0 -29 4.5 -54t15.5 -45zM201 52q25 -25 70 -25q40 0 72.5 23t55 61.5t34.5 89.5t12 108q0 55 -15 96z" />
    <glyph glyph-name="Usmallgrave" unicode="&#xe084;" horiz-adv-x="527" 
d="M586 471q-57 0 -66 -61l-32 -227q-6 -44 -18 -79.5t-36.5 -61t-65 -39.5t-103.5 -14q-41 0 -68.5 11t-44.5 31.5t-24 49t-7 63.5q0 5 2 11l39 277q0 39 -57 39l5 32h202l-4 -32q-64 0 -71 -49l-36 -247q-5 -18 -5 -27q0 -22 2 -43t12 -37t31.5 -26t60.5 -10q36 0 62 14
t43.5 35t27.5 46t13 48l33 235q1 1 1 15q0 46 -61 46l5 32h164zM425 512q-20 12 -46.5 24t-50.5 24t-40.5 24.5t-16.5 26.5q0 11 7 25.5t29 14.5q14 -4 29 -18t31.5 -32l34 -37.5t36.5 -33.5z" />
    <glyph glyph-name="Usmallacute" unicode="&#xe085;" horiz-adv-x="527" 
d="M586 471q-57 0 -66 -61l-32 -227q-6 -44 -18 -79.5t-36.5 -61t-65 -39.5t-103.5 -14q-41 0 -68.5 11t-44.5 31.5t-24 49t-7 63.5q0 5 2 11l39 277q0 39 -57 39l5 32h202l-4 -32q-64 0 -71 -49l-36 -247q-5 -18 -5 -27q0 -22 2 -43t12 -37t31.5 -26t60.5 -10q36 0 62 14
t43.5 35t27.5 46t13 48l33 235q1 1 1 15q0 46 -61 46l5 32h164zM265 530q22 14 46.5 35l47.5 40t42 32.5t30 13.5q17 0 21.5 -9.5t4.5 -20.5q0 -18 -19.5 -32t-47.5 -27t-60.5 -25t-57.5 -25z" />
    <glyph glyph-name="Usmallcircumflex" unicode="&#xe086;" horiz-adv-x="527" 
d="M586 471q-57 0 -66 -61l-32 -227q-6 -44 -18 -79.5t-36.5 -61t-65 -39.5t-103.5 -14q-41 0 -68.5 11t-44.5 31.5t-24 49t-7 63.5q0 5 2 11l39 277q0 39 -57 39l5 32h202l-4 -32q-64 0 -71 -49l-36 -247q-5 -18 -5 -27q0 -22 2 -43t12 -37t31.5 -26t60.5 -10q36 0 62 14
t43.5 35t27.5 46t13 48l33 235q1 1 1 15q0 46 -61 46l5 32h164zM476 535l-14 -12l-85 58l-103 -58l-10 12l123 116z" />
    <glyph glyph-name="Usmalldieresis" unicode="&#xe087;" horiz-adv-x="527" 
d="M586 471q-57 0 -66 -61l-32 -227q-6 -44 -18 -79.5t-36.5 -61t-65 -39.5t-103.5 -14q-41 0 -68.5 11t-44.5 31.5t-24 49t-7 63.5q0 5 2 11l39 277q0 39 -57 39l5 32h202l-4 -32q-64 0 -71 -49l-36 -247q-5 -18 -5 -27q0 -22 2 -43t12 -37t31.5 -26t60.5 -10q36 0 62 14
t43.5 35t27.5 46t13 48l33 235q1 1 1 15q0 46 -61 46l5 32h164zM512 609q0 -29 -13.5 -43.5t-36.5 -14.5q-39 0 -39 36q0 29 14 43.5t39 14.5q36 0 36 -36zM330 609q0 -29 -14 -43.5t-37 -14.5q-38 0 -38 35q0 59 52 59q37 0 37 -36z" />
    <glyph glyph-name="Ysmallacute" unicode="&#xe088;" horiz-adv-x="405" 
d="M493 471q-21 0 -35 -6t-23 -20l-159 -237l-21 -149q0 -13 14.5 -20t48.5 -7l-3 -32h-213l3 32q68 0 73 30l21 143l-83 205q-25 61 -65 61l5 32h191l-4 -32q-31 0 -41 -7t-10 -20q0 -5 2.5 -11.5t6.5 -15.5l63 -158l103 158q5 8 8.5 18.5t3.5 19.5q0 16 -51 16l5 32h165z
M192 530q22 14 46.5 35l47.5 40t42 32.5t30 13.5q17 0 21.5 -9.5t4.5 -20.5q0 -18 -19.5 -32t-47.5 -27t-60.5 -25t-57.5 -25z" />
    <glyph glyph-name="Thornsmall" unicode="&#xe089;" horiz-adv-x="454" 
d="M311 471q-60 0 -69 -61q12 0 20.5 0.5l17 1t18 1t24.5 0.5q136 0 136 -114q0 -35 -10.5 -67t-32.5 -56t-56 -38.5t-81 -14.5q-22 0 -41 1.5t-35 5.5l-7 -51q0 -2 -0.5 -4t-0.5 -4q0 -39 58 -39l-4 -32h-202l3 32q65 0 71 47l46 331q1 4 1 7.5v6.5q0 47 -58 47l4 32h203z
M261 378q-23 0 -27 -30l-26 -180q15 -3 33.5 -5t41.5 -2q24 0 42 11t30.5 29t19 41t6.5 47q0 89 -103 89h-17z" />
    <glyph glyph-name="OEsmall" unicode="&#xe08a;" horiz-adv-x="742" 
d="M748 355l-31 -4q0 40 -8.5 62.5t-23.5 33.5t-36.5 13.5t-46.5 2.5h-17q-47 0 -51 -30l-18 -133q-1 -1 -1 -7q0 -10 8 -10h23q16 0 30 2t26 9.5t21 23.5t15 43h34l-29 -202h-34q0 27 -2.5 43t-10 25t-21 11.5t-34.5 2.5h-8q-25 0 -28 -20l-21 -142q-1 -1 -1 -8
q0 -29 43 -29h22q41 0 67 7t43.5 22t30.5 38t28 55l25 -7l-39 -157h-375q-17 -5 -33.5 -8t-33.5 -3q-44 0 -79.5 16t-60 44.5t-38 67.5t-13.5 85q0 55 20 110.5t55.5 100t84.5 72t106 27.5q32 0 59 -9h368zM325 477q-44 0 -76 -25.5t-53 -67t-31 -93.5t-10 -104
q0 -70 27 -115t89 -45q40 0 72.5 23t55 62t34.5 90.5t12 108.5q0 34 -6.5 64.5t-20.5 53t-37 35.5t-56 13z" />
    <glyph glyph-name="Lsmallslash" unicode="&#xe08b;" horiz-adv-x="416" 
d="M314 471q-61 0 -68 -52l-20 -145l124 34l6 -48l-137 -36l-23 -156q0 -13 7 -19.5t27 -6.5h32q30 0 51.5 2t39.5 14t34 37.5t35 71.5l25 -5l-43 -162h-350l3 32q57 0 63 36l20 135l-19 -5l-6 48l32 8l24 165q0 26 -12.5 39t-47.5 13l5 32h202z" />
    <glyph glyph-name="Ssmallcaron" unicode="&#xe08c;" horiz-adv-x="400" 
d="M358 343q-5 60 -30 97t-70 37q-38 0 -64.5 -24.5t-26.5 -60.5q0 -22 11 -36.5t27.5 -24.5t34.5 -17t32 -13q24 -11 44 -22.5t34.5 -26t22 -33t7.5 -43.5q0 -32 -9.5 -65t-29.5 -60t-51 -44.5t-73 -17.5t-63.5 10.5t-29.5 18.5q-28 -21 -59 -31q1 58 3 105t7 82h32
q-1 -6 -1.5 -12t-0.5 -12q0 -28 9.5 -50.5t24.5 -38.5t34 -25t39 -9q14 0 32.5 6t35 18t28 30.5t11.5 43.5q0 47 -48 70q-32 15 -61.5 27t-52.5 27.5t-36.5 37.5t-13.5 57q0 38 13 69.5t34.5 54t48.5 34.5t56 12t46 -8.5t34 -21.5q11 8 24 14.5t27 11.5q2 -16 3.5 -32.5
t1.5 -33.5q0 -23 -2 -48.5t-6 -52.5h-29zM394 636l-124 -115l-89 115l15 13l84 -58l104 58z" />
    <glyph glyph-name="Zsmallcaron" unicode="&#xe08d;" horiz-adv-x="383" 
d="M429 474l-307 -431q10 -3 19 -4t17 -1h52q33 0 59 14.5t45.5 35t32.5 42.5t21 37l27 -7l-40 -160h-331l-1 23l310 435q-12 2 -24.5 3.5t-23.5 1.5h-30q-21 0 -40 -2t-37 -12.5t-34.5 -33.5t-32.5 -64h-29l38 158q27 -6 53 -6h260zM395 636l-124 -115l-89 115l15 13
l84 -58l104 58z" />
    <glyph glyph-name="SSsmall" unicode="&#xe08e;" horiz-adv-x="800" 
d="M358 343q-5 60 -30 97t-70 37q-38 0 -64.5 -24.5t-26.5 -60.5q0 -22 11 -36.5t27.5 -24.5t34.5 -17t32 -13q24 -11 44 -22.5t34.5 -26t22 -33t7.5 -43.5q0 -32 -9.5 -65t-29.5 -60t-51 -44.5t-73 -17.5t-63.5 10.5t-29.5 18.5q-28 -21 -59 -31q1 58 3 105t7 82h32
q-1 -6 -1.5 -12t-0.5 -12q0 -28 9.5 -50.5t24.5 -38.5t34 -25t39 -9q14 0 32.5 6t35 18t28 30.5t11.5 43.5q0 47 -48 70q-32 15 -61.5 27t-52.5 27.5t-36.5 37.5t-13.5 57q0 38 13 69.5t34.5 54t48.5 34.5t56 12t46 -8.5t34 -21.5q11 8 24 14.5t27 11.5q2 -16 3.5 -32.5
t1.5 -33.5q0 -23 -2 -48.5t-6 -52.5h-29zM758 343q-5 60 -30 97t-70 37q-38 0 -64.5 -24.5t-26.5 -60.5q0 -22 11 -36.5t27.5 -24.5t34.5 -17t32 -13q24 -11 44 -22.5t34.5 -26t22 -33t7.5 -43.5q0 -32 -9.5 -65t-29.5 -60t-51 -44.5t-73 -17.5t-63.5 10.5t-29.5 18.5
q-28 -21 -59 -31q1 58 3 105t7 82h32q-1 -6 -1.5 -12t-0.5 -12q0 -28 9.5 -50.5t24.5 -38.5t34 -25t39 -9q14 0 32.5 6t35 18t28 30.5t11.5 43.5q0 47 -48 70q-32 15 -61.5 27t-52.5 27.5t-36.5 37.5t-13.5 57q0 38 13 69.5t34.5 54t48.5 34.5t56 12t46 -8.5t34 -21.5
q11 8 24 14.5t27 11.5q2 -16 3.5 -32.5t1.5 -33.5q0 -23 -2 -48.5t-6 -52.5h-29z" />
    <glyph glyph-name="ff" unicode="&#xfb00;" horiz-adv-x="468" 
d="M522 402h-81q-12 0 -15 -12l-49 -333q-6 -43 -18.5 -87.5t-33 -81t-50.5 -59.5t-72 -23q-67 0 -67 52q0 20 7 35.5t29 15.5q12 0 16 -7.5t8 -16.5t11.5 -16.5t24.5 -7.5q15 0 25.5 14.5t18.5 40.5t14.5 62t12.5 79l50 333q0 12 -9 12h-137q-12 0 -15 -12l-50 -333
q-6 -43 -21 -87.5t-39 -81t-56 -59.5t-72 -23q-38 0 -59 15.5t-21 45.5q0 17 8.5 29.5t26.5 12.5q12 0 18 -7.5t12.5 -16.5t15.5 -16.5t26 -7.5q19 0 32.5 14.5t24 40.5t18 62t13.5 79l50 333q0 12 -9 12h-51l23 42h31q12 0 16 28q7 57 28.5 104.5t50 82.5t60 54.5
t60.5 19.5t45 -15.5t16 -36.5q0 -20 -8.5 -35.5t-27.5 -15.5q-11 0 -16 7.5t-9.5 16.5t-10.5 16.5t-18 7.5q-16 0 -29.5 -12.5t-24 -32t-19 -43.5t-14 -48t-8 -45t-2.5 -34q0 -19 12 -19h133q12 0 16 28q7 57 28 104.5t49 82.5t60 54.5t61 19.5t45 -15.5t16 -36.5
q0 -20 -8 -35.5t-27 -15.5q-11 0 -16 7.5t-9.5 16.5t-10.5 16.5t-18 7.5q-24 0 -42.5 -27t-30.5 -63t-18 -72.5t-6 -55.5q0 -16 12 -16h84z" />
    <glyph glyph-name="fi" unicode="&#xfb01;" horiz-adv-x="416" 
d="M359 132l-4 -21t-2 -20q0 -21 8 -21q13 0 50 43l13 -23q-11 -17 -28 -34.5t-36 -32t-37 -24t-31 -9.5q-11 0 -17.5 7t-7.5 26q0 8 3 22l67 357h-130q-12 0 -15 -12l-49 -333q-6 -43 -21 -87.5t-38 -81t-54 -59.5t-71 -23q-37 0 -57 15t-20 44q0 18 7.5 31t27.5 13
q12 0 18 -7.5t11.5 -16.5t13.5 -16.5t25 -7.5q16 0 29 14.5t23.5 40.5t18.5 62t14 79l48 336q0 9 -8 9h-51l23 42h31q12 0 16 28q9 65 32 114t53 81.5t63.5 49t62.5 16.5q24 0 44 -10.5t34.5 -26t22 -33.5t7.5 -32q0 -17 -9 -30.5t-26 -13.5q-21 0 -29 14t-15 31.5
t-18.5 31.5t-39.5 14q-21 0 -41 -22t-35 -53.5t-24 -67.5t-9 -64q0 -12 2 -19.5t10 -7.5h210z" />
    <glyph glyph-name="fl" unicode="&#xfb02;" horiz-adv-x="458" 
d="M388 132q-4 -20 -4.5 -29.5t-0.5 -17.5q0 -15 8 -15q13 0 53 43l12 -23q-11 -17 -28 -34.5t-35.5 -32t-36.5 -24t-30 -9.5q-16 0 -21 10.5t-5 24.5q0 16 3 30l93 558q-35 65 -100 65q-38 0 -57 -53t-35 -147q-1 -5 -1.5 -10t-0.5 -10q3 -14 12 -14h84l-10 -42h-81
q-14 0 -15 -12l-50 -333q-6 -43 -20.5 -87.5t-38 -81t-55 -59.5t-70.5 -23q-37 0 -57 15t-20 44q0 18 7.5 31t27.5 13q12 0 18 -7.5t11.5 -16.5t13.5 -16.5t25 -7.5q19 0 32 14.5t23 40.5t17 62t13 79l49 336q0 9 -8 9h-51l23 42h31q12 0 16 28q7 57 27.5 104.5t48 82.5
t59 54.5t60.5 19.5q50 0 77 -39l88 39z" />
    <glyph glyph-name="ffi" unicode="&#xfb03;" horiz-adv-x="661" 
d="M593 132q-2 -9 -4 -19t-2 -19q0 -12 1.5 -18t7.5 -6q12 0 49 43l13 -23q-11 -17 -28 -34.5t-36 -32t-37 -24t-31 -9.5q-11 0 -17.5 7t-7.5 26q0 8 3 22l67 357h-130q-12 0 -15 -12l-47 -333q-6 -43 -19.5 -87.5t-35.5 -81t-53.5 -59.5t-72.5 -23q-32 0 -54.5 13t-22.5 39
q0 20 7 35.5t28 15.5q12 0 17 -7.5t9.5 -16.5t12.5 -16.5t25 -7.5q18 0 31 14.5t23 40.5t17.5 62t13.5 79l48 336q0 9 -9 9h-141q-11 0 -14 -12l-49 -333q-6 -43 -21 -87.5t-38 -81t-54.5 -59.5t-71.5 -23q-32 0 -54 13t-22 39q0 20 7 35.5t28 15.5q12 0 17.5 -7.5
l11.5 -16.5t14 -16.5t25 -7.5q18 0 31 14.5t23 40.5t17 62t13 79l49 333q0 12 -9 12h-49l20 42h32q13 0 17 28q7 57 27.5 104.5t47.5 82.5t58 54.5t60 19.5t45 -15.5t16 -36.5q0 -20 -8 -35.5t-27 -15.5q-11 0 -16 7.5t-9.5 16.5t-10.5 16.5t-18 7.5q-24 0 -41 -25.5
t-28.5 -60t-17 -70t-5.5 -56.5q0 -22 11 -22h138q11 2 15 28q10 65 33.5 114t53.5 81.5t63.5 49t62.5 16.5q24 0 44 -10.5t34.5 -26t22 -33.5t7.5 -32q0 -17 -9 -30.5t-26 -13.5q-21 0 -29 14t-15 31.5t-18.5 31.5t-39.5 14q-22 0 -42 -22t-35.5 -54.5t-24.5 -68.5t-9 -64
q0 -11 2 -18t10 -7h210z" />
    <glyph glyph-name="ffl" unicode="&#xfb04;" horiz-adv-x="669" 
d="M608 132q-3 -17 -3.5 -26t-0.5 -16q0 -9 1 -14.5t7 -5.5q14 0 51 43l14 -23q-11 -17 -28 -34.5t-36 -32t-37 -24t-31 -9.5q-12 0 -19 9t-8 33q0 5 3 13l94 568q-35 65 -100 65q-40 0 -59 -57.5t-34 -162.5q2 -7 4 -10.5t8 -3.5h83l-10 -42h-81q-11 0 -14 -12l-49 -333
q-6 -43 -19.5 -87.5t-35.5 -81t-53 -59.5t-73 -23q-36 0 -55.5 15t-19.5 44q0 18 7.5 31t26.5 13q12 0 17 -7.5t9.5 -16.5t12.5 -16.5t25 -7.5q16 0 29 14.5t23.5 40.5t18.5 62t14 79l48 336q0 9 -9 9h-122q-12 0 -15 -12l-49 -333q-6 -43 -22.5 -87.5t-41.5 -81
t-58.5 -59.5t-73.5 -23q-37 0 -58.5 15t-21.5 44q0 18 7.5 31t26.5 13q12 0 18.5 -7.5t13 -16.5t16 -16.5t26.5 -7.5q18 0 33 14.5t26.5 40.5t20.5 62t15 79l49 333q0 12 -9 12h-51l23 42h31q12 0 16 28q7 57 27.5 104.5t48 82.5t59 54.5t60.5 19.5t45 -15.5t16 -36.5
q0 -20 -8.5 -35.5t-27.5 -15.5q-11 0 -16 7.5t-9.5 16.5t-10.5 16.5t-18 7.5q-17 0 -30.5 -13t-24 -33.5t-17.5 -46t-12 -50t-7 -45t-2 -32.5q3 -14 12 -14h119q13 0 17 28q7 57 27.5 104.5t48.5 82.5t59 54.5t59 19.5q50 0 77 -39l86 39z" />
    <glyph glyph-name=".null" 
 />
    <glyph glyph-name="nonmarkingreturn" 
 />
    <glyph glyph-name="DC4" 
 />
    <glyph glyph-name="LF" 
 />
    <glyph glyph-name="DC1" 
 />
    <glyph glyph-name="HT" 
 />
    <glyph glyph-name="RS" 
 />
    <glyph glyph-name="DC2" 
 />
    <glyph glyph-name="NUL" 
 />
    <glyph glyph-name="DLE" 
 />
    <glyph glyph-name="US" 
 />
    <glyph glyph-name="DC3" 
 />
    </font>
</defs>
</svg>
