<?xml version="1.0" standalone="no"?>
<!DOCTYPE svg PUBLIC "-//W3C//DTD SVG 1.1//EN" "http://www.w3.org/Graphics/SVG/1.1/DTD/svg11.dtd" >
<svg>
<metadata>
Created by FontForge 20090622 at Tue Jul 11 06:50:46 2017
 By deploy user
The digitally encoded machine readable software for producing the Typefaces licensed to you is copyrighted (c) 2000, Linotype Library GmbH or its affiliated Linotype-Hell companies. All rights reserved. This software is now the property of Heidelberger Druckmaschinen AG and its licensors and may not be reproduced, used, displayed, modified, disclosed or transferred without the express written approval of Heidelberger Druckmaschinen AG.
</metadata>
<defs>
<font id="SnellRoundhand-BlackScript" horiz-adv-x="1100" >
  <font-face 
    font-family="SnellRoundhand Script"
    font-weight="700"
    font-style="italic"
    font-stretch="normal"
    units-per-em="2048"
    panose-1="2 11 8 0 0 0 0 0 0 0"
    ascent="1638"
    descent="-410"
    x-height="754"
    cap-height="1479"
    bbox="-1278 -663 2810 1927"
    underline-thickness="102"
    underline-position="-154"
    slope="-320"
    unicode-range="U+0020-U+F002"
  />
<missing-glyph horiz-adv-x="0" 
 />
    <glyph glyph-name=".notdef" horiz-adv-x="0" 
 />
    <glyph glyph-name="glyph1" horiz-adv-x="0" 
 />
    <glyph glyph-name="equal" unicode=" " horiz-adv-x="588" 
 />
    <glyph glyph-name="uni00A0" unicode="&#xa0;" horiz-adv-x="588" 
 />
    <glyph glyph-name="greater" unicode="!" horiz-adv-x="833" 
d="M436 276q119 195 281 359q61 63 114 112q52 46 88 89q37 43 60 83q20 43 20 95q0 65 -39 102q-41 35 -104 35q-59 0 -104 -47q-45 -49 -88 -180q-44 -148 -107 -328q-63 -178 -135 -309zM336 262q-60 0 -100 -39q-44 -41 -44 -104q0 -60 44 -101q40 -41 100 -43
q63 2 104 43q39 41 39 101q0 63 -39 104q-41 39 -104 39v0z" />
    <glyph glyph-name="question" unicode="&#x22;" horiz-adv-x="682" 
d="M446 1313q7 45 -2 102q-12 59 -79 64q-68 -5 -76 -64q-13 -57 -6 -102l36 -418q3 -14 11 -37q8 -27 35 -27q28 0 36 27q9 23 9 37zM776 1313q6 45 -2 102q-12 59 -80 64q-67 -5 -76 -64q-12 -57 -6 -102l37 -418q2 -14 10 -37q9 -27 35 -27q29 0 37 27q8 23 8 37z" />
    <glyph glyph-name="at" unicode="#" horiz-adv-x="1175" 
d="M119 326h170l-135 -326h129l135 326h213l-135 -326h127l135 326h176l28 106h-161l98 240h174l31 106h-160l135 328h-127l-135 -328h-213l135 328h-129l-135 -328h-186l-31 -106h172l-98 -240h-185zM772 672l-98 -240h-213l98 240h213z" />
    <glyph glyph-name="A" unicode="$" horiz-adv-x="1175" 
d="M596 467v0q47 -47 80 -96q28 -52 28 -107q-2 -104 -73 -182q-72 -80 -197 -82q-45 0 -86 20zM702 713v0q-57 57 -59 149q0 92 59 164q58 70 150 72q33 0 63 -13zM330 33v0q-39 33 -62 84q-22 51 -22 98q0 170 157 219q-24 27 -61 45q-39 21 -94 21q-96 -2 -158 -66
q-65 -65 -65 -164q0 -57 26 -104q25 -49 66 -86q86 -74 186 -96l-61 -119l22 -8l64 120q43 -10 96 -10q215 2 362 105q150 98 152 256q0 63 -19 114q-18 49 -51 90q-30 43 -69 82q-39 41 -80 80l215 381q43 -22 59 -63q15 -41 15 -88q-3 -60 -25 -111q-23 -53 -53 -84
q26 -22 88 -25q88 0 143 52q53 49 55 127q0 61 -28 104q-29 41 -74 68q-41 28 -84 43q-45 14 -74 20l78 143l-22 9l-80 -148q-39 8 -72 8q-170 0 -305 -84q-141 -84 -145 -268q2 -92 55 -162q49 -71 115 -133z" />
    <glyph glyph-name="B" unicode="%" horiz-adv-x="1857" 
d="M1485 618q-178 -2 -330 -118q-72 -56 -115 -133q-47 -80 -47 -172q2 -105 76 -162q72 -56 172 -58q170 2 326 123q71 56 116 133q45 74 45 160q-2 115 -67 172q-66 55 -176 55v0zM1573 512q-4 -123 -117 -307q-53 -86 -115 -144q-30 -26 -63 -43q-33 -18 -68 -18
q-30 0 -45 25q-16 20 -16 49q0 73 41 162q39 88 96 169q57 82 117 136q59 51 100 53q72 -2 70 -82v0zM713 987q-4 -123 -117 -307q-53 -86 -115 -143q-30 -27 -61 -43q-33 -19 -68 -19q-63 2 -61 70q0 65 41 153q39 88 96 172q57 86 117 144q59 53 100 55q70 -2 68 -82v0z
M1352 997q22 25 41 49q16 25 18 50q0 24 -16 39q-17 12 -41 12q-31 -2 -58 -41l-63 -90q-35 -51 -90 -90q-54 -45 -140 -45q-59 0 -90 34q-32 31 -61 72t-78 74q-51 33 -147 33q-179 -2 -330 -119q-72 -56 -115 -133q-47 -80 -47 -172q2 -105 76 -162q72 -57 172 -57
q172 2 324 124q71 60 116 142q45 80 45 176v22h4q41 -59 123 -59q92 0 164 53l4 -4l-760 -1018l15 -10z" />
    <glyph glyph-name="C" unicode="&#x26;" horiz-adv-x="1442" 
d="M1730 350q-45 -129 -165 -223q-123 -96 -312 -98q-219 2 -401 184q141 178 244 289q98 110 182 112q47 -2 57 -14q-45 -31 -45 -86q0 -51 31 -76q29 -26 76 -26q53 0 84 39q30 34 30 79q-4 144 -164 146q-75 0 -141 -39q-63 -37 -123 -103q-57 -65 -118 -143l-132 -160v0
q-182 193 -186 467l129 45q74 25 146 62q71 37 122 88q48 49 50 117q-2 73 -48 110q-45 35 -106 35q-98 0 -180 -45q-82 -43 -148 -119q-131 -153 -164 -327q-151 -48 -278 -146q-59 -49 -98 -117q-39 -67 -39 -155q2 -133 94 -205q88 -72 215 -74q186 4 342 113v0
q90 -60 199 -86q53 -12 108 -19q53 -8 107 -8q292 4 450 125q158 115 197 250zM254 328q0 106 49 186q47 80 141 127q-8 -45 -6 -92q2 -283 226 -457q-31 -20 -70 -31q-41 -12 -80 -12q-129 2 -195 80q-65 76 -65 199v0zM897 1001q-2 -114 -72 -182q-35 -35 -78 -59
q-47 -25 -100 -39v0v35q2 143 64 249q28 52 61 80q31 29 59 29q66 -4 66 -113v0z" />
    <glyph glyph-name="Ucircumflex" unicode="&#x2019;" horiz-adv-x="455" 
d="M213 782q80 2 184 23q103 20 195 69q192 117 194 299q0 70 -41 121q-41 47 -118 49q-70 -2 -111 -41q-41 -41 -41 -102q0 -49 31 -78q26 -28 63 -28q25 0 45 8q19 6 33 12q-29 -166 -151 -238q-125 -71 -283 -77v-17z" />
    <glyph glyph-name="E" unicode="(" horiz-adv-x="797" 
d="M182 -663q-2 69 -2 137q6 506 352 1099q340 592 877 889l-8 17q-543 -218 -907 -635q-377 -418 -383 -1084q0 -215 53 -423h18z" />
    <glyph glyph-name="F" unicode=")" horiz-adv-x="797" 
d="M604 1479q0 -68 2 -138q-6 -503 -350 -1095q-342 -594 -879 -893l9 -16q542 221 911 636q371 416 379 1082q-2 215 -53 424h-19z" />
    <glyph glyph-name="G" unicode="*" horiz-adv-x="682" 
d="M643 1331q2 55 -4 115q-12 59 -80 61q-27 0 -47 -18q-25 -21 -25 -49q2 -43 43 -113q37 -68 66 -106l-4 -5q-45 23 -98 64q-58 39 -109 41q-80 -4 -82 -80q2 -47 47 -61q43 -17 84 -17q78 0 150 8l4 -4l-127 -65q-37 -23 -64 -47q-28 -27 -28 -56q0 -28 18 -47
q16 -20 45 -20q33 0 64 26q28 25 49 60q24 35 43 71q16 35 28 58l4 -4q-10 -78 -10 -160q-2 -47 13 -82q14 -37 69 -37q27 0 49 21q21 16 21 43q-2 61 -33 118q-33 56 -59 105l4 4l92 -61q51 -39 100 -41q29 0 56 16q22 16 24 49q2 60 -49 72q-55 10 -217 10l-4 4l127 70
q35 18 57 41q21 22 21 49q0 29 -15 49q-16 20 -59 20q-31 0 -55 -20q-25 -23 -43 -57q-39 -74 -62 -127h-4v102z" />
    <glyph glyph-name="H" unicode="+" horiz-adv-x="1229" 
d="M532 434h-303v-131h303v-303h132v303h303v131h-303v303h-132v-303z" />
    <glyph glyph-name="I" unicode="," horiz-adv-x="588" 
d="M-197 -303q185 0 367 94q88 49 141 123q54 72 56 172q0 84 -39 135q-39 47 -129 49q-68 -2 -109 -47q-43 -45 -43 -114q0 -48 29 -80q28 -31 78 -33q45 2 82 24q-35 -167 -152 -231q-121 -63 -281 -80v-12z" />
    <glyph glyph-name="J" unicode="-" horiz-adv-x="833" 
d="M170 453l-121 -168h561l121 168h-561z" />
    <glyph glyph-name="uni00AD" unicode="&#xad;" horiz-adv-x="833" 
d="M170 453l-121 -168h561l121 168h-561z" />
    <glyph glyph-name="K" unicode="." horiz-adv-x="588" 
d="M203 291q-66 0 -109 -45q-47 -45 -47 -111q0 -65 47 -108q43 -45 109 -47q65 2 110 47q45 43 45 108q0 66 -45 111t-110 45v0z" />
    <glyph glyph-name="L" unicode="/" horiz-adv-x="569" 
d="M63 -33l664 1512h-129l-664 -1512h129z" />
    <glyph glyph-name="M" unicode="0" horiz-adv-x="1175" 
d="M913 758q-2 -191 -125 -453q-59 -119 -143 -203q-86 -84 -194 -86q-166 2 -168 283q2 201 135 459q65 121 151 200q86 80 189 82q90 -2 125 -86q30 -84 30 -196v0zM1180 754q-5 174 -115 251q-111 76 -250 76q-289 -8 -534 -256q-119 -114 -189 -256q-76 -143 -76 -288
q-4 -299 369 -306q270 7 524 236q119 111 195 250l35 73q12 33 22 70q19 74 19 150v0z" />
    <glyph glyph-name="N" unicode="1" horiz-adv-x="872" 
d="M76 672v0q235 63 450 166l4 -5l-510 -841l318 20q256 494 637 1094l-17 12q-399 -299 -888 -409z" />
    <glyph glyph-name="O" unicode="2" horiz-adv-x="1175" 
d="M1040 424q-53 -121 -125 -191q-73 -73 -180 -73q-43 0 -92 14q-51 10 -104 23q-109 34 -213 36q-64 0 -136 -16v4q115 72 273 119l155 49l152 51q74 27 139 64q66 35 115 80q100 88 102 239q0 139 -112 211q-113 72 -318 72q-211 -2 -329 -109q-121 -106 -121 -252
q0 -84 53 -137q47 -55 129 -55q98 2 162 67q63 64 69 156h-10q-16 -69 -104 -67q-58 0 -92 45q-39 43 -39 102q0 86 63 147q64 60 172 62q98 -2 150 -70q49 -69 49 -174q0 -127 -60 -207q-59 -82 -161 -141q-101 -55 -226 -113l-125 -63q-65 -33 -133 -76
q-190 -117 -241 -155q-29 -21 -37 -33q-10 -15 -10 -29q2 -27 30 -29q39 2 56 21q14 20 22 45q8 27 25 45q14 20 51 20q63 0 125 -20q61 -18 119 -45q61 -25 122 -45q60 -19 121 -21q140 2 234 62q94 55 155 131q62 80 95 149q32 68 47 97z" />
    <glyph glyph-name="P" unicode="3" horiz-adv-x="1175" 
d="M385 547q63 14 123 12q92 0 158 -45q65 -49 67 -156q-2 -166 -104 -260q-103 -98 -256 -98q-107 0 -158 59q-51 58 -51 146q0 69 41 119q39 47 94 49q43 -2 72 -43l16 6q-10 37 -59 96q-25 29 -64 47q-43 17 -100 17q-96 -2 -158 -66q-61 -63 -63 -162q2 -84 45 -139
q41 -57 110 -92q70 -33 150 -47q78 -15 149 -15q72 0 172 19q103 16 203 55q102 43 170 115t70 178q-2 119 -86 176q-82 53 -189 53h-18v4q69 9 155 27q84 16 162 49q80 33 131 94q51 58 51 150q0 96 -83 166q-86 67 -273 69q-180 -2 -291 -88q-112 -86 -112 -206
q0 -68 49 -113q45 -47 112 -47q64 0 107 26q43 25 63 60q25 35 33 67q8 29 8 39h-16q-12 -57 -72 -57q-53 0 -77 39q-27 35 -27 90q0 65 43 111q41 45 119 47q78 -2 125 -56q47 -53 47 -139q-2 -162 -123 -239q-121 -80 -313 -80h-142z" />
    <glyph glyph-name="Q" unicode="4" horiz-adv-x="1175" 
d="M1247 1065l-307 -33q-172 -313 -358 -614l-525 -8q609 530 1045 868l-230 -17l-909 -905q193 27 402 29h198l-248 -397l312 24q45 99 102 191t107 182h225l22 33h-229q188 325 393 647v0z" />
    <glyph glyph-name="R" unicode="5" horiz-adv-x="1175" 
d="M1243 1096q-37 -41 -94 -60q-57 -18 -115 -18q-84 0 -145 33q-64 32 -129 79v0l-451 -553l25 -20q43 27 92 49q49 21 104 21q195 -4 191 -234q0 -127 -76 -254q-39 -59 -98 -98q-58 -41 -137 -41q-97 0 -154 49q-61 45 -61 146q0 61 36 112q35 49 99 51q63 2 82 -55l14 8
q-12 49 -33 86q-22 35 -53 56q-59 41 -139 36q-103 -2 -158 -61q-55 -63 -57 -164q2 -76 37 -131q34 -55 94 -90q121 -68 278 -68q215 0 404 107q92 53 145 135t55 193q-2 127 -92 196q-92 70 -241 70q-95 0 -160 -19q-66 -18 -127 -47l-4 4l250 291v0q106 -72 233 -72
q92 0 162 35q67 29 117 74q49 43 79 84q29 39 37 55z" />
    <glyph glyph-name="S" unicode="6" horiz-adv-x="1175" 
d="M676 782q84 -2 117 -69q30 -68 30 -144q0 -145 -73 -346q-39 -94 -101 -155q-63 -66 -153 -68q-172 0 -179 248q0 157 95 338q47 84 114 141q66 53 150 55v0zM408 641q90 225 348 477q125 121 260 197q137 75 266 78q111 -3 170 -66q59 -66 59 -172q0 -49 -10 -94
q-12 -45 -29 -88q224 2 228 221q0 231 -365 231q-520 -12 -882 -362q-373 -340 -381 -725q0 -74 18 -139q10 -31 25 -62q12 -31 30 -57q76 -111 277 -113q237 4 436 189q205 180 211 432q0 123 -68 194q-67 72 -206 74q-136 -2 -236 -74q-100 -69 -147 -145z" />
    <glyph glyph-name="T" unicode="7" horiz-adv-x="1175" 
d="M8 -260l377 33q25 57 115 192q88 133 223 320l604 821l-18 12q-95 -121 -244 -123q-84 4 -191 58q-51 22 -104 39q-55 14 -111 14q-88 -2 -165 -47q-78 -45 -134 -105l-4 4l31 172h-27l-30 -194l-88 -86q-25 -25 -41 -47q-21 -25 -21 -47q0 -37 41 -35q25 0 45 22
q19 21 31 52l47 120q31 19 72 19q51 0 106 -15q51 -16 107 -38q55 -19 110 -35q56 -19 115 -19q174 4 307 119l4 -4l-1157 -1202v0z" />
    <glyph glyph-name="U" unicode="8" horiz-adv-x="1175" 
d="M922 641q141 10 256 94q112 84 116 234q-2 174 -110 260q-109 82 -279 82q-164 -2 -297 -101q-137 -100 -141 -274q0 -103 45 -195q-180 -20 -324 -129q-147 -108 -151 -305q2 -155 108 -246q105 -92 277 -94q188 2 346 113q162 110 166 325q-2 91 -35 166
q-37 76 -82 150t-78 153q-39 76 -39 162q-2 94 39 166q39 74 140 76q55 0 98 -29q41 -31 67 -82q58 -104 58 -202q0 -105 -35 -187q-41 -84 -145 -125v-12zM246 373q0 137 71 229q68 92 203 115l117 -207q61 -107 63 -229q0 -48 -8 -97q-12 -49 -37 -90q-47 -92 -172 -94
q-61 0 -104 39q-45 35 -76 92q-57 119 -57 242v0z" />
    <glyph glyph-name="V" unicode="9" horiz-adv-x="1175" 
d="M881 813q-5 -229 -117 -375q-53 -69 -113 -110q-61 -41 -121 -41q-79 0 -112 71q-35 70 -35 187q0 45 18 131q17 86 54 174q39 90 102 151q61 62 152 64q94 -2 135 -78q37 -78 37 -174v0zM790 414q-141 -303 -389 -572q-122 -127 -262 -207q-141 -79 -295 -81
q-139 2 -219 94q-82 88 -84 217q0 59 17 106q-90 0 -146 -51q-57 -49 -59 -137q2 -121 108 -191q105 -69 293 -71q551 12 953 409q409 383 419 848q0 51 -14 107q-14 57 -51 106q-37 51 -99 82q-63 33 -159 33q-256 -4 -455 -191q-205 -180 -211 -424q2 -155 84 -221
q78 -65 168 -65q135 2 238 67q102 62 159 146z" />
    <glyph glyph-name="W" unicode=":" horiz-adv-x="588" 
d="M508 737q-66 0 -109 -45q-47 -45 -47 -110q0 -66 47 -109q43 -47 109 -47q65 0 110 47q46 43 46 109q0 65 -46 110q-45 45 -110 45v0zM242 279q-66 0 -109 -46q-47 -45 -47 -110q0 -66 47 -109q43 -45 109 -47q65 2 110 47q45 43 45 109q0 65 -45 110q-45 46 -110 46v0z
" />
    <glyph glyph-name="X" unicode=";" horiz-adv-x="588" 
d="M-154 -303q185 0 367 94q88 49 141 123q54 72 56 172q0 84 -39 135q-39 47 -129 49q-68 -2 -109 -47q-43 -45 -43 -114q0 -48 29 -80q28 -31 78 -33q45 2 82 24q-35 -167 -152 -231q-121 -63 -281 -80v-12zM512 737q-66 0 -109 -45q-47 -45 -47 -110q0 -66 47 -109
q43 -47 109 -47q65 0 111 47q45 43 45 109q0 65 -45 110q-46 45 -111 45v0z" />
    <glyph glyph-name="Y" unicode="&#x3c;" horiz-adv-x="1229" 
d="M938 -53v139l-629 283l629 282v139v0l-737 -339v-164l737 -340v0z" />
    <glyph glyph-name="Z" unicode="=" horiz-adv-x="1229" 
d="M967 571h-738v-131h738v131zM967 297h-738v-131h738v131z" />
    <glyph glyph-name="bracketleft" unicode="&#x3e;" horiz-adv-x="1229" 
d="M303 -53v0l737 340v164l-737 339v0v-139l629 -282l-629 -283v-139z" />
    <glyph glyph-name="backslash" unicode="?" horiz-adv-x="1024" 
d="M455 274q55 82 145 123q43 21 90 39l86 29q131 43 250 131q55 47 90 104q35 56 35 129q-2 138 -92 220q-92 79 -238 81q-229 -4 -358 -112q-133 -111 -135 -260q0 -88 49 -142q49 -55 121 -55q65 0 110 31q43 26 70 69q51 93 51 191h-20q2 -55 -25 -94q-27 -41 -96 -41
q-51 0 -80 51q-33 47 -33 104q0 88 51 142q49 53 127 55q107 -2 172 -76q66 -76 68 -186q-2 -109 -49 -176q-51 -70 -123 -121l-146 -100q-75 -54 -131 -127zM332 262q-60 0 -101 -39q-43 -41 -43 -104q0 -60 43 -101q41 -41 101 -43q63 2 104 43q39 41 39 101q0 63 -39 104
q-41 39 -104 39v0z" />
    <glyph glyph-name="bracketright" unicode="@" horiz-adv-x="1638" 
d="M1094 866q-25 -223 -97 -334q-73 -110 -149 -110q-49 0 -84 43q-37 43 -37 129q2 141 90 274q41 64 90 101q47 39 96 39q91 -3 91 -142v0zM1132 1005v0q-18 44 -47 78q-28 33 -102 35q-100 -2 -178 -53t-133 -133q-113 -174 -113 -334q0 -125 53 -205q54 -82 154 -82
q49 0 92 21q41 20 74 45q35 28 55 53q21 27 27 39h4q-2 -29 43 -88q24 -29 61 -47q37 -23 88 -23q99 0 174 54q74 47 123 124q103 166 103 344q-4 283 -203 463q-199 181 -504 183q-326 -2 -549 -215q-229 -215 -233 -574q-2 -237 192 -471q195 -242 613 -252q127 2 237 41
q111 37 211 88l-24 84v0q-89 -43 -187 -71q-98 -31 -239 -31q-263 4 -428 178q-172 170 -174 410q4 364 180 542q172 172 401 172q285 -6 440 -182q156 -170 156 -367q0 -147 -70 -284q-32 -66 -79 -107q-50 -43 -107 -43q-41 0 -59 31q-17 29 -17 63q0 25 11 60l129 532
h-152z" />
    <glyph glyph-name="asciicircum" unicode="A" horiz-adv-x="1933" 
d="M2263 1491q-213 -51 -402 -156q-188 -106 -344 -235q-153 -127 -266 -244l-178 -190q-170 -199 -409 -406q-117 -96 -240 -158q-123 -65 -248 -65q-82 0 -135 35q-53 30 -61 96q34 0 67 29q29 24 31 73q-2 66 -37 92q-37 27 -82 27q-76 -2 -111 -53q-36 -49 -36 -107
q2 -108 86 -176q84 -67 235 -69q146 2 277 65q131 64 249 160q238 209 424 426h275q-56 -105 -101 -219q-47 -117 -49 -240q4 -209 236 -209q141 2 243 68q101 63 183 151q153 162 286 336l-14 15q-127 -166 -291 -340q-80 -82 -162 -134q-79 -55 -151 -55q-27 0 -47 25
q-25 20 -25 76q0 143 76 319q74 174 193 360q251 381 550 674zM1102 659q162 177 372 369q209 188 439 301l4 -4q-326 -295 -547 -666h-268z" />
    <glyph glyph-name="underscore" unicode="B" horiz-adv-x="2048" 
d="M2107 1499q-121 0 -215 -18q-94 -17 -174 -50q-158 46 -428 48q-395 -2 -747 -205q-168 -99 -271 -238q-106 -137 -108 -313q0 -141 86 -234q84 -94 229 -96q225 4 342 156q117 145 117 348q0 90 -21 152q-22 59 -53 116l-20 -8q65 -121 69 -250q0 -67 -16 -143
q-18 -76 -55 -141q-37 -66 -92 -107q-56 -45 -134 -45q-110 2 -161 74q-54 69 -54 174q4 321 263 524q249 207 622 211q125 -2 211 -18q86 -19 131 -46q-240 -116 -395 -339q-158 -226 -281 -463q-123 -238 -260 -406q-139 -170 -344 -174q-137 -4 -158 139q84 29 84 111
q0 59 -34 92q-37 31 -99 31q-67 -2 -106 -47q-37 -45 -39 -107q4 -131 108 -188q101 -55 240 -55q324 2 516 141q193 137 315 346q127 211 248 438q119 230 295 418v0q78 -80 76 -195q-8 -344 -414 -411l-8 -19q117 23 207 -34q90 -58 92 -209q-2 -168 -104 -310
q-47 -65 -107 -106q-59 -43 -125 -43q-92 0 -94 84q0 53 33 98q30 43 65 74q-41 55 -133 59q-69 0 -110 -41q-43 -41 -43 -112q0 -51 26 -88q23 -37 62 -62q82 -45 174 -45q237 2 430 131q94 64 149 150q54 84 56 184q-5 283 -385 293v4q151 8 307 88q76 41 123 105
q45 65 45 153q-2 123 -66 201q-65 76 -170 123q68 51 146 67q77 15 157 8v25z" />
    <glyph glyph-name="grave" unicode="C" horiz-adv-x="1479" 
d="M1218 1276q-71 -78 -71 -164q2 -102 74 -152q69 -49 167 -49q168 2 283 103q117 96 119 229q0 76 -29 125q-29 45 -78 70q-47 24 -106 32q-60 9 -125 9q-383 -11 -780 -334q-185 -150 -305 -336q-123 -186 -125 -383q-4 -453 475 -459q270 6 467 172q198 160 202 367
q-2 112 -73 182q-74 68 -187 70q-98 0 -170 -45q-73 -43 -118 -119q-95 -156 -93 -326h25q-2 74 49 238q29 74 80 125t131 53q86 -2 125 -70q35 -67 35 -161q-4 -177 -129 -306q-125 -137 -291 -139q-106 2 -172 101q-70 94 -70 227q9 420 312 760q139 161 307 260
q166 96 332 98q151 2 155 -139q-2 -125 -82 -242q-39 -55 -94 -90q-55 -39 -123 -39q-69 0 -114 49q-50 45 -50 121q0 57 25 94q20 37 39 56z" />
    <glyph glyph-name="a" unicode="D" horiz-adv-x="2048" 
d="M2154 1503q-264 -18 -495 -149v0q-176 120 -473 125q-353 -2 -658 -201q-147 -94 -235 -234q-90 -139 -92 -311q0 -145 90 -246q88 -106 239 -108q207 0 340 137q131 135 133 373q0 125 -57 270l-20 -8q53 -146 53 -275q0 -147 -84 -286q-43 -66 -105 -107
q-61 -43 -145 -43q-115 2 -162 84q-47 78 -45 183q6 325 238 534q225 209 502 213q292 -4 442 -121q-193 -121 -320 -313q-129 -195 -254 -440q-120 -232 -237 -379q-119 -146 -277 -176v0q-122 26 -223 45q-100 20 -160 20q-92 -2 -90 -49q2 -74 193 -74q151 2 270 25
q82 -21 336 -25q207 0 410 37q202 35 370 123q170 88 271 240q100 153 102 385q-2 180 -80 319q-76 139 -190 225q170 172 413 183v24zM594 14q270 84 432 217q162 131 266 295q105 168 195 353q92 186 213 374v0q47 -63 61 -141q12 -78 12 -156q0 -319 -215 -628
q-108 -148 -274 -240q-168 -94 -399 -96q-160 0 -291 18v4z" />
    <glyph glyph-name="b" unicode="E" horiz-adv-x="1442" 
d="M942 973q72 -29 147 -29q140 0 271 70q63 37 100 92q39 53 39 129q-4 139 -100 192q-95 52 -215 52q-123 0 -271 -62q-149 -65 -252 -215q-32 -53 -49 -127q-16 -72 -28 -145q-11 -72 -25 -125q-14 -58 -41 -78q-47 -29 -115 -61q-69 -33 -139 -78q-69 -45 -115 -113
q-51 -70 -51 -170q0 -94 49 -158q48 -67 119 -106q72 -39 156 -55q82 -19 155 -19q293 4 527 148q112 67 178 153q63 84 65 180q0 107 -69 172q-70 64 -217 66q-144 -2 -262 -96q-119 -94 -183 -209l21 -8q18 32 49 73q29 39 66 74q41 37 86 62q43 22 96 22q98 -2 147 -70
q45 -67 45 -159q0 -58 -20 -117q-21 -63 -70 -117q-45 -53 -123 -84q-77 -37 -188 -37q-145 0 -244 99q-102 94 -104 264q2 147 71 233q68 84 156 138l88 53q41 24 76 49q72 47 84 119q35 237 92 358q59 121 178 121q94 -2 139 -72q41 -71 41 -161q0 -89 -49 -168
q-53 -82 -178 -84q-63 0 -129 20z" />
    <glyph glyph-name="c" unicode="F" horiz-adv-x="1821" 
d="M1128 686q-59 -96 -123 -213q-63 -117 -143 -223q-76 -103 -178 -170q-102 -72 -244 -72q-78 0 -131 33q-57 33 -71 115q88 30 90 127q-2 57 -37 88q-39 30 -92 30q-64 -2 -105 -47q-45 -45 -45 -108q0 -74 37 -123q35 -51 90 -82q119 -57 250 -57q369 2 608 196
q240 193 391 510q43 4 90 10q45 9 76 9l-80 -175q-37 -88 -57 -184l18 2q193 293 467 512h-225q-12 0 -25 -12q-16 -12 -28 -33l-23 -35q-12 -16 -22 -24q-47 -29 -180 -41q81 160 231 342q74 84 160 141q84 53 178 55q92 -8 205 -12q67 -2 151 19q39 12 64 34q26 23 26 62
q-2 57 -57 82q-55 20 -107 20q-200 10 -743 17q-158 0 -385 -25q-227 -27 -455 -98q-223 -70 -376 -201q-158 -131 -160 -336q2 -160 115 -248q108 -88 235 -88q195 0 358 125q168 123 173 330q-3 72 -13 115q-14 43 -24 59l-19 -10q31 -74 31 -156q0 -86 -51 -149
q-51 -68 -129 -113q-170 -90 -326 -90q-51 0 -104 12q-58 12 -105 39q-106 53 -108 186q2 142 108 230q103 88 271 137q352 88 755 84q385 -8 602 -12v-4q-262 -60 -463 -185q-200 -123 -331 -370l-119 -4l-12 -25z" />
    <glyph glyph-name="d" unicode="G" horiz-adv-x="1479" 
d="M1517 1470q72 0 123 -30q49 -31 52 -119q-5 -131 -119 -193q-113 -63 -234 -63q-82 0 -176 33q-94 32 -172 114q98 86 240 170q139 84 286 88v0zM1061 1653q-72 -23 -127 -86q-58 -64 -58 -148q0 -59 21 -115q-176 -98 -315 -262q-144 -163 -148 -376q0 -136 74 -218
q72 -83 211 -83q96 0 200 47q107 45 175 104h4q-84 -186 -228 -348q-71 -78 -163 -125q-93 -49 -203 -51q-131 0 -209 57q-80 57 -66 197q60 0 95 39q32 34 32 92q-2 57 -41 88t-92 31q-88 -2 -129 -68q-20 -31 -31 -68q-10 -36 -10 -77q0 -80 43 -138q41 -57 107 -98
q139 -80 282 -80q285 4 482 129q194 123 313 285q119 164 172 289q49 125 49 137q0 20 -59 20q-158 0 -224 -61q-67 -64 -104 -201q-4 -16 -27 -35q-24 -22 -59 -41q-35 -18 -70 -28q-36 -15 -67 -15q-92 2 -131 74q-39 70 -39 154q2 151 74 282q71 129 178 238v0
q182 -176 438 -170q141 -2 299 57q74 31 121 86q45 51 45 131q0 62 -33 101q-33 37 -84 59q-106 39 -205 37q-338 -8 -635 -178q-20 41 -18 104q0 76 51 131q45 54 109 80v21z" />
    <glyph glyph-name="e" unicode="H" horiz-adv-x="2048" 
d="M1534 713q-49 -107 -92 -232q-47 -125 -49 -243q-3 -111 49 -189q26 -37 69 -59q39 -23 101 -23q108 2 206 64q99 61 185 151q86 92 160 187l124 165l-16 9l-86 -115t-137 -168t-158 -151q-41 -31 -78 -48q-39 -20 -75 -20q-50 0 -64 51q-16 45 -14 113q0 137 76 340
q73 198 188 397q119 199 256 334q137 133 272 137q43 -2 72 -31q27 -28 47 -67q25 -39 53 -68q29 -35 74 -35q94 2 98 103q-4 88 -100 112q-41 13 -86 17q-47 2 -82 2q-229 0 -504 -172q-274 -174 -473 -529h-274q78 174 264 426q94 117 199 195q102 78 211 80q41 0 77 -4
q35 -9 56 -9q37 0 53 13q14 10 14 22q0 15 -8 27q-12 12 -57 12q-58 -2 -203 -20q-145 -23 -362 -25q-558 -2 -908 -151q-350 -152 -358 -435q6 -108 84 -182q76 -76 194 -76q170 2 295 99q127 92 131 245q-2 89 -36 140l-19 -6q29 -50 31 -131q-2 -109 -86 -187
q-84 -84 -207 -86q-88 0 -127 58q-39 51 -39 126q4 199 168 314q160 117 391 170q502 92 813 86v-4q-360 -78 -569 -299q-209 -224 -344 -486l-135 -241q-66 -115 -140 -207q-71 -90 -163 -143q-95 -58 -213 -58q-138 2 -136 148q72 26 76 98q0 57 -28 94q-31 35 -91 37
q-73 -2 -112 -51q-41 -51 -41 -121q2 -59 33 -102q30 -43 79 -72q103 -55 220 -55q616 4 976 729h275z" />
    <glyph glyph-name="f" unicode="I" horiz-adv-x="1479" 
d="M979 1020q45 -62 45 -146q-2 -90 -82 -170q-82 -84 -190 -86q-86 2 -138 62q-53 57 -53 143q2 178 141 293q136 113 349 176q450 113 917 109l2 -4q-321 -88 -516 -246t-350 -453q-51 -100 -119 -219q-68 -121 -158 -231q-88 -111 -204 -180q-115 -74 -263 -76
q-104 0 -170 49q-65 49 -75 143q73 25 77 105q0 53 -26 92q-27 39 -88 41q-68 0 -113 -41q-45 -43 -47 -119q2 -133 129 -213q125 -80 313 -82q613 -14 1020 715q170 338 342 526q170 187 334 189q25 0 66 -4q38 -9 100 -9q41 0 67 13q27 10 27 30q0 29 -24 41
q-25 11 -64 11q-65 -2 -158 -25q-94 -27 -288 -29q-90 0 -318 -8q-227 -12 -485 -70q-258 -53 -442 -176q-193 -122 -197 -346q0 -123 82 -198q80 -82 201 -82q141 0 280 88q66 43 107 104q39 62 39 142q-3 86 -52 151z" />
    <glyph glyph-name="g" unicode="J" horiz-adv-x="1479" 
d="M983 1022q45 -76 45 -141q-2 -109 -74 -183q-71 -78 -170 -80q-94 0 -147 54q-60 53 -60 147q5 217 199 338q189 121 447 172q260 53 481 64q221 8 295 8v-4q-416 -68 -766 -523q-133 -192 -246 -399t-233 -405q-134 -25 -447 -66q-289 -35 -469 -108q-182 -76 -186 -242
q4 -145 121 -207q110 -61 243 -61q330 4 594 202q264 197 447 510q241 58 399 187t246 254l-19 8q-237 -330 -612 -420v0q76 137 506 868q139 215 276 305q66 45 119 70q53 20 80 23q80 -15 154 -17q81 0 83 49q0 35 -69 37q-35 -2 -103 -16q-65 -21 -104 -21
q-147 0 -414 -10q-266 -16 -553 -72q-284 -55 -481 -178q-205 -123 -209 -340q0 -123 82 -205q78 -86 203 -88q152 0 278 95q60 47 99 108q35 62 35 139q0 45 -17 88q-16 46 -37 74zM-127 -383q2 117 86 193q41 36 86 65q47 27 94 45q154 55 303 78l301 43v0l-118 -195
q-64 -108 -144 -206q-78 -99 -176 -162q-100 -66 -223 -68q-92 2 -150 60q-57 53 -59 147v0z" />
    <glyph glyph-name="h" unicode="K" horiz-adv-x="2048" 
d="M956 1104q47 -60 47 -142q-2 -96 -79 -178q-37 -39 -88 -61q-52 -27 -111 -27q-78 0 -127 51q-53 48 -53 127q-6 209 301 381q311 170 1071 183v-5q-185 -26 -402 -157t-387 -410q-202 -375 -362 -610q-162 -233 -393 -248q-68 0 -109 37q-43 35 -43 98q0 15 2 21
q72 24 72 108q-2 54 -37 80q-39 27 -88 27q-70 0 -107 -45q-38 -43 -38 -113q0 -106 94 -170q88 -65 235 -67q275 2 461 114q184 111 311 283q129 172 232 362l100 183t100 170q72 104 142 170q69 67 131 104q61 39 108 53q47 15 70 15h2q76 -5 127 -5q33 0 61 9q27 6 29 24
q0 37 -61 37q-43 -2 -115 -20q-35 -6 -66 -13q-34 -8 -63 -8q-131 0 -385 -10q-254 -16 -530 -70q-277 -53 -469 -172q-199 -116 -203 -323q0 -123 78 -193q73 -71 194 -71q193 2 305 110q113 103 115 225q0 56 -14 95q-17 36 -39 59zM2267 541q-109 -154 -252 -312
q-170 -182 -289 -184q-67 2 -67 74q2 67 49 162l35 94q14 45 14 88q-2 119 -72 186q-71 70 -170 113v4q260 20 420 80q158 59 283 209q59 69 104 141l84 127t78 96q37 35 76 35q69 -2 69 -113q0 -49 -16 -100q-16 -53 -41 -102q84 0 160 45q76 43 78 135q-2 80 -64 121
q-63 39 -160 39q-143 2 -301 -74q-159 -76 -309 -273q-153 -213 -272 -280q-119 -70 -281 -66q-22 0 -22 -12q2 -14 30 -12q60 0 95 -25q34 -26 34 -84q0 -43 -26 -100l-64 -123q-34 -63 -61 -129q-29 -65 -29 -125q4 -190 207 -192q125 2 221 51q97 51 191 143
q157 160 286 348z" />
    <glyph glyph-name="i" unicode="L" horiz-adv-x="1327" 
d="M1544 537q-440 -408 -717 -689v0q-18 78 -77 123q-60 43 -142 60q-174 26 -336 22v4l238 113q104 53 194 127q179 137 394 555q61 -8 120 -8q236 0 500 96q125 49 207 127q80 76 82 182q-2 125 -96 178q-95 52 -217 52q-269 -5 -502 -166q-234 -160 -352 -404
q-107 21 -191 92q-90 72 -92 183q0 92 55 153q54 62 150 64q59 0 112 -21l7 21q-37 22 -119 24q-94 0 -160 -61q-70 -62 -70 -180q0 -60 29 -109q25 -49 68 -88q88 -78 202 -98q-61 -148 -243 -469q-88 -146 -185 -248q-98 -109 -192 -111q-74 0 -197 17q-125 10 -229 12
q-90 -2 -90 -55q0 -49 104 -51q117 2 232 24q112 19 200 21q154 0 252 -68q101 -72 103 -235q0 -33 -4 -50q-7 -18 -17 -26t-16 -15q-8 -8 -8 -22q0 -25 30 -25q97 2 172 64q76 61 88 170l734 708zM1786 1317q0 -47 -23 -121q-24 -72 -88 -147q-63 -76 -176 -127
q-113 -54 -287 -54q-61 0 -104 4q70 160 225 363q78 94 162 155q84 62 168 64q59 0 92 -37q31 -37 31 -100v0z" />
    <glyph glyph-name="j" unicode="M" horiz-adv-x="2048" 
d="M803 -12q241 116 473 377q229 260 389 487q156 217 334 371q176 153 389 210l4 -4q-262 -122 -428 -348q-166 -227 -275 -469l-188 -409q-39 -82 -82 -129q-43 -49 -88 -49q-31 0 -76 16q-49 10 -88 12q-53 -2 -53 -37q0 -32 64 -32q71 2 108 8q35 8 70 8q88 -2 247 16
q158 19 314 107q196 117 368 416l-18 6q-109 -183 -213 -285q-106 -106 -215 -154q-215 -88 -455 -86h-4v5q307 124 463 346q152 221 277 575q88 227 186 352t172 127q53 -2 88 -12q39 -12 102 -12q29 0 47 10q17 10 17 22q0 25 -29 37q-29 9 -104 9q-285 -2 -508 -156
q-223 -152 -404 -399q-233 -316 -376 -478q-146 -165 -291 -294l-4 4q82 90 143 184q62 92 107 188q47 97 86 191l69 184q68 182 162 332q94 149 266 239l-16 25q-303 -90 -520 -274q-111 -93 -209 -203q-99 -111 -191 -240q-219 -323 -415 -536q-197 -217 -420 -221
q-129 -2 -150 131q45 8 70 39q22 28 22 71q0 60 -34 92q-35 31 -90 31q-62 -2 -101 -47q-41 -45 -41 -109q2 -118 88 -184q82 -65 199 -65q246 2 422 178q174 170 366 461l136 188q77 108 184 227q215 246 549 387l4 -4q-248 -131 -393 -307q-146 -178 -232 -377
q-82 -198 -147 -389q-64 -192 -152 -354z" />
    <glyph glyph-name="k" unicode="N" horiz-adv-x="1857" 
d="M1364 -53q86 266 356 790q131 238 279 408q147 170 293 174q157 0 161 -154q0 -57 -39 -98q-36 -43 -100 -59l10 -15q113 19 199 94q88 76 90 189q-2 102 -61 147q-62 39 -144 39q-141 -2 -280 -129q-140 -125 -262 -305q-250 -393 -342 -627h-4q-9 234 -87 453
q-34 108 -61 213q-29 102 -29 197q2 124 84 231q-172 -2 -247 -98q-76 -95 -74 -252q0 -27 4 -53l-156 -314q-92 -178 -204 -352q-115 -170 -256 -283q-142 -116 -314 -118q-164 2 -176 118q107 13 107 121q0 53 -33 86q-33 31 -86 31q-70 -2 -107 -49q-37 -49 -37 -119
q3 -92 74 -158q72 -69 203 -71q199 2 352 116q154 109 268 277q119 170 209 346l158 313l4 -6q49 -244 131 -465q84 -221 88 -454q0 -84 -4 -164h33z" />
    <glyph glyph-name="l" unicode="O" horiz-adv-x="1593" 
d="M1812 539q-61 -45 -141 -84q-82 -41 -221 -43q-45 0 -94 14q116 141 192 330q76 186 78 368q-2 164 -72 258q-69 95 -184 97q-84 0 -139 -29q-58 -29 -103 -70q-348 -49 -637 -340q-137 -141 -219 -309q-88 -170 -88 -346q0 -180 99 -295q96 -121 282 -123q238 4 436 135
q199 127 338 299q49 -14 103 -14q229 2 376 133zM471 344q4 354 203 651q90 144 202 238q111 94 226 119l4 -5q-162 -153 -168 -442q0 -164 84 -274q78 -113 209 -183q-80 -143 -211 -276q-64 -61 -141 -100q-76 -43 -160 -43q-129 2 -187 102q-61 94 -61 213v0zM1040 958
q-2 246 107 398q78 -2 121 -43q41 -43 41 -115q0 -61 -52 -166l23 -8q22 45 39 88q14 41 14 92q-4 162 -170 176q45 43 107 45q63 0 100 -69q35 -72 35 -191q-4 -362 -164 -692v0q-94 57 -147 186q-54 129 -54 299v0z" />
    <glyph glyph-name="m" unicode="P" horiz-adv-x="1933" 
d="M2203 1528q-86 -2 -161 -25q-37 -10 -62 -20q-28 -11 -41 -17q-61 23 -143 37q-86 12 -205 12q-364 -2 -780 -213q-195 -104 -322 -260q-131 -157 -133 -360q0 -137 84 -215q82 -82 219 -82q113 0 199 53q84 47 135 125q105 162 105 334q0 68 -9 108q-8 39 -18 70l-22 -2
q10 -33 18 -74q6 -41 6 -102q0 -123 -72 -260q-36 -64 -92 -105q-59 -45 -139 -45q-94 2 -135 74q-41 68 -41 154q0 172 90 317q84 141 227 244q144 102 318 160q174 55 352 55q76 0 151 -12q76 -13 134 -39q-244 -103 -416 -326q-176 -223 -311 -467q-129 -237 -242 -389
q-111 -152 -270 -209q-97 19 -236 43q-141 25 -250 27q-71 0 -71 -51q0 -35 63 -58q64 -24 172 -26q189 2 338 36q53 -8 215 -28q160 -23 354 -25q320 0 545 142q221 141 416 428l-19 10q-219 -311 -491 -428q-273 -115 -576 -111q-188 0 -399 29v4q295 92 461 252
q164 160 268 352l219 393q111 195 299 357v0q107 -74 111 -226q-2 -125 -76 -284q-35 -76 -82 -123q-49 -53 -108 -53q-60 2 -60 63q0 72 60 117q-35 33 -84 33q-47 0 -78 -27q-33 -29 -33 -72q2 -73 74 -110q65 -37 147 -37q182 0 326 104q147 103 151 307q-2 131 -80 224
q-77 90 -194 135q47 31 98 45q49 14 103 24z" />
    <glyph glyph-name="n" unicode="Q" horiz-adv-x="1593" 
d="M1329 967q-14 -43 -39 -88q-24 -46 -61 -86q-72 -86 -199 -89q-123 3 -184 99q-64 92 -64 205q2 172 121 292q113 121 268 125q303 4 303 -401q-2 -141 -71 -270q-72 -134 -191 -244q-250 -229 -536 -338q-203 47 -438 53q-89 0 -207 -30q-58 -15 -92 -43
q-39 -27 -41 -68q2 -31 18 -49q16 -19 41 -31q53 -20 104 -20q236 0 428 79v0q88 -53 193 -96q53 -18 108 -30q54 -13 107 -15q203 2 367 84q159 78 276 186q117 111 195 209l104 142l-21 6q-63 -86 -126 -162q-66 -78 -144 -137q-78 -60 -182 -94q-102 -37 -250 -37
q-211 2 -393 45v4q309 115 655 348q164 117 268 264q105 148 107 324q-2 166 -129 270q-125 103 -317 105q-269 -5 -488 -162q-102 -76 -166 -178q-67 -103 -67 -222q0 -120 73 -208q72 -93 215 -95q353 0 478 344zM53 102q2 95 127 99q78 -2 152 -39q73 -39 135 -82
q-158 -64 -295 -64q-66 0 -92 31q-27 27 -27 55v0z" />
    <glyph glyph-name="o" unicode="R" horiz-adv-x="2048" 
d="M995 1171q10 -67 13 -168q0 -151 -91 -292q-45 -66 -114 -109q-70 -45 -166 -49q-96 10 -139 82q-45 72 -43 160q8 165 96 294q88 125 225 211q291 174 596 174q76 0 160 -12q82 -14 149 -49q-219 -137 -346 -262q-127 -127 -254 -367l-116 -221q-70 -129 -160 -258
q-88 -127 -197 -211q-110 -88 -239 -90q-68 0 -113 33q-47 31 -47 96q0 8 4 21q43 16 59 47q15 28 15 61q-2 119 -129 121q-68 0 -105 -45q-41 -45 -41 -111q0 -123 101 -184q96 -63 252 -63q262 -3 495 149q234 150 430 506q129 241 238 422q108 178 245 303v0
q93 -80 95 -187q-4 -188 -131 -305q-72 -65 -148 -84q-78 -20 -176 -18l-6 -25h22q54 0 86 -26q33 -31 33 -90q-2 -45 -24 -99q-25 -51 -58 -110q-33 -56 -55 -117q-27 -61 -27 -123q2 -205 213 -209q97 2 191 56q92 55 182 139q182 180 313 370l-16 9q-74 -115 -246 -297
q-82 -82 -160 -142q-36 -26 -71 -43q-37 -18 -68 -18q-24 0 -41 18q-18 15 -18 45q2 70 49 164q20 47 33 97q12 47 12 92q-2 112 -65 180q-64 67 -154 100v4q94 2 197 23q102 18 190 57q92 41 145 111q54 71 56 178q0 125 -70 201q-70 75 -184 120q35 23 94 39q59 13 168 13
l-4 24q-90 2 -170 -6q-80 -10 -182 -43q-146 39 -396 41q-317 0 -721 -170q-188 -88 -313 -225q-129 -137 -131 -332q0 -123 90 -205q88 -86 234 -88q188 0 338 139q149 138 153 383q0 56 -4 97q-4 39 -10 75z" />
    <glyph glyph-name="p" unicode="S" horiz-adv-x="1442" 
d="M1706 1259q-2 -131 -103 -215q54 0 113 9q59 8 111 28q53 21 84 64q32 39 32 102q-4 127 -102 180q-98 52 -215 52q-319 -5 -461 -209q-143 -205 -141 -506q0 -125 -14 -256q-17 -133 -64 -250q-47 -115 -141 -188q-94 -72 -254 -78q-150 2 -227 82q-78 80 -78 164
q-2 34 8 73q59 4 90 43q29 35 29 92q-2 58 -37 93q-37 34 -96 34q-88 -2 -129 -75q-21 -33 -31 -74t-10 -82q4 -182 149 -279q143 -96 340 -96q725 13 731 740q-2 315 51 524q31 102 80 157q49 58 125 58q84 -2 123 -53q37 -54 37 -134v0z" />
    <glyph glyph-name="q" unicode="T" horiz-adv-x="1821" 
d="M1196 1092q29 -72 29 -146q0 -72 -41 -137q-43 -66 -115 -119q-147 -110 -328 -113q-125 0 -229 54q-49 28 -78 71q-33 43 -33 101q2 162 133 258q125 96 310 143q184 49 358 66q172 12 272 12q248 4 394 -4l237 -17v-4q-219 -53 -403 -163q-187 -113 -320 -326
l-151 -266q-76 -137 -160 -252q-82 -115 -186 -184q-103 -72 -244 -74q-78 0 -131 37q-57 37 -72 118q88 31 90 127q-2 58 -37 88q-38 31 -92 31q-63 -2 -104 -47q-45 -45 -45 -108q2 -134 117 -201q108 -68 272 -70q358 4 592 201q233 192 385 508q235 495 573 577
q103 -16 221 -16q244 -2 242 115q0 61 -45 84q-45 20 -148 22q-264 16 -645 21q-649 -2 -1040 -189q-401 -184 -405 -487q2 -164 116 -244q109 -84 240 -84q203 2 360 131q160 127 164 336q-2 80 -31 156z" />
    <glyph glyph-name="r" unicode="U" horiz-adv-x="1933" 
d="M1880 1405q-113 -209 -346 -569q-232 -361 -379 -523q-272 -270 -408 -268q-75 2 -75 94q2 84 92 228l198 311q113 166 199 317q86 152 88 246q-2 123 -84 180q-82 58 -223 58q-223 -2 -424 -154q-96 -72 -156 -170q-63 -98 -63 -213q0 -88 47 -141q45 -60 137 -60
q103 0 172 56q66 51 111 129q18 30 27 55l-19 4q-29 -63 -84 -123q-26 -29 -61 -47q-37 -20 -76 -20q-78 0 -105 53q-28 49 -26 119q2 178 139 325q131 150 315 154q132 -2 136 -131q-2 -115 -88 -260q-86 -146 -199 -305q-111 -158 -199 -308q-90 -149 -92 -272
q2 -184 180 -186q197 4 353 122q153 115 274 261l4 -5q-59 -96 -61 -206q0 -90 57 -146q53 -57 154 -59q120 2 231 59q109 58 207 146q194 186 340 372l-15 15q-98 -131 -305 -338q-96 -90 -194 -144q-96 -57 -164 -57q-74 -2 -74 88q2 86 103 268q96 181 229 396l430 661z
" />
    <glyph glyph-name="s" unicode="V" horiz-adv-x="1479" 
d="M385 -61q84 53 279 153q190 98 520 305q307 195 522 426q219 232 225 449q0 78 -35 133t-121 57q-55 0 -94 -35q-41 -34 -41 -94q2 -72 45 -96q-8 -367 -329 -651q-316 -287 -713 -480l-4 5q149 178 225 370q76 193 127 379t121 340t205 250l-15 12q-55 -26 -118 -53
q-68 -27 -191 -64l-260 -63q-141 -37 -270 -88q-129 -49 -211 -131q-88 -82 -88 -207q0 -82 57 -135q53 -57 135 -57q140 2 203 79q64 74 64 176q0 60 -21 107l-20 -8q14 -49 16 -105q0 -53 -35 -120q-18 -31 -49 -52q-31 -24 -74 -24q-59 2 -90 43q-35 39 -35 90
q0 127 88 209q82 82 211 135q133 55 277 96q145 39 270 84l4 -4q-243 -170 -358 -367q-115 -194 -168 -391q-51 -194 -105 -362q-53 -168 -174 -283z" />
    <glyph glyph-name="t" unicode="W" horiz-adv-x="2048" 
d="M1261 1479v0q-92 -43 -321 -107q-96 -22 -231 -59q-136 -35 -269 -90q-133 -54 -219 -136q-92 -82 -94 -202q0 -84 57 -146q54 -63 142 -63q116 0 188 65q74 64 76 174q0 54 -15 97h-20q10 -47 10 -97q0 -55 -33 -108q-36 -55 -118 -57q-64 2 -99 49q-36 43 -36 100
q0 129 131 227q124 97 350 164l387 119l4 -4q-219 -139 -332 -293q-115 -154 -170 -319q-55 -166 -98 -336q-45 -172 -123 -348q-25 -43 -57 -60q-15 -8 -25 -20q-12 -13 -12 -27q0 -33 35 -35q28 2 61 21q31 18 59 43q31 24 54 47q22 22 32 28q27 19 101 60q71 41 180 125
q109 86 236 225q126 141 258 354l4 -4q-52 -98 -86 -223q-35 -127 -66 -256q-27 -127 -59 -231q-35 -107 -86 -164l43 -25q20 15 137 72q47 20 240 133q190 111 423 285q236 178 410 391q176 213 180 442q0 74 -37 131q-37 56 -114 58q-47 -2 -82 -35q-37 -35 -37 -86
q0 -78 49 -109q-2 -215 -100 -395q-99 -180 -254 -328q-332 -293 -674 -463l-4 5q113 127 188 299q72 172 123 350l94 321q39 144 82 205q17 18 51 39q35 18 72 39q39 20 66 45q26 24 26 51q0 41 -43 45q-45 0 -180 -86q-137 -88 -260 -287q-342 -657 -872 -954l-4 4
q141 166 223 357q80 190 139 374q59 187 133 338q74 150 203 238z" />
    <glyph glyph-name="u" unicode="X" horiz-adv-x="1896" 
d="M1110 1010q0 -125 -76 -242q-37 -55 -90 -90q-53 -39 -121 -39q-112 2 -162 92q-51 86 -51 188q2 203 131 359q127 155 332 160q129 -2 182 -80q54 -80 54 -193q-9 -336 -295 -733q-133 -184 -301 -305q-168 -125 -342 -127q-70 0 -105 37q-35 33 -41 80q72 28 74 104
q-2 53 -37 84t-86 31q-67 -2 -104 -43q-39 -41 -39 -109q0 -104 80 -159q75 -56 209 -58q227 4 421 129q193 121 336 283h4q-10 -43 -10 -88q-2 -127 57 -221q60 -99 205 -103q158 2 283 68q125 65 223 160q98 96 172 190l121 160l-14 14q-74 -113 -261 -313
q-90 -92 -192 -156q-102 -70 -203 -70q-84 0 -114 76q-33 70 -31 185q2 188 96 385q90 196 227 368q140 172 283 279q145 106 256 108q100 -2 102 -88q0 -20 -10 -43q-10 -20 -22 -37q26 -24 63 -41q37 -16 72 -16q57 0 100 35q41 35 43 92q-2 84 -65 113q-66 26 -150 26
q-233 -4 -424 -127q-190 -121 -336 -272v0q2 180 -77 297q-82 117 -289 119q-314 -5 -533 -197q-225 -186 -229 -442q0 -121 74 -207q67 -90 194 -92q193 2 316 145q122 135 125 324h-25z" />
    <glyph glyph-name="v" unicode="Y" horiz-adv-x="1745" 
d="M1919 1393l-447 -719q-176 -279 -366 -453q-193 -178 -326 -180q-76 0 -76 78q0 61 43 145q41 84 99 178q125 195 196 297q78 109 158 244q39 66 64 131q22 61 22 121q-2 133 -88 190q-86 54 -215 54q-244 -5 -436 -172q-94 -78 -148 -175q-59 -100 -59 -202
q0 -193 184 -193q62 0 113 27q49 24 86 61q37 39 65 80q25 39 37 68l-16 6q-37 -76 -92 -131q-58 -58 -144 -58q-57 0 -86 48q-28 45 -28 112q0 111 49 203q45 90 115 156q147 135 282 137q80 -2 117 -41q35 -41 35 -98q-2 -109 -92 -256q-89 -150 -207 -312l-107 -157
q-53 -80 -96 -156q-43 -74 -68 -141q-28 -68 -28 -127q0 -78 45 -125q45 -51 137 -53q213 4 371 133q155 123 276 268l4 -4q-254 -400 -471 -686q-112 -137 -229 -217q-119 -82 -256 -84q-96 2 -160 69q-65 66 -65 189q0 102 57 172q53 69 135 69q55 0 102 -20l5 18
q-107 43 -222 43q-116 0 -215 -65q-104 -68 -108 -199q2 -151 137 -225q131 -74 334 -76q227 -2 475 129q246 127 440 406l977 1505z" />
    <glyph glyph-name="w" unicode="Z" horiz-adv-x="1479" 
d="M303 209q449 295 883 661l358 299q148 127 201 160q41 25 71 39q27 14 45 22q35 15 35 48q-2 41 -35 41q-28 0 -51 -27q-22 -29 -57 -64q-35 -34 -98 -63q-66 -31 -178 -31q-76 0 -146 25q-74 22 -147 51q-72 31 -158 53q-86 23 -186 23q-181 -2 -320 -127
q-143 -125 -147 -305q0 -86 55 -148q55 -63 170 -63q66 0 141 41q74 39 127 112l-16 9q-94 -127 -250 -129q-94 0 -147 53q-56 49 -56 127q2 119 74 180t170 61q51 0 113 -16q59 -16 127 -39q139 -53 311 -55q233 4 428 131l4 -4q-498 -340 -862 -649l-494 -416
q-145 -107 -209 -146q-30 -20 -45 -34q-16 -15 -16 -31q2 -31 37 -31q31 2 57 35l57 68q33 43 82 71q50 29 117 31q86 -2 160 -31q69 -28 137 -71q70 -39 141 -68q70 -33 150 -35q256 6 454 185q199 174 326 382l-16 11q-82 -133 -203 -256q-123 -129 -289 -133
q-67 0 -139 20q-37 10 -74 23q-37 10 -76 22q-151 62 -323 66q-156 -4 -289 -82z" />
    <glyph glyph-name="x" unicode="[" horiz-adv-x="797" 
d="M256 -651l33 61h-379l1147 1995h374l31 61h-571l-1221 -2117h586z" />
    <glyph glyph-name="y" unicode="\" horiz-adv-x="455" 
d="M676 543q-115 -166 -293 -338q-178 -170 -340 -244l10 -18q158 65 336 233t299 350z" />
    <glyph glyph-name="z" unicode="]" horiz-adv-x="797" 
d="M567 1466l-33 -61h379l-1146 -1995h-375l-31 -61h571l1221 2117h-586z" />
    <glyph glyph-name="braceleft" unicode="^" horiz-adv-x="1229" 
d="M338 358l301 604v0l301 -604h147l-374 748h-148l-375 -748h148z" />
    <glyph glyph-name="bar" unicode="_" horiz-adv-x="1024" 
d="M1024 -256v102h-1024v-102h1024z" />
    <glyph glyph-name="Uacute" unicode="&#x2018;" horiz-adv-x="455" 
d="M768 1343q-80 0 -180 -20q-105 -21 -199 -72q-192 -116 -194 -299q0 -69 45 -116q41 -54 114 -54q74 0 115 43q37 41 37 101q0 53 -27 79q-28 27 -67 27q-25 0 -43 -6q-19 -6 -35 -14q28 170 153 239q123 70 281 76v16z" />
    <glyph glyph-name="asciitilde" unicode="a" horiz-adv-x="1139" 
d="M860 729l-53 -106h-4q-10 59 -53 100q-43 39 -123 39q-281 -6 -449 -180q-172 -170 -174 -361q0 -248 199 -246q110 2 200 74q86 66 152 146l6 -5q0 -28 4 -63q2 -37 21 -72q16 -32 55 -55q37 -23 104 -25q80 2 158 50q78 45 154 122q151 162 313 379l-12 8
q-156 -208 -297 -354q-68 -67 -127 -108q-62 -43 -105 -43q-47 0 -47 59t47 148q45 88 107 184l215 317zM338 66q-39 0 -53 34q-15 33 -15 68q4 162 129 358q58 92 123 152q66 57 129 59q35 0 64 -22q26 -25 26 -72q0 -92 -45 -192q-45 -99 -112 -187q-66 -88 -133 -141
q-68 -57 -113 -57v0z" />
    <glyph glyph-name="Adieresis" unicode="b" 
d="M692 1425l-532 -862q-72 -125 -103 -196q-32 -74 -32 -127q4 -260 282 -265q227 2 418 142q94 67 162 157q65 91 98 197v0q25 -25 61 -41q39 -20 82 -20q76 2 125 43q49 36 78 73l-12 17q-31 -39 -76 -72q-45 -37 -111 -37q-51 0 -86 21q-36 18 -57 41q14 65 14 106
q-4 158 -131 160q-63 -2 -98 -45q-37 -43 -37 -101q0 -41 13 -71q-41 -170 -166 -350q-60 -84 -131 -138q-74 -57 -152 -57q-72 0 -80 76q-4 45 27 119q28 73 110 213l633 1038z" />
    <glyph glyph-name="Aring" unicode="c" horiz-adv-x="872" 
d="M1098 545q-90 -121 -240 -277q-104 -102 -205 -166q-102 -65 -194 -65q-86 0 -129 57q-47 53 -47 142q0 75 32 159q29 82 76 158t98 123q52 45 93 45q65 -2 63 -146q0 -79 -6 -118h16q97 0 160 43q66 43 68 127q-2 67 -62 102q-59 33 -160 33q-221 -2 -425 -154
q-97 -74 -156 -172q-64 -102 -64 -223q2 -123 93 -180q86 -58 200 -58q264 5 451 170q205 179 354 385z" />
    <glyph glyph-name="Ccedilla" unicode="d" horiz-adv-x="1139" 
d="M1249 1425l-450 -800v0q-13 63 -54 100q-41 35 -108 37q-234 -4 -430 -168q-203 -162 -209 -406q0 -88 49 -149q47 -62 141 -64q127 2 222 68q94 63 163 158l4 -4q-10 -25 -10 -50q0 -75 47 -122q45 -48 125 -50q146 -2 314 162q110 111 190 215q80 105 127 174l-18 11
l-115 -156q-76 -100 -178 -205q-66 -65 -127 -104q-31 -19 -56 -31q-24 -12 -45 -12q-57 2 -55 55q-2 31 25 90q24 62 102 195l641 1077zM737 633q-4 -137 -127 -340q-55 -94 -127 -158q-71 -69 -147 -69q-74 2 -72 106q0 76 39 172q37 94 96 184q60 92 129 150
q66 57 127 59q84 -2 82 -104v0z" />
    <glyph glyph-name="Eacute" unicode="e" horiz-adv-x="872" 
d="M1096 539q-74 -111 -217 -254q-113 -107 -222 -176q-112 -72 -209 -72q-90 2 -129 61q-38 56 -36 133q0 41 8 82l153 39q95 25 193 60q49 18 92 43q41 22 72 49q65 53 67 123q-2 71 -61 104q-64 31 -164 31q-207 -4 -410 -156q-94 -74 -153 -170q-64 -96 -64 -205
q2 -254 289 -256q309 2 571 275q146 141 238 276zM664 680q0 -103 -97 -201q-96 -98 -272 -143v0q24 102 119 246q47 65 96 110t96 45q58 0 58 -57v0z" />
    <glyph glyph-name="Ntilde" unicode="f" horiz-adv-x="569" 
d="M86 721l-16 -33h170q-111 -184 -222 -407q-112 -226 -233 -433q-119 -206 -256 -339q-137 -136 -303 -140q-115 2 -170 84q-59 78 -59 187q2 112 67 178q66 63 178 63v17q-41 14 -110 16q-140 2 -256 -57q-121 -62 -125 -224q2 -73 39 -129q35 -55 92 -92
q119 -75 252 -75q286 2 497 135q211 127 365 331q153 205 274 439l226 446h489l18 33h-491q156 293 303 479q74 94 141 143q66 50 121 50q58 0 82 -39q21 -39 21 -90q-2 -107 -101 -203q23 -12 49 -15q25 -6 47 -6q84 0 154 47q70 48 72 136q-2 110 -78 157q-78 45 -201 45
q-313 -6 -524 -229q-213 -219 -342 -475h-170z" />
    <glyph glyph-name="Odieresis" unicode="g" 
d="M-29 190q0 -94 54 -153q49 -60 139 -62q207 5 356 179l4 -5l-313 -456q-98 -146 -213 -238q-113 -92 -240 -94q-110 2 -174 80q-63 76 -65 188q6 238 217 236h45v24h-131q-199 0 -287 -71q-90 -72 -90 -183q2 -79 43 -135q37 -57 102 -94q136 -69 312 -69q589 12 946 673
q192 64 364 211q170 146 295 305l-14 15q-123 -154 -279 -293q-157 -139 -348 -209v0l422 711l-285 -13l-49 -96v0q-32 72 -82 98q-51 23 -118 23q-228 -4 -414 -178q-191 -172 -197 -394v0zM238 160q4 174 131 368q57 92 125 150q65 57 131 59q88 -2 92 -104
q-2 -70 -37 -166q-39 -96 -98 -191q-60 -92 -131 -153q-72 -66 -140 -66q-45 0 -59 35q-14 29 -14 68v0z" />
    <glyph glyph-name="Udieresis" unicode="h" 
d="M123 12q100 197 295 428q92 111 176 180q82 70 139 72q45 0 47 -51q-2 -43 -37 -94l-86 -113q-47 -59 -84 -127q-39 -69 -39 -147q0 -72 43 -127q39 -56 119 -58q97 2 189 64q92 61 174 151q84 93 153 183l119 157l-12 11q-21 -25 -80 -105t-141 -174q-80 -92 -162 -160
q-39 -34 -76 -53q-37 -20 -72 -20q-45 2 -45 49t45 108q39 62 91 129q55 72 94 146q39 73 41 145q-2 82 -49 121q-50 35 -119 35q-82 -2 -162 -43q-80 -45 -156 -115q-149 -147 -247 -287l-5 5q351 538 691 1124l-293 -21l-832 -1425z" />
    <glyph glyph-name="aacute" unicode="i" horiz-adv-x="569" 
d="M270 729l-108 -182q-53 -86 -90 -158q-78 -139 -80 -231q2 -178 170 -183q96 2 178 52q82 49 174 145q188 207 289 362l-17 7q-73 -113 -233 -301q-76 -86 -152 -148q-77 -63 -141 -63q-49 2 -47 67q2 82 111 256l239 385zM459 1057q0 -60 43 -101q41 -43 100 -43
q64 0 105 43q38 41 38 101q0 63 -38 104q-41 39 -105 39q-59 0 -100 -39q-43 -41 -43 -104v0z" />
    <glyph glyph-name="agrave" unicode="j" horiz-adv-x="569" 
d="M272 729q-92 -149 -213 -375q-118 -227 -258 -450q-139 -223 -286 -375q-150 -156 -301 -160q-121 2 -183 84q-61 78 -63 195q2 94 57 157q56 64 152 64q30 0 55 -4v16q-41 19 -147 21q-121 0 -238 -64q-53 -33 -88 -82q-35 -53 -37 -121q2 -83 43 -139q41 -57 107 -94
q65 -33 141 -49t143 -16q205 2 361 65q155 64 268 162q113 100 195 217q79 113 135 217q198 61 370 203q168 141 322 327l-17 11q-135 -160 -290 -297q-156 -140 -357 -207l-4 4l418 698zM602 1200q-59 0 -100 -39q-43 -41 -43 -104q0 -60 43 -101q41 -43 100 -43
q64 0 105 43q38 41 38 101q0 63 -38 104q-41 39 -105 39v0z" />
    <glyph glyph-name="acircumflex" unicode="k" 
d="M117 12q80 158 270 400q92 110 176 188q82 74 139 76q54 -2 56 -60q-2 -71 -60 -137q-28 -31 -59 -49q-35 -20 -66 -20q-18 0 -43 6q-24 4 -57 4q-51 0 -49 -33q2 -29 35 -29q59 2 112 27q-4 -70 -49 -123q-18 -26 -33 -61q-16 -33 -16 -76q0 -74 55 -111q56 -39 140 -39
q90 0 176 43t202 160q185 193 287 352l-18 9q-84 -129 -248 -310q-78 -84 -152 -141q-75 -59 -129 -59q-34 0 -34 39q2 34 24 79q21 45 23 86q-2 76 -56 107q-55 31 -118 53v4q45 6 114 17q66 8 135 32q70 25 115 66q45 43 47 108q-2 78 -53 111q-53 31 -127 31
q-86 -2 -166 -43t-153 -111q-146 -143 -256 -293l-5 4l691 1127l-295 -21l-838 -1425z" />
    <glyph glyph-name="adieresis" unicode="l" horiz-adv-x="569" 
d="M674 1425l-545 -921q-78 -139 -111 -225q-34 -87 -34 -152q0 -66 43 -107q43 -43 129 -45q106 2 211 78q106 72 196 170q90 103 154 189q30 43 53 73q18 31 29 47l-17 9q-102 -160 -266 -328q-78 -78 -147 -129q-72 -55 -121 -55q-41 0 -43 47q-2 98 182 401l588 969z
" />
    <glyph glyph-name="atilde" unicode="m" horiz-adv-x="1630" 
d="M680 12q88 164 285 410q92 115 176 190q82 78 131 80q47 0 51 -53q-2 -33 -41 -86l-90 -119q-51 -63 -90 -135q-41 -74 -41 -150q0 -63 43 -116q39 -56 131 -58q94 2 180 56q86 53 162 137q172 197 284 354l-14 12q-80 -106 -235 -294q-74 -86 -150 -148
q-76 -63 -139 -63q-53 2 -53 53q0 45 45 106q39 60 94 127q55 72 94 146q39 73 41 145q-2 78 -49 117t-121 39q-61 0 -121 -29q-59 -31 -112 -78q-109 -100 -185 -190l-4 4q19 35 31 68q8 32 8 75q0 76 -45 113t-117 37q-88 0 -172 -45q-82 -45 -153 -115
q-142 -147 -230 -268l-4 4l273 399l-295 -8l-426 -729l276 12q90 166 293 412q94 115 180 190q43 37 78 60q35 18 55 18q54 0 54 -51q-2 -33 -47 -123q-47 -88 -115 -196l-201 -322z" />
    <glyph glyph-name="aring" unicode="n" 
d="M121 12q76 158 280 408q99 114 187 192t143 80q55 -2 55 -57q-2 -41 -36 -90l-91 -109q-51 -57 -90 -123q-41 -67 -41 -143q0 -86 49 -139q48 -54 136 -56q159 5 323 183q164 174 307 370l-18 11q-96 -136 -307 -365q-62 -61 -117 -102q-57 -43 -104 -43q-23 0 -35 16
t-12 35q0 49 45 110q38 64 90 132q55 71 94 141q39 71 41 137q0 84 -51 123q-52 39 -131 39q-74 -2 -150 -43q-78 -41 -151 -111q-148 -145 -258 -293l-5 4q136 213 283 418l-291 -12l-424 -725z" />
    <glyph glyph-name="ccedilla" unicode="o" 
d="M1321 543q-96 -109 -195 -109q-73 0 -114 51q-43 49 -84 113q-41 63 -113 113q-72 49 -201 51q-108 0 -215 -33q-106 -35 -196 -102q-88 -66 -142 -158q-57 -94 -57 -215q2 -154 109 -217q104 -62 243 -62q238 5 412 158q178 150 182 371h4q66 -92 172 -94q84 2 140 51
q28 22 47 41q18 16 24 24zM647 737q80 -2 82 -104q-4 -166 -135 -387q-62 -105 -137 -172q-37 -35 -74 -54q-37 -20 -76 -20q-82 2 -82 104q4 166 140 392q63 104 137 172q71 67 145 69v0z" />
    <glyph glyph-name="eacute" unicode="p" 
d="M518 1130l-1095 -1793l292 12q213 391 461 774l109 162q59 92 123 176q65 88 126 145q62 55 111 58q53 -3 68 -39q12 -37 12 -70q-2 -117 -51 -211t-90 -154q-93 -2 -211 -30q-54 -15 -90 -39q-41 -27 -41 -70q2 -47 43 -61q37 -15 80 -15q47 0 106 19q57 16 119 45
q129 57 231 143q314 78 514 352l-16 11q-184 -244 -471 -332v4q57 59 100 139q41 80 43 185q-2 92 -55 155q-57 64 -148 66q-77 -2 -145 -37q-70 -37 -131 -96q-123 -125 -209 -246l-4 4l512 764zM340 43q2 55 72 86q63 31 155 37q-43 -47 -88 -105q-24 -24 -49 -41
q-25 -20 -53 -20q-39 2 -37 43v0z" />
    <glyph glyph-name="egrave" unicode="q" 
d="M831 721l-36 -90h-5q-32 129 -180 131q-252 -4 -436 -172q-188 -168 -194 -400q4 -215 202 -215q113 2 205 66q92 59 166 139l4 -4q-160 -209 -309 -450l-240 -389l295 12q240 430 381 649q371 168 653 524l-18 12q-115 -147 -279 -284q-166 -139 -327 -207l-4 4l421 690
zM729 629q-2 -82 -43 -178q-41 -97 -109 -189q-65 -90 -133 -147q-69 -62 -120 -62q-80 2 -78 125q0 64 37 158q32 92 88 184q57 92 125 154q69 61 137 63q90 0 96 -108v0z" />
    <glyph glyph-name="ecircumflex" unicode="r" horiz-adv-x="948" 
d="M121 12q65 142 211 336q69 94 141 168t133 107v-5q-16 -38 -16 -96q0 -74 61 -125q58 -57 156 -57q88 0 155 25q66 22 109 53q45 33 72 63l39 47l-15 13q-41 -52 -98 -99q-29 -22 -59 -34q-31 -15 -64 -15q-45 0 -67 39q-23 33 -23 78q2 74 49 145q43 70 92 119
q-198 -4 -260 -24q-63 -23 -110 -91q-152 -63 -381 -389l-4 4l313 463l-295 -8l-414 -729z" />
    <glyph glyph-name="edieresis" unicode="s" horiz-adv-x="833" 
d="M1057 545q-105 -168 -260 -312q-158 -145 -338 -200l-4 4q129 69 129 203q0 61 -29 108q-29 49 -68 90q-39 43 -67 88q-31 43 -31 92q0 58 29 89q24 30 71 30q54 -2 78 -41q23 -39 23 -92q-2 -59 -31 -102q39 -25 88 -25q57 0 94 37q35 35 37 92q-2 78 -74 117
q-71 39 -194 39q-164 -2 -250 -76q-92 -74 -92 -176q0 -43 29 -82q26 -43 57 -86q35 -39 59 -82q23 -43 25 -86q0 -72 -43 -121q-43 -53 -131 -53q-137 2 -137 137q0 25 10 39q14 -6 41 -6q35 0 61 25q23 22 25 65q0 49 -29 74q-31 24 -76 24q-63 0 -108 -43
q-49 -43 -51 -120q2 -113 86 -166q80 -54 206 -54q328 5 531 166q203 158 348 387z" />
    <glyph glyph-name="iacute" unicode="t" horiz-adv-x="682" 
d="M252 688q-141 -246 -195 -352q-55 -109 -53 -180q0 -82 47 -129q47 -50 139 -52q125 2 232 60q104 55 192 139q88 88 168 184l146 179l-17 8l-106 -129q-68 -82 -156 -172q-84 -88 -174 -150q-92 -63 -176 -65q-72 -2 -74 67q0 56 37 133q35 78 86 166l178 293h283l16 33
h-280l184 307l-285 -10l-174 -297h-170l-14 -33h166z" />
    <glyph glyph-name="igrave" unicode="u" 
d="M248 745q-21 -38 -68 -110l-102 -160q-53 -88 -90 -172q-39 -86 -41 -149q0 -78 43 -125q43 -52 125 -54q114 2 215 84q98 78 188 185l4 -4q-16 -35 -18 -91q0 -67 43 -118q41 -54 129 -56q92 2 188 66q94 61 180 149q88 93 162 183l125 153l-18 17q-84 -119 -256 -305
q-80 -84 -156 -146q-78 -63 -131 -63q-45 -2 -45 51q0 57 51 147q45 88 113 189l211 321l-297 -8q-170 -324 -330 -502q-162 -182 -250 -182q-53 2 -55 59q0 25 12 58t41 90q60 106 250 391l72 111z" />
    <glyph glyph-name="icircumflex" unicode="v" 
d="M266 729q-102 -158 -170 -281q-71 -122 -71 -223q2 -243 258 -250q225 2 424 140q196 133 262 352v0q65 -57 153 -57q78 0 133 45q56 39 86 82l-18 12q-33 -45 -82 -78q-51 -37 -119 -37q-69 -4 -147 62q12 47 12 98q0 78 -33 123q-37 45 -112 45q-56 -2 -86 -43
q-35 -41 -35 -96q0 -46 14 -86q-61 -205 -182 -365q-59 -78 -125 -123q-66 -49 -131 -49q-84 2 -84 94q0 66 43 152q41 84 98 178l117 176l86 137z" />
    <glyph glyph-name="idieresis" unicode="w" horiz-adv-x="1593" 
d="M799 727l-119 -205q-82 -143 -184 -282q-68 -91 -136 -148q-67 -63 -129 -63q-55 0 -55 61q0 57 47 146q45 88 107 184l121 182q57 84 86 135l-289 -12q-281 -406 -281 -551q2 -84 51 -139q48 -58 134 -60q129 5 227 97q96 90 160 184l4 -2q-15 -37 -15 -82
q0 -109 76 -154q72 -43 191 -43q206 5 407 144q197 137 270 338q31 -23 70 -39q37 -17 82 -17q65 0 117 39q49 33 77 72l-12 18q-26 -32 -69 -67q-45 -35 -115 -37q-74 0 -143 57q16 54 16 115q0 76 -37 119q-39 45 -117 45q-55 -2 -86 -41q-34 -39 -34 -94q0 -27 8 -50
q8 -22 8 -40q-14 -99 -139 -304q-60 -94 -138 -161q-75 -70 -165 -72q-78 0 -78 76q0 57 51 149q45 92 111 195q141 217 213 317z" />
    <glyph glyph-name="ntilde" unicode="x" horiz-adv-x="1139" 
d="M1356 539q-84 -129 -252 -303q-80 -78 -164 -134q-84 -57 -160 -57q-55 0 -88 41q-37 37 -37 109q0 81 39 172q37 90 90 167q56 78 115 130q57 47 98 49q45 0 43 -68q0 -86 -43 -160q23 -16 70 -16q72 0 113 43q41 41 41 106q-3 115 -160 119q-103 -2 -189 -53
q-88 -51 -168 -125v0q-8 78 -51 139q-43 62 -129 64q-92 -2 -176 -84q-86 -82 -156 -170l17 -14l100 114q29 29 58 49q28 19 55 19q72 -2 74 -82q-5 -186 -138 -381q-61 -92 -145 -150q-84 -63 -176 -63q-96 2 -98 90q2 27 8 49q24 -4 41 -4q82 2 86 92q-2 47 -31 74
q-31 27 -76 27q-65 -2 -102 -49q-41 -50 -41 -113q2 -94 65 -141q62 -50 146 -50q121 2 235 60q111 57 172 143l4 -4q-2 -197 222 -199q114 2 219 60q102 57 190 141q180 184 295 354z" />
    <glyph glyph-name="oacute" unicode="y" 
d="M274 737q-28 -57 -75 -129l-99 -147q-49 -76 -84 -154q-34 -80 -36 -158q0 -67 36 -118q35 -54 111 -56q154 5 264 103q111 96 186 196l5 -4q-37 -51 -76 -116l-86 -144q-92 -151 -199 -299q-106 -147 -229 -245q-125 -103 -270 -105q-203 4 -207 260q0 98 43 166
q43 70 145 70q39 2 68 -4v18q-88 18 -176 18q-117 0 -218 -65q-104 -66 -108 -195q2 -77 41 -133q39 -55 98 -92q129 -67 271 -67q346 4 591 186q244 180 402 479q235 96 420 266q182 168 258 281l-17 12q-137 -180 -319 -328q-187 -147 -322 -198l-4 4l424 698l-289 -8
l-162 -285q-86 -147 -204 -272q-60 -59 -113 -96q-55 -39 -96 -39q-25 0 -35 20q-12 19 -12 43q0 45 51 133q47 89 110 191l123 192q58 88 80 138z" />
    <glyph glyph-name="ograve" unicode="z" horiz-adv-x="948" 
d="M283 225q317 185 606 416l90 61q35 25 37 52q-2 34 -35 36q-21 0 -29 -16q-12 -18 -20 -41q-8 -22 -27 -41q-20 -20 -59 -20q-29 0 -70 16q-43 12 -94 29q-49 20 -98 33q-50 12 -93 12q-92 -4 -172 -96q-81 -89 -122 -154l14 -10l33 41q16 20 55 22q41 -2 96 -20
q53 -21 144 -21q86 0 170 17l4 -4q-88 -29 -172 -82q-86 -54 -162 -115l-135 -111q-62 -51 -105 -80q-78 -45 -139 -77q-31 -19 -49 -33q-19 -19 -21 -37q2 -25 25 -27q25 2 45 21q20 18 39 41q18 26 41 45q20 16 45 16q88 -4 164 -61q39 -23 88 -41q49 -19 108 -21
q105 2 209 64q103 57 195 145q190 191 293 348l-17 9q-90 -131 -213 -258q-61 -60 -129 -99q-71 -41 -151 -41q-70 2 -160 45q-43 17 -88 29q-47 12 -90 12q-25 -2 -49 -8z" />
    <glyph glyph-name="ocircumflex" unicode="{" horiz-adv-x="797" 
d="M37 -618q-74 16 -76 75q-2 78 82 215l242 414q92 164 92 221q-2 80 -76 98l2 7q123 32 203 108q78 76 147 205l240 416q131 254 346 292l18 33q-73 0 -149 -8q-78 -10 -152 -47q-151 -64 -282 -281l-254 -440q-64 -115 -135 -180q-72 -66 -183 -100q70 -29 70 -93
q-2 -67 -78 -190l-252 -444q-84 -148 -77 -220q6 -69 75 -92q70 -22 180 -22z" />
    <glyph glyph-name="odieresis" unicode="|" horiz-adv-x="455" 
d="M182 0h131v1479h-131v-1479z" />
    <glyph glyph-name="otilde" unicode="}" horiz-adv-x="797" 
d="M670 1433q73 -16 75 -75q2 -76 -81 -215l-242 -414q-94 -164 -92 -221q2 -80 75 -98l-2 -7q-118 -30 -196 -106q-80 -76 -154 -207l-239 -416q-131 -254 -346 -292l-19 -33q154 -2 305 57q150 64 279 279l254 440q67 119 137 184q70 64 180 96q-70 29 -70 93q3 67 78 190
l252 444q84 148 78 220q-4 69 -74 94q-69 20 -182 20z" />
    <glyph glyph-name="uacute" unicode="~" horiz-adv-x="1229" 
d="M956 520v0q-32 -55 -75 -98q-43 -47 -105 -49q-41 0 -94 24l-115 49q-59 29 -114 48q-60 18 -113 18q-100 -2 -162 -55q-61 -54 -94 -121l74 -119v0q37 57 78 102q43 43 102 46q43 -3 98 -25l111 -49q59 -25 119 -45q55 -21 108 -21q105 0 164 58q59 51 92 118z" />
    <glyph glyph-name="fl" unicode="&#xa1;" horiz-adv-x="833" 
d="M530 436q-118 -194 -280 -358l-201 -199q-37 -41 -59 -84q-23 -45 -23 -96q2 -64 43 -98q39 -37 101 -39q61 0 108 49q45 51 84 178q47 152 109 332q61 178 133 305zM631 451q63 0 104 43q39 40 39 100q0 63 -39 104q-41 39 -104 39q-60 0 -101 -39q-43 -41 -43 -104
q0 -60 43 -100q41 -43 101 -43v0z" />
    <glyph glyph-name="questiondown" unicode="&#xa2;" horiz-adv-x="1175" 
d="M375 145q-19 47 -19 95q0 75 33 159q29 84 76 156q47 74 100 121q51 45 92 45q15 0 27 -8zM711 762q-213 -23 -410 -164q-92 -72 -149 -164q-62 -96 -62 -211q0 -90 49 -153q47 -66 142 -86l-142 -275h53l138 266q336 -4 577 242l-14 14q-47 -57 -148 -120
q-49 -31 -98 -52q-53 -22 -102 -22t-82 20q-37 19 -60 43l308 570v0q10 -50 10 -103q-2 -53 -6 -108q86 -2 166 30q38 15 63 45q23 29 23 74q-2 90 -64 121q-61 33 -137 33l104 194h-51z" />
    <glyph glyph-name="exclamdown" unicode="&#xa3;" horiz-adv-x="2048" 
d="M41 174q123 -2 246 -39q121 -37 233 -78q-72 -37 -164 -51q-94 -14 -178 -14q-112 2 -178 35q-66 32 -68 77q2 41 37 56q33 14 72 14v0zM1231 602l116 236q68 139 156 278q90 139 197 234q108 94 231 96q72 0 105 -45q30 -45 30 -115q-2 -129 -100 -291
q-47 -76 -107 -127q-61 -53 -133 -53q-57 0 -86 39q-26 35 -26 92q0 59 32 109q33 49 76 88q47 41 94 67q45 27 76 39l-4 15q-100 -43 -196 -125q-43 -41 -72 -90q-31 -52 -31 -113q0 -84 64 -127q59 -47 139 -47q182 2 289 119q106 114 108 288q-2 144 -88 224
q-88 77 -229 77q-363 -8 -572 -286q-106 -127 -186 -281q-80 -151 -143 -301h-598l-17 -33h598q-49 -118 -114 -233q-68 -117 -176 -197v0q-121 27 -250 51q-131 23 -273 25q-127 0 -180 -29q-53 -30 -53 -86q2 -63 80 -98t188 -35q199 2 385 76v0q113 -39 248 -76
q135 -39 252 -41q184 2 327 64q142 61 240 149q98 90 158 178q59 88 78 148l-15 6q-186 -397 -719 -389q-204 0 -405 47v4q170 59 287 174q118 113 204 262h525l14 33h-524z" />
    <glyph glyph-name="macron" unicode="&#x2215;" horiz-adv-x="342" 
d="M750 1130h-95l-979 -1155h95z" />
    <glyph glyph-name="quotedblleft" unicode="&#xa5;" horiz-adv-x="1175" 
d="M1261 799h-327q102 196 291 403q94 98 198 158q105 59 215 61q54 0 80 -22q27 -25 27 -64q2 -67 -88 -82l75 -37q35 -16 80 -16q58 0 88 37q33 35 33 82q0 49 -53 96q-57 45 -184 47q-275 -4 -461 -184q-189 -178 -338 -426l-4 4q29 88 37 137q6 51 6 88q0 162 -96 279
q-103 114 -332 119q-146 0 -322 -105q-82 -53 -137 -133t-57 -188q2 -86 55 -138q53 -51 141 -51q50 0 93 23q41 22 67 55q60 70 62 145h-9q-16 -73 -98 -71q-61 0 -100 47q-39 45 -39 104q0 119 90 199q86 78 262 80q125 -2 180 -86q51 -86 51 -213q-2 -180 -83 -348h-365
l-16 -33h366l-63 -119h-336l-17 -33h334q-172 -348 -389 -622l318 20q131 264 327 602h365l16 33h-360l71 119h330z" />
    <glyph glyph-name="quotesinglbase" unicode="&#x192;" horiz-adv-x="1175" 
d="M508 684l-258 -764q-113 -334 -170 -428q-31 -51 -55 -67q-27 -19 -54 -19q-39 2 -57 37q-20 35 -20 88q2 115 73 211q-37 10 -78 10q-86 0 -153 -51q-70 -53 -72 -145q2 -99 72 -144q31 -22 72 -35q38 -12 81 -12q195 2 328 135q133 127 227 328q95 205 168 430l146 426
h272l12 33h-274l125 358q110 332 201 330q49 -2 69 -39q17 -39 17 -88q0 -70 -21 -117q-22 -47 -51 -96h72q94 0 161 55q66 51 68 144q0 69 -59 124q-62 56 -181 58q-133 -2 -237 -68q-105 -69 -180 -180q-76 -111 -132 -236q-57 -126 -100 -245h-268l-14 -33h270z" />
    <glyph glyph-name="logicalnot" unicode="&#xa7;" horiz-adv-x="1024" 
d="M885 524q-2 -80 -47 -139q-48 -61 -123 -90v0q-21 53 -60 115l-84 127q-41 65 -71 133q-33 65 -33 129q0 80 51 137q49 55 135 63q39 -75 80 -133q41 -57 74 -110q35 -52 57 -107q21 -55 21 -125v0zM1417 1204q-2 135 -123 207q-119 68 -297 68q-176 -2 -276 -93
q-103 -88 -103 -229q0 -70 19 -117q-158 0 -281 -69q-131 -74 -135 -242q0 -82 47 -162q43 -80 101 -159q57 -76 102 -156q43 -82 45 -172q-2 -105 -65 -164q-64 -61 -170 -63q-89 0 -142 47q-59 47 -59 135q0 57 33 114q30 58 77 87q-53 32 -133 34q-77 0 -125 -45
q-51 -47 -53 -139q0 -92 94 -178q50 -41 125 -68q74 -28 181 -28q452 10 458 321q0 59 -12 115q156 14 278 92q123 76 127 229q-2 95 -43 181q-45 83 -102 159q-55 80 -98 156q-47 74 -47 151q0 84 49 152q24 33 63 51q37 19 90 19q68 0 121 -37q51 -39 53 -127
q0 -60 -22 -113q-27 -55 -82 -96q18 -19 57 -29q37 -12 62 -12q92 0 141 51q45 47 45 129v0z" />
    <glyph glyph-name="breve" unicode="&#xa4;" horiz-adv-x="1175" 
d="M952 971v0l-94 -90v0q-117 90 -260 90t-260 -90v0l-94 90v0l-62 -62l88 -88q-90 -112 -88 -256q-2 -143 88 -256l-88 -88l62 -61v0l94 90v0q117 -90 260 -90t260 90v0l94 -90v0l62 61l-88 88q88 113 88 256q0 144 -88 256l88 88zM598 840q123 -2 199 -80q75 -78 77 -195
q-2 -117 -77 -192q-76 -82 -199 -82q-121 0 -197 82q-77 75 -79 192q2 117 79 195q76 78 197 80v0z" />
    <glyph glyph-name="D" unicode="'" horiz-adv-x="455" 
d="M477 1313q6 45 -2 102q-12 59 -80 64q-67 -5 -76 -64q-12 -57 -6 -102l37 -418q2 -14 10 -37q9 -27 35 -27q29 0 37 27q8 23 8 37z" />
    <glyph glyph-name="apple" unicode="&#x201c;" horiz-adv-x="797" 
d="M766 1343q-80 0 -180 -20q-105 -21 -199 -72q-192 -116 -195 -299q0 -69 46 -116q41 -54 114 -54q74 0 115 43q37 41 37 101q0 53 -27 79q-29 27 -67 27q-25 0 -43 -6q-19 -6 -35 -14q28 170 153 239q123 70 281 76v16zM1257 1343q-79 0 -180 -20q-104 -21 -198 -72
q-193 -116 -195 -299q0 -69 45 -116q41 -54 115 -54q73 0 114 43q37 41 37 101q0 53 -26 79q-29 27 -68 27q-25 0 -43 -6t-35 -14q29 170 154 239q123 70 280 76v16z" />
    <glyph glyph-name="Acircumflex" unicode="&#xab;" 
d="M489 31l19 12l-117 317l307 330l-14 17l-492 -349zM850 31l18 12l-116 317l309 330l-17 17l-491 -349z" />
    <glyph glyph-name="dotaccent" unicode="&#x2039;" horiz-adv-x="721" 
d="M494 31l18 12l-117 317l309 330l-16 17l-491 -349z" />
    <glyph glyph-name="ring" unicode="&#x203a;" horiz-adv-x="721" 
d="M297 707l-18 -13l114 -317l-307 -330l16 -16l492 348z" />
    <glyph glyph-name="cedilla" unicode="&#xf001;" horiz-adv-x="1139" 
d="M70 688h170q-111 -184 -222 -407q-112 -226 -233 -433q-119 -206 -256 -339q-137 -136 -303 -140q-115 2 -170 84q-59 78 -59 187q2 112 67 178q66 63 178 63v17q-51 16 -118 16q-138 2 -252 -57q-117 -62 -121 -224q2 -73 39 -129q37 -55 98 -92q127 -75 293 -75
q270 2 471 135q199 127 348 331q152 205 270 439l226 446l325 -2q-110 -180 -180 -309q-72 -129 -72 -238q0 -67 45 -112q41 -50 121 -52q103 2 184 52q80 49 173 145q188 207 288 362l-16 7q-74 -113 -234 -301q-75 -86 -151 -148q-78 -63 -141 -63q-50 2 -48 67
q3 82 111 256q102 172 240 385q-168 -18 -326 -16h-303q156 293 303 479q74 94 141 143q66 50 121 50q58 0 82 -39q21 -39 21 -90q-2 -107 -101 -203q23 -12 49 -15q25 -6 47 -6q84 0 154 47q70 48 72 136q-2 110 -78 157q-78 45 -201 45q-313 -6 -524 -229
q-213 -219 -342 -475h-170z" />
    <glyph glyph-name="hungarumlaut" unicode="&#xf002;" horiz-adv-x="1139" 
d="M512 721q158 311 303 489q145 180 262 183q82 0 82 -70q-4 -92 -113 -266l-208 -336h-326zM86 721l-16 -33h170q-111 -184 -222 -407q-112 -226 -233 -433q-119 -206 -256 -339q-137 -136 -303 -140q-115 2 -170 84q-59 78 -59 187q2 112 67 178q66 63 178 63v19
q-43 14 -118 14q-138 2 -252 -57q-117 -62 -121 -224q2 -73 39 -129q37 -55 98 -92q127 -75 293 -75q270 2 471 135q199 127 348 331q152 205 270 439l226 446h321q-102 -158 -178 -305q-80 -152 -82 -244q0 -71 47 -116q45 -46 125 -48q107 2 211 78q106 72 197 170
q90 103 153 189l53 73l29 47l-16 9q-101 -160 -264 -328q-78 -78 -150 -129q-72 -55 -123 -55q-26 0 -33 20q-8 21 -8 43q2 66 90 227q86 158 213 363q275 432 467 764v0l-246 -45q-77 24 -204 24q-152 -2 -281 -67q-129 -70 -233 -178q-105 -107 -187 -228t-141 -231h-170z
" />
    <glyph glyph-name="Oacute" unicode="&#x2013;" horiz-adv-x="1024" 
d="M37 453l-119 -168h1024l119 168h-1024z" />
    <glyph glyph-name="ae" unicode="&#x2020;" horiz-adv-x="1024" 
d="M1192 883l41 82h-332l154 217q34 47 59 94q23 43 25 78q0 57 -35 92q-35 33 -94 33q-58 0 -93 -33q-36 -37 -75 -111l-201 -370h-352l-39 -82h348l-604 -1108h104l748 1108h346z" />
    <glyph glyph-name="ogonek" unicode="&#x2021;" horiz-adv-x="1024" 
d="M1192 883l41 82h-332l154 217q34 47 59 94q23 43 25 78q0 57 -35 92q-35 33 -94 33q-58 0 -93 -33q-36 -37 -75 -111l-201 -370h-352l-39 -82h348l-107 -197h-354l-39 -82h348l-452 -829h104l559 829h383l41 82h-368l133 197h346z" />
    <glyph glyph-name="caron" unicode="&#x2219;" horiz-adv-x="588" 
d="M256 524q-66 0 -109 -45q-47 -45 -47 -110q0 -66 47 -109q43 -47 109 -47t111 47q45 43 45 109q0 65 -45 110t-111 45v0z" />
    <glyph glyph-name="florin" unicode="&#xb6;" horiz-adv-x="1229" 
d="M518 -201l838 1536q12 35 53 49q39 15 149 21l25 41h-592q-205 0 -399 -125q-92 -62 -150 -152q-61 -92 -61 -211q2 -118 86 -176q82 -57 186 -65l-499 -918h120l865 1585h125l-865 -1585h119z" />
    <glyph glyph-name="radical" unicode="&#x2022;" horiz-adv-x="1024" 
d="M207 721q2 -152 106 -254q103 -105 254 -107q154 2 256 107q103 102 105 254q-2 153 -105 256q-102 102 -256 104q-151 -2 -254 -104q-104 -103 -106 -256v0z" />
    <glyph glyph-name="Lslash" unicode="&#x201a;" horiz-adv-x="455" 
d="M-176 -311q80 2 184 22q103 21 195 70q192 117 194 299q0 69 -41 121q-41 47 -118 49q-70 -2 -111 -41q-41 -41 -41 -103q0 -49 31 -77q26 -29 63 -29q25 0 45 8q19 6 33 12q-29 -165 -152 -237q-124 -72 -282 -78v-16z" />
    <glyph glyph-name="lslash" unicode="&#x201e;" horiz-adv-x="797" 
d="M-324 -313q80 2 185 22q102 21 194 70q193 117 195 299q0 69 -41 121q-41 47 -119 49q-70 -2 -110 -41q-41 -41 -41 -103q2 -49 30 -77q27 -29 64 -29q24 2 45 8q18 6 33 12q-29 -165 -152 -237q-125 -72 -283 -78v-16zM168 -313q80 2 184 22q103 21 195 70
q192 117 194 299q0 69 -41 121q-41 47 -118 49q-70 -2 -111 -41q-41 -41 -41 -103q0 -49 31 -77q26 -29 63 -29q25 2 45 8q19 6 33 12q-29 -165 -151 -237q-125 -72 -283 -78v-16z" />
    <glyph glyph-name="Ograve" unicode="&#x201d;" horiz-adv-x="797" 
d="M66 782q79 2 184 23q102 20 194 69q193 117 195 299q0 70 -41 121q-41 47 -119 49q-69 -2 -110 -41q-41 -41 -41 -102q0 -49 30 -78q27 -28 64 -28q24 0 45 8q18 6 33 12q-29 -166 -152 -238q-125 -71 -282 -77v-17zM557 782q80 2 184 23q103 20 195 69q192 117 194 299
q0 70 -41 121q-40 47 -118 49q-70 -2 -111 -41q-41 -41 -41 -102q0 -49 31 -78q26 -28 63 -28q25 0 45 8q19 6 33 12q-29 -166 -151 -238q-125 -71 -283 -77v-17z" />
    <glyph glyph-name="Ecircumflex" unicode="&#xbb;" 
d="M659 707l-18 -13l115 -317l-308 -330l17 -16l491 348zM299 707l-18 -13l114 -317l-307 -330l16 -16l492 348z" />
    <glyph glyph-name="Aacute" unicode="&#x2026;" horiz-adv-x="2048" 
d="M905 291q-65 0 -108 -45q-47 -45 -47 -111q0 -65 47 -108q43 -45 108 -47q66 2 111 47q45 43 45 108q0 66 -45 111t-111 45v0zM238 291q-66 0 -109 -45q-47 -45 -47 -111q0 -65 47 -108q43 -45 109 -47q65 2 110 47q45 43 45 108q0 66 -45 111t-110 45v0zM1573 291
q-66 0 -109 -45q-47 -45 -47 -111q0 -65 47 -108q43 -45 109 -47q65 2 110 47q45 43 45 108q0 66 -45 111t-110 45v0z" />
    <glyph glyph-name="Scaron" unicode="&#x2030;" horiz-adv-x="2314" 
d="M1264 618q-179 -2 -330 -118q-72 -56 -115 -133q-47 -80 -47 -172q2 -105 76 -162q71 -56 172 -58q170 2 325 123q72 56 117 133q45 74 45 160q-2 115 -67 172q-66 55 -176 55v0zM1352 512q-5 -123 -117 -307q-53 -86 -115 -144q-31 -26 -63 -43q-33 -18 -68 -18
q-31 0 -45 25q-16 20 -16 49q0 73 41 162q39 88 96 169q57 82 117 136q59 51 100 53q72 -2 70 -82v0zM598 987q-4 -123 -117 -307q-53 -86 -114 -143q-31 -27 -62 -43q-33 -19 -67 -19q-64 2 -62 70q0 65 41 153q39 88 96 172q58 86 117 144q59 53 100 55q70 -2 68 -82v0z
M20 670q3 -105 76 -162q72 -57 172 -57q172 2 324 124q72 60 117 142q45 80 45 176v22h4q43 -59 110 -59q76 0 152 53l4 -4l-760 -1018l15 -10l933 1120q23 25 41 49q17 25 19 50q0 24 -17 39q-16 12 -41 12q-30 -2 -57 -41l-63 -90q-33 -51 -84 -90q-54 -45 -134 -45
q-53 0 -81 34q-17 17 -29 35q-14 19 -31 37q-24 41 -76 74q-51 33 -147 33q-178 -2 -330 -119q-71 -56 -114 -133q-48 -80 -48 -172v0zM2064 618q-178 -2 -329 -118q-72 -56 -115 -133q-47 -80 -47 -172q2 -105 76 -162q71 -56 172 -58q170 2 325 123q72 56 117 133
q45 74 45 160q-2 115 -68 172q-65 55 -176 55v0zM2152 512q-4 -123 -116 -307q-54 -86 -115 -144q-31 -26 -64 -43q-32 -18 -67 -18q-31 0 -45 25q-17 20 -17 49q0 73 41 162q39 88 97 169q57 82 116 136q60 51 101 53q71 -2 69 -82v0z" />
    <glyph glyph-name="fi" unicode="&#xbf;" horiz-adv-x="1024" 
d="M559 446q-55 -79 -143 -120t-178 -70q-129 -41 -248 -127q-56 -43 -90 -102q-35 -58 -37 -136q2 -135 96 -217q90 -82 233 -84q232 5 363 117q129 111 131 256q-2 90 -47 143q-47 54 -123 54q-125 -4 -178 -99q-53 -92 -53 -192h20q2 57 29 96q26 39 92 39q53 -2 84 -47
q29 -47 29 -109q-2 -83 -50 -139q-47 -55 -129 -57q-102 2 -170 78q-69 73 -69 184q0 109 53 180q49 70 121 119q37 27 76 51l73 51q74 52 125 123zM676 451q63 0 104 43q39 40 39 100q0 63 -39 104q-41 39 -104 39q-60 0 -101 -39q-43 -41 -43 -104q0 -60 43 -100
q41 -43 101 -43v0z" />
    <glyph glyph-name="braceright" unicode="`" horiz-adv-x="569" 
d="M231 1149q0 -41 48 -88q45 -47 104 -88q61 -41 113 -66q26 -12 45 -18q18 -8 24 -8q23 0 23 24q2 17 -88 70q-60 43 -82 86q-27 43 -37 80t-23 59q-14 21 -49 21q-76 -3 -78 -72v0z" />
    <glyph glyph-name="ellipsis" unicode="&#xb4;" horiz-adv-x="569" 
d="M766 1149q-4 69 -78 72q-33 0 -43 -21q-14 -22 -25 -59q-8 -37 -34 -80q-25 -43 -88 -86q-90 -53 -88 -70q0 -24 22 -24q21 0 74 26q51 25 110 66q62 41 107 88q41 47 43 88v0z" />
    <glyph glyph-name="threequarters" unicode="&#x2c6;" horiz-adv-x="569" 
d="M518 1225q-53 -86 -108 -142q-56 -57 -103 -94q-45 -37 -74 -57l-20 -21q-10 -12 -10 -20q0 -21 20 -21q70 2 162 78q92 70 137 119v0q43 -59 103 -127q28 -31 53 -53q22 -23 35 -23q26 0 26 29q0 16 -22 53q-23 39 -56 88q-30 49 -57 103q-27 51 -37 88h-49z" />
    <glyph glyph-name="glyph130" unicode="&#x2dc;" horiz-adv-x="569" 
d="M674 1057q-62 2 -152 39q-41 16 -82 28q-43 11 -78 11q-79 -5 -116 -70q-19 -29 -27 -55q-10 -25 -10 -39q0 -6 6 -17q2 -12 14 -12q13 0 27 16q12 15 25 33q16 21 30 33q17 12 35 12q62 -2 145 -43q86 -41 168 -43q91 4 123 74q29 65 29 98q2 29 -21 29q-8 0 -14 -12
q-8 -13 -18 -33q-8 -19 -27 -33q-20 -16 -57 -16v0z" />
    <glyph glyph-name="Gbreve" unicode="&#xaf;" horiz-adv-x="569" 
d="M293 1096q-45 -2 -60 -23q-14 -22 -14 -49q0 -31 23 -31h454q47 0 62 25q10 22 10 45q0 24 -16 29q-17 4 -35 4h-424z" />
    <glyph glyph-name="gbreve" unicode="&#x2d8;" horiz-adv-x="569" 
d="M240 1145q0 -76 63 -142q57 -71 152 -73q67 0 133 32q61 31 114 72q54 41 84 80q29 35 29 49q0 21 -29 21q-14 0 -43 -23l-69 -51t-94 -49q-56 -25 -127 -25q-50 0 -76 27q-31 22 -49 51l-29 55q-14 23 -33 23q-18 0 -20 -14q-6 -13 -6 -33v0z" />
    <glyph glyph-name="Idotaccent" unicode="&#x2d9;" horiz-adv-x="569" 
d="M500 1188q-43 -2 -76 -31q-33 -31 -33 -78q0 -43 33 -76q33 -32 76 -32q47 0 77 32q29 33 31 76q-2 47 -31 78q-30 29 -77 31v0z" />
    <glyph glyph-name="nonbreakingspace" unicode="&#xa8;" horiz-adv-x="569" 
d="M700 1188q-43 -2 -75 -31q-33 -31 -33 -78q0 -43 33 -76q32 -32 75 -32q47 0 78 32q29 33 31 76q-2 47 -31 78q-31 29 -78 31v0zM299 1188q-43 -2 -76 -31q-33 -31 -33 -78q0 -43 33 -76q33 -32 76 -32q47 0 78 32q28 33 31 76q-3 47 -31 78q-31 29 -78 31v0z" />
    <glyph glyph-name="Scedilla" unicode="&#x2da;" horiz-adv-x="569" 
d="M260 1018q0 -78 57 -115q52 -39 125 -39q101 0 187 68q84 63 86 168q-2 88 -58 123q-55 30 -118 30q-109 -2 -191 -65q-86 -66 -88 -170v0zM350 956q2 72 64 170q28 45 63 76q35 29 68 31q35 0 57 -15q23 -16 23 -53q-2 -82 -60 -176q-26 -43 -63 -72q-37 -32 -82 -32
q-70 0 -70 71v0z" />
    <glyph glyph-name="scedilla" unicode="&#xb8;" horiz-adv-x="569" 
d="M-35 -10l-59 -90q-47 -82 -45 -86q2 -15 14 -15q39 4 86 6q35 0 57 -14q21 -16 21 -45q-2 -88 -129 -90q-68 2 -115 18q-49 17 -78 17q-22 0 -22 -25q2 -18 31 -31q28 -12 67 -22q84 -18 121 -18q121 2 182 47q62 43 62 108q-2 64 -41 94q-41 27 -103 27q-24 0 -51 -6
l88 125h-86z" />
    <glyph glyph-name="cacute" unicode="&#x2db;" horiz-adv-x="569" 
d="M-20 -244q2 -49 20 -75q18 -31 43 -46q27 -12 45 -14q21 -6 27 -6q71 2 100 31q27 26 25 67q-31 -14 -58 -18q-24 -6 -33 -6q-92 4 -96 96q2 76 53 143q7 9 25 35q18 25 21 33q-3 4 -13 6q-10 -4 -22 -18q-13 -15 -29 -31q-41 -41 -74 -90q-32 -49 -34 -107v0z" />
    <glyph glyph-name="Ccaron" unicode="&#x2c7;" horiz-adv-x="569" 
d="M483 864q58 90 113 148q55 57 102 92l74 57q27 23 27 37q0 18 -21 20q-67 -4 -160 -75q-90 -72 -139 -121v0q-41 61 -100 129q-27 31 -49 53q-25 21 -41 21q-27 -2 -27 -29q0 -12 27 -51q22 -41 53 -90q33 -50 59 -101q27 -49 33 -90h49z" />
    <glyph glyph-name="Ocircumflex" unicode="&#x2014;" horiz-adv-x="2048" 
d="M37 453l-119 -168h2048l119 168h-2048z" />
    <glyph glyph-name="Atilde" unicode="&#xc6;" horiz-adv-x="2048" 
d="M797 1063q36 -66 41 -166q-2 -98 -105 -205q-102 -115 -289 -119q-100 0 -153 58q-53 51 -53 125q0 198 245 346q242 151 703 155q254 0 385 -12v-4q-113 -66 -258 -211q-150 -147 -271 -293l-129 -162q-88 -110 -202 -231q-115 -121 -236 -205q-125 -88 -239 -90
q-31 0 -62 4q-31 6 -53 27q28 41 28 96q0 45 -32 80q-33 33 -80 33q-64 -2 -98 -43q-35 -45 -35 -109q2 -90 76 -129q34 -20 73 -31q41 -10 78 -10q137 2 260 74q123 68 234 174q219 225 374 432h385q-30 -117 -67 -235q-37 -119 -109 -222q-37 7 -61 9q-27 4 -51 6
q-43 4 -131 4q-154 -2 -220 -41q-65 -39 -65 -92q2 -53 49 -74q47 -18 104 -18q95 0 164 28q70 27 131 64v0q109 -53 211 -88q101 -35 221 -37q117 2 226 61q108 58 202 148q193 192 318 383l-19 8q-127 -193 -264 -301q-137 -111 -372 -111q-205 0 -408 45q297 166 428 471
q82 11 162 31q-55 -137 -74 -289h25q47 154 153 267q109 112 240 194l-248 -6q-45 -88 -86 -119q-41 -33 -164 -53v0q29 113 80 233q51 121 125 203q25 25 64 57q38 31 63 35q49 0 119 6q69 7 139 27q70 23 117 61q45 39 47 107q-2 78 -70 106q-67 25 -151 25
q-113 -2 -228 -41q-114 -41 -194 -102q-137 26 -352 28q-486 -4 -852 -211q-176 -96 -281 -223q-108 -127 -108 -272q0 -103 67 -170q64 -72 166 -74q170 2 299 121q129 117 133 299q-2 90 -47 174zM1018 672q266 344 598 569q194 -14 334 -33v-4q-410 -115 -557 -532h-375z
M2400 1413q-2 -41 -53 -51q-49 -10 -82 -10q-137 0 -258 20q-125 16 -182 18v5q67 49 176 84q108 34 207 36q69 0 129 -18q61 -20 63 -84v0zM1102 88q-119 -82 -271 -80q-57 0 -92 19q-35 16 -35 49q0 37 39 59q39 21 99 21q114 0 260 -68v0z" />
    <glyph glyph-name="Ydieresis" unicode="&#xaa;" horiz-adv-x="684" 
d="M676 1110l-35 -64h-2q-12 80 -115 84q-153 -2 -274 -94q-60 -43 -94 -102q-37 -62 -37 -131q0 -62 28 -101q29 -43 101 -43q74 2 133 43q57 39 100 88l4 -2q-2 -36 17 -81q12 -19 39 -33q26 -15 71 -15q95 2 138 70l-17 16q-39 -53 -76 -53q-32 0 -32 23q0 41 30 96
q29 53 70 113l80 110l59 82zM336 713q-25 0 -33 22q-8 21 -8 39q0 45 24 102q23 56 60 109q37 55 80 90q41 35 82 35q22 0 41 -14q16 -15 16 -43q0 -54 -29 -109q-28 -59 -73 -113q-45 -49 -86 -81q-45 -37 -74 -37v0z" />
    <glyph glyph-name="glyph142" unicode="&#x141;" horiz-adv-x="1327" 
d="M1343 725v0l-381 -115l-4 4q68 93 140 238q61 -8 120 -8q236 0 500 96q125 49 207 127q80 76 82 182q-2 125 -96 178q-95 52 -217 52q-269 -5 -502 -166q-234 -160 -352 -404q-107 21 -191 92q-90 72 -92 183q0 92 55 153q54 62 150 64q59 0 112 -21l7 21q-37 22 -119 24
q-94 0 -160 -61q-70 -62 -70 -180q0 -60 29 -109q25 -49 68 -88q88 -78 202 -98q-49 -115 -190 -373l-362 -108v-33v0l337 102v0q-88 -160 -194 -285q-51 -59 -105 -94q-55 -37 -106 -37q-74 0 -197 17q-125 10 -229 12q-90 -2 -90 -55q0 -49 104 -51q117 2 232 24
q112 19 200 21q154 0 252 -68q101 -72 103 -235q0 -33 -4 -50q-7 -18 -17 -26t-16 -15q-8 -8 -8 -22q0 -25 30 -25q97 2 172 64q76 61 88 170l734 708l-21 7q-440 -408 -717 -689v0q-18 78 -77 123q-60 43 -142 60q-174 26 -336 22v4q209 90 361 187q149 94 301 327l409 121
v33zM1786 1317q0 -47 -23 -121q-24 -72 -88 -147q-63 -76 -176 -127q-113 -54 -287 -54q-61 0 -104 4q70 160 225 363q78 94 162 155q84 62 168 64q59 0 92 -37q31 -37 31 -100v0z" />
    <glyph glyph-name="Otilde" unicode="&#xd8;" horiz-adv-x="1554" 
d="M344 -176l21 -12l102 163q45 -6 88 -8q422 10 725 367q309 346 317 772q0 239 -198 364l106 176l-18 11l-111 -176v0q-106 47 -229 47q-109 0 -195 -33q-88 -33 -153 -80q-66 -47 -109 -92q-43 -43 -63 -70l14 -10q90 96 203 174q114 76 245 78q66 0 127 -27
q60 -28 101 -84l-43 -69q-51 45 -135 45q-320 -8 -621 -293q-143 -135 -231 -303q-95 -170 -95 -352q-2 -142 58 -256q55 -117 194 -168zM537 127v0q-37 49 -52 115q-14 63 -14 123q8 372 231 665q101 139 217 221q117 82 224 84q35 0 69 -8q33 -12 49 -33zM1276 1276
q22 -45 22 -92q-2 -80 -45 -156l21 -8q47 82 49 166q0 61 -35 112l43 70v0q47 -68 62 -147q8 -80 8 -164q-2 -285 -185 -639q-90 -164 -213 -273q-122 -114 -274 -116q-51 0 -98 20q-47 19 -80 60z" />
    <glyph glyph-name="Idieresis" unicode="&#x152;" horiz-adv-x="2048" 
d="M1350 356q28 99 92 170q61 70 157 72q90 -2 140 -55q47 -58 47 -148q-2 -184 -115 -284q-111 -103 -287 -103q-252 -4 -376 209q251 219 352 422q100 201 162 520q20 102 79 197q31 43 74 71q39 27 94 27q95 -2 129 -78q31 -74 31 -155q0 -115 -65 -183q-66 -69 -191 -67
q-47 6 -84 16l-10 -18q65 -23 127 -23q147 -2 278 68q64 35 103 90t39 133q0 74 -29 123q-29 47 -78 73q-102 48 -231 46q-103 0 -199 -39q-96 -41 -178 -103v0q-137 183 -369 183q-166 -3 -290 -68q-125 -70 -240 -191l16 -14q92 107 219 176q123 70 269 72
q231 -2 331 -221q-40 -37 -51 -80q-10 -43 -18 -98q-6 -56 -14 -111q-13 -55 -33 -109q-37 -106 -144 -167q-61 -31 -127 -68q-65 -35 -120 -84q-54 -49 -86 -113q-37 -63 -37 -151q0 -55 26 -109q23 -55 62 -94q-92 -59 -199 -61q-74 0 -123 37q-49 32 -80 88
q-55 114 -53 245q6 310 219 611q99 141 211 231q113 88 221 90q174 -4 174 -162q-4 -69 -38 -123l18 -14q41 49 45 139q-2 93 -55 140q-53 45 -142 45q-313 -9 -610 -299q-141 -138 -229 -305q-90 -170 -92 -355q0 -176 102 -299q100 -127 285 -131q200 4 362 107v0
q76 -70 174 -99q94 -28 185 -28q290 2 550 139q125 68 201 162q74 92 76 209q-2 137 -94 190q-90 51 -217 49q-88 -2 -154 -37q-63 -36 -111 -94q-43 -55 -67 -112q-27 -56 -39 -95zM975 358q2 211 121 318q114 106 297 157v0q-46 -149 -123 -286q-80 -142 -273 -309v0
q-22 51 -22 120v0z" />
    <glyph glyph-name="fraction" unicode="&#xba;" horiz-adv-x="659" 
d="M156 825q2 -90 69 -129q64 -39 150 -37q147 0 268 84q123 78 127 222q-2 94 -68 131q-67 34 -159 34q-140 -2 -258 -79q-58 -41 -93 -97q-36 -57 -36 -129v0zM627 1049q-4 -82 -88 -218q-41 -63 -88 -104q-50 -47 -99 -47q-53 2 -53 61q2 82 90 219q41 64 90 107
q47 41 94 43q52 -2 54 -61v0z" />
    <glyph glyph-name="guilsinglleft" unicode="&#xe6;" horiz-adv-x="1479" 
d="M631 737q35 0 63 -22q27 -25 27 -72q0 -92 -45 -192q-45 -99 -113 -187q-65 -88 -133 -141q-68 -57 -113 -57q-38 0 -53 34q-14 33 -14 68q4 162 129 358q57 92 123 152q65 57 129 59v0zM840 729l-54 -106h-4q-10 59 -53 100q-43 39 -123 39q-280 -6 -448 -180
q-172 -170 -174 -361q2 -248 198 -246q223 0 426 318l4 -4q-10 -25 -10 -58q-2 -254 277 -256q309 2 571 275q145 141 237 276l-18 13q-74 -111 -217 -254q-113 -107 -221 -176q-113 -72 -209 -72q-88 2 -125 61q-39 56 -37 133q0 41 8 82l152 39q92 25 190 60q49 18 92 43
q41 22 72 49q66 53 68 123q-2 71 -62 104q-63 31 -164 31q-73 0 -155 -25zM1237 680q0 -103 -94 -201q-97 -98 -271 -143v0q25 102 119 246q45 65 94 110q47 45 95 45q57 0 57 -57v0z" />
    <glyph glyph-name="onequarter" unicode="&#x131;" horiz-adv-x="569" 
d="M270 729l-108 -182q-53 -86 -90 -158q-78 -139 -80 -231q2 -178 170 -183q96 2 178 52q82 49 174 145q188 207 289 362l-17 7q-73 -113 -233 -301q-76 -86 -152 -148q-77 -63 -141 -63q-49 2 -47 67q2 82 111 256l239 385z" />
    <glyph glyph-name="glyph148" unicode="&#x142;" horiz-adv-x="569" 
d="M948 1016v0l-309 -129l-4 4q94 145 340 555l-301 -21l-125 -213l-111 -188l-174 -289l-256 -104l-14 -43v0l237 98l5 -4q-140 -231 -197 -352q-29 -64 -41 -111q-14 -49 -14 -92q0 -66 43 -107q43 -43 129 -45q106 2 211 78q106 72 196 170q90 103 154 189q30 43 53 73
q18 31 29 47l-17 9q-102 -160 -266 -328q-78 -78 -147 -129q-72 -55 -121 -55q-41 0 -43 47q-2 69 90 241q94 168 309 521l330 133z" />
    <glyph glyph-name="guilsinglright" unicode="&#xf8;" 
d="M264 14q-39 25 -39 90q4 166 140 392q63 104 137 172q71 67 145 69q19 0 35 -8zM698 717q31 -27 31 -84q-4 -166 -135 -387q-62 -105 -137 -172q-37 -35 -74 -54q-37 -20 -76 -20q-12 0 -24 4zM801 893l-19 10l-86 -149q-37 8 -82 8q-108 0 -215 -33q-106 -35 -196 -102
q-88 -66 -142 -158q-57 -94 -57 -215q0 -123 72 -186q67 -64 172 -82l-99 -168l19 -10l102 174q41 -7 86 -7q238 5 412 158q178 150 182 371h4q66 -92 172 -94q84 2 140 51q28 22 47 41q18 16 24 24l-16 17q-96 -109 -195 -109q-65 0 -104 43q-41 39 -76 94q-35 58 -86 107
q-27 24 -61 43q-37 18 -82 29z" />
    <glyph glyph-name="Igrave" unicode="&#x153;" horiz-adv-x="1479" 
d="M647 737q80 -2 82 -104q-4 -166 -135 -387q-62 -105 -137 -172q-37 -35 -74 -54q-37 -20 -76 -20q-82 2 -82 104q4 166 140 392q63 104 137 172q71 67 145 69v0zM1698 539q-74 -111 -217 -254q-113 -107 -222 -176q-112 -72 -208 -72q-89 2 -125 61q-39 56 -37 133
q0 41 8 82l152 39q92 25 190 60q49 18 92 43q41 22 72 49q65 53 67 123q-2 71 -61 104q-64 31 -164 31q-168 -2 -344 -111v0q-41 51 -111 82q-69 29 -176 29q-108 0 -215 -33q-106 -35 -196 -102q-88 -66 -142 -158q-57 -94 -57 -215q2 -154 109 -217q104 -62 243 -62
q158 2 326 78v0q74 -78 225 -78q309 2 572 275q145 141 237 276zM1266 680q0 -103 -95 -201q-96 -98 -270 -143v0q25 102 119 246q45 65 94 110q47 45 94 45q58 0 58 -57v0z" />
    <glyph glyph-name="approxequal" unicode="&#xdf;" horiz-adv-x="1327" 
d="M1556 537q-98 -138 -247 -291q-150 -152 -338 -219v4q131 67 131 215q-4 90 -62 176q-22 45 -41 96q-20 49 -20 111q0 57 26 100q23 41 64 68q84 53 197 90q55 20 108 45q49 24 90 57t66 82q22 47 22 111q-6 262 -358 264q-283 -4 -516 -193q-234 -186 -389 -467
q-352 -659 -578 -1017q-229 -363 -491 -367q-117 2 -180 82q-62 76 -64 192q2 99 64 166q59 68 167 68q44 0 72 -2v16q-55 19 -135 19q-172 2 -291 -64q-121 -65 -123 -213q2 -82 47 -137q46 -55 113 -90q72 -33 154 -47q77 -15 153 -15q260 5 461 140q102 65 190 149
q86 84 162 182q154 205 269 422l204 394q137 268 322 505q92 113 188 183q92 69 182 69q62 0 97 -35q35 -41 35 -143q0 -55 -15 -131q-14 -74 -57 -156q-27 -51 -68 -77q-43 -27 -112 -43q-170 -46 -246 -109q-78 -63 -76 -164q0 -51 21 -98q18 -49 41 -92q26 -43 45 -88
q16 -49 16 -103q0 -78 -47 -129q-47 -53 -135 -53q-70 2 -103 43q-34 37 -34 82q0 33 6 45q16 -2 32 -2q103 0 107 106q0 43 -29 72q-30 29 -82 31q-73 0 -118 -47q-50 -47 -50 -129q0 -105 88 -168q86 -64 220 -66q268 0 460 135q142 103 238 215l166 205z" />
    <glyph glyph-name="uni00B9" unicode="&#xb9;" horiz-adv-x="704" 
d="M240 846q153 41 288 92l4 -4q-53 -70 -149 -215l-191 -281l228 13q71 139 188 313l225 344l-20 6q-260 -170 -577 -246z" />
    <glyph glyph-name="daggerdbl" unicode="&#xac;" horiz-adv-x="1229" 
d="M836 166h131v405h-738v-131h607v-274z" />
    <glyph glyph-name="quotedblright" unicode="&#xb5;" 
d="M250 745l-848 -1408l299 8l377 635q14 -5 28 -5q105 2 213 84q109 80 203 189l4 -6q-22 -45 -22 -123q0 -45 45 -92q45 -50 137 -52q92 2 188 66q95 61 181 149q88 93 161 183l125 153l-18 17q-84 -119 -256 -305q-80 -84 -156 -146q-78 -63 -131 -63q-55 -2 -55 51
q0 57 51 147q45 88 113 189l211 321l-297 -8q-170 -324 -330 -502q-162 -182 -250 -182q-53 2 -55 59q0 25 12 58t41 90q60 106 250 391l74 111z" />
    <glyph glyph-name="guillemotright" unicode="&#x2122;" horiz-adv-x="2027" 
d="M571 1397h99q61 -2 92 -37q31 -37 41 -94h49v180h-739v-180h49q12 57 45 94q31 35 90 37h98v-627q2 -61 -10 -78q-14 -18 -92 -24v-50h381v50q-74 6 -88 24q-17 17 -15 78v627zM1413 616h25l305 611h4v-457q2 -61 -10 -78q-15 -18 -93 -24v-50h379v50q-73 6 -88 24
q-14 17 -12 78v526q-2 51 20 78q23 25 91 27v45h-234l-315 -606v0l-299 606h-273v-45q99 -2 142 -105v-489q0 -72 -15 -103q-18 -32 -88 -36v-50h271v50q-68 4 -88 36q-21 31 -19 103v418h4z" />
    <glyph glyph-name="glyph156" unicode="&#xd0;" horiz-adv-x="2048" 
d="M954 741q-28 -2 -28 -12q0 -12 28 -12h166l-74 -137q-120 -232 -237 -379q-119 -146 -277 -176v0q-122 26 -223 45q-100 20 -160 20q-92 -2 -90 -49q2 -74 193 -74q151 2 270 25q82 -21 336 -25q207 0 410 37q202 35 370 123q170 88 271 240q100 153 102 385
q-2 180 -80 319q-76 139 -190 225q170 172 413 183v24q-264 -18 -495 -149v0q-221 125 -514 125q-391 -2 -723 -201q-158 -94 -256 -234q-100 -139 -100 -311q0 -145 90 -246q88 -106 239 -108q207 0 340 137q131 135 133 373q0 125 -57 270l-21 -8q54 -146 54 -275
q0 -147 -84 -286q-43 -66 -105 -107q-61 -43 -145 -43q-115 2 -162 84q-47 78 -45 183q0 161 78 296q76 136 196 238q254 209 545 213q348 -4 498 -121q-158 -98 -273 -250q-114 -151 -212 -342h-181zM1569 717q28 0 28 12q0 10 -28 12h-154q119 248 285 512v0
q47 -63 61 -141q12 -78 12 -156q0 -319 -215 -628q-108 -148 -274 -240q-168 -94 -399 -96q-160 0 -291 18v4q340 107 518 291q180 182 291 412h166z" />
    <glyph glyph-name="glyph157" unicode="&#xbd;" horiz-adv-x="1763" 
d="M1370 1130h-94l-979 -1155h94zM1524 254q-70 -150 -185 -150q-69 2 -141 23q-74 18 -141 20q-35 0 -66 -14l-4 4q68 41 170 68l201 55q102 31 170 84q67 53 69 150q-2 83 -77 126q-76 44 -185 44q-139 -3 -231 -56q-96 -55 -99 -155q0 -56 37 -88q37 -33 84 -33
q66 0 111 41q43 39 47 92h-8q-12 -41 -62 -39q-86 2 -86 80q0 49 43 84q39 33 103 33q65 -3 92 -37q22 -35 22 -84q0 -76 -36 -125q-37 -51 -101 -88q-61 -35 -139 -72q-80 -35 -164 -84q-115 -63 -151 -88q-41 -25 -39 -41q0 -18 22 -18q25 2 33 12t14 22q9 17 19 25
q8 10 33 10q81 -2 161 -32q41 -13 80 -23q37 -12 76 -14q90 2 151 37q62 32 101 79t63 88q21 41 29 58zM297 846q154 41 289 92l4 -4q-53 -70 -150 -215l-190 -281l227 13q72 139 189 313l225 344l-21 6q-260 -170 -577 -246z" />
    <glyph glyph-name="oe" unicode="&#xb1;" horiz-adv-x="1229" 
d="M532 541h-303v-131h303v-197h132v197h303v131h-303v196h-132v-196zM229 0h738v131h-738v-131z" />
    <glyph glyph-name="glyph159" unicode="&#xde;" horiz-adv-x="1933" 
d="M1024 1071q117 215 278 301q160 84 334 82q62 0 103 -4v-4q-289 -99 -486 -328q-198 -229 -344 -489q-143 -258 -266 -443q-63 -90 -127 -139q-68 -53 -137 -55q-74 2 -113 43q-39 39 -45 104q31 10 53 37q21 25 21 72q0 49 -29 84q-30 35 -88 37q-72 -2 -108 -52
q-41 -49 -41 -116q0 -111 100 -170q94 -62 256 -64q174 2 305 78q129 74 229 195q105 122 195 268l188 289q158 215 283 215q84 2 86 -115q0 -117 -106 -254q-54 -66 -127 -106q-76 -48 -174 -48q-54 0 -95 9l-8 -21q39 -12 115 -12q176 0 299 49q123 47 198 123
q146 158 144 325q-4 195 -217 197q-49 0 -101 -22q-53 -23 -100 -60q-96 -76 -145 -147l-4 4q96 174 237 334q70 75 143 125q72 47 142 55v20q-90 11 -234 11q-299 2 -516 -84q-217 -91 -329 -324h231z" />
    <glyph glyph-name="glyph160" unicode="&#xbc;" horiz-adv-x="1763" 
d="M1431 618q-112 -188 -233 -362l-291 -2l-4 4l643 508l-162 -8l-600 -555q152 16 283 18h119l-162 -229l223 16q29 58 68 113l67 100h148l14 39h-149l256 379zM1360 1130h-94l-979 -1155h94zM276 846q154 41 289 92l4 -4q-53 -70 -149 -215l-191 -281l228 13
q71 139 188 313l225 344l-20 6q-260 -170 -578 -246z" />
    <glyph glyph-name="Ugrave" unicode="&#xf7;" horiz-adv-x="1229" 
d="M967 303v131h-738v-131h738zM598 141q-43 -2 -76 -30q-35 -33 -35 -80q0 -43 35 -76q33 -33 76 -35q47 2 80 35q29 33 31 76q-2 47 -31 80q-33 28 -80 30v0zM598 817q-43 -2 -76 -31q-35 -32 -35 -79q0 -43 35 -76q33 -35 76 -35q47 0 80 35q29 33 31 76q-2 47 -31 79
q-33 29 -80 31v0z" />
    <glyph glyph-name="glyph162" unicode="&#xa6;" horiz-adv-x="455" 
d="M182 0h131v532h-131v-532zM182 946h131v533h-131v-533z" />
    <glyph glyph-name="oslash" unicode="&#xb0;" horiz-adv-x="819" 
d="M496 1038q86 -2 139 -57q51 -57 51 -143q0 -84 -51 -140q-53 -59 -139 -59q-84 0 -136 59q-55 56 -55 140q0 86 55 143q52 55 136 57v0zM496 1130q-125 -2 -207 -84q-84 -81 -86 -208q2 -125 86 -207q82 -84 207 -86q127 2 208 86q82 82 84 207q-2 127 -84 208
q-81 82 -208 84v0z" />
    <glyph glyph-name="glyph164" unicode="&#xfe;" 
d="M625 1315l-1219 -1978l293 12l473 839l4 -4v-24q0 -97 60 -140q55 -45 133 -45q227 5 401 158q176 150 180 371h4q66 -92 172 -94q84 2 140 51q28 22 47 41q18 16 24 24l-16 17q-96 -109 -195 -109q-67 0 -112 51q-47 49 -88 113q-41 63 -103 113q-30 24 -71 39
q-41 12 -97 12q-73 0 -141 -47l-4 4l414 616zM729 633q-4 -164 -131 -381q-59 -100 -131 -168q-35 -31 -70 -51q-37 -21 -73 -21q-45 0 -82 37q-41 35 -41 103q0 45 41 135q41 88 141 235q94 137 149 180q56 37 103 35q92 -2 94 -104v0z" />
    <glyph glyph-name="glyph165" unicode="&#xbe;" horiz-adv-x="1763" 
d="M1575 618q-113 -188 -234 -362l-290 -2l-5 4l643 508l-161 -8l-600 -555q151 16 282 18h119l-162 -229l223 16q29 58 68 113l68 100h147l14 39h-149l256 379zM1503 1130h-94l-979 -1155h94zM362 766q41 8 80 8q60 0 99 -27q39 -30 39 -94q0 -94 -58 -147
q-59 -53 -157 -53q-68 0 -101 36q-37 33 -37 76t23 72q22 29 57 29q29 -2 47 -25l11 2q-9 23 -37 64q-33 38 -109 40q-61 -2 -100 -43q-43 -43 -43 -100q0 -49 30 -82q29 -33 72 -55q43 -21 96 -29q50 -10 97 -10q100 -2 247 45q70 25 115 68t47 106q-2 70 -61 107
q-60 32 -133 32v4q45 7 102 19q57 8 107 27q53 20 88 57q32 33 32 88q0 65 -63 102q-64 37 -166 37q-109 0 -192 -43q-41 -20 -64 -55q-27 -35 -27 -78q0 -41 37 -68q33 -28 76 -28q82 2 111 51q16 23 22 41q6 16 4 22h-10q-8 -32 -47 -32t-51 24q-15 21 -15 43
q-4 84 109 90q49 0 74 -32q22 -31 22 -84q-2 -80 -74 -121q-71 -43 -170 -43h-120z" />
    <glyph glyph-name="uni00B2" unicode="&#xb2;" horiz-adv-x="704" 
d="M768 696q-70 -149 -184 -149q-70 2 -142 22q-73 19 -141 21q-35 0 -65 -15l-5 5q68 40 170 67l201 55q102 31 170 84q68 54 70 150q-2 84 -78 127t-184 43q-140 -2 -232 -55q-96 -56 -98 -156q0 -55 37 -88t84 -33q65 0 110 41q43 39 47 92h-8q-12 -41 -61 -39
q-86 2 -86 80q0 49 43 84q39 33 102 33q66 -2 92 -37q23 -35 23 -84q0 -76 -37 -125q-37 -51 -100 -88q-62 -35 -140 -72q-80 -34 -164 -84q-114 -63 -151 -88q-41 -24 -39 -41q0 -20 23 -18q24 0 32 12q9 11 15 23q8 16 18 24q8 11 33 11q82 -2 162 -33l80 -23
q36 -14 75 -14q90 0 152 37q61 33 100 80t64 88l28 57z" />
    <glyph glyph-name="Delta" unicode="&#xae;" horiz-adv-x="1638" 
d="M510 1106q74 -6 90 -23q12 -16 10 -78v-538q2 -59 -10 -76q-16 -16 -90 -22v-37h360v37q-73 6 -88 22q-14 17 -12 76v217h86q90 -139 145 -244q31 -49 56 -78q24 -30 49 -30h160v24q-70 66 -154 178l-125 179q78 26 125 86q47 59 47 137q-2 104 -74 158q-69 49 -174 49
h-401v-37zM770 1089h82q63 0 100 -32q35 -39 35 -129q0 -82 -29 -133q-30 -58 -106 -58h-82v352zM862 -33q322 4 528 219q207 211 211 535q-4 328 -211 540q-206 213 -528 218q-319 -5 -524 -220q-211 -213 -215 -538q4 -324 215 -535q205 -215 524 -219v0zM862 74
q-258 4 -424 194q-174 185 -176 453q2 272 174 459q168 188 426 192q260 -4 428 -192q168 -187 172 -459q-4 -268 -172 -453q-168 -190 -428 -194v0z" />
    <glyph glyph-name="glyph168" unicode="&#x2212;" horiz-adv-x="1229" 
d="M967 303v131h-738v-131h738z" />
    <glyph glyph-name="glyph169" unicode="&#xf0;" 
d="M647 737q80 -2 82 -104q-4 -166 -135 -387q-62 -105 -137 -172q-37 -35 -74 -54q-37 -20 -76 -20q-82 2 -82 104q4 166 140 392q63 104 137 172q71 67 145 69v0zM1309 1063q12 0 12 12t-12 12h-240q20 197 78 273q55 71 155 69q64 0 121 -20q58 -23 88 -45l19 24
q-47 43 -121 68q-74 23 -180 23q-365 4 -412 -392h-215q-14 0 -12 -12q-2 -12 12 -12h213q-8 -88 -10 -176q-4 -90 -19 -158q-88 33 -172 33q-108 0 -215 -33q-106 -35 -196 -102q-88 -66 -142 -158q-57 -94 -57 -215q2 -154 109 -217q104 -62 243 -62q246 5 404 150
q157 145 209 356v0q32 -35 75 -53q41 -18 82 -18q84 2 140 51q28 22 47 41q18 16 24 24l-16 17q-96 -109 -195 -109q-51 0 -84 27q-34 22 -61 57q68 270 88 545h240z" />
    <glyph glyph-name="multiply" unicode="&#xd7;" horiz-adv-x="1229" 
d="M874 737l-276 -276v0l-276 276v0l-93 -92l277 -276l-277 -277l93 -92v0l276 276v0l276 -276v0l93 92l-277 277l277 276l-93 92v0z" />
    <glyph glyph-name="uni00B3" unicode="&#xb3;" horiz-adv-x="704" 
d="M342 766q41 8 80 8q59 0 98 -27q39 -30 39 -94q0 -94 -57 -147q-60 -53 -158 -53q-68 0 -100 36q-37 33 -37 76t22 72q23 29 58 29q28 -2 47 -25l10 2q-8 23 -37 64q-33 38 -108 40q-62 -2 -101 -43q-43 -43 -43 -100q0 -49 31 -82q29 -33 72 -55q43 -21 96 -29
q49 -10 96 -10q101 -2 248 45q70 25 115 68t47 106q-2 70 -62 107q-59 32 -133 32v4q45 7 103 19q57 8 106 27q53 20 88 57q33 33 33 88q0 65 -64 102q-63 37 -165 37q-109 0 -193 -43q-41 -20 -63 -55q-27 -35 -27 -78q0 -41 37 -68q33 -28 76 -28q81 2 110 51q17 23 23 41
q6 16 4 22h-10q-9 -32 -48 -32q-38 0 -51 24q-14 21 -14 43q-4 84 108 90q50 0 74 -32q23 -31 23 -84q-2 -80 -74 -121q-72 -43 -170 -43h-121z" />
    <glyph glyph-name="guillemotleft" unicode="&#xa9;" horiz-adv-x="1638" 
d="M862 -33q322 4 528 219q207 211 211 535q-4 328 -211 540q-206 213 -528 218q-319 -5 -524 -220q-211 -213 -215 -538q4 -324 215 -535q205 -215 524 -219v0zM862 74q-258 4 -424 194q-174 185 -176 453q2 272 174 459q168 188 426 192q260 -4 428 -192
q168 -187 172 -459q-4 -268 -172 -453q-168 -190 -428 -194v0zM1186 547q-33 -80 -94 -131q-64 -56 -166 -56q-152 2 -217 113q-66 109 -66 281q2 163 70 264q67 98 206 100q58 0 101 -16q41 -15 67 -43q52 -60 62 -131h41v151q0 33 -45 51q-41 17 -92 29q-50 12 -131 12
q-129 0 -220 -39q-92 -40 -149 -106q-57 -61 -84 -137q-27 -74 -27 -146q2 -223 135 -329q127 -107 328 -107q78 0 139 15q60 14 91 26q28 10 43 19q14 8 14 24l33 156h-39z" />
    <glyph glyph-name="circumflex" unicode="&#xff;" 
d="M274 737q-28 -57 -75 -129l-99 -147q-49 -76 -84 -154q-34 -80 -36 -158q0 -67 36 -118q35 -54 111 -56q154 5 264 103q111 96 186 196l5 -4q-37 -51 -76 -116l-86 -144q-92 -151 -199 -299q-106 -147 -229 -245q-125 -103 -270 -105q-203 4 -207 260q0 98 43 166
q43 70 145 70q39 2 68 -4v18q-88 18 -176 18q-117 0 -218 -65q-104 -66 -108 -195q2 -77 41 -133q39 -55 98 -92q129 -67 271 -67q346 4 591 186q244 180 402 479q235 96 420 266q182 168 258 281l-17 12q-137 -180 -319 -328q-187 -147 -322 -198l-4 4l424 698l-289 -8
l-162 -285q-86 -147 -204 -272q-60 -59 -113 -96q-55 -39 -96 -39q-25 0 -35 20q-12 19 -12 43q0 45 51 133q47 89 110 191l123 192q58 88 80 138zM1004 1188q-43 -2 -75 -31q-33 -31 -33 -78q0 -43 33 -76q32 -32 75 -32q47 0 78 32q29 33 31 76q-2 47 -31 78
q-31 29 -78 31v0zM603 1188q-43 -2 -76 -31q-33 -31 -33 -78q0 -43 33 -76q33 -32 76 -32q47 0 78 32q28 33 31 76q-3 47 -31 78q-31 29 -78 31v0z" />
    <glyph glyph-name="glyph174" unicode="&#xfd;" 
d="M274 737q-28 -57 -75 -129l-99 -147q-49 -76 -84 -154q-34 -80 -36 -158q0 -67 36 -118q35 -54 111 -56q154 5 264 103q111 96 186 196l5 -4q-37 -51 -76 -116l-86 -144q-92 -151 -199 -299q-106 -147 -229 -245q-125 -103 -270 -105q-203 4 -207 260q0 98 43 166
q43 70 145 70q39 2 68 -4v18q-88 18 -176 18q-117 0 -218 -65q-104 -66 -108 -195q2 -77 41 -133q39 -55 98 -92q129 -67 271 -67q346 4 591 186q244 180 402 479q235 96 420 266q182 168 258 281l-17 12q-137 -180 -319 -328q-187 -147 -322 -198l-4 4l424 698l-289 -8
l-162 -285q-86 -147 -204 -272q-60 -59 -113 -96q-55 -39 -96 -39q-25 0 -35 20q-12 19 -12 43q0 45 51 133q47 89 110 191l123 192q58 88 80 138zM1078 1149q-4 69 -78 72q-33 0 -43 -21q-14 -22 -25 -59q-8 -37 -34 -80q-25 -43 -88 -86q-90 -53 -88 -70q0 -24 22 -24
q21 0 74 26q51 25 110 66q62 41 107 88q41 47 43 88v0z" />
    <glyph glyph-name="ordfeminine" unicode="&#xf9;" 
d="M248 745q-21 -38 -68 -110l-102 -160q-53 -88 -90 -172q-39 -86 -41 -149q0 -78 43 -125q43 -52 125 -54q114 2 215 84q98 78 188 185l4 -4q-16 -35 -18 -91q0 -67 43 -118q41 -54 129 -56q92 2 188 66q94 61 180 149q88 93 162 183l125 153l-18 17q-84 -119 -256 -305
q-80 -84 -156 -146q-78 -63 -131 -63q-45 -2 -45 51q0 57 51 147q45 88 113 189l211 321l-297 -8q-170 -324 -330 -502q-162 -182 -250 -182q-53 2 -55 59q0 25 12 58t41 90q60 106 250 391l72 111zM590 1149q0 -41 48 -88q45 -47 104 -88q61 -41 113 -66q26 -12 45 -18
q18 -8 24 -8q23 0 23 24q2 17 -88 70q-60 43 -82 86q-27 43 -37 80t-23 59q-14 21 -49 21q-76 -3 -78 -72v0z" />
    <glyph glyph-name="Omega" unicode="&#xfc;" 
d="M248 745q-21 -38 -68 -110l-102 -160q-53 -88 -90 -172q-39 -86 -41 -149q0 -78 43 -125q43 -52 125 -54q114 2 215 84q98 78 188 185l4 -4q-16 -35 -18 -91q0 -67 43 -118q41 -54 129 -56q92 2 188 66q94 61 180 149q88 93 162 183l125 153l-18 17q-84 -119 -256 -305
q-80 -84 -156 -146q-78 -63 -131 -63q-45 -2 -45 51q0 57 51 147q45 88 113 189l211 321l-297 -8q-170 -324 -330 -502q-162 -182 -250 -182q-53 2 -55 59q0 25 12 58t41 90q60 106 250 391l72 111zM1058 1188q-43 -2 -75 -31q-33 -31 -33 -78q0 -43 33 -76q32 -32 75 -32
q47 0 78 32q29 33 31 76q-2 47 -31 78q-31 29 -78 31v0zM657 1188q-43 -2 -76 -31q-33 -31 -33 -78q0 -43 33 -76q33 -32 76 -32q47 0 78 32q28 33 31 76q-3 47 -31 78q-31 29 -78 31v0z" />
    <glyph glyph-name="ordmasculine" unicode="&#xfb;" 
d="M248 745q-21 -38 -68 -110l-102 -160q-53 -88 -90 -172q-39 -86 -41 -149q0 -78 43 -125q43 -52 125 -54q114 2 215 84q98 78 188 185l4 -4q-16 -35 -18 -91q0 -67 43 -118q41 -54 129 -56q92 2 188 66q94 61 180 149q88 93 162 183l125 153l-18 17q-84 -119 -256 -305
q-80 -84 -156 -146q-78 -63 -131 -63q-45 -2 -45 51q0 57 51 147q45 88 113 189l211 321l-297 -8q-170 -324 -330 -502q-162 -182 -250 -182q-53 2 -55 59q0 25 12 58t41 90q60 106 250 391l72 111zM875 1225q-53 -86 -108 -142q-56 -57 -103 -94q-45 -37 -74 -57l-20 -21
q-10 -12 -10 -20q0 -21 20 -21q70 2 162 78q92 70 137 119v0q43 -59 103 -127q28 -31 53 -53q22 -23 35 -23q26 0 26 29q0 16 -22 53q-23 39 -56 88q-30 49 -57 103q-27 51 -37 88h-49z" />
    <glyph glyph-name="integral" unicode="&#xfa;" 
d="M248 745q-21 -38 -68 -110l-102 -160q-53 -88 -90 -172q-39 -86 -41 -149q0 -78 43 -125q43 -52 125 -54q114 2 215 84q98 78 188 185l4 -4q-16 -35 -18 -91q0 -67 43 -118q41 -54 129 -56q92 2 188 66q94 61 180 149q88 93 162 183l125 153l-18 17q-84 -119 -256 -305
q-80 -84 -156 -146q-78 -63 -131 -63q-45 -2 -45 51q0 57 51 147q45 88 113 189l211 321l-297 -8q-170 -324 -330 -502q-162 -182 -250 -182q-53 2 -55 59q0 25 12 58t41 90q60 106 250 391l72 111zM1131 1149q-4 69 -78 72q-33 0 -43 -21q-14 -22 -25 -59q-8 -37 -34 -80
q-25 -43 -88 -86q-90 -53 -88 -70q0 -24 22 -24q21 0 74 26q51 25 110 66q62 41 107 88q41 47 43 88v0z" />
    <glyph glyph-name="glyph179" unicode="&#x161;" horiz-adv-x="833" 
d="M1057 545q-105 -168 -260 -312q-158 -145 -338 -200l-4 4q129 69 129 203q0 61 -29 108q-29 49 -68 90q-39 43 -67 88q-31 43 -31 92q0 58 29 89q24 30 71 30q54 -2 78 -41q23 -39 23 -92q-2 -59 -31 -102q39 -25 88 -25q57 0 94 37q35 35 37 92q-2 78 -74 117
q-71 39 -194 39q-164 -2 -250 -76q-92 -74 -92 -176q0 -43 29 -82q26 -43 57 -86q35 -39 59 -82q23 -43 25 -86q0 -72 -43 -121q-43 -53 -131 -53q-137 2 -137 137q0 25 10 39q14 -6 41 -6q35 0 61 25q23 22 25 65q0 49 -29 74q-31 24 -76 24q-63 0 -108 -43
q-49 -43 -51 -120q2 -113 86 -166q80 -54 206 -54q328 5 531 166q203 158 348 387zM591 864q58 90 113 148q55 57 102 92l74 57q27 23 27 37q0 18 -21 20q-67 -4 -160 -75q-90 -72 -139 -121v0q-41 61 -100 129q-27 31 -49 53q-25 21 -41 21q-27 -2 -27 -29q0 -12 27 -51
q22 -41 53 -90q33 -50 59 -101q27 -49 33 -90h49z" />
    <glyph glyph-name="pi" unicode="&#xf5;" 
d="M1321 543q-96 -109 -195 -109q-73 0 -114 51q-43 49 -84 113q-41 63 -113 113q-72 49 -201 51q-108 0 -215 -33q-106 -35 -196 -102q-88 -66 -142 -158q-57 -94 -57 -215q2 -154 109 -217q104 -62 243 -62q238 5 412 158q178 150 182 371h4q66 -92 172 -94q84 2 140 51
q28 22 47 41q18 16 24 24zM647 737q80 -2 82 -104q-4 -166 -135 -387q-62 -105 -137 -172q-37 -35 -74 -54q-37 -20 -76 -20q-82 2 -82 104q4 166 140 392q63 104 137 172q71 67 145 69v0zM912 1057q-62 2 -152 39q-41 16 -82 28q-43 11 -78 11q-79 -5 -116 -70
q-19 -29 -27 -55q-10 -25 -10 -39q0 -6 6 -17q2 -12 14 -12q13 0 27 16q12 15 25 33q16 21 30 33q17 12 35 12q62 -2 145 -43q86 -41 168 -43q91 4 123 74q29 65 29 98q2 29 -21 29q-8 0 -14 -12q-8 -13 -18 -33q-8 -19 -27 -33q-20 -16 -57 -16v0z" />
    <glyph glyph-name="partialdiff" unicode="&#xf2;" 
d="M1321 543q-96 -109 -195 -109q-73 0 -114 51q-43 49 -84 113q-41 63 -113 113q-72 49 -201 51q-108 0 -215 -33q-106 -35 -196 -102q-88 -66 -142 -158q-57 -94 -57 -215q2 -154 109 -217q104 -62 243 -62q238 5 412 158q178 150 182 371h4q66 -92 172 -94q84 2 140 51
q28 22 47 41q18 16 24 24zM647 737q80 -2 82 -104q-4 -166 -135 -387q-62 -105 -137 -172q-37 -35 -74 -54q-37 -20 -76 -20q-82 2 -82 104q4 166 140 392q63 104 137 172q71 67 145 69v0zM472 1149q0 -41 48 -88q45 -47 104 -88q61 -41 113 -66q26 -12 45 -18q18 -8 24 -8
q23 0 23 24q2 17 -88 70q-60 43 -82 86q-27 43 -37 80t-23 59q-14 21 -49 21q-76 -3 -78 -72v0z" />
    <glyph glyph-name="product" unicode="&#xf6;" 
d="M1321 543q-96 -109 -195 -109q-73 0 -114 51q-43 49 -84 113q-41 63 -113 113q-72 49 -201 51q-108 0 -215 -33q-106 -35 -196 -102q-88 -66 -142 -158q-57 -94 -57 -215q2 -154 109 -217q104 -62 243 -62q238 5 412 158q178 150 182 371h4q66 -92 172 -94q84 2 140 51
q28 22 47 41q18 16 24 24zM647 737q80 -2 82 -104q-4 -166 -135 -387q-62 -105 -137 -172q-37 -35 -74 -54q-37 -20 -76 -20q-82 2 -82 104q4 166 140 392q63 104 137 172q71 67 145 69v0zM939 1188q-43 -2 -75 -31q-33 -31 -33 -78q0 -43 33 -76q32 -32 75 -32q47 0 78 32
q29 33 31 76q-2 47 -31 78q-31 29 -78 31v0zM538 1188q-43 -2 -76 -31q-33 -31 -33 -78q0 -43 33 -76q33 -32 76 -32q47 0 78 32q28 33 31 76q-3 47 -31 78q-31 29 -78 31v0z" />
    <glyph glyph-name="summation" unicode="&#xf4;" 
d="M1321 543q-96 -109 -195 -109q-73 0 -114 51q-43 49 -84 113q-41 63 -113 113q-72 49 -201 51q-108 0 -215 -33q-106 -35 -196 -102q-88 -66 -142 -158q-57 -94 -57 -215q2 -154 109 -217q104 -62 243 -62q238 5 412 158q178 150 182 371h4q66 -92 172 -94q84 2 140 51
q28 22 47 41q18 16 24 24zM647 737q80 -2 82 -104q-4 -166 -135 -387q-62 -105 -137 -172q-37 -35 -74 -54q-37 -20 -76 -20q-82 2 -82 104q4 166 140 392q63 104 137 172q71 67 145 69v0zM756 1225q-53 -86 -108 -142q-56 -57 -103 -94q-45 -37 -74 -57l-20 -21
q-10 -12 -10 -20q0 -21 20 -21q70 2 162 78q92 70 137 119v0q43 -59 103 -127q28 -31 53 -53q22 -23 35 -23q26 0 26 29q0 16 -22 53q-23 39 -56 88q-30 49 -57 103q-27 51 -37 88h-49z" />
    <glyph glyph-name="mu" unicode="&#xf3;" 
d="M1321 543q-96 -109 -195 -109q-73 0 -114 51q-43 49 -84 113q-41 63 -113 113q-72 49 -201 51q-108 0 -215 -33q-106 -35 -196 -102q-88 -66 -142 -158q-57 -94 -57 -215q2 -154 109 -217q104 -62 243 -62q238 5 412 158q178 150 182 371h4q66 -92 172 -94q84 2 140 51
q28 22 47 41q18 16 24 24zM647 737q80 -2 82 -104q-4 -166 -135 -387q-62 -105 -137 -172q-37 -35 -74 -54q-37 -20 -76 -20q-82 2 -82 104q4 166 140 392q63 104 137 172q71 67 145 69v0zM1013 1149q-4 69 -78 72q-33 0 -43 -21q-14 -22 -25 -59q-8 -37 -34 -80
q-25 -43 -88 -86q-90 -53 -88 -70q0 -24 22 -24q21 0 74 26q51 25 110 66q62 41 107 88q41 47 43 88v0z" />
    <glyph glyph-name="yen" unicode="&#xf1;" 
d="M121 12q76 158 280 408q99 114 187 192t143 80q55 -2 55 -57q-2 -41 -36 -90l-91 -109q-51 -57 -90 -123q-41 -67 -41 -143q0 -86 49 -139q48 -54 136 -56q159 5 323 183q164 174 307 370l-18 11q-96 -136 -307 -365q-62 -61 -117 -102q-57 -43 -104 -43q-23 0 -35 16
t-12 35q0 49 45 110q38 64 90 132q55 71 94 141q39 71 41 137q0 84 -51 123q-52 39 -131 39q-74 -2 -150 -43q-78 -41 -151 -111q-148 -145 -258 -293l-5 4q136 213 283 418l-291 -12l-424 -725zM960 1057q-62 2 -152 39q-41 16 -82 28q-43 11 -78 11q-79 -5 -116 -70
q-19 -29 -27 -55q-10 -25 -10 -39q0 -6 6 -17q2 -12 14 -12q13 0 27 16q12 15 25 33q16 21 30 33q17 12 35 12q62 -2 145 -43q86 -41 168 -43q91 4 123 74q29 65 29 98q2 29 -21 29q-8 0 -14 -12q-8 -13 -18 -33q-8 -19 -27 -33q-20 -16 -57 -16v0z" />
    <glyph glyph-name="plusminus" unicode="&#xec;" horiz-adv-x="569" 
d="M270 729l-108 -182q-53 -86 -90 -158q-78 -139 -80 -231q2 -178 170 -183q96 2 178 52q82 49 174 145q188 207 289 362l-17 7q-73 -113 -233 -301q-76 -86 -152 -148q-77 -63 -141 -63q-49 2 -47 67q2 82 111 256l239 385zM242 1149q0 -41 48 -88q45 -47 104 -88
q61 -41 113 -66q26 -12 45 -18q18 -8 24 -8q23 0 23 24q2 17 -88 70q-60 43 -82 86q-27 43 -37 80t-23 59q-14 21 -49 21q-76 -3 -78 -72v0z" />
    <glyph glyph-name="greaterequal" unicode="&#xef;" horiz-adv-x="569" 
d="M270 729l-108 -182q-53 -86 -90 -158q-78 -139 -80 -231q2 -178 170 -183q96 2 178 52q82 49 174 145q188 207 289 362l-17 7q-73 -113 -233 -301q-76 -86 -152 -148q-77 -63 -141 -63q-49 2 -47 67q2 82 111 256l239 385zM710 1188q-43 -2 -75 -31q-33 -31 -33 -78
q0 -43 33 -76q32 -32 75 -32q47 0 78 32q29 33 31 76q-2 47 -31 78q-31 29 -78 31v0zM309 1188q-43 -2 -76 -31q-33 -31 -33 -78q0 -43 33 -76q33 -32 76 -32q47 0 78 32q28 33 31 76q-3 47 -31 78q-31 29 -78 31v0z" />
    <glyph glyph-name="lessequal" unicode="&#xee;" horiz-adv-x="569" 
d="M270 729l-108 -182q-53 -86 -90 -158q-78 -139 -80 -231q2 -178 170 -183q96 2 178 52q82 49 174 145q188 207 289 362l-17 7q-73 -113 -233 -301q-76 -86 -152 -148q-77 -63 -141 -63q-49 2 -47 67q2 82 111 256l239 385zM527 1225q-53 -86 -108 -142q-56 -57 -103 -94
q-45 -37 -74 -57l-20 -21q-10 -12 -10 -20q0 -21 20 -21q70 2 162 78q92 70 137 119v0q43 -59 103 -127q28 -31 53 -53q22 -23 35 -23q26 0 26 29q0 16 -22 53q-23 39 -56 88q-30 49 -57 103q-27 51 -37 88h-49z" />
    <glyph glyph-name="infinity" unicode="&#xed;" horiz-adv-x="569" 
d="M270 729l-108 -182q-53 -86 -90 -158q-78 -139 -80 -231q2 -178 170 -183q96 2 178 52q82 49 174 145q188 207 289 362l-17 7q-73 -113 -233 -301q-76 -86 -152 -148q-77 -63 -141 -63q-49 2 -47 67q2 82 111 256l239 385zM783 1149q-4 69 -78 72q-33 0 -43 -21
q-14 -22 -25 -59q-8 -37 -34 -80q-25 -43 -88 -86q-90 -53 -88 -70q0 -24 22 -24q21 0 74 26q51 25 110 66q62 41 107 88q41 47 43 88v0z" />
    <glyph glyph-name="notequal" unicode="&#xe8;" horiz-adv-x="872" 
d="M1096 539q-74 -111 -217 -254q-113 -107 -222 -176q-112 -72 -209 -72q-90 2 -129 61q-38 56 -36 133q0 41 8 82l153 39q95 25 193 60q49 18 92 43q41 22 72 49q65 53 67 123q-2 71 -61 104q-64 31 -164 31q-207 -4 -410 -156q-94 -74 -153 -170q-64 -96 -64 -205
q2 -254 289 -256q309 2 571 275q146 141 238 276zM664 680q0 -103 -97 -201q-96 -98 -272 -143v0q24 102 119 246q47 65 96 110t96 45q58 0 58 -57v0zM481 1149q0 -41 48 -88q45 -47 104 -88q61 -41 113 -66q26 -12 45 -18q18 -8 24 -8q23 0 23 24q2 17 -88 70
q-60 43 -82 86q-27 43 -37 80t-23 59q-14 21 -49 21q-76 -3 -78 -72v0z" />
    <glyph glyph-name="Oslash" unicode="&#xeb;" horiz-adv-x="872" 
d="M1096 539q-74 -111 -217 -254q-113 -107 -222 -176q-112 -72 -209 -72q-90 2 -129 61q-38 56 -36 133q0 41 8 82l153 39q95 25 193 60q49 18 92 43q41 22 72 49q65 53 67 123q-2 71 -61 104q-64 31 -164 31q-207 -4 -410 -156q-94 -74 -153 -170q-64 -96 -64 -205
q2 -254 289 -256q309 2 571 275q146 141 238 276zM664 680q0 -103 -97 -201q-96 -98 -272 -143v0q24 102 119 246q47 65 96 110t96 45q58 0 58 -57v0zM949 1188q-43 -2 -75 -31q-33 -31 -33 -78q0 -43 33 -76q32 -32 75 -32q47 0 78 32q29 33 31 76q-2 47 -31 78
q-31 29 -78 31v0zM548 1188q-43 -2 -76 -31q-33 -31 -33 -78q0 -43 33 -76q33 -32 76 -32q47 0 78 32q28 33 31 76q-3 47 -31 78q-31 29 -78 31v0z" />
    <glyph glyph-name="AE" unicode="&#xea;" horiz-adv-x="872" 
d="M1096 539q-74 -111 -217 -254q-113 -107 -222 -176q-112 -72 -209 -72q-90 2 -129 61q-38 56 -36 133q0 41 8 82l153 39q95 25 193 60q49 18 92 43q41 22 72 49q65 53 67 123q-2 71 -61 104q-64 31 -164 31q-207 -4 -410 -156q-94 -74 -153 -170q-64 -96 -64 -205
q2 -254 289 -256q309 2 571 275q146 141 238 276zM664 680q0 -103 -97 -201q-96 -98 -272 -143v0q24 102 119 246q47 65 96 110t96 45q58 0 58 -57v0zM766 1225q-53 -86 -108 -142q-56 -57 -103 -94q-45 -37 -74 -57l-20 -21q-10 -12 -10 -20q0 -21 20 -21q70 2 162 78
q92 70 137 119v0q43 -59 103 -127q28 -31 53 -53q22 -23 35 -23q26 0 26 29q0 16 -22 53q-23 39 -56 88q-30 49 -57 103q-27 51 -37 88h-49z" />
    <glyph glyph-name="dieresis" unicode="&#xe9;" horiz-adv-x="872" 
d="M1096 539q-74 -111 -217 -254q-113 -107 -222 -176q-112 -72 -209 -72q-90 2 -129 61q-38 56 -36 133q0 41 8 82l153 39q95 25 193 60q49 18 92 43q41 22 72 49q65 53 67 123q-2 71 -61 104q-64 31 -164 31q-207 -4 -410 -156q-94 -74 -153 -170q-64 -96 -64 -205
q2 -254 289 -256q309 2 571 275q146 141 238 276zM664 680q0 -103 -97 -201q-96 -98 -272 -143v0q24 102 119 246q47 65 96 110t96 45q58 0 58 -57v0zM1023 1149q-4 69 -78 72q-33 0 -43 -21q-14 -22 -25 -59q-8 -37 -34 -80q-25 -43 -88 -86q-90 -53 -88 -70q0 -24 22 -24
q21 0 74 26q51 25 110 66q62 41 107 88q41 47 43 88v0z" />
    <glyph glyph-name="acute" unicode="&#xe7;" horiz-adv-x="872" 
d="M1098 545q-90 -121 -240 -277q-104 -102 -205 -166q-102 -65 -194 -65q-86 0 -129 57q-47 53 -47 142q0 75 32 159q29 82 76 158t98 123q52 45 93 45q65 -2 63 -146q0 -79 -6 -118h16q97 0 160 43q66 43 68 127q-2 67 -62 102q-59 33 -160 33q-221 -2 -425 -154
q-97 -74 -156 -172q-64 -102 -64 -223q2 -123 93 -180q86 -58 200 -58q264 5 451 170q205 179 354 385zM207 -10l-59 -90q-47 -82 -45 -86q2 -15 14 -15q39 4 86 6q35 0 57 -14q21 -16 21 -45q-2 -88 -129 -90q-68 2 -115 18q-49 17 -78 17q-22 0 -22 -25q2 -18 31 -31
q28 -12 67 -22q84 -18 121 -18q121 2 182 47q62 43 62 108q-2 64 -41 94q-41 27 -103 27q-24 0 -51 -6l88 125h-86z" />
    <glyph glyph-name="copyright" unicode="&#xe3;" horiz-adv-x="1139" 
d="M860 729l-53 -106h-4q-10 59 -53 100q-43 39 -123 39q-281 -6 -449 -180q-172 -170 -174 -361q0 -248 199 -246q110 2 200 74q86 66 152 146l6 -5q0 -28 4 -63q2 -37 21 -72q16 -32 55 -55q37 -23 104 -25q80 2 158 50q78 45 154 122q151 162 313 379l-12 8
q-156 -208 -297 -354q-68 -67 -127 -108q-62 -43 -105 -43q-47 0 -47 59t47 148q45 88 107 184l215 317zM338 66q-39 0 -53 34q-15 33 -15 68q4 162 129 358q58 92 123 152q66 57 129 59q35 0 64 -22q26 -25 26 -72q0 -92 -45 -192q-45 -99 -112 -187q-66 -88 -133 -141
q-68 -57 -113 -57v0zM1023 1057q-62 2 -152 39q-41 16 -82 28q-43 11 -78 11q-79 -5 -116 -70q-19 -29 -27 -55q-10 -25 -10 -39q0 -6 6 -17q2 -12 14 -12q13 0 27 16q12 15 25 33q16 21 30 33q17 12 35 12q62 -2 145 -43q86 -41 168 -43q91 4 123 74q29 65 29 98
q2 29 -21 29q-8 0 -14 -12q-8 -13 -18 -33q-8 -19 -27 -33q-20 -16 -57 -16v0z" />
    <glyph glyph-name="trademark" unicode="&#xe5;" horiz-adv-x="1139" 
d="M860 729l-53 -106h-4q-10 59 -53 100q-43 39 -123 39q-281 -6 -449 -180q-172 -170 -174 -361q0 -248 199 -246q110 2 200 74q86 66 152 146l6 -5q0 -28 4 -63q2 -37 21 -72q16 -32 55 -55q37 -23 104 -25q80 2 158 50q78 45 154 122q151 162 313 379l-12 8
q-156 -208 -297 -354q-68 -67 -127 -108q-62 -43 -105 -43q-47 0 -47 59t47 148q45 88 107 184l215 317zM338 66q-39 0 -53 34q-15 33 -15 68q4 162 129 358q58 92 123 152q66 57 129 59q35 0 64 -22q26 -25 26 -72q0 -92 -45 -192q-45 -99 -112 -187q-66 -88 -133 -141
q-68 -57 -113 -57v0zM611 1018q0 -78 57 -115q52 -39 125 -39q101 0 187 68q84 63 86 168q-2 88 -58 123q-55 30 -118 30q-109 -2 -191 -65q-86 -66 -88 -170v0zM701 956q2 72 64 170q28 45 63 76q35 29 68 31q35 0 57 -15q23 -16 23 -53q-2 -82 -60 -176q-26 -43 -63 -72
q-37 -32 -82 -32q-70 0 -70 71v0z" />
    <glyph glyph-name="paragraph" unicode="&#xe0;" horiz-adv-x="1139" 
d="M860 729l-53 -106h-4q-10 59 -53 100q-43 39 -123 39q-281 -6 -449 -180q-172 -170 -174 -361q0 -248 199 -246q110 2 200 74q86 66 152 146l6 -5q0 -28 4 -63q2 -37 21 -72q16 -32 55 -55q37 -23 104 -25q80 2 158 50q78 45 154 122q151 162 313 379l-12 8
q-156 -208 -297 -354q-68 -67 -127 -108q-62 -43 -105 -43q-47 0 -47 59t47 148q45 88 107 184l215 317zM338 66q-39 0 -53 34q-15 33 -15 68q4 162 129 358q58 92 123 152q66 57 129 59q35 0 64 -22q26 -25 26 -72q0 -92 -45 -192q-45 -99 -112 -187q-66 -88 -133 -141
q-68 -57 -113 -57v0zM580 1149q0 -41 48 -88q45 -47 104 -88q61 -41 113 -66q26 -12 45 -18q18 -8 24 -8q23 0 23 24q2 17 -88 70q-60 43 -82 86q-27 43 -37 80t-23 59q-14 21 -49 21q-76 -3 -78 -72v0z" />
    <glyph glyph-name="registered" unicode="&#xe4;" horiz-adv-x="1139" 
d="M860 729l-53 -106h-4q-10 59 -53 100q-43 39 -123 39q-281 -6 -449 -180q-172 -170 -174 -361q0 -248 199 -246q110 2 200 74q86 66 152 146l6 -5q0 -28 4 -63q2 -37 21 -72q16 -32 55 -55q37 -23 104 -25q80 2 158 50q78 45 154 122q151 162 313 379l-12 8
q-156 -208 -297 -354q-68 -67 -127 -108q-62 -43 -105 -43q-47 0 -47 59t47 148q45 88 107 184l215 317zM338 66q-39 0 -53 34q-15 33 -15 68q4 162 129 358q58 92 123 152q66 57 129 59q35 0 64 -22q26 -25 26 -72q0 -92 -45 -192q-45 -99 -112 -187q-66 -88 -133 -141
q-68 -57 -113 -57v0zM1048 1188q-43 -2 -75 -31q-33 -31 -33 -78q0 -43 33 -76q32 -32 75 -32q47 0 78 32q29 33 31 76q-2 47 -31 78q-31 29 -78 31v0zM647 1188q-43 -2 -76 -31q-33 -31 -33 -78q0 -43 33 -76q33 -32 76 -32q47 0 78 32q28 33 31 76q-3 47 -31 78
q-31 29 -78 31v0z" />
    <glyph glyph-name="germandbls" unicode="&#xe2;" horiz-adv-x="1139" 
d="M860 729l-53 -106h-4q-10 59 -53 100q-43 39 -123 39q-281 -6 -449 -180q-172 -170 -174 -361q0 -248 199 -246q110 2 200 74q86 66 152 146l6 -5q0 -28 4 -63q2 -37 21 -72q16 -32 55 -55q37 -23 104 -25q80 2 158 50q78 45 154 122q151 162 313 379l-12 8
q-156 -208 -297 -354q-68 -67 -127 -108q-62 -43 -105 -43q-47 0 -47 59t47 148q45 88 107 184l215 317zM338 66q-39 0 -53 34q-15 33 -15 68q4 162 129 358q58 92 123 152q66 57 129 59q35 0 64 -22q26 -25 26 -72q0 -92 -45 -192q-45 -99 -112 -187q-66 -88 -133 -141
q-68 -57 -113 -57v0zM865 1225q-53 -86 -108 -142q-56 -57 -103 -94q-45 -37 -74 -57l-20 -21q-10 -12 -10 -20q0 -21 20 -21q70 2 162 78q92 70 137 119v0q43 -59 103 -127q28 -31 53 -53q22 -23 35 -23q26 0 26 29q0 16 -22 53q-23 39 -56 88q-30 49 -57 103
q-27 51 -37 88h-49z" />
    <glyph glyph-name="bullet" unicode="&#xe1;" horiz-adv-x="1139" 
d="M860 729l-53 -106h-4q-10 59 -53 100q-43 39 -123 39q-281 -6 -449 -180q-172 -170 -174 -361q0 -248 199 -246q110 2 200 74q86 66 152 146l6 -5q0 -28 4 -63q2 -37 21 -72q16 -32 55 -55q37 -23 104 -25q80 2 158 50q78 45 154 122q151 162 313 379l-12 8
q-156 -208 -297 -354q-68 -67 -127 -108q-62 -43 -105 -43q-47 0 -47 59t47 148q45 88 107 184l215 317zM338 66q-39 0 -53 34q-15 33 -15 68q4 162 129 358q58 92 123 152q66 57 129 59q35 0 64 -22q26 -25 26 -72q0 -92 -45 -192q-45 -99 -112 -187q-66 -88 -133 -141
q-68 -57 -113 -57v0zM1122 1149q-4 69 -78 72q-33 0 -43 -21q-14 -22 -25 -59q-8 -37 -34 -80q-25 -43 -88 -86q-90 -53 -88 -70q0 -24 22 -24q21 0 74 26q51 25 110 66q62 41 107 88q41 47 43 88v0z" />
    <glyph glyph-name="tilde" unicode="&#x178;" horiz-adv-x="1745" 
d="M1919 1393l-447 -719q-176 -279 -366 -453q-193 -178 -326 -180q-76 0 -76 78q0 61 43 145q41 84 99 178q125 195 196 297q78 109 158 244q39 66 64 131q22 61 22 121q-2 133 -88 190q-86 54 -215 54q-244 -5 -436 -172q-94 -78 -148 -175q-59 -100 -59 -202
q0 -193 184 -193q62 0 113 27q49 24 86 61q37 39 65 80q25 39 37 68l-16 6q-37 -76 -92 -131q-58 -58 -144 -58q-57 0 -86 48q-28 45 -28 112q0 111 49 203q45 90 115 156q147 135 282 137q80 -2 117 -41q35 -41 35 -98q-2 -109 -92 -256q-89 -150 -207 -312l-107 -157
q-53 -80 -96 -156q-43 -74 -68 -141q-28 -68 -28 -127q0 -78 45 -125q45 -51 137 -53q213 4 371 133q155 123 276 268l4 -4q-254 -400 -471 -686q-112 -137 -229 -217q-119 -82 -256 -84q-96 2 -160 69q-65 66 -65 189q0 102 57 172q53 69 135 69q55 0 102 -20l5 18
q-107 43 -222 43q-116 0 -215 -65q-104 -68 -108 -199q2 -151 137 -225q131 -74 334 -76q227 -2 475 129q246 127 440 406l977 1505zM1898 1862q-43 -2 -75 -31q-33 -31 -33 -78q0 -43 33 -76q32 -32 75 -32q47 0 78 32q29 33 31 76q-2 47 -31 78q-31 29 -78 31v0z
M1497 1862q-43 -2 -76 -31q-33 -31 -33 -78q0 -43 33 -76q33 -32 76 -32q47 0 78 32q28 33 31 76q-3 47 -31 78q-31 29 -78 31v0z" />
    <glyph glyph-name="glyph202" unicode="&#xdd;" horiz-adv-x="1745" 
d="M1919 1393l-447 -719q-176 -279 -366 -453q-193 -178 -326 -180q-76 0 -76 78q0 61 43 145q41 84 99 178q125 195 196 297q78 109 158 244q39 66 64 131q22 61 22 121q-2 133 -88 190q-86 54 -215 54q-244 -5 -436 -172q-94 -78 -148 -175q-59 -100 -59 -202
q0 -193 184 -193q62 0 113 27q49 24 86 61q37 39 65 80q25 39 37 68l-16 6q-37 -76 -92 -131q-58 -58 -144 -58q-57 0 -86 48q-28 45 -28 112q0 111 49 203q45 90 115 156q147 135 282 137q80 -2 117 -41q35 -41 35 -98q-2 -109 -92 -256q-89 -150 -207 -312l-107 -157
q-53 -80 -96 -156q-43 -74 -68 -141q-28 -68 -28 -127q0 -78 45 -125q45 -51 137 -53q213 4 371 133q155 123 276 268l4 -4q-254 -400 -471 -686q-112 -137 -229 -217q-119 -82 -256 -84q-96 2 -160 69q-65 66 -65 189q0 102 57 172q53 69 135 69q55 0 102 -20l5 18
q-107 43 -222 43q-116 0 -215 -65q-104 -68 -108 -199q2 -151 137 -225q131 -74 334 -76q227 -2 475 129q246 127 440 406l977 1505zM1930 1823q-4 69 -78 72q-33 0 -43 -21q-14 -22 -25 -59q-8 -37 -34 -80q-25 -43 -88 -86q-90 -53 -88 -70q0 -24 22 -24q21 0 74 26
q51 25 110 66q62 41 107 88q41 47 43 88v0z" />
    <glyph glyph-name="onehalf" unicode="&#xd9;" horiz-adv-x="1933" 
d="M1880 1405q-113 -209 -346 -569q-232 -361 -379 -523q-272 -270 -408 -268q-75 2 -75 94q2 84 92 228l198 311q113 166 199 317q86 152 88 246q-2 123 -84 180q-82 58 -223 58q-223 -2 -424 -154q-96 -72 -156 -170q-63 -98 -63 -213q0 -88 47 -141q45 -60 137 -60
q103 0 172 56q66 51 111 129q18 30 27 55l-19 4q-29 -63 -84 -123q-26 -29 -61 -47q-37 -20 -76 -20q-78 0 -105 53q-28 49 -26 119q2 178 139 325q131 150 315 154q132 -2 136 -131q-2 -115 -88 -260q-86 -146 -199 -305q-111 -158 -199 -308q-90 -149 -92 -272
q2 -184 180 -186q197 4 353 122q153 115 274 261l4 -5q-59 -96 -61 -206q0 -90 57 -146q53 -57 154 -59q120 2 231 59q109 58 207 146q194 186 340 372l-15 15q-98 -131 -305 -338q-96 -90 -194 -144q-96 -57 -164 -57q-74 -2 -74 88q2 86 103 268q96 181 229 396l430 661z
M1419 1823q0 -41 48 -88q45 -47 104 -88q61 -41 113 -66q26 -12 45 -18q18 -8 24 -8q23 0 23 24q2 17 -88 70q-60 43 -82 86q-27 43 -37 80t-23 59q-14 21 -49 21q-76 -3 -78 -72v0z" />
    <glyph glyph-name="section" unicode="&#xdc;" horiz-adv-x="1933" 
d="M1880 1405q-113 -209 -346 -569q-232 -361 -379 -523q-272 -270 -408 -268q-75 2 -75 94q2 84 92 228l198 311q113 166 199 317q86 152 88 246q-2 123 -84 180q-82 58 -223 58q-223 -2 -424 -154q-96 -72 -156 -170q-63 -98 -63 -213q0 -88 47 -141q45 -60 137 -60
q103 0 172 56q66 51 111 129q18 30 27 55l-19 4q-29 -63 -84 -123q-26 -29 -61 -47q-37 -20 -76 -20q-78 0 -105 53q-28 49 -26 119q2 178 139 325q131 150 315 154q132 -2 136 -131q-2 -115 -88 -260q-86 -146 -199 -305q-111 -158 -199 -308q-90 -149 -92 -272
q2 -184 180 -186q197 4 353 122q153 115 274 261l4 -5q-59 -96 -61 -206q0 -90 57 -146q53 -57 154 -59q120 2 231 59q109 58 207 146q194 186 340 372l-15 15q-98 -131 -305 -338q-96 -90 -194 -144q-96 -57 -164 -57q-74 -2 -74 88q2 86 103 268q96 181 229 396l430 661z
M1887 1862q-43 -2 -75 -31q-33 -31 -33 -78q0 -43 33 -76q32 -32 75 -32q47 0 78 32q29 33 31 76q-2 47 -31 78q-31 29 -78 31v0zM1486 1862q-43 -2 -76 -31q-33 -31 -33 -78q0 -43 33 -76q33 -32 76 -32q47 0 78 32q28 33 31 76q-3 47 -31 78q-31 29 -78 31v0z" />
    <glyph glyph-name="threesuperior" unicode="&#xdb;" horiz-adv-x="1933" 
d="M1880 1405q-113 -209 -346 -569q-232 -361 -379 -523q-272 -270 -408 -268q-75 2 -75 94q2 84 92 228l198 311q113 166 199 317q86 152 88 246q-2 123 -84 180q-82 58 -223 58q-223 -2 -424 -154q-96 -72 -156 -170q-63 -98 -63 -213q0 -88 47 -141q45 -60 137 -60
q103 0 172 56q66 51 111 129q18 30 27 55l-19 4q-29 -63 -84 -123q-26 -29 -61 -47q-37 -20 -76 -20q-78 0 -105 53q-28 49 -26 119q2 178 139 325q131 150 315 154q132 -2 136 -131q-2 -115 -88 -260q-86 -146 -199 -305q-111 -158 -199 -308q-90 -149 -92 -272
q2 -184 180 -186q197 4 353 122q153 115 274 261l4 -5q-59 -96 -61 -206q0 -90 57 -146q53 -57 154 -59q120 2 231 59q109 58 207 146q194 186 340 372l-15 15q-98 -131 -305 -338q-96 -90 -194 -144q-96 -57 -164 -57q-74 -2 -74 88q2 86 103 268q96 181 229 396l430 661z
M1706 1899q-53 -86 -108 -142q-56 -57 -103 -94q-45 -37 -74 -57l-20 -21q-10 -12 -10 -20q0 -21 20 -21q70 2 162 78q92 70 137 119v0q43 -59 103 -127q28 -31 53 -53q22 -23 35 -23q26 0 26 29q0 16 -22 53q-23 39 -56 88q-30 49 -57 103q-27 51 -37 88h-49z" />
    <glyph glyph-name="twosuperior" unicode="&#xda;" horiz-adv-x="1933" 
d="M1880 1405q-113 -209 -346 -569q-232 -361 -379 -523q-272 -270 -408 -268q-75 2 -75 94q2 84 92 228l198 311q113 166 199 317q86 152 88 246q-2 123 -84 180q-82 58 -223 58q-223 -2 -424 -154q-96 -72 -156 -170q-63 -98 -63 -213q0 -88 47 -141q45 -60 137 -60
q103 0 172 56q66 51 111 129q18 30 27 55l-19 4q-29 -63 -84 -123q-26 -29 -61 -47q-37 -20 -76 -20q-78 0 -105 53q-28 49 -26 119q2 178 139 325q131 150 315 154q132 -2 136 -131q-2 -115 -88 -260q-86 -146 -199 -305q-111 -158 -199 -308q-90 -149 -92 -272
q2 -184 180 -186q197 4 353 122q153 115 274 261l4 -5q-59 -96 -61 -206q0 -90 57 -146q53 -57 154 -59q120 2 231 59q109 58 207 146q194 186 340 372l-15 15q-98 -131 -305 -338q-96 -90 -194 -144q-96 -57 -164 -57q-74 -2 -74 88q2 86 103 268q96 181 229 396l430 661z
M1963 1823q-4 69 -78 72q-33 0 -43 -21q-14 -22 -25 -59q-8 -37 -34 -80q-25 -43 -88 -86q-90 -53 -88 -70q0 -24 22 -24q21 0 74 26q51 25 110 66q62 41 107 88q41 47 43 88v0z" />
    <glyph glyph-name="glyph207" unicode="&#x160;" horiz-adv-x="1442" 
d="M1706 1259q-2 -131 -103 -215q54 0 113 9q59 8 111 28q53 21 84 64q32 39 32 102q-4 127 -102 180q-98 52 -215 52q-319 -5 -461 -209q-143 -205 -141 -506q0 -125 -14 -256q-17 -133 -64 -250q-47 -115 -141 -188q-94 -72 -254 -78q-150 2 -227 82q-78 80 -78 164
q-2 34 8 73q59 4 90 43q29 35 29 92q-2 58 -37 93q-37 34 -96 34q-88 -2 -129 -75q-21 -33 -31 -74t-10 -82q4 -182 149 -279q143 -96 340 -96q725 13 731 740q-2 315 51 524q31 102 80 157q49 58 125 58q84 -2 123 -53q37 -54 37 -134v0zM1647 1538q58 90 113 148
q55 57 102 92l74 57q27 23 27 37q0 18 -21 20q-67 -4 -160 -75q-90 -72 -139 -121v0q-41 61 -100 129q-27 31 -49 53q-25 21 -41 21q-27 -2 -27 -29q0 -12 27 -51q22 -41 53 -90q33 -50 59 -101q27 -49 33 -90h49z" />
    <glyph glyph-name="Icircumflex" unicode="&#xd5;" horiz-adv-x="1593" 
d="M1812 539q-61 -45 -141 -84q-82 -41 -221 -43q-45 0 -94 14q116 141 192 330q76 186 78 368q-2 164 -72 258q-69 95 -184 97q-84 0 -139 -29q-58 -29 -103 -70q-348 -49 -637 -340q-137 -141 -219 -309q-88 -170 -88 -346q0 -180 99 -295q96 -121 282 -123q238 4 436 135
q199 127 338 299q49 -14 103 -14q229 2 376 133zM471 344q4 354 203 651q90 144 202 238q111 94 226 119l4 -5q-162 -153 -168 -442q0 -164 84 -274q78 -113 209 -183q-80 -143 -211 -276q-64 -61 -141 -100q-76 -43 -160 -43q-129 2 -187 102q-61 94 -61 213v0zM1040 958
q-2 246 107 398q78 -2 121 -43q41 -43 41 -115q0 -61 -52 -166l23 -8q22 45 39 88q14 41 14 92q-4 162 -170 176q45 43 107 45q63 0 100 -69q35 -72 35 -191q-4 -362 -164 -692v0q-94 57 -147 186q-54 129 -54 299v0zM1544 1731q-62 2 -152 39q-41 16 -82 28q-43 11 -78 11
q-79 -5 -116 -70q-19 -29 -27 -55q-10 -25 -10 -39q0 -6 6 -17q2 -12 14 -12q13 0 27 16q12 15 25 33q16 21 30 33q17 12 35 12q62 -2 145 -43q86 -41 168 -43q91 4 123 74q29 65 29 98q2 29 -21 29q-8 0 -14 -12q-8 -13 -18 -33q-8 -19 -27 -33q-20 -16 -57 -16v0z" />
    <glyph glyph-name="onesuperior" unicode="&#xd2;" horiz-adv-x="1593" 
d="M1812 539q-61 -45 -141 -84q-82 -41 -221 -43q-45 0 -94 14q116 141 192 330q76 186 78 368q-2 164 -72 258q-69 95 -184 97q-84 0 -139 -29q-58 -29 -103 -70q-348 -49 -637 -340q-137 -141 -219 -309q-88 -170 -88 -346q0 -180 99 -295q96 -121 282 -123q238 4 436 135
q199 127 338 299q49 -14 103 -14q229 2 376 133zM471 344q4 354 203 651q90 144 202 238q111 94 226 119l4 -5q-162 -153 -168 -442q0 -164 84 -274q78 -113 209 -183q-80 -143 -211 -276q-64 -61 -141 -100q-76 -43 -160 -43q-129 2 -187 102q-61 94 -61 213v0zM1040 958
q-2 246 107 398q78 -2 121 -43q41 -43 41 -115q0 -61 -52 -166l23 -8q22 45 39 88q14 41 14 92q-4 162 -170 176q45 43 107 45q63 0 100 -69q35 -72 35 -191q-4 -362 -164 -692v0q-94 57 -147 186q-54 129 -54 299v0zM1103 1823q0 -41 48 -88q45 -47 104 -88q61 -41 113 -66
q26 -12 45 -18q18 -8 24 -8q23 0 23 24q2 17 -88 70q-60 43 -82 86q-27 43 -37 80t-23 59q-14 21 -49 21q-76 -3 -78 -72v0z" />
    <glyph glyph-name="sterling" unicode="&#xd6;" horiz-adv-x="1593" 
d="M1812 539q-61 -45 -141 -84q-82 -41 -221 -43q-45 0 -94 14q116 141 192 330q76 186 78 368q-2 164 -72 258q-69 95 -184 97q-84 0 -139 -29q-58 -29 -103 -70q-348 -49 -637 -340q-137 -141 -219 -309q-88 -170 -88 -346q0 -180 99 -295q96 -121 282 -123q238 4 436 135
q199 127 338 299q49 -14 103 -14q229 2 376 133zM471 344q4 354 203 651q90 144 202 238q111 94 226 119l4 -5q-162 -153 -168 -442q0 -164 84 -274q78 -113 209 -183q-80 -143 -211 -276q-64 -61 -141 -100q-76 -43 -160 -43q-129 2 -187 102q-61 94 -61 213v0zM1040 958
q-2 246 107 398q78 -2 121 -43q41 -43 41 -115q0 -61 -52 -166l23 -8q22 45 39 88q14 41 14 92q-4 162 -170 176q45 43 107 45q63 0 100 -69q35 -72 35 -191q-4 -362 -164 -692v0q-94 57 -147 186q-54 129 -54 299v0zM1571 1862q-43 -2 -75 -31q-33 -31 -33 -78
q0 -43 33 -76q32 -32 75 -32q47 0 78 32q29 33 31 76q-2 47 -31 78q-31 29 -78 31v0zM1170 1862q-43 -2 -76 -31q-33 -31 -33 -78q0 -43 33 -76q33 -32 76 -32q47 0 78 32q28 33 31 76q-3 47 -31 78q-31 29 -78 31v0z" />
    <glyph glyph-name="minus" unicode="&#xd4;" horiz-adv-x="1593" 
d="M1812 539q-61 -45 -141 -84q-82 -41 -221 -43q-45 0 -94 14q116 141 192 330q76 186 78 368q-2 164 -72 258q-69 95 -184 97q-84 0 -139 -29q-58 -29 -103 -70q-348 -49 -637 -340q-137 -141 -219 -309q-88 -170 -88 -346q0 -180 99 -295q96 -121 282 -123q238 4 436 135
q199 127 338 299q49 -14 103 -14q229 2 376 133zM471 344q4 354 203 651q90 144 202 238q111 94 226 119l4 -5q-162 -153 -168 -442q0 -164 84 -274q78 -113 209 -183q-80 -143 -211 -276q-64 -61 -141 -100q-76 -43 -160 -43q-129 2 -187 102q-61 94 -61 213v0zM1040 958
q-2 246 107 398q78 -2 121 -43q41 -43 41 -115q0 -61 -52 -166l23 -8q22 45 39 88q14 41 14 92q-4 162 -170 176q45 43 107 45q63 0 100 -69q35 -72 35 -191q-4 -362 -164 -692v0q-94 57 -147 186q-54 129 -54 299v0zM1388 1899q-53 -86 -108 -142q-56 -57 -103 -94
q-45 -37 -74 -57l-20 -21q-10 -12 -10 -20q0 -21 20 -21q70 2 162 78q92 70 137 119v0q43 -59 103 -127q28 -31 53 -53q22 -23 35 -23q26 0 26 29q0 16 -22 53q-23 39 -56 88q-30 49 -57 103q-27 51 -37 88h-49z" />
    <glyph glyph-name="thorn" unicode="&#xd3;" horiz-adv-x="1593" 
d="M1812 539q-61 -45 -141 -84q-82 -41 -221 -43q-45 0 -94 14q116 141 192 330q76 186 78 368q-2 164 -72 258q-69 95 -184 97q-84 0 -139 -29q-58 -29 -103 -70q-348 -49 -637 -340q-137 -141 -219 -309q-88 -170 -88 -346q0 -180 99 -295q96 -121 282 -123q238 4 436 135
q199 127 338 299q49 -14 103 -14q229 2 376 133zM471 344q4 354 203 651q90 144 202 238q111 94 226 119l4 -5q-162 -153 -168 -442q0 -164 84 -274q78 -113 209 -183q-80 -143 -211 -276q-64 -61 -141 -100q-76 -43 -160 -43q-129 2 -187 102q-61 94 -61 213v0zM1040 958
q-2 246 107 398q78 -2 121 -43q41 -43 41 -115q0 -61 -52 -166l23 -8q22 45 39 88q14 41 14 92q-4 162 -170 176q45 43 107 45q63 0 100 -69q35 -72 35 -191q-4 -362 -164 -692v0q-94 57 -147 186q-54 129 -54 299v0zM1644 1823q-4 69 -78 72q-33 0 -43 -21q-14 -22 -25 -59
q-8 -37 -34 -80q-25 -43 -88 -86q-90 -53 -88 -70q0 -24 22 -24q21 0 74 26q51 25 110 66q62 41 107 88q41 47 43 88v0z" />
    <glyph glyph-name="cent" unicode="&#xd1;" horiz-adv-x="1857" 
d="M1364 -53q86 266 356 790q131 238 279 408q147 170 293 174q157 0 161 -154q0 -57 -39 -98q-36 -43 -100 -59l10 -15q113 19 199 94q88 76 90 189q-2 102 -61 147q-62 39 -144 39q-141 -2 -280 -129q-140 -125 -262 -305q-250 -393 -342 -627h-4q-9 234 -87 453
q-34 108 -61 213q-29 102 -29 197q2 124 84 231q-172 -2 -247 -98q-76 -95 -74 -252q0 -27 4 -53l-156 -314q-92 -178 -204 -352q-115 -170 -256 -283q-142 -116 -314 -118q-164 2 -176 118q107 13 107 121q0 53 -33 86q-33 31 -86 31q-70 -2 -107 -49q-37 -49 -37 -119
q3 -92 74 -158q72 -69 203 -71q199 2 352 116q154 109 268 277q119 170 209 346l158 313l4 -6q49 -244 131 -465q84 -221 88 -454q0 -84 -4 -164h33zM2058 1731q-62 2 -152 39q-41 16 -82 28q-43 11 -78 11q-79 -5 -116 -70q-19 -29 -27 -55q-10 -25 -10 -39q0 -6 6 -17
q2 -12 14 -12q13 0 27 16q12 15 25 33q16 21 30 33q17 12 35 12q62 -2 145 -43q86 -41 168 -43q91 4 123 74q29 65 29 98q2 29 -21 29q-8 0 -14 -12q-8 -13 -18 -33q-8 -19 -27 -33q-20 -16 -57 -16v0z" />
    <glyph glyph-name="Thorn" unicode="&#xcc;" horiz-adv-x="1479" 
d="M979 1020q45 -62 45 -146q-2 -90 -82 -170q-82 -84 -190 -86q-86 2 -138 62q-53 57 -53 143q2 178 141 293q136 113 349 176q450 113 917 109l2 -4q-321 -88 -516 -246t-350 -453q-51 -100 -119 -219q-68 -121 -158 -231q-88 -111 -204 -180q-115 -74 -263 -76
q-104 0 -170 49q-65 49 -75 143q73 25 77 105q0 53 -26 92q-27 39 -88 41q-68 0 -113 -41q-45 -43 -47 -119q2 -133 129 -213q125 -80 313 -82q613 -14 1020 715q170 338 342 526q170 187 334 189q25 0 66 -4q38 -9 100 -9q41 0 67 13q27 10 27 30q0 29 -24 41
q-25 11 -64 11q-65 -2 -158 -25q-94 -27 -288 -29q-90 0 -318 -8q-227 -12 -485 -70q-258 -53 -442 -176q-193 -122 -197 -346q0 -123 82 -198q80 -82 201 -82q141 0 280 88q66 43 107 104q39 62 39 142q-3 86 -52 151zM1607 1823q0 -41 48 -88q45 -47 104 -88
q61 -41 113 -66q26 -12 45 -18q18 -8 24 -8q23 0 23 24q2 17 -88 70q-60 43 -82 86q-27 43 -37 80t-23 59q-14 21 -49 21q-76 -3 -78 -72v0z" />
    <glyph glyph-name="yacute" unicode="&#xcf;" horiz-adv-x="1479" 
d="M979 1020q45 -62 45 -146q-2 -90 -82 -170q-82 -84 -190 -86q-86 2 -138 62q-53 57 -53 143q2 178 141 293q136 113 349 176q450 113 917 109l2 -4q-321 -88 -516 -246t-350 -453q-51 -100 -119 -219q-68 -121 -158 -231q-88 -111 -204 -180q-115 -74 -263 -76
q-104 0 -170 49q-65 49 -75 143q73 25 77 105q0 53 -26 92q-27 39 -88 41q-68 0 -113 -41q-45 -43 -47 -119q2 -133 129 -213q125 -80 313 -82q613 -14 1020 715q170 338 342 526q170 187 334 189q25 0 66 -4q38 -9 100 -9q41 0 67 13q27 10 27 30q0 29 -24 41
q-25 11 -64 11q-65 -2 -158 -25q-94 -27 -288 -29q-90 0 -318 -8q-227 -12 -485 -70q-258 -53 -442 -176q-193 -122 -197 -346q0 -123 82 -198q80 -82 201 -82q141 0 280 88q66 43 107 104q39 62 39 142q-3 86 -52 151zM2074 1862q-43 -2 -75 -31q-33 -31 -33 -78
q0 -43 33 -76q32 -32 75 -32q47 0 78 32q29 33 31 76q-2 47 -31 78q-31 29 -78 31v0zM1673 1862q-43 -2 -76 -31q-33 -31 -33 -78q0 -43 33 -76q33 -32 76 -32q47 0 78 32q28 33 31 76q-3 47 -31 78q-31 29 -78 31v0z" />
    <glyph glyph-name="Yacute" unicode="&#xce;" horiz-adv-x="1479" 
d="M979 1020q45 -62 45 -146q-2 -90 -82 -170q-82 -84 -190 -86q-86 2 -138 62q-53 57 -53 143q2 178 141 293q136 113 349 176q450 113 917 109l2 -4q-321 -88 -516 -246t-350 -453q-51 -100 -119 -219q-68 -121 -158 -231q-88 -111 -204 -180q-115 -74 -263 -76
q-104 0 -170 49q-65 49 -75 143q73 25 77 105q0 53 -26 92q-27 39 -88 41q-68 0 -113 -41q-45 -43 -47 -119q2 -133 129 -213q125 -80 313 -82q613 -14 1020 715q170 338 342 526q170 187 334 189q25 0 66 -4q38 -9 100 -9q41 0 67 13q27 10 27 30q0 29 -24 41
q-25 11 -64 11q-65 -2 -158 -25q-94 -27 -288 -29q-90 0 -318 -8q-227 -12 -485 -70q-258 -53 -442 -176q-193 -122 -197 -346q0 -123 82 -198q80 -82 201 -82q141 0 280 88q66 43 107 104q39 62 39 142q-3 86 -52 151zM1893 1899q-53 -86 -108 -142q-56 -57 -103 -94
q-45 -37 -74 -57l-20 -21q-10 -12 -10 -20q0 -21 20 -21q70 2 162 78q92 70 137 119v0q43 -59 103 -127q28 -31 53 -53q22 -23 35 -23q26 0 26 29q0 16 -22 53q-23 39 -56 88q-30 49 -57 103q-27 51 -37 88h-49z" />
    <glyph glyph-name="eth" unicode="&#xcd;" horiz-adv-x="1479" 
d="M979 1020q45 -62 45 -146q-2 -90 -82 -170q-82 -84 -190 -86q-86 2 -138 62q-53 57 -53 143q2 178 141 293q136 113 349 176q450 113 917 109l2 -4q-321 -88 -516 -246t-350 -453q-51 -100 -119 -219q-68 -121 -158 -231q-88 -111 -204 -180q-115 -74 -263 -76
q-104 0 -170 49q-65 49 -75 143q73 25 77 105q0 53 -26 92q-27 39 -88 41q-68 0 -113 -41q-45 -43 -47 -119q2 -133 129 -213q125 -80 313 -82q613 -14 1020 715q170 338 342 526q170 187 334 189q25 0 66 -4q38 -9 100 -9q41 0 67 13q27 10 27 30q0 29 -24 41
q-25 11 -64 11q-65 -2 -158 -25q-94 -27 -288 -29q-90 0 -318 -8q-227 -12 -485 -70q-258 -53 -442 -176q-193 -122 -197 -346q0 -123 82 -198q80 -82 201 -82q141 0 280 88q66 43 107 104q39 62 39 142q-3 86 -52 151zM2148 1823q-4 69 -78 72q-33 0 -43 -21
q-14 -22 -25 -59q-8 -37 -34 -80q-25 -43 -88 -86q-90 -53 -88 -70q0 -24 22 -24q21 0 74 26q51 25 110 66q62 41 107 88q41 47 43 88v0z" />
    <glyph glyph-name="Eth" unicode="&#xc8;" horiz-adv-x="1442" 
d="M942 973q72 -29 147 -29q140 0 271 70q63 37 100 92q39 53 39 129q-4 139 -100 192q-95 52 -215 52q-123 0 -271 -62q-149 -65 -252 -215q-32 -53 -49 -127q-16 -72 -28 -145q-11 -72 -25 -125q-14 -58 -41 -78q-47 -29 -115 -61q-69 -33 -139 -78q-69 -45 -115 -113
q-51 -70 -51 -170q0 -94 49 -158q48 -67 119 -106q72 -39 156 -55q82 -19 155 -19q293 4 527 148q112 67 178 153q63 84 65 180q0 107 -69 172q-70 64 -217 66q-144 -2 -262 -96q-119 -94 -183 -209l21 -8q18 32 49 73q29 39 66 74q41 37 86 62q43 22 96 22q98 -2 147 -70
q45 -67 45 -159q0 -58 -20 -117q-21 -63 -70 -117q-45 -53 -123 -84q-77 -37 -188 -37q-145 0 -244 99q-102 94 -104 264q2 147 71 233q68 84 156 138l88 53q41 24 76 49q72 47 84 119q35 237 92 358q59 121 178 121q94 -2 139 -72q41 -71 41 -161q0 -89 -49 -168
q-53 -82 -178 -84q-63 0 -129 20zM1027 1823q0 -41 48 -88q45 -47 104 -88q61 -41 113 -66q26 -12 45 -18q18 -8 24 -8q23 0 23 24q2 17 -88 70q-60 43 -82 86q-27 43 -37 80t-23 59q-14 21 -49 21q-76 -3 -78 -72v0z" />
    <glyph glyph-name="brokenbar" unicode="&#xcb;" horiz-adv-x="1442" 
d="M942 973q72 -29 147 -29q140 0 271 70q63 37 100 92q39 53 39 129q-4 139 -100 192q-95 52 -215 52q-123 0 -271 -62q-149 -65 -252 -215q-32 -53 -49 -127q-16 -72 -28 -145q-11 -72 -25 -125q-14 -58 -41 -78q-47 -29 -115 -61q-69 -33 -139 -78q-69 -45 -115 -113
q-51 -70 -51 -170q0 -94 49 -158q48 -67 119 -106q72 -39 156 -55q82 -19 155 -19q293 4 527 148q112 67 178 153q63 84 65 180q0 107 -69 172q-70 64 -217 66q-144 -2 -262 -96q-119 -94 -183 -209l21 -8q18 32 49 73q29 39 66 74q41 37 86 62q43 22 96 22q98 -2 147 -70
q45 -67 45 -159q0 -58 -20 -117q-21 -63 -70 -117q-45 -53 -123 -84q-77 -37 -188 -37q-145 0 -244 99q-102 94 -104 264q2 147 71 233q68 84 156 138l88 53q41 24 76 49q72 47 84 119q35 237 92 358q59 121 178 121q94 -2 139 -72q41 -71 41 -161q0 -89 -49 -168
q-53 -82 -178 -84q-63 0 -129 20zM1495 1862q-43 -2 -75 -31q-33 -31 -33 -78q0 -43 33 -76q32 -32 75 -32q47 0 78 32q29 33 31 76q-2 47 -31 78q-31 29 -78 31v0zM1094 1862q-43 -2 -76 -31q-33 -31 -33 -78q0 -43 33 -76q33 -32 76 -32q47 0 78 32q28 33 31 76
q-3 47 -31 78q-31 29 -78 31v0z" />
    <glyph glyph-name="Zcaron" unicode="&#xca;" horiz-adv-x="1442" 
d="M942 973q72 -29 147 -29q140 0 271 70q63 37 100 92q39 53 39 129q-4 139 -100 192q-95 52 -215 52q-123 0 -271 -62q-149 -65 -252 -215q-32 -53 -49 -127q-16 -72 -28 -145q-11 -72 -25 -125q-14 -58 -41 -78q-47 -29 -115 -61q-69 -33 -139 -78q-69 -45 -115 -113
q-51 -70 -51 -170q0 -94 49 -158q48 -67 119 -106q72 -39 156 -55q82 -19 155 -19q293 4 527 148q112 67 178 153q63 84 65 180q0 107 -69 172q-70 64 -217 66q-144 -2 -262 -96q-119 -94 -183 -209l21 -8q18 32 49 73q29 39 66 74q41 37 86 62q43 22 96 22q98 -2 147 -70
q45 -67 45 -159q0 -58 -20 -117q-21 -63 -70 -117q-45 -53 -123 -84q-77 -37 -188 -37q-145 0 -244 99q-102 94 -104 264q2 147 71 233q68 84 156 138l88 53q41 24 76 49q72 47 84 119q35 237 92 358q59 121 178 121q94 -2 139 -72q41 -71 41 -161q0 -89 -49 -168
q-53 -82 -178 -84q-63 0 -129 20zM1312 1899q-53 -86 -108 -142q-56 -57 -103 -94q-45 -37 -74 -57l-20 -21q-10 -12 -10 -20q0 -21 20 -21q70 2 162 78q92 70 137 119v0q43 -59 103 -127q28 -31 53 -53q22 -23 35 -23q26 0 26 29q0 16 -22 53q-23 39 -56 88q-30 49 -57 103
q-27 51 -37 88h-49z" />
    <glyph glyph-name="degree" unicode="&#xc9;" horiz-adv-x="1442" 
d="M942 973q72 -29 147 -29q140 0 271 70q63 37 100 92q39 53 39 129q-4 139 -100 192q-95 52 -215 52q-123 0 -271 -62q-149 -65 -252 -215q-32 -53 -49 -127q-16 -72 -28 -145q-11 -72 -25 -125q-14 -58 -41 -78q-47 -29 -115 -61q-69 -33 -139 -78q-69 -45 -115 -113
q-51 -70 -51 -170q0 -94 49 -158q48 -67 119 -106q72 -39 156 -55q82 -19 155 -19q293 4 527 148q112 67 178 153q63 84 65 180q0 107 -69 172q-70 64 -217 66q-144 -2 -262 -96q-119 -94 -183 -209l21 -8q18 32 49 73q29 39 66 74q41 37 86 62q43 22 96 22q98 -2 147 -70
q45 -67 45 -159q0 -58 -20 -117q-21 -63 -70 -117q-45 -53 -123 -84q-77 -37 -188 -37q-145 0 -244 99q-102 94 -104 264q2 147 71 233q68 84 156 138l88 53q41 24 76 49q72 47 84 119q35 237 92 358q59 121 178 121q94 -2 139 -72q41 -71 41 -161q0 -89 -49 -168
q-53 -82 -178 -84q-63 0 -129 20zM1568 1823q-4 69 -78 72q-33 0 -43 -21q-14 -22 -25 -59q-8 -37 -34 -80q-25 -43 -88 -86q-90 -53 -88 -70q0 -24 22 -24q21 0 74 26q51 25 110 66q62 41 107 88q41 47 43 88v0z" />
    <glyph glyph-name="dagger" unicode="&#xc7;" horiz-adv-x="1479" 
d="M1218 1276q-71 -78 -71 -164q2 -102 74 -152q69 -49 167 -49q168 2 283 103q117 96 119 229q0 76 -29 125q-29 45 -78 70q-47 24 -106 32q-60 9 -125 9q-383 -11 -780 -334q-185 -150 -305 -336q-123 -186 -125 -383q-4 -453 475 -459q270 6 467 172q198 160 202 367
q-2 112 -73 182q-74 68 -187 70q-98 0 -170 -45q-73 -43 -118 -119q-95 -156 -93 -326h25q-2 74 49 238q29 74 80 125t131 53q86 -2 125 -70q35 -67 35 -161q-4 -177 -129 -306q-125 -137 -291 -139q-106 2 -172 101q-70 94 -70 227q9 420 312 760q139 161 307 260
q166 96 332 98q151 2 155 -139q-2 -125 -82 -242q-39 -55 -94 -90q-55 -39 -123 -39q-69 0 -114 49q-50 45 -50 121q0 57 25 94q20 37 39 56zM552 -10l-59 -90q-47 -82 -45 -86q2 -15 14 -15q39 4 86 6q35 0 57 -14q21 -16 21 -45q-2 -88 -129 -90q-68 2 -115 18
q-49 17 -78 17q-22 0 -22 -25q2 -18 31 -31q28 -12 67 -22q84 -18 121 -18q121 2 182 47q62 43 62 108q-2 64 -41 94q-41 27 -103 27q-24 0 -51 -6l88 125h-86z" />
    <glyph glyph-name="Iacute" unicode="&#xc3;" horiz-adv-x="1933" 
d="M2263 1491q-213 -51 -402 -156q-188 -106 -344 -235q-153 -127 -266 -244l-178 -190q-170 -199 -409 -406q-117 -96 -240 -158q-123 -65 -248 -65q-82 0 -135 35q-53 30 -61 96q34 0 67 29q29 24 31 73q-2 66 -37 92q-37 27 -82 27q-76 -2 -111 -53q-36 -49 -36 -107
q2 -108 86 -176q84 -67 235 -69q146 2 277 65q131 64 249 160q238 209 424 426h275q-56 -105 -101 -219q-47 -117 -49 -240q4 -209 236 -209q141 2 243 68q101 63 183 151q153 162 286 336l-14 15q-127 -166 -291 -340q-80 -82 -162 -134q-79 -55 -151 -55q-27 0 -47 25
q-25 20 -25 76q0 143 76 319q74 174 193 360q251 381 550 674zM1102 659q162 177 372 369q209 188 439 301l4 -4q-326 -295 -547 -666h-268zM2393 1731q-62 2 -152 39q-41 16 -82 28q-43 11 -78 11q-79 -5 -116 -70q-19 -29 -27 -55q-10 -25 -10 -39q0 -6 6 -17
q2 -12 14 -12q13 0 27 16q12 15 25 33q16 21 30 33q17 12 35 12q62 -2 145 -43q86 -41 168 -43q91 4 123 74q29 65 29 98q2 29 -21 29q-8 0 -14 -12q-8 -13 -18 -33q-8 -19 -27 -33q-20 -16 -57 -16v0z" />
    <glyph glyph-name="udieresis" unicode="&#xc5;" horiz-adv-x="1933" 
d="M2263 1491q-213 -51 -402 -156q-188 -106 -344 -235q-153 -127 -266 -244l-178 -190q-170 -199 -409 -406q-117 -96 -240 -158q-123 -65 -248 -65q-82 0 -135 35q-53 30 -61 96q34 0 67 29q29 24 31 73q-2 66 -37 92q-37 27 -82 27q-76 -2 -111 -53q-36 -49 -36 -107
q2 -108 86 -176q84 -67 235 -69q146 2 277 65q131 64 249 160q238 209 424 426h275q-56 -105 -101 -219q-47 -117 -49 -240q4 -209 236 -209q141 2 243 68q101 63 183 151q153 162 286 336l-14 15q-127 -166 -291 -340q-80 -82 -162 -134q-79 -55 -151 -55q-27 0 -47 25
q-25 20 -25 76q0 143 76 319q74 174 193 360q251 381 550 674zM1102 659q162 177 372 369q209 188 439 301l4 -4q-326 -295 -547 -666h-268zM1980 1692q0 -78 57 -115q52 -39 125 -39q101 0 187 68q84 63 86 168q-2 88 -58 123q-55 30 -118 30q-109 -2 -191 -65
q-86 -66 -88 -170v0zM2070 1630q2 72 64 170q28 45 63 76q35 29 68 31q35 0 57 -15q23 -16 23 -53q-2 -82 -60 -176q-26 -43 -63 -72q-37 -32 -82 -32q-70 0 -70 71v0z" />
    <glyph glyph-name="Egrave" unicode="&#xc0;" horiz-adv-x="1933" 
d="M2263 1491q-213 -51 -402 -156q-188 -106 -344 -235q-153 -127 -266 -244l-178 -190q-170 -199 -409 -406q-117 -96 -240 -158q-123 -65 -248 -65q-82 0 -135 35q-53 30 -61 96q34 0 67 29q29 24 31 73q-2 66 -37 92q-37 27 -82 27q-76 -2 -111 -53q-36 -49 -36 -107
q2 -108 86 -176q84 -67 235 -69q146 2 277 65q131 64 249 160q238 209 424 426h275q-56 -105 -101 -219q-47 -117 -49 -240q4 -209 236 -209q141 2 243 68q101 63 183 151q153 162 286 336l-14 15q-127 -166 -291 -340q-80 -82 -162 -134q-79 -55 -151 -55q-27 0 -47 25
q-25 20 -25 76q0 143 76 319q74 174 193 360q251 381 550 674zM1102 659q162 177 372 369q209 188 439 301l4 -4q-326 -295 -547 -666h-268zM1950 1823q0 -41 48 -88q45 -47 104 -88q61 -41 113 -66q26 -12 45 -18q18 -8 24 -8q23 0 23 24q2 17 -88 70q-60 43 -82 86
q-27 43 -37 80t-23 59q-14 21 -49 21q-76 -3 -78 -72v0z" />
    <glyph glyph-name="ucircumflex" unicode="&#xc4;" horiz-adv-x="1933" 
d="M2263 1491q-213 -51 -402 -156q-188 -106 -344 -235q-153 -127 -266 -244l-178 -190q-170 -199 -409 -406q-117 -96 -240 -158q-123 -65 -248 -65q-82 0 -135 35q-53 30 -61 96q34 0 67 29q29 24 31 73q-2 66 -37 92q-37 27 -82 27q-76 -2 -111 -53q-36 -49 -36 -107
q2 -108 86 -176q84 -67 235 -69q146 2 277 65q131 64 249 160q238 209 424 426h275q-56 -105 -101 -219q-47 -117 -49 -240q4 -209 236 -209q141 2 243 68q101 63 183 151q153 162 286 336l-14 15q-127 -166 -291 -340q-80 -82 -162 -134q-79 -55 -151 -55q-27 0 -47 25
q-25 20 -25 76q0 143 76 319q74 174 193 360q251 381 550 674zM1102 659q162 177 372 369q209 188 439 301l4 -4q-326 -295 -547 -666h-268zM2420 1862q-43 -2 -75 -31q-33 -31 -33 -78q0 -43 33 -76q32 -32 75 -32q47 0 78 32q29 33 31 76q-2 47 -31 78q-31 29 -78 31v0z
M2019 1862q-43 -2 -76 -31q-33 -31 -33 -78q0 -43 33 -76q33 -32 76 -32q47 0 78 32q28 33 31 76q-3 47 -31 78q-31 29 -78 31v0z" />
    <glyph glyph-name="scaron" unicode="&#xc2;" horiz-adv-x="1933" 
d="M2263 1491q-213 -51 -402 -156q-188 -106 -344 -235q-153 -127 -266 -244l-178 -190q-170 -199 -409 -406q-117 -96 -240 -158q-123 -65 -248 -65q-82 0 -135 35q-53 30 -61 96q34 0 67 29q29 24 31 73q-2 66 -37 92q-37 27 -82 27q-76 -2 -111 -53q-36 -49 -36 -107
q2 -108 86 -176q84 -67 235 -69q146 2 277 65q131 64 249 160q238 209 424 426h275q-56 -105 -101 -219q-47 -117 -49 -240q4 -209 236 -209q141 2 243 68q101 63 183 151q153 162 286 336l-14 15q-127 -166 -291 -340q-80 -82 -162 -134q-79 -55 -151 -55q-27 0 -47 25
q-25 20 -25 76q0 143 76 319q74 174 193 360q251 381 550 674zM1102 659q162 177 372 369q209 188 439 301l4 -4q-326 -295 -547 -666h-268zM2237 1899q-53 -86 -108 -142q-56 -57 -103 -94q-45 -37 -74 -57l-20 -21q-10 -12 -10 -20q0 -21 20 -21q70 2 162 78
q92 70 137 119v0q43 -59 103 -127q28 -31 53 -53q22 -23 35 -23q26 0 26 29q0 16 -22 53q-23 39 -56 88q-30 49 -57 103q-27 51 -37 88h-49z" />
    <glyph glyph-name="zcaron" unicode="&#xc1;" horiz-adv-x="1933" 
d="M2263 1491q-213 -51 -402 -156q-188 -106 -344 -235q-153 -127 -266 -244l-178 -190q-170 -199 -409 -406q-117 -96 -240 -158q-123 -65 -248 -65q-82 0 -135 35q-53 30 -61 96q34 0 67 29q29 24 31 73q-2 66 -37 92q-37 27 -82 27q-76 -2 -111 -53q-36 -49 -36 -107
q2 -108 86 -176q84 -67 235 -69q146 2 277 65q131 64 249 160q238 209 424 426h275q-56 -105 -101 -219q-47 -117 -49 -240q4 -209 236 -209q141 2 243 68q101 63 183 151q153 162 286 336l-14 15q-127 -166 -291 -340q-80 -82 -162 -134q-79 -55 -151 -55q-27 0 -47 25
q-25 20 -25 76q0 143 76 319q74 174 193 360q251 381 550 674zM1102 659q162 177 372 369q209 188 439 301l4 -4q-326 -295 -547 -666h-268zM2493 1823q-4 69 -78 72q-33 0 -43 -21q-14 -22 -25 -59q-8 -37 -34 -80q-25 -43 -88 -86q-90 -53 -88 -70q0 -24 22 -24
q21 0 74 26q51 25 110 66q62 41 107 88q41 47 43 88v0z" />
    </font>
</defs>
</svg>
