<?xml version="1.0" standalone="no"?>
<!DOCTYPE svg PUBLIC "-//W3C//DTD SVG 1.1//EN" "http://www.w3.org/Graphics/SVG/1.1/DTD/svg11.dtd" >
<svg>
<metadata>
Created by FontForge 20090622 at Tue Jul 11 11:58:07 2017
 By deploy user
(c) COPYRIGHT H. BERTHOLD AG 1992 Alle Rechte vorbehalten.
</metadata>
<defs>
<font id="AmericanTypewriterBQ-Bold" horiz-adv-x="333" >
  <font-face 
    font-family="American Typewriter BQ"
    font-weight="500"
    font-stretch="normal"
    units-per-em="1000"
    panose-1="0 0 0 0 0 0 0 0 0 0"
    ascent="800"
    descent="-200"
    x-height="528"
    cap-height="705"
    bbox="-167.057 -262 1112 930.222"
    underline-thickness="50"
    underline-position="-75"
    unicode-range="U+0020-U+FB02"
  />
<missing-glyph 
 />
    <glyph glyph-name=".notdef" 
 />
    <glyph glyph-name=".null" horiz-adv-x="0" 
 />
    <glyph glyph-name="nonmarkingreturn" 
 />
    <glyph glyph-name="space" unicode=" " 
 />
    <glyph glyph-name="exclam" unicode="!" horiz-adv-x="292" 
d="M165 719q78 5 105 -32q10 -17 10 -44q0 -19 -4 -53q-1 -31 -6 -61q-18 -181 -18 -187q0 -3 -2 -30t-4 -41q-5 -40 -30 -47q-12 -4 -63 -4q-29 0 -41 14q-9 9 -11 20q-4 13 -10 99q-7 94 -10 131q-4 48 -5 72q0 6 -1 18t-1 18q-2 28 -2 41q0 27 7 45q8 11 14 17
q25 22 72 24zM170 171q39 5 70 -25q8 -7 14 -14q17 -23 17 -55q0 -38 -25 -64q-29 -31 -71 -31q-38 0 -65.5 27.5t-27.5 67.5q0 45 32 70q25 23 56 24z" />
    <glyph glyph-name="quotedbl" unicode="&#x22;" horiz-adv-x="396" 
d="M319 408h-31l-55 250q-3 27 -1 37q4 26 25.5 40t48.5 14q30 0 46 -15t20 -33q2 -11 0 -31zM111 408h-32l-54 250q-4 23 -1 37q4 26 25.5 40t48.5 14q24 0 42.5 -12.5t23.5 -35.5q1 -10 0 -31z" />
    <glyph glyph-name="numbersign" unicode="#" horiz-adv-x="667" 
d="M459 0h-126l27 186h-99l-26 -186h-124l25 186h-94v124h112l13 95h-100v124h117l25 177h124l-25 -177h100l24 177h125l-24 -177h91v-124h-109l-12 -95h98v-124h-116zM377 310l14 95h-100l-13 -95h99z" />
    <glyph glyph-name="dollar" unicode="$" horiz-adv-x="604" 
d="M357 603l1 -153q110 -28 162 -75q19 -17 29 -31q35 -49 35 -117q0 -64 -28 -112q-12 -20 -27 -37q-16 -19 -42 -37q-37 -27 -95 -42q-18 -5 -36 -6v-37q0 -29 -9 -39q-1 -1 -4 -3l-6 -4q-11 -5 -24 -5q-26 0 -35 17q-6 10 -6 25q0 7 0.5 20.5t0.5 20.5q-41 3 -64 6
t-55.5 15.5t-60.5 35.5q-31 24 -48 62q-14 30 -14 67q0 30 11 53q10 23 28.5 36t30 15.5t21.5 2.5q54 0 78 -45q10 -17 10 -38q0 -15 -7 -31q0 -2 -3.5 -9.5t-3.5 -11.5q0 -14 34 -24q24 -7 43 -8v183q-70 15 -126 49q-45 30 -67 65q-25 42 -25 99q0 83 58 141q17 17 39 30
q24 14 42 19q33 12 80 18q1 3 1 10v14v15.5v13.5q0 1 0.5 5t1.5 9t5 10q7 7 10 9q9 6 28 6q12 0 22 -6q16 -10 16 -37q0 -3 -0.5 -11t-0.5 -11q0 -16 1 -24q45 -5 75 -15q57 -17 90 -54q3 -4 12 -17q17 -28 17 -60q0 -28 -9 -46q-6 -11 -15 -20q-27 -25 -67 -25q-14 0 -29 5
q-14 5 -27 20t-13 37q0 4 1 9.5l2 10.5l1 4q0 1 1.5 6t1.5 8q0 8 -9 12q-2 1 -33 7zM274 472v126q-16 -4 -25 -8q-35 -18 -35 -54q0 -13 6 -25q3 -5 7.5 -10t9 -9t10 -7l10 -5.5t8 -4t6.5 -2.5zM357 280v-160q30 14 42 23.5t19 28.5q6 12 6 30q0 32 -17 51q-15 17 -50 27z
" />
    <glyph glyph-name="percent" unicode="%" horiz-adv-x="958" 
d="M201 713q13 1 30.5 -0.5t51 -15.5t55.5 -41q52 -60 52 -174q0 -86 -31 -141q-29 -50 -78 -71q-32 -16 -72 -16q-13 0 -28 2.5t-39 10.5t-47.5 29t-39.5 52q-28 56 -28 139q0 119 59 178q3 3 19 15q42 31 96 33zM629 711q0 1 9 1l9 -1q38 0 38 -20q0 -6 -12 -30
q-10 -20 -15 -31l-50 -103l-119 -242q-29 -55 -50 -101l-60 -122q-10 -19 -17 -35q-5 -11 -8.5 -16.5t-11 -11t-16.5 -5.5q-33 0 -40 2q-14 5 -14 18q0 7 14 35q2 5 5.5 12.5t4.5 9.5l70 142l128 261l58 116l45 93q1 1 5.5 9.5t7.5 11.5q6 6 19 7zM205 613q-15 -1 -27.5 -13
t-16.5 -20.5t-6 -15.5q-9 -27 -9 -75q0 -45 9 -78q11 -36 28 -50q13 -10 27 -10q30 0 45 30q17 31 17 98q0 52 -11 84l-10 23q-17 31 -46 27zM739 450q12 1 27.5 0t46.5 -11.5t54 -32.5q27 -27 42 -67q21 -51 21 -122q0 -144 -90 -200q-43 -26 -92 -26q-103 0 -151 90
q-31 56 -31 140q0 107 47 166q20 25 45 39q44 22 81 24zM744 350q-14 0 -26 -11q-32 -28 -32 -106q0 -64 13 -99q2 -6 9 -20q4 -6 12 -14q14 -12 30 -12q30 0 48 35q14 35 14 95q0 22 -3 45q-7 45 -23 67t-42 20z" />
    <glyph glyph-name="ampersand" unicode="&#x26;" horiz-adv-x="854" 
d="M430 419l63 -93q1 3 6.5 17.5t16 36.5t19.5 37q10 14 23 29q62 69 153 69q59 0 99 -28q62 -47 62 -110q0 -24 -8 -44q-10 -25 -34.5 -46t-61.5 -21q-43 0 -67 31q-15 18 -15 40q0 14 7 26l4 6t3.5 4.5t2.5 3t1 3.5q0 8 -11 8q-2 0 -5 -1t-4 -1q-23 -10 -40 -34
q-8 -12 -19 -36.5t-23 -54t-15 -35.5q-6 -15 -6 -16q0 -3 18 -27q25 -31 46.5 -41.5t56.5 -10.5q26 0 38 -3t24 -15q17 -19 17 -51q0 -12 -3.5 -24t-18.5 -25t-40 -13q-13 0 -37 4q-10 1 -29 1q-27 0 -54 -3q-18 -2 -26 -2q-24 0 -52 28q-21 22 -41 47q-26 -29 -46 -44
q-64 -47 -151 -47q-84 0 -141.5 34t-86.5 83q-32 50 -32 111q0 39 11 69q3 9 11 25q22 42 62 72q33 25 111 64q-25 41 -35.5 66.5t-10.5 57.5q0 87 79 130q48 24 112 24q56 0 96 -19q16 -7 30 -19q18 -14 24 -21q31 -35 31 -86q0 -48 -30 -87q-15 -18 -19 -21
q-20 -20 -65 -48zM359 509q48 22 48 62q0 9 -3 15q-10 26 -36 26q-21 0 -30.5 -13t-9.5 -27q2 -29 31 -63zM394 173l-106 158q-17 -9 -34 -22q-52 -40 -52 -93q0 -23 8 -40q24 -50 89 -50q15 0 31 4q11 3 19.5 6t16 9l10 8t10 10.5t8.5 9.5z" />
    <glyph glyph-name="quotesingle" unicode="'" horiz-adv-x="208" 
d="M121 408h-32l-54 250q-4 20 -1 37q5 26 26 40t48 14q25 0 44 -13t23 -37q1 -11 -1 -29z" />
    <glyph glyph-name="parenleft" unicode="(" horiz-adv-x="562" 
d="M492 761q14 1 43 -3q23 -8 32 -17q15 -16 15 -41q0 -40 -31 -56q-9 -4 -32 -9q-6 -1 -25 -5q-37 -7 -61 -18q-96 -42 -136 -150q-7 -16 -11 -29q-17 -62 -17 -152q0 -141 57 -233q24 -44 66 -78q44 -34 102 -44q46 -7 54 -11q30 -15 30 -56q0 -35 -20 -49
q-14 -11 -51 -11q-27 0 -59 5t-86.5 28t-101.5 61q-28 24 -59 59q-52 60 -78 130q-33 90 -33 194q0 164 79 282q21 30 28 38q4 6 15 17q3 4 7.5 8t10 9.5l7.5 7.5q5 5 21 19q26 22 53 38q95 61 181 66z" />
    <glyph glyph-name="parenright" unicode=")" horiz-adv-x="562" 
d="M428 29l-12 -21l-15 -20l-11 -16q-9 -9 -12 -13q-5 -5 -17 -19q-28 -28 -50 -44q-75 -58 -166 -85q-36 -9 -71 -9q-58 0 -71 41q-3 12 -3 23q0 31 21 47q6 4 13.5 7t12 4t18.5 3.5t21 3.5q61 13 99 39q19 12 33 26q32 29 50 65q11 20 16 34q1 3 2.5 8.5t2.5 8.5
q4 11 10 33q14 56 14 140q0 116 -42 202q-21 42 -45 70q-26 31 -57 50q-26 16 -50 23t-46 9.5t-27 3.5q-42 12 -42 58q0 45 28 57q27 5 37 6q79 3 172 -43q18 -8 47 -26q59 -40 113 -109l15 -20q34 -51 54 -121q22 -74 22 -163q0 -26 -3 -53q-7 -89 -41 -163q-6 -13 -20 -37
z" />
    <glyph glyph-name="asterisk" unicode="*" horiz-adv-x="354" 
d="M114 545l-33 6q-57 11 -57 47q0 10 5 20q12 29 39 29q24 -1 59 -38q3 -3 11 -12.5t12 -13t8 -3.5q6 1 6 8q-1 6 -5 19t-4 14q-2 4 -7 21t-5 30q0 18 9.5 28.5t18.5 13t18 2.5q10 0 18 -4q26 -12 26 -40q-1 -15 -16 -61q-7 -19 -7 -22q0 -8 6 -8q2 0 5.5 2.5t8 7.5
l8.5 9.5l10 11.5t10 11l4 3q4 4 8.5 7.5t10 7t12.5 6t13 2.5t16 -5q27 -15 27 -43q0 -17 -13 -30q-11 -10 -21 -13.5t-37 -7.5q-19 -4 -27 -5q-13 -3 -13 -9q0 -4 9 -6q4 -1 37 -6t45 -13q20 -13 20 -34q0 -9 -3 -18q-4 -14 -16 -23t-24 -9q-7 0 -14.5 3t-13 6.5t-11.5 8
t-9.5 8.5t-7.5 8l-3 4q-4 5 -14 15q-14 14 -18 14q-9 -2 -7 -9q0 -1 0.5 -2t1 -3t0.5 -4q4 -7 5 -13q18 -48 18 -64q0 -10 -3 -19q-12 -23 -42 -23q-21 0 -34 16q-11 12 -11 28q0 19 8 43q11 28 11 37t-7 9q-4 0 -14 -12q-3 -4 -10 -11q-15 -18 -16 -19q-27 -23 -45 -23
t-31 15.5t-13 33.5q0 22 24 37q12 6 24 8q16 4 44 8q18 3 18 9l-2 4q-3 3 -20 5z" />
    <glyph glyph-name="plus" unicode="+" horiz-adv-x="667" 
d="M398 0h-128v228h-228v127h228v227h128v-227h227v-127h-227v-228z" />
    <glyph glyph-name="comma" unicode="," horiz-adv-x="250" 
d="M117 201q54 0 88 -42q34 -41 34 -105q0 -47 -19 -100.5t-37 -83t-36 -53.5q-43 -57 -70 -57q-10 0 -16 4q-21 14 -21 39q0 6 1 11.5t2 10t4 11l4.5 10t6.5 11t6.5 10t7.5 11t7 10.5q21 30 29 49q12 18 12 39q0 13 -9.5 17.5t-16.5 4.5q-1 0 -6 2t-8 3q-28 12 -44 38.5
t-16 54.5q0 57 47 88q23 16 50 17z" />
    <glyph glyph-name="hyphen" unicode="-" horiz-adv-x="354" 
d="M94 343q14 0 60 -1t71 0q73 2 86 -3q18 -7 26 -22q9 -16 9 -42q-2 -45 -26 -60q-7 -4 -18 -6q-11 -3 -19 -4t-14 -0.5t-20 1.5t-28 1h-94q-35 0 -52.5 3.5t-29.5 16.5q-15 18 -15 49q0 41 18 54.5t46 12.5z" />
    <glyph glyph-name="period" unicode="." horiz-adv-x="250" 
d="M129 200q18 3 39 -5q33 -12 52.5 -40t19.5 -59q0 -42 -29 -74q-32 -33 -77 -33q-43 0 -72 29q-10 10 -10 12q-23 30 -23 66q0 32 19 59l11 14q32 31 70 31z" />
    <glyph glyph-name="slash" unicode="/" horiz-adv-x="562" 
d="M339 610l30 57l34 65q10 25 29 38q16 11 48 14q20 0 45 -5q53 -10 53 -43q0 -11 -6 -23q-12 -34 -88 -170l-108 -190l-44 -78l-28.5 -52t-22.5 -42q-30 -52 -44 -79l-23 -45l-30 -57l-22.5 -43.5l-24.5 -47.5q-2 -3 -5.5 -11t-6.5 -12q-14 -20 -31 -28t-49 -8
q-50 0 -70 10q-19 11 -19 31q0 21 41 95l53 93l123 222l95 173z" />
    <glyph glyph-name="zero" unicode="0" horiz-adv-x="646" 
d="M309 721q91 5 164 -41q21 -14 34 -26q45 -43 70 -106q35 -86 35 -199q0 -42 -4 -77q-24 -186 -155 -254q-65 -34 -130 -34q-103 0 -176 61q-114 93 -114 308q0 163 66 256q27 40 65 64q61 42 145 48zM318 575q-25 -1 -44 -16t-29 -32q-6 -9 -15 -32q-20 -56 -20 -127
q0 -72 13 -128q10 -40 27 -67q29 -46 76 -46q28 0 48 17t30 36q32 54 32 174q0 125 -43 184q-29 39 -75 37z" />
    <glyph glyph-name="one" unicode="1" horiz-adv-x="646" 
d="M253 264v54q0 25 -0.5 77t-0.5 78q0 61 -3 71q-6 21 -24 21q-9 0 -26.5 -3.5t-27.5 -3.5q-13 0 -23 5q-30 15 -30 65q0 13 4 27q11 42 62 48q6 1 49 -2q30 -2 44 -2q25 0 75 4q5 0 15 0.5t15 0.5q21 0 33 -13q4 -4 6.5 -9.5t3.5 -10t1.5 -14t0.5 -14.5v-17.5v-18.5
q0 -47 1 -70q0 -49 -0.5 -146t-0.5 -145q0 -38 1 -57q0 -47 28 -47q4 0 16 2q20 4 30 4q22 0 36 -19t14 -53q0 -23 -9 -40q-17 -35 -66 -35q-10 0 -31.5 2l-32.5 3q-39 3 -79 3t-81 -3q-50 -5 -59 -5q-30 0 -47.5 15t-21.5 29.5t-4 28.5q0 15 3 26q10 45 49 45
q9 0 25.5 -2.5t24.5 -2.5q10 0 17 5q4 4 6 7q7 13 7 79v33z" />
    <glyph glyph-name="two" unicode="2" horiz-adv-x="646" 
d="M175 162q42 60 106 60q45 0 94 -35l20.5 -15.5l23.5 -17.5t20 -11t22 -6q15 2 34 14q-12 0 -30 11q-33 23 -33 60q0 33 24 56q23 23 58 23q32 0 58 -22q17 -14 27 -33q17 -32 17 -76q0 -86 -59 -139q-46 -42 -107 -42q-56 0 -119 47q-11 8 -25.5 20.5l-22 18.5t-17.5 11
t-19 5q-7 0 -15 -7q6 -18 6 -27q0 -19 -14 -38q-26 -33 -75 -33q-26 0 -50 11q-32 16 -54 54t-22 93q0 44 17 84q6 16 16 32q12 19 43 50q41 39 87 59q4 2 12 6.5l14.5 8l12.5 6.5l76 33q35 16 45 22q45 26 45 72q0 27 -23 48t-65 21q-31 0 -51 -9q-4 -2 -11 -6.5t-9 -5.5
q19 -34 19 -56q0 -21 -10 -41q-11 -21 -35 -36.5t-57 -15.5q-35 0 -63 21q-42 32 -42 97q0 92 96 148q68 39 173 39q158 0 228 -87q40 -51 40 -119q0 -76 -46 -130q-7 -9 -16 -16q-7 -7 -18 -15q-18 -14 -44 -28q-53 -27 -152 -58l-7 -2q-7 -2 -17.5 -6l-22.5 -8.5
t-24.5 -11t-21.5 -13.5q-34 -26 -37 -65z" />
    <glyph glyph-name="three" unicode="3" horiz-adv-x="646" 
d="M443 416q49 0 90 -28q2 -2 6 -5t7 -5.5t5 -4.5q18 -18 25 -27q34 -51 34 -114q0 -60 -25 -109q-33 -66 -108.5 -102t-184.5 -36q-103 0 -172 41q-35 20 -58 50q-41 50 -41 106q0 42 18 74q12 20 30 33q26 19 58 19q18 0 37 -7q22 -8 41.5 -30t19.5 -55q0 -23 -10 -43
q-3 -7 -15 -22q10 -8 16 -11q24 -16 74 -16q64 0 99 28q38 30 38 78q0 26 -19 48q-29 33 -82 38q-8 1 -20.5 1.5t-18.5 1t-13 2.5t-12 7q-13 13 -13 44q0 16 4 29q7 21 66 87l67 73q-20 0 -59 -0.5t-58 -0.5q-54 -2 -62 -6q-14 -6 -14 -21q0 -6 5 -26q4 -12 4 -34
q0 -48 -36 -71q-9 -6 -19 -8q-16 -4 -29 -4q-27 0 -49 16q-15 15 -20 26q-7 15 -7 42q0 15 4.5 45.5t4.5 46.5q0 14 -3.5 42.5t-3.5 42.5q0 23 10 37q14 17 46 17q21 0 58.5 -2t49.5 -2q17 -1 52 -1q100 0 200 3q13 0 40.5 1t41.5 1q24 0 36 -5q24 -13 24 -67q0 -18 -6 -37
q-6 -20 -18 -35t-46 -51q-2 -2 -7 -6.5t-9 -8.5t-7 -8l-47 -51q-13 -13 -19 -20z" />
    <glyph glyph-name="four" unicode="4" horiz-adv-x="646" 
d="M486 330h47q43 0 57 -24q10 -16 10 -41q0 -20 -5 -34q-11 -21 -25 -28q-15 -7 -89 -7q-1 -30 5 -43q7 -12 21 -12q9 0 25 4q3 0 8.5 0.5t8.5 0.5q16 0 24 -5q30 -15 30 -65q0 -29 -15 -49q-21 -26 -61 -26q-10 0 -27 2t-23 2q-43 3 -89 3q-39 0 -68 -4q-2 0 -19.5 -1.5
t-26.5 -1.5q-15 0 -29.5 4t-29.5 22t-15 49t14 49q15 20 37 20q11 0 30 -4q12 -3 19 -3q18 0 24 14q4 11 4 44q-21 0 -63.5 -0.5t-63.5 -0.5h-100q-33 -1 -46.5 1.5t-25.5 16.5q-14 18 -14 45q0 14 4 34q3 11 7.5 21.5t13.5 26.5l15 26t22.5 35t25.5 40l142 222q24 41 62 51
q36 8 69 8q13 0 43 -4q34 -7 49 -20q13 -13 17 -29t4 -50q0 -46 -2 -140q0 -24 -0.5 -74t-0.5 -75zM199 329h127l7 214l-80 -131z" />
    <glyph glyph-name="five" unicode="5" horiz-adv-x="646" 
d="M230 448q69 20 125 20q100 0 167 -57q23 -21 33 -34q45 -58 45 -142q0 -73 -38 -127q-10 -15 -32 -37q-17 -17 -41 -32q-77 -53 -197 -53q-114 0 -188 57q-68 52 -68 126q0 30 13 54q11 23 36 39.5t59 16.5q20 0 36 -6q21 -7 39 -27t18 -52q0 -24 -17 -51q6 -5 13 -8
q26 -13 64 -13q65 0 99 37q25 27 25 62q0 49 -40 78q-36 27 -90 27q-34 0 -62 -7q-54 -13 -71 -13q-35 0 -59.5 18t-31.5 39q-5 14 -5 34q0 23 6 73q1 13 6 60.5t7 73.5l3 46q4 34 18 44q12 10 40 10q23 0 71 -2q31 -1 94 -1q20 0 60 0.5t61 0.5q25 0 37 1q10 0 30 1t30 1
q45 0 45 -41q0 -9 -1.5 -27t-1.5 -27q0 -11 1.5 -32.5t1.5 -31.5q-3 -34 -21 -52q-21 -19 -57 -19q-44 0 -62 41q-11 29 -16 33q-8 6 -68 6q-36 2 -54 2h-29q-16 0 -21 -8q-1 -3 -2.5 -12.5t-3 -20t-1.5 -11.5q-1 -18 -5 -57z" />
    <glyph glyph-name="six" unicode="6" horiz-adv-x="646" 
d="M392 586q-28 4 -42 4q-31 0 -60.5 -16.5t-46.5 -48.5q-25 -46 -25 -113q48 29 71 37q41 15 85 15q99 0 165 -60q28 -26 42 -49q33 -55 33 -123q0 -87 -52 -153l-2 -3q-3 -2 -5.5 -5t-7 -7t-7.5 -7q-77 -69 -195 -69q-51 0 -99 13q-43 9 -88 41q-26 19 -45 42
q-27 35 -43 67q-38 83 -38 192q0 97 28 170q0 1 5 13t13.5 29t16.5 28q27 44 68 77q79 63 192 63q114 0 172 -60q35 -38 35 -84q0 -71 -63 -91q-18 -6 -37 -6q-24 0 -46 12q-33 22 -35 55q1 17 11 37zM330 330q-45 -2 -75 -32t-30 -75q0 -28 12 -48q11 -19 37.5 -35.5
t60.5 -16.5q19 0 40 8q33 12 52 39t19 57q0 40 -29 69q-38 35 -87 34z" />
    <glyph glyph-name="seven" unicode="7" horiz-adv-x="646" 
d="M429 490l15 15q14 12 19 18q-42 -21 -77 -21q-8 0 -32 4q-32 6 -78 32l-20 12t-21 12.5t-19.5 8.5t-20.5 4t-15 -5q-13 -11 -13 -31q0 -10 9 -37q7 -28 7 -47q0 -53 -44 -73q-19 -8 -37 -8q-36 0 -58 23q-9 10 -15 22q-5 13 -5 35q0 13 7 55q4 32 4 49q0 16 -3 32
q-6 30 -6 46q0 19 5 31q14 37 52 37q61 0 54 -75q5 15 11 24q35 54 125 54q47 0 112 -28q12 -5 30.5 -14t27.5 -12.5t17 -3.5q10 0 17 8q6 5 13.5 17t12.5 17q16 15 38 15q42 0 65 -37l2 -3l4 -8t3 -7q8 -21 8 -51q0 -16 -3.5 -33t-7.5 -30t-13 -29.5t-14.5 -25.5t-17.5 -24
l-16 -20t-16 -18l-12 -14q-76 -86 -96 -117q-39 -61 -39 -125q0 -15 4 -45q7 -47 7 -60q0 -32 -17 -54q-9 -12 -21 -18q-9 -5 -21 -7q-20 -4 -30 -4q-31 0 -57 15q-29 16 -43 48q-22 44 -22 107q0 96 61 175q29 35 56 59q3 3 10 9.5t11 9.5q2 2 11 8q13 13 22 21
q20 17 50 45z" />
    <glyph glyph-name="eight" unicode="8" horiz-adv-x="646" 
d="M496 402q3 -2 12 -6t11 -5q36 -17 59 -47q13 -16 18 -28q22 -44 22 -94q0 -72 -43 -129q-80 -106 -258 -106q-126 0 -205 57q-21 16 -39 38q-45 54 -45 127q0 51 24 94q13 25 40 48q26 24 55 36q-40 22 -59 49q-25 37 -25 87q0 60 33 105q1 1 4 5t8 10t9 10q31 29 75 46
q12 5 34 11q57 13 102 13q132 0 202 -66q19 -18 29 -33q13 -18 19 -40q10 -23 10 -52q0 -48 -25 -81q-9 -13 -24 -25q-15 -11 -43 -24zM318 595q-39 -1 -61 -27q-16 -19 -16 -39q0 -34 26 -54t60 -20q9 0 24 4q13 3 24 9.5t22.5 22t11.5 36.5q0 29 -24 48q-30 25 -67 20z
M313 320q-57 -2 -90 -40q-20 -24 -20 -60q0 -48 36.5 -71.5t83.5 -23.5q19 0 42 5q47 12 64.5 40t17.5 55q-1 26 -17.5 48.5t-43.5 34.5q-17 7 -37 10q-17 3 -36 2z" />
    <glyph glyph-name="nine" unicode="9" horiz-adv-x="646" 
d="M251 121q18 -7 32 -7q44 0 80 25q27 20 43 54.5t19 52.5t3 27l-39 -22q-54 -27 -113 -27q-36 0 -64 7q-17 5 -28 10q-5 2 -26 11q-54 26 -86 77q-37 57 -37 130q0 96 53 165q24 32 61 57q67 41 151 41q101 0 174 -48q18 -12 30 -24q32 -32 50 -61q11 -18 22 -44
q12 -30 16 -45q17 -57 17 -141q0 -108 -37 -190q-21 -46 -50 -79q-17 -19 -34 -34q-87 -70 -215 -70q-74 0 -132 25q-10 4 -15 7q-8 4 -28 20q-38 33 -38 82q0 30 18 53q10 13 14 16q29 22 69 22q17 0 36 -7q39 -13 51 -46q3 -8 3 -37zM312 579q-28 0 -54 -16
q-2 -1 -5.5 -3.5l-6.5 -4.5l-3 -2q-16 -16 -21 -26q-14 -25 -13 -57q0 -29 13 -53q12 -21 37 -37t58 -16q34 0 59.5 19t34.5 40q3 5 8 27q3 13 2 23q0 40 -19 64q-13 18 -29 26q-29 18 -61 16z" />
    <glyph glyph-name="colon" unicode=":" horiz-adv-x="292" 
d="M170 486q37 4 69 -21q42 -31 42 -84q0 -39 -25 -68q-32 -38 -80 -38q-25 0 -46 11q-22 10 -41 34.5t-19 59.5q0 37 19.5 62t43.5 35q4 2 7.5 3t6.5 2t4 1q9 3 19 3zM172 200q45 2 77 -29.5t32 -75.5t-31 -75t-75 -31q-17 0 -33 6q-34 12 -52.5 40t-18.5 61q0 42 29.5 72
t71.5 32z" />
    <glyph glyph-name="semicolon" unicode=";" horiz-adv-x="292" 
d="M174 486q26 0 47 -10q28 -13 44.5 -39.5t16.5 -55.5q0 -39 -26 -68q-32 -38 -81 -38q-23 0 -45 11q-59 31 -59 95q0 40 29 71q32 34 74 34zM165 200q7 1 17.5 0t29.5 -9t33 -23q8 -8 14 -16q7 -9 13 -25q15 -32 15 -72q0 -89 -67 -202q-29 -44 -49 -66q-26 -27 -44 -27
q-9 0 -17 5q-22 11 -22 38q0 6 1 12t3.5 12.5t4.5 11t6.5 12t7 11l8.5 12.5l8 12q15 21 28 48q1 1 4 7.5t6.5 17t3.5 17.5t-5 13q-4 4 -9 6t-11.5 3.5t-9.5 2.5q-23 9 -37 24q-29 32 -29 72q0 48 39 82q22 20 58 21z" />
    <glyph glyph-name="less" unicode="&#x3c;" horiz-adv-x="667" 
d="M667 -3l-667 292v124l667 296v-139l-490 -219l490 -216v-138z" />
    <glyph glyph-name="equal" unicode="=" horiz-adv-x="667" 
d="M667 123h-667v128h667v-128zM667 333h-667v126h667v-126z" />
    <glyph glyph-name="greater" unicode="&#x3e;" horiz-adv-x="667" 
d="M0 -3v138l489 216l-489 219v139l667 -296v-124z" />
    <glyph glyph-name="question" unicode="?" horiz-adv-x="583" 
d="M227 559l5 -6q6 -6 7 -7.5l5 -7.5t5.5 -9.5l4 -9.5t3.5 -12.5t1 -13.5q0 -21 -13 -43q-30 -50 -93 -50q-32 0 -56 15q-6 3 -16 12q-12 12 -16 17q-20 29 -20 73q2 71 53 122q20 20 47 35q77 47 190 47q154 0 226 -89q46 -56 46 -131q0 -94 -64 -144q-5 -5 -20 -14
q-27 -15 -78 -30q-6 -2 -17.5 -5.5t-17.5 -4.5q-1 0 -4.5 -1l-8.5 -2.5t-9 -4.5q-9 -5 -11 -15q-1 -4 -1.5 -12.5t-1.5 -16t-4 -12.5q-7 -15 -19 -15q-14 -5 -59 -5q-53 0 -67 15q-18 18 -18 60q0 35 13 57l2 4t3 4.5t3 4.5q17 21 37 30t63 19q9 2 14 3q31 8 48 20
q33 24 33 63q0 22 -13 44q-10 17 -42 33q-19 8 -53 8q-23 0 -39 -3.5t-23 -7t-25 -14.5zM281 177q34 4 65 -22q36 -30 36 -76q0 -39 -30 -68q-29 -27 -68 -27q-45 0 -73 35q-22 28 -22 63q0 37 27 65.5t65 29.5z" />
    <glyph glyph-name="at" unicode="@" horiz-adv-x="896" 
d="M583 465l9 41h84l-42 -196q-28 -126 -28 -148q0 -20 20 -20q28 0 53 33q71 86 71 207q0 98 -57 170q-72 91 -191 91q-129 -1 -222 -104q-51 -56 -81 -138.5t-30 -159.5q0 -74 27 -131q37 -80 113.5 -121t168.5 -41q134 0 241 75q33 23 67 57l42 -55q-41 -44 -96 -77
q-123 -72 -267 -72q-24 0 -48 2t-68.5 12t-82.5 27t-80 52t-70 83q-49 85 -49 192q0 157 93 287q58 83 149 132t193 49q147 0 236 -97q88 -96 88 -239q0 -140 -90 -243q-64 -69 -131 -69q-51 0 -76 37q-6 9 -15 31q-47 -64 -116 -64q-35 0 -67 19q-75 48 -75 161q0 30 6 64
t34 87.5t75 89.5q51 43 111 43q52 0 82 -35q10 -11 19 -32zM366 217v-18q4 -34 23 -48q12 -9 28 -9q18 0 39 16t38 46q21 36 37.5 96.5t15.5 100.5q0 1 -1 10t-3 15q-13 43 -51 43q-15 0 -27 -9q-25 -14 -46 -54q-28 -51 -40.5 -104t-12.5 -85z" />
    <glyph glyph-name="A" unicode="A" horiz-adv-x="812" 
d="M398 708q103 2 136 -6q19 -5 31 -25q7 -14 21 -63q15 -45 27 -90l62 -207l32 -108q17 -56 28 -64q6 -4 15 -4q6 0 16.5 2t15.5 2q25 0 37 -24q11 -19 11 -48q0 -30 -17 -49q-10 -11 -29 -21q-9 -3 -26 -3l-72 6q-24 3 -48 3q-33 0 -73 -5q-6 0 -24.5 -2t-28.5 -2
q-31 0 -49 20q-18 22 -18 56q0 26 12 43q11 15 29 15q3 0 11 -1.5t15 -1t12 3.5q8 5 8 20q0 12 -10 41q-2 12 -9 17q-4 4 -26 6q-7 0 -19 0.5t-19 0.5q-52 0 -78 -1q-5 0 -14.5 -0.5t-14.5 -0.5q-1 0 -4.5 -0.5l-7 -1t-8.5 -3.5t-8 -8q-15 -30 -15 -55q0 -18 17 -18
q3 0 8.5 1t10 1.5t8.5 0.5q9 0 14 -2q28 -10 28 -60q0 -33 -18 -53q-6 -7 -15 -13q-16 -8 -39 -8q-8 0 -18 1t-21.5 2.5t-18.5 2.5q-25 3 -50 3q-14 0 -89 -5q-21 -3 -42 -3q-31 0 -49 15q-25 22 -25 59q0 25 11 47.5t37 22.5q6 0 18 -1.5t17 -1.5q16 0 24 9q9 9 65 169
l55 158q35 102 43 123q11 33 21 53q20 43 47 50q17 3 60 5zM428 577q-2 0 -3 -5q-1 -4 -3 -13.5t-4 -14.5q-8 -31 -26 -91q-2 -7 -5.5 -21t-5.5 -19q-15 -49 -15 -50q0 -6 4 -9t39 -3q4 0 16 -1t18 0q2 0 5.5 0.5t5.5 0.5q11 0 15 2q8 2 8 10q0 1 -14 66l-8.5 38.5
t-8.5 37.5q-10 44 -11 55q-3 18 -7 17z" />
    <glyph glyph-name="B" unicode="B" horiz-adv-x="729" 
d="M551 388q67 -17 99 -45q18 -15 29 -31q30 -45 30 -106q0 -72 -43 -124q-12 -14 -33 -30q-68 -53 -205 -53q-17 0 -137 8q-24 1 -71 1q-48 0 -72 -2q-18 -1 -49 -5q-5 0 -13 -0.5t-13 -0.5q-20 0 -34 6q-40 18 -40 69q0 35 15 53t36 18q8 0 23 -3t23 -3q19 0 25 20
q3 14 3 60v83q0 11 0.5 34t0.5 35l-1 57q0 57 1 57q0 18 -1 26q-1 19 -2.5 28.5t-7.5 16t-19 6.5q-8 0 -23.5 -3t-22.5 -3q-21 1 -35.5 20t-14.5 52q0 55 43 70q12 4 31 4q21 0 61 -4q23 -2 68 -2q40 0 118.5 3.5t117.5 3.5q83 0 134 -18q14 -5 31 -16q12 -6 19 -11
q6 -4 16 -16q21 -21 32 -53q11 -33 11 -61q0 -83 -67 -121q-24 -12 -33 -15q-10 -3 -30 -5zM364 575l-18 -3q-15 -2 -22 -7q-5 -4 -8 -10q-6 -11 -6 -43v-48q2 -22 6 -25q6 -4 22 -4q4 0 11 -0.5t10 -0.5q64 3 86 15q27 13 35 38q3 12 3 21t-4 19q-7 16 -18 26
q-15 14 -47 19q-27 3 -50 3zM348 307q-34 -2 -37 -10q-3 -5 -3 -37q0 -38 1 -57q1 -49 28 -59q30 -9 67 -9q53 0 79 23t26 59q0 26 -16 47q-35 45 -145 43z" />
    <glyph glyph-name="C" unicode="C" horiz-adv-x="667" 
d="M507 648q0 37 15 51q17 17 48 17q21 0 36 -8q30 -18 30 -64q0 -16 -4 -47t-4 -46q0 -14 4 -44q0 -4 1 -12t1.5 -14t0.5 -12q0 -33 -25 -55q-23 -19 -61 -19t-60 22q-17 18 -17 46q0 6 0.5 15.5t0.5 14t-1 12.5t-5 17q-9 20 -32 35q-18 9 -22 10q-24 8 -52 8
q-31 0 -62 -17q-18 -10 -36 -38q-2 -3 -10 -19q-2 -3 -4 -10t-4 -10q-16 -54 -16 -131q0 -76 16 -125q11 -36 29 -57q34 -42 101 -42q37 0 65 18q21 17 25 23q13 19 13 50q0 4 -0.5 12.5t-0.5 12.5q0 43 29 64q19 15 47 15q42 -1 70 -27q7 -8 11 -17q16 -29 16 -68
q0 -71 -37 -119t-85 -73q-66 -33 -170 -33q-86 0 -146 29q-15 7 -39 23q-89 60 -121 176q-18 68 -18 139q0 32 1 48q13 137 74 217q46 55 98 79q55 26 126 26q81 0 137 -40q12 -8 37 -33z" />
    <glyph glyph-name="D" unicode="D" horiz-adv-x="729" 
d="M124 217v236q0 47 -1 70q0 26 -10 36q-5 5 -18 5q-8 0 -21.5 -2.5t-20.5 -2.5q-17 0 -25 6q-11 7 -19.5 24t-8.5 39q0 42 25 62q6 5 20 10q17 5 31 5q1 0 58 -6q31 -4 70 -4q42 0 124 4q54 4 80 4q40 1 79 -6q7 -1 19 -5q1 0 9.5 -2t12.5 -4q79 -30 130 -111
q10 -17 20 -41q36 -83 36 -181q0 -102 -40 -184q-2 -5 -8 -14.5t-8 -14.5q-14 -24 -23 -36q-40 -51 -95 -77q-60 -28 -144 -28q-31 0 -94.5 4t-95.5 4q-36 0 -74 -3q-57 -3 -58 -3q-17 0 -24 2q-49 14 -49 71q0 34 13 52q14 19 38 19q15 0 30 -3q10 -2 16 -2q17 1 22 15
q4 9 4 62zM311 394v-97v-19.5v-22.5v-19q0 -39 1 -59q1 -28 12 -38q15 -12 38 -12q49 0 85 30q21 16 32 36q36 56 36 149q0 74 -22 127q-11 25 -26 45q-30 36 -72 47q-10 3 -23 3q-12 2 -17 1q-3 0 -7 -0.5t-6 -0.5q-24 -8 -29 -21q-2 -8 -2 -21v-26v-102z" />
    <glyph glyph-name="E" unicode="E" horiz-adv-x="708" 
d="M377 256v11q3 26 -3 32q-9 7 -36 7t-31 -15q-2 -4 -2 -34q0 -80 3 -91q5 -15 13 -21q14 -12 73 -12q58 0 88 3q41 5 53 16q12 12 12 33q0 11 -4 35q-2 22 -2 33q0 36 16 55q6 8 20 18q14 7 23 7q12 3 25 3q21 0 39 -11q34 -22 34 -76q0 -12 -5 -64q-3 -24 -3 -48
q0 -22 3 -43q5 -35 5 -43q0 -20 -12 -33q-17 -18 -57 -18q-10 0 -30 1t-30 1l-74 3q-136 4 -204 4q-83 0 -198 -7q-3 0 -10 -0.5t-11 -0.5q-34 0 -53 20.5t-19 54.5t15 52.5t37 18.5q7 0 22.5 -3t23.5 -3q12 0 19 10q6 9 8 58v237v67q-1 30 -7 38q-7 13 -23 13
q-7 0 -21 -2.5t-21 -2.5q-16 0 -24 4q-30 16 -30 67q0 31 16 50q14 14 23 18q18 7 46 7h10q6 -1 16 -1t16 -1l68 -3q52 -2 80 -2q42 0 119.5 2t103.5 2q28 0 43 1q11 0 33.5 1t33.5 1q4 0 12 -0.5t12 -0.5q41 -2 49 -31q0 -1 1.5 -8.5t1.5 -12.5l-3 -42q-3 -27 -3 -53
q0 -23 3 -44q5 -40 5 -47q0 -38 -23 -58q-23 -21 -56 -21q-21 0 -41 11q-36 21 -36 69q0 13 4 37t4 36q0 16 -9 23q-11 9 -68 9q-59 0 -89 -1q-33 0 -45 -5q-15 -6 -20 -19q-3 -11 -3 -43q0 -6 0.5 -20t0.5 -21q0 -22 9 -29q5 -3 23 -3q21 0 31 5q13 4 13 22q0 3 -2 23.5
t1 22.5q4 15 16.5 23.5t23.5 8.5l11 1q29 0 41 -15.5t12 -34.5q0 -3 -0.5 -9t-0.5 -9q-2 -18 -3 -26q-2 -38 -2 -55q0 -35 4 -63q5 -50 5 -59q0 -31 -8 -44q-2 -5 -7.5 -9.5t-7.5 -4.5q-13 -10 -34 -10q-13 0 -25 7q-27 13 -27 51z" />
    <glyph glyph-name="F" unicode="F" horiz-adv-x="688" 
d="M267 698h81l168 3q23 0 35 1q13 0 40 1t41 1q13 0 20 -1q19 -4 27 -17q5 -12 5 -31q0 -5 -0.5 -10.5t-1.5 -12t-1 -10.5q-1 -5 -1 -16t-1 -17q-1 -12 -1 -35q0 -14 3.5 -43t3.5 -44q0 -36 -20 -60q-21 -26 -62 -26q-20 0 -36 10q-37 21 -37 81q0 18 3 38q2 16 2 25
q0 26 -23 32q-21 5 -106 5q-37 0 -55 -1q-29 -3 -36 -14q-5 -7 -7 -54q0 -6 -0.5 -17.5t-0.5 -17.5q0 -11 1 -17q1 -5 1.5 -6.5t2 -5.5t4 -5t7 -2.5t10.5 -1.5q24 0 33 5q13 10 13 23q-3 33 -3 35q0 18 11.5 28.5t21 12.5t17.5 2q12 0 23 -3q34 -11 34 -50q0 -12 -2 -34
q-3 -29 -3 -57q0 -22 4 -70q5 -32 5 -58q0 -21 -3 -31q-13 -36 -52 -36q-23 1 -37 13q-8 7 -12 17.5t-4.5 16.5t0 19.5t0.5 16.5q-1 7 -4 13q-9 12 -37 12q-26 0 -29 -11q-1 -2 -1 -41q0 -47 1 -70q2 -32 8 -38q6 -8 21 -8q4 0 8 0.5t9.5 1.5t8.5 1q24 2 38 2q30 0 44 -23
q11 -15 11 -47q0 -33 -20.5 -52.5t-53.5 -19.5q-9 0 -24.5 2t-20.5 2q-9 1 -26.5 2.5t-26.5 2.5q-28 2 -42 2q-5 0 -16.5 -0.5t-17.5 -0.5q-39 0 -71 -4q-7 -1 -19.5 -2.5t-23 -2.5t-19.5 -1q-33 0 -51 15q-25 22 -25 62q0 19 4 27q7 27 26 37q10 5 21 5q7 0 23 -3t23 -3
q22 0 25 30q2 17 2 80v173q0 11 0.5 31.5t0.5 33t-0.5 26.5t-2 23t-3.5 13q-7 13 -22 13q-7 0 -23 -3t-23 -3q-14 0 -24 7q-28 17 -28 64q0 19 9 40q2 4 6 9l4 5q20 20 52 21q10 1 55 -2q6 -1 17.5 -1t17.5 -1q17 -1 53 -1h54z" />
    <glyph glyph-name="G" unicode="G" horiz-adv-x="729" 
d="M515 650q7 33 16 42q17 19 48 19q27 -1 43 -14l2 -2q3 -2 5 -4.5t4 -4.5q11 -18 11 -45q0 -11 -7 -51q-4 -24 -4 -37q0 -11 2.5 -33.5t2.5 -34.5q-1 -33 -19 -49q-6 -5 -19 -14q-20 -8 -50 -8q-54 0 -70 43q-1 3 -6 33q-1 8 -7 24q-9 26 -35 41q-29 18 -62 18
q-48 0 -81 -29q-23 -23 -36 -52q-27 -54 -27 -159q0 -84 29 -140q11 -19 23 -31q35 -35 87 -35q32 0 54 12q8 4 16 12q23 21 23 56q0 6 -1 14t-9.5 19.5t-23.5 11.5q-4 0 -16.5 -1.5t-19.5 -0.5q-19 2 -34.5 18t-15.5 46q0 21 11 38q20 30 68 30q21 0 64 -5t65 -5q27 0 81 6
q39 3 41 3q33 0 53 -20q21 -19 21 -58q0 -45 -29 -63q-10 -5 -27 -5h-26q-14 -7 -17 -15q-4 -8 -4 -39q0 -19 2 -58.5t2 -59.5q0 -33 -6 -43q-3 -6 -10 -13q-23 -21 -59 -21q-54 3 -68 28q-2 4 -6 31q-24 -20 -40 -29q-53 -30 -123 -30q-71 0 -125.5 27.5t-87.5 63.5
q-84 95 -84 261q0 85 20 157q28 117 116 179q70 47 168 47q83 0 136 -35q16 -11 41 -36z" />
    <glyph glyph-name="H" unicode="H" horiz-adv-x="812" 
d="M520 298l-211 2q0 -12 -0.5 -36t-0.5 -36q1 -19 1 -55q0 -13 6 -23q5 -9 16 -9q3 0 13.5 1.5t16.5 0.5q19 -3 27 -23.5t8 -40.5q0 -54 -36 -71q-13 -7 -38 -7l-57 6q-27 4 -59 4q-31 0 -71 -5q-47 -5 -57 -5q-29 0 -47 12l-3 2l-5.5 5.5l-6.5 6.5q-15 20 -15 51
q0 26 12.5 47.5t39.5 21.5q8 0 22.5 -2.5t22.5 -2.5q15 0 21 12q5 10 5 74v85v61q-1 62 0 62q0 104 -3 111q-7 17 -26 17q-7 0 -20.5 -3t-21.5 -3q-28 0 -40.5 21.5t-12.5 49.5q0 43 22.5 59.5t50.5 16.5q11 0 61 -5q43 -5 79 -5q28 0 61 5q40 5 50 5q18 0 33 -7
q39 -17 39 -75q0 -23 -10 -41q-10 -20 -30 -20q-4 0 -12.5 1t-13.5 1q-9 0 -18 -13q-4 -11 -4 -114h212q2 42 -1 77q-2 36 -4 41q-5 10 -16 10q-24 -3 -25 -3q-15 0 -25 12t-12.5 21.5t-2.5 13.5q-1 5 -1 17q0 8 3 24q13 55 69 55q19 0 57 -6q28 -3 57 -3q38 0 85 5
q45 5 53 5q26 0 44 -13q16 -11 19 -20q11 -18 11 -44q0 -47 -30 -64q-7 -5 -26 -5q-7 0 -20.5 2.5t-19.5 2.5q-16 0 -22 -12q-6 -7 -6 -34q0 -5 0.5 -13t0.5 -12v-24q0 -21 0.5 -64.5t0.5 -65.5v-166q0 -14 4 -22q7 -12 22 -12q7 0 22 3t23 3q9 0 16 -4q35 -14 35 -65
q0 -27 -12 -46q-1 -1 -3.5 -4t-5.5 -6q-20 -20 -54 -20q-8 0 -53 5q-54 4 -83 4q-33 0 -58 -4q-57 -6 -58 -6q-23 0 -38.5 10.5t-21 26.5t-7.5 26.5t-2 18.5q0 22 10.5 41t32.5 19q4 0 11.5 -1t10.5 -1q12 0 17 11q7 18 3 147z" />
    <glyph glyph-name="I" unicode="I" horiz-adv-x="417" 
d="M311 444v-259q1 -29 12 -37q6 -6 18 -6l18 3q1 0 10 1.5t15 1.5q21 0 36 -17q16 -19 16 -53t-18.5 -55.5t-53.5 -21.5q-13 0 -37 3.5t-29 3.5q-54 6 -80 6q-32 0 -72 -5q-48 -8 -74 -8q-15 0 -23 2q-24 6 -36.5 26.5t-12.5 44.5q0 33 12 51q16 22 39 22q8 0 22.5 -3
t21.5 -3q16 0 23 12q6 9 6 95v139v55q1 56 0 56q0 44 -5 53q-7 14 -22 14q-6 0 -21 -3t-23 -3q-14 0 -24 6q-28 16 -28 65q0 18 3 29q14 42 62 46q14 1 74 -6q35 -4 77 -4q50 0 74 3q6 0 31 3.5t38 3.5q28 0 46 -12q30 -21 30 -64q-1 -30 -12 -48q-16 -22 -39 -22
q-7 0 -22.5 3t-23.5 3q-15 0 -23 -15q-5 -11 -5 -106z" />
    <glyph glyph-name="J" unicode="J" horiz-adv-x="625" 
d="M163 216q-9 -16 -9 -27q0 -10 5 -21q9 -22 32 -33l27 -9q9 -3 30 -3q71 0 102 54q6 10 10 21t6 19.5t2.5 25t0.5 25.5v33v37q0 15 -0.5 45t-0.5 46q0 46 -1 69q-1 48 -10 58q-7 8 -24 8q-11 0 -32.5 -3t-32.5 -3q-16 0 -27 8q-25 18 -25 63q0 33 18 53q20 22 59 22
q9 0 62 -5q37 -3 75 -3q48 0 108 5q51 3 52 3q32 0 50 -16q24 -20 24 -60q0 -18 -6 -35q-13 -34 -45 -34q-6 0 -18 2t-18 2q-8 0 -15 -7q-4 -5 -6 -13t-2 -14.5v-20.5v-23q0 -5 -0.5 -14.5t-0.5 -14.5q0 -18 1 -52t1 -51q1 -35 1 -107q0 -57 -8 -88t-29 -60q-18 -24 -37 -41
q-41 -36 -105 -55q-51 -15 -118 -15q-96 0 -165 42q-16 10 -31 25q-47 45 -60 101q-6 27 -6 48q0 64 40 114q14 19 40 35q40 27 90 27t85 -22q9 -6 19 -16q4 0 18 -20q15 -22 15 -53q0 -50 -36 -77q-21 -15 -46 -15q-8 0 -14.5 1t-12.5 4.5l-9.5 5.5t-8 7.5t-5.5 7t-5 8.5z
" />
    <glyph glyph-name="K" unicode="K" horiz-adv-x="792" 
d="M644 231l24 -39l21 -30q13 -19 32 -19q6 0 20 2q12 2 19 2q17 0 29 -11q21 -19 21 -60q0 -24 -8.5 -40t-22 -23t-24 -9.5t-21.5 -2.5q-9 0 -26 2t-22 2q-44 4 -66 4q-20 0 -60 -4q-32 -4 -46 -4q-13 0 -21 2q-42 11 -42 56q0 18 12 35q2 2 10 8.5t12 10.5q6 6 6 14
q0 6 -9 24q-5 9 -8 17l-45 78q0 1 -4 8l-7.5 13.5t-8.5 14t-10.5 12t-9.5 4.5q-5 0 -23 -15q-7 -7 -11 -10l-45 -39q-2 -6 -2 -20v-17q0 -13 1 -20q0 -17 3 -24q6 -13 18 -13q4 0 11.5 1.5t11.5 1.5q18 0 27 -12q16 -16 16 -52q0 -10 -2 -20t-8.5 -25t-22.5 -24.5t-40 -9.5
q-8 0 -17.5 1t-21 2.5t-17.5 2.5q-27 4 -59 4q-38 0 -69 -4l-66 -6q-11 0 -19 2q-54 12 -54 74q0 26 12.5 48t39.5 22q7 0 21 -3t22 -3q13 0 19 7q10 11 10 53q1 21 1 64v71v123q0 78 -4 91q-6 16 -24 16q-6 0 -21 -3t-24 -3q-17 0 -27 8q-25 19 -25 64q0 53 44 69
q13 5 31 5q14 0 39 -3.5t29 -3.5q21 -2 62 -2q29 0 58 3q47 7 60 7q15 0 27 -4q44 -15 44 -75q0 -49 -27 -60q-7 -3 -18 -3q-8 0 -13 1q-2 0 -4 0.5t-4 0.5q-13 0 -17 -16q-3 -7 -3 -55q-2 -49 0 -99l75 68q9 9 14 13l53 49q8 7 24 23q5 3 12.5 13t7.5 19q0 5 -3 9
t-9.5 10.5l-8.5 8.5q-13 15 -13 36q0 19 10 34q17 27 63 27q8 0 17.5 -1t21 -2.5t18.5 -2.5q30 -2 46 -2q22 0 41 3q42 5 52 5q16 0 41 -5q8 -4 16 -10q6 -6 10 -12q14 -16 14 -49q0 -30 -13.5 -49.5t-33.5 -19.5q-7 0 -20 3.5t-20 2.5q-15 0 -59 -39q-4 -3 -6 -5
q-7 -7 -15.5 -14l-18.5 -16l-16 -14q-5 -5 -22.5 -20.5t-26.5 -24.5q-17 -17 -17 -24q1 -11 18 -40q14 -25 32 -53q21 -37 23 -40l13 -20t16 -26z" />
    <glyph glyph-name="L" unicode="L" horiz-adv-x="667" 
d="M351 565h-13q-19 -4 -23 -20q-3 -14 -3 -77q0 -138 1 -207q0 -90 7 -104q8 -15 28 -20q15 -4 66 -4q69 0 88 12q21 13 21 41q0 12 -4.5 35.5t-4.5 35.5q0 33 23 56q26 25 63 25q31 0 52 -13q34 -23 34 -74q0 -16 -3.5 -49.5t-3.5 -50.5q0 -8 0.5 -17t1.5 -20t1 -17
q0 -4 1 -10.5t1.5 -12t0.5 -10.5q0 -28 -13 -45q-4 -6 -8 -8q-15 -12 -49 -12q-9 0 -29 1t-29 1l-67 3l-125 3l-96 3q-9 0 -28 -0.5t-29 -0.5q-58 -3 -59 -3q-17 -1 -51 -5q-20 -2 -30 -2q-25 0 -42.5 13t-23.5 29q-5 10 -5 35q0 19 3 31q15 29 31 35q5 3 19 3
q7 0 20.5 -2.5t21.5 -2.5q20 0 25 21q3 11 3 78v243q0 33 -1 50l-1 4q0 5 -1 9t-3.5 8.5t-8 7.5t-12.5 3t-22 -3.5t-23 -3.5q-23 1 -37.5 19.5t-14.5 52.5q0 32 17 51q12 14 27 20q12 4 33 4q12 0 34 -2t30 -2q2 0 55 -3q36 -2 56 -2q30 0 60 3q41 6 64 7q20 1 34 -4
q47 -16 47 -70q0 -33 -14.5 -53t-36.5 -20q-9 0 -27.5 3.5t-27.5 3.5z" />
    <glyph glyph-name="M" unicode="M" horiz-adv-x="1042" 
d="M123 259v115q0 91 -1 137v7.5v9t-0.5 8.5t-1.5 9.5t-3 8t-5 6.5t-7.5 4t-10.5 2q-8 0 -21.5 -3t-20.5 -3q-13 0 -25 7q-28 17 -28 61q0 39 20 59q18 13 25 16q11 4 26 4q19 1 82 -6q43 -4 98 -4q46 0 93 3q1 0 22 1.5t31 1.5q21 0 31 -10q5 -3 11 -14l16 -64
q3 -16 11 -46.5t11 -45.5q35 -136 44 -190q6 -29 7 -46q0 -1 0.5 -4t1 -5.5t0.5 -5t0.5 -3.5t1.5 -1q2 0 5 22l6 28q10 48 31 129l29 111q6 24 20 72q12 44 19 55q12 20 36 20q9 0 26 -2t21 -2q76 -4 113 -4q44 0 97 5q34 4 50 4q18 0 32 -5q42 -17 42 -69q0 -26 -12 -49
t-40 -23q-7 0 -21.5 2.5t-22.5 2.5q-16 0 -23 -14q-3 -7 -4 -29t0 -67.5t1 -60.5q0 -95 -1 -143q0 -84 5 -96q5 -13 23 -13q7 0 21.5 2.5t22.5 2.5q14 0 21 -4q31 -16 31 -66q0 -33 -16 -53q-21 -23 -61 -23q-12 0 -34 2t-28 2q-32 3 -63 3q-22 0 -64 -4q-5 0 -14.5 -1
t-17.5 -1.5t-15 -0.5q-27 0 -42 10q-30 21 -30 71q0 11 3 22q8 40 38 40q4 0 12 -1.5t13 -1.5q15 0 18 18q3 9 3 79q1 18 1 54v74v88v76q0 41 -1 41t-7 -22t-6 -24q-12 -48 -22 -83l-27 -93q-15 -56 -28 -98l-36 -124q-18 -60 -28 -82q-8 -15 -16 -22q-7 -6 -17 -8.5t-16 -3
t-19.5 0t-15.5 0.5q-9 -1 -26 -1q-35 0 -49 22q-6 8 -13 32q-1 3 -3 9.5t-3 9.5q-13 41 -35 121q-45 150 -70 247q-12 45 -24 97q-3 15 -4 15q-3 0 -3 -11q2 -10 2 -13q0 -12 1 -18q0 -15 0.5 -43t0.5 -42v-42.5v-50.5v-43q0 -97 1 -116q1 -24 5.5 -33.5t18.5 -9.5q3 0 11 1
t12 1q9 0 17 -5q23 -15 23 -57q0 -47 -28 -68q-8 -6 -19.5 -9t-19.5 -3l-7 -1q-13 0 -57 7q-44 4 -66 4q-28 0 -65 -5l-51 -6q-51 1 -66 41q-7 14 -7 37q0 31 16 51q14 18 37 18q4 0 23.5 -3.5t28.5 -1.5t15 14q3 8 3.5 24t0 35t0.5 43z" />
    <glyph glyph-name="N" unicode="N" horiz-adv-x="833" 
d="M753 495v-38q-1 -20 -1 -58v-103q0 -30 0.5 -89.5t0.5 -88.5q0 -72 -4 -86q-12 -30 -36 -35q-8 -2 -19 -2t-30 1t-34 1q-9 0 -25 -0.5t-24 -0.5q-18 -2 -26 -2q-22 0 -36 10q-4 3 -7.5 6.5t-7 8.5t-6 9.5t-6.5 13l-6.5 13.5t-7 15.5t-7.5 15.5l-58 129l-68 151l-22 53
q-33 89 -35 94q-3 16 -5 16q-1 -1 -2 -3q-2 -2 -0.5 -10.5t1.5 -15.5q0 -8 0.5 -24t0.5 -24q1 -27 1 -81q2 -118 2 -176q0 -29 5 -41q6 -14 20 -14q5 0 15 2q21 3 27 3q26 0 38.5 -22t12.5 -48q-1 -36 -23 -56q-19 -18 -53 -18q-22 0 -64 6q-44 4 -65 4q-31 0 -58 -4l-66 -6
q-34 0 -54.5 19.5t-20.5 53.5t16 55q13 18 36 18q7 0 22.5 -2.5t23.5 -2.5q16 0 22 17q4 11 4 176v128q0 55 -1 66q-2 22 -12 29q-7 4 -15 4q-7 0 -21.5 -3t-22.5 -3q-28 0 -40 23t-12 51q0 14 4 28t21 29t44 16q17 1 66 -6q37 -4 83 -4q35 0 77 5q1 0 22 3t31 3
q32 0 48 -34q4 -8 10.5 -23.5t9.5 -20.5q9 -18 24 -53.5l22 -51.5q97 -224 118 -284q7 -17 11 -31q1 -2 2 -6t2 -7l2 -6t2 -5t2 -1t1 6q0 14 -2 42l-3 98q-1 30 -1 90.5t-1 90.5q0 31 -7 44q-7 10 -21 10q-6 0 -19.5 -2.5t-20.5 -2.5q-13 0 -23 6q-26 20 -26 64q0 31 14 49
q19 26 61 26q19 0 57 -6q27 -3 53 -3q18 0 86 7q32 4 48 4q30 0 49 -16q25 -20 25 -60q0 -33 -14.5 -51.5t-36.5 -18.5q-6 0 -19.5 2.5t-21.5 1.5q-6 0 -10.5 -1.5t-7 -6l-4.5 -8t-2.5 -11t-1 -11.5t-0.5 -14.5v-14.5z" />
    <glyph glyph-name="O" unicode="O" horiz-adv-x="708" 
d="M358 722q90 0 155 -29q27 -13 53 -33q30 -27 42 -41q84 -100 84 -273q0 -94 -28 -167q-35 -92 -109 -141q-78 -52 -191 -52q-82 0 -144 25q-22 10 -34 16q-67 40 -106 114q-46 87 -46 209q0 73 13 130q30 111 94 167q47 42 114 60q53 14 103 15zM359 572q-40 0 -70 -24
q-57 -48 -57 -196q0 -116 31 -165q34 -53 101 -53q47 0 79 26q5 4 13 13q7 7 15 20q26 49 26 144q0 63 -9 111q-10 61 -42 93q-20 21 -47 27t-40 4z" />
    <glyph glyph-name="P" unicode="P" horiz-adv-x="667" 
d="M420 703h26q126 -10 185 -85q48 -62 48 -149q0 -103 -75 -171q-69 -61 -192 -61q-11 0 -33 0.5t-33 0.5q-1 0 -7.5 0.5t-8.5 0t-7 -2t-7.5 -5t-3.5 -9.5q-2 -8 -2 -30q0 -31 5 -40q7 -15 24 -15q10 0 32.5 3.5t35.5 3.5q24 0 38 -21q13 -15 13 -48q0 -22 -7 -37
q-17 -38 -69 -38l-69 6q-47 5 -84 5q-31 0 -95 -6q-52 -5 -61 -5q-34 0 -53 21q-19 20 -19 55q0 32 15 53q13 17 36 17q8 0 23.5 -2.5t23.5 -2.5q16 0 22 16q3 7 3.5 26t0 42t0.5 50v193q0 34 -1 51q0 23 -5 31q-8 13 -22 12q-7 0 -25.5 -4t-31 -1.5t-23.5 15.5
q-18 22 -18 57q0 31 18 52q17 17 49 22q8 0 70 -5q48 -2 72 -2q36 0 106.5 3.5t105.5 3.5zM359 555q-42 -2 -47 -22q-2 -8 -2 -102q0 -26 2 -39q0 -12 10 -17q9 -4 40 -4q53 0 83 18q25 16 33 47q4 12 4 31q0 33 -16 55q-12 14 -30 22q-9 3 -26 7q-34 6 -51 4z" />
    <glyph glyph-name="Q" unicode="Q" horiz-adv-x="708" 
d="M527 23q5 -23 8 -29q1 -6 7.5 -13t15.5 -7q8 0 12 3q7 4 15 28q5 14 14 22q14 12 37 12t40 -12q27 -20 27 -62q0 -20 -8 -43q-30 -83 -153 -83q-50 0 -85 15q-12 5 -23 13q-29 20 -40 46q-6 14 -9.5 40t-5.5 33h-21q-20 1 -33.5 2t-37.5 5t-45 11q-24 8 -47 19
q-30 15 -54 38q-38 36 -61 80q-12 23 -23 61q-8 22 -12 43q-10 45 -10 110q0 29 3 61q15 164 117 242q32 25 73 39q64 24 134 24q87 0 152 -30q33 -15 65 -44q51 -46 78 -115q34 -81 34 -190q0 -124 -51 -212q-29 -44 -54 -67q-21 -20 -59 -40zM336 133q-10 23 -32 45
q-21 19 -21 48q0 26 18 44q22 22 65 22q55 0 82 -45q11 -20 19 -63q12 26 14 32q17 42 17 130q0 83 -18 139l-2 5q-2 6 -5 13t-7.5 15t-11.5 16.5t-16 15.5q-30 22 -74 22q-20 0 -30 -2q-40 -9 -62 -35t-32 -64q-13 -52 -13 -119q0 -37 5 -84q12 -73 44 -104q21 -20 60 -31z
" />
    <glyph glyph-name="R" unicode="R" horiz-adv-x="750" 
d="M124 214v48q0 25 0.5 75t0.5 76q0 31 -2 99q-1 19 -2 27.5t-7 15.5t-18 7q-8 0 -23 -2.5t-23 -2.5q-27 0 -39 22.5t-12 48.5q0 16 4.5 31t22.5 30t49 15q10 0 21.5 -1t25 -2.5t21.5 -2.5q52 -5 91 -5q45 0 133 6q73 5 88 5q79 0 131 -28q22 -11 45 -34q44 -46 44 -122
q0 -46 -20 -79q-11 -19 -32 -34t-32.5 -19.5t-17.5 -6.5q-1 -1 -23 -6q-5 -1 -13 -3q-5 -1 -15 -1q7 -3 12 -3q94 -9 121 -77q10 -25 10 -96q0 -14 0.5 -21t2.5 -16t7 -12.5t13 -3.5q6 0 17 2.5t16 2.5q11 0 22 -9q25 -19 25 -61q0 -52 -38 -69q-15 -7 -34 -7q-10 0 -31 2
t-31 2q-12 0 -35 -2.5t-34 -2.5q-42 0 -64 27q-8 8 -12 19q-12 26 -12 73q0 8 1 34t0 40q-2 38 -16 58q-16 22 -39.5 28.5t-71.5 6.5q-27 0 -33 -7q-7 -5 -8 -19q-3 -17 -3 -50q0 -50 9 -60q6 -8 20 -8q7 0 21 2.5t21 2.5q12 0 23 -9q25 -18 25 -63q0 -35 -20.5 -54.5
t-54.5 -19.5q-20 0 -62 6q-44 4 -65 4q-39 0 -97 -7q-5 0 -25 -2t-31 -2q-21 0 -39 11q-1 0 -4 2t-7 6q-21 19 -21 58q0 36 21 58q12 12 30 12q7 0 22 -3.5t23 -3.5q20 0 26 21q2 9 2 53zM308 475v-26q0 -18 7.5 -26t33.5 -8q129 0 129 81q0 23 -13 41q-3 7 -15 14
q-28 18 -84 15q-28 0 -43 -9q-11 -6 -14 -19q-1 -8 -1 -63z" />
    <glyph glyph-name="S" unicode="S" horiz-adv-x="604" 
d="M446 647q2 26 2 27q10 36 62 36q22 0 37 -10t20 -24q5 -10 5 -32q0 -12 -2.5 -37t-2.5 -38q0 -11 2 -33q3 -16 3 -33q0 -23 -11 -39q-19 -25 -61 -25q-21 0 -42 10.5t-28 30.5q-2 7 -4 19.5t-3 17.5q-4 19 -18 33q-32 28 -98 28q-42 0 -65 -21q-18 -17 -18 -43
q0 -21 15 -34q5 -8 19 -14q14 -7 78 -19q132 -27 183 -65q41 -31 59 -71q18 -41 18 -85q0 -79 -44 -140q-29 -42 -83.5 -69.5t-126.5 -27.5q-82 0 -144 35q-2 1 -35 24q-5 -26 -18 -39q-16 -15 -45 -15q-31 0 -51 17.5t-20 48.5q0 10 5 55q3 21 3 42q0 11 -2 33q-4 24 -4 36
q0 10 2 19q6 20 27 33t52 13q37 0 58 -19q15 -14 23 -62q4 -33 20 -48q33 -32 102 -32q38 0 62 16q8 5 18 18q13 21 13 39q0 30 -22 50q-11 9 -33.5 16.5t-65.5 17.5t-66 17q-30 9 -51 17q-94 40 -118 127q-7 38 -7 57q0 51 25 100.5t79 79.5q58 31 127 31q83 0 138 -41
q12 -8 32 -28z" />
    <glyph glyph-name="T" unicode="T" horiz-adv-x="667" 
d="M436 480v-66q1 -55 1 -164l-1 -30q0 -29 1 -30q0 -27 6 -39.5t24 -12.5q7 0 17 2q11 1 38 5q3 0 9 0.5t9 0.5q22 0 37 -18t15 -52t-19 -55q-14 -14 -27 -17q-10 -3 -30 -3q-14 0 -39.5 2t-34.5 2q-66 4 -99 4q-52 0 -115 -5q-8 0 -29 -2t-32 -2q-42 0 -62 29
q-13 19 -13 44q0 42 22 61q14 12 30 12q8 0 26 -4q35 -5 43 -5q17 0 25 8q7 9 9 50q1 18 1 55q0 26 -0.5 78t-0.5 79q2 58 -1 103q-2 33 -7 41q-13 20 -44 20q-46 0 -46 -37l3 -30q3 -18 3 -34q0 -48 -26 -72q-18 -17 -50 -17q-38 0 -59 23.5t-21 61.5q0 8 5 50q3 20 3 40
q0 17 -3 51t-3 51q0 32 20 42q12 3 18 3q8 1 64 -2q21 -2 63 -4q70 -3 141 -3q137 0 165 1q12 0 25 0.5t29.5 1.5t25.5 1q50 2 74 4q6 1 17 1q27 0 37 -20q4 -8 4 -23q0 -7 -0.5 -14.5t-1.5 -16.5t-1 -15q-3 -28 -3 -59q0 -15 3.5 -44t3.5 -43q0 -29 -13 -52q-7 -12 -11 -15
q-20 -20 -55 -20q-31 0 -50 17q-26 24 -26 69q0 6 0.5 12t1.5 14t1 12l3 27q0 9 -2 16q-9 24 -46 24q-25 0 -39 -13q-5 -5 -8 -12.5t-4 -18t-1.5 -17.5t0 -18t0.5 -13z" />
    <glyph glyph-name="U" unicode="U" horiz-adv-x="792" 
d="M514 332v79q0 79 -2 117q0 24 -10 32q-3 2 -27 2q-14 0 -23 7q-21 14 -21 56q0 28 12 48q18 32 58 32q9 0 25 -2t21 -2q37 -5 65 -5q33 0 73 5q34 4 51 4q33 0 50 -17q23 -19 23 -58q0 -26 -12 -48t-39 -22q-6 0 -20 2q-10 2 -15 2q-17 0 -25 -21q-2 -12 -2 -36
q0 -13 1 -40t1 -41q3 -79 3 -158q0 -40 -2 -59q-6 -96 -63 -149q-79 -76 -243 -76q-63 0 -118 16q-21 5 -38 13q-6 2 -29 15q-32 20 -54 50q-20 28 -29 66t-10 67t-1 109v108q1 18 1 54q0 57 -5 66q-5 15 -23 15q-6 0 -18.5 -2.5t-19.5 -2.5q-11 0 -21 6q-29 15 -29 63
q0 29 10 46q5 10 15 16q19 15 45 15q16 1 63 -6q38 -3 75 -3q22 0 66 6q28 4 43 4q52 0 67 -45q5 -15 5 -35q0 -27 -11 -45t-29 -18q-3 0 -7.5 1t-8.5 1.5t-8 0.5q-12 0 -17 -15q-3 -8 -3 -66q0 -141 1 -211v-7q0 -25 1 -40t9.5 -36.5t25.5 -33.5q27 -20 70 -20q52 0 83 34
q22 25 22 91q0 23 -2 71z" />
    <glyph glyph-name="V" unicode="V" horiz-adv-x="771" 
d="M692 523l-12 -36q-5 -14 -28 -83l-52 -159l-40 -118l-21 -56q-18 -48 -36 -63q-10 -9 -23.5 -12.5t-23.5 -4t-34 0t-39 0.5q-5 0 -17 -0.5t-17 -0.5q-41 0 -62 35q-9 16 -36 90q-16 46 -38 119l-53 164q-24 76 -38 113q-15 40 -25 47q-4 4 -14 4q-5 0 -16.5 -1.5
t-17.5 -1.5q-22 0 -34 17q-14 19 -14 52q0 21 4 31q15 39 59 43q16 1 54 -3q33 -3 34 -3q11 -1 35 -1q36 0 83 5q43 5 51 5q44 0 61 -38q9 -18 9 -42q0 -20 -9.5 -41t-31.5 -20q-28 0 -30 -1q-11 -2 -11 -14q0 -4 38 -138q10 -35 22 -83q11 -37 26 -103q4 -13 5 -22
q5 -21 7 -21q3 1 21 69q2 6 24 88l27 92l13 41.5t13 43.5q7 25 7 30q0 6 -1 10q-3 8 -16 8q-3 0 -8 -0.5t-8 -0.5h-7.5t-7.5 1q-33 8 -33 62q0 10 1.5 19.5t7.5 25t21.5 25t39.5 9.5q14 0 63 -7q20 -2 61 -2q36 0 55 2l54 6q21 0 35 -7q39 -16 39 -69q0 -31 -13.5 -50
t-34.5 -19q-5 0 -15.5 2t-15.5 2t-9 -1t-7.5 -4t-5.5 -5t-5 -7.5t-3.5 -7t-3.5 -9.5z" />
    <glyph glyph-name="W" unicode="W" horiz-adv-x="1021" 
d="M310 565h-10q-14 -3 -14 -19q0 -4 2 -16l3 -21l12 -72q25 -161 33 -234l3 -23l6 32q1 9 3.5 26l3.5 24q15 95 48 247l27 115q14 56 18 62l1 2q2 2 4 4.5t3 3.5q8 7 22.5 7t32.5 -2h26q12 0 37 1.5t37 1.5q6 0 10.5 -1t8 -2t6 -4t4.5 -4.5t4 -6.5l3 -7.5t2.5 -10t2 -10.5
t1.5 -12t2 -13l9 -51q2 -10 5.5 -31.5t5.5 -32.5q30 -184 39 -254q2 -17 7 -74q0 -2 0.5 -6.5t1 -7.5t1.5 -3q1 2 2 3q1 4 1.5 7.5t1 10t1.5 12.5l23 126q8 46 26 138l9 47q5 23 5 28q0 15 -9 18q-5 1 -8.5 0.5t-12.5 -1t-15 -0.5q-17 1 -28 18t-11 45q0 27 10 46q3 7 14 18
q12 9 15 10q12 5 31 5t57 -4q34 -2 52 -2q29 0 56 3q5 0 14 1t16.5 1.5t14.5 0.5q17 0 30 -5q44 -16 44 -69q0 -31 -13 -50q-14 -21 -37 -21q-4 0 -13.5 2t-14.5 2q-16 0 -24 -18q-6 -16 -11 -43q-4 -22 -7 -33q-2 -9 -6 -25.5l-7 -30t-5 -25.5l-36 -166q-14 -67 -25 -113
l-12 -45q-15 -46 -22 -53q-12 -10 -35 -10q-14 0 -41 1.5t-40 1.5q-18 0 -27 -1q-20 -2 -29 -2q-29 0 -42 18q-10 14 -20 68q-4 19 -13 70q-14 82 -24 155q-2 14 -5.5 44t-5.5 45q-6 41 -8 65q0 23 -2 23q-3 -1 -6 -32l-6 -41q-16 -116 -41 -236q-21 -110 -25 -127
q-9 -30 -21 -41t-37 -11q-11 0 -33 1.5t-33 1.5q-12 0 -42 -2q-16 -2 -24 -2q-27 0 -42 32q-13 29 -41 161l-44 224q-27 125 -34 135q-8 10 -23 10q-5 0 -15.5 -2t-16.5 -2q-24 0 -37.5 19t-13.5 54q0 29 17 50t49 22q14 1 58 -3q31 -4 70 -4q31 0 61 3q37 5 45 5
q22 0 35 -7q15 -7 26 -26t11 -45q0 -21 -9.5 -42t-31.5 -21q-7 0 -21 2z" />
    <glyph glyph-name="X" unicode="X" horiz-adv-x="750" 
d="M387 428l50 76q27 40 27 53q0 10 -8 14q-1 1 -5.5 3.5t-9 5.5t-8.5 7q-14 15 -14 41q0 35 22 58q17 17 48 17q1 0 52 -6q25 -3 52 -3q17 0 53 4q6 0 22 2t25 2q23 0 39 -9t22.5 -23t9 -24.5t2.5 -20.5q0 -32 -14.5 -51t-35.5 -19q-5 0 -15 2t-16 2q-9 0 -17 -6
q-13 -10 -63 -78l-83 -114l32 -49l15.5 -25.5t19.5 -30.5l35 -54q12 -20 24 -36l8 -10.5t7 -7.5t10 -6.5t12 -1.5q6 0 16.5 2t15.5 2q16 0 26 -8q25 -21 25 -61q0 -22 -10 -41q-20 -34 -62 -34q-10 0 -27.5 2t-23.5 2q-29 4 -68 4q-37 0 -66 -4q-37 -5 -46 -5q-41 0 -54 36
q-5 14 -5 32q0 37 27 52q27 13 27 23q0 12 -14 35l-22 36q-15 29 -35 62l-44 -68q-20 -30 -28 -46q-9 -15 -9 -20q0 -4 1.5 -6.5t4.5 -5t4.5 -3.5t7 -3.5t6.5 -2.5q8 -4 15 -11q11 -15 11 -44q0 -42 -28 -58q-12 -7 -32 -7q-15 0 -47 4q-44 4 -65 4q-32 0 -70 -5
q-5 0 -20 -2t-24 -2q-33 0 -52.5 21t-19.5 55v7.5t2.5 16t7 20.5t15 16.5t25.5 7.5q13 0 25 -3q4 -1 12 -1t16.5 5.5t12.5 10t5 6.5l28 37l31 42l73 105l-62 95l-41 59q-12 19 -18.5 28.5t-20.5 21t-27 11.5q-5 0 -17 -2.5t-18 -2.5q-21 2 -34.5 19.5t-13.5 50.5q0 37 20 57
q21 20 54 20q8 0 23.5 -2t19.5 -2q30 -5 54 -5q30 0 68 5q48 5 59 5q22 0 34 -5q18 -9 28 -30t10 -39q-1 -38 -34 -54l-3 -1q-2 -2 -3.5 -3t-3.5 -3t-3 -5t-1 -6q0 -14 64 -129z" />
    <glyph glyph-name="Y" unicode="Y" horiz-adv-x="750" 
d="M255 331l-51 84l-35 55l-37 59q-1 2 -4.5 6.5t-4.5 6l-3.5 5t-3.5 4.5l-4 4t-4.5 3.5t-4.5 2t-5.5 2t-5.5 1t-7 0.5q-5 0 -22 -3t-28 0t-20 16q-15 21 -15 49q0 60 46 75q12 3 28 3q10 0 30 -2q5 0 15 -2t15 -2q15 -1 44 -1q31 0 61 3q6 1 16 2.5t18.5 2.5t16.5 1
q56 4 74 -41q8 -16 7 -36q0 -30 -23 -47q-18 -10 -20 -12q-5 -4 -5 -11q0 -13 18 -44l15 -31q4 -8 13 -24.5t13 -24.5q13 -29 18 -29q1 0 14 23q3 6 11 20q20 40 31 60l2 3q2 4 5 9t5.5 11t4.5 13t2 12q0 6 -4 9.5t-16 10.5q-8 6 -14 12q-11 13 -11 40q0 50 33 68q16 8 39 8
q10 0 57 -5q24 -3 50 -3q27 0 52 3q6 0 23.5 2t27.5 2q31 0 49 -13q12 -10 15 -19q11 -18 11 -42q0 -34 -14 -52t-34 -18q-6 0 -20 2.5t-22 2.5q-11 0 -19 -5q-11 -7 -41 -54l-32 -53l-87 -140q-26 -43 -30 -54q-4 -13 -4 -65q0 -30 7 -42.5t27 -12.5q9 0 28.5 4t29.5 4
q14 0 27 -10q23 -19 23 -61q0 -37 -20 -55q-20 -20 -55 -20l-75 6q-29 4 -66 4t-113 -6q-60 -6 -62 -6q-24 0 -44 14q-5 3 -9 9q-18 21 -18 55q0 33 15 50.5t36 17.5q10 0 30 -3t30 -3q20 0 25.5 12.5t5.5 43.5q0 38 -5 55q-3 10 -46 81z" />
    <glyph glyph-name="Z" unicode="Z" horiz-adv-x="625" 
d="M411 5h-178q-83 0 -125 -2q-4 0 -12 -0.5t-13 -0.5q-26 0 -42 9q-37 17 -37 59q0 10 2 20t7 21.5l8.5 19t13.5 21l13.5 18.5t16 21.5t15.5 19.5l55 72l138 181l89 115q-55 0 -83 1q-55 0 -66 -1q-22 -4 -29 -15q-4 -6 -4 -24q0 -8 2 -26t2 -27q0 -34 -19 -53
q-23 -23 -61 -23q-32 0 -53 19q-23 21 -23 58q0 14 4 44t4 44q0 12 -3.5 37.5t-3.5 39.5q0 26 15 40q13 12 45 12q18 0 56 -2q40 -2 59 -2q63 -1 188 -1q29 0 43 1q48 0 72 1q6 0 18 0.5t18 0.5q29 0 43 -12q24 -19 24 -60v-6q-1 -9 -4 -18.5t-6 -16.5t-10.5 -18l-11 -16
t-14 -18.5l-13.5 -17.5l-84 -108l-217 -279h44.5h52h44.5q32 0 48 2q23 2 30 12q6 8 6 18q0 22 -1 34q-4 30 -4 46q0 18 4 31q17 47 72 47q27 0 47 -14q11 -7 17 -16q14 -23 14 -57q0 -14 -4 -42.5t-4 -43.5q0 -12 3.5 -39.5t2.5 -41.5q0 -30 -15 -48q-19 -20 -67 -20
q-1 0 -79 3q-9 0 -25.5 0.5t-24.5 0.5z" />
    <glyph glyph-name="bracketleft" unicode="[" horiz-adv-x="542" 
d="M311 514v-88v-277v-131q0 -62 6 -72q9 -13 34 -13q9 0 46 5q35 6 69 6q57 0 80 -28q14 -19 14 -44q0 -22 -12 -38q-21 -28 -72 -28q-9 0 -19.5 0.5t-23.5 1.5t-20 1q-21 1 -64 1q-75 0 -113 -2h-31q-39 0 -52 20q-6 11 -8 45q-1 0 -1 36l1 36q1 42 1 127v328
q0 118 -1 178q0 18 -0.5 53t-0.5 53q0 35 10 48q15 20 52 20q10 0 28 -1t28 -1q48 -2 73 -2q37 0 75 3l56 3q55 1 76 -20q19 -19 19 -52q0 -23 -11 -39q-21 -29 -77 -29q-20 0 -58 4t-57 4q-35 0 -42 -22q-5 -12 -5 -86z" />
    <glyph glyph-name="backslash" unicode="\" horiz-adv-x="354" 
d="M230 -18l-228 724h128l228 -724h-128z" />
    <glyph glyph-name="bracketright" unicode="]" horiz-adv-x="542" 
d="M415 383v-348q0 -95 1 -142q3 -56 -18 -72q-13 -10 -42 -10q-13 0 -39.5 1t-39.5 1q-16 1 -50 1q-43 0 -87 -3q-7 0 -19 -1t-22 -1.5t-19 -0.5q-55 0 -73 36q-8 13 -8 35q0 44 34 61q18 8 56 8q19 0 56.5 -3.5t56.5 -3.5q15 0 23 2q7 2 12 7t7.5 10t3.5 13t1 12v13v8
q0 35 1 52v168q0 34 -0.5 102.5t-0.5 103.5q0 12 0.5 37t0.5 38q0 7 -0.5 19t-0.5 19q1 21 0 42q0 15 -2 22q-7 20 -35 20q-18 0 -50 -4q-48 -6 -71 -6q-56 0 -77 28q-14 20 -14 42t12 39q20 27 62 28q9 1 23.5 0t19.5 -1q10 -1 28 -1q18 -2 25 -2q11 -1 34 -1q24 0 70.5 2
t69.5 2q56 0 65 -26q3 -8 4.5 -19t2 -18t0 -28t-0.5 -31t-0.5 -28t-0.5 -27q0 -32 0.5 -97t0.5 -98z" />
    <glyph glyph-name="asciicircum" unicode="^" horiz-adv-x="729" 
d="M615 311h-138l-110 231l-116 -231h-137l203 395h104z" />
    <glyph glyph-name="underscore" unicode="_" horiz-adv-x="500" 
d="M510 -240h-520v127h520v-127z" />
    <glyph glyph-name="grave" unicode="`" 
d="M88 721l7 -7q23 -19 32 -27l6 -6l6 -6l5 -5l4 -4l5 -5l5 -5t4.5 -6.5t3.5 -7.5t3 -9t1 -11q0 -21 -15 -39t-36 -18q-31 0 -161 94l-6 5q-6 4 -9 6.5t-9 8.5t-9.5 11.5t-6 13.5t-2.5 16q0 10 5 21q7 20 23 34t35 15q28 2 72 -37z" />
    <glyph glyph-name="a" unicode="a" horiz-adv-x="583" 
d="M509 247v-58l-1 -23q0 -22 1 -22q0 -15 7 -21q5 -5 23 -3q4 1 13 1q23 0 36.5 -16.5t13.5 -39.5q0 -29 -22 -49q-11 -10 -21 -15q-24 -12 -68 -12q-54 0 -86 30q-8 8 -24 31q-18 -16 -34 -26q-57 -34 -139 -34q-74 0 -122 36q-57 42 -57 120q0 22 5 41q15 68 84 97
q24 9 108 25q14 2 42 8q37 10 46 15q30 19 30 55q0 15 -8 27q-17 28 -59 28q-15 0 -21 -2q-15 -4 -17 -16q-1 -3 0 -10.5t1 -9.5q0 -34 -23 -53q-24 -18 -60 -18q-41 0 -69.5 23.5t-28.5 65.5q0 40 35 72q10 10 33 21q57 27 168 27q86 0 142 -29q40 -20 57 -57t17 -115
q0 -16 -1 -47.5t-1 -46.5zM346 230q-31 -16 -63 -21q-56 -10 -64 -14q-24 -13 -24 -37q0 -4 2 -14q12 -30 53 -30q11 0 29 3q53 12 65 58q5 18 2 55z" />
    <glyph glyph-name="b" unicode="b" horiz-adv-x="604" 
d="M83 101v62q-1 46 -1 139q0 26 0.5 76.5t0.5 75.5q0 58 -2 86t-3 30q-4 12 -14 12q-1 0 -10 -3q-4 -2 -13 -2q-13 0 -22 9q-19 16 -19 53q1 16 3 24q11 41 55 41q7 0 21 -2t18 -2q26 -4 40 -4q16 0 46 4q25 5 30 5q23 0 29 -19q3 -7 3 -45q0 -28 -0.5 -85t-0.5 -85
q14 17 16 18q23 23 49 35q34 18 81 18q59 0 108 -36q32 -26 51 -59q42 -70 42 -175q0 -175 -104 -247q-55 -39 -126 -39q-65 0 -112 33q-22 17 -38 38q-2 3 -11 18q4 -20 4 -31q0 -27 -19 -41q-14 -12 -40 -12q-38 0 -55 27q-9 15 -7 83zM333 399q-47 -4 -70 -57
q-15 -32 -15 -85q0 -60 24 -95q23 -36 61 -36q35 0 55 22q33 34 33 113q0 51 -14 86q-3 8 -9 19q-26 36 -65 33z" />
    <glyph glyph-name="c" unicode="c" horiz-adv-x="542" 
d="M352 398q-27 14 -50 14q-48 0 -75 -34q-13 -19 -16 -25q-15 -36 -15 -83q0 -65 28 -104q19 -26 46 -34q20 -6 34 -6q46 0 65 29q7 9 14 35q0 12 13 25q20 23 58 23q27 0 46 -12q8 -5 15 -12q18 -18 18 -53q0 -60 -52 -110q-68 -64 -175 -64q-14 0 -38 2q-9 0 -25 2
q-59 11 -103 40l-9 7q-9 7 -17 15q-16 12 -34 37q-10 16 -14 24q-12 23 -17 38q-19 48 -19 116q0 73 24 129q17 42 47 72q11 11 29 23q73 52 177 52q87 0 145 -37q68 -45 68 -115q0 -43 -26 -68q-28 -26 -69 -26q-52 0 -72 36q-10 18 -10 31q0 7 9 33z" />
    <glyph glyph-name="d" unicode="d" horiz-adv-x="625" 
d="M556 585v-78q0 -162 -1 -243q0 -13 0.5 -38t0.5 -37q0 -37 1 -45q3 -23 17 -23q6 0 17 2t16 2q18 -1 29 -17q11 -15 11 -44q0 -47 -34 -60q-8 -4 -28 -4q-11 0 -35 2t-35 2q-19 0 -39 -3q-4 0 -11.5 -0.5t-10.5 -0.5q-37 0 -37 39v36q-15 -23 -30 -38q-50 -48 -127 -48
q-61 0 -111 30q-9 3 -24 18q-38 33 -63.5 92t-25.5 135q0 109 52 183q17 24 40 42q51 41 124 41q64 0 113 -34q12 -8 34 -28q-1 27 0 54v10.5v14t-1.5 13.5t-4 13t-8.5 8t-14 4q-9 0 -25 -3.5t-25 -3.5q-22 0 -31.5 19.5t-9.5 42.5q0 46 32 59q11 4 29 4q8 0 23.5 -1
t23.5 -1q30 -2 45 -2q18 0 50 2q4 0 12 0.5t12 0.5q27 0 39 -15q10 -12 10 -102zM290 395q-37 0 -61 -36q-24 -37 -24 -106q0 -60 25 -95q23 -35 64 -35q37 0 59.5 23.5t30.5 47.5q10 27 10 71q0 43 -13 70q-14 29 -39 45t-52 15z" />
    <glyph glyph-name="e" unicode="e" horiz-adv-x="562" 
d="M436 238h-181q-37 0 -41 -2q-9 -3 -9 -15q0 -2 0.5 -6t0.5 -6q4 -29 17 -51q27 -44 83 -44q44 0 74 35q5 6 9 11.5t7.5 9.5t11.5 10q22 16 53 16q28 0 50 -16q11 -8 13 -12q11 -13 11 -39q-1 -35 -23.5 -62.5t-48.5 -43.5q-63 -38 -161 -38q-74 0 -137 32q-18 9 -32 20
q-42 33 -70.5 92t-28.5 136q0 27 5 60q17 89 64 141q67 76 193 80q116 0 180 -62q12 -12 16 -17q52 -62 52 -161q0 -33 -8 -48q-6 -13 -22 -18q-9 -2 -78 -2zM292 430q-22 0 -40 -10q-22 -12 -31.5 -29t-9.5 -27q0 -8 6 -11t102 -3q24 0 35 1q14 0 19 2t5 12q0 21 -16 39
q-23 26 -70 26z" />
    <glyph glyph-name="f" unicode="f" horiz-adv-x="396" 
d="M256 381v-75q0 -16 0.5 -48t0.5 -48q0 -7 -0.5 -19.5t-0.5 -22.5t1 -19q2 -28 21 -28q2 0 7 0.5t8 0.5q15 3 29 3q17 0 28 -13q13 -14 13 -48q0 -20 -6 -32q-13 -31 -53 -31q-9 0 -49 5q-7 0 -21 1t-21 1q-6 0 -20 0.5t-21 0.5q-43 0 -74 -5q-4 0 -18 -2t-22 -2
q-23 0 -37 12q-2 1 -11 12q-10 16 -10 43q0 25 9 39q13 21 34 21q9 0 21 -5q9 -3 16 -3q9 0 13 10q3 7 3.5 28.5t0 39.5t0.5 28v164q0 16 -5 20q-4 5 -30 5q-41 0 -54 20q-9 14 -9 38q0 46 32 55q6 2 35 2h5h7t6.5 1t6 2.5t3.5 4.5t2 8q0 67 27 105q33 45 92 58q19 6 39 9
q14 2 43 2q82 0 124 -31q43 -33 43 -80q0 -41 -30 -63q-18 -14 -46 -14q-38 0 -58 26q-10 17 -10 32q0 7 5 29q-42 7 -58 -13q-6 -6 -9 -18q-2 -9 -2 -22q0 -3 0.5 -8t0.5 -7q0 -10 2 -13q2 -5 8 -7q1 0 10 -0.5t15 -0.5q3 0 12 0.5t14 0t12.5 -1.5t13.5 -5t10 -11
q10 -18 10 -38q0 -16 -6 -30q-6 -18 -21 -24q-7 -3 -65 -5q-9 0 -12 -6q-2 -3 -4 -28z" />
    <glyph glyph-name="g" unicode="g" horiz-adv-x="583" 
d="M435 513q31 -11 51 -30q22 -19 34 -45q15 -32 15 -67q0 -73 -53 -123q-62 -56 -164 -56q-52 0 -91 13q-22 8 -34 13q-15 -15 -15 -27q0 -9 8 -21t24 -17q24 -7 38 -7h28q6 0 18 -0.5t18 -0.5q107 0 132 -4q47 -7 72 -22q74 -41 74 -130q0 -49 -27.5 -90.5t-81.5 -67.5
q-76 -36 -193 -36q-138 0 -215 58q-59 43 -59 111q0 73 67 104q19 8 40 13q-11 0 -27 6q-59 21 -59 91q0 54 39 83q7 5 16 10.5t16 9t8 3.5q-34 45 -34 90q0 34 16 66q20 39 62.5 67.5t104.5 36.5q27 2 74 -1q0 2 0.5 6t0.5 7q3 34 19 54q35 46 110 46q57 0 90 -31
q26 -26 26 -58q0 -28 -17 -43q-3 -3 -11 -9q-17 -10 -31 -10q-28 0 -47 28q-1 2 -2.5 4.5t-2.5 3.5t-2.5 3t-3 3l-3 2t-3.5 1.5t-5 0.5q-6 0 -12 -4q-12 -11 -8 -34zM302 437q-24 -3 -39 -17q-21 -19 -21 -51q0 -18 7 -32q18 -35 58 -35q25 0 42 13q26 20 26 56q0 24 -14 40
q-23 30 -59 26zM223 26q-12 -4 -18 -7q-28 -14 -28 -42q2 -30 37 -42q25 -11 94 -11q25 0 37 1q58 5 75 31q6 10 6 22q0 26 -27 37q-16 7 -51 7q-9 0 -32 -1.5t-36 -0.5q-19 0 -57 6z" />
    <glyph glyph-name="h" unicode="h" horiz-adv-x="646" 
d="M412 176v31q2 42 2 63q0 10 -0.5 29t-0.5 29q0 20 -4 32q-14 46 -63 46q-30 0 -55 -21q-16 -14 -21 -24q-13 -23 -13 -90q0 -69 1 -104q0 -16 1 -25q1 -13 8 -17q3 -3 16 -3q19 -3 27 -13q12 -15 12 -45q0 -26 -14 -45t-42 -19q-9 0 -25 2t-21 2q-31 4 -70 4
q-25 0 -37 -2q-47 -5 -57 -5q-23 0 -39.5 17t-16.5 54q0 28 13 42t31 14q10 0 19 -3q12 -4 17 -4q6 0 9 4q3 3 4.5 10t2 17t0.5 19v23.5v23.5v124q0 101 1 151q0 69 -3 81q-4 12 -14 12q-5 0 -17 -4q-6 -4 -18 -4q-18 0 -31 15l-2 2q-1 2 -3 4.5t-3 4.5q-5 12 -5 37
q0 35 17.5 49.5t40.5 14.5q15 0 43 -4q26 -2 39 -2q25 0 50 3q22 4 34 4q13 0 22 -6q13 -10 13 -43q0 -61 -2 -179q20 20 23 22q52 42 126 42q57 0 96 -23q25 -14 40.5 -34.5t21.5 -47t7.5 -44t1.5 -45.5q0 -20 -0.5 -61.5t-0.5 -61.5q-2 -43 -1 -64q2 -25 3 -28
q3 -12 15 -12q2 0 7 1t8 1q10 2 15 2q43 0 43 -60q-2 -44 -28 -58q-12 -7 -32 -7q-1 0 -55 6q-12 1 -35 1q-31 0 -61 -3q-42 -5 -48 -5q-24 0 -41.5 15t-17.5 52q0 39 22 52q6 3 19 3q19 0 23 15q1 3 3 40z" />
    <glyph glyph-name="i" unicode="i" 
d="M167 761q43 3 73 -26t30 -71q0 -47 -41 -78q-25 -18 -57 -18q-21 0 -41 9q-20 10 -37 33t-17 55q0 21 8 39q25 54 82 57zM261 356v-108q-1 -21 -1 -62v-35v-4t1 -7.5t3 -7.5q5 -10 15 -10q3 0 6.5 0.5t6.5 1.5h2q15 3 19 3q19 0 31 -19q9 -17 9 -43q0 -40 -26 -56
q-14 -8 -33 -8q-12 0 -32 2t-26 2q-34 3 -69 3q-26 0 -53 -3q-42 -5 -53 -5q-33 0 -49 22q-12 19 -12 46q0 25 10 40q13 19 33 19q6 0 19 -4t20 -4q6 0 9.5 3.5t5 13t1.5 14v18.5q0 6 0.5 17t0.5 16q0 17 -0.5 51t-0.5 51v69v14l-1 10l-1 2q-1 1 -2 2.5t-2.5 3.5t-4 3.5
t-5.5 1.5q-6 -2 -13 -4q-16 -5 -25 -5t-15 3q-24 12 -28 43q0 3 -0.5 8.5t-0.5 8.5q0 28 15 46.5t43 18.5q13 0 43 -6q30 -4 45 -4q14 0 44 4l12.5 2.5t13.5 2.5t12 1q13 1 22 -5q8 -8 9 -11q4 -11 4 -58q0 -34 -2 -98z" />
    <glyph glyph-name="j" unicode="j" horiz-adv-x="313" 
d="M163 760q43 0 71 -25q14 -14 16 -17q16 -29 16 -55q0 -23 -10 -43q-28 -53 -88 -53q-18 0 -37 8q-28 12 -43 37t-15 53q0 15 4 27q7 22 28 43.5t58 24.5zM21 -106q36 5 51 23q10 10 13 18q4 8 6 19t2.5 28t1 30t0 39t-0.5 41q0 38 0.5 112t0.5 112v62q-2 25 -7 29
q-3 3 -9 3q-2 0 -14 -4q-16 -4 -22 -4q-9 0 -22 8q-21 16 -21 52q0 8 1.5 15.5t6 21t17.5 22t33 8.5q6 0 41 -5q30 -4 45 -4q23 0 51 5q4 0 16 2t19 2q11 0 19 -6l4 -4t3.5 -4.5t2.5 -5t1.5 -6.5t1 -7t0.5 -8v-8v-9v-9q0 -104 2 -314v-67q1 -67 0 -67q0 -42 -6 -71
q-10 -56 -55 -97q-66 -58 -167 -58q-60 0 -104 20q-13 7 -27 16q-43 33 -43 81q0 28 16 51q27 36 75 36q18 0 33 -7q15 -6 28 -21t13 -37q0 -8 -3 -21z" />
    <glyph glyph-name="k" unicode="k" horiz-adv-x="667" 
d="M419 522l45 -3q6 0 19 -0.5t20 -0.5q26 0 59 5q23 5 43 5q17 0 31 -9q25 -15 25 -57q0 -27 -10 -41q-12 -19 -31 -19q-8 0 -22 5t-22 5q-9 0 -17 -4q-6 -3 -12.5 -8l-18 -13.5l-21.5 -15.5q-20 -14 -22 -16l-8.5 -6.5t-6.5 -5.5t-4.5 -4t-3.5 -4l-2 -4t-1 -5
q0 -5 2.5 -9.5t9.5 -14.5l10 -14l43 -67q2 -3 9 -14.5t11 -17.5q3 -4 8 -11.5l9 -13.5t7 -11l2 -3q1 -3 3.5 -6.5t6.5 -8t8 -8t9.5 -6t11.5 -2.5t18 2.5t18 2.5q17 0 29 -15.5t12 -44.5t-16 -47q-6 -8 -13 -11q-7 -6 -29 -6q-10 0 -27 2t-23 2q-29 3 -58 3q-22 0 -45 -3
q-1 0 -14.5 -1.5t-20.5 -1.5q-30 0 -43 17t-13 36q0 12 8 28q12 22 12 25q0 8 -5 16q-4 8 -31 50t-34 50q-6 8 -13 8q-5 0 -13.5 -6t-21.5 -17.5t-14 -12.5q-15 -12 -19 -19v-32q0 -27 17 -27q3 0 8.5 1.5t9.5 2.5q4 2 17 2q14 0 24 -7q20 -15 20 -49q0 -14 -2 -22
q0 -2 -2 -7.5t-7.5 -14t-13.5 -13.5q-13 -9 -38 -9q-8 0 -56 5q-36 3 -74 3q-32 0 -57 -4q-39 -6 -41 -6q-16 0 -27 6q-32 17 -32 62q0 21 10.5 40t33.5 19q11 0 19 -4q10 -3 18 -3q5 0 7 2q8 6 8 60q1 34 1 101q0 129 -1 194v58q0 24 -3 39q-3 14 -14 14q-7 0 -19 -4
q-9 -3 -18 -3q-18 0 -30 15.5t-12 44.5q0 12 2 23.5t16 27t39 15.5q13 0 42.5 -4.5t44.5 -4.5q20 0 36 4q30 5 35 5q20 0 30 -11q6 -7 7 -14q2 -9 2 -94v-273q45 35 53 42q2 2 6.5 6t6.5 6q8 6 11 10q22 22 22 31q0 8 -9 17q-5 4 -15 14q-17 18 -17 37q0 20 14 35.5t44 15.5
q16 0 50 -6z" />
    <glyph glyph-name="l" unicode="l" 
d="M259 416v-64q0 -10 0.5 -28t0.5 -28q-1 -17 -1 -51v-53q0 -28 1 -42q2 -26 14 -28q2 -1 5 -1q5 0 15 2t16 2q21 0 32 -20q9 -16 9 -39q0 -27 -12 -44q-16 -21 -48 -21l-48 3q-35 4 -76 4q-30 0 -60 -3q-43 -5 -49 -5q-12 0 -26 6q-32 16 -32 63q0 28 13 43.5t30 14.5
q8 0 24 -4q10 -4 14 -4q9 0 13 12t4 52q1 63 1 189q0 24 -0.5 71t-0.5 70q0 61 -6 68q-4 5 -12 5q-4 0 -11.5 -3t-8.5 -3q-6 -2 -16 -2q-21 0 -33 18q-10 16 -10 44q0 26 13 44.5t39 19.5q11 1 48 -4q30 -2 44 -2q35 0 70 6q2 0 6.5 0.5t6.5 0.5q20 0 29 -17q3 -8 3 -83
q-1 -27 -1 -82v-34v-39.5v-33.5z" />
    <glyph glyph-name="m" unicode="m" horiz-adv-x="958" 
d="M571 226v-49q0 -22 1 -34q2 -17 14 -21h4q4 -1 7.5 -2t8.5 -4t8 -8q10 -15 10 -43t-14 -46q-7 -10 -17 -14q-9 -4 -26 -4q-7 0 -21.5 1t-22.5 1q-11 1 -33 1q-18 0 -50 -2q-4 0 -13 -0.5t-14 -0.5q-18 0 -27 5q-29 15 -29 60q0 33 17 48q5 4 21 6q5 1 8.5 4t5 11
t1.5 11.5t1 15.5t1 35q0 65 -1 97q0 48 -7 66q-14 35 -56 35q-34 0 -57 -20q-14 -10 -20 -22q-6 -10 -9 -24t-3.5 -22.5t-1 -28t-0.5 -21.5v-49q0 -37 1 -56q2 -23 9 -28q3 -3 14 -3q18 0 28 -10q14 -14 14 -47q0 -24 -9 -39q-3 -6 -12 -15q-14 -10 -39 -10l-48 3
q-36 2 -53 2q-30 0 -60 -3q-28 -2 -40 -2q-22 0 -36 8q-25 16 -25 57q0 26 7 38q14 23 35 23q9 0 22 -4q10 -4 15 -4q17 0 17 40q0 4 0.5 11t0.5 10v76q0 80 -1 119q-2 35 -16 35q-4 0 -19 -5q-12 -3 -19 -3q-16 0 -27 13q-15 15 -15 47q0 30 13 46q17 21 45 21q1 0 31 -3
q24 -2 34 -2q22 0 44 3q15 3 31 3q13 0 20 -6q12 -10 12 -28v-31q7 9 22 21q63 53 137 53q58 0 99 -31q1 -1 6 -5.5t10 -9.5t9 -10q10 -12 14 -19q24 20 36 29q66 46 139 46q48 0 91 -21q18 -9 29 -17q32 -24 45 -59q17 -42 17 -143q0 -14 -1 -55t0 -63q0 -39 1 -44
q5 -15 17 -15q4 0 12 2q14 2 21 2q19 0 29 -16q11 -19 11 -42q0 -35 -16.5 -51t-40.5 -16q-2 0 -38 3q-18 2 -56 2q-22 0 -68 -2q-36 -3 -38 -3q-12 0 -20 2l-6 2q-6 2 -9 4q-25 16 -25 56q0 54 34 56q1 0 6.5 0.5t8.5 1t7 2.5t6 6q4 8 4 27q1 24 1 75q0 25 -2 73
q-1 42 -10 60q-17 30 -54 30q-62 0 -80 -48q-8 -20 -8 -121z" />
    <glyph glyph-name="n" unicode="n" horiz-adv-x="646" 
d="M222 447q12 14 18 20q19 19 43 35q53 35 117 35q96 0 143 -67q20 -27 26.5 -61.5t6.5 -97.5q0 -16 -0.5 -47.5t-0.5 -47.5l-1 -30q0 -30 1 -30q1 -2 2 -11.5t1 -12.5q4 -11 13 -11l12 3q10 3 19 3q12 0 23 -8q23 -17 23 -52q0 -26 -16 -47q-17 -20 -47 -20q-6 0 -13 0.5
t-15 1.5t-13 1q-36 2 -54 2q-23 0 -71 -4q-5 0 -16 -1t-17 -1q-56 0 -56 65q0 35 17 49q7 7 21 7q19 0 24 12q3 7 3 144q0 48 -2 61q-2 28 -19 43q-15 15 -43 15q-45 0 -74 -35q-14 -17 -17 -38.5t-3 -68.5q0 -27 2 -83q0 -35 9 -43q2 -2 19 -5q28 -1 35 -31q4 -12 4 -26
q0 -45 -32 -60q-9 -4 -25 -4q-15 0 -45 4q-34 2 -52 2q-34 0 -65 -3q-30 -4 -44 -4q-17 0 -28 5q-37 13 -37 66q0 10 2 18q15 39 45 39q10 0 22 -5q8 -3 13 -3q10 0 12 11q1 3 1 4q3 17 3 68q1 18 1 55q-2 50 -2 75q0 40 -1 48q0 12 -2 18q-3 8 -10 8q-2 0 -8 -1.5t-7 -1.5
q-5 -5 -21 -5q-21 0 -35 20q-12 18 -12 41q0 15 4 26q14 41 56 41l30 -3q20 -2 30 -2q21 0 46 5q3 0 9.5 1t11.5 1.5t9 0.5q22 0 27 -18q2 -6 2 -16q0 -9 -1 -25t-1 -24z" />
    <glyph glyph-name="o" unicode="o" horiz-adv-x="583" 
d="M290 544q108 5 176 -40q17 -11 36 -30q30 -35 48 -86q17 -51 17 -125q0 -99 -40 -164.5t-105 -92.5q-47 -20 -124 -20q-129 0 -195 73q-68 79 -68 212q0 123 57 193l10 10q10 10 15 14q18 16 53 31q46 21 120 25zM293 413q-47 -1 -71 -42q-19 -35 -19 -106q0 -51 12 -87
q2 -7 10 -21q28 -42 81 -42q33 0 52 17l2 2q2 1 4 3t4.5 5t4.5 5q6 7 11 23q15 35 15 88q0 46 -9 81q-19 77 -97 74z" />
    <glyph glyph-name="p" unicode="p" horiz-adv-x="625" 
d="M99 53v253v16.5v19v16.5q0 52 -19 52q-5 0 -23 -6l-5 -1q-6 -1 -10 -1q-43 0 -43 62q0 24 13 42q16 21 45 21q10 0 30 -2q24 -2 37 -2t39 2q3 0 8.5 1t10 1.5t8.5 0.5q36 0 36 -37q0 -6 -0.5 -17.5t-0.5 -16.5q2 2 4 4.5l5 6.5t5 6q7 10 19 20q52 50 131 50q72 0 122 -36
q18 -13 30 -29q67 -78 67 -211q0 -92 -31 -156q-8 -17 -23 -37t-34 -36q-52 -42 -124 -42q-65 0 -111 30q-6 3 -15.5 11t-13.5 11q0 -46 1 -69q2 -31 9 -36q6 -3 12 -3q8 0 17 2q35 7 38 7q15 0 25 -10q17 -17 17 -52q0 -44 -31 -58q-8 -5 -30 -5l-66 6q-33 3 -67 3
q-32 0 -72 -5t-48 -5q-30 0 -44 16q-17 18 -17 49v8t2.5 14.5t6.5 18t13 14t22 6.5q9 0 23 -5q2 0 5 -1t5.5 -1.5t4.5 -0.5q8 0 13 9q4 9 4 102zM349 407q-14 0 -23 -3q-35 -11 -53 -54q-13 -33 -13 -84q0 -66 24 -101q12 -19 31 -28q8 -4 16 -6q12 -3 22 -3q26 0 47 18
q7 7 11 14q29 40 29 121q0 72 -33 104q-22 22 -58 22z" />
    <glyph glyph-name="q" unicode="q" horiz-adv-x="583" 
d="M552 122v-108q0 -51 5 -61q5 -9 14 -9q6 0 14 2q14 2 19 2q12 0 21 -8q19 -17 19 -53q0 -42 -29 -57q-9 -6 -27 -6q-19 0 -59 4q-44 2 -66 2q-41 0 -94 -5q-24 -2 -38 -2q-28 0 -43 18q-14 18 -14 46q0 29 11.5 44t29.5 15q10 0 28 -3t27 -3q14 0 20 11q4 9 4 103
q-2 -2 -7 -6.5l-11 -10t-12 -9.5q-45 -33 -111 -33q-52 0 -94 21q-7 3 -26 15q-17 13 -29 28q-70 77 -70 207q0 104 45 178q21 35 48 57q17 14 37 24q36 17 86 17q85 0 136 -53q1 -1 18 -23q0 15 -1 23q0 28 12 37q19 14 63 14q62 -2 73 -33q2 -6 2 -92q0 -23 -0.5 -68
t-0.5 -67q-1 0 0 -79v-79zM287 412q-2 0 -8 -2q-18 -4 -24 -7q-53 -27 -53 -144q0 -73 34 -109q21 -21 58 -21q42 0 67 28q30 36 30 108q0 52 -13 88q-5 13 -17 28q-24 28 -61 30q-3 0 -7 0.5t-6 0.5z" />
    <glyph glyph-name="r" unicode="r" horiz-adv-x="521" 
d="M371 417q-49 -4 -72 -28q-18 -20 -25 -40q-20 -53 -20 -167q0 -46 3 -53q3 -11 17 -11q8 0 26 4t26 4q22 0 37 -19q10 -18 10 -39q0 -24 -11 -41t-26 -23q-9 -4 -26 -4q-11 0 -61 5q-28 4 -62 4q-32 0 -65 -3q-7 -1 -19 -2.5t-22 -2.5t-19 -1q-15 0 -28 5q-33 15 -33 64
q0 23 8 36q13 23 34 23q9 0 21 -5q8 -4 15 -4t12 6q6 8 6 60q0 11 0.5 33.5t0.5 32.5v94q0 28 -1 42q-2 16 -7 20q-3 3 -9 3q-4 0 -17 -5q-12 -4 -21 -4q-16 0 -26 10q-17 19 -17 51q0 19 7 35q2 5 10 15q6 6 21 14q8 2 19 2t33 -2t32 -2q14 0 40 2q24 3 25 3q5 0 17 -3
q18 -7 18 -38q0 -10 -2 -32q-2 -38 -4 -57q3 4 5 19q1 3 2.5 8.5t2.5 7.5q6 21 25 45q4 6 12 14q31 29 68 39q27 6 51 6q54 0 92 -33q43 -37 43 -93q0 -43 -21 -70q-25 -32 -62 -32q-9 0 -13 1q-18 2 -30 10q-31 19 -31 52q0 15 11 44z" />
    <glyph glyph-name="s" unicode="s" horiz-adv-x="521" 
d="M376 500q5 23 12 30q13 14 37 14q6 0 9 -1q51 0 51 -40q0 -10 -4 -30q-2 -26 -2 -39v-43q0 -24 -13 -36q-14 -14 -42 -14q-25 0 -39 9q-12 8 -30.5 30t-27.5 29q-24 19 -59 19q-22 0 -38 -8q-21 -12 -21 -33q0 -19 22 -33q18 -10 72 -17t89 -16q50 -15 75 -38
q48 -42 47 -113q0 -61 -34 -106q-11 -15 -28 -31q-62 -48 -149 -48q-67 0 -119 26q-27 14 -47 32q0 -3 -1 -8t-1 -6.5t-1 -5t-1.5 -4.5t-2 -3.5t-3 -4.5t-4.5 -4q-16 -14 -39 -14q-28 0 -43 13q-8 4 -13 19q-2 6 -2 16q0 11 2 31t2 31q0 9 -2 29t-2 29q0 13 6.5 23
t14.5 14.5t19 7t15 2.5h8q37 0 58 -26q5 -5 11.5 -15t8.5 -12q9 -13 21 -22q34 -28 93 -28q31 0 49 15t18 35q0 10 -7 18t-13 10q-11 7 -58 16q-10 2 -29.5 5.5t-31.5 6t-29.5 7t-31.5 10.5q-28 11 -45 25q-50 41 -50 117q0 69 41 116q15 16 38 32q45 27 108 27q19 0 40 -3
q23 -3 42.5 -11t27.5 -13t26 -18z" />
    <glyph glyph-name="t" unicode="t" horiz-adv-x="437" 
d="M174 686q49 0 63 -20q8 -11 8 -37q0 -11 -1 -34t-1 -34q2 -24 8 -28q8 -5 37 -5q14 -1 45 -1q44 0 56 -4q28 -11 28 -51q0 -18 -4 -24q-6 -19 -23 -28q-12 -5 -61 -5q-65 0 -71 -2q-7 -2 -12 -12q-1 -6 -1 -58q-1 -10 -1 -29.5t-1 -29.5q0 -14 -1 -42.5t-1 -42.5
q0 -45 7 -59q8 -21 31 -21q19 0 28 13q10 13 10 32q0 10 -0.5 24.5t-0.5 21t1.5 14.5t4.5 15q14 29 49 29q67 -2 67 -98q0 -41 -8 -69q-14 -49 -56.5 -81t-115.5 -32q-66 0 -110 26q-17 10 -25 18q-40 40 -40 144q0 21 0.5 44.5t1.5 53t1 45.5q1 20 1 61q0 26 -7 31
q-4 4 -28 4q-25 0 -36 11q-16 16 -16 46q0 20 6 32t16 18t17 6.5t20 0.5q17 0 19 1q10 4 12 12q2 2 2 48q0 24 1 37q0 20 8 33q17 26 73 26z" />
    <glyph glyph-name="u" unicode="u" horiz-adv-x="625" 
d="M239 445v-204q0 -64 11 -86q14 -31 55 -31q43 0 71 43q18 27 18 84q0 136 -5 147q-3 10 -14 10q-4 0 -12 -2q-12 -3 -20 -3q-23 0 -32.5 20t-9.5 42q0 47 35 61q9 3 23 3q6 0 12 -0.5t14 -1.5t12 -1q51 -3 52 -3q13 0 39.5 2.5t39.5 2.5q20 0 28 -16q3 -9 3 -43
q0 -27 -1 -41v-51v-74t-1 -73v-78q1 -16 4 -21q3 -9 13 -9q8 2 11 2q6 1 16 1q13 0 18 -3q25 -11 25 -59q0 -27 -14 -44q-14 -18 -42 -18l-30 3q-20 3 -40 3q-18 0 -36 -3l-27 -3q-34 0 -34 35v16q1 10 0 21q-22 -25 -40 -38q-57 -44 -134 -44q-16 0 -24 1q-72 6 -110 47
q-11 12 -15 19q-6 10 -10 20.5t-7 23.5t-4.5 22.5t-2 25t-0.5 22.5v24v20q1 35 1 105q0 34 -1 51q0 26 -9 32q-3 2 -6 2t-9 -1t-11 -1q-22 0 -31 19t-9 41q0 46 31 61q11 4 26 4q13 0 40.5 -4t41.5 -4q22 0 39 4q30 3 31 3q22 0 28 -19q3 -8 3 -64z" />
    <glyph glyph-name="v" unicode="v" horiz-adv-x="667" 
d="M54 527q9 1 25 -1.5t20 -2.5q17 -2 53 -2t70 3q5 0 22.5 2t26.5 2q22 0 35 -11q22 -16 22 -52q0 -15 -5 -28q-8 -17 -24 -23q-4 -1 -12.5 -2.5t-13.5 -3.5q-12 -4 -12 -15q0 -8 13 -47q3 -8 7.5 -23t6.5 -20l31 -98q9 -30 17 -62l2 -6q1 -6 3 -10.5t4 -4.5l9 26
q1 3 4.5 14.5t5.5 17.5q12 39 33 99l26 78q9 27 9 34q0 5 -2 9q-7 10 -20 10q-17 0 -31 15q-13 14 -13 40q0 19 5 32q13 31 51 31q10 0 57 -5q23 -3 46 -3q29 0 64 5q26 4 37 4q18 0 31 -8q26 -16 26 -58q0 -60 -44 -60q-6 0 -13.5 1l-11 1.5t-8 -1.5t-8.5 -7
q-13 -19 -22 -47l-83 -219q-30 -81 -49 -110q-10 -15 -28 -22q-8 -3 -17 -4t-16.5 -0.5t-22.5 1t-28 0.5q-12 0 -29.5 -1t-24 -0.5t-16 3.5t-17.5 9q-14 12 -29 48q-15 38 -28 75l-63 170q-20 57 -29 77q-12 26 -27 26q-4 0 -12.5 -1.5t-13.5 -1.5q-13 0 -23 9
q-20 15 -20 53q0 33 16 48.5t38 16.5z" />
    <glyph glyph-name="w" unicode="w" horiz-adv-x="917" 
d="M642 172l12 57q11 54 24 100q15 60 15 67q0 13 -14 13q-22 0 -34 6q-8 4 -14 11q-14 18 -14 43q0 24 13 40q17 19 45 19q11 0 61 -5q32 -2 48 -2q27 0 50 4q4 0 19 2t24 2q23 0 40.5 -15.5t17.5 -50.5q0 -24 -7 -36q-14 -24 -37 -24q-3 0 -11 1.5t-12 1.5q-9 0 -14 -8
q-5 -7 -12.5 -31l-22.5 -75l-20 -67l-58 -182q-14 -34 -22 -41q-14 -10 -34 -10q-10 0 -30 2q-16 2 -25 2q-18 0 -34 -3q-14 -2 -22 -2q-30 0 -42 25q-8 19 -12 45q-2 7 -4.5 21t-3.5 21q-18 79 -33 170l-6 40q-4 29 -5 40q0 15 -6 15q-1 0 -1 -8q0 -4 -0.5 -7.5t-1.5 -7.5
t-1 -6l-6 -40q-5 -32 -22 -107q-26 -116 -34 -148q-6 -31 -12 -38q-11 -14 -34 -14q-10 0 -29 2t-28 2q-12 0 -38 -2q-14 -2 -23 -2q-24 0 -38 16q-9 12 -22 58q-10 34 -14 51l-44 167q-10 41 -21 80q-8 31 -16 37q-5 4 -9 4.5t-12.5 -0.5t-14.5 -1q-23 0 -32.5 20t-9.5 42
q0 40 31 58q10 5 22 6q11 1 51 -6q23 -3 47 -3q20 0 64 4q37 5 44 5q59 -1 59 -63q0 -48 -38 -54q-5 -1 -12.5 -1.5t-10.5 -1.5q-9 -3 -9 -15l4 -25q1 -3 2.5 -10.5t2.5 -11.5l22 -112q3 -12 7 -34q1 -8 4 -23t4 -22q0 -8 2 -12q1 -3 3 -3q1 0 1.5 5t1.5 12.5t2 10.5
q4 36 18 101l18 82l27 113q10 34 15 41q4 6 9 9.5t10 5.5l5 3q22 7 74 7q60 0 77 -18q7 -8 11 -26q3 -12 8.5 -39l8.5 -41q22 -102 31 -153q3 -13 7 -36.5l6 -35.5q0 -1 1.5 -11t1.5 -15l3 -18q2 0 8 33z" />
    <glyph glyph-name="x" unicode="x" horiz-adv-x="646" 
d="M469 275l80 -113q23 -34 33 -38q3 -1 7 -1t12 2q7 1 20 1t22 -8q20 -15 20 -54q0 -19 -6 -33q-13 -31 -49 -31q-16 0 -49 3t-50 3q-12 0 -72 -5q-4 0 -12.5 -0.5t-12.5 -0.5q-15 0 -27 4q-37 14 -37 56q0 21 14 34q4 3 11 7t10 8t3 11q0 4 -2 9q-10 20 -21 36
q-9 13 -27 37q-32 -45 -35 -50q-21 -27 -21 -36q0 -8 10 -15q13 -4 19 -11q10 -12 10 -30q0 -42 -34 -54q-14 -5 -31 -5q-22 0 -44 3q-34 2 -50 2q-29 0 -59 -3q-39 -3 -40 -3q-60 0 -60 68q0 29 13 43.5t31 14.5q7 0 19.5 -1.5t18.5 -1.5q7 0 11 1q1 1 2 1q8 5 33 37
q8 10 24 32l55 76l-81 101q-16 21 -24.5 28t-18.5 7q-6 0 -16 -2t-16 -2q-16 0 -26 12q-15 16 -15 49q0 32 16 50q9 11 15 11q8 4 27 4q13 0 39 -2q14 -1 41 -1q36 0 54 1q7 0 20 1t23 1.5t19 0.5q60 0 60 -60q0 -23 -15 -35q-16 -12 -15 -21q0 -4 2 -10q3 -8 20 -34
q4 -8 13.5 -22t12.5 -20l30 44q19 30 18 35q0 6 -2 9q-3 5 -11 9.5t-12 8.5q-12 14 -12 36q0 28 19 45q14 14 42 14q13 0 39 -2q14 -1 43 -1q35 0 53 2q28 2 40 2q61 0 61 -67q0 -22 -10.5 -41t-34.5 -19q-2 0 -7 0.5t-8 0.5q-8 2 -13 2q-9 0 -14 -5q-6 -4 -46 -57
q-16 -23 -29 -40q-11 -13 -20 -28z" />
    <glyph glyph-name="y" unicode="y" horiz-adv-x="646" 
d="M145 -85q8 -8 23 -8q24 0 51 27q30 30 30 65q0 10 -9 37l-10 25q-3 10 -11.5 29t-11.5 28q-10 25 -35.5 83t-37.5 89l-10.5 24.5l-12 28.5l-10.5 25q-12 27 -20 34q-4 4 -8 4.5t-12.5 -1t-15.5 -1.5q-24 0 -36 20q-9 15 -9 40q0 35 17.5 51t40.5 16q1 0 43 -6
q29 -3 57 -3q30 0 67 5q6 0 22 2t25 2q13 0 24 -5q35 -14 35 -56q0 -35 -32 -46q-3 -1 -8 -2t-6 -1q-20 -2 -20 -18q0 -3 1.5 -9.5t4 -15t3.5 -10.5q2 -5 7 -22l19 -57.5t21 -65.5q10 -34 14 -51q1 -2 2 -6t2 -6.5t2 -2.5q3 1 9 21q0 2 1.5 8t2.5 9l47 144q18 52 18 61
q0 7 -3 11q-2 5 -25 12q-10 4 -17 11q-11 12 -11 38q0 11 3 20q4 13 18 25t35 12q8 0 23.5 -2t20.5 -2q24 -3 47 -3q26 0 53 3q38 5 46 5q15 0 22 -3q36 -12 36 -63q0 -29 -13 -44.5t-31 -14.5q-4 0 -12.5 1t-13.5 1q-4 0 -8 -1.5t-7 -6l-5.5 -8t-5.5 -10.5l-5 -12l-5.5 -14
l-5.5 -14q-7 -19 -19 -54.5t-18 -51.5l-37 -103q-24 -64 -39 -96q-58 -134 -132 -193q-65 -53 -148 -53q-57 0 -97 18q-8 3 -20 12q-19 12 -31 26q-25 32 -25 72q0 32 21 57q24 26 62 26q19 0 35 -6q40 -17 40 -60q0 -8 -2 -20z" />
    <glyph glyph-name="z" unicode="z" horiz-adv-x="542" 
d="M251 125q50 2 77 2q34 0 51 2q14 1 20 9q8 8 6 36q0 4 -0.5 12t-0.5 12q0 14 4 21q5 13 20.5 24t36.5 11q44 0 58 -34q5 -12 5 -33q0 -11 -3 -35t-3 -36q0 -6 0.5 -12.5t1.5 -14.5t1 -12q4 -22 4 -34q0 -15 -7 -25q-15 -17 -58 -17q-7 0 -22 0.5t-23 0.5q-12 1 -36.5 1.5
t-36.5 0.5q-50 1 -151 1q-35 0 -52 -1q-54 -3 -56 -3q-28 0 -42 11q-24 17 -24 51q0 28 19 53q6 7 19 20q12 14 20 22l49 54l85 93l43 47q5 6 22 24t26 29q-30 -1 -89 -1q-23 0 -35 -1q-13 0 -19 -9q-4 -4 -4 -12q0 -5 2 -15q1 -4 1 -14q0 -16 -4 -26q-6 -15 -21.5 -26
t-37.5 -11q-10 0 -25 5q-36 15 -36 65q0 9 1.5 31.5t0.5 34.5q0 21 -3 40q-1 7 -1 23q0 11 1 13q7 26 66 26q1 0 85 -3q27 -1 80 -1q68 0 102 1l69 3q19 0 28 -2q21 -2 34 -13q10 -7 15 -18q11 -15 11 -42q-1 -20 -12 -40t-44 -54q-22 -22 -43 -46q-12 -13 -34 -35
q-12 -14 -19 -21q-5 -6 -16 -17l-67 -72z" />
    <glyph glyph-name="braceleft" unicode="{" horiz-adv-x="354" 
d="M112 414v177q3 106 77 139q8 4 16 6.5l14.5 4.5t18 3l17 1.5t21 1t22 1t27 0.5h29.5v-8q-16 -3 -35 -9q-52 -15 -67 -69q-5 -18 -7 -90v-95v-32.5t-0.5 -29.5t-1 -24t-1.5 -23.5t-2.5 -18.5t-4 -19t-6.5 -15.5t-9 -16.5q-23 -33 -80 -49q49 -13 73 -41q16 -18 23.5 -44.5
t8.5 -49t1 -82.5v-107v-16.5v-18.5t0.5 -16t2 -18t3.5 -15.5t5.5 -17.5t8.5 -15l9.5 -13t11.5 -10.5t10.5 -7.5t13.5 -6.5t12.5 -4.5t15.5 -4.5t15 -4.5v-7h-46q-34 1 -52.5 2.5t-46.5 9.5t-48 23q-7 6 -13.5 13t-11 13t-8.5 16t-6 15.5t-4 17.5t-3 16.5t-1.5 18.5t-1 17.5
t-0.5 18.5v17v126v23v24.5t-1 21.5t-3.5 23.5t-7.5 20t-12 21.5q-11 17 -29 27q-12 8 -25 11v7q19 5 32 13q23 15 33.5 45t11.5 47t1 56z" />
    <glyph glyph-name="bar" unicode="|" horiz-adv-x="229" 
d="M178 -250h-127v998h127v-998z" />
    <glyph glyph-name="braceright" unicode="}" horiz-adv-x="354" 
d="M242 83v-175q-4 -109 -80 -142q-19 -8 -44 -11.5t-43.5 -4t-74.5 -0.5v7q65 14 88 47q4 5 6.5 9.5t5 11t3.5 10t2.5 11.5t2 11.5t0.5 14.5t0.5 15t0.5 18.5v20.5v95q0 109 8 139q6 22 19 40q24 34 78 48q-48 13 -72 41q-17 19 -24.5 45t-8.5 49t-1 82v108v15v16.5
t-0.5 15t-1.5 16.5t-2.5 15t-4 16t-6 13.5t-8.5 14.5q-10 14 -26 23.5t-25 12l-34 9.5v8q7 0 22.5 -0.5t23.5 -0.5q101 0 147 -34q7 -6 13.5 -13t11 -13.5t8.5 -16.5t6 -15.5t4 -17.5t3 -16.5t1.5 -18.5t1 -17t0.5 -18v-17v-127v-22.5v-24.5t1 -21.5t3.5 -24t7.5 -20
t12 -21.5q10 -15 29 -27q10 -6 25 -10v-8q-18 -3 -32 -13q-22 -14 -33 -44t-12 -48.5t-1 -55.5z" />
    <glyph glyph-name="asciitilde" unicode="~" horiz-adv-x="729" 
d="M366 230l-31 15q-50 23 -73 23q-22 -2 -37 -8q-10 -5 -21.5 -15t-18 -17l-27.5 -31l-55 104q38 52 74 72q38 22 82 22q41 0 103 -31l36 -16q44 -22 76 -22q47 0 100 61l52 -105q-20 -22 -45 -41q-59 -42 -111 -42q-40 0 -104 31z" />
    <glyph glyph-name="exclamdown" unicode="&#xa1;" horiz-adv-x="292" 
d="M128 724q28 2 54 -13q17 -10 31.5 -31t14.5 -50q0 -43 -31 -70q-27 -25 -64 -25q-19 0 -36 7q-21 9 -39.5 32t-18.5 57q0 32 19 56q28 35 70 37zM152 487q1 0 14.5 -1.5t16.5 -2.5q14 -5 21 -17q9 -16 14 -94q1 -10 2.5 -31t2.5 -31q13 -167 14 -197q2 -30 2 -45
q0 -31 -13 -47q-15 -22 -51 -30q-16 -4 -46 -4q-70 0 -90 38q-8 14 -8 38q0 12 5 62q2 30 8 90q7 68 19 204q5 44 17 55q5 5 10.5 7.5t9 3t15 1t16.5 0.5q3 0 10 0.5t11 0.5z" />
    <glyph glyph-name="sterling" unicode="&#xa3;" horiz-adv-x="833" 
d="M648 -14h-10q-74 3 -168 50q-23 12 -47 22q-1 -1 -6.5 -5.5l-11.5 -9l-14 -10.5t-15 -10q-68 -40 -159 -40q-58 0 -109 20q-18 6 -26 11q-29 16 -50 43q-8 10 -14 23q-14 28 -14 55q0 46 27 81q4 8 12 15q3 3 11 9q16 15 36 24q44 19 87 19q17 0 35.5 -2.5t32 -5.5t30 -8
t25 -8t22 -8.5t15.5 -6.5q-13 50 -44 87h-99h-41q-16 0 -24 3q-30 13 -30 55q0 5 1.5 12t9.5 19t21 16q11 3 74 3q26 0 38 2q-25 56 -25 93q0 64 45 112q6 9 15 16q2 2 6.5 5.5t6.5 4.5q17 13 36 21q60 29 131 29q112 0 171 -59q37 -37 37 -91q0 -47 -32 -76
q-25 -22 -59 -22q-21 0 -39 8q-24 10 -34 28t-10 32q0 8 9 40q-38 11 -46 11q-27 0 -45 -19q-17 -19 -17 -48q0 -28 33 -87q23 0 69 -0.5t69 -0.5q70 0 84 -9q23 -14 23 -49q0 -17 -8 -30t-20.5 -17t-39.5 -4q-20 0 -60 2q-12 0 -34 -0.5t-33 -0.5q30 -52 30 -93
q0 -18 -7 -53q7 -4 46 -25l13.5 -7t21.5 -10.5t25 -10t30.5 -8.5t30.5 -3q14 0 34 8q19 10 18 25q0 16 -15 16q-4 0 -16 -3q-19 -4 -28 -4q-24 0 -42.5 17.5t-18.5 43.5q0 34 26 58q29 25 75 25q48 0 85 -25q65 -46 65 -126q0 -49 -26 -85.5t-59 -55.5q-53 -28 -116 -28z
M293 139q-51 27 -90 27q-26 0 -38 -12q-7 -7 -7 -17q0 -17 14.5 -25t30.5 -8q26 0 50 10q12 5 19 9t21 16z" />
    <glyph glyph-name="currency" unicode="&#xa4;" horiz-adv-x="667" 
d="M579 187l81 -82l-96 -95l-81 82q-73 -42 -150 -42q-82 0 -151 44l-81 -82l-95 95l82 82q-14 21 -18 29q-25 51 -25 120q0 84 42 152l-80 80l95 95l80 -80q9 6 27 16q57 27 125 27q80 0 150 -43l81 81l96 -96l-81 -80q2 -3 4 -6.5t3.5 -6.5l3.5 -7t4 -7q27 -56 27 -125
q0 -78 -43 -151zM497 340q0 38 -15 70q-19 43 -60 69t-89 26q-26 0 -54 -10q-51 -18 -80 -59.5t-29 -96.5q0 -37 12 -65q19 -46 61.5 -73t91.5 -27q35 0 70 16q43 21 67.5 61t24.5 89z" />
    <glyph glyph-name="brokenbar" unicode="&#xa6;" horiz-adv-x="229" 
d="M51 190h127v-381h-127v381zM51 308v381h127v-381h-127z" />
    <glyph glyph-name="section" unicode="&#xa7;" horiz-adv-x="542" 
d="M349 590q-42 12 -57 12q-26 0 -44 -12q-24 -14 -24 -39q0 -10 3.5 -17.5t10 -12.5t11.5 -8t12 -6l7 -3q20 -8 30 -11q10 -4 45.5 -16.5t54.5 -21.5q37 -15 56 -29q6 -4 20 -16q1 -1 5.5 -5t6.5 -6q3 -3 15 -20q24 -36 24 -79q0 -21 -5 -37q-7 -29 -22 -48t-46 -43
q4 -6 5 -8q10 -12 12 -15q29 -42 29 -98q0 -46 -19 -87q-15 -33 -43 -57t-52.5 -34.5t-56 -16t-40.5 -6t-18 -0.5q-98 0 -161 48q-58 44 -58 106q0 18 6 31q20 53 81 53q38 0 57 -18.5t19 -42.5q0 -15 -10 -41q36 -17 70 -17q25 0 40 10q29 17 29 43q0 12 -8 25
q-13 18 -85 42q-10 3 -35.5 13t-40.5 15q-51 20 -71 33l-16 11l-22 22q-32 43 -32 98q0 34 18 68q2 3 5.5 9t5.5 9q9 13 21 25q5 5 27 22q0 5 -1 6.5t-4.5 5t-6.5 8.5q-6 9 -14 27q-14 29 -14 73q0 68 42 117q3 4 8.5 9t7.5 7q3 2 11 10q57 43 148 43q60 0 108 -19
q23 -9 48 -27q12 -9 25 -22q2 -2 5 -6.5l5 -7.5q2 -2 10 -15q11 -27 11 -52q0 -39 -26 -63q-22 -22 -61 -22q-30 0 -53 16q-23 18 -23 48q0 14 14 40zM208 358q-10 -7 -13 -10q-15 -15 -15 -34q0 -9 7 -23q3 -5 8 -9.5t9.5 -7.5t14 -7l14.5 -6t18.5 -6.5l19.5 -6.5l68 -27
q12 0 22 10q10 12 10 29q0 15 -9 28q-1 1 -2.5 3t-4 5t-5.5 5q-13 8 -16 9q-14 8 -42 18l-32 12q-14 4 -31 11q-13 6 -21 7z" />
    <glyph glyph-name="dieresis" unicode="&#xa8;" 
d="M152 788q34 4 64 -19q10 -7 19 -20q15 -24 15 -51q0 -35 -24 -61q-25 -29 -66 -29q-36 0 -63 26.5t-28 63.5q0 24 12 45q23 40 71 45zM-59 788q26 2 47 -9.5t32 -26.5q18 -24 18 -54q0 -28 -19 -55q-13 -14 -18 -17q-24 -18 -55 -18t-55 19q-9 7 -20 22q-15 24 -15 50
q0 36 27 63q23 23 58 26z" />
    <glyph glyph-name="copyright" unicode="&#xa9;" horiz-adv-x="833" 
d="M773 351q0 -129 -85 -229q-43 -51 -102 -81.5t-96.5 -37t-72.5 -6.5q-122 0 -218 73q-138 108 -138 284q0 130 81 228q109 127 276 127q85 0 160 -37t126 -106q71 -95 69 -215zM741 352q0 109 -63 195q-15 20 -34.5 39t-51.5 41.5t-77.5 36t-96.5 13.5q-108 0 -192 -62
q-20 -15 -39.5 -34.5t-42.5 -52t-37 -78t-14 -97.5q0 -65 24 -123q37 -91 119.5 -146t181.5 -55q54 0 109 19q97 34 155 117.5t59 186.5zM540 131l-29 -2q-57 -5 -101 -5q-119 0 -173 55q-59 59 -59 189q0 84 35 136q26 35 61 53q54 27 144 27q28 0 82 -4l28 -1q40 -1 81 0
q0 -112 1 -168h-41q-7 35 -12 54t-18 45t-35.5 38.5t-54.5 12.5q-41 0 -68 -27q-37 -38 -37 -150q0 -165 51 -213q25 -23 69 -23q27 0 49 11q44 24 54 125h42q1 -74 0 -147z" />
    <glyph glyph-name="guillemotleft" unicode="&#xab;" horiz-adv-x="500" 
d="M220 460q9 0 16 -2q26 -11 26 -35q0 -23 -35 -58l-54 -58q-11 -11 -11 -21q0 -7 12 -21q3 -6 11 -16l38 -52q24 -34 24 -54q0 -9 -3 -15q-10 -28 -36 -28q-11 0 -29 11q-20 13 -95 88l-35 34q-1 1 -5.5 5t-5.5 5.5t-5 5t-5 5l-3.5 5t-3.5 5.5t-2.5 5.5t-2 6.5t-0.5 6
q0 14 11 29q21 27 64 64q3 3 8.5 8t8.5 7q4 4 16.5 15t20.5 17q47 38 75 38zM457 460q13 0 17 -1q9 -2 19 -11t10 -24q0 -24 -32 -56q-6 -6 -22 -24q-10 -10 -30 -32q-17 -19 -17 -26q0 -6 20 -33l20 -27q46 -61 46 -84q0 -15 -12.5 -28.5t-27.5 -13.5q-4 0 -13 3l-35 23
q-3 2 -17 16q-9 8 -31 30l-10.5 10t-12 12l-11.5 12q-50 49 -56 59q-5 8 -5 17q0 22 42 62l4 4q19 19 29 28q2 1 5 3.5l5.5 4.5t4.5 4q22 20 33 29q50 42 77 43z" />
    <glyph glyph-name="logicalnot" unicode="&#xac;" horiz-adv-x="667" 
d="M539 227h-539v127h667v-354h-128v227z" />
    <glyph glyph-name="registered" unicode="&#xae;" horiz-adv-x="833" 
d="M390 337h-8v-103q0 -27 2 -33q1 -3 2.5 -5t4.5 -3.5t5.5 -2.5t7.5 -2t8.5 -1.5t10 -1t10.5 -1.5v-59q-52 3 -103 3t-102 -3v59q34 3 41 12q4 5 4 17v277q0 21 -2 26q-4 8 -43 10v61l105 -3q28 0 67.5 1t57.5 1t40.5 -2.5t40.5 -8.5q35 -12 56.5 -40.5t22.5 -65.5
q-1 -69 -69 -98q-6 -3 -35 -10q2 -2 6 -4.5t6 -4.5q19 -15 34 -62l9 -38q4 -18 7 -27q5 -11 11 -10q7 0 11 8q7 15 10 45l51 -9q-10 -46 -19 -69q-26 -68 -86 -68q-43 0 -66 34q-14 23 -26 65q-2 10 -14 52t-27 54q-5 4 -11.5 6.5t-13.5 2.5zM382 410h16q57 0 77 10
q30 16 30 50q0 20 -11 32q-17 21 -65 21q-7 0 -16.5 -0.5t-11.5 -0.5q-11 -2 -14 -7q-5 -8 -5 -39v-66zM773 351q0 -129 -85 -229q-43 -51 -102 -81.5t-96.5 -37t-72.5 -6.5q-122 0 -218 73q-138 108 -138 284q0 130 81 228q109 127 276 127q85 0 160 -37t126 -106
q71 -95 69 -215zM741 352q0 109 -63 195q-15 20 -34.5 39t-51.5 41.5t-77.5 36t-96.5 13.5q-108 0 -192 -62q-20 -15 -39.5 -34.5t-42.5 -52t-37 -78t-14 -97.5q0 -65 24 -123q37 -91 119.5 -146t181.5 -55q54 0 109 19q97 34 155 117.5t59 186.5z" />
    <glyph glyph-name="degree" unicode="&#xb0;" horiz-adv-x="354" 
d="M177 745q39 0 71 -15q47 -20 74 -63t27 -94q0 -41 -15 -71q-20 -46 -63 -74t-94 -28q-63 0 -112 42q-60 51 -60 131q0 72 50 122t122 50zM177 630q-23 0 -39 -16t-16 -39t16.5 -39.5t39.5 -16.5t39 16.5t16 39.5t-16.5 39t-39.5 16z" />
    <glyph glyph-name="plusminus" unicode="&#xb1;" horiz-adv-x="667" 
d="M398 162h-128v209h-228v127h228v208h128v-208h227v-127h-227v-209zM625 0h-583v127h583v-127z" />
    <glyph glyph-name="acute" unicode="&#xb4;" 
d="M121 789q21 0 32 -5q18 -9 30 -28t12 -35q0 -7 -3 -17q-4 -15 -13.5 -24.5t-32.5 -26.5l-9 -6q-112 -83 -142 -83q-13 0 -24 7q-12 7 -19 19t-9 19.5t-2 11.5q0 17 14 34q1 2 13 14q2 2 4.5 5t5.5 6l33 28l34 31q10 10 24 21q30 27 52 29z" />
    <glyph glyph-name="mu" unicode="&#xb5;" horiz-adv-x="562" 
d="M501 144l35 2q15 -42 15 -73q0 -53 -34 -73q-16 -11 -38 -11q-15 0 -33 7q-42 16 -55 68q-55 -79 -149 -79q-65 0 -107 49q-6 -82 25 -146q10 -20 24.5 -41.5t21 -34.5t6.5 -27q0 -10 -4 -20q-15 -27 -46 -27q-28 0 -50 22q-42 48 -42 193q0 102 12 174q-23 115 -23 248
q0 56 25 80q15 15 35 15q34 0 51 -46q3 -21 3 -32q0 -48 -31 -271q32 -75 90 -75q29 0 55 23q34 29 48 82t14 148q0 2 -0.5 31.5t0 45t3.5 38t10 33.5q14 23 43 23q19 0 36 -13q26 -21 26 -91q0 -40 -5 -88q-10 -103 -45 -170q11 -48 46 -48q39 0 39 61q0 15 -1 23z" />
    <glyph glyph-name="paragraph" unicode="&#xb6;" horiz-adv-x="667" 
d="M558 706v-78h-36v-795h-84v795h-117v-795h-85v459q-41 11 -66 26q-88 57 -88 173q0 47 14 84.5t36 60.5t42.5 36.5t41.5 20.5q37 13 92 13h250z" />
    <glyph glyph-name="periodcentered" unicode="&#xb7;" horiz-adv-x="187" 
d="M91 201q-36 1 -61.5 26.5t-24.5 61.5q0 18 7 34q8 20 28.5 38t55.5 18q38 0 62.5 -25.5t24.5 -63.5q0 -21 -9 -39q-8 -17 -29.5 -34t-53.5 -16z" />
    <glyph glyph-name="cedilla" unicode="&#xb8;" 
d="M111 25l-37 -66q63 0 85 -12q41 -22 41 -67q0 -10 -3 -20q-7 -28 -30 -48q-40 -35 -113 -35q-56 0 -97 19q-31 13 -31 38q0 9 2 15q9 22 30 22q3 0 41 -11q40 -10 59 -10q24 1 37 8q12 8 12 21q0 15 -18 19q-7 3 -32 3q-11 0 -26 -1t-23.5 -1t-13.5 2q-17 9 -17 25
q0 11 23 54q23 40 25 44z" />
    <glyph glyph-name="guillemotright" unicode="&#xbb;" horiz-adv-x="500" 
d="M70 460q20 2 49 -24l64 -61l23 -22q3 -2 9 -8.5t8 -9.5q2 -2 12 -11t13 -13l5 -6q5 -6 8 -12.5t3 -13.5q0 -11 -14 -33q-20 -25 -120 -111q-45 -35 -70 -35q-4 0 -14 2q-28 9 -28 34q0 12 7 25q10 19 45 55q25 25 37 39q11 11 11 19q0 4 -2 7q-8 17 -47 67q-36 49 -36 70
q0 15 11 28t26 14zM312 460q14 0 27 -9q17 -10 78 -69q3 -3 9 -8.5t9 -8.5q2 -3 7 -8.5t8 -7.5l19 -18.5l16 -15t10.5 -11.5t7 -12.5t1.5 -12.5q0 -21 -36 -56l-11 -11t-13 -12l-41 -37q-41 -36 -61.5 -49t-40.5 -13q-9 0 -16 2q-7 3 -16.5 12t-9.5 22q0 12 8 26
q10 19 57 66q11 11 23 26q12 13 12 20q0 5 -12 22l-14 19q-9 13 -24.5 33.5t-20.5 28.5t-10 19.5t-5 21.5q0 16 12 28.5t27 12.5z" />
    <glyph glyph-name="questiondown" unicode="&#xbf;" horiz-adv-x="583" 
d="M314 721q35 3 68 -22q34 -28 34 -74q0 -38 -25 -66q-29 -31 -72 -31q-38 0 -66.5 28.5t-28.5 67.5q0 26 14 50q25 42 76 47zM531 92l-15 -18q-20 -20 -35 -30q-18 -14 -45 -27q-71 -33 -164 -33q-48 0 -102 14q-18 4 -28 8q-36 12 -66 37q-7 6 -20 19q-56 60 -56 142
q0 61 32 108q12 17 25 29t28 21q26 15 65 26q8 2 23.5 7t22.5 7q24 6 30 13q5 7 5 30q5 20 8 24q5 7 13 10t13.5 4t23.5 2q22 2 34 2q27 0 44 -6q33 -13 33 -69q0 -67 -50 -96q-12 -7 -29 -12.5t-38 -10.5l-29 -7q-23 -8 -31 -14q-39 -23 -39 -64q0 -58 54 -78q22 -9 55 -9
q37 0 63 11l24 15l-7.5 7.5t-7.5 8.5q0 1 -0.5 1t-0.5 1q-15 18 -15 45q0 21 12 45q15 26 41 38.5t51 12.5q53 0 85 -39q24 -32 24 -78q0 -52 -31 -97z" />
    <glyph glyph-name="Agrave" unicode="&#xc0;" horiz-adv-x="812" 
d="M398 708q103 2 136 -6q19 -5 31 -25q7 -14 21 -63q15 -45 27 -90l62 -207l32 -108q17 -56 28 -64q6 -4 15 -4q6 0 16.5 2t15.5 2q25 0 37 -24q11 -19 11 -48q0 -30 -17 -49q-10 -11 -29 -21q-9 -3 -26 -3l-72 6q-24 3 -48 3q-33 0 -73 -5q-6 0 -24.5 -2t-28.5 -2
q-31 0 -49 20q-18 22 -18 56q0 26 12 43q11 15 29 15q3 0 11 -1.5t15 -1t12 3.5q8 5 8 20q0 12 -10 41q-2 12 -9 17q-4 4 -26 6q-7 0 -19 0.5t-19 0.5q-52 0 -78 -1q-5 0 -14.5 -0.5t-14.5 -0.5q-1 0 -4.5 -0.5l-7 -1t-8.5 -3.5t-8 -8q-15 -30 -15 -55q0 -18 17 -18
q3 0 8.5 1t10 1.5t8.5 0.5q9 0 14 -2q28 -10 28 -60q0 -33 -18 -53q-6 -7 -15 -13q-16 -8 -39 -8q-8 0 -18 1t-21.5 2.5t-18.5 2.5q-25 3 -50 3q-14 0 -89 -5q-21 -3 -42 -3q-31 0 -49 15q-25 22 -25 59q0 25 11 47.5t37 22.5q6 0 18 -1.5t17 -1.5q16 0 24 9q9 9 65 169
l55 158q35 102 43 123q11 33 21 53q20 43 47 50q17 3 60 5zM428 577q-2 0 -3 -5q-1 -4 -3 -13.5t-4 -14.5q-8 -31 -26 -91q-2 -7 -5.5 -21t-5.5 -19q-15 -49 -15 -50q0 -6 4 -9t39 -3q4 0 16 -1t18 0q2 0 5.5 0.5t5.5 0.5q11 0 15 2q8 2 8 10q0 1 -14 66l-8.5 38.5
t-8.5 37.5q-10 44 -11 55q-3 18 -7 17zM373 928q13 1 28.5 -3.5t26 -10l29.5 -16t27 -14.5q41 -20 52 -27q17 -10 26 -16t17.5 -18t8.5 -26q0 -23 -11 -38q-14 -20 -40 -20q-21 0 -33 6q-38 10 -130 48q-25 10 -33 17q-26 17 -26 44q0 34 23 57q15 15 35 17z" />
    <glyph glyph-name="Aacute" unicode="&#xc1;" horiz-adv-x="812" 
d="M398 708q103 2 136 -6q19 -5 31 -25q7 -14 21 -63q15 -45 27 -90l62 -207l32 -108q17 -56 28 -64q6 -4 15 -4q6 0 16.5 2t15.5 2q25 0 37 -24q11 -19 11 -48q0 -30 -17 -49q-10 -11 -29 -21q-9 -3 -26 -3l-72 6q-24 3 -48 3q-33 0 -73 -5q-6 0 -24.5 -2t-28.5 -2
q-31 0 -49 20q-18 22 -18 56q0 26 12 43q11 15 29 15q3 0 11 -1.5t15 -1t12 3.5q8 5 8 20q0 12 -10 41q-2 12 -9 17q-4 4 -26 6q-7 0 -19 0.5t-19 0.5q-52 0 -78 -1q-5 0 -14.5 -0.5t-14.5 -0.5q-1 0 -4.5 -0.5l-7 -1t-8.5 -3.5t-8 -8q-15 -30 -15 -55q0 -18 17 -18
q3 0 8.5 1t10 1.5t8.5 0.5q9 0 14 -2q28 -10 28 -60q0 -33 -18 -53q-6 -7 -15 -13q-16 -8 -39 -8q-8 0 -18 1t-21.5 2.5t-18.5 2.5q-25 3 -50 3q-14 0 -89 -5q-21 -3 -42 -3q-31 0 -49 15q-25 22 -25 59q0 25 11 47.5t37 22.5q6 0 18 -1.5t17 -1.5q16 0 24 9q9 9 65 169
l55 158q35 102 43 123q11 33 21 53q20 43 47 50q17 3 60 5zM428 577q-2 0 -3 -5q-1 -4 -3 -13.5t-4 -14.5q-8 -31 -26 -91q-2 -7 -5.5 -21t-5.5 -19q-15 -49 -15 -50q0 -6 4 -9t39 -3q4 0 16 -1t18 0q2 0 5.5 0.5t5.5 0.5q11 0 15 2q8 2 8 10q0 1 -14 66l-8.5 38.5
t-8.5 37.5q-10 44 -11 55q-3 18 -7 17zM510 930q18 0 27 -5q14 -6 27.5 -24t13.5 -43q0 -27 -19 -43q-8 -7 -47 -24q-99 -39 -114 -43q-30 -9 -44 -9q-12 0 -22 7q-25 16 -25 50q0 6 1 11t2.5 9t4.5 8l4.5 6t6 6t5.5 4.5t6 3.5l5 4q20 12 30 17q8 5 23.5 12.5t20.5 10.5
q3 2 16.5 9.5l20.5 11.5t18.5 9.5t21 8t17.5 3.5z" />
    <glyph glyph-name="Acircumflex" unicode="&#xc2;" horiz-adv-x="812" 
d="M398 708q103 2 136 -6q19 -5 31 -25q7 -14 21 -63q15 -45 27 -90l62 -207l32 -108q17 -56 28 -64q6 -4 15 -4q6 0 16.5 2t15.5 2q25 0 37 -24q11 -19 11 -48q0 -30 -17 -49q-10 -11 -29 -21q-9 -3 -26 -3l-72 6q-24 3 -48 3q-33 0 -73 -5q-6 0 -24.5 -2t-28.5 -2
q-31 0 -49 20q-18 22 -18 56q0 26 12 43q11 15 29 15q3 0 11 -1.5t15 -1t12 3.5q8 5 8 20q0 12 -10 41q-2 12 -9 17q-4 4 -26 6q-7 0 -19 0.5t-19 0.5q-52 0 -78 -1q-5 0 -14.5 -0.5t-14.5 -0.5q-1 0 -4.5 -0.5l-7 -1t-8.5 -3.5t-8 -8q-15 -30 -15 -55q0 -18 17 -18
q3 0 8.5 1t10 1.5t8.5 0.5q9 0 14 -2q28 -10 28 -60q0 -33 -18 -53q-6 -7 -15 -13q-16 -8 -39 -8q-8 0 -18 1t-21.5 2.5t-18.5 2.5q-25 3 -50 3q-14 0 -89 -5q-21 -3 -42 -3q-31 0 -49 15q-25 22 -25 59q0 25 11 47.5t37 22.5q6 0 18 -1.5t17 -1.5q16 0 24 9q9 9 65 169
l55 158q35 102 43 123q11 33 21 53q20 43 47 50q17 3 60 5zM428 577q-2 0 -3 -5q-1 -4 -3 -13.5t-4 -14.5q-8 -31 -26 -91q-2 -7 -5.5 -21t-5.5 -19q-15 -49 -15 -50q0 -6 4 -9t39 -3q4 0 16 -1t18 0q2 0 5.5 0.5t5.5 0.5q11 0 15 2q8 2 8 10q0 1 -14 66l-8.5 38.5
t-8.5 37.5q-10 44 -11 55q-3 18 -7 17zM447 797q-7 -1 -23 -8q-12 -4 -17 -6l-35 -12l-32.5 -11l-25.5 -8.5t-24 -6.5t-17 -2q-11 0 -19 4q-24 13 -24 47q0 27 24 45q22 17 87 50q72 38 104 38q24 0 70 -23q83 -40 111 -63q22 -20 22 -44q0 -20 -13 -37t-34 -17q-7 0 -16 3
l-34 11q-28 10 -104 40z" />
    <glyph glyph-name="Atilde" unicode="&#xc3;" horiz-adv-x="812" 
d="M398 708q103 2 136 -6q19 -5 31 -25q7 -14 21 -63q15 -45 27 -90l62 -207l32 -108q17 -56 28 -64q6 -4 15 -4q6 0 16.5 2t15.5 2q25 0 37 -24q11 -19 11 -48q0 -30 -17 -49q-10 -11 -29 -21q-9 -3 -26 -3l-72 6q-24 3 -48 3q-33 0 -73 -5q-6 0 -24.5 -2t-28.5 -2
q-31 0 -49 20q-18 22 -18 56q0 26 12 43q11 15 29 15q3 0 11 -1.5t15 -1t12 3.5q8 5 8 20q0 12 -10 41q-2 12 -9 17q-4 4 -26 6q-7 0 -19 0.5t-19 0.5q-52 0 -78 -1q-5 0 -14.5 -0.5t-14.5 -0.5q-1 0 -4.5 -0.5l-7 -1t-8.5 -3.5t-8 -8q-15 -30 -15 -55q0 -18 17 -18
q3 0 8.5 1t10 1.5t8.5 0.5q9 0 14 -2q28 -10 28 -60q0 -33 -18 -53q-6 -7 -15 -13q-16 -8 -39 -8q-8 0 -18 1t-21.5 2.5t-18.5 2.5q-25 3 -50 3q-14 0 -89 -5q-21 -3 -42 -3q-31 0 -49 15q-25 22 -25 59q0 25 11 47.5t37 22.5q6 0 18 -1.5t17 -1.5q16 0 24 9q9 9 65 169
l55 158q35 102 43 123q11 33 21 53q20 43 47 50q17 3 60 5zM428 577q-2 0 -3 -5q-1 -4 -3 -13.5t-4 -14.5q-8 -31 -26 -91q-2 -7 -5.5 -21t-5.5 -19q-15 -49 -15 -50q0 -6 4 -9t39 -3q4 0 16 -1t18 0q2 0 5.5 0.5t5.5 0.5q11 0 15 2q8 2 8 10q0 1 -14 66l-8.5 38.5
t-8.5 37.5q-10 44 -11 55q-3 18 -7 17zM351 930q33 2 74 -14l22 -9t24.5 -9.5t20.5 -5.5t24 -3q23 0 50 18q22 16 40 16q11 0 20 -4q28 -14 28 -48q0 -24 -16 -48q-42 -63 -128 -63q-36 0 -86 21q-49 20 -61 20q-15 0 -34 -12q-5 -3 -14 -10t-13.5 -10t-12 -5.5t-15.5 -2.5
q-19 0 -35 16t-16 37q1 35 23 62q1 2 8.5 9.5l8.5 8.5q38 34 88 36z" />
    <glyph glyph-name="Adieresis" unicode="&#xc4;" horiz-adv-x="812" 
d="M539 925q32 0 58 -18q36 -28 36 -71q-2 -36 -24 -61q-11 -12 -21 -18q-21 -12 -47 -12q-29 0 -52 17q-37 29 -37 74q0 19 7 35q21 49 80 54zM274 762l-14 14q-21 27 -21 59q0 29 16 52q2 3 14 15q27 22 57 23q45 0 73 -33q20 -23 20 -56q0 -34 -23 -60q-27 -32 -68 -32
q-28 0 -54 18zM429 708q25 1 73 -1q41 -3 55 -18q12 -13 25 -56l7 -21.5t8 -28.5q3 -9 18 -61l68 -227q19 -67 34 -112q6 -19 9.5 -25.5t9.5 -11t17 -4.5q5 0 15 1.5t16 1.5q12 0 21 -6q26 -19 26 -64q0 -33 -18 -53q-20 -23 -57 -23q-8 0 -17.5 1t-21 2.5t-17.5 2.5
q-44 4 -68 4q-28 0 -57 -3q-47 -7 -58 -7q-19 0 -33 6q-37 17 -37 70q0 24 9 40t23 18q3 1 17 0t17 -1q21 0 21 19q0 14 -9 41q-6 17 -11 21q-4 4 -25 6q-7 0 -19 0.5t-19 0.5q-37 0 -109 -2q-16 0 -25 -10q-3 -4 -11 -28q0 -1 -1 -5.5l-2.5 -11t-1.5 -11.5q0 -18 17 -20
q5 0 11 2q5 1 16 1q15 0 25 -9q16 -17 16 -52q0 -33 -16 -53l-10 -10q-16 -12 -45 -12q-18 0 -54 6q-27 3 -55 3q-25 0 -79 -4q-43 -5 -51 -5q-35 0 -55 20.5t-20 56.5q0 24 11.5 46t38.5 23q3 0 15.5 -2t20.5 -2q6 0 11 2.5t8.5 5t7 9t4.5 9l4.5 11t3.5 9.5q5 11 10 28
q22 60 32 91l52 147q29 89 50 146q11 28 22 53q12 30 33 45q3 2 6 3.5t5.5 2.5t6 1.5t6 1t8 0.5t8 0.5t9.5 0.5h11q14 1 44 1zM430 578q-2 -1 -7 -22q-4 -12 -5 -18l-21 -73q-1 -4 -4.5 -15.5l-5.5 -18.5q-2 -6 -6 -20.5t-7 -22.5q-6 -17 -6 -23q0 -7 3 -10q5 -4 43 -4
q5 0 13.5 -0.5t12.5 -0.5q3 0 7.5 0.5t6.5 0.5q3 1 7.5 1h7.5q10 4 10 12q-2 10 -12 56l-23 102q-9 40 -9 43q0 2 -0.5 5t-2 5.5t-2.5 2.5z" />
    <glyph glyph-name="Aring" unicode="&#xc5;" horiz-adv-x="812" 
d="M435 927q11 0 27 -4q32 -8 52 -34q22 -26 22 -63q0 -22 -9 -43q-11 -22 -35 -39.5t-57 -17.5q-48 0 -79 40q-20 26 -20 60q0 39 25 67q31 34 74 34zM433 863q-14 -1 -23.5 -11.5t-9.5 -24.5q0 -20 12 -29t25 -9q5 0 17 4q20 10 20 32q0 7 -4 17q-11 24 -37 21zM499 219
h-30q-17 1 -52 1q-21 0 -65 -2q-26 0 -34 -9q-1 -1 -10 -22q-7 -21 -7 -37q0 -5 1 -7q5 -11 16 -11q2 0 5.5 0.5t5.5 1.5q5 1 15 1q17 0 26 -9q16 -17 16 -50q0 -47 -29 -66q-15 -11 -42 -11q-12 0 -34 3t-28 4q-25 3 -51 3q-33 0 -73 -5q-36 -4 -53 -4q-41 0 -60 25
q-8 11 -13 25q-2 7 -2 23q0 33 14 53q13 19 34 19q4 0 16.5 -2t20.5 -2q17 0 28 19q7 12 22 56q8 21 34 97l65 185q40 116 49 137q17 40 32 54q16 16 49 18q23 1 70 1q50 0 75 -2q34 -4 47 -17q11 -10 20 -39q3 -11 8 -26q3 -11 9.5 -32.5t9.5 -32.5l53 -177l30 -101
l13 -41.5t13 -44.5q10 -36 18 -45q9 -9 22 -9q5 0 15.5 2t15.5 2q19 0 33 -19q14 -22 14 -48q0 -33 -16 -54q-21 -24 -59 -24q-1 0 -46 3q-54 6 -81 6q-26 0 -76 -6q-26 -4 -39 -4q-33 1 -50.5 21.5t-17.5 53.5q0 28 11 43q11 17 30 17q6 0 16 -2h3q2 -1 4.5 -1t5.5 0.5t6 2
t5.5 3.5t4 6t1.5 9q0 6 -6 33q-4 22 -14 30q-4 3 -14 4zM407 351h44h11t8 1q8 4 8 12q0 3 -11.5 55t-12.5 55l-18 84v6t-1 6q-3 8 -5 8q-4 -1 -9 -30q-7 -28 -20 -66q-2 -6 -4.5 -16t-5 -18.5t-5.5 -16.5l-8 -27.5l-8 -28.5t-3 -12q0 -4 5 -9q4 -3 35 -3z" />
    <glyph glyph-name="AE" unicode="&#xc6;" horiz-adv-x="1125" 
d="M737 262v-58q0 -25 3 -38q9 -34 64 -34h49q32 0 48 1q42 3 53 20q7 18 7 33q0 11 -4 31q-2 11 -2 35q0 36 17 56q22 28 66 28q24 0 44 -14q5 -4 14 -13q15 -20 15 -61q0 -19 -4 -57.5t-4 -57.5q0 -13 4 -37q5 -35 5 -44q0 -21 -13 -35q-17 -17 -66 -17q-21 0 -128 5
q-85 3 -173 3q-98 0 -147 -2q-34 -2 -50 -4q-6 0 -16 -0.5t-15 -0.5q-25 0 -42 10q-10 7 -14 13q-17 21 -17 51q0 35 15.5 53t37.5 18q7 0 21 -3t22 -3q13 0 19 8t7.5 18t1.5 29v6q1 12 1 36v40q0 19 -5 24q-4 4 -21 4q-7 0 -21.5 0.5t-21.5 0.5q-9 1 -27 1q-6 0 -17 0.5
t-16 0.5q-24 0 -36 -4.5t-23 -19.5q-17 -21 -58 -98q-10 -23 -10 -29q0 -7 5 -11q4 -3 8.5 -3.5t13.5 0.5t15 1q24 0 35 -18q14 -20 14 -51q-1 -28 -10 -43q-2 -2 -10 -12q-21 -20 -56 -20q-18 0 -50 4q-10 0 -26.5 1t-30 1.5t-25.5 0.5q-30 0 -60 -3q-43 -5 -49 -5
q-17 0 -29 5q-45 15 -45 69q0 14 3 26q5 23 18 34t26 11q5 0 16 -3t16 -3q9 0 14 5q11 7 27 35q17 28 67 119l150 271q7 12 18 32.5l17.5 32.5l14.5 25.5t14 22.5t11 13q13 12 40 13q6 1 54 -2q6 -1 17.5 -1h17.5q24 -2 36 -2t36.5 -0.5t36.5 -1.5q76 -2 115 -2q41 0 123 2
q13 0 38 1t38 1q10 0 29 0.5t28 0.5q32 0 40 -2q35 -8 35 -52q0 -7 -0.5 -15t-1.5 -17.5t-1 -14.5q-2 -15 -2 -45q0 -24 3 -48q4 -30 4 -45q0 -37 -20 -55q-23 -22 -60 -22q-45 0 -67 39q-4 8 -5 17q-3 12 -3 22l3 30q2 9 4 27q2 10 2 15q0 4 -1 6q0 18 -18 24q-18 5 -65 5
q-45 0 -67 -1q-5 0 -15.5 -0.5t-15.5 -1.5l-4 -1q-3 0 -6.5 -1t-8 -3.5t-7.5 -6.5q-8 -8 -8 -35q-1 -12 -1 -37q0 -4 0.5 -11.5t0.5 -11.5v-4v-5.5t0.5 -6t2 -6.5t4 -5.5t6.5 -4t10 -1.5q23 0 32 7q6 4 8 10t2 11t-1 15t-1 17q0 47 54 47q23 0 37 -12.5t14 -35.5
q0 -6 -0.5 -12.5t-1.5 -15t-1 -13.5q-3 -27 -3 -55q0 -22 4 -68q6 -38 6 -59q0 -41 -21 -56q-13 -11 -35 -11q-28 0 -43 21q-5 6 -7 16t-2 16.5t0.5 18.5t0.5 15q0 14 -13 18q-6 3 -29 3q-16 0 -21 -13q0 -1 -0.5 -15t-0.5 -16zM555 491v32q0 46 -2 52q-1 2 -2 4.5t-5.5 6
t-9.5 2.5q-9 -2 -21 -26q-3 -6 -9.5 -16.5l-9.5 -15.5l-27 -52q-17 -31 -17 -40q0 -15 41 -15q5 0 14.5 0.5t14.5 0.5q16 1 20 3q11 4 13 18q0 4 0.5 12t0.5 11q0 15 -1 23z" />
    <glyph glyph-name="Ccedilla" unicode="&#xc7;" horiz-adv-x="667" 
d="M507 648q0 37 15 51q17 17 48 17q21 0 36 -8q30 -18 30 -64q0 -16 -4 -47t-4 -46q0 -14 4 -44q0 -4 1 -12t1.5 -14t0.5 -12q0 -33 -25 -55q-23 -19 -61 -19t-60 22q-17 18 -17 46q0 6 0.5 15.5t0.5 14t-1 12.5t-5 17q-9 20 -32 35q-18 9 -22 10q-24 8 -52 8
q-31 0 -62 -17q-18 -10 -36 -38q-2 -3 -10 -19q-2 -3 -4 -10t-4 -10q-16 -54 -16 -131q0 -76 16 -125q11 -36 29 -57q34 -42 101 -42q37 0 65 18q21 17 25 23q13 19 13 50q0 4 -0.5 12.5t-0.5 12.5q0 43 29 64q19 15 47 15q42 -1 70 -27q7 -8 11 -17q16 -29 16 -68
q0 -71 -37 -119t-85 -73q-66 -33 -170 -33q-86 0 -146 29q-15 7 -39 23q-89 60 -121 176q-18 68 -18 139q0 32 1 48q13 137 74 217q46 55 98 79q55 26 126 26q81 0 137 -40q12 -8 37 -33zM393 25l-37 -66q62 0 84 -12q41 -22 41 -67q0 -10 -2 -20q-8 -28 -31 -48
q-40 -35 -113 -35q-56 0 -97 19q-31 16 -31 38q0 6 3 15q9 22 29 22q2 0 41 -11q40 -10 59 -10q26 2 37 8q13 8 13 21q0 6 -5.5 11.5t-12.5 7.5q-8 3 -33 3q-11 0 -25.5 -1t-23.5 -1t-14 2q-16 8 -16 25q0 14 23 54l24 44z" />
    <glyph glyph-name="Egrave" unicode="&#xc8;" horiz-adv-x="708" 
d="M377 256v11q3 26 -3 32q-9 7 -36 7t-31 -15q-2 -4 -2 -34q0 -80 3 -91q5 -15 13 -21q14 -12 73 -12q58 0 88 3q41 5 53 16q12 12 12 33q0 11 -4 35q-2 22 -2 33q0 36 16 55q6 8 20 18q14 7 23 7q12 3 25 3q21 0 39 -11q34 -22 34 -76q0 -12 -5 -64q-3 -24 -3 -48
q0 -22 3 -43q5 -35 5 -43q0 -20 -12 -33q-17 -18 -57 -18q-10 0 -30 1t-30 1l-74 3q-136 4 -204 4q-83 0 -198 -7q-3 0 -10 -0.5t-11 -0.5q-34 0 -53 20.5t-19 54.5t15 52.5t37 18.5q7 0 22.5 -3t23.5 -3q12 0 19 10q6 9 8 58v237v67q-1 30 -7 38q-7 13 -23 13
q-7 0 -21 -2.5t-21 -2.5q-16 0 -24 4q-30 16 -30 67q0 31 16 50q14 14 23 18q18 7 46 7h10q6 -1 16 -1t16 -1l68 -3q52 -2 80 -2q42 0 119.5 2t103.5 2q28 0 43 1q11 0 33.5 1t33.5 1q4 0 12 -0.5t12 -0.5q41 -2 49 -31q0 -1 1.5 -8.5t1.5 -12.5l-3 -42q-3 -27 -3 -53
q0 -23 3 -44q5 -40 5 -47q0 -38 -23 -58q-23 -21 -56 -21q-21 0 -41 11q-36 21 -36 69q0 13 4 37t4 36q0 16 -9 23q-11 9 -68 9q-59 0 -89 -1q-33 0 -45 -5q-15 -6 -20 -19q-3 -11 -3 -43q0 -6 0.5 -20t0.5 -21q0 -22 9 -29q5 -3 23 -3q21 0 31 5q13 4 13 22q0 3 -2 23.5
t1 22.5q4 15 16.5 23.5t23.5 8.5l11 1q29 0 41 -15.5t12 -34.5q0 -3 -0.5 -9t-0.5 -9q-2 -18 -3 -26q-2 -38 -2 -55q0 -35 4 -63q5 -50 5 -59q0 -31 -8 -44q-2 -5 -7.5 -9.5t-7.5 -4.5q-13 -10 -34 -10q-13 0 -25 7q-27 13 -27 51zM289 928q13 1 29 -3.5t26.5 -9.5t29.5 -16
t27 -15l51 -27l26.5 -16t18 -18t8.5 -26q0 -23 -11 -38q-14 -20 -40 -20q-27 0 -33 6q-38 10 -130 48q-25 11 -34 17q-25 19 -25 44q0 35 23 57q15 15 34 17z" />
    <glyph glyph-name="Eacute" unicode="&#xc9;" horiz-adv-x="708" 
d="M377 256v11q3 26 -3 32q-9 7 -36 7t-31 -15q-2 -4 -2 -34q0 -80 3 -91q5 -15 13 -21q14 -12 73 -12q58 0 88 3q41 5 53 16q12 12 12 33q0 11 -4 35q-2 22 -2 33q0 36 16 55q6 8 20 18q14 7 23 7q12 3 25 3q21 0 39 -11q34 -22 34 -76q0 -12 -5 -64q-3 -24 -3 -48
q0 -22 3 -43q5 -35 5 -43q0 -20 -12 -33q-17 -18 -57 -18q-10 0 -30 1t-30 1l-74 3q-136 4 -204 4q-83 0 -198 -7q-3 0 -10 -0.5t-11 -0.5q-34 0 -53 20.5t-19 54.5t15 52.5t37 18.5q7 0 22.5 -3t23.5 -3q12 0 19 10q6 9 8 58v237v67q-1 30 -7 38q-7 13 -23 13
q-7 0 -21 -2.5t-21 -2.5q-16 0 -24 4q-30 16 -30 67q0 31 16 50q14 14 23 18q18 7 46 7h10q6 -1 16 -1t16 -1l68 -3q52 -2 80 -2q42 0 119.5 2t103.5 2q28 0 43 1q11 0 33.5 1t33.5 1q4 0 12 -0.5t12 -0.5q41 -2 49 -31q0 -1 1.5 -8.5t1.5 -12.5l-3 -42q-3 -27 -3 -53
q0 -23 3 -44q5 -40 5 -47q0 -38 -23 -58q-23 -21 -56 -21q-21 0 -41 11q-36 21 -36 69q0 13 4 37t4 36q0 16 -9 23q-11 9 -68 9q-59 0 -89 -1q-33 0 -45 -5q-15 -6 -20 -19q-3 -11 -3 -43q0 -6 0.5 -20t0.5 -21q0 -22 9 -29q5 -3 23 -3q21 0 31 5q13 4 13 22q0 3 -2 23.5
t1 22.5q4 15 16.5 23.5t23.5 8.5l11 1q29 0 41 -15.5t12 -34.5q0 -3 -0.5 -9t-0.5 -9q-2 -18 -3 -26q-2 -38 -2 -55q0 -35 4 -63q5 -50 5 -59q0 -31 -8 -44q-2 -5 -7.5 -9.5t-7.5 -4.5q-13 -10 -34 -10q-13 0 -25 7q-27 13 -27 51zM427 930q18 0 27 -5q14 -6 27 -24t13 -43
q0 -28 -18 -43q-8 -7 -48 -24q-93 -38 -113 -43q-30 -9 -44 -9q-12 0 -22 7q-26 16 -26 50q0 14 7.5 26t12 15t15.5 11q20 12 30 17l45 23q73 41 94 42z" />
    <glyph glyph-name="Ecircumflex" unicode="&#xca;" horiz-adv-x="708" 
d="M377 256v11q3 26 -3 32q-9 7 -36 7t-31 -15q-2 -4 -2 -34q0 -80 3 -91q5 -15 13 -21q14 -12 73 -12q58 0 88 3q41 5 53 16q12 12 12 33q0 11 -4 35q-2 22 -2 33q0 36 16 55q6 8 20 18q14 7 23 7q12 3 25 3q21 0 39 -11q34 -22 34 -76q0 -12 -5 -64q-3 -24 -3 -48
q0 -22 3 -43q5 -35 5 -43q0 -20 -12 -33q-17 -18 -57 -18q-10 0 -30 1t-30 1l-74 3q-136 4 -204 4q-83 0 -198 -7q-3 0 -10 -0.5t-11 -0.5q-34 0 -53 20.5t-19 54.5t15 52.5t37 18.5q7 0 22.5 -3t23.5 -3q12 0 19 10q6 9 8 58v237v67q-1 30 -7 38q-7 13 -23 13
q-7 0 -21 -2.5t-21 -2.5q-16 0 -24 4q-30 16 -30 67q0 31 16 50q14 14 23 18q18 7 46 7h10q6 -1 16 -1t16 -1l68 -3q52 -2 80 -2q42 0 119.5 2t103.5 2q28 0 43 1q11 0 33.5 1t33.5 1q4 0 12 -0.5t12 -0.5q41 -2 49 -31q0 -1 1.5 -8.5t1.5 -12.5l-3 -42q-3 -27 -3 -53
q0 -23 3 -44q5 -40 5 -47q0 -38 -23 -58q-23 -21 -56 -21q-21 0 -41 11q-36 21 -36 69q0 13 4 37t4 36q0 16 -9 23q-11 9 -68 9q-59 0 -89 -1q-33 0 -45 -5q-15 -6 -20 -19q-3 -11 -3 -43q0 -6 0.5 -20t0.5 -21q0 -22 9 -29q5 -3 23 -3q21 0 31 5q13 4 13 22q0 3 -2 23.5
t1 22.5q4 15 16.5 23.5t23.5 8.5l11 1q29 0 41 -15.5t12 -34.5q0 -3 -0.5 -9t-0.5 -9q-2 -18 -3 -26q-2 -38 -2 -55q0 -35 4 -63q5 -50 5 -59q0 -31 -8 -44q-2 -5 -7.5 -9.5t-7.5 -4.5q-13 -10 -34 -10q-13 0 -25 7q-27 13 -27 51zM374 797q-7 -1 -23 -8q-12 -4 -17 -6
l-35 -12l-32.5 -11l-25.5 -8.5t-24 -6.5t-17 -2q-11 0 -19 4q-24 13 -24 47q0 27 24 45q35 23 87 50q72 38 104 38q24 0 70 -23q83 -40 111 -63q23 -20 23 -44q0 -20 -13 -37t-34 -17q-8 0 -17 3q-5 2 -34 11q-28 10 -104 40z" />
    <glyph glyph-name="Edieresis" unicode="&#xcb;" horiz-adv-x="708" 
d="M377 256v11q3 26 -3 32q-9 7 -36 7t-31 -15q-2 -4 -2 -34q0 -80 3 -91q5 -15 13 -21q14 -12 73 -12q58 0 88 3q41 5 53 16q12 12 12 33q0 11 -4 35q-2 22 -2 33q0 36 16 55q6 8 20 18q14 7 23 7q12 3 25 3q21 0 39 -11q34 -22 34 -76q0 -12 -5 -64q-3 -24 -3 -48
q0 -22 3 -43q5 -35 5 -43q0 -20 -12 -33q-17 -18 -57 -18q-10 0 -30 1t-30 1l-74 3q-136 4 -204 4q-83 0 -198 -7q-3 0 -10 -0.5t-11 -0.5q-34 0 -53 20.5t-19 54.5t15 52.5t37 18.5q7 0 22.5 -3t23.5 -3q12 0 19 10q6 9 8 58v237v67q-1 30 -7 38q-7 13 -23 13
q-7 0 -21 -2.5t-21 -2.5q-16 0 -24 4q-30 16 -30 67q0 31 16 50q14 14 23 18q18 7 46 7h10q6 -1 16 -1t16 -1l68 -3q52 -2 80 -2q42 0 119.5 2t103.5 2q28 0 43 1q11 0 33.5 1t33.5 1q4 0 12 -0.5t12 -0.5q41 -2 49 -31q0 -1 1.5 -8.5t1.5 -12.5l-3 -42q-3 -27 -3 -53
q0 -23 3 -44q5 -40 5 -47q0 -38 -23 -58q-23 -21 -56 -21q-21 0 -41 11q-36 21 -36 69q0 13 4 37t4 36q0 16 -9 23q-11 9 -68 9q-59 0 -89 -1q-33 0 -45 -5q-15 -6 -20 -19q-3 -11 -3 -43q0 -6 0.5 -20t0.5 -21q0 -22 9 -29q5 -3 23 -3q21 0 31 5q13 4 13 22q0 3 -2 23.5
t1 22.5q4 15 16.5 23.5t23.5 8.5l11 1q29 0 41 -15.5t12 -34.5q0 -3 -0.5 -9t-0.5 -9q-2 -18 -3 -26q-2 -38 -2 -55q0 -35 4 -63q5 -50 5 -59q0 -31 -8 -44q-2 -5 -7.5 -9.5t-7.5 -4.5q-13 -10 -34 -10q-13 0 -25 7q-27 13 -27 51zM248 927q29 0 46 -8q11 -6 17 -11
q6 -4 14 -12q20 -26 20 -57q0 -39 -26.5 -65.5t-64.5 -26.5q-31 0 -55 20q-4 0 -14 13q-20 26 -20 59q0 44 34 69q22 17 49 19zM462 927q41 1 68.5 -24.5t27.5 -66.5q0 -24 -10 -41q-13 -23 -35 -35.5t-44 -12.5q-28 0 -48 14q-22 13 -33 35.5t-11 42.5q0 27 17 50
q7 11 14 17q25 18 54 21z" />
    <glyph glyph-name="Igrave" unicode="&#xcc;" horiz-adv-x="417" 
d="M311 444v-259q1 -29 12 -37q6 -6 18 -6l18 3q1 0 10 1.5t15 1.5q21 0 36 -17q16 -19 16 -53t-18.5 -55.5t-53.5 -21.5q-13 0 -37 3.5t-29 3.5q-54 6 -80 6q-32 0 -72 -5q-48 -8 -74 -8q-15 0 -23 2q-24 6 -36.5 26.5t-12.5 44.5q0 33 12 51q16 22 39 22q8 0 22.5 -3
t21.5 -3q16 0 23 12q6 9 6 95v139v55q1 56 0 56q0 44 -5 53q-7 14 -22 14q-6 0 -21 -3t-23 -3q-14 0 -24 6q-28 16 -28 65q0 18 3 29q14 42 62 46q14 1 74 -6q35 -4 77 -4q50 0 74 3q6 0 31 3.5t38 3.5q28 0 46 -12q30 -21 30 -64q-1 -30 -12 -48q-16 -22 -39 -22
q-7 0 -22.5 3t-23.5 3q-15 0 -23 -15q-5 -11 -5 -106zM138 928q13 1 29 -3.5t26.5 -9.5t29.5 -16t27 -15q6 -3 16 -8.5l18.5 -10l16.5 -8.5l26.5 -16t18 -18t8.5 -26q0 -16 -11 -38q-14 -20 -40 -20q-27 0 -33 6q-38 10 -130 48q-24 9 -34 17q-25 17 -25 44q0 35 23 57
q12 14 34 17z" />
    <glyph glyph-name="Iacute" unicode="&#xcd;" horiz-adv-x="417" 
d="M311 444v-259q1 -29 12 -37q6 -6 18 -6l18 3q1 0 10 1.5t15 1.5q21 0 36 -17q16 -19 16 -53t-18.5 -55.5t-53.5 -21.5q-13 0 -37 3.5t-29 3.5q-54 6 -80 6q-32 0 -72 -5q-48 -8 -74 -8q-15 0 -23 2q-24 6 -36.5 26.5t-12.5 44.5q0 33 12 51q16 22 39 22q8 0 22.5 -3
t21.5 -3q16 0 23 12q6 9 6 95v139v55q1 56 0 56q0 44 -5 53q-7 14 -22 14q-6 0 -21 -3t-23 -3q-14 0 -24 6q-28 16 -28 65q0 18 3 29q14 42 62 46q14 1 74 -6q35 -4 77 -4q50 0 74 3q6 0 31 3.5t38 3.5q28 0 46 -12q30 -21 30 -64q-1 -30 -12 -48q-16 -22 -39 -22
q-7 0 -22.5 3t-23.5 3q-15 0 -23 -15q-5 -11 -5 -106zM276 930q18 0 27 -5q14 -6 27 -24t13 -43q0 -28 -18 -43q-8 -7 -48 -24q-101 -40 -113 -43q-30 -9 -44 -9q-12 0 -22 7q-26 16 -26 50q0 6 1 11t2.5 9t4.5 8l4.5 6t6 6t5.5 4.5t6 3.5l5 4q20 12 30 17l45 23
q73 41 94 42z" />
    <glyph glyph-name="Icircumflex" unicode="&#xce;" horiz-adv-x="417" 
d="M311 444v-259q1 -29 12 -37q6 -6 18 -6l18 3q1 0 10 1.5t15 1.5q21 0 36 -17q16 -19 16 -53t-18.5 -55.5t-53.5 -21.5q-13 0 -37 3.5t-29 3.5q-54 6 -80 6q-32 0 -72 -5q-48 -8 -74 -8q-15 0 -23 2q-24 6 -36.5 26.5t-12.5 44.5q0 33 12 51q16 22 39 22q8 0 22.5 -3
t21.5 -3q16 0 23 12q6 9 6 95v139v55q1 56 0 56q0 44 -5 53q-7 14 -22 14q-6 0 -21 -3t-23 -3q-14 0 -24 6q-28 16 -28 65q0 18 3 29q14 42 62 46q14 1 74 -6q35 -4 77 -4q50 0 74 3q6 0 31 3.5t38 3.5q28 0 46 -12q30 -21 30 -64q-1 -30 -12 -48q-16 -22 -39 -22
q-7 0 -22.5 3t-23.5 3q-15 0 -23 -15q-5 -11 -5 -106zM213 797q-8 -1 -24 -8q-5 -2 -17 -6l-34.5 -12l-32.5 -11l-26 -8.5t-24 -6.5t-17 -2q-10 0 -18 4q-25 14 -24 47q0 27 24 45t86 50q73 38 104 38q25 0 71 -23q85 -41 110 -63q23 -18 23 -44q0 -20 -13 -37t-34 -17
q-7 0 -16 3q-12 3 -34 11q-41 14 -104 40z" />
    <glyph glyph-name="Idieresis" unicode="&#xcf;" horiz-adv-x="417" 
d="M311 444v-259q1 -29 12 -37q6 -6 18 -6l18 3q1 0 10 1.5t15 1.5q21 0 36 -17q16 -19 16 -53t-18.5 -55.5t-53.5 -21.5q-13 0 -37 3.5t-29 3.5q-54 6 -80 6q-32 0 -72 -5q-48 -8 -74 -8q-15 0 -23 2q-24 6 -36.5 26.5t-12.5 44.5q0 33 12 51q16 22 39 22q8 0 22.5 -3
t21.5 -3q16 0 23 12q6 9 6 95v139v55q1 56 0 56q0 44 -5 53q-7 14 -22 14q-6 0 -21 -3t-23 -3q-14 0 -24 6q-28 16 -28 65q0 18 3 29q14 42 62 46q14 1 74 -6q35 -4 77 -4q50 0 74 3q6 0 31 3.5t38 3.5q28 0 46 -12q30 -21 30 -64q-1 -30 -12 -48q-16 -22 -39 -22
q-7 0 -22.5 3t-23.5 3q-15 0 -23 -15q-5 -11 -5 -106zM96 927q30 0 47 -8q11 -6 17 -11q6 -4 14 -12q20 -26 20 -57q0 -39 -26.5 -65.5t-64.5 -26.5q-31 0 -55 20q-2 0 -15 13q-20 26 -20 59q1 44 35 69q20 17 48 19zM311 927q41 1 68.5 -24.5t27.5 -66.5q0 -24 -10 -41
q-13 -23 -35 -35.5t-44 -12.5q-28 0 -48 14q-22 13 -33 35.5t-11 42.5q0 27 17 50q7 11 14 17q25 18 54 21z" />
    <glyph glyph-name="Ntilde" unicode="&#xd1;" horiz-adv-x="833" 
d="M753 495v-38q-1 -20 -1 -58v-103q0 -30 0.5 -89.5t0.5 -88.5q0 -72 -4 -86q-12 -30 -36 -35q-8 -2 -19 -2t-30 1t-34 1q-9 0 -25 -0.5t-24 -0.5q-18 -2 -26 -2q-22 0 -36 10q-4 3 -7.5 6.5t-7 8.5t-6 9.5t-6.5 13l-6.5 13.5t-7 15.5t-7.5 15.5l-58 129l-68 151l-22 53
q-33 89 -35 94q-3 16 -5 16q-1 -1 -2 -3q-2 -2 -0.5 -10.5t1.5 -15.5q0 -8 0.5 -24t0.5 -24q1 -27 1 -81q2 -118 2 -176q0 -29 5 -41q6 -14 20 -14q5 0 15 2q21 3 27 3q26 0 38.5 -22t12.5 -48q-1 -36 -23 -56q-19 -18 -53 -18q-22 0 -64 6q-44 4 -65 4q-31 0 -58 -4l-66 -6
q-34 0 -54.5 19.5t-20.5 53.5t16 55q13 18 36 18q7 0 22.5 -2.5t23.5 -2.5q16 0 22 17q4 11 4 176v128q0 55 -1 66q-2 22 -12 29q-7 4 -15 4q-7 0 -21.5 -3t-22.5 -3q-28 0 -40 23t-12 51q0 14 4 28t21 29t44 16q17 1 66 -6q37 -4 83 -4q35 0 77 5q1 0 22 3t31 3
q32 0 48 -34q4 -8 10.5 -23.5t9.5 -20.5q9 -18 24 -53.5l22 -51.5q97 -224 118 -284q7 -17 11 -31q1 -2 2 -6t2 -7l2 -6t2 -5t2 -1t1 6q0 14 -2 42l-3 98q-1 30 -1 90.5t-1 90.5q0 31 -7 44q-7 10 -21 10q-6 0 -19.5 -2.5t-20.5 -2.5q-13 0 -23 6q-26 20 -26 64q0 31 14 49
q19 26 61 26q19 0 57 -6q27 -3 53 -3q18 0 86 7q32 4 48 4q30 0 49 -16q25 -20 25 -60q0 -33 -14.5 -51.5t-36.5 -18.5q-6 0 -19.5 2.5t-21.5 1.5q-6 0 -10.5 -1.5t-7 -6l-4.5 -8t-2.5 -11t-1 -11.5t-0.5 -14.5v-14.5zM325 930q33 2 74 -14l21.5 -9t24.5 -9.5t21 -5.5t24 -3
q23 0 50 18q22 16 40 16q11 0 19 -4q10 -5 19.5 -17.5t9.5 -30.5q0 -24 -16 -48q-42 -63 -128 -63q-36 0 -86 21q-49 20 -61 20q-15 0 -34 -12q-5 -3 -14 -10t-13.5 -10t-12 -5.5t-15.5 -2.5q-19 0 -35 16t-16 37q0 33 23 62q3 4 17 18q38 34 88 36z" />
    <glyph glyph-name="Ograve" unicode="&#xd2;" horiz-adv-x="708" 
d="M358 722q90 0 155 -29q27 -13 53 -33q30 -27 42 -41q84 -100 84 -273q0 -94 -28 -167q-35 -92 -109 -141q-78 -52 -191 -52q-82 0 -144 25q-22 10 -34 16q-67 40 -106 114q-46 87 -46 209q0 73 13 130q30 111 94 167q47 42 114 60q53 14 103 15zM359 572q-40 0 -70 -24
q-57 -48 -57 -196q0 -116 31 -165q34 -53 101 -53q47 0 79 26q5 4 13 13q7 7 15 20q26 49 26 144q0 63 -9 111q-10 61 -42 93q-20 21 -47 27t-40 4zM284 928q13 1 28.5 -3.5t26 -10l29.5 -16t27 -14.5q41 -20 52 -27q18 -10 26.5 -16t17.5 -18t9 -26q0 -22 -12 -38
q-12 -20 -39 -20q-22 0 -34 6q-37 10 -129 48q-24 9 -34 17q-26 17 -26 44q6 40 23 57q15 15 35 17z" />
    <glyph glyph-name="Oacute" unicode="&#xd3;" horiz-adv-x="708" 
d="M358 722q90 0 155 -29q27 -13 53 -33q30 -27 42 -41q84 -100 84 -273q0 -94 -28 -167q-35 -92 -109 -141q-78 -52 -191 -52q-82 0 -144 25q-22 10 -34 16q-67 40 -106 114q-46 87 -46 209q0 73 13 130q30 111 94 167q47 42 114 60q53 14 103 15zM359 572q-40 0 -70 -24
q-57 -48 -57 -196q0 -116 31 -165q34 -53 101 -53q47 0 79 26q5 4 13 13q7 7 15 20q26 49 26 144q0 63 -9 111q-10 61 -42 93q-20 21 -47 27t-40 4zM422 930q18 0 27 -5q14 -6 27 -24t13 -43q0 -27 -19 -43q-8 -7 -47 -24l-35 -14.5l-43 -17.5t-36 -11q-27 -9 -43 -9
q-14 0 -22 7q-26 16 -26 50q0 6 1 11t2.5 9t4.5 8l4.5 6t6 6t5.5 4.5t6 3.5l5 4q20 12 30 17q5 3 20.5 10.5t23.5 12.5q3 2 16.5 9.5l20.5 11.5t19 9.5t21.5 8t17.5 3.5z" />
    <glyph glyph-name="Ocircumflex" unicode="&#xd4;" horiz-adv-x="708" 
d="M358 722q90 0 155 -29q27 -13 53 -33q30 -27 42 -41q84 -100 84 -273q0 -94 -28 -167q-35 -92 -109 -141q-78 -52 -191 -52q-82 0 -144 25q-22 10 -34 16q-67 40 -106 114q-46 87 -46 209q0 73 13 130q30 111 94 167q47 42 114 60q53 14 103 15zM359 572q-40 0 -70 -24
q-57 -48 -57 -196q0 -116 31 -165q34 -53 101 -53q47 0 79 26q5 4 13 13q7 7 15 20q26 49 26 144q0 63 -9 111q-10 61 -42 93q-20 21 -47 27t-40 4zM369 797q-6 -1 -24 -8q-5 -2 -17 -6l-42 -14.5t-39.5 -13.5t-27.5 -8t-24 -4q-11 0 -19 4q-24 13 -24 47q0 27 24 45
q22 17 87 50q72 38 103 38q25 0 71 -23q85 -41 110 -63q23 -18 23 -44q0 -20 -13 -37t-34 -17q-7 0 -16 3q-15 4 -34 11q-28 10 -104 40z" />
    <glyph glyph-name="Otilde" unicode="&#xd5;" horiz-adv-x="708" 
d="M358 722q90 0 155 -29q27 -13 53 -33q30 -27 42 -41q84 -100 84 -273q0 -94 -28 -167q-35 -92 -109 -141q-78 -52 -191 -52q-82 0 -144 25q-22 10 -34 16q-67 40 -106 114q-46 87 -46 209q0 73 13 130q30 111 94 167q47 42 114 60q53 14 103 15zM359 572q-40 0 -70 -24
q-57 -48 -57 -196q0 -116 31 -165q34 -53 101 -53q47 0 79 26q5 4 13 13q7 7 15 20q26 49 26 144q0 63 -9 111q-10 61 -42 93q-20 21 -47 27t-40 4zM273 930q33 2 74 -14l21.5 -9t24.5 -9.5t21 -5.5t24 -3q23 0 50 18q22 16 40 16q11 0 19 -4q10 -5 19.5 -17.5t9.5 -30.5
q0 -24 -16 -48q-42 -63 -128 -63q-36 0 -87 21q-46 20 -60 20q-15 0 -34 -12q-5 -3 -14 -10t-13.5 -10t-12 -5.5t-15.5 -2.5q-19 0 -35 16t-16 37q0 33 23 62q3 4 17 18q38 34 88 36z" />
    <glyph glyph-name="Odieresis" unicode="&#xd6;" horiz-adv-x="708" 
d="M248 928q21 0 33 -4q22 -8 42.5 -29t20.5 -56q0 -19 -9 -38q-8 -18 -21.5 -30t-27 -16.5t-21 -6t-13.5 -1.5q-18 0 -34 8q-23 10 -36.5 29.5t-16.5 32t-3 22.5q0 28 19 53q27 36 67 36zM456 927q36 5 64 -17q37 -26 37 -70q0 -26 -14 -48q-4 -9 -11 -17q-27 -28 -66 -28
q-42 0 -70 35q-20 25 -20 58q0 35 26 61q20 22 54 26zM344 722q114 6 196 -44q67 -40 106 -118q46 -90 46 -215q0 -151 -71 -245q-85 -114 -261 -114q-138 0 -219 75q-25 24 -40 46q-16 23 -27 45q-40 87 -40 202q0 136 52 226q18 29 32 45q2 2 7 8t8 8q4 4 14 12
q29 23 64 39q66 27 133 30zM356 572q-34 0 -63 -21q-11 -9 -25 -26q-36 -49 -36 -174q0 -83 13 -126q10 -24 20 -40q33 -52 98 -52q34 0 63 15q30 16 47 51q23 46 23 141q0 68 -10 117q-13 58 -39 84q-37 35 -91 31z" />
    <glyph glyph-name="multiply" unicode="&#xd7;" horiz-adv-x="667" 
d="M516 19l-183 182l-182 -182l-90 91l182 181l-182 183l90 88l182 -181l183 181l89 -88l-181 -183l181 -181z" />
    <glyph glyph-name="Oslash" unicode="&#xd8;" horiz-adv-x="708" 
d="M647 665l-36 -51q35 -47 52 -92q28 -75 28 -168q0 -162 -78 -262q-42 -54 -108 -82q-64 -26 -137 -26q-70 0 -129 18q-9 3 -25 10t-19 8q-22 -29 -36 -51q-21 -32 -35 -39q-12 -7 -47 -7q-34 0 -48 7q-14 5 -14 20q0 4 2 9.5t7.5 14t10 14.5l14 19l14.5 20l45 67
q-19 24 -20 26q-53 84 -53 218q0 196 93 289q6 9 12 13q22 22 57 41q74 37 161 37q70 0 128 -19q8 -2 21.5 -8t16.5 -7q4 6 12.5 17.5t12.5 17.5q12 17 17 23t17.5 10t34.5 4q35 0 44 -2q23 -7 23 -24q0 -10 -25 -47q-5 -6 -13 -18zM223 253l211 302q-2 1 -7.5 3.5t-8.5 3.5
q-20 9 -52 9q-42 0 -71 -19q-8 -6 -17 -15q-28 -29 -40 -78q-19 -68 -15 -206zM498 455l-213 -305q42 -21 73 -21q41 0 68 16q78 44 78 224q0 18 -2 56q-2 24 -4 30z" />
    <glyph glyph-name="Ugrave" unicode="&#xd9;" horiz-adv-x="792" 
d="M514 332v79q0 79 -2 117q0 24 -10 32q-3 2 -27 2q-14 0 -23 7q-21 14 -21 56q0 28 12 48q18 32 58 32q9 0 25 -2t21 -2q37 -5 65 -5q33 0 73 5q34 4 51 4q33 0 50 -17q23 -19 23 -58q0 -26 -12 -48t-39 -22q-6 0 -20 2q-10 2 -15 2q-17 0 -25 -21q-2 -12 -2 -36
q0 -13 1 -40t1 -41q3 -79 3 -158q0 -40 -2 -59q-6 -96 -63 -149q-79 -76 -243 -76q-63 0 -118 16q-21 5 -38 13q-6 2 -29 15q-32 20 -54 50q-20 28 -29 66t-10 67t-1 109v108q1 18 1 54q0 57 -5 66q-5 15 -23 15q-6 0 -18.5 -2.5t-19.5 -2.5q-11 0 -21 6q-29 15 -29 63
q0 29 10 46q5 10 15 16q19 15 45 15q16 1 63 -6q38 -3 75 -3q22 0 66 6q28 4 43 4q52 0 67 -45q5 -15 5 -35q0 -27 -11 -45t-29 -18q-3 0 -7.5 1t-8.5 1.5t-8 0.5q-12 0 -17 -15q-3 -8 -3 -66q0 -141 1 -211v-7q0 -25 1 -40t9.5 -36.5t25.5 -33.5q27 -20 70 -20q52 0 83 34
q22 25 22 91q0 23 -2 71zM341 928q13 1 29 -3.5t26.5 -9.5t29.5 -16t27 -15q6 -3 16 -8.5l18.5 -10l16.5 -8.5l26.5 -16t18 -18t8.5 -26q0 -23 -11 -38q-14 -20 -40 -20q-27 0 -33 6q-38 10 -130 48q-25 11 -34 17q-25 19 -25 44q0 34 23 57q15 15 34 17z" />
    <glyph glyph-name="Uacute" unicode="&#xda;" horiz-adv-x="792" 
d="M514 332v79q0 79 -2 117q0 24 -10 32q-3 2 -27 2q-14 0 -23 7q-21 14 -21 56q0 28 12 48q18 32 58 32q9 0 25 -2t21 -2q37 -5 65 -5q33 0 73 5q34 4 51 4q33 0 50 -17q23 -19 23 -58q0 -26 -12 -48t-39 -22q-6 0 -20 2q-10 2 -15 2q-17 0 -25 -21q-2 -12 -2 -36
q0 -13 1 -40t1 -41q3 -79 3 -158q0 -40 -2 -59q-6 -96 -63 -149q-79 -76 -243 -76q-63 0 -118 16q-21 5 -38 13q-6 2 -29 15q-32 20 -54 50q-20 28 -29 66t-10 67t-1 109v108q1 18 1 54q0 57 -5 66q-5 15 -23 15q-6 0 -18.5 -2.5t-19.5 -2.5q-11 0 -21 6q-29 15 -29 63
q0 29 10 46q5 10 15 16q19 15 45 15q16 1 63 -6q38 -3 75 -3q22 0 66 6q28 4 43 4q52 0 67 -45q5 -15 5 -35q0 -27 -11 -45t-29 -18q-3 0 -7.5 1t-8.5 1.5t-8 0.5q-12 0 -17 -15q-3 -8 -3 -66q0 -141 1 -211v-7q0 -25 1 -40t9.5 -36.5t25.5 -33.5q27 -20 70 -20q52 0 83 34
q22 25 22 91q0 23 -2 71zM479 930q18 0 27 -5q14 -6 27 -24t13 -43q0 -28 -18 -43q-8 -7 -48 -24q-93 -38 -113 -43q-30 -9 -44 -9q-12 0 -22 7q-26 16 -26 50q0 14 7.5 25.5t12.5 15.5t16 11q15 10 29 17l45 23q73 41 94 42z" />
    <glyph glyph-name="Ucircumflex" unicode="&#xdb;" horiz-adv-x="792" 
d="M514 332v79q0 79 -2 117q0 24 -10 32q-3 2 -27 2q-14 0 -23 7q-21 14 -21 56q0 28 12 48q18 32 58 32q9 0 25 -2t21 -2q37 -5 65 -5q33 0 73 5q34 4 51 4q33 0 50 -17q23 -19 23 -58q0 -26 -12 -48t-39 -22q-6 0 -20 2q-10 2 -15 2q-17 0 -25 -21q-2 -12 -2 -36
q0 -13 1 -40t1 -41q3 -79 3 -158q0 -40 -2 -59q-6 -96 -63 -149q-79 -76 -243 -76q-63 0 -118 16q-21 5 -38 13q-6 2 -29 15q-32 20 -54 50q-20 28 -29 66t-10 67t-1 109v108q1 18 1 54q0 57 -5 66q-5 15 -23 15q-6 0 -18.5 -2.5t-19.5 -2.5q-11 0 -21 6q-29 15 -29 63
q0 29 10 46q5 10 15 16q19 15 45 15q16 1 63 -6q38 -3 75 -3q22 0 66 6q28 4 43 4q52 0 67 -45q5 -15 5 -35q0 -27 -11 -45t-29 -18q-3 0 -7.5 1t-8.5 1.5t-8 0.5q-12 0 -17 -15q-3 -8 -3 -66q0 -141 1 -211v-7q0 -25 1 -40t9.5 -36.5t25.5 -33.5q27 -20 70 -20q52 0 83 34
q22 25 22 91q0 23 -2 71zM416 797q-6 -1 -24 -8q-5 -2 -17 -6l-42 -14.5t-39.5 -13.5t-27.5 -8t-24 -4q-11 0 -19 4q-25 14 -24 47q0 27 24 45q22 17 87 50q72 38 103 38q25 0 71 -23q85 -41 110 -63q23 -18 23 -44q0 -20 -13 -37t-34 -17q-7 0 -16 3q-15 4 -34 11
q-28 10 -104 40z" />
    <glyph glyph-name="Udieresis" unicode="&#xdc;" horiz-adv-x="792" 
d="M294 928q41 0 67 -24q10 -10 15 -18q13 -23 13 -46t-9 -41t-30 -34.5t-49 -16.5q-23 0 -39 7q-6 3 -12 7q-9 6 -15 12q-27 28 -27 64q0 13 6 29q18 55 80 61zM503 927q21 4 50 -8q13 -8 19 -14q4 -3 10 -9q20 -23 20 -57q0 -36 -23 -62q-27 -29 -68 -29q-36 0 -63 27
t-27 64q1 34 24 59.5t58 28.5zM305 440v-86q0 -64 1 -97q0 -50 12 -73q9 -18 25 -29q27 -19 68 -19q34 0 63 17q9 5 15.5 12t11 13t7.5 15.5l4.5 14t2.5 16t1 14.5v15.5v13.5q0 17 -1 51t-1 51v90q0 7 -0.5 21t-0.5 22q0 47 -9 56q-4 5 -16 5q-23 0 -28 2q-28 8 -28 62
q0 39 22 61q17 17 49 17l54 -6q26 -3 50 -3q39 0 70 4q48 5 57 5q51 0 68 -38q7 -16 7 -37q0 -31 -13 -50q-16 -20 -36 -20q-9 0 -25 2q-4 1 -13 1q-6 0 -9 -1q-15 -8 -15 -21q-2 -6 -2 -39q0 -15 1.5 -44.5t1.5 -44.5q0 -38 1 -56q0 -16 0.5 -47.5t0.5 -47.5
q0 -74 -11 -115t-43 -76q-24 -26 -50 -42q-76 -45 -198 -45q-125 0 -195 47q-33 24 -53 52q-19 27 -27 66.5t-9 69t-1 109.5q2 98 2 147q0 14 -2 46q-2 27 -7 34q-11 8 -19 8q-6 0 -16 -2q-1 0 -9.5 -1.5t-13.5 -1.5q-27 0 -38.5 22.5t-11.5 48.5q0 39 20 56t45 19
q17 2 63 -5q29 -4 68 -4q31 0 71 5q6 1 16 2.5t18.5 2.5t16.5 1q71 -2 71 -83q0 -10 -2 -19q0 -5 -2.5 -13.5t-12.5 -18.5t-24 -10q-2 0 -8 1t-9.5 1.5t-8 -0.5t-8.5 -5q-5 -5 -6 -12q-4 -17 -2 -107z" />
    <glyph glyph-name="germandbls" unicode="&#xdf;" horiz-adv-x="708" 
d="M97 222v186h-42q-22 0 -28 2q-28 9 -28 57q0 32 16 48q7 8 17.5 10t27.5 0.5t18 -1.5q13 0 28 4l1 7q1 7 2 10.5t3 12.5t4.5 15l6.5 15.5t9.5 17.5l12.5 17.5t16.5 18.5t20.5 17q79 59 206 59q69 0 127 -18q39 -13 62 -29q73 -51 73 -126q0 -51 -38 -83q-13 -10 -50 -32
q-10 -4 -15 -8q-10 -8 -10 -15q0 -6 5 -11q6 -5 41 -20q54 -22 83 -46q24 -21 32 -37q29 -46 29 -103q0 -88 -51 -143q-51 -57 -137 -57q-65 0 -112 33q-12 9 -30 26q0 -20 -2 -27q-7 -25 -44 -25q-18 0 -30 9.5t-16 20.5q-4 8 -4 28q0 1 3 34q2 32 2 48q0 10 -2 30t-2 30
q0 20 12 35q17 22 55 22q53 0 63 -31q1 -4 3 -37q0 -9 4 -23q7 -20 26 -32t39 -12q27 0 43.5 17t16.5 44q0 32 -23 53q-15 12 -44 25q-5 3 -10.5 5.5t-12 5t-10.5 4.5l-68 30l-4 3q-5 2 -11.5 5.5t-14 8t-15 11t-11.5 12.5q-11 15 -11 41q0 19 12 35q14 18 53 36q6 2 35 17
q12 4 25 13q23 17 20 40q0 24 -19 42q-28 23 -75 23q-42 -1 -70.5 -18t-40.5 -43q-2 -4 -4 -9t-3 -11t-2 -11t-1.5 -13t-1 -13.5t-0.5 -16t-0.5 -16t-0.5 -18.5v-20v-94q0 -5 0.5 -15t0.5 -15q0 -7 -0.5 -20.5t-0.5 -21.5q1 -16 1 -49q0 -6 -0.5 -19t-0.5 -20
q0 -100 -1 -112q-1 -14 -8 -24q-8 -11 -25 -11q-8 0 -40 5q-20 3 -40 3q-26 0 -46 -4q-32 -5 -39 -5q-22 0 -40 15.5t-18 51.5q0 24 9 39q14 22 34 22q5 0 23 -6q12 -4 15 -4q9 0 14 10q3 7 3 95z" />
    <glyph glyph-name="agrave" unicode="&#xe0;" horiz-adv-x="583" 
d="M509 247v-58l-1 -23q0 -22 1 -22q0 -15 7 -21q5 -5 23 -3q4 1 13 1q23 0 36.5 -16.5t13.5 -39.5q0 -29 -22 -49q-11 -10 -21 -15q-24 -12 -68 -12q-54 0 -86 30q-8 8 -24 31q-18 -16 -34 -26q-57 -34 -139 -34q-74 0 -122 36q-57 42 -57 120q0 22 5 41q15 68 84 97
q24 9 108 25q14 2 42 8q37 10 46 15q30 19 30 55q0 15 -8 27q-17 28 -59 28q-15 0 -21 -2q-15 -4 -17 -16q-1 -3 0 -10.5t1 -9.5q0 -34 -23 -53q-24 -18 -60 -18q-41 0 -69.5 23.5t-28.5 65.5q0 40 35 72q10 10 33 21q57 27 168 27q86 0 142 -29q40 -20 57 -57t17 -115
q0 -16 -1 -47.5t-1 -46.5zM346 230q-31 -16 -63 -21q-56 -10 -64 -14q-24 -13 -24 -37q0 -4 2 -14q12 -30 53 -30q11 0 29 3q53 12 65 58q5 18 2 55zM367 687l17 -17l4 -4l5 -5l5 -5t4.5 -6.5t3.5 -7.5t3 -9t1 -11q0 -21 -15.5 -39t-36.5 -18q-31 0 -161 94q-1 1 -7.5 5.5
t-11 9t-10 11.5t-9 16t-3.5 19q0 9 4 21q8 20 24 34t34 15q13 1 26 -4.5t21.5 -12l25.5 -20.5q5 -4 37 -32l7 -7q5 -5 32 -27z" />
    <glyph glyph-name="aacute" unicode="&#xe1;" horiz-adv-x="583" 
d="M509 247v-58l-1 -23q0 -22 1 -22q0 -15 7 -21q5 -5 23 -3q4 1 13 1q23 0 36.5 -16.5t13.5 -39.5q0 -29 -22 -49q-11 -10 -21 -15q-24 -12 -68 -12q-54 0 -86 30q-8 8 -24 31q-18 -16 -34 -26q-57 -34 -139 -34q-74 0 -122 36q-57 42 -57 120q0 22 5 41q15 68 84 97
q24 9 108 25q14 2 42 8q37 10 46 15q30 19 30 55q0 15 -8 27q-17 28 -59 28q-15 0 -21 -2q-15 -4 -17 -16q-1 -3 0 -10.5t1 -9.5q0 -34 -23 -53q-24 -18 -60 -18q-41 0 -69.5 23.5t-28.5 65.5q0 40 35 72q10 10 33 21q57 27 168 27q86 0 142 -29q40 -20 57 -57t17 -115
q0 -16 -1 -47.5t-1 -46.5zM346 230q-31 -16 -63 -21q-56 -10 -64 -14q-24 -13 -24 -37q0 -4 2 -14q12 -30 53 -30q11 0 29 3q53 12 65 58q5 18 2 55zM360 789q21 0 33 -5q17 -9 29.5 -28t12.5 -35q0 -7 -3 -17q-3 -11 -10 -20t-14.5 -14.5l-31.5 -22.5q-108 -83 -141 -83
q-13 0 -25 7q-29 17 -29 50q0 12 13 34q2 3 6.5 7t6.5 7l3.5 3.5l3.5 3.5l4 4l32 28q6 5 17.5 15.5t17.5 15.5q7 7 23 21q32 27 52 29z" />
    <glyph glyph-name="acircumflex" unicode="&#xe2;" horiz-adv-x="583" 
d="M509 247v-58l-1 -23q0 -22 1 -22q0 -15 7 -21q5 -5 23 -3q4 1 13 1q23 0 36.5 -16.5t13.5 -39.5q0 -29 -22 -49q-11 -10 -21 -15q-24 -12 -68 -12q-54 0 -86 30q-8 8 -24 31q-18 -16 -34 -26q-57 -34 -139 -34q-74 0 -122 36q-57 42 -57 120q0 22 5 41q15 68 84 97
q24 9 108 25q14 2 42 8q37 10 46 15q30 19 30 55q0 15 -8 27q-17 28 -59 28q-15 0 -21 -2q-15 -4 -17 -16q-1 -3 0 -10.5t1 -9.5q0 -34 -23 -53q-24 -18 -60 -18q-41 0 -69.5 23.5t-28.5 65.5q0 40 35 72q10 10 33 21q57 27 168 27q86 0 142 -29q40 -20 57 -57t17 -115
q0 -16 -1 -47.5t-1 -46.5zM346 230q-31 -16 -63 -21q-56 -10 -64 -14q-24 -13 -24 -37q0 -4 2 -14q12 -30 53 -30q11 0 29 3q53 12 65 58q5 18 2 55zM124 715l24 15q9 5 27 13q16 10 35 18q6 3 17.5 8t13.5 6q38 19 54 19q5 0 10 -1t8.5 -1.5t10 -4t10.5 -5t14.5 -7
l16.5 -8.5q7 -4 28 -15t33 -18q2 -1 11.5 -6.5t14.5 -9.5q17 -10 27 -19q20 -17 20 -39q0 -28 -18 -45q-10 -10 -27 -10q-11 0 -29.5 6t-30 10.5t-36 16t-26.5 12.5q-18 8 -38 16q-78 -32 -86 -36q-58 -24 -81 -24q-15 0 -22 5q-25 13 -25 49q0 8 3 15.5t6 12.5t9.5 10.5
t9.5 7.5t10 6z" />
    <glyph glyph-name="atilde" unicode="&#xe3;" horiz-adv-x="583" 
d="M509 247v-58l-1 -23q0 -22 1 -22q0 -15 7 -21q5 -5 23 -3q4 1 13 1q23 0 36.5 -16.5t13.5 -39.5q0 -29 -22 -49q-11 -10 -21 -15q-24 -12 -68 -12q-54 0 -86 30q-8 8 -24 31q-18 -16 -34 -26q-57 -34 -139 -34q-74 0 -122 36q-57 42 -57 120q0 22 5 41q15 68 84 97
q24 9 108 25q14 2 42 8q37 10 46 15q30 19 30 55q0 15 -8 27q-17 28 -59 28q-15 0 -21 -2q-15 -4 -17 -16q-1 -3 0 -10.5t1 -9.5q0 -34 -23 -53q-24 -18 -60 -18q-41 0 -69.5 23.5t-28.5 65.5q0 40 35 72q10 10 33 21q57 27 168 27q86 0 142 -29q40 -20 57 -57t17 -115
q0 -16 -1 -47.5t-1 -46.5zM346 230q-31 -16 -63 -21q-56 -10 -64 -14q-24 -13 -24 -37q0 -4 2 -14q12 -30 53 -30q11 0 29 3q53 12 65 58q5 18 2 55zM200 794q36 2 75 -14q6 -2 27 -11t34 -12.5t27 -3.5q21 0 43 12q5 3 15.5 10.5t16.5 9.5t17 2q10 0 19 -3q30 -14 30 -50
q0 -23 -16.5 -48t-42.5 -40q-38 -22 -84 -22q-38 0 -85 19q-52 22 -64 22q-14 0 -31 -10q-5 -3 -18 -12.5t-22 -13t-19 -3.5t-20 6q-30 14 -30 48q0 18 14 46q38 64 114 68z" />
    <glyph glyph-name="adieresis" unicode="&#xe4;" horiz-adv-x="583" 
d="M175 788q54 3 82 -41q14 -25 14 -48q0 -38 -27.5 -65t-64.5 -26q-33 0 -58 22q-31 27 -31 68q0 24 11 43q23 44 74 47zM388 788q22 1 33 -4q22 -7 42.5 -28.5t20.5 -56.5q0 -38 -27 -64q-28 -27 -63 -27q-41 0 -66 29q-25 27 -25 63q0 15 4 27q18 55 81 61zM508 222v-71
q0 -32 20 -32q4 0 12 1t13 1q19 0 34 -14.5t15 -44.5q0 -23 -16 -41q-28 -33 -94 -33q-36 0 -64 15q-2 1 -7.5 4.5t-6.5 3.5q-15 13 -32 38q-24 -19 -37 -27q-58 -34 -136 -34q-74 0 -122 36q-11 8 -22 22q-36 40 -36 99q0 58 30 96q9 11 26 25q6 5 14 9t15 7t18.5 6t18 5
t22.5 5t23 4.5t27.5 5t28.5 5.5q50 10 68 23q24 18 24 48q0 32 -24 46q-9 5 -11 5q-5 2 -15 4q-14 2 -21 2q-16 1 -26 -6q-9 -5 -9 -17q0 -4 2 -14q0 -30 -18 -48q-25 -23 -66 -23q-58 0 -85 42q-12 21 -12 45q0 47 40 78q55 43 195 43q88 0 144 -29q35 -17 51 -48
q21 -36 21 -127q0 -39 -2 -115zM346 229q-33 -16 -67 -21q-49 -8 -61 -15q-23 -13 -23 -36q0 -15 12 -27q14 -16 44 -16q32 0 56 14q20 12 30 30.5t9.5 35.5t-0.5 35z" />
    <glyph glyph-name="aring" unicode="&#xe5;" horiz-adv-x="583" 
d="M284 795q36 0 63 -19q1 -1 5.5 -5t9 -8.5t7.5 -8.5q20 -22 20 -60q0 -44 -29 -73.5t-72 -29.5q-24 0 -48 12q-19 9 -36.5 32.5t-17.5 55.5q0 41 27 70q30 33 71 34zM283 734q-15 -2 -26 -13.5t-11 -26.5q0 -17 11.5 -30t29.5 -13q16 0 29 12t13 29q0 16 -11 29
q-13 15 -35 13zM508 205v-58q0 -23 12 -27q2 -3 14 -1t19 2q23 0 36 -17.5t13 -39.5q0 -24 -15 -41q-3 -4 -6 -7t-5.5 -5t-3.5 -3q-30 -20 -81 -20q-44 0 -75 22q-12 8 -35 39q-20 -16 -30 -22q-34 -23 -81 -32q-20 -4 -30 -4q-9 -1 -29 -1q-98 0 -146 55q-36 42 -36 102
q0 68 40 106q17 16 46 28t43 15t46 9q44 8 49 9q51 10 69 24q22 18 22 47q0 18 -8 31q-18 26 -61 26q-36 0 -36 -23q0 -31 -2 -39q-6 -20 -27.5 -33.5t-53.5 -13.5q-39 0 -68 23t-29 63q0 30 21 60l5 6q5 6 9 9q54 47 192 47q68 0 114 -13q16 -5 39 -16q8 -4 12 -7
q2 -1 5.5 -4t4.5 -4q14 -11 24 -25q24 -36 24 -96q2 -12 0.5 -86t-1.5 -85zM346 230q-30 -16 -61 -21q-53 -8 -65 -14q-25 -13 -25 -37q0 -16 12 -28q16 -16 43 -16q53 0 80 34q20 25 16 82z" />
    <glyph glyph-name="ae" unicode="&#xe6;" horiz-adv-x="854" 
d="M430 475q13 15 26 25q59 44 144 44q27 0 48 -4q61 -9 105 -44q22 -19 29 -28q54 -61 54 -158q0 -38 -6 -49q-7 -14 -21 -19q-11 -4 -55 -4q-240 0 -246 -2q-10 -3 -10 -15q0 -1 0.5 -4t0.5 -5q5 -37 21 -60q11 -15 28 -26q23 -13 54 -13q39 0 66 31q5 5 12 13.5
t12.5 14.5t13.5 11q18 13 48 13q29 0 51 -18t22 -47q0 -31 -19.5 -60.5t-55.5 -49.5q-63 -35 -152 -35t-144 40q-18 14 -42 51q-20 -27 -38 -42q-29 -24 -73.5 -36.5t-81.5 -12.5q-24 0 -44 4q-85 14 -123 73q-25 37 -25 86q0 87 65 124q16 9 46 18q24 7 68 14.5t63 12.5
q2 0 8 1.5t16 5.5t19 9.5t15.5 16t6.5 23.5q0 24 -17.5 36.5t-40.5 12.5t-33 -9q-5 -5 -8 -12q-2 -3 -3 -10t-2 -9q-3 -12 -14 -23q-24 -23 -68 -23q-31 0 -55 16q-5 2 -13 8q-27 25 -27 64q0 33 22.5 57t45.5 35q55 25 134 25q77 0 118 -22q12 -6 19 -10q17 -13 36 -35z
M584 429q-36 -6 -51 -19q-17 -15 -23 -34q-4 -11 -4 -15q0 -3 0.5 -4.5t1.5 -2.5t2.5 -1.5t3.5 -1t4 -0.5h5.5h6.5q20 -2 62 -2q36 0 53 1q15 0 20 2.5t5 11.5q0 27 -21 45q-3 3 -8 5q-1 1 -10 7q-19 9 -47 8zM342 229q-36 -16 -55 -19q-11 -2 -23.5 -4l-18.5 -3t-13 -3
t-14 -5q-28 -12 -28 -38q0 -11 8 -22q15 -21 50 -21q14 0 27 3q48 11 64 55q4 18 3 57z" />
    <glyph glyph-name="ccedilla" unicode="&#xe7;" horiz-adv-x="542" 
d="M352 398q-27 14 -50 14q-48 0 -75 -34q-13 -19 -16 -25q-15 -36 -15 -83q0 -65 28 -104q19 -26 46 -34q20 -6 34 -6q46 0 65 29q7 9 14 35q0 12 13 25q20 23 58 23q27 0 46 -12q8 -5 15 -12q18 -18 18 -53q0 -60 -52 -110q-68 -64 -175 -64q-14 0 -38 2q-9 0 -25 2
q-59 11 -103 40l-9 7q-9 7 -17 15q-16 12 -34 37q-10 16 -14 24q-12 23 -17 38q-19 48 -19 116q0 73 24 129q17 42 47 72q11 11 29 23q73 52 177 52q87 0 145 -37q68 -45 68 -115q0 -43 -26 -68q-28 -26 -69 -26q-52 0 -72 36q-10 18 -10 31q0 7 9 33zM330 25l-37 -66
q63 0 84 -12q42 -22 42 -67q0 -10 -3 -20q-9 -31 -31 -48q-39 -35 -112 -35q-56 0 -97 19q-31 13 -31 38q0 9 2 15q9 22 30 22q3 0 41 -11q40 -10 59 -10q24 2 37 8q12 8 12 21q0 15 -18 19q-7 3 -33 3q-11 0 -25.5 -1t-23 -1t-13.5 2q-17 9 -17 25q0 11 23 54l24 44z" />
    <glyph glyph-name="egrave" unicode="&#xe8;" horiz-adv-x="562" 
d="M436 238h-181q-37 0 -41 -2q-9 -3 -9 -15q0 -2 0.5 -6t0.5 -6q4 -29 17 -51q27 -44 83 -44q44 0 74 35q5 6 9 11.5t7.5 9.5t11.5 10q22 16 53 16q28 0 50 -16q11 -8 13 -12q11 -13 11 -39q-1 -35 -23.5 -62.5t-48.5 -43.5q-63 -38 -161 -38q-74 0 -137 32q-18 9 -32 20
q-42 33 -70.5 92t-28.5 136q0 27 5 60q17 89 64 141q67 76 193 80q116 0 180 -62q12 -12 16 -17q52 -62 52 -161q0 -33 -8 -48q-6 -13 -22 -18q-9 -2 -78 -2zM292 430q-22 0 -40 -10q-22 -12 -31.5 -29t-9.5 -27q0 -8 6 -11t102 -3q24 0 35 1q14 0 19 2t5 12q0 21 -16 39
q-23 26 -70 26zM367 687l17 -17l4 -4l5 -5l5 -5t4.5 -6.5t3.5 -7.5t3 -9t1 -11q0 -21 -15.5 -39t-36.5 -18q-31 0 -161 94q-1 1 -7.5 5.5t-11 9t-10 11.5t-9 16t-3.5 19q0 9 4 21q8 20 24 34t34 15q13 1 26 -4.5t21.5 -12l25.5 -20.5q5 -4 37 -32l7 -7q5 -5 32 -27z" />
    <glyph glyph-name="eacute" unicode="&#xe9;" horiz-adv-x="562" 
d="M436 238h-181q-37 0 -41 -2q-9 -3 -9 -15q0 -2 0.5 -6t0.5 -6q4 -29 17 -51q27 -44 83 -44q44 0 74 35q5 6 9 11.5t7.5 9.5t11.5 10q22 16 53 16q28 0 50 -16q11 -8 13 -12q11 -13 11 -39q-1 -35 -23.5 -62.5t-48.5 -43.5q-63 -38 -161 -38q-74 0 -137 32q-18 9 -32 20
q-42 33 -70.5 92t-28.5 136q0 27 5 60q17 89 64 141q67 76 193 80q116 0 180 -62q12 -12 16 -17q52 -62 52 -161q0 -33 -8 -48q-6 -13 -22 -18q-9 -2 -78 -2zM292 430q-22 0 -40 -10q-22 -12 -31.5 -29t-9.5 -27q0 -8 6 -11t102 -3q24 0 35 1q14 0 19 2t5 12q0 21 -16 39
q-23 26 -70 26zM360 789q21 0 33 -5q17 -9 29.5 -28t12.5 -35q0 -7 -3 -17q-3 -11 -10 -20t-14.5 -14.5l-31.5 -22.5q-108 -83 -141 -83q-13 0 -25 7q-29 17 -29 50q0 12 13 34q2 3 6.5 7t6.5 7l3.5 3.5l3.5 3.5l4 4l32 28q6 5 17.5 15.5t17.5 15.5q7 7 23 21q32 27 52 29z
" />
    <glyph glyph-name="ecircumflex" unicode="&#xea;" horiz-adv-x="562" 
d="M436 238h-181q-37 0 -41 -2q-9 -3 -9 -15q0 -2 0.5 -6t0.5 -6q4 -29 17 -51q27 -44 83 -44q44 0 74 35q5 6 9 11.5t7.5 9.5t11.5 10q22 16 53 16q28 0 50 -16q11 -8 13 -12q11 -13 11 -39q-1 -35 -23.5 -62.5t-48.5 -43.5q-63 -38 -161 -38q-74 0 -137 32q-18 9 -32 20
q-42 33 -70.5 92t-28.5 136q0 27 5 60q17 89 64 141q67 76 193 80q116 0 180 -62q12 -12 16 -17q52 -62 52 -161q0 -33 -8 -48q-6 -13 -22 -18q-9 -2 -78 -2zM292 430q-22 0 -40 -10q-22 -12 -31.5 -29t-9.5 -27q0 -8 6 -11t102 -3q24 0 35 1q14 0 19 2t5 12q0 21 -16 39
q-23 26 -70 26zM124 715l24 15q9 5 27 13q16 10 35 18q6 3 17.5 8t13.5 6q38 19 54 19q5 0 10 -1t8.5 -1.5t10 -4t10.5 -5t14.5 -7l16.5 -8.5q7 -4 28 -15t33 -18q2 -1 11.5 -6.5t14.5 -9.5q17 -10 27 -19q20 -17 20 -39q0 -28 -18 -45q-10 -10 -27 -10q-11 0 -29.5 6
t-30 10.5t-36 16t-26.5 12.5q-18 8 -38 16q-78 -32 -86 -36q-58 -24 -81 -24q-15 0 -22 5q-25 13 -25 49q0 8 3 15.5t6 12.5t9.5 10.5t9.5 7.5t10 6z" />
    <glyph glyph-name="edieresis" unicode="&#xeb;" horiz-adv-x="562" 
d="M436 238h-181q-37 0 -41 -2q-9 -3 -9 -15q0 -2 0.5 -6t0.5 -6q4 -29 17 -51q27 -44 83 -44q44 0 74 35q5 6 9 11.5t7.5 9.5t11.5 10q22 16 53 16q28 0 50 -16q11 -8 13 -12q11 -13 11 -39q-1 -35 -23.5 -62.5t-48.5 -43.5q-63 -38 -161 -38q-74 0 -137 32q-18 9 -32 20
q-42 33 -70.5 92t-28.5 136q0 27 5 60q17 89 64 141q67 76 193 80q116 0 180 -62q12 -12 16 -17q52 -62 52 -161q0 -33 -8 -48q-6 -13 -22 -18q-9 -2 -78 -2zM292 430q-22 0 -40 -10q-22 -12 -31.5 -29t-9.5 -27q0 -8 6 -11t102 -3q24 0 35 1q14 0 19 2t5 12q0 21 -16 39
q-23 26 -70 26zM391 788q34 3 65 -19q10 -7 19 -20q15 -24 15 -51q0 -35 -25 -61q-25 -29 -66 -29q-35 0 -62.5 26.5t-27.5 63.5q0 24 12 45q21 40 70 45zM180 788q49 4 80 -36q17 -23 17 -54q0 -30 -19 -55l-3 -3q-3 -4 -6.5 -7.5t-7.5 -6.5q-24 -18 -56 -18q-30 0 -55 19
q-6 5 -19 22q-15 24 -15 50q0 37 26 63q23 23 58 26z" />
    <glyph glyph-name="igrave" unicode="&#xec;" 
d="M260 192v-37q0 -1 0.5 -5.5t0.5 -6.5t1 -6t2 -6t3 -4.5t5 -3.5t7 -1q3 0 8.5 1.5t7.5 1.5q12 2 18 2q19 0 33 -22q7 -17 7 -41q0 -41 -28 -56q-12 -7 -32 -7q-11 0 -63 5q-21 2 -65 2q-25 0 -49 -3q-45 -5 -55 -5q-29 0 -44 17q-17 19 -17 50q0 28 12.5 44t31.5 16
q7 0 19 -4l3 -1q3 -1 7.5 -2t8.5 -1q7 0 11 6q5 9 5 37q0 9 0.5 29t0.5 30v28v32.5v27.5q0 57 -1 68q0 15 -2 20q0 1 -1.5 3.5t-4.5 5.5t-7 3q-2 0 -4.5 -1t-6 -2t-4.5 -1q-14 -5 -24 -5q-6 0 -15 3q-16 7 -27 35q-2 10 -2 23q0 36 21 54q15 13 37 13q8 0 40 -5q27 -5 48 -5
q14 0 46 4q24 6 38 6q24 1 30 -18q3 -9 3 -47q0 -45 -1.5 -135t-1.5 -136zM242 687l17 -17l4 -4l5 -5l5 -5t4.5 -6.5t3.5 -7.5t3 -9t1 -11q0 -21 -15 -39t-36 -18q-33 0 -161 94l-6 5q-6 4 -9 6.5t-9 8.5t-9.5 11.5t-6 13.5t-2.5 16q0 9 4 21q8 20 24 34t34 15q13 1 26 -4.5
t21.5 -12l25.5 -20.5q5 -4 37 -32l7 -7l15.5 -13z" />
    <glyph glyph-name="iacute" unicode="&#xed;" 
d="M260 192v-37q0 -1 0.5 -5.5t0.5 -6.5t1 -6t2 -6t3 -4.5t5 -3.5t7 -1q3 0 8.5 1.5t7.5 1.5q12 2 18 2q19 0 33 -22q7 -17 7 -41q0 -41 -28 -56q-12 -7 -32 -7q-11 0 -63 5q-21 2 -65 2q-25 0 -49 -3q-45 -5 -55 -5q-29 0 -44 17q-17 19 -17 50q0 28 12.5 44t31.5 16
q7 0 19 -4l3 -1q3 -1 7.5 -2t8.5 -1q7 0 11 6q5 9 5 37q0 9 0.5 29t0.5 30v28v32.5v27.5q0 57 -1 68q0 15 -2 20q0 1 -1.5 3.5t-4.5 5.5t-7 3q-2 0 -4.5 -1t-6 -2t-4.5 -1q-14 -5 -24 -5q-6 0 -15 3q-16 7 -27 35q-2 10 -2 23q0 36 21 54q15 13 37 13q8 0 40 -5q27 -5 48 -5
q14 0 46 4q24 6 38 6q24 1 30 -18q3 -9 3 -47q0 -45 -1.5 -135t-1.5 -136zM235 789q21 0 33 -5q17 -9 29.5 -28t12.5 -35q0 -7 -3 -17q-3 -11 -10 -20t-14.5 -14.5l-31.5 -22.5q-108 -83 -141 -83q-13 0 -25 7q-29 17 -29 50q0 12 13 34q2 3 6.5 7t6.5 7l11 11l32 28
q6 5 17.5 15.5t17.5 15.5q7 7 23 21q32 27 52 29z" />
    <glyph glyph-name="icircumflex" unicode="&#xee;" 
d="M260 192v-37q0 -1 0.5 -5.5t0.5 -6.5t1 -6t2 -6t3 -4.5t5 -3.5t7 -1q3 0 8.5 1.5t7.5 1.5q12 2 18 2q19 0 33 -22q7 -17 7 -41q0 -41 -28 -56q-12 -7 -32 -7q-11 0 -63 5q-21 2 -65 2q-25 0 -49 -3q-45 -5 -55 -5q-29 0 -44 17q-17 19 -17 50q0 28 12.5 44t31.5 16
q7 0 19 -4l3 -1q3 -1 7.5 -2t8.5 -1q7 0 11 6q5 9 5 37q0 9 0.5 29t0.5 30v28v32.5v27.5q0 57 -1 68q0 15 -2 20q0 1 -1.5 3.5t-4.5 5.5t-7 3q-2 0 -4.5 -1t-6 -2t-4.5 -1q-14 -5 -24 -5q-6 0 -15 3q-16 7 -27 35q-2 10 -2 23q0 36 21 54q15 13 37 13q8 0 40 -5q27 -5 48 -5
q14 0 46 4q24 6 38 6q24 1 30 -18q3 -9 3 -47q0 -45 -1.5 -135t-1.5 -136zM-1 715l24 15q9 5 27 13q16 10 35 18q6 3 17.5 8t13.5 6q38 19 54 19q5 0 10 -1t8.5 -1.5t10 -4t10.5 -5t14.5 -7l16.5 -8.5q5 -3 27 -14.5t34 -18.5q2 -1 11.5 -6.5t14.5 -9.5q17 -10 27 -19
q20 -17 20 -39q0 -28 -18 -45q-10 -10 -27 -10q-11 0 -29.5 6t-30 10.5t-36 16t-26.5 12.5q-18 8 -38 16q-78 -32 -86 -36q-58 -24 -81 -24q-15 0 -22 5q-25 13 -25 49q0 8 3 15.5t6 12.5t9.5 10.5t9.5 7.5l9 6z" />
    <glyph glyph-name="idieresis" unicode="&#xef;" 
d="M260 192v-37q0 -1 0.5 -5.5t0.5 -6.5t1 -6t2 -6t3 -4.5t5 -3.5t7 -1q3 0 8.5 1.5t7.5 1.5q12 2 18 2q19 0 33 -22q7 -17 7 -41q0 -41 -28 -56q-12 -7 -32 -7q-11 0 -63 5q-21 2 -65 2q-25 0 -49 -3q-45 -5 -55 -5q-29 0 -44 17q-17 19 -17 50q0 28 12.5 44t31.5 16
q7 0 19 -4l3 -1q3 -1 7.5 -2t8.5 -1q7 0 11 6q5 9 5 37q0 9 0.5 29t0.5 30v28v32.5v27.5q0 57 -1 68q0 15 -2 20q0 1 -1.5 3.5t-4.5 5.5t-7 3q-2 0 -4.5 -1t-6 -2t-4.5 -1q-14 -5 -24 -5q-6 0 -15 3q-16 7 -27 35q-2 10 -2 23q0 36 21 54q15 13 37 13q8 0 40 -5q27 -5 48 -5
q14 0 46 4q24 6 38 6q24 1 30 -18q3 -9 3 -47q0 -45 -1.5 -135t-1.5 -136zM266 788q34 3 65 -19q10 -7 19 -20q15 -24 15 -51q0 -35 -25 -61q-25 -29 -66 -29q-35 0 -62.5 26.5t-27.5 63.5q0 24 12 45q24 40 70 45zM55 788q49 4 80 -36q17 -23 17 -54q0 -30 -19 -55l-3 -3
q-3 -4 -6.5 -7.5t-7.5 -6.5q-24 -18 -56 -18q-30 0 -55 19q-6 5 -19 22q-15 24 -15 50q0 37 26 63q23 23 58 26z" />
    <glyph glyph-name="ntilde" unicode="&#xf1;" horiz-adv-x="646" 
d="M222 447q12 14 18 20q19 19 43 35q53 35 117 35q96 0 143 -67q20 -27 26.5 -61.5t6.5 -97.5q0 -16 -0.5 -47.5t-0.5 -47.5l-1 -30q0 -30 1 -30q1 -2 2 -11.5t1 -12.5q4 -11 13 -11l12 3q10 3 19 3q12 0 23 -8q23 -17 23 -52q0 -26 -16 -47q-17 -20 -47 -20q-6 0 -13 0.5
t-15 1.5t-13 1q-36 2 -54 2q-23 0 -71 -4q-5 0 -16 -1t-17 -1q-56 0 -56 65q0 35 17 49q7 7 21 7q19 0 24 12q3 7 3 144q0 48 -2 61q-2 28 -19 43q-15 15 -43 15q-45 0 -74 -35q-14 -17 -17 -38.5t-3 -68.5q0 -27 2 -83q0 -35 9 -43q2 -2 19 -5q28 -1 35 -31q4 -12 4 -26
q0 -45 -32 -60q-9 -4 -25 -4q-15 0 -45 4q-34 2 -52 2q-34 0 -65 -3q-30 -4 -44 -4q-17 0 -28 5q-37 13 -37 66q0 10 2 18q15 39 45 39q10 0 22 -5q8 -3 13 -3q10 0 12 11q1 3 1 4q3 17 3 68q1 18 1 55q-2 50 -2 75q0 40 -1 48q0 12 -2 18q-3 8 -10 8q-2 0 -8 -1.5t-7 -1.5
q-5 -5 -21 -5q-21 0 -35 20q-12 18 -12 41q0 15 4 26q14 41 56 41l30 -3q20 -2 30 -2q21 0 46 5q3 0 9.5 1t11.5 1.5t9 0.5q22 0 27 -18q2 -6 2 -16q0 -9 -1 -25t-1 -24zM231 794q36 2 75 -14l28 -11t33 -12t27 -4q21 0 43 12q7 4 16.5 11t15.5 9t17 2q10 0 19 -3
q30 -14 30 -50q0 -23 -16.5 -48t-42.5 -40q-38 -22 -84 -22q-36 0 -84 19q-53 22 -65 22q-14 0 -31 -10q-5 -3 -18 -12.5t-22 -13t-19 -3.5q-9 0 -20 6q-10 5 -19.5 18t-9.5 30q0 20 13 46q38 64 114 68z" />
    <glyph glyph-name="ograve" unicode="&#xf2;" horiz-adv-x="583" 
d="M290 544q108 5 176 -40q17 -11 36 -30q30 -35 48 -86q17 -51 17 -125q0 -99 -40 -164.5t-105 -92.5q-47 -20 -124 -20q-129 0 -195 73q-68 79 -68 212q0 123 57 193l10 10q10 10 15 14q18 16 53 31q46 21 120 25zM293 413q-47 -1 -71 -42q-19 -35 -19 -106q0 -51 12 -87
q2 -7 10 -21q28 -42 81 -42q33 0 52 17l2 2q2 1 4 3t4.5 5t4.5 5q6 7 11 23q15 35 15 88q0 46 -9 81q-19 77 -97 74zM367 687l17 -17l4 -4l5 -5l5 -5t4.5 -6.5t3.5 -7.5t3 -9t1 -11q0 -21 -15.5 -39t-36.5 -18q-31 0 -161 94q-1 1 -7.5 5.5t-11 9t-10 11.5t-9 16t-3.5 19
q0 9 4 21q8 20 24 34t34 15q13 1 26 -4.5t21.5 -12l25.5 -20.5q5 -4 37 -32l7 -7q5 -5 32 -27z" />
    <glyph glyph-name="oacute" unicode="&#xf3;" horiz-adv-x="583" 
d="M290 544q108 5 176 -40q17 -11 36 -30q30 -35 48 -86q17 -51 17 -125q0 -99 -40 -164.5t-105 -92.5q-47 -20 -124 -20q-129 0 -195 73q-68 79 -68 212q0 123 57 193l10 10q10 10 15 14q18 16 53 31q46 21 120 25zM293 413q-47 -1 -71 -42q-19 -35 -19 -106q0 -51 12 -87
q2 -7 10 -21q28 -42 81 -42q33 0 52 17l2 2q2 1 4 3t4.5 5t4.5 5q6 7 11 23q15 35 15 88q0 46 -9 81q-19 77 -97 74zM360 789q21 0 33 -5q17 -9 29.5 -28t12.5 -35q0 -7 -3 -17q-3 -11 -10 -20t-14.5 -14.5l-31.5 -22.5q-108 -83 -141 -83q-13 0 -25 7q-29 17 -29 50
q0 12 13 34q2 3 6.5 7t6.5 7l3.5 3.5l3.5 3.5l4 4l32 28q6 5 17.5 15.5t17.5 15.5q7 7 23 21q32 27 52 29z" />
    <glyph glyph-name="ocircumflex" unicode="&#xf4;" horiz-adv-x="583" 
d="M290 544q108 5 176 -40q17 -11 36 -30q30 -35 48 -86q17 -51 17 -125q0 -99 -40 -164.5t-105 -92.5q-47 -20 -124 -20q-129 0 -195 73q-68 79 -68 212q0 123 57 193l10 10q10 10 15 14q18 16 53 31q46 21 120 25zM293 413q-47 -1 -71 -42q-19 -35 -19 -106q0 -51 12 -87
q2 -7 10 -21q28 -42 81 -42q33 0 52 17l2 2q2 1 4 3t4.5 5t4.5 5q6 7 11 23q15 35 15 88q0 46 -9 81q-19 77 -97 74zM134 715l24 15q9 5 27 13q21 12 35 18q5 3 15.5 7.5l15.5 6.5q38 19 54 19q17 0 70 -27q5 -3 27 -14.5t34 -18.5t26 -16q19 -11 27 -19q20 -17 20 -39
q0 -29 -18 -45q-10 -10 -27 -10q-11 0 -29 5.5t-31 11.5l-34.5 15.5t-27.5 12.5q-12 6 -38 16l-86 -36q-58 -24 -81 -24q-12 0 -22 5q-25 13 -25 49q0 10 3.5 18.5t10 14.5t11 9.5t11.5 7.5z" />
    <glyph glyph-name="otilde" unicode="&#xf5;" horiz-adv-x="583" 
d="M290 544q108 5 176 -40q17 -11 36 -30q30 -35 48 -86q17 -51 17 -125q0 -99 -40 -164.5t-105 -92.5q-47 -20 -124 -20q-129 0 -195 73q-68 79 -68 212q0 123 57 193l10 10q10 10 15 14q18 16 53 31q46 21 120 25zM293 413q-47 -1 -71 -42q-19 -35 -19 -106q0 -51 12 -87
q2 -7 10 -21q28 -42 81 -42q33 0 52 17l2 2q2 1 4 3t4.5 5t4.5 5q6 7 11 23q15 35 15 88q0 46 -9 81q-19 77 -97 74zM210 794q37 2 76 -14q6 -2 26.5 -11t34 -12.5t27.5 -3.5q20 0 43 12l13.5 9t11 7t9.5 4t14 2q11 0 19 -3q30 -14 30 -50q0 -23 -16.5 -48t-42.5 -40
q-38 -22 -84 -22q-37 0 -84 19q-53 22 -65 22q-14 0 -31 -10q-4 -2 -17.5 -12t-22 -13.5t-18.5 -3.5t-21 6q-10 5 -19.5 18t-9.5 30q0 20 13 46q38 64 114 68z" />
    <glyph glyph-name="odieresis" unicode="&#xf6;" horiz-adv-x="583" 
d="M397 791q21 0 40 -7q20 -9 37.5 -30t17.5 -52q0 -45 -38 -74q-24 -17 -49 -17q-31 0 -54 16q-40 28 -40 76q0 11 2 19q13 47 54 62q15 6 30 7zM185 790q34 0 58 -18q10 -7 18 -19q17 -23 17 -52q0 -38 -26 -64q-28 -28 -65 -28q-34 0 -60 25q-29 27 -29 67q0 16 5 30
q10 28 33 43t49 16zM298 545q98 0 158 -35q28 -15 52 -44q59 -70 59 -201q0 -82 -30 -146q-60 -133 -236 -133q-18 0 -27 1q-95 6 -148 51q-92 76 -92 235q0 49 9 88q2 9 5.5 21t13 35t29 46t44.5 39q24 16 71 30q51 12 92 13zM296 414q-19 0 -35 -7q-43 -17 -53 -79
q-5 -26 -5 -63q0 -33 5 -58q4 -35 25 -60q16 -16 24 -21q21 -11 49 -11q43 0 67 32q26 35 26 114q0 31 -6 62q0 25 -19 54q-19 30 -56 35q-7 2 -22 2z" />
    <glyph glyph-name="divide" unicode="&#xf7;" horiz-adv-x="667" 
d="M414 110q-1 -34 -24 -57t-57 -22q-34 0 -57.5 22.5t-22.5 56.5q0 34 23 57.5t57 23.5t57.5 -23.5t23.5 -57.5zM414 468q-1 -33 -24 -56t-57 -23t-57.5 23t-22.5 57q0 18 6 33q20 46 74 48q34 -1 57.5 -24.5t23.5 -57.5zM667 227h-667v127h667v-127z" />
    <glyph glyph-name="oslash" unicode="&#xf8;" horiz-adv-x="583" 
d="M491 604h29q21 0 29 -4q9 -6 9 -16q0 -4 -1.5 -8.5t-5 -10.5t-7 -11t-9.5 -14.5t-11 -16.5q-10 -14 -28 -44q9 -9 25 -31q45 -69 45 -182q0 -106 -47 -178q-18 -24 -30 -36q-69 -66 -189 -66q-62 1 -115 18q-4 -3 -15 -21q-20 -33 -35.5 -41.5t-47.5 -8.5q-30 0 -36 3
q-10 3 -10 15q0 10 28 53q12 18 34 54q-15 15 -33 49q-37 67 -37 162q0 72 21 130q11 28 30 55q13 19 29 32q68 58 196 58q44 0 103 -15q20 28 29 42q0 1 3.5 6t8.5 11.5t9 9.5q9 6 29 6zM199 200l137 210q-30 6 -43 6q-43 0 -68 -31q-29 -40 -29 -121q0 -32 3 -64zM396 331
l-136 -209q29 -8 45 -8q13 0 25 3q28 8 46 34q25 35 25 114q0 29 -5 66z" />
    <glyph glyph-name="ugrave" unicode="&#xf9;" horiz-adv-x="625" 
d="M239 445v-204q0 -64 11 -86q14 -31 55 -31q43 0 71 43q18 27 18 84q0 136 -5 147q-3 10 -14 10q-4 0 -12 -2q-12 -3 -20 -3q-23 0 -32.5 20t-9.5 42q0 47 35 61q9 3 23 3q6 0 12 -0.5t14 -1.5t12 -1q51 -3 52 -3q13 0 39.5 2.5t39.5 2.5q20 0 28 -16q3 -9 3 -43
q0 -27 -1 -41v-51v-74t-1 -73v-78q1 -16 4 -21q3 -9 13 -9q8 2 11 2q6 1 16 1q13 0 18 -3q25 -11 25 -59q0 -27 -14 -44q-14 -18 -42 -18l-30 3q-20 3 -40 3q-18 0 -36 -3l-27 -3q-34 0 -34 35v16q1 10 0 21q-22 -25 -40 -38q-57 -44 -134 -44q-16 0 -24 1q-72 6 -110 47
q-11 12 -15 19q-6 10 -10 20.5t-7 23.5t-4.5 22.5t-2 25t-0.5 22.5v24v20q1 35 1 105q0 34 -1 51q0 26 -9 32q-3 2 -6 2t-9 -1t-11 -1q-22 0 -31 19t-9 41q0 46 31 61q11 4 26 4q13 0 40.5 -4t41.5 -4q22 0 39 4q30 3 31 3q22 0 28 -19q3 -8 3 -64zM239 790q28 2 72 -37
l38 -32l7 -7q5 -5 32 -27l5.5 -5.5t6 -6.5t5.5 -5l4 -4l5 -5l5 -5t4.5 -6.5t3.5 -7.5t3 -9t1 -11q-1 -21 -16 -39t-36 -18q-31 0 -161 94q-1 1 -7.5 5.5t-11 9t-10 11.5t-9 16t-3.5 19q0 12 4 21q8 20 24 34t34 15z" />
    <glyph glyph-name="uacute" unicode="&#xfa;" horiz-adv-x="625" 
d="M239 445v-204q0 -64 11 -86q14 -31 55 -31q43 0 71 43q18 27 18 84q0 136 -5 147q-3 10 -14 10q-4 0 -12 -2q-12 -3 -20 -3q-23 0 -32.5 20t-9.5 42q0 47 35 61q9 3 23 3q6 0 12 -0.5t14 -1.5t12 -1q51 -3 52 -3q13 0 39.5 2.5t39.5 2.5q20 0 28 -16q3 -9 3 -43
q0 -27 -1 -41v-51v-74t-1 -73v-78q1 -16 4 -21q3 -9 13 -9q8 2 11 2q6 1 16 1q13 0 18 -3q25 -11 25 -59q0 -27 -14 -44q-14 -18 -42 -18l-30 3q-20 3 -40 3q-18 0 -36 -3l-27 -3q-34 0 -34 35v16q1 10 0 21q-22 -25 -40 -38q-57 -44 -134 -44q-16 0 -24 1q-72 6 -110 47
q-11 12 -15 19q-6 10 -10 20.5t-7 23.5t-4.5 22.5t-2 25t-0.5 22.5v24v20q1 35 1 105q0 34 -1 51q0 26 -9 32q-3 2 -6 2t-9 -1t-11 -1q-22 0 -31 19t-9 41q0 46 31 61q11 4 26 4q13 0 40.5 -4t41.5 -4q22 0 39 4q30 3 31 3q22 0 28 -19q3 -8 3 -64zM381 789q21 0 33 -5
q17 -9 29.5 -28t12.5 -35q0 -7 -3 -17q-3 -11 -10 -20t-14.5 -14.5l-31.5 -22.5q-108 -83 -141 -83q-14 0 -25 7q-29 17 -29 50q0 12 13 34q2 3 6.5 7t6.5 7l3.5 3.5l3.5 3.5l4 4q24 22 32 28q5 4 10.5 9.5l12.5 12t11 9.5q21 19 24 21q32 27 52 29z" />
    <glyph glyph-name="ucircumflex" unicode="&#xfb;" horiz-adv-x="625" 
d="M239 445v-204q0 -64 11 -86q14 -31 55 -31q43 0 71 43q18 27 18 84q0 136 -5 147q-3 10 -14 10q-4 0 -12 -2q-12 -3 -20 -3q-23 0 -32.5 20t-9.5 42q0 47 35 61q9 3 23 3q6 0 12 -0.5t14 -1.5t12 -1q51 -3 52 -3q13 0 39.5 2.5t39.5 2.5q20 0 28 -16q3 -9 3 -43
q0 -27 -1 -41v-51v-74t-1 -73v-78q1 -16 4 -21q3 -9 13 -9q8 2 11 2q6 1 16 1q13 0 18 -3q25 -11 25 -59q0 -27 -14 -44q-14 -18 -42 -18l-30 3q-20 3 -40 3q-18 0 -36 -3l-27 -3q-34 0 -34 35v16q1 10 0 21q-22 -25 -40 -38q-57 -44 -134 -44q-16 0 -24 1q-72 6 -110 47
q-11 12 -15 19q-6 10 -10 20.5t-7 23.5t-4.5 22.5t-2 25t-0.5 22.5v24v20q1 35 1 105q0 34 -1 51q0 26 -9 32q-3 2 -6 2t-9 -1t-11 -1q-22 0 -31 19t-9 41q0 46 31 61q11 4 26 4q13 0 40.5 -4t41.5 -4q22 0 39 4q30 3 31 3q22 0 28 -19q3 -8 3 -64zM315 666l-27.5 -11
l-32 -13t-27.5 -12q-56 -24 -81 -24q-13 0 -21 5q-25 13 -25 49q0 10 3.5 18.5t9.5 14.5t10.5 9.5t11.5 7.5l8 5q5 3 12.5 8t12.5 7q13 7 26 13q16 9 35 18l32 14q38 19 53 19q17 0 71 -27q7 -4 28 -15t33 -18l25 -16q20 -11 28 -19q19 -19 19 -39q0 -29 -18 -45
q-8 -10 -26 -10q-11 0 -29.5 6t-30 10.5t-36 16t-26.5 12.5q-18 8 -38 16z" />
    <glyph glyph-name="udieresis" unicode="&#xfc;" horiz-adv-x="625" 
d="M181 789q18 3 38 -6q23 -10 37 -29.5t16.5 -32t2.5 -21.5q0 -25 -13.5 -46t-29.5 -31q-21 -14 -48 -14q-13 0 -30 5q-28 10 -44 34t-16 51q0 37 25 62.5t62 27.5zM389 789q27 0 40 -5q21 -7 40 -29.5t19 -55.5q0 -22 -13 -43q-5 -11 -7 -13q-9 -13 -13 -13
q-26 -21 -60 -21q-21 0 -43 13q-45 28 -45 78q0 21 7 36q21 49 75 53zM74 215v113q0 35 -1 53q-2 19 -9 24q-3 2 -6 2t-9 -1t-11 -1q-40 0 -40 60q0 38 22 53q9 8 14 9q9 3 19 3q12 0 38.5 -4t40.5 -4q15 0 47 4q20 2 29 2q10 0 16 -5q14 -9 14 -47v-35v-42v-36v-53
q0 -5 0.5 -16.5t0.5 -17.5v-23.5v-22.5v-18t1 -18t2 -14t3 -14t5 -11q14 -30 55 -30q31 0 55 23q23 22 28 46.5t5 78.5v15q0 97 -4 111q-5 10 -15 10q-2 0 -7.5 -1.5t-6.5 -1.5q-6 -1 -18 -1q-17 0 -28 13q-13 16 -13 50q0 30 16 47q11 9 20 12q7 3 20 3q6 0 13 -0.5
t15.5 -1.5t13.5 -1q30 -2 44 -2q29 0 59 3q14 2 23 2q21 0 30 -16q3 -8 3 -60q0 -17 -1 -26v-58v-110q0 -8 -0.5 -25t-0.5 -26q0 -67 4 -75q0 -2 4 -6t10 -4q2 0 5 0.5t4 0.5q12 2 20 2q9 0 15 -3q26 -12 26 -56q0 -24 -6 -36l-3 -4q-3 -5 -7 -9q-14 -16 -39 -16
q-15 0 -32 3q-24 2 -38 2q-13 0 -35 -2q-15 -3 -29 -3q-34 0 -34 35v37q-20 -25 -46 -44q-56 -40 -131 -40q-88 1 -132 49q-16 20 -20 29q-18 36 -18 146z" />
    <glyph glyph-name="ydieresis" unicode="&#xff;" horiz-adv-x="646" 
d="M145 -85q8 -8 23 -8q24 0 51 27q30 30 30 65q0 10 -9 37l-10 25q-3 10 -11.5 29t-11.5 28q-10 25 -35.5 83t-37.5 89l-10.5 24.5l-12 28.5l-10.5 25q-12 27 -20 34q-4 4 -8 4.5t-12.5 -1t-15.5 -1.5q-24 0 -36 20q-9 15 -9 40q0 35 17.5 51t40.5 16q1 0 43 -6
q29 -3 57 -3q30 0 67 5q6 0 22 2t25 2q13 0 24 -5q35 -14 35 -56q0 -35 -32 -46q-3 -1 -8 -2t-6 -1q-20 -2 -20 -18q0 -3 1.5 -9.5t4 -15t3.5 -10.5q2 -5 7 -22l19 -57.5t21 -65.5q10 -34 14 -51q1 -2 2 -6t2 -6.5t2 -2.5q3 1 9 21q0 2 1.5 8t2.5 9l47 144q18 52 18 61
q0 7 -3 11q-2 5 -25 12q-10 4 -17 11q-11 12 -11 38q0 11 3 20q4 13 18 25t35 12q8 0 23.5 -2t20.5 -2q24 -3 47 -3q26 0 53 3q38 5 46 5q15 0 22 -3q36 -12 36 -63q0 -29 -13 -44.5t-31 -14.5q-4 0 -12.5 1t-13.5 1q-4 0 -8 -1.5t-7 -6l-5.5 -8t-5.5 -10.5l-5 -12l-5.5 -14
l-5.5 -14q-7 -19 -19 -54.5t-18 -51.5l-37 -103q-24 -64 -39 -96q-58 -134 -132 -193q-65 -53 -148 -53q-57 0 -97 18q-8 3 -20 12q-19 12 -31 26q-25 32 -25 72q0 32 21 57q24 26 62 26q19 0 35 -6q40 -17 40 -60q0 -8 -2 -20zM428 788q34 4 64 -19q12 -8 20 -20
q15 -24 15 -51q0 -34 -25 -61q-25 -29 -66 -29q-36 0 -63 26.5t-27 63.5q0 26 11 45q23 40 71 45zM217 788q26 2 47 -9.5t32 -26.5q18 -24 18 -54q0 -28 -19 -55q-13 -14 -18 -17q-24 -18 -55 -18t-55 19q-9 7 -20 22q-15 24 -15 50q1 37 27 63q23 23 58 26z" />
    <glyph glyph-name="dotlessi" unicode="&#x131;" 
d="M260 192v-37q0 -1 0.5 -5.5t0.5 -6.5t1 -6t2 -6t3 -4.5t5 -3.5t7 -1q3 0 8.5 1.5t7.5 1.5q12 2 18 2q19 0 33 -22q7 -17 7 -41q0 -41 -28 -56q-12 -7 -32 -7q-11 0 -63 5q-21 2 -65 2q-25 0 -49 -3q-45 -5 -55 -5q-29 0 -44 17q-17 19 -17 50q0 28 12.5 44t31.5 16
q7 0 19 -4l3 -1q3 -1 7.5 -2t8.5 -1q7 0 11 6q5 9 5 37q0 9 0.5 29t0.5 30v28v32.5v27.5q0 57 -1 68q0 15 -2 20q0 1 -1.5 3.5t-4.5 5.5t-7 3q-2 0 -4.5 -1t-6 -2t-4.5 -1q-14 -5 -24 -5q-6 0 -15 3q-16 7 -27 35q-2 10 -2 23q0 36 21 54q15 13 37 13q8 0 40 -5q27 -5 48 -5
q14 0 46 4q24 6 38 6q24 1 30 -18q3 -9 3 -47q0 -45 -1.5 -135t-1.5 -136z" />
    <glyph glyph-name="OE" unicode="&#x152;" horiz-adv-x="1083" 
d="M826 572h-40q-76 0 -93 -6q-13 -6 -18 -19q-2 -7 -2 -38q0 -64 2 -68q1 -3 3.5 -5.5t5.5 -3.5l2 -1l8 -1h13q44 0 44 28q0 4 -1.5 16.5t-1.5 19t3.5 16t11.5 15.5q19 12 38 12q11 0 24 -5q29 -10 29 -43q0 -5 -1 -15t-1 -14q-4 -50 -4 -73q0 -39 4 -68q5 -42 5 -50
q0 -57 -37 -67q-8 -3 -20 -3q-29 0 -44 22q-4 8 -6 18q-2 6 -2 16v38q-4 10 -31 13h-16q-12 0 -18 -3q-3 -2 -5 -5.5t-2.5 -8.5l-1 -10t-0.5 -12.5v-12.5v-25q0 -7 0.5 -22t0.5 -22l1 -5q0 -5 0.5 -9t2.5 -10t5.5 -10.5t9.5 -8.5t15 -6q11 -3 57 -3q58 0 87 3q39 3 54 17
q10 10 10 32q0 11 -4 35q-2 20 -2 31q0 55 40 76q18 9 40 9q28 0 47 -14q30 -22 30 -73q0 -17 -4 -53q-4 -38 -4 -58q0 -17 4 -47q5 -33 5 -38q0 -19 -10 -32q-16 -20 -77 -20q-33 0 -99.5 3t-100.5 3q-48 0 -144 -4q-42 -2 -62 -2q-15 0 -25 7q-15 11 -15 38q0 6 0.5 17
t0.5 16q-25 -29 -35 -37q-63 -53 -162 -53q-60 0 -111 18q-20 6 -30 11q-28 14 -52 34q-43 38 -69 88q-43 86 -43 210q0 179 92 278q57 61 138 80q39 9 78 9q64 0 111 -22q26 -11 54 -37q13 -12 28 -32v14v13t0.5 11t1.5 10.5t2.5 8t4 8t6.5 6.5q7 5 14 6q8 2 14 2
q15 0 41 -2q14 0 39 -1t45.5 -1.5t38.5 -0.5q40 0 121 1.5t121 1.5q31 0 40 -4q28 -9 28 -47q0 -19 -4 -55q-2 -30 -2 -45q0 -21 3 -42q5 -38 5 -45q0 -23 -7 -38q-19 -40 -72 -40q-28 0 -46.5 13.5t-24.5 30.5q-6 15 -6 33q0 14 4 38q5 32 5 38q0 17 -12 25q-9 5 -70 7z
M356 571q-57 0 -90 -49q-10 -14 -17 -38q-18 -54 -18 -128q0 -92 18 -141q7 -19 15 -30q9 -13 14 -17q32 -34 86 -34q46 0 70 17q11 6 24 20q41 47 41 167q0 151 -48 202q-8 8 -23 16q-32 17 -72 15z" />
    <glyph glyph-name="oe" unicode="&#x153;" horiz-adv-x="917" 
d="M488 487q4 2 17 12q10 8 16 11q60 35 142 35q104 0 167 -59q23 -21 39 -50q32 -61 32 -124q0 -32 -5 -45q-11 -23 -25 -26q-7 -2 -100 -2q-43 1 -130 1q-6 0 -20 -0.5t-21 -0.5q-18 0 -22 -1q-10 -4 -10 -17q0 -4 0.5 -7.5t1.5 -8t1 -7.5q8 -45 36.5 -63.5t55.5 -18.5
q29 0 45 9.5t34 30.5q12 15 17.5 21t20.5 13t34 7q40 0 61 -23q16 -18 16 -44q0 -25 -15 -51q-23 -38 -68 -62q-60 -30 -142 -30q-78 0 -134 29q-18 10 -48 32q-15 -15 -43 -29q-56 -30 -144 -30q-93 0 -153 38q-8 5 -22 17q-9 8 -13 12q-28 28 -47 73q-27 61 -27 148
q0 82 27 140q24 48 58 75q8 7 20 14t20 11l9 4q56 24 134 24q80 0 135 -25q32 -15 50 -33zM651 430q-45 -4 -65 -39q-9 -16 -9 -28q0 -7 4 -9q1 -1 36 -3q8 0 24.5 -0.5t25.5 -0.5q31 0 47 1q21 0 21 13q0 3 -2 13q-6 20 -20 33q-27 22 -62 20zM293 415q-32 -1 -53 -20
q-15 -14 -18 -22q-19 -33 -19 -107q0 -32 6 -65q12 -43 31 -61q29 -23 64 -23q44 0 68 33q26 36 26 117q0 36 -7 66q-8 34 -22 53q-26 32 -76 29z" />
    <glyph glyph-name="Ydieresis" unicode="&#x178;" horiz-adv-x="750" 
d="M255 331l-51 84l-35 55l-37 59q-1 2 -4.5 6.5t-4.5 6l-3.5 5t-3.5 4.5l-4 4t-4.5 3.5t-4.5 2t-5.5 2t-5.5 1t-7 0.5q-5 0 -22 -3t-28 0t-20 16q-15 21 -15 49q0 60 46 75q12 3 28 3q10 0 30 -2q5 0 15 -2t15 -2q15 -1 44 -1q31 0 61 3q6 1 16 2.5t18.5 2.5t16.5 1
q56 4 74 -41q8 -16 7 -36q0 -30 -23 -47q-18 -10 -20 -12q-5 -4 -5 -11q0 -13 18 -44l15 -31q4 -8 13 -24.5t13 -24.5q13 -29 18 -29q1 0 14 23q3 6 11 20q20 40 31 60l2 3q2 4 5 9t5.5 11t4.5 13t2 12q0 6 -4 9.5t-16 10.5q-8 6 -14 12q-11 13 -11 40q0 50 33 68q16 8 39 8
q10 0 57 -5q24 -3 50 -3q27 0 52 3q6 0 23.5 2t27.5 2q31 0 49 -13q12 -10 15 -19q11 -18 11 -42q0 -34 -14 -52t-34 -18q-6 0 -20 2.5t-22 2.5q-11 0 -19 -5q-11 -7 -41 -54l-32 -53l-87 -140q-26 -43 -30 -54q-4 -13 -4 -65q0 -30 7 -42.5t27 -12.5q9 0 28.5 4t29.5 4
q14 0 27 -10q23 -19 23 -61q0 -37 -20 -55q-20 -20 -55 -20l-75 6q-29 4 -66 4t-113 -6q-60 -6 -62 -6q-24 0 -44 14q-5 3 -9 9q-18 21 -18 55q0 33 15 50.5t36 17.5q10 0 30 -3t30 -3q20 0 25.5 12.5t5.5 43.5q0 38 -5 55q-3 10 -46 81zM284 927q29 0 46 -8q12 -6 17 -11
q9 -6 14 -12q21 -24 21 -57q0 -39 -27 -65.5t-65 -26.5q-30 0 -55 20q-9 8 -14 13q-20 26 -20 59q0 42 34 69q22 17 49 19zM498 927q41 2 69 -24.5t28 -66.5q0 -22 -11 -41q-12 -23 -34 -35.5t-44 -12.5q-27 0 -49 14q-21 13 -32 35t-11 43q0 27 17 50q4 7 14 17
q21 18 53 21z" />
    <glyph glyph-name="circumflex" unicode="&#x2c6;" 
d="M-116 715l24 15q9 5 27 13q20 12 35 18q5 3 15.5 7.5l15.5 6.5q38 19 54 19q17 0 70 -27q5 -3 27 -14.5t34 -18.5t26 -16q19 -11 27 -19q20 -17 20 -39q0 -29 -18 -45q-10 -10 -27 -10q-11 0 -29 5.5t-31 11.5l-34.5 15.5t-27.5 12.5q-12 6 -38 16l-86 -36
q-58 -24 -81 -24q-12 0 -22 5q-25 13 -25 49q0 8 3 16t6.5 12.5t9.5 10t9 7.5t10 6z" />
    <glyph glyph-name="caron" unicode="&#x2c7;" 
d="M54 728l95 40q50 21 74 21q22 0 33.5 -17t11.5 -38q0 -22 -18 -36q-15 -13 -52.5 -34t-59.5 -31q-69 -33 -84 -33q-17 0 -68 25l-29 15t-33 18q-42 24 -58 38.5t-16 36.5q0 25 15 42q6 6 13 9q8 4 18 4q26 0 108 -38q16 -8 50 -22z" />
    <glyph glyph-name="tilde" unicode="&#x2dc;" 
d="M-40 794q37 2 76 -14q6 -2 26.5 -11t34 -12.5t27.5 -3.5q20 0 43 12l13.5 9t11 7t9.5 4t14 2q11 0 19 -3q30 -14 30 -50q0 -23 -16.5 -48t-42.5 -40q-38 -22 -84 -22q-37 0 -84 19q-53 22 -65 22q-14 0 -31 -10q-4 -2 -17.5 -12t-22 -13.5t-18.5 -3.5t-21 6
q-10 5 -19.5 18t-9.5 30q0 20 13 46q38 64 114 68z" />
    <glyph glyph-name="endash" unicode="&#x2013;" horiz-adv-x="646" 
d="M421 200h-69q-11 0 -33 0.5t-33 0.5q-14 0 -41 -1t-40 -1h-44q-13 -1 -39 -1q-59 0 -80 29q-14 18 -14 48q0 20 11 39q11 20 30 27t55 7q22 0 68 -2t68 -2h38q11 -1 32 -1q36 2 54 2h53q36 2 55 2q76 0 98 -17q9 -6 13 -12q12 -16 12 -46q0 -26 -11 -43q-19 -32 -80 -32
q-1 0 -103 3z" />
    <glyph glyph-name="emdash" unicode="&#x2014;" horiz-adv-x="667" 
d="M667 227h-667v127h667v-127z" />
    <glyph glyph-name="quoteleft" unicode="&#x2018;" horiz-adv-x="250" 
d="M35 420q4 80 69 189q23 34 41 54q26 34 53 34q19 -1 27 -15.5t8 -27.5q0 -12 -5 -23.5t-9.5 -18.5t-14 -20t-12.5 -18q-11 -16 -27 -50q-13 -23 -13 -34q0 -9 5 -15q4 -7 9.5 -10t15.5 -5.5t14 -4.5q13 -4 25 -16q27 -27 27 -73q0 -62 -51 -91q-18 -12 -46 -12
q-25 0 -47 11q-36 19 -53.5 60t-15.5 86z" />
    <glyph glyph-name="quoteright" unicode="&#x2019;" horiz-adv-x="250" 
d="M118 714q38 0 67 -22q54 -40 54 -127q0 -84 -60 -186q-16 -28 -33 -50q-8 -11 -25 -30q-26 -26 -43 -26q-8 0 -17 5q-21 13 -21 37q0 8 1.5 15.5t3.5 13t6.5 14t7 12.5l9.5 14.5t10 14.5q16 24 29 49q14 28 14 41q0 16 -23 22q-29 6 -47 25q-31 31 -31 74q0 28 16 55
q13 21 33 33t30.5 14t18.5 2z" />
    <glyph glyph-name="quotesinglbase" unicode="&#x201a;" horiz-adv-x="250" 
d="M117 201q54 0 88 -42q34 -41 34 -105q0 -47 -19 -100.5t-37 -83t-36 -53.5q-43 -57 -70 -57q-10 0 -16 4q-21 14 -21 39q0 6 1 11.5t2 10t4 11l4.5 10t6.5 11t6.5 10t7.5 11t7 10.5q21 30 29 49q12 18 12 39q0 13 -9.5 17.5t-16.5 4.5q-1 0 -6 2t-8 3q-28 12 -44 38.5
t-16 54.5q0 57 47 88q23 16 50 17z" />
    <glyph glyph-name="quotedblleft" unicode="&#x201c;" horiz-adv-x="500" 
d="M442 714q16 1 25.5 -11.5t9.5 -27.5q0 -8 -1.5 -14t-6.5 -15t-8.5 -14.5t-14 -20l-17.5 -24.5q-4 -4 -12 -19t-8 -26t19 -18q29 -11 43 -24q30 -32 30 -74q0 -17 -7 -35q-10 -27 -35.5 -48.5t-65.5 -21.5q-32 0 -60.5 20t-42.5 52q-12 27 -12 70q0 88 69 172q27 32 53 55
t42 24zM199 613l-21 -30q-16 -25 -16 -38q0 -4 1 -7l1.5 -4.5t3 -3t4 -2t5.5 -2t6 -2.5q43 -14 60 -51q3 -7 7 -19q3 -16 3 -26q0 -45 -30.5 -76t-75.5 -31q-12 0 -24 3q-40 11 -66 45q-27 36 -27 93q0 65 38 128q18 31 43 59q3 3 8 8.5t7 7.5l8 8l10 10q8 8 13 11
q24 21 39 21q12 0 22.5 -10t10.5 -30q0 -21 -30 -62z" />
    <glyph glyph-name="quotedblright" unicode="&#x201d;" horiz-adv-x="500" 
d="M123 716q36 0 65 -20q55 -39 55 -123q0 -85 -61 -160q-7 -9 -23 -27q-8 -10 -13 -15l-5 -5l-5 -5q-39 -39 -60 -39q-16 0 -24.5 12.5t-8.5 28.5q0 13 10 29q4 8 10 17q2 3 6 8.5t6 8.5q9 11 23 33l4 7q4 7 7 15t3 15q-2 11 -19 16l-9 4q-9 3 -18 8t-16 12q-30 28 -30 74
q0 30 17 58l5.5 8t4.5 6q29 31 76 34zM367 716q37 0 67 -20q56 -37 56 -122q0 -102 -95 -202q-47 -50 -70 -50q-15 0 -24.5 12.5t-9.5 27.5q0 18 27 57q5 6 13 17.5l10 14.5l3 6q4 6 7 11.5t5.5 13t2.5 13.5q0 4 -2 7q-4 7 -22 12q-26 10 -39 23q-29 31 -29 73q0 36 22 65
q27 38 78 41z" />
    <glyph glyph-name="quotedblbase" unicode="&#x201e;" horiz-adv-x="500" 
d="M120 200q27 3 53 -11q12 -6 19 -11q51 -36 51 -121q0 -70 -46 -139q-13 -22 -40 -50q-44 -47 -60 -55q-11 -6 -21 -6q-6 0 -14 3q-19 12 -19 35q0 7 4 19q3 9 8 17.5t17.5 25.5t20.5 30q19 27 19 43q-3 9 -6 11t-24.5 11t-37.5 25q-24 26 -24 69q0 38 24 66q8 10 21 19
q27 18 55 19zM371 201q42 0 74 -28q17 -15 25 -29q21 -36 21 -86q0 -99 -91 -196q-36 -38 -54 -49q-12 -6 -21 -6q-14 0 -24 12t-10 26q0 22 28 60q9 11 23 33q17 23 17 42q0 5 -2 7q-2 4 -4 5t-7 2.5t-8 2.5q-27 11 -45 29q-25 28 -25 69q0 35 18 60q2 2 6.5 8t6.5 8
q3 3 15 12q31 17 57 18z" />
    <glyph glyph-name="dagger" unicode="&#x2020;" horiz-adv-x="583" 
d="M373 -24v-52q0 -4 0.5 -11.5t0.5 -10.5q0 -35 -25 -49q-23 -10 -51 -10q-23 0 -41 7q-16 6 -23 18q-9 14 -9 46q0 11 1 31t1 30q0 22 0.5 64.5t0.5 64.5q0 18 1 50t1.5 58t0.5 50v93q-73 0 -110 -1q-7 0 -22.5 -0.5t-23.5 -0.5q-31 0 -44 15q-9 13 -10 18q-4 8 -4 32
q0 16 5 29q5 15 14 22.5t18 9t24 1.5l90 -3h65l-3 146q-1 15 -1 43q0 26 10 36q19 20 60 20q26 0 42 -6q18 -6 26 -22q5 -10 5 -32q0 -17 -1 -25v-42q0 -40 -2 -120q20 0 60.5 0.5t60.5 1.5q6 0 20 0.5t21 0.5q23 0 35 -11q9 -8 12 -16q6 -12 6 -33q0 -48 -28 -62
q-12 -5 -35 -5q-13 0 -38.5 1t-38.5 1q-38 2 -76 0q2 -206 4 -307q0 -12 0.5 -35.5t0.5 -34.5z" />
    <glyph glyph-name="bullet" unicode="&#x2022;" 
d="M322 352q0 -36 -13 -65q-18 -43 -55 -66.5t-84 -23.5q-37 0 -68 14q-40 19 -65 58t-25 84q0 65 46.5 110t110.5 45q35 0 66 -14q19 -9 36 -23t34 -46.5t17 -72.5z" />
    <glyph glyph-name="ellipsis" unicode="&#x2026;" horiz-adv-x="1000" 
d="M913 75q0 -34 -22.5 -57.5t-56.5 -23.5q-15 0 -28 5q-11 4 -21 11t-20.5 24.5t-10.5 39.5q0 33 23.5 56.5t56.5 23.5t56 -23t23 -56zM580 75q0 -34 -22.5 -57.5t-56.5 -23.5q-15 0 -27 5q-53 18 -53 75q0 20 7 34q21 46 73 46q33 0 55.5 -23t23.5 -56zM246 75
q0 -34 -22.5 -57.5t-56.5 -23.5q-15 0 -28 5q-52 21 -52 75q0 33 23.5 56.5t57.5 23.5q33 0 55.5 -23t22.5 -56z" />
    <glyph glyph-name="fraction" unicode="&#x2044;" horiz-adv-x="125" 
d="M228 712q20 0 27 -3q11 -4 11 -14l-3 -12l-18 -37l-5.5 -11l-6.5 -12.5t-5 -10.5l-57 -115l-147 -297l-47 -91l-43 -88l-4 -9q-4 -8 -8 -12q-7 -6 -27 -6q-32 0 -32 19q0 7 16 39l21 41l54 109l125 250l43 86l52 105q31 60 34 63q6 5 20 6z" />
    <glyph glyph-name="trademark" unicode="&#x2122;" horiz-adv-x="771" 
d="M426 570v-132q0 -9 5 -14q3 -3 24 -7h9v-43q-66 1 -131 0v42l17 3q4 0 8 2q9 4 11 37v198l-3 3q-13 4 -28 4l1 43q44 -2 66 -1q7 0 19.5 0.5t18.5 0.5l90 -222l93 222q52 -2 105 0v-43l-9 -1q-8 0 -12 -1q-16 -2 -16 -26v-194v-2q0 -7 0.5 -10.5t6 -7t15.5 -3.5l9 -1v-43
q-56 2 -83 2q-19 0 -55 -2v43h6q16 0 20.5 5.5t4.5 16.5v130l-79 -195h-34zM324 610h-45q-12 39 -22 46q-7 5 -23 5h-19v-202q2 -30 4 -33q5 -7 20 -7l20 -2v-43q-68 2 -101 2q-21 0 -65 -2v43l16 2q11 0 19 3q9 4 9 37v202h-19q-22 -1 -28 -11q-4 -6 -8 -16t-6 -17l-3 -7
h-45q3 32 5 96q118 -2 177 -2q18 0 54.5 1t54.5 1q1 -32 5 -96z" />
    <glyph glyph-name="minus" unicode="&#x2212;" horiz-adv-x="667" 
d="M667 227h-667v127h667v-127z" />
    <glyph glyph-name="Acute" unicode="&#xf6c9;" 
d="M119 930q18 0 28 -5q14 -6 27 -24t13 -43q0 -27 -19 -43q-8 -7 -47 -24l-35 -14.5l-43 -17.5t-36 -11q-27 -9 -43 -9q-13 0 -23 7q-25 16 -25 50q0 6 1 11t2.5 9t4.5 8l4.5 6t6 6t5.5 4.5t6 3.5l5 4q20 12 30 17q5 3 20.5 10.5t23.5 12.5q3 2 16.5 9.5l20.5 11.5
t18.5 9.5t21 8t17.5 3.5z" />
    <glyph glyph-name="Caron" unicode="&#xf6ca;" 
d="M54 874q85 33 139 49q21 7 33 7q15 -2 23 -8q20 -16 20 -48q0 -19 -16 -35q-22 -19 -96 -56q-75 -38 -103 -38q-17 0 -35 7q-25 9 -98 50q-40 22 -55 36.5t-15 35.5t12 39q11 17 34 17q24 -1 157 -56z" />
    <glyph glyph-name="Dieresis" unicode="&#xf6cb;" 
d="M-60 927q30 0 46 -8q12 -6 18 -11q6 -4 14 -12q20 -26 20 -57q0 -39 -27 -65.5t-65 -26.5q-30 0 -55 20q-9 8 -14 13q-20 26 -20 59q0 42 34 69q21 17 49 19zM155 927q41 2 68.5 -24.5t27.5 -66.5q0 -22 -11 -41q-12 -23 -34 -35.5t-44 -12.5q-27 0 -49 14q-21 13 -32 35
t-11 43q0 27 17 50q7 11 14 17q21 18 54 21z" />
    <glyph glyph-name="Grave" unicode="&#xf6ce;" 
d="M-18 928q13 1 28.5 -3.5t26 -10l29.5 -16t27 -14.5q41 -20 52 -27q18 -10 26.5 -16t17.5 -18t9 -26q0 -22 -12 -38q-14 -20 -39 -20q-22 0 -34 6q-43 12 -129 48q-25 10 -34 17q-26 17 -26 44q0 34 23 57q15 15 35 17z" />
    <glyph glyph-name="onefitted" unicode="&#xf6dc;" horiz-adv-x="458" 
d="M333 264v-70q2 -30 6 -40q7 -12 23 -12q5 0 19 2q21 4 25 4q15 0 27 -8q25 -18 25 -62q0 -76 -79 -76q-12 0 -34.5 2t-29.5 2q-36 3 -72 3q-43 0 -83 -3q-50 -5 -58 -5q-34 0 -52 16q-8 6 -15 18q-9 21 -9 41q0 13 5 29q12 41 46 41q9 0 26 -3t25 -3q16 0 23 11
q8 13 8 115q0 30 -0.5 90t-0.5 89q0 51 -1 76q-1 11 -1.5 14.5t-2.5 12.5t-8 12.5t-15 3.5q-10 0 -27 -3t-26 -3q-28 0 -40.5 22t-12.5 51q0 66 66 72q16 2 61 -3q14 -1 42 -1q19 0 53 2q24 4 37 4q49 0 50 -51v-64q1 -35 1 -105q0 -36 -0.5 -110t-0.5 -111z" />
    <glyph glyph-name="fi" unicode="&#xfb01;" horiz-adv-x="729" 
d="M256 381v-75q0 -16 0.5 -48t0.5 -48q0 -7 -0.5 -19.5t-0.5 -22.5t1 -19q2 -28 21 -28q2 0 7 0.5t8 0.5q15 3 29 3q17 0 28 -13q13 -14 13 -48q0 -20 -6 -32q-13 -31 -53 -31q-9 0 -49 5q-7 0 -21 1t-21 1q-6 0 -20 0.5t-21 0.5q-43 0 -74 -5q-4 0 -18 -2t-22 -2
q-23 0 -37 12q-2 1 -11 12q-10 16 -10 43q0 25 9 39q13 21 34 21q9 0 21 -5q9 -3 16 -3q9 0 13 10q3 7 3.5 28.5t0 39.5t0.5 28v164q0 16 -5 20q-4 5 -30 5q-41 0 -54 20q-9 14 -9 38q0 46 32 55q6 2 35 2h5h7t6.5 1t6 2.5t3.5 4.5t2 8q0 67 27 105q33 45 92 58q19 6 39 9
q14 2 43 2q82 0 124 -31q43 -33 43 -80q0 -41 -30 -63q-18 -14 -46 -14q-38 0 -58 26q-10 17 -10 32q0 7 5 29q-42 7 -58 -13q-6 -6 -9 -18q-2 -9 -2 -22q0 -3 0.5 -8t0.5 -7q0 -10 2 -13q2 -5 8 -7q1 0 10 -0.5t15 -0.5q3 0 12 0.5t14 0t12.5 -1.5t13.5 -5t10 -11
q10 -18 10 -38q0 -16 -6 -30q-6 -18 -21 -24q-7 -3 -65 -5q-9 0 -12 -6q-2 -3 -4 -28zM562 761q43 3 73 -26t30 -71q0 -47 -41 -78q-25 -18 -57 -18q-21 0 -41 9q-20 10 -37 33t-17 55q0 21 8 39q25 54 82 57zM656 356v-108q-1 -21 -1 -62v-35v-4t1 -7.5t3 -7.5
q5 -10 15 -10q3 0 6.5 0.5t5.5 1.5h3q15 3 19 3q19 0 31 -19q9 -16 9 -43q0 -40 -26 -56q-14 -8 -33 -8q-11 0 -31.5 2t-26.5 2q-35 3 -69 3q-26 0 -53 -3q-43 -5 -53 -5q-33 0 -49 22q-12 19 -12 46q0 25 10 40q13 19 33 19q6 0 19 -4t20 -4q6 0 9.5 3.5t5 13t1.5 14v18.5
q0 6 0.5 17t0.5 16q0 17 -0.5 51t-0.5 51l1 35q0 34 -1 34q0 5 -1 14v10l-1 2q-1 1 -2 2.5t-2.5 3.5t-4 3.5t-5.5 1.5q-6 -2 -13 -4q-16 -5 -25 -5t-15 3q-24 12 -28 43q0 3 -0.5 8.5t-0.5 8.5q0 28 15 46.5t43 18.5q13 0 43 -6q30 -4 45 -4q14 0 44 4l12.5 2.5t13.5 2.5
t12 1q13 1 22 -5q8 -8 9 -11q4 -11 4 -58q0 -34 -2 -98z" />
    <glyph glyph-name="fl" unicode="&#xfb02;" horiz-adv-x="729" 
d="M256 381v-75q0 -16 0.5 -48t0.5 -48q0 -7 -0.5 -19.5t-0.5 -22.5t1 -19q2 -28 21 -28q2 0 7 0.5t8 0.5q15 3 29 3q17 0 28 -13q13 -14 13 -48q0 -20 -6 -32q-13 -31 -53 -31q-9 0 -49 5q-7 0 -21 1t-21 1q-6 0 -20 0.5t-21 0.5q-43 0 -74 -5q-4 0 -18 -2t-22 -2
q-23 0 -37 12q-2 1 -11 12q-10 16 -10 43q0 25 9 39q13 21 34 21q9 0 21 -5q9 -3 16 -3q9 0 13 10q3 7 3.5 28.5t0 39.5t0.5 28v164q0 16 -5 20q-4 5 -30 5q-41 0 -54 20q-9 14 -9 38q0 46 32 55q6 2 35 2h5h7t6.5 1t6 2.5t3.5 4.5t2 8q0 67 27 105q33 45 92 58q19 6 39 9
q14 2 43 2q82 0 124 -31q43 -33 43 -80q0 -41 -30 -63q-18 -14 -46 -14q-38 0 -58 26q-10 17 -10 32q0 7 5 29q-42 7 -58 -13q-6 -6 -9 -18q-2 -9 -2 -22q0 -3 0.5 -8t0.5 -7q0 -10 2 -13q2 -5 8 -7q1 0 10 -0.5t15 -0.5q3 0 12 0.5t14 0t12.5 -1.5t13.5 -5t10 -11
q10 -18 10 -38q0 -16 -6 -30q-6 -18 -21 -24q-7 -3 -65 -5q-9 0 -12 -6q-2 -3 -4 -28zM654 416v-64q0 -10 0.5 -28t0.5 -28q-1 -17 -1 -51v-53q0 -28 1 -42q2 -26 14 -28q2 -1 5 -1q6 0 16 2t15 2q21 0 32 -20q9 -16 9 -39q0 -27 -12 -44q-16 -21 -48 -21l-48 3q-35 4 -76 4
q-30 0 -60 -3q-42 -5 -49 -5q-12 0 -26 6q-32 16 -32 63q0 28 13 43.5t30 14.5q8 0 24 -4q10 -4 14 -4q9 0 13 12t4 52q1 63 1 189q0 24 -0.5 71t-0.5 70q0 61 -6 68q-4 5 -12 5q-4 0 -11.5 -3t-8.5 -3q-6 -2 -16 -2q-21 0 -33 18q-10 16 -10 44q0 26 13 44.5t39 19.5
q11 1 48 -4q30 -2 44 -2q36 0 70 6q2 0 6.5 0.5t6.5 0.5q21 0 29 -17q3 -8 3 -83q-1 -27 -1 -82v-107z" />
    <glyph glyph-name="Circumflex" 
d="M57 797q-8 -1 -24 -8q-3 -1 -8.5 -3t-8.5 -3l-35 -12l-32.5 -11l-25.5 -8.5t-24 -6.5t-17 -2q-9 0 -19 4q-24 14 -24 47q0 26 25 45q24 18 86 50q72 38 104 38q24 0 71 -23q83 -41 110 -63q23 -18 23 -44q0 -20 -13 -37t-34 -17q-7 0 -16 3q-8 2 -35 11q-41 14 -103 40z
" />
    <glyph glyph-name="Tilde" 
d="M-40 930q34 2 75 -14q6 -2 22 -9t24 -9.5t20.5 -5.5t23.5 -3q23 0 50 18q22 16 40 16q11 0 20 -4q10 -5 19.5 -17.5t9.5 -30.5q0 -24 -16 -48q-44 -63 -129 -63q-36 0 -86 21q-46 20 -61 20t-34 -12l-13.5 -10t-13.5 -9.5t-12 -5.5t-15 -3q-19 0 -35.5 16t-15.5 37
q0 34 22 62q1 2 5 5.5t8 7.5l5 5q36 34 87 36z" />
    </font>
</defs>
</svg>
