<?xml version="1.0" standalone="no"?>
<!DOCTYPE svg PUBLIC "-//W3C//DTD SVG 1.1//EN" "http://www.w3.org/Graphics/SVG/1.1/DTD/svg11.dtd" >
<svg>
<metadata>
Created by FontForge 20090622 at Wed Jul 12 06:46:07 2017
 By deploy user
Copyright (c) 1989 Adobe Systems Incorporated.  All Rights Reserved.Cochin is a trademark of Linotype AG and/or its subsidiaries.
</metadata>
<defs>
<font id="Cochin-Bold" horiz-adv-x="519" >
  <font-face 
    font-family="Cochin"
    font-weight="700"
    font-stretch="normal"
    units-per-em="1000"
    panose-1="2 2 8 0 0 0 0 0 0 0"
    ascent="800"
    descent="-200"
    x-height="378"
    cap-height="656"
    bbox="-73 -250 1020 914"
    underline-thickness="50"
    underline-position="-50"
    unicode-range="U+0020-U+2122"
  />
<missing-glyph horiz-adv-x="502" 
d="M-1 0h500v500h-500v-500zM9 10v480h480v-480h-480z" />
    <glyph glyph-name=".notdef" horiz-adv-x="502" 
d="M-1 0h500v500h-500v-500zM9 10v480h480v-480h-480z" />
    <glyph glyph-name="space" unicode=" " horiz-adv-x="260" 
 />
    <glyph glyph-name="exclam" unicode="!" horiz-adv-x="278" 
d="M142 154q-32 0 -54.5 -22t-22.5 -55t22.5 -55t54.5 -22t54.5 22t22.5 55t-22.5 55t-54.5 22zM154 192l1 15q3 69 10 104q7 34 26 101q18 64 27.5 108t9.5 89q0 33 -5 55l-163 -8v-19q16 -10 25 -21.5t13 -29t5 -42t1 -72.5q0 -89 5 -153.5t18 -126.5h27z" />
    <glyph glyph-name="quotedbl" unicode="&#x22;" horiz-adv-x="333" 
d="M126 589v9q1 7 1 12q0 25 -9.5 42.5t-35.5 17.5t-35.5 -17.5t-9.5 -42.5q0 -5 1 -12v-9l18 -204q2 -12 7 -21.5t19 -9.5t19.5 9.5t6.5 21.5zM291 589v9q1 7 1 12q0 25 -9.5 42.5t-35.5 17.5t-35.5 -17.5t-9.5 -42.5q0 -5 1 -12v-9l18 -204q2 -12 7 -21.5t19 -9.5
t19.5 9.5t6.5 21.5z" />
    <glyph glyph-name="numbersign" unicode="#" 
d="M450 261h-86l18 128h94v62h-86l29 199h-69l-28 -199h-114l29 199h-70l-27 -199h-104v-62h94l-18 -128h-104v-62h96l-29 -199h68l29 199h114l-29 -199h69l28 199h96v62zM313 389l-19 -128h-113l19 128h113z" />
    <glyph glyph-name="dollar" unicode="$" 
d="M9 196q28 -101 43 -190q12 6 22 10t19 4q7 0 28 -6q27 -6 49 -10t49 -4v-99h38v99q39 0 75 12.5t64.5 36t45 57.5t16.5 75q0 46 -16 80.5t-43.5 59.5t-58.5 43t-83 42v218q56 -3 99.5 -44t60.5 -97l29 3q-14 46 -26 144v2q-8 -2 -24 -2q-17 0 -51 11q-24 8 -43.5 12.5
t-44.5 4.5v85h-38v-85q-80 0 -134 -41.5t-54 -120.5q0 -39 14 -68.5t38 -51.5t50.5 -37.5t69.5 -37.5l16 -8v-259q-66 0 -119 55q-22 24 -38.5 54t-26.5 62zM219 424q-35 18 -59.5 45t-24.5 63q0 41 24 65t60 27v-200zM257 277q45 -24 66 -53t21 -76q0 -87 -87 -108v237z
" />
    <glyph glyph-name="percent" unicode="%" horiz-adv-x="889" 
d="M194 636q33 0 47 -43.5t14 -126.5q0 -82 -14 -126t-47 -44t-47 44t-14 126q0 83 14 126.5t47 43.5zM201 -18h56l377 686h-56zM641 386q-40 0 -71 -16.5t-51.5 -45.5t-30.5 -65t-10 -75t10 -75.5t30.5 -65t51.5 -45t71 -16.5t71 16.5t51.5 45.5t30.5 65t10 75t-10 75.5
t-30.5 65t-51.5 45t-71 16.5zM641 354q33 0 47 -43.5t14 -126.5q0 -82 -14 -126t-47 -44t-47 44t-14 126q0 83 14 126.5t47 43.5zM194 668q-40 0 -71 -16.5t-51.5 -45.5t-30.5 -65t-10 -75t10 -75.5t30.5 -65t51.5 -45t71 -16.5t71 16.5t51.5 45.5t30.5 65t10 75t-10 75.5
t-30.5 65t-51.5 45t-71 16.5z" />
    <glyph glyph-name="ampersand" unicode="&#x26;" horiz-adv-x="759" 
d="M514 427q34 -6 47.5 -19.5t13.5 -47.5q0 -15 -8 -40t-21 -55t-25 -55t-22 -42l-2 4q-35 73 -68.5 123t-82.5 79q31 9 57 20.5t46.5 29t32.5 42t12 55.5q0 56 -49.5 93.5t-129.5 37.5q-77 0 -131.5 -36.5t-54.5 -91.5q0 -51 28 -81t86 -66l6 -4q-42 -11 -78.5 -28
t-65 -41.5t-45.5 -59t-17 -78.5q0 -94 55 -140t145 -46q45 0 95 16.5t87 44.5l15 -45q55 4 123 4q79 0 143 -4v24q-64 2 -110 31.5t-80 85.5l92 178q18 36 30 55t25 30t31.5 17t50.5 10v20h-231v-20zM171 210q0 53 23.5 86t77.5 55q25 -16 48.5 -64t57.5 -131q24 -61 34 -83
q-35 -31 -91 -31q-68 0 -109 47t-41 121zM239 518q0 40 19 67t58 27q41 0 59.5 -27.5t18.5 -68.5q0 -43 -17.5 -71t-52.5 -50q-36 19 -60.5 52t-24.5 71z" />
    <glyph glyph-name="quotesingle" unicode="'" horiz-adv-x="222" 
d="M151 589v9q1 7 1 12q0 25 -9.5 42.5t-35.5 17.5t-35.5 -17.5t-9.5 -42.5q0 -5 1 -12v-9l18 -204q2 -12 7 -21.5t19 -9.5t19.5 9.5t6.5 21.5z" />
    <glyph glyph-name="parenleft" unicode="(" horiz-adv-x="389" 
d="M341 688l-1 -1q-73 -60 -117.5 -101.5t-83 -92.5t-60.5 -114.5t-22 -140.5q0 -73 22.5 -137.5t62 -118t91 -99t115.5 -89.5l17 17q-94 89 -138 194.5t-44 237.5q0 116 42 221.5t138 203.5z" />
    <glyph glyph-name="parenright" unicode=")" horiz-adv-x="389" 
d="M26 668q96 -98 138 -203.5t42 -221.5q0 -132 -44 -237.5t-138 -194.5l17 -17q65 45 116 90t90.5 99t62 118t22.5 137q0 77 -22 140.5t-60.5 114.5t-83.5 93t-117 101l-1 1z" />
    <glyph glyph-name="asterisk" unicode="*" horiz-adv-x="444" 
d="M237 431v-33v-17q0 -29 10 -45t37 -16q14 0 26.5 11t12.5 25q0 22 -15.5 38.5t-43.5 35.5q-7 5 -12 8zM269 518q4 1 15 3q40 7 59 16q15 7 23.5 16.5t8.5 23.5q0 16 -12 27.5t-27 11.5q-28 0 -45 -23t-33 -59v-1zM274 468q15 -15 40.5 -31.5t41.5 -16.5q17 0 29 10.5
t12 27.5t-11.5 30.5t-28.5 13.5q-32 0 -81 -19zM161 483q-47 19 -80 19q-17 0 -28.5 -13.5t-11.5 -30.5t12 -27.5t29 -10.5t42.5 16.5t38.5 31.5zM179 533q-14 36 -31.5 59.5t-45.5 23.5q-15 0 -27 -11.5t-12 -27.5q0 -14 8.5 -23.5t22.5 -16t28 -10t33 -6.5q10 -2 14 -3z
M185 438q-5 -4 -13 -9q-27 -19 -42 -35t-15 -38q0 -14 12.5 -25t26.5 -11q27 0 37 16t10 45v17v33zM230 548q4 4 9 14t10 23t8 23t3 13q0 24 -8.5 36.5t-32.5 12.5t-32.5 -12.5t-8.5 -36.5q0 -3 3 -13t8 -23t10 -23t9 -14h22z" />
    <glyph glyph-name="plus" unicode="+" horiz-adv-x="600" 
d="M247 225h-149v-76h149v-149h76v149h149v76h-149v149h-76v-149z" />
    <glyph glyph-name="comma" unicode="," horiz-adv-x="260" 
d="M12 -154h1q38 25 66 45.5t53 46t40.5 57t15.5 67.5q0 42 -18 67t-58 25q-27 0 -42.5 -19t-15.5 -46q0 -18 3 -30.5t9 -28.5t8.5 -26t2.5 -24q0 -35 -24.5 -66.5t-54.5 -47.5z" />
    <glyph glyph-name="hyphen" unicode="-" horiz-adv-x="333" 
d="M16 121q47 16 96 16q18 0 56 -4q27 -3 37 -3q31 0 65 8l16 121q-40 -22 -96 -22q-18 0 -66 4q-31 3 -40 3q-12 0 -38 -4q-11 -2 -15 -2z" />
    <glyph glyph-name="period" unicode="." horiz-adv-x="260" 
d="M121 154q-32 0 -54.5 -22t-22.5 -55t22.5 -55t54.5 -22t54.5 22t22.5 55t-22.5 55t-54.5 22z" />
    <glyph glyph-name="slash" unicode="/" horiz-adv-x="278" 
d="M-30 -20h77l254 690h-77z" />
    <glyph glyph-name="zero" unicode="0" 
d="M242 628q27 0 45.5 -22t29.5 -62.5t16 -95.5t5 -123t-5 -123t-16 -95.5t-29.5 -62.5t-45.5 -22t-45.5 22t-29.5 62.5t-16 95.5t-5 123t5 123t16 95.5t29.5 62.5t45.5 22zM242 668q-56 0 -98.5 -27.5t-70.5 -76t-41.5 -110t-13.5 -129.5t13.5 -129.5t41.5 -110t70.5 -76
t98.5 -27.5t98.5 27.5t70.5 76t41.5 110t13.5 129.5t-13.5 129.5t-41.5 110t-70.5 76t-98.5 27.5z" />
    <glyph glyph-name="one" unicode="1" 
d="M69 -4q114 4 171 4q56 0 170 -4v20q-37 0 -57 3.5t-31.5 16.5t-16.5 40.5t-5 77.5v522q-106 -42 -221 -54v-20q35 0 56 -5t32.5 -16t16 -31.5t4.5 -54.5v-341q0 -50 -5 -77.5t-17.5 -40.5t-34 -16.5t-62.5 -3.5v-20z" />
    <glyph glyph-name="two" unicode="2" 
d="M402 0q31 74 83 169l-14 14q-24 -26 -39.5 -39.5t-33.5 -22t-42 -12t-61 -3.5h-150q28 29 95 86q47 39 78 68t57.5 63.5t42.5 74t16 84.5q0 94 -59.5 140t-154.5 46q-86 0 -143 -46.5t-57 -129.5q0 -40 20 -61.5t51 -21.5q34 0 51.5 18t17.5 46q0 19 -12.5 43t-28.5 37
q3 31 24 56t60 25q45 0 74 -39.5t29 -108.5q0 -62 -23 -120t-60.5 -109.5t-78.5 -94t-104 -101.5l-40 -38l6 -23h396z" />
    <glyph glyph-name="three" unicode="3" 
d="M454 640l-4 20q-126 -4 -190 -4q-58 0 -172 4l-42 -197h21q15 32 24 48t20.5 25.5t27 13.5t42.5 4h138l-184 -233l28 -19q17 18 36.5 29t38.5 11q47 0 72.5 -43.5t25.5 -114.5q0 -77 -30 -122.5t-82 -45.5q-43 0 -63.5 21.5t-27.5 50.5q6 10 9.5 21t3.5 29q0 23 -19 38
t-48 15q-27 0 -47.5 -18.5t-20.5 -47.5q0 -65 54.5 -104t134.5 -39q52 0 98.5 13.5t82.5 41t56.5 69t20.5 95.5q0 89 -46 138t-140 49q-11 0 -35 -4l-2 2z" />
    <glyph glyph-name="four" unicode="4" 
d="M405 694q-19 -30 -60 -82t-98 -117.5l-124.5 -139l-136.5 -142.5l10 -31h330v-182h112v584l-112 -112v-192h-236l80.5 85l99.5 110l113 123l73 76v20h-51z" />
    <glyph glyph-name="five" unicode="5" 
d="M73 253q14 39 53 67t80 28q56 0 91 -42.5t35 -110.5q0 -92 -34 -132.5t-91 -40.5q-27 0 -47.5 13t-36.5 34q1 6 4 19q5 18 5 31q0 68 -65 68q-27 0 -45 -21t-18 -49q0 -62 50 -98.5t148 -36.5q121 0 189.5 55t68.5 157q0 90 -59 148t-154 58q-38 0 -69 -9.5t-65 -30.5
l59 196q36 -12 60 -12q70 0 131 26t117 77l-14 21q-28 -22 -70 -38t-76 -16q-30 0 -50 7.5t-36 28.5h-81l-107 -383z" />
    <glyph glyph-name="six" unicode="6" 
d="M274 382q-52 0 -112 -29q3 45 19.5 91t45 85t68.5 62.5t89 24.5q11 -7 25.5 -12.5t28.5 -5.5q29 0 41.5 8t12.5 24q0 17 -13.5 27.5t-34.5 10.5q-66 0 -141 -28.5t-140.5 -83.5t-106 -134.5t-40.5 -176.5q0 -123 64 -193t181 -70q45 0 84.5 15t69 42.5t46 65.5t16.5 84
q0 92 -55 142.5t-148 50.5zM150 190q0 74 23.5 110t79.5 36q49 0 75.5 -48.5t26.5 -123.5q0 -71 -23.5 -106.5t-78.5 -35.5q-49 0 -76 48t-27 120z" />
    <glyph glyph-name="seven" unicode="7" 
d="M177 0q51 173 138 337t202 300l-12 21l-12 -1q-52 -4 -84.5 -5.5t-68.5 -1.5h-254q-9 -42 -21.5 -92t-27.5 -102l24 -5q15 32 28 52t28 30.5t34 14.5t47 4h209q-130 -143 -221 -272.5t-151 -279.5h142z" />
    <glyph glyph-name="eight" unicode="8" 
d="M456 512q0 41 -18.5 71.5t-50 49t-69 27t-75.5 8.5q-39 0 -76 -10t-66.5 -30.5t-46.5 -52.5t-17 -74q0 -48 27 -81t79 -74l2 -2q-65 -27 -102 -70.5t-37 -108.5q0 -44 19.5 -79t52 -58t72.5 -34.5t81 -11.5q45 0 88.5 9.5t80.5 30.5t59 56t22 84q0 39 -10.5 68.5
t-29.5 52.5t-43.5 41.5t-63.5 42.5q53 16 87.5 54t34.5 91zM106 192q0 39 19.5 74.5t51.5 53.5q10 -8 43 -31q32 -22 53 -38t40 -34q46 -45 46 -84q0 -55 -30 -83t-85 -28q-65 0 -101.5 50.5t-36.5 119.5zM356 514q0 -42 -11.5 -71.5t-41.5 -54.5q-14 12 -43 31
q-50 34 -75.5 61t-25.5 63q0 44 24 67.5t63 23.5q51 0 80.5 -34.5t29.5 -85.5z" />
    <glyph glyph-name="nine" unicode="9" 
d="M337 448q0 -62 -24.5 -100.5t-74.5 -38.5q-45 0 -72.5 44.5t-27.5 123.5q0 72 19.5 114.5t65.5 42.5t80 -48t34 -138zM12 -18q110 0 193.5 23.5t141.5 73.5t88 129.5t30 191.5q0 55 -14 103t-43 85.5t-73 58.5t-102 21q-93 0 -155 -53.5t-62 -146.5q0 -42 13.5 -79.5
t38.5 -65.5t60.5 -44t78.5 -16q71 0 129 32q-22 -142 -98.5 -209.5t-225.5 -69.5v-34z" />
    <glyph glyph-name="colon" unicode=":" horiz-adv-x="260" 
d="M121 384q-32 0 -54.5 -22t-22.5 -55t22.5 -55t54.5 -22t54.5 22t22.5 55t-22.5 55t-54.5 22zM121 154q-32 0 -54.5 -22t-22.5 -55t22.5 -55t54.5 -22t54.5 22t22.5 55t-22.5 55t-54.5 22z" />
    <glyph glyph-name="semicolon" unicode=";" horiz-adv-x="260" 
d="M12 -154h1q38 25 66 45.5t53 46t40.5 57t15.5 67.5q0 42 -18 67t-58 25q-27 0 -42.5 -19t-15.5 -46q0 -18 3 -30.5t9 -28.5t8.5 -26t2.5 -24q0 -35 -24.5 -66.5t-54.5 -47.5zM121 384q-32 0 -54.5 -22t-22.5 -55t22.5 -55t54.5 -22t54.5 22t22.5 55t-22.5 55t-54.5 22z
" />
    <glyph glyph-name="less" unicode="&#x3c;" horiz-adv-x="600" 
d="M173 187l299 132v77l-374 -166v-86l374 -166v77z" />
    <glyph glyph-name="equal" unicode="=" horiz-adv-x="600" 
d="M472 299h-374v-76h374v76zM472 151h-374v-76h374v76z" />
    <glyph glyph-name="greater" unicode="&#x3e;" horiz-adv-x="600" 
d="M98 55v-77l374 166v86l-374 166v-77l299 -132z" />
    <glyph glyph-name="question" unicode="?" horiz-adv-x="444" 
d="M203 184q5 61 32 99t76 80q47 41 70 74.5t23 87.5q0 65 -52 105t-121 40q-86 0 -139 -40t-53 -123q0 -20 6 -38q64 24 109 31q-5 25 -5 65q0 28 15 49.5t45 21.5q34 0 50.5 -30t16.5 -67q0 -35 -13 -67t-39 -77q-26 -47 -39.5 -80.5t-13.5 -70.5q0 -31 6 -60h26zM194 154
q-32 0 -54.5 -22t-22.5 -55t22.5 -55t54.5 -22t54.5 22t22.5 55t-22.5 55t-54.5 22z" />
    <glyph glyph-name="at" unicode="@" horiz-adv-x="800" 
d="M508 408q0 -38 -9 -77t-24.5 -71.5t-36.5 -52t-44 -19.5q-25 0 -40.5 20.5t-15.5 61.5q0 40 13 74t33 59t42 38t40 13q21 0 31.5 -13t10.5 -33zM526 454q-1 2 -4 7q-11 21 -24 32t-41 11q-41 0 -77.5 -21.5t-64 -58t-42.5 -83t-15 -95.5q0 -43 26 -75.5t69 -32.5
q30 0 64.5 21t53.5 50h2q1 -26 27.5 -48.5t61.5 -22.5q43 0 77.5 21.5t58.5 57.5t36.5 78t12.5 81q0 62 -25 116t-69.5 94t-104.5 62t-128 22q-74 0 -140.5 -26t-117 -74t-79 -114.5t-28.5 -145.5q0 -53 23 -111t69.5 -107.5t118 -80.5t164.5 -31q53 0 103 15.5t106 43.5
l-12 38q-52 -24 -95 -35.5t-103 -11.5q-59 0 -110.5 21.5t-89.5 60.5t-59 90t-21 108q0 77 22 136.5t60.5 99.5t87 60t101.5 20q63 0 115 -22.5t88 -59.5t55 -81.5t19 -87.5q0 -32 -9 -67t-25 -65t-38 -48.5t-47 -18.5q-35 0 -35 42q0 11 6 37l2 9l56 226h-70z" />
    <glyph glyph-name="A" unicode="A" horiz-adv-x="704" 
d="M218 318l87 234h2l82 -234h-171zM-24 -4q53 4 120 4q72 0 129 -4v24q-33 6 -60.5 21.5t-27.5 37.5q0 19 11 46q4 9 5 14l51 141h199l34 -99l8 -22q13 -32 19 -51t6 -32q0 -49 -102 -56v-24q73 4 167 4q42 0 93.5 -1t87.5 -3v24q-34 0 -63 15.5t-40 45.5l-217 589
q-49 -22 -123 -36l18 -48l-196 -457q-24 -56 -46 -79.5t-73 -29.5v-24z" />
    <glyph glyph-name="B" unicode="B" horiz-adv-x="704" 
d="M19 -4h7q44 2 71.5 3t82.5 1q78 0 182 -7q44 -3 60 -3q54 0 98 9.5t77 30t51 54.5t18 83q0 32 -12.5 60.5t-35 51.5t-50.5 38.5t-59 21.5v2q45 16 75 51.5t30 81.5q0 43 -19 77.5t-51.5 57.5t-72 35t-80.5 12q-63 0 -188 -3q-124 -3 -184 -3v-22q60 -1 82.5 -31t22.5 -87
v-372q0 -37 -3 -57.5t-13 -32.5t-31 -18.5t-58 -9.5v-24zM258 319q36 -15 104 -15q41 0 85 11q31 -25 50 -62t19 -76q0 -70 -43 -108.5t-115 -38.5q-55 0 -100 21v268zM258 613q14 1 23 1q25 2 40 2q70 0 109.5 -35t39.5 -105q0 -59 -36 -97.5t-96 -38.5q-41 0 -80 14v259z
" />
    <glyph glyph-name="C" unicode="C" horiz-adv-x="722" 
d="M657 391q-11 86 -11 167q0 13 1 39q1 25 1 38q-3 -1 -11 -1q-4 0 -42 8q-44 8 -53 10q-41 8 -77 13t-62 5q-79 0 -146 -24.5t-116 -70.5t-75.5 -109.5t-26.5 -140.5t25.5 -141t72 -109.5t110 -70t137.5 -24.5q111 0 195.5 51.5t142.5 149.5l-24 25q-20 -30 -43.5 -56.5
t-54.5 -49t-69 -35.5t-83 -13q-127 0 -196 79.5t-69 207.5q0 52 11.5 102t36.5 92t66.5 67.5t98.5 25.5q44 0 84 -19t71.5 -52t52 -75.5t28.5 -88.5h25z" />
    <glyph glyph-name="D" unicode="D" horiz-adv-x="852" 
d="M21 -4q84 4 163 4q44 0 78 -1t68 -3l69 -3t58 -1q72 0 135.5 19t112.5 57.5t76.5 98t27.5 137.5q0 84 -31.5 151.5t-85.5 113t-121 68.5t-137 23q-67 0 -172 -6q-80 -4 -116 -4q-35 0 -107 7l-20 2v-24q38 -3 59 -9.5t31.5 -18.5t13.5 -32.5t3 -57.5v-375q0 -37 -3 -57.5
t-13 -32.5t-31 -18.5t-58 -9.5v-28zM260 608q61 16 117 16q67 0 120.5 -23t91 -64.5t57 -98t19.5 -123.5q0 -142 -68.5 -214.5t-190.5 -72.5q-65 0 -105.5 12t-40.5 38v530z" />
    <glyph glyph-name="E" unicode="E" horiz-adv-x="704" 
d="M17 -4q37 2 114 3t176 1q173 0 310 -4q28 89 87 215l-19 14q-54 -96 -133 -143.5t-178 -47.5q-69 0 -119 14v297h52q63 0 103 -30t56 -100h20q0 19 -2 58q-2 56 -2 85q0 28 2 86q2 37 2 56h-20q-15 -65 -58 -95t-101 -30h-52v243h112q97 0 150.5 -37.5t78.5 -115.5l22 4
q-5 22 -6.5 48.5t-1.5 67.5q0 47 1 71h-9q-258 -6 -380 -6q-46 0 -137 4l-68 2v-28q64 -3 84 -28t20 -86v-380q0 -63 -19.5 -87t-84.5 -27v-24z" />
    <glyph glyph-name="F" unicode="F" horiz-adv-x="648" 
d="M266 618h112q98 0 150.5 -36.5t74.5 -120.5h20q-6 41 -6 124q0 47 1 71q-256 -6 -385 -6q-46 0 -137 4l-68 2v-28q64 -3 84 -28t20 -86v-400q0 -51 -20 -70t-84 -20v-28q110 4 166 4q64 0 190 -4v28q-73 1 -95.5 20t-22.5 70v231h52q73 0 107.5 -28t51.5 -102h20
q0 19 -2 58q-2 56 -2 85q0 28 2 86q2 37 2 56h-20q-15 -65 -58 -95t-101 -30h-52v243z" />
    <glyph glyph-name="G" unicode="G" horiz-adv-x="796" 
d="M684 438q-13 52 -19 97t-6 98q-22 4 -69 14q-57 12 -92 17.5t-73 5.5q-85 0 -155.5 -23.5t-121.5 -68t-79 -109t-28 -144.5t27.5 -144.5t79 -109t122 -68t155.5 -23.5q54 0 102.5 11.5t119.5 36.5l59 19v152q0 29 21.5 47t64.5 20v24q-73 -5 -163 -5q-89 0 -164 5v-24
q64 -9 85.5 -25t21.5 -57v-100q-25 -27 -66 -43.5t-80 -16.5q-60 0 -106 24.5t-76 67t-44.5 96t-14.5 113.5t14.5 114t44.5 96t76 66.5t106 24.5q48 0 86 -14.5t65.5 -40t47 -59t32.5 -74.5h27z" />
    <glyph glyph-name="H" unicode="H" horiz-adv-x="852" 
d="M19 -4q112 4 169 4q59 0 175 -4v24q-64 3 -85 21t-21 77v216h332v-216q0 -59 -21 -77t-84 -21v-24q76 4 172 4q97 0 173 -4v24q-64 3 -85 21t-21 77v390q0 39 3 60t13.5 33.5t30.5 19t59 11.5v24q-85 -6 -172 -6t-176 6v-24q40 -5 60.5 -11.5t31 -19t13.5 -33.5t3 -60
v-132h-332v132q0 39 3.5 60t14 33.5t31.5 19t60 11.5v24q-85 -6 -172 -6t-173 6v-24q37 -5 56.5 -11.5t29.5 -19t13 -33.5t3 -60v-390q0 -59 -20.5 -77t-83.5 -21v-24z" />
    <glyph glyph-name="I" unicode="I" horiz-adv-x="407" 
d="M25 632q62 -2 84.5 -26t22.5 -84v-424q0 -39 -25 -57t-86 -21v-24q80 4 180 4q97 0 174 -4l2 24q-60 3 -85.5 21t-25.5 57v424q0 61 23 84.5t91 25.5v24h-3q-114 -6 -170 -6q-61 0 -179 6h-3v-24z" />
    <glyph glyph-name="J" unicode="J" horiz-adv-x="630" 
d="M375 179q0 -27 -6 -54t-18.5 -50t-33.5 -37t-50 -14q-38 0 -66 21.5t-44 57.5q15 18 15 44q0 34 -21 53.5t-56 19.5q-33 0 -52 -23.5t-19 -54.5q0 -39 21.5 -68t55.5 -47t73.5 -26.5t75.5 -8.5q66 0 115.5 15t81.5 39.5t47 54t15 57.5v401q0 40 20 55.5t68 17.5v24h-3
q-102 -6 -152 -6q-67 0 -201 6v-24q67 0 100.5 -19.5t33.5 -63.5v-370z" />
    <glyph glyph-name="K" unicode="K" horiz-adv-x="759" 
d="M125 122q0 -54 -19 -76.5t-85 -25.5v-24q72 4 162 4q100 0 181 -4v24q-67 3 -86 25.5t-19 76.5v171l63 50l11 -15l53 -74l53.5 -77t45.5 -70.5t19 -40.5q0 -20 -22.5 -30.5t-54.5 -18.5l-6 -1v-20q79 4 178 4q101 0 181 -4v24q-56 6 -88.5 30.5t-68.5 76.5l-205 294
q24 19 70 60q76 69 132 105.5t125 45.5v24q-66 -6 -162 -6q-105 0 -157 6v-24q24 -3 46.5 -17.5t22.5 -36.5q0 -17 -29 -52t-69.5 -73.5l-71.5 -65.5l-64 -56l-2 -1v202q0 45 24 72.5t83 27.5v24q-120 -6 -181 -6q-81 0 -164 6v-24q56 0 80 -28t24 -72v-410z" />
    <glyph glyph-name="L" unicode="L" horiz-adv-x="667" 
d="M127 91q0 -43 -28 -57t-78 -14v-24q192 4 289 4q93 0 277 -4q26 108 79 215l-25 11q-52 -100 -115.5 -144t-171.5 -44q-30 0 -54.5 1.5t-38.5 5.5v494q0 26 10.5 44t29 28.5t39 15.5t49.5 9v24q-93 -6 -185 -6q-91 0 -181 6v-24q54 -8 79 -27t25 -70v-444z" />
    <glyph glyph-name="M" unicode="M" horiz-adv-x="944" 
d="M440 2q14 72 39.5 142.5t69.5 172.5q66 153 89 231h2q5 -22 16.5 -86.5t24.5 -145.5l22 -139.5t9 -66.5q0 -26 -8 -42.5t-22.5 -26t-30.5 -14t-45 -9.5q-14 -3 -20 -4v-18q91 4 203 4q85 0 153 -4v20q-43 7 -62 19.5t-32 49.5q-2 8 -14 71.5t-26 148.5l-24 151t-10 81
q0 48 25.5 69.5t75.5 25.5v24q-88 -6 -177 -6q-52 0 -156 6v-24h3q28 -6 50.5 -14.5t22.5 -24.5q0 -10 -19 -61.5t-47 -119.5l-52.5 -123t-34.5 -71q-20 53 -42.5 106.5l-52.5 121.5l-41.5 96.5t-12.5 40.5q0 25 15.5 35t43.5 14v24q-58 -6 -146 -6q-57 0 -169 6v-24
q32 -6 59 -20.5t43 -39.5q-16 -84 -39 -258q-14 -110 -23 -165q-10 -64 -31 -96t-77 -37v-20q61 4 139 4q72 0 131 -4v20q-38 6 -60.5 17.5t-33 29.5t-13.5 42t-3 64q0 81 6.5 138.5t19.5 132.5q11 65 15 102h2l65 -137.5t62.5 -144t53 -138.5t37.5 -120h27z" />
    <glyph glyph-name="N" unicode="N" horiz-adv-x="796" 
d="M0 -4q73 4 164 4q81 0 146 -4v24q-48 7 -72.5 16t-37.5 26t-17 46t-4 84v339l96 -106.5l119.5 -140.5l123 -155t102.5 -144h59v459q0 60 4 93.5t15 53.5t33.5 29.5t62.5 11.5v24q-69 -6 -139 -6q-47 0 -141 6v-24q54 -8 81 -27.5t35 -67.5q5 -32 8 -79t5 -106
q2 -70 2 -183h-2q-78 104 -248 305l-152 182q-67 -6 -136 -6q-35 0 -105 6v-24l9 -2q47 -13 77.5 -26.5t52.5 -39.5l-4 -389q0 -48 -4.5 -74t-17.5 -41.5t-39 -24t-76 -15.5v-24z" />
    <glyph glyph-name="O" unicode="O" horiz-adv-x="852" 
d="M422 670q-85 0 -155.5 -23.5t-121.5 -68t-79 -109t-28 -144.5t27.5 -144.5t79 -109t122 -68t155.5 -23.5t155.5 23.5t122 68t79 109t27.5 144.5t-27.5 144.5t-79 109t-122 68t-155.5 23.5zM422 634q60 0 106 -24.5t75.5 -67t44 -98.5t14.5 -119t-14.5 -118.5t-44 -98.5
t-75.5 -67.5t-106 -24.5t-106 24.5t-75.5 67.5t-44 98.5t-14.5 118.5t14.5 119t44 98.5t75.5 67t106 24.5z" />
    <glyph glyph-name="P" unicode="P" horiz-adv-x="648" 
d="M269 608q43 16 85 16q66 0 97 -41t31 -110q0 -68 -35.5 -109t-101.5 -41q-18 0 -38.5 5t-37.5 12v268zM135 134q0 -37 -3 -57.5t-13.5 -32.5t-31.5 -18.5t-59 -9.5v-20q120 4 181 4q57 0 171 -4v20q-40 3 -61.5 9.5t-32 18.5t-14 32.5t-3.5 57.5v175q56 -22 131 -22
q42 0 80.5 11t69 33t48.5 55t18 76q0 49 -19.5 86.5t-54 62.5t-78.5 37t-92 12q-33 0 -99 -5q-62 -5 -93 -5q-76 0 -152 6v-24q36 -3 56 -9t31 -18t15.5 -33t4.5 -56v-382z" />
    <glyph glyph-name="Q" unicode="Q" horiz-adv-x="852" 
d="M95 -93q18 11 46 18t53 7q44 0 86.5 -19t105.5 -58q70 -43 120 -65t106 -22q80 0 140.5 47.5t101.5 121.5l-20 16q-39 -47 -81 -67t-102 -20q-39 0 -84.5 13t-115.5 39q-71 26 -116 39t-85 13q-48 0 -89 -9.5t-75 -32.5zM422 670q-85 0 -155.5 -23.5t-121.5 -68t-79 -109
t-28 -144.5t27.5 -144.5t79 -109t122 -68t155.5 -23.5t155.5 23.5t122 68t79 109t27.5 144.5t-27.5 144.5t-79 109t-122 68t-155.5 23.5zM422 634q60 0 106 -24.5t75.5 -67t44 -98.5t14.5 -119t-14.5 -118.5t-44 -98.5t-75.5 -67.5t-106 -24.5t-106 24.5t-75.5 67.5
t-44 98.5t-14.5 118.5t14.5 119t44 98.5t75.5 67t106 24.5z" />
    <glyph glyph-name="R" unicode="R" horiz-adv-x="722" 
d="M20 632q37 -3 58.5 -10.5t32 -21t13.5 -33t3 -53.5v-380q0 -37 -3 -56.5t-13.5 -31.5t-31 -17.5t-59.5 -8.5v-24q120 4 181 4q67 0 161 -4v24q-36 3 -55.5 9t-29.5 17.5t-13 31t-3 56.5v173q9 -7 26 -10.5t42 -7.5h3q84 -154 214 -293q66 4 100 4q36 0 110 -4h3v18
q-42 7 -84 38.5t-79.5 74.5t-66 84.5l-59.5 90.5q69 15 109 54.5t40 105.5q0 40 -15.5 75.5t-45.5 62.5q-63 56 -164 56q-38 0 -116 -3q-69 -3 -105 -3q-39 0 -75 1t-69 3h-9v-22zM261 609q32 11 78 11q61 0 98.5 -41.5t37.5 -102.5q0 -69 -39.5 -107t-107.5 -38
q-35 0 -67 15v263z" />
    <glyph glyph-name="S" unicode="S" horiz-adv-x="611" 
d="M525 457l-2 20q-5 66 -5 100q0 15 2 40q0 9 1 23h-36q-22 0 -77 12q-77 18 -122 18q-116 0 -173 -43.5t-57 -135.5q0 -42 18 -74.5t48.5 -56.5t64.5 -41.5t86 -39.5q44 -20 72 -34t51 -31t37 -39t14 -49q0 -56 -38 -79t-109 -23q-37 0 -76 16.5t-73 45.5t-59.5 65
t-35.5 73h-22q20 -82 40 -228q9 4 26 8.5t24 4.5q33 0 100 -15q66 -14 99 -14q109 0 173.5 51.5t64.5 137.5q0 49 -19.5 86.5t-52 64.5t-68 45.5t-90.5 42.5q-79 35 -117 62.5t-38 69.5q0 45 30.5 69.5t77.5 24.5q35 0 70 -13.5t65.5 -38t52.5 -57t32 -68.5h21z" />
    <glyph glyph-name="T" unicode="T" horiz-adv-x="648" 
d="M628 447v1q-5 47 -7.5 90.5t-2.5 117.5h-3q-197 -6 -298 -6q-96 0 -286 6h-9q0 -74 -2.5 -117t-7.5 -91v-1h26q11 54 29.5 87t44.5 50t59.5 22.5t83.5 5.5v-478q0 -38 -3 -58t-14 -32t-32.5 -18.5t-60.5 -9.5v-20h9q116 4 175 4q58 0 170 -4v20q-39 3 -60.5 9.5t-32 18.5
t-14 32t-3.5 58v478q50 0 83.5 -5.5t59.5 -22.5t44.5 -50t29.5 -87h22z" />
    <glyph glyph-name="U" unicode="U" horiz-adv-x="796" 
d="M7 632q72 -4 92 -29.5t20 -86.5v-328q0 -38 18 -75t54.5 -67t92.5 -48t128 -18q126 0 197 69t71 193v274q0 37 3 57.5t12 32.5t28 18t52 8v24q-80 -6 -122 -6q-34 0 -68.5 1.5t-61.5 4.5v-24q35 0 57 -8t35 -26.5t18 -50t5 -83.5v-246q0 -30 -9.5 -61t-32.5 -59t-63 -45
t-97 -17q-48 0 -84 12.5t-59 33.5t-33.5 47.5t-10.5 54.5v332q0 37 3 57.5t13.5 32.5t31.5 18t59 8l3 24q-88 -6 -177 -6q-88 0 -175 6v-24z" />
    <glyph glyph-name="V" unicode="V" horiz-adv-x="704" 
d="M-20 632q39 -6 62 -21.5t37 -46.5q48 -104 140 -323l107 -249h55q49 134 109.5 273.5t140.5 299.5q16 32 34.5 46t56.5 21v24q-78 -6 -117 -6q-29 0 -87 4l-43 2v-24q14 0 29.5 -3t29.5 -10t23 -19t9 -29q0 -22 -20 -77t-68 -172l-75 -185l-41.5 102l-51.5 121
q-43 100 -61 146.5t-18 62.5q0 34 21 45.5t65 17.5h2v24q-114 -6 -173 -6q-83 0 -166 6v-24z" />
    <glyph glyph-name="W" unicode="W" horiz-adv-x="1000" 
d="M-4 632q45 -1 65 -25.5t39 -75.5l195 -544h30l51 121q81 189 118 286l148 -407h35q16 44 49 126l70 170.5l69 161.5t46 100q22 43 43.5 62t65.5 25v24h-3q-76 -6 -112 -6q-40 0 -122 6h-3v-24q17 -2 29.5 -5t25 -9t20.5 -17.5t8 -28.5t-15.5 -66t-38 -107.5l-47 -118.5
l-42.5 -103q-9 -21 -9 -22l-40 105l-51 137t-41.5 119.5t-17.5 65.5q0 15 8 24.5t20.5 14.5t25.5 7t30 3l8 1v24q-112 -6 -169 -6q-72 0 -146 6v-24q26 -5 41.5 -12.5t29 -26t29 -53.5t38.5 -100l-108 -279h-2l-36 103l-47 131l-50 140t-16 50q0 30 19.5 38.5t52.5 8.5v24
q-81 -6 -162 -6q-42 0 -128 6h-3v-24z" />
    <glyph glyph-name="X" unicode="X" horiz-adv-x="741" 
d="M12 632q39 -1 66 -21t64 -69l174 -229l-100 -127l-3 -4l-48.5 -59t-46.5 -46t-57 -36.5t-65 -16.5v-28q31 4 142 4q52 0 156 -4v24q-49 4 -73.5 14.5t-24.5 37.5q0 9 9 27t22 37l29.5 42l38.5 52q32 43 41 57q23 -35 76 -106q35 -47 50.5 -70t15.5 -34q0 -33 -24.5 -45
t-62.5 -12v-24q84 4 188 4t185 -4v24q-46 0 -83 28t-70 74l-186 255q17 21 52 68q32 44 57 74.5t52 56.5t56.5 41t61.5 15v24q-67 -6 -135 -6q-43 0 -127 6v-24q27 0 50.5 -10t23.5 -34q0 -19 -18.5 -49t-54.5 -78q-32 -44 -39 -57q-6 9 -35 48l-34.5 48l-24 35t-20.5 34
t-8 23q0 23 17.5 31.5t45.5 8.5v24h-3q-108 -6 -161 -6q-83 0 -169 6v-24z" />
    <glyph glyph-name="Y" unicode="Y" horiz-adv-x="722" 
d="M-27 632q43 0 71.5 -18t56.5 -56l208 -274v-173q0 -55 -19.5 -72t-85.5 -19v-24q77 4 176 4q93 0 169 -4l-1 24q-66 2 -85.5 19t-19.5 72v181l127 190q6 8 11 16q49 74 80.5 103.5t81.5 30.5v24q-84 -6 -127 -6q-47 0 -139 6v-24q34 -1 54.5 -15t20.5 -46
q0 -14 -13.5 -45t-32 -65.5l-37.5 -67l-38 -64.5q-2 -4 -6 -10q-21 32 -46 66.5l-55 73.5l-61.5 85t-19.5 38q0 25 24.5 37.5t61.5 12.5v24q-90 -6 -181 -6q-59 0 -175 6v-24z" />
    <glyph glyph-name="Z" unicode="Z" horiz-adv-x="704" 
d="M116 442q5 62 30 98t69.5 53t107.5 22t169 5l-471 -603l17 -21q119 4 268 4q151 0 272 -4q56 105 86 231h-25q-21 -56 -56 -93.5t-81 -58.5t-100.5 -30t-119.5 -9q-36 0 -81 5l146 192l174 227t149 172l-11 24q-114 -6 -285 -6q-47 0 -149 3q-85 3 -120 3
q-10 -41 -13.5 -74.5t-3.5 -75.5q0 -48 1 -64h27z" />
    <glyph glyph-name="bracketleft" unicode="[" horiz-adv-x="389" 
d="M82 -190h280v42h-162v776h162v42h-280v-860z" />
    <glyph glyph-name="backslash" unicode="\" horiz-adv-x="278" 
d="M-73 670l342 -690h76l-342 690h-76z" />
    <glyph glyph-name="bracketright" unicode="]" horiz-adv-x="389" 
d="M307 670h-280v-42h162v-776h-162v-42h280v860z" />
    <glyph glyph-name="asciicircum" unicode="^" horiz-adv-x="600" 
d="M151 285l134 277l133 -277h91l-180 365h-88l-180 -365h90z" />
    <glyph glyph-name="underscore" unicode="_" horiz-adv-x="500" 
d="M500 -125v50h-500v-50h500z" />
    <glyph glyph-name="grave" unicode="`" horiz-adv-x="296" 
d="M234 444l-115 139q-39 47 -70 47q-19 0 -33 -13t-14 -28q0 -29 24 -45l150 -100h58z" />
    <glyph glyph-name="a" unicode="a" horiz-adv-x="481" 
d="M130 110q0 32 24.5 50t57.5 18q29 0 53 -4q-2 -36 -2 -54q0 -16 2 -46v-5q-26 -25 -67 -25q-32 0 -50 17.5t-18 48.5zM265 210q-52 0 -94 -4t-81 -17t-63.5 -40.5t-24.5 -72.5q0 -38 34.5 -65t78.5 -27q41 0 82 14t81 39q23 -23 45 -38t45 -15q24 0 46.5 16t52.5 46
q18 17 25 23l-16 18q-16 -14 -28.5 -21.5t-27.5 -7.5q-24 0 -33 16t-9 42q0 14 2 67q3 66 3 90q0 33 -16 55.5t-42.5 36t-59 19.5t-67.5 6q-30 0 -57.5 -4.5t-50.5 -16t-38.5 -32.5t-19.5 -52q38 -5 113 -22q14 -3 21 -5q-2 12 -2 28q0 28 11.5 47t41.5 19q48 0 48 -68v-74z
" />
    <glyph glyph-name="b" unicode="b" horiz-adv-x="537" 
d="M360 180q0 -85 -23.5 -124.5t-77.5 -39.5t-77.5 39.5t-23.5 124.5t23.5 124.5t77.5 39.5t77.5 -39.5t23.5 -124.5zM164 712q-71 -19 -200 -22v-20q45 0 63.5 -12t18.5 -38v-349q0 -80 -1.5 -134.5t-7.5 -85.5q50 -30 111.5 -48.5t113.5 -18.5q45 0 87 14t75.5 40t52.5 64
t19 85q0 43 -15 80.5t-42 65t-64.5 42.5t-80.5 15q-32 0 -66.5 -11t-63.5 -29v362z" />
    <glyph glyph-name="c" unicode="c" horiz-adv-x="444" 
d="M402 87q-32 -23 -58.5 -33t-57.5 -10q-70 0 -113 52t-43 134q0 53 27.5 87.5t74.5 34.5q29 0 52 -14.5t40 -37t28.5 -46.5t22.5 -52h19q-5 36 -8 89t-3 87h-25q-18 0 -58 6t-64 6q-45 0 -87 -13.5t-75.5 -40t-52.5 -64.5t-19 -85t19 -85t52.5 -64t75.5 -40t87 -14
q49 0 95.5 20t93.5 60z" />
    <glyph glyph-name="d" unicode="d" horiz-adv-x="556" 
d="M458 712q-36 -9 -86 -14.5t-108 -7.5v-20q41 0 58.5 -12t17.5 -38v-262q-23 14 -53.5 23t-45.5 9q-45 0 -87 -13.5t-75.5 -40t-52.5 -64.5t-19 -85q0 -89 53 -146t140 -57q39 0 72 11.5t73 35.5v-39q28 4 82.5 7t114.5 4v21q-56 0 -70 17.5t-14 64.5v606zM345 107
q-10 -30 -36 -48.5t-65 -18.5q-28 0 -48 14t-31.5 37t-16.5 49.5t-5 53.5q0 30 5 56.5t17.5 49t34.5 35.5t54 13q35 0 54 -17t37 -54v-170z" />
    <glyph glyph-name="e" unicode="e" horiz-adv-x="463" 
d="M137 226q0 20 4.5 42t14 41.5t25 31t37.5 11.5q42 0 61 -26t19 -72q0 -17 -7 -22.5t-27 -5.5h-127zM426 188q-8 90 -59.5 146t-144.5 56q-97 0 -155 -55.5t-58 -147.5t58 -147.5t155 -55.5q56 0 108.5 24.5t91.5 67.5l-24 26q-22 -27 -55.5 -42.5t-69.5 -15.5
q-63 0 -99.5 40t-36.5 104h289z" />
    <glyph glyph-name="f" unicode="f" horiz-adv-x="352" 
d="M329 344v30h-128v203q0 42 17 73.5t50 31.5q30 0 40 -24t11 -85q23 -9 43 -9q53 0 53 50q0 47 -37.5 72.5t-99.5 25.5q-44 0 -79.5 -19t-60 -51.5t-37 -73t-12.5 -84.5v-110h-52l-8 -30h60v-247q0 -43 -17 -62t-73 -19v-20h3q101 4 155 4t155 -4h3v20q-68 7 -91 24.5
t-23 55.5v248h128z" />
    <glyph glyph-name="g" unicode="g" horiz-adv-x="500" 
d="M414 294q50 20 77 25q0 6 1 13v12q0 24 -15 41.5t-37 17.5q-19 0 -40 -13.5t-47 -34.5q-10 -9 -13 -11q-27 22 -61 34t-74 12q-82 0 -129.5 -40.5t-47.5 -101.5q0 -35 14 -61t44 -47q-38 -18 -58 -44.5t-20 -65.5q0 -48 36 -68q-23 -24 -35.5 -47t-12.5 -50
q0 -53 49.5 -84t138.5 -31q55 0 103 11t85 33.5t58 57t21 78.5q0 63 -29 97t-95 34q-50 0 -84 -2.5t-67 -7.5q-27 -3 -36 -3q-35 0 -50.5 7.5t-15.5 27.5q0 14 10 23.5t26 17.5q46 -18 95 -18q82 0 129.5 40.5t47.5 101.5q0 41 -25 77q11 10 24 16.5t27 6.5q10 0 15.5 -6.5
t5.5 -15.5q0 -7 -5.5 -12.5t-11.5 -7.5zM72 -90q0 6 1 15q1 12 1 18q63 10 119.5 15t117.5 5q53 0 77.5 -12t24.5 -38q0 -34 -43.5 -53.5t-148.5 -19.5q-82 0 -115.5 17.5t-33.5 52.5zM203 358q67 0 67 -110t-67 -110t-67 110t67 110z" />
    <glyph glyph-name="h" unicode="h" horiz-adv-x="556" 
d="M182 712q-35 -9 -84 -14.5t-100 -7.5v-20q66 0 66 -50v-545q0 -33 -20 -46t-52 -13v-20q30 2 56.5 3t73.5 1q49 0 74 -1t51 -3v20q-27 0 -46 13t-19 46v212q19 18 40 28.5t44 10.5q34 0 56.5 -16.5t22.5 -48.5v-186q0 -33 -18.5 -46t-45.5 -13v-20q21 2 47.5 3t74.5 1
q49 0 74 -1t51 -3v20q-27 0 -46 13t-19 46v188q0 58 -35.5 92.5t-96.5 34.5q-41 0 -76 -16t-73 -48v386z" />
    <glyph glyph-name="i" unicode="i" horiz-adv-x="296" 
d="M195 300q0 22 2 62q1 22 1 34q-38 -9 -88 -14.5t-105 -7.5v-20q72 0 72 -50v-229q0 -33 -20 -46t-52 -13v-20q30 2 56.5 3t73.5 1q44 0 68 -1t57 -3h8v20q-33 0 -53 13t-20 46v225zM130 670q-32 0 -54.5 -22t-22.5 -55t22.5 -55t54.5 -22t54.5 22t22.5 55t-22.5 55
t-54.5 22z" />
    <glyph glyph-name="j" unicode="j" horiz-adv-x="278" 
d="M1 354q35 0 50.5 -15.5t15.5 -54.5v-238q0 -76 -28.5 -143.5t-102.5 -127.5l7 -25q131 82 186.5 142t55.5 140v364q-35 -9 -84 -14.5t-100 -7.5v-20zM120 670q-32 0 -54.5 -22t-22.5 -55t22.5 -55t54.5 -22t54.5 22t22.5 55t-22.5 55t-54.5 22z" />
    <glyph glyph-name="k" unicode="k" horiz-adv-x="556" 
d="M175 712q-35 -9 -84.5 -14.5t-103.5 -7.5v-20q70 0 70 -50v-545q0 -33 -20 -46t-52 -13v-20q30 2 56.5 3t73.5 1q44 0 68 -1t57 -3h8v20q-33 0 -53 13t-20 46v72l48 32l52 -66q3 -3 6 -8q16 -18 25 -33t9 -26q0 -13 -11 -19t-38 -11v-20q94 4 142 4q47 0 141 -4v20
q-28 3 -56 21t-55 45.5t-48.5 55l-52.5 70.5l-30 40q61 51 107.5 79t94.5 31v20h-3q-76 -4 -116 -4t-116 4h-3v-20q18 -4 29 -11.5t11 -24.5q0 -25 -24.5 -49t-69.5 -57q-31 -23 -42 -33v529z" />
    <glyph glyph-name="l" unicode="l" horiz-adv-x="296" 
d="M196 712q-35 -9 -84.5 -14.5t-103.5 -7.5v-20q37 0 53.5 -14t16.5 -48v-533q0 -33 -20 -46t-52 -13v-20q30 2 56.5 3t73.5 1q44 0 68 -1t57 -3h8v20q-33 0 -53 13t-20 46v637z" />
    <glyph glyph-name="m" unicode="m" horiz-adv-x="815" 
d="M181 390q-32 -8 -74.5 -11t-106.5 -5h-3v-20q66 0 66 -50v-229q0 -33 -19 -46t-48 -13v-20q24 2 51 3t74 1q50 0 75 -1t42 -3v20q-22 0 -39.5 13.5t-17.5 45.5v211q17 16 39 27t43 11q32 0 51 -21.5t19 -49.5v-178q0 -32 -18.5 -45.5t-42.5 -13.5v-20q18 2 44.5 3t74.5 1
q50 0 75 -1t43 -3v20q-22 0 -40 13.5t-18 45.5v220q38 29 75 29t57 -19.5t20 -60.5v-169q0 -32 -18 -45.5t-41 -13.5v-20q16 2 42.5 3t74.5 1q49 0 74 -1t51 -3v20q-27 0 -46 13t-19 46v180q0 25 -6.5 49t-21.5 43.5t-39.5 31t-58.5 11.5q-46 0 -78 -15.5t-75 -50.5
q-17 38 -45.5 52t-74.5 14q-36 0 -72.5 -17.5t-68.5 -45.5v63z" />
    <glyph glyph-name="n" unicode="n" horiz-adv-x="556" 
d="M183 390q-32 -8 -74.5 -11t-106.5 -5h-3v-20q66 0 66 -50v-229q0 -33 -19.5 -46t-49.5 -13v-20q26 2 53 3t74 1q49 0 74 -1t51 -3v20q-27 0 -46 13t-19 46v212q19 18 40 28.5t44 10.5q35 0 57 -18t22 -47v-186q0 -33 -18.5 -46t-45.5 -13v-20q21 2 47.5 3t74.5 1
q49 0 73.5 -1t52.5 -3v20q-28 0 -47 13t-19 46v188q0 58 -35.5 92.5t-96.5 34.5q-41 0 -76 -16t-73 -48v64z" />
    <glyph glyph-name="o" unicode="o" 
d="M143 206q0 71 24 108.5t66 37.5q46 0 78 -47t32 -137q0 -71 -24 -108.5t-66 -37.5q-46 0 -78 47.5t-32 136.5zM243 390q-45 0 -87 -13.5t-75.5 -40t-52.5 -64.5t-19 -85t19 -85t52.5 -64t75.5 -40t87 -14t87 14t75.5 40t52.5 64t19 85t-19 85t-52.5 64.5t-75.5 40
t-87 13.5z" />
    <glyph glyph-name="p" unicode="p" horiz-adv-x="556" 
d="M292 -216q-40 3 -62.5 8t-35 16.5t-18 33.5t-5.5 61v114q26 -13 58 -18t77 -5q89 0 147.5 51t58.5 142q0 43 -15 80.5t-42 65t-64.5 42.5t-80.5 15q-35 0 -68 -11.5t-71 -39.5v57q-35 -9 -84 -14.5t-100 -7.5v-20q66 0 66 -50v-445q0 -33 -12 -53.5t-52 -21.5v-20
q86 4 129 4q58 0 174 -4v20zM171 276q11 23 42.5 43.5t61.5 20.5q54 0 77.5 -38t23.5 -117q0 -78 -23.5 -115.5t-77.5 -37.5q-55 0 -79.5 26t-24.5 74v144z" />
    <glyph glyph-name="q" unicode="q" horiz-adv-x="556" 
d="M353 88q-22 -21 -46.5 -33.5t-50.5 -12.5q-57 0 -86.5 41t-29.5 118q0 76 25 113.5t71 37.5q41 0 69 -26.5t48 -73.5v-164zM348 353q-58 37 -124 37q-98 0 -156 -56t-58 -147q0 -87 54 -140t138 -53q46 0 80 9t71 29v-168q0 -50 -24 -63.5t-93 -16.5v-20q112 4 169 4
q44 0 132 -4v20q-38 7 -52 24.5t-14 53.5v473q0 20 8 29.5t28 17.5v2h-139z" />
    <glyph glyph-name="r" unicode="r" horiz-adv-x="426" 
d="M184 287q12 16 37 31.5t39 15.5q38 0 38 -35q0 -9 -8.5 -18.5t-17.5 -15.5l12 -8q12 7 32.5 17l57.5 27l26 12q0 46 -15 68.5t-51 22.5q-35 0 -64 -16.5t-68 -48.5l-18 -15v70q-10 -2 -36 -5.5t-56.5 -7t-53.5 -5.5t-36 -2v-20q34 -1 52 -18t18 -52v-198q0 -35 -18 -51.5
t-52 -18.5v-20h3q90 4 137 4t137 -4h3v20q-53 2 -75.5 18t-22.5 52v201z" />
    <glyph glyph-name="s" unicode="s" horiz-adv-x="407" 
d="M21 140l9 -122q83 -34 178 -34q30 0 57.5 6.5t49 20.5t34 37.5t12.5 56.5q0 28 -12 49.5t-33 37t-43.5 26t-56.5 23.5q-50 19 -74 34.5t-24 39.5t15.5 33.5t40.5 9.5q21 0 42 -10t39 -25.5t33 -34.5t24 -38h24l-8 124q-8 -2 -14 -2q-26 0 -80 10q-48 8 -68 8
q-27 0 -51.5 -6.5t-44 -20t-31 -37t-11.5 -55.5q0 -29 13 -51t34 -37.5t44 -26t58 -23.5q52 -19 76 -34t24 -40q0 -21 -16 -32t-40 -11q-58 0 -103 34t-74 90h-23z" />
    <glyph glyph-name="t" unicode="t" horiz-adv-x="352" 
d="M58 340v-254q0 -50 29 -76t82 -26q19 0 40.5 8t42.5 20t40.5 26.5t35.5 29.5l-21 23q-19 -18 -39 -29.5t-37 -11.5q-34 0 -47.5 17.5t-13.5 60.5v212h138v34h-138v135h-20q-25 -62 -64.5 -102t-98.5 -44v-23h71z" />
    <glyph glyph-name="u" unicode="u" horiz-adv-x="537" 
d="M445 390q-33 -8 -76 -11t-114 -5v-20q72 0 72 -50v-220q-18 -17 -38 -25.5t-47 -8.5q-31 0 -49 19.5t-18 53.5v267q-32 -8 -74.5 -11t-106.5 -5h-3v-20q66 0 66 -50v-188q0 -64 32.5 -98t87.5 -34q40 0 76 16t74 43v-59q33 8 76.5 11t113.5 5v20q-72 0 -72 50v320z" />
    <glyph glyph-name="v" unicode="v" horiz-adv-x="500" 
d="M495 378q-56 -4 -85 -4q-54 0 -97 4v-20q28 -5 41.5 -14t13.5 -34q0 -12 -6 -31.5t-16 -42.5t-21.5 -46l-24.5 -50q-21 -41 -27 -54q-3 11 -10.5 28.5l-22.5 53.5q-27 61 -41 97t-14 51q0 20 16.5 30t41.5 12v20q-94 -4 -141 -4q-43 0 -129 4v-20q26 -3 45.5 -18.5
t42 -53t53 -105.5l83.5 -195h59l107.5 212t57.5 102t37 44.5t37 13.5v20z" />
    <glyph glyph-name="w" unicode="w" horiz-adv-x="741" 
d="M-34 358q31 -7 51.5 -21t42 -49.5t50.5 -103t80 -198.5h44l126 264l108 -264h49l90 200t53.5 105t39 49.5t42.5 17.5v20q-62 -4 -92 -4q-29 0 -89 4h-3v-20q23 -1 40.5 -15.5t17.5 -37.5q0 -12 -9.5 -38.5t-23 -57t-27.5 -58l-24 -47.5q-9 26 -37 92q-21 50 -32 79.5
t-11 43.5q0 22 15.5 30.5t39.5 8.5v20h-3q-74 -4 -113 -4q-43 0 -127 4v-22q27 -1 46 -19.5t34 -48.5l-88 -182l-21 52l-40 97t-13.5 37.5t-5.5 24.5q0 19 16.5 28.5t38.5 12.5v20h-3q-78 -4 -119 -4q-48 0 -140 4h-3v-20z" />
    <glyph glyph-name="x" unicode="x" horiz-adv-x="537" 
d="M-18 -4q64 4 97 4t97 -4v20q-20 2 -32.5 8.5t-12.5 23.5q0 18 17 36t47 41q20 16 26 22q6 -9 22 -31q18 -24 27.5 -40t9.5 -28q0 -17 -14 -23.5t-41 -8.5v-20h3q95 4 146 4t146 -4h3v20q-32 11 -53.5 22t-43.5 30.5t-50 53t-73 92.5l56 48l51.5 43.5t32 24t31 17
t35.5 11.5v20q-64 -4 -97 -4t-97 4v-20q13 0 24 -9.5t11 -21.5q0 -22 -19 -45t-45 -44l-6 7q-21 26 -36 47.5t-15 32.5q0 15 12 23.5t30 9.5v20q-92 -4 -137 -4q-46 0 -138 4v-20q27 -6 47 -16.5t40 -28.5t43.5 -45.5l67.5 -81.5q9 -11 11 -14l-65 -54q-64 -53 -92.5 -72.5
t-65.5 -29.5v-20z" />
    <glyph glyph-name="y" unicode="y" horiz-adv-x="537" 
d="M-27 358q37 -4 60 -25t39 -58l151 -331q-14 -27 -26 -48t-29 -44t-37 -38.5t-40 -15.5q-16 0 -27.5 5.5t-11.5 19.5q0 6 2 18t2 18q0 25 -17.5 41t-42.5 16q-31 0 -49.5 -20.5t-18.5 -51.5q0 -41 35 -67.5t75 -26.5q58 0 101.5 27t74.5 77q20 31 49.5 83.5l61 112
l57.5 111t41 84.5q27 59 52.5 86t56.5 27v20q-60 -4 -91 -4q-35 0 -105 4v-20q27 0 43.5 -12t16.5 -37q0 -11 -6.5 -32t-16.5 -45l-22.5 -52l-27.5 -60q-25 -53 -31 -69q-6 16 -32 71l-29.5 62t-18.5 42.5t-16 44.5t-6 33q0 24 17 37.5t41 16.5v20q-84 -4 -126 -4
q-82 0 -149 4v-20z" />
    <glyph glyph-name="z" unicode="z" horiz-adv-x="463" 
d="M396 378q-50 -2 -87.5 -3t-95.5 -1q-59 0 -101.5 1t-79.5 3l-12 -142h15q22 61 60 85.5t103 24.5h67l-265 -322l12 -28q114 4 201 4q78 0 178 -4l26 148h-23q-12 -37 -32 -60.5t-46 -35.5t-56.5 -16t-71.5 -4h-42l261 318z" />
    <glyph glyph-name="braceleft" unicode="{" horiz-adv-x="389" 
d="M242 525q0 53 16.5 82t56.5 41v22q-55 0 -90 -5.5t-57.5 -20t-33 -42t-10.5 -72.5v-176q0 -51 -15.5 -76t-60.5 -38q45 -13 60.5 -38t15.5 -76v-176q0 -45 10.5 -72.5t33 -42t57.5 -20t90 -5.5v22q-40 12 -56.5 41t-16.5 82v157q0 57 -16 86t-65 41v2q49 12 65 41t16 86
v157z" />
    <glyph glyph-name="bar" unicode="|" horiz-adv-x="222" 
d="M70 0h76v712h-76v-712z" />
    <glyph glyph-name="braceright" unicode="}" horiz-adv-x="389" 
d="M147 368q0 -57 16 -86t65 -41v-2q-49 -12 -65 -41t-16 -86v-157q0 -53 -16.5 -82t-56.5 -41v-22q54 0 89.5 5.5t58 20t33 41.5t10.5 72v177q0 50 15.5 75.5t60.5 38.5q-45 13 -60.5 38.5t-15.5 75.5v177q0 45 -10.5 72t-33 41.5t-58 20t-89.5 5.5v-22q40 -12 56.5 -41
t16.5 -82v-157z" />
    <glyph glyph-name="asciitilde" unicode="~" horiz-adv-x="600" 
d="M486 269q-23 -35 -42 -53.5t-46 -18.5q-15 0 -33.5 7t-47.5 20q-10 4 -21 9q-34 15 -61 23.5t-50 8.5q-46 0 -75.5 -24t-49.5 -62l36 -74q15 32 34.5 52t49.5 20q31 0 58.5 -9.5t56.5 -25.5t53 -24.5t49 -8.5q41 0 68 22t57 64z" />
    <glyph glyph-name="quotesinglbase" unicode="&#x201a;" horiz-adv-x="222" 
d="M35 -122q62 35 102 86t40 111q0 35 -16.5 57t-46.5 22q-63 0 -63 -71q0 -15 10 -50q8 -29 8 -40q0 -35 -9.5 -55t-38.5 -46z" />
    <glyph glyph-name="florin" unicode="&#x192;" 
d="M184 338q-5 -39 -15 -139q-10 -98 -19 -176.5t-21 -147.5q-8 -46 -17 -64.5t-27 -18.5q-13 0 -19 10t-6 25q0 27 9 63q-26 13 -48 13q-19 0 -34 -14.5t-15 -38.5q0 -45 30.5 -68.5t83.5 -23.5q38 0 64 14t42 39t26.5 55.5t21.5 77.5q19 81 31.5 165t26.5 206l3 23h121
l4 38h-122q1 15 3 39.5t5 53l5 48.5t4 29q1 5 1 6q14 79 22.5 102.5t29.5 23.5q14 0 18 -8t4 -24q0 -9 -2.5 -23.5l-5.5 -33.5l-2 -10q11 -11 40 -11q23 0 36.5 15t13.5 40q0 43 -29 66t-70 23q-49 0 -81 -23.5t-51.5 -66.5t-31.5 -98.5t-25 -147.5h-96l-8 -38h100z" />
    <glyph glyph-name="quotedblbase" unicode="&#x201e;" horiz-adv-x="407" 
d="M217 -122q62 35 102 86t40 111q0 35 -16.5 57t-46.5 22q-63 0 -63 -71q0 -15 10 -50q8 -29 8 -40q0 -35 -9.5 -55t-38.5 -46zM32 -122q62 35 102 86t40 111q0 35 -16.5 57t-46.5 22q-63 0 -63 -71q0 -15 10 -50q8 -29 8 -40q0 -35 -9.5 -55t-38.5 -46z" />
    <glyph glyph-name="ellipsis" unicode="&#x2026;" horiz-adv-x="1000" 
d="M167 154q-32 0 -54.5 -22t-22.5 -55t22.5 -55t54.5 -22t54.5 22t22.5 55t-22.5 55t-54.5 22zM500 154q-32 0 -54.5 -22t-22.5 -55t22.5 -55t54.5 -22t54.5 22t22.5 55t-22.5 55t-54.5 22zM833 154q-32 0 -54.5 -22t-22.5 -55t22.5 -55t54.5 -22t54.5 22t22.5 55t-22.5 55
t-54.5 22z" />
    <glyph glyph-name="dagger" unicode="&#x2020;" horiz-adv-x="500" 
d="M259 -154q0 52 2.5 105.5t8 108t17.5 107t30 91.5q-30 24 -44 70.5t-14 95.5q22 0 42 -6.5t46 -17.5q38 -17 54 -17q26 0 39.5 15t13.5 38q0 27 -12.5 40t-34.5 13q-8 0 -36 -12q-31 -13 -56.5 -21t-55.5 -8q0 39 7.5 64t21.5 52q8 17 12 28t4 24q0 29 -15 41.5t-42 12.5
t-42 -12.5t-15 -41.5q0 -13 4 -24.5t12 -27.5q14 -27 21.5 -52t7.5 -64q-30 0 -56.5 8t-55.5 21q-28 12 -36 12q-22 0 -34.5 -13t-12.5 -40q0 -23 13.5 -38t39.5 -15q16 0 54 17q27 12 46.5 18t41.5 6q0 -49 -14 -95.5t-44 -70.5q18 -39 30 -90.5t18 -107.5t7.5 -106
t2.5 -108h24z" />
    <glyph glyph-name="daggerdbl" unicode="&#x2021;" horiz-adv-x="500" 
d="M247 -154q27 0 42 12.5t15 41.5q0 13 -4 24.5t-12 27.5q-14 27 -21.5 52t-7.5 64q30 0 56.5 -8t55.5 -21q28 -12 36 -12q22 0 34.5 13t12.5 40q0 23 -13.5 38t-39.5 15q-16 0 -54 -17q-27 -12 -46.5 -18t-41.5 -6q0 50 14 96t44 70q-30 24 -44 70.5t-14 95.5
q22 0 42 -6.5t46 -17.5q38 -17 54 -17q26 0 39.5 15t13.5 38q0 27 -12.5 40t-34.5 13q-8 0 -36 -12q-31 -13 -56.5 -21t-55.5 -8q0 39 7.5 64t21.5 52q8 17 12 28t4 24q0 29 -15 41.5t-42 12.5t-42 -12.5t-15 -41.5q0 -13 4 -24.5t12 -27.5q14 -27 21.5 -52t7.5 -64
q-30 0 -56.5 8t-55.5 21q-28 12 -36 12q-22 0 -34.5 -13t-12.5 -40q0 -23 13.5 -38t39.5 -15q16 0 54 17q27 12 46.5 18t41.5 6q0 -49 -14 -95.5t-44 -70.5q30 -24 44 -70t14 -96q-22 0 -42 6.5t-46 17.5q-38 17 -54 17q-26 0 -39.5 -15t-13.5 -38q0 -27 12.5 -40t34.5 -13
q8 0 36 12q31 14 56.5 21.5t55.5 7.5q0 -39 -7.5 -64t-21.5 -52q-8 -17 -12 -28t-4 -24q0 -29 15 -41.5t42 -12.5z" />
    <glyph glyph-name="circumflex" unicode="&#x2c6;" horiz-adv-x="296" 
d="M102 620l-115 -176h54l107 108l108 -108h55l-117 176h-92z" />
    <glyph glyph-name="perthousand" unicode="&#x2030;" horiz-adv-x="1000" 
d="M146 668q-67 0 -107.5 -49t-40.5 -138t40.5 -138t107.5 -49t107.5 49t40.5 138t-40.5 138t-107.5 49zM146 638q30 0 42 -36.5t12 -120.5t-12 -120.5t-42 -36.5t-42 36.5t-12 120.5t12 120.5t42 36.5zM112 -18h56l378 686h-55zM512 356q-67 0 -107.5 -49t-40.5 -138
t40.5 -138t107.5 -49t107.5 49t40.5 138t-40.5 138t-107.5 49zM512 326q30 0 42 -36.5t12 -120.5t-12 -120.5t-42 -36.5t-42 36.5t-12 120.5t12 120.5t42 36.5zM854 356q-67 0 -107.5 -49t-40.5 -138t40.5 -138t107.5 -49t107.5 49t40.5 138t-40.5 138t-107.5 49zM854 326
q30 0 42 -36.5t12 -120.5t-12 -120.5t-42 -36.5t-42 36.5t-12 120.5t12 120.5t42 36.5z" />
    <glyph glyph-name="Scaron" unicode="&#x160;" horiz-adv-x="611" 
d="M352 700l115 176h-54l-107 -108l-108 108h-55l117 -176h92zM525 457l-2 20q-5 66 -5 100q0 15 2 40q0 9 1 23h-36q-22 0 -77 12q-77 18 -122 18q-116 0 -173 -43.5t-57 -135.5q0 -42 18 -74.5t48.5 -56.5t64.5 -41.5t86 -39.5q44 -20 72 -34t51 -31t37 -39t14 -49
q0 -56 -38 -79t-109 -23q-37 0 -76 16.5t-73 45.5t-59.5 65t-35.5 73h-22q20 -82 40 -228q9 4 26 8.5t24 4.5q33 0 100 -15q66 -14 99 -14q109 0 173.5 51.5t64.5 137.5q0 49 -19.5 86.5t-52 64.5t-68 45.5t-90.5 42.5q-79 35 -117 62.5t-38 69.5q0 45 30.5 69.5t77.5 24.5
q35 0 70 -13.5t65.5 -38t52.5 -57t32 -68.5h21z" />
    <glyph glyph-name="guilsinglleft" unicode="&#x2039;" horiz-adv-x="278" 
d="M189 329l-131 -101l-5 -4q-36 -28 -36 -39q0 -8 23 -24q14 -10 18 -14l126 -102l19 13l-73 135l75 119z" />
    <glyph glyph-name="OE" unicode="&#x152;" horiz-adv-x="1000" 
d="M933 458q-7 68 -7 116q0 30 2 83v3q-39 -2 -86.5 -3t-92.5 -1h-198q-27 0 -82 2t-83 2q-82 0 -149 -26t-114.5 -74.5t-73 -116.5t-25.5 -150q0 -144 90.5 -220.5t236.5 -76.5q30 0 90 2t90 2q130 0 214.5 -1t167.5 -3q25 93 87 213l-21 19q-58 -98 -127.5 -148
t-174.5 -50q-34 0 -69 11v304q42 0 69.5 -5.5t48 -20t34 -41.5t22.5 -69h22q-8 98 -8 148t8 148h-22q-17 -78 -55 -104t-119 -26v251h77q43 0 78 -8t64.5 -26.5t50 -51.5t30.5 -82h25zM474 94q0 -64 -82 -64q-58 0 -101.5 23t-70.5 62.5t-39.5 89.5t-12.5 105q0 64 10 120
t35.5 101.5t70 72t110.5 26.5q48 0 64 -19t16 -65v-452z" />
    <glyph glyph-name="quoteleft" unicode="&#x2018;" horiz-adv-x="222" 
d="M179 706q-62 -35 -102 -86t-40 -111q0 -35 16.5 -57t46.5 -22q63 0 63 71q0 16 -10 50q-8 29 -8 40q0 35 9.5 55t38.5 46z" />
    <glyph glyph-name="quoteright" unicode="&#x2019;" horiz-adv-x="222" 
d="M43 420q62 35 102 86t40 111q0 35 -16.5 57t-46.5 22q-63 0 -63 -71q0 -15 10 -50q8 -29 8 -40q0 -35 -9.5 -55t-38.5 -46z" />
    <glyph glyph-name="quotedblleft" unicode="&#x201c;" horiz-adv-x="407" 
d="M171 706q-62 -35 -102 -86t-40 -111q0 -35 16.5 -57t46.5 -22q63 0 63 71q0 16 -10 50q-8 29 -8 40q0 35 9.5 55t38.5 46zM356 706q-62 -35 -102 -86t-40 -111q0 -35 16.5 -57t46.5 -22q63 0 63 71q0 16 -10 50q-8 29 -8 40q0 35 9.5 55t38.5 46z" />
    <glyph glyph-name="quotedblright" unicode="&#x201d;" horiz-adv-x="407" 
d="M236 420q62 35 102 86t40 111q0 35 -16.5 57t-46.5 22q-63 0 -63 -71q0 -15 10 -50q8 -29 8 -40q0 -35 -9.5 -55t-38.5 -46zM51 420q62 35 102 86t40 111q0 35 -16.5 57t-46.5 22q-63 0 -63 -71q0 -15 10 -50q8 -29 8 -40q0 -35 -9.5 -55t-38.5 -46z" />
    <glyph glyph-name="bullet" unicode="&#x2022;" horiz-adv-x="500" 
d="M409 325q0 33 -12.5 63t-35 52t-52.5 34.5t-63 12.5t-63 -12.5t-52 -34.5t-34.5 -52t-12.5 -63q0 -34 12.5 -63.5t34.5 -52t52 -35t63 -12.5t63 12.5t52.5 35t35 52.5t12.5 63z" />
    <glyph glyph-name="endash" unicode="&#x2013;" horiz-adv-x="500" 
d="M-18 149h518l18 76h-518z" />
    <glyph glyph-name="emdash" unicode="&#x2014;" horiz-adv-x="1000" 
d="M148 225l-1 -5q-23 -83 -41 -123l18 -8q17 36 47 48t69 12h571l1 5q23 83 41 123l-18 8q-17 -36 -47 -48t-69 -12h-571z" />
    <glyph glyph-name="tilde" unicode="&#x2dc;" horiz-adv-x="296" 
d="M17 464q4 18 15 34t26 16q17 0 32.5 -6t39.5 -18q25 -13 43.5 -19.5t40.5 -6.5q21 0 38.5 12t31 31.5t21.5 41t11 41.5h-39q-9 -24 -19.5 -37t-31.5 -13q-10 0 -24 6t-36 17q-26 13 -43 20t-32 7q-51 0 -76.5 -34.5t-34.5 -91.5h37z" />
    <glyph glyph-name="trademark" unicode="&#x2122;" horiz-adv-x="990" 
d="M245 625h45q28 0 43 -17t22 -46h24v88h-368v-88h24q7 29 22 46t43 17h45v-309q0 -29 -7 -36t-44 -10v-24h202v24q-36 3 -43.5 10t-7.5 36v309zM659 246h14l145 288h2v-218q0 -29 -7 -36t-43 -10v-24h201v24q-36 3 -43.5 10t-7.5 36v264q0 25 9.5 35t43.5 11v24h-123
l-148 -283l-138 283h-145v-24q22 0 40.5 -14t29.5 -38v-234q0 -41 -8.5 -54.5t-42.5 -15.5v-24h134v24q-35 2 -43.5 15.5t-8.5 54.5v193h2z" />
    <glyph glyph-name="scaron" unicode="&#x161;" horiz-adv-x="407" 
d="M250 444l115 176h-54l-107 -108l-108 108h-55l117 -176h92zM21 140l9 -122q83 -34 178 -34q30 0 57.5 6.5t49 20.5t34 37.5t12.5 56.5q0 28 -12 49.5t-33 37t-43.5 26t-56.5 23.5q-50 19 -74 34.5t-24 39.5t15.5 33.5t40.5 9.5q21 0 42 -10t39 -25.5t33 -34.5t24 -38h24
l-8 124q-8 -2 -14 -2q-26 0 -80 10q-48 8 -68 8q-27 0 -51.5 -6.5t-44 -20t-31 -37t-11.5 -55.5q0 -29 13 -51t34 -37.5t44 -26t58 -23.5q52 -19 76 -34t24 -40q0 -21 -16 -32t-40 -11q-58 0 -103 34t-74 90h-23z" />
    <glyph glyph-name="guilsinglright" unicode="&#x203a;" horiz-adv-x="278" 
d="M89 45l131 101l5 4q36 28 36 39q0 8 -23 24q-14 10 -18 14l-126 102l-19 -13l73 -135l-75 -119z" />
    <glyph glyph-name="oe" unicode="&#x153;" horiz-adv-x="796" 
d="M467 227q0 24 4.5 46.5t15 40.5t28 29t42.5 11q31 0 50.5 -30t19.5 -67q0 -16 -5.5 -23t-16.5 -7h-138zM752 189q0 40 -14 76.5t-39.5 64.5t-60 44t-74.5 16q-51 0 -81 -10.5t-73 -41.5q-81 52 -166 52q-45 0 -87.5 -13.5t-75.5 -40t-52.5 -64.5t-19.5 -85q0 -49 19 -87
t51.5 -64t74 -39t88.5 -13q92 0 164 51q58 -51 142 -51q57 0 113 24t92 67l-23 25q-24 -26 -56 -41t-66 -15q-62 0 -101.5 40.5t-39.5 104.5h285zM137 206q0 71 24 108.5t66 37.5q48 0 80 -47t32 -137q0 -70 -25 -108t-67 -38q-46 0 -78 47.5t-32 136.5z" />
    <glyph glyph-name="Ydieresis" unicode="&#x178;" horiz-adv-x="722" 
d="M460 838q-27 0 -45.5 -18.5t-18.5 -45.5t18.5 -45.5t45.5 -18.5t45.5 18.5t18.5 45.5t-18.5 45.5t-45.5 18.5zM263 838q-27 0 -45.5 -18.5t-18.5 -45.5t18.5 -45.5t45.5 -18.5t45.5 18.5t18.5 45.5t-18.5 45.5t-45.5 18.5zM-27 632q43 0 71.5 -18t56.5 -56l208 -274v-173
q0 -55 -19.5 -72t-85.5 -19v-24q77 4 176 4q93 0 169 -4l-1 24q-66 2 -85.5 19t-19.5 72v181l127 190q6 8 11 16q49 74 80.5 103.5t81.5 30.5v24q-84 -6 -127 -6q-47 0 -139 6v-24q34 -1 54.5 -15t20.5 -46q0 -14 -13.5 -45t-32 -65.5l-37.5 -67l-38 -64.5q-2 -4 -6 -10
q-21 32 -46 66.5l-55 73.5l-61.5 85t-19.5 38q0 25 24.5 37.5t61.5 12.5v24q-90 -6 -181 -6q-59 0 -175 6v-24z" />
    <glyph glyph-name="exclamdown" unicode="&#xa1;" horiz-adv-x="278" 
d="M136 420q-32 0 -54.5 -22t-22.5 -55t22.5 -55t54.5 -22t54.5 22t22.5 55t-22.5 55t-54.5 22zM124 228q-4 -80 -11 -119q-7 -37 -27 -109q-18 -63 -27 -105t-9 -84q0 -33 5 -55l163 8v19q-16 10 -24.5 21.5t-13 29t-5.5 42t-1 72.5q0 89 -5 153.5t-18 126.5h-27z" />
    <glyph glyph-name="cent" unicode="&#xa2;" 
d="M233 384q-89 -6 -143.5 -57.5t-54.5 -137.5q0 -93 56 -140.5t142 -48.5v-112h38v112q49 2 96 21.5t83 53.5l-21 21q-26 -20 -56 -32t-59 -12t-43 2v296q53 -2 84 -38.5t43 -92.5h28q-6 35 -6 158q-20 -5 -41 -5q-22 0 -63 7q-32 5 -45 5v107h-38v-107zM233 65
q-47 22 -65.5 58t-18.5 92q0 45 21.5 82t62.5 49v-281z" />
    <glyph glyph-name="sterling" unicode="&#xa3;" 
d="M-11 -4q136 4 203 4q69 0 205 -4l6 12q47 97 75 146l-19 18q-29 -49 -60 -63.5t-90 -14.5h-187v2q97 69 102 202h132v38h-133q0 17 -1 62q-2 40 -2 65t3.5 52t13 52t27.5 41t45 16q21 0 32.5 -17t11.5 -38q0 -30 -10 -72q8 -7 20.5 -10t25.5 -3q34 0 48 18t14 52
q0 51 -41.5 77.5t-103.5 26.5q-47 0 -85 -19t-64.5 -53t-40.5 -77.5t-14 -90.5v-82h-67l-22 -36h89q0 -13 1 -40t1 -41q0 -38 -4.5 -69t-16.5 -58.5t-35 -47.5t-59 -30v-18z" />
    <glyph glyph-name="currency" unicode="&#xa4;" 
d="M444 578l-57 -55q-27 23 -65.5 36t-79.5 13t-79.5 -13t-65.5 -36l-57 55l-51 -50l55 -55q-24 -27 -36.5 -66t-12.5 -82t12.5 -82t36.5 -66l-55 -55l51 -50l57 55q27 -23 65.5 -36t79.5 -13t79.5 13t65.5 36l57 -55l51 50l-55 55q24 27 36.5 66t12.5 82t-12.5 82t-36.5 66
l55 55zM77 325q0 34 12 65t35 55t53 37.5t65 13.5t65 -13.5t53 -37.5t35 -55t12 -65t-12 -65t-35 -55t-53 -37.5t-65 -13.5t-65 13.5t-53 37.5t-35 55t-12 65z" />
    <glyph glyph-name="yen" unicode="&#xa5;" 
d="M220 656q-58 -6 -119 -6q-40 0 -116 6v-22q35 0 58 -34.5t54 -106.5l17 -40l29 -65h-81v-38h98l35 -80h-133v-38h133v-121q0 -32 -3.5 -49.5t-11 -26t-19 -11.5t-35.5 -4v-24q67 4 128 4q27 0 57 -1t66 -3v24q-23 1 -35.5 4t-20 11t-11 26t-3.5 50v121h133v38h-133l29 80
h104v38h-90l31 86q13 37 24 63t24.5 48t29.5 35.5t35 13.5v22q-56 -6 -84 -6q-30 0 -92 6v-22q24 -4 37 -17.5t13 -45.5q0 -11 -10.5 -45t-24.5 -75t-28.5 -78.5l-20.5 -53.5q0 1 -20 41l-35.5 72l-29.5 62.5t-26 58t-10 29.5q0 25 16.5 38.5t40.5 13.5v22z" />
    <glyph glyph-name="brokenbar" unicode="&#xa6;" horiz-adv-x="222" 
d="M78 0h68v266h-68v-266zM70 446h76v266h-76v-266z" />
    <glyph glyph-name="section" unicode="&#xa7;" horiz-adv-x="500" 
d="M247 670q-60 0 -103 -32.5t-43 -93.5q0 -52 30 -89t82 -64l-2 -2q-20 5 -42 5q-50 0 -81.5 -34t-31.5 -92q0 -29 12.5 -55.5t34 -50t45.5 -43t60 -45.5q60 -44 89 -73.5t29 -63.5q0 -35 -22 -53t-70 -18q-45 0 -45 27q0 6 7 18q6 10 9.5 19.5t3.5 23.5q0 27 -15 42
t-41 15q-24 0 -42 -17.5t-18 -40.5q0 -50 38.5 -79.5t96.5 -29.5q69 0 117.5 34.5t48.5 99.5q0 36 -18.5 71t-64.5 71v2q60 0 93.5 32t33.5 89q0 33 -14 62.5t-36.5 55t-47.5 46t-64 49.5q-56 41 -81.5 66.5t-25.5 52.5q0 34 20 53.5t60 19.5q33 0 47 -7t14 -19
q0 -8 -15 -20q-12 -9 -18.5 -18.5t-6.5 -25.5q0 -19 17.5 -32.5t35.5 -13.5q30 0 46.5 14.5t16.5 43.5q0 42 -40 71t-99 29zM124 309q0 30 17.5 46.5t45.5 16.5q19 0 50 -17.5t61.5 -45t51 -56t20.5 -48.5q0 -61 -62 -61q-22 0 -53.5 17.5t-61.5 44.5t-49.5 55t-19.5 48z
" />
    <glyph glyph-name="dieresis" unicode="&#xa8;" horiz-adv-x="296" 
d="M247 582q-27 0 -45.5 -18.5t-18.5 -45.5t18.5 -45.5t45.5 -18.5t45.5 18.5t18.5 45.5t-18.5 45.5t-45.5 18.5zM50 582q-27 0 -45.5 -18.5t-18.5 -45.5t18.5 -45.5t45.5 -18.5t45.5 18.5t18.5 45.5t-18.5 45.5t-45.5 18.5z" />
    <glyph glyph-name="copyright" unicode="&#xa9;" horiz-adv-x="800" 
d="M400 -20q71 0 133 26t108 73.5t71 110.5t25 134q0 72 -25 135t-71 110.5t-108 74t-133 26.5t-133 -26.5t-108 -74t-71 -110.5t-25 -135q0 -71 25 -134t71 -110.5t108 -73.5t133 -26zM400 34q-56 0 -104.5 22.5t-84.5 62.5t-56 93t-20 112t20 112t56 93.5t84.5 63.5
t104.5 23t104.5 -22.5t84.5 -63t56 -94t20 -112.5t-20 -112t-56 -93t-84.5 -62.5t-104.5 -22.5zM545 249q-18 -41 -47.5 -64.5t-69.5 -23.5q-60 0 -87.5 47.5t-27.5 131.5q1 76 29.5 120t84.5 44q44 0 68 -24.5t34 -60.5h20v70q0 14 -21 21q-3 1 -10 3q-24 8 -43.5 11.5
t-47.5 3.5q-59 0 -101.5 -17.5t-68.5 -46t-38 -62.5t-12 -67q0 -97 57 -147.5t155 -50.5q23 0 45 4t46 11q9 2 12 3q2 1 5 2q22 9 24 19l14 73h-20z" />
    <glyph glyph-name="ordfeminine" unicode="&#xaa;" horiz-adv-x="289" 
d="M65 500q0 19 16 30t37 11q18 0 34 -3v-15q-1 -9 -1 -17q0 -2 1 -15v-16q-16 -15 -43 -15q-44 0 -44 40zM152 560q-34 0 -61.5 -2.5t-52.5 -10t-41 -24t-16 -43.5q0 -23 22.5 -39.5t51.5 -16.5q27 0 53.5 8.5t52.5 23.5q15 -14 29.5 -23t28.5 -9q15 0 29 9t33 26
q12 11 19 16l-11 11q-21 -17 -36 -17q-16 0 -21.5 9.5t-5.5 25.5q0 11 1 40q2 39 2 54q0 37 -35 53.5t-85 16.5q-43 0 -73.5 -14t-34.5 -49q19 -3 59 -10q5 -1 28 -6q-1 3 -1 17q0 17 7.5 28t26.5 11q31 0 31 -41v-44z" />
    <glyph glyph-name="guillemotleft" unicode="&#xab;" horiz-adv-x="444" 
d="M189 329l-131 -101l-5 -4q-36 -28 -36 -39q0 -8 23 -24q14 -10 18 -14l126 -102l19 13l-73 135l75 119zM355 329l-131 -101l-5 -4q-36 -28 -36 -39q0 -8 23 -24q14 -10 18 -14l126 -102l19 13l-73 135l75 119z" />
    <glyph glyph-name="logicalnot" unicode="&#xac;" horiz-adv-x="600" 
d="M396 75h76v224h-374v-76h298v-148z" />
    <glyph glyph-name="minus" unicode="&#xad;" horiz-adv-x="600" 
d="M472 149v76h-374v-76h374z" />
    <glyph glyph-name="minus" unicode="&#x2212;" horiz-adv-x="600" 
d="M472 149v76h-374v-76h374z" />
    <glyph glyph-name="registered" unicode="&#xae;" horiz-adv-x="800" 
d="M238 498q32 -1 38 -7.5t6 -33.5v-250q0 -26 -6 -32.5t-38 -8.5v-18h170v18q-32 2 -38 8.5t-6 32.5v102h31q18 -27 44 -79q23 -44 36 -63t26 -19h82v11l-29.5 36l-34.5 45l-56 81q35 10 55.5 38t20.5 62q0 47 -30.5 71.5t-78.5 24.5h-192v-19zM364 493h32q27 0 41 -17.5
t14 -58.5q0 -36 -13 -60t-44 -24h-30v160zM400 -20q71 0 133 26t108 73.5t71 110.5t25 134q0 72 -25 135t-71 110.5t-108 74t-133 26.5t-133 -26.5t-108 -74t-71 -110.5t-25 -135q0 -71 25 -134t71 -110.5t108 -73.5t133 -26zM400 34q-56 0 -104.5 22.5t-84.5 62.5t-56 93
t-20 112t20 112t56 93.5t84.5 63.5t104.5 23t104.5 -22.5t84.5 -63t56 -94t20 -112.5t-20 -112t-56 -93t-84.5 -62.5t-104.5 -22.5z" />
    <glyph glyph-name="macron" unicode="&#xaf;" horiz-adv-x="296" 
d="M300 481v69h-302v-69h302z" />
    <glyph glyph-name="degree" unicode="&#xb0;" horiz-adv-x="400" 
d="M100 522q0 39 23.5 64.5t61.5 25.5t61.5 -25.5t23.5 -64.5t-23.5 -64.5t-61.5 -25.5t-61.5 25.5t-23.5 64.5zM38 522q0 -61 43 -103.5t104 -42.5q62 0 104.5 42.5t42.5 103.5t-43 103.5t-104 42.5t-104 -42.5t-43 -103.5z" />
    <glyph glyph-name="plusminus" unicode="&#xb1;" horiz-adv-x="600" 
d="M247 280h-149v-76h149v-92h76v92h149v76h-149v94h-76v-94zM98 0h374v76h-374v-76z" />
    <glyph glyph-name="twosuperior" unicode="&#xb2;" horiz-adv-x="311" 
d="M247 267q19 40 54 101l-9 9q-27 -28 -47 -36t-67 -8h-95q19 17 62 50q63 46 94.5 82t31.5 85q0 61 -39 89.5t-104 28.5q-58 0 -95.5 -28t-37.5 -78q0 -24 13 -37t35 -13q24 0 36 11t12 28q0 11 -8.5 25.5t-19.5 22.5q2 18 15.5 31.5t36.5 13.5q30 0 49 -22.5t19 -62.5
q0 -37 -15 -71.5t-38.5 -65t-49 -54.5l-68.5 -62l-29 -25v-2l4 -12h260z" />
    <glyph glyph-name="threesuperior" unicode="&#xb3;" horiz-adv-x="311" 
d="M15 543h16q17 34 29 43t45 9h84l-119 -137l18 -12q26 24 49 24q30 0 46 -26t16 -69q0 -46 -19 -72.5t-55 -26.5q-24 0 -36 12t-17 30q9 14 9 26q0 16 -13 26t-33 10q-19 0 -32.5 -11t-13.5 -29q0 -39 36 -62.5t90 -23.5q73 0 122.5 34.5t49.5 97.5q0 53 -30 82.5
t-92 29.5q-3 0 -10 -1q-9 -2 -14 -2l142 154l-3 12h-3q-80 -2 -123 -2q-38 0 -112 2z" />
    <glyph glyph-name="acute" unicode="&#xb4;" horiz-adv-x="296" 
d="M132 444l150 100q24 16 24 45q0 15 -14 28t-33 13q-31 0 -70 -47l-115 -139h58z" />
    <glyph glyph-name="mu" unicode="&#xb5;" horiz-adv-x="537" 
d="M445 390q-33 -8 -75.5 -11t-111.5 -5h-1v-20q70 0 70 -50v-220q-18 -17 -38 -25.5t-47 -8.5q-31 0 -49 19.5t-18 53.5v267q-32 -8 -74.5 -11t-106.5 -5h-3v-20q66 0 66 -50v-445q0 -33 -12 -53.5t-52 -21.5v-20q81 4 182 4v228q17 -12 47 -12q20 0 45.5 14t59.5 45v-59
q33 8 76.5 11t113.5 5v20q-72 0 -72 50v320z" />
    <glyph glyph-name="paragraph" unicode="&#xb6;" horiz-adv-x="600" 
d="M255 650q-112 0 -160.5 -46.5t-48.5 -151.5q0 -97 46.5 -155t134.5 -58v-451h82v832h59v-832h82v778q0 20 2.5 30t9.5 15t20.5 8t45.5 7v24h-273z" />
    <glyph glyph-name="periodcentered" unicode="&#xb7;" horiz-adv-x="260" 
d="M117 264q-32 0 -54.5 -22t-22.5 -55t22.5 -55t54.5 -22t54.5 22t22.5 55t-22.5 55t-54.5 22z" />
    <glyph glyph-name="periodcentered" unicode="&#x2219;" horiz-adv-x="260" 
d="M117 264q-32 0 -54.5 -22t-22.5 -55t22.5 -55t54.5 -22t54.5 22t22.5 55t-22.5 55t-54.5 22z" />
    <glyph glyph-name="cedilla" unicode="&#xb8;" horiz-adv-x="296" 
d="M16 -205q39 -17 102 -17q56 0 90.5 23t34.5 65q0 33 -22 51.5t-61 18.5q-23 0 -40 -4l28 65h-39l-43 -98l10 -8l8 2q15 5 22 5q19 0 33 -11t14 -31q0 -15 -16.5 -27.5t-43.5 -12.5t-61 16z" />
    <glyph glyph-name="onesuperior" unicode="&#xb9;" horiz-adv-x="311" 
d="M32 265h3q70 2 109 2q38 0 108 -2h3v14q-25 0 -37 2t-19 10t-10 23.5t-3 46.5v312q-73 -25 -147 -33v-14q44 0 55.5 -11.5t11.5 -52.5v-201q0 -30 -3 -46t-10.5 -24t-20.5 -10t-40 -2v-14z" />
    <glyph glyph-name="ordmasculine" unicode="&#xba;" horiz-adv-x="311" 
d="M80 558q0 42 15.5 64.5t42.5 22.5q31 0 51.5 -28.5t20.5 -81.5q0 -88 -59 -88q-30 0 -50.5 28.5t-20.5 82.5zM145 668q-61 0 -106.5 -33t-45.5 -89q0 -55 45.5 -88.5t106.5 -33.5t106.5 33.5t45.5 88.5q0 56 -45 89t-107 33z" />
    <glyph glyph-name="guillemotright" unicode="&#xbb;" horiz-adv-x="444" 
d="M255 45l131 101l5 4q36 28 36 39q0 8 -23 24q-14 10 -18 14l-126 102l-19 -13l73 -135l-75 -119zM89 45l131 101l5 4q36 28 36 39q0 8 -23 24q-14 10 -18 14l-126 102l-19 -13l73 -135l-75 -119z" />
    <glyph glyph-name="onequarter" unicode="&#xbc;" horiz-adv-x="778" 
d="M167 -18h62l439 686h-62zM505 166l102 102q89 91 135 134v14h-36q-12 -17 -38.5 -48l-64 -71.5l-82 -84.5l-87.5 -84l6 -22h215v-106h80v350l-80 -67v-117h-150zM32 265h3q70 2 109 2q38 0 108 -2h3v14q-25 0 -37 2t-19 10t-10 23.5t-3 46.5v312q-73 -25 -147 -33v-14
q44 0 55.5 -11.5t11.5 -52.5v-201q0 -30 -3 -46t-10.5 -24t-20.5 -10t-40 -2v-14z" />
    <glyph glyph-name="onehalf" unicode="&#xbd;" horiz-adv-x="778" 
d="M122 -18h62l441 686h-62zM714 0q19 40 54 101l-9 9q-27 -28 -47 -36t-67 -8h-95q19 17 62 50q63 46 94.5 82t31.5 85q0 61 -39 89.5t-104 28.5q-58 0 -95.5 -28t-37.5 -78q0 -24 13 -37t35 -13q24 0 36 11t12 28q0 11 -8.5 25.5t-19.5 22.5q2 18 15.5 31.5t36.5 13.5
q30 0 49 -22.5t19 -62.5q0 -37 -15 -71.5t-38.5 -65t-49 -54.5l-68.5 -62l-29 -25v-2l4 -12h260zM32 265h3q70 2 109 2q38 0 108 -2h3v14q-25 0 -37 2t-19 10t-10 23.5t-3 46.5v312q-73 -25 -147 -33v-14q44 0 55.5 -11.5t11.5 -52.5v-201q0 -30 -3 -46t-10.5 -24t-20.5 -10
t-40 -2v-14z" />
    <glyph glyph-name="threequarters" unicode="&#xbe;" horiz-adv-x="778" 
d="M155 -18h62l441 686h-62zM15 543h16q17 34 29 43t45 9h84l-119 -137l18 -12q26 24 49 24q30 0 46 -26t16 -69q0 -46 -19 -72.5t-55 -26.5q-24 0 -36 12t-17 30q9 14 9 26q0 16 -13 26t-33 10q-19 0 -32.5 -11t-13.5 -29q0 -39 36 -62.5t90 -23.5q73 0 122.5 34.5
t49.5 97.5q0 53 -30 82.5t-92 29.5q-3 0 -10 -1q-9 -2 -14 -2l142 154l-3 12h-3q-80 -2 -123 -2q-38 0 -112 2zM505 166l102 102q89 91 135 134v14h-36q-12 -17 -38.5 -48l-64 -71.5l-82 -84.5l-87.5 -84l6 -22h215v-106h80v350l-80 -67v-117h-150z" />
    <glyph glyph-name="questiondown" unicode="&#xbf;" horiz-adv-x="444" 
d="M241 236q-5 -61 -32 -98.5t-76 -80.5q-47 -41 -70 -74.5t-23 -87.5q0 -65 52 -105t121 -40q87 0 139.5 40t52.5 123q0 20 -6 38q-64 -24 -109 -31q5 -25 5 -65q0 -28 -15 -49.5t-45 -21.5q-33 0 -50 30t-17 67q0 35 13 67t39 77q26 47 39.5 80.5t13.5 70.5q0 32 -6 60
h-26zM250 266q32 0 54.5 22t22.5 55t-22.5 55t-54.5 22t-54.5 -22t-22.5 -55t22.5 -55t54.5 -22z" />
    <glyph glyph-name="Agrave" unicode="&#xc0;" horiz-adv-x="704" 
d="M438 700l-115 139q-39 47 -70 47q-19 0 -33 -13t-14 -28q0 -29 24 -45l150 -100h58zM218 318l87 234h2l82 -234h-171zM-24 -4q53 4 120 4q72 0 129 -4v24q-33 6 -60.5 21.5t-27.5 37.5q0 19 11 46q4 9 5 14l51 141h199l34 -99l8 -22q13 -32 19 -51t6 -32q0 -49 -102 -56
v-24q73 4 167 4q42 0 93.5 -1t87.5 -3v24q-34 0 -63 15.5t-40 45.5l-217 589q-49 -22 -123 -36l18 -48l-196 -457q-24 -56 -46 -79.5t-73 -29.5v-24z" />
    <glyph glyph-name="Aacute" unicode="&#xc1;" horiz-adv-x="704" 
d="M336 700l150 100q24 16 24 45q0 15 -14 28t-33 13q-31 0 -70 -47l-115 -139h58zM218 318l87 234h2l82 -234h-171zM-24 -4q53 4 120 4q72 0 129 -4v24q-33 6 -60.5 21.5t-27.5 37.5q0 19 11 46q4 9 5 14l51 141h199l34 -99l8 -22q13 -32 19 -51t6 -32q0 -49 -102 -56v-24
q73 4 167 4q42 0 93.5 -1t87.5 -3v24q-34 0 -63 15.5t-40 45.5l-217 589q-49 -22 -123 -36l18 -48l-196 -457q-24 -56 -46 -79.5t-73 -29.5v-24z" />
    <glyph glyph-name="Acircumflex" unicode="&#xc2;" horiz-adv-x="704" 
d="M306 876l-115 -176h54l107 108l108 -108h55l-117 176h-92zM218 318l87 234h2l82 -234h-171zM-24 -4q53 4 120 4q72 0 129 -4v24q-33 6 -60.5 21.5t-27.5 37.5q0 19 11 46q4 9 5 14l51 141h199l34 -99l8 -22q13 -32 19 -51t6 -32q0 -49 -102 -56v-24q73 4 167 4
q42 0 93.5 -1t87.5 -3v24q-34 0 -63 15.5t-40 45.5l-217 589q-49 -22 -123 -36l18 -48l-196 -457q-24 -56 -46 -79.5t-73 -29.5v-24z" />
    <glyph glyph-name="Atilde" unicode="&#xc3;" horiz-adv-x="704" 
d="M221 720q4 18 15 34t26 16q17 0 32.5 -6t39.5 -18q25 -13 43.5 -19.5t40.5 -6.5q21 0 38.5 12t31 31.5t21.5 41t11 41.5h-39q-9 -24 -19.5 -37t-31.5 -13q-10 0 -24 6t-36 17q-26 13 -43 20t-32 7q-51 0 -76.5 -34.5t-34.5 -91.5h37zM218 318l87 234h2l82 -234h-171z
M-24 -4q53 4 120 4q72 0 129 -4v24q-33 6 -60.5 21.5t-27.5 37.5q0 19 11 46q4 9 5 14l51 141h199l34 -99l8 -22q13 -32 19 -51t6 -32q0 -49 -102 -56v-24q73 4 167 4q42 0 93.5 -1t87.5 -3v24q-34 0 -63 15.5t-40 45.5l-217 589q-49 -22 -123 -36l18 -48l-196 -457
q-24 -56 -46 -79.5t-73 -29.5v-24z" />
    <glyph glyph-name="Adieresis" unicode="&#xc4;" horiz-adv-x="704" 
d="M451 838q-27 0 -45.5 -18.5t-18.5 -45.5t18.5 -45.5t45.5 -18.5t45.5 18.5t18.5 45.5t-18.5 45.5t-45.5 18.5zM254 838q-27 0 -45.5 -18.5t-18.5 -45.5t18.5 -45.5t45.5 -18.5t45.5 18.5t18.5 45.5t-18.5 45.5t-45.5 18.5zM218 318l87 234h2l82 -234h-171zM-24 -4
q53 4 120 4q72 0 129 -4v24q-33 6 -60.5 21.5t-27.5 37.5q0 19 11 46q4 9 5 14l51 141h199l34 -99l8 -22q13 -32 19 -51t6 -32q0 -49 -102 -56v-24q73 4 167 4q42 0 93.5 -1t87.5 -3v24q-34 0 -63 15.5t-40 45.5l-217 589q-49 -22 -123 -36l18 -48l-196 -457
q-24 -56 -46 -79.5t-73 -29.5v-24z" />
    <glyph glyph-name="Aring" unicode="&#xc5;" horiz-adv-x="704" 
d="M352 702q44 0 75 31t31 75t-31 75t-75 31t-75 -31t-31 -75t31 -75t75 -31zM352 750q-25 0 -41.5 17t-16.5 41t16.5 41t41.5 17t41.5 -17t16.5 -41t-16.5 -41t-41.5 -17zM218 318l87 234h2l82 -234h-171zM-24 -4q53 4 120 4q72 0 129 -4v24q-33 6 -60.5 21.5t-27.5 37.5
q0 19 11 46q4 9 5 14l51 141h199l34 -99l8 -22q13 -32 19 -51t6 -32q0 -49 -102 -56v-24q73 4 167 4q42 0 93.5 -1t87.5 -3v24q-34 0 -63 15.5t-40 45.5l-217 589q-49 -22 -123 -36l18 -48l-196 -457q-24 -56 -46 -79.5t-73 -29.5v-24z" />
    <glyph glyph-name="AE" unicode="&#xc6;" horiz-adv-x="944" 
d="M250 366l137 252h16v-252h-153zM887 462q-11 68 -11 130q0 37 4 64h-688v-24q45 0 79.5 -17t34.5 -49q0 -16 -6.5 -32.5t-19.5 -40.5l-196 -353q-32 -57 -60 -83t-83 -37v-24h3q88 4 134 4q45 0 135 -4v24q-39 4 -65 20.5t-26 49.5q0 8 6.5 25t15.5 36.5t22.5 45.5
l26.5 50l27.5 54t12.5 27h170v-216q0 -48 -20.5 -68t-83.5 -24v-24q188 4 282 4q93 0 281 -4q29 105 87 217l-17 16q-32 -46 -62.5 -80.5t-66 -60.5t-79.5 -40t-98 -14q-43 0 -89 11v289q52 0 82.5 -4.5t51 -17.5t34 -38t24.5 -70h26q-5 27 -7.5 65.5t-2.5 69.5q0 70 15 155
h-29q-12 -44 -26 -69.5t-34.5 -38.5t-51 -17.5t-82.5 -4.5v262h85q47 0 84 -6.5t68 -24.5t53 -51.5t33 -86.5z" />
    <glyph glyph-name="Ccedilla" unicode="&#xc7;" horiz-adv-x="722" 
d="M264 -205q39 -17 102 -17q56 0 90.5 23t34.5 65q0 33 -22 51.5t-61 18.5q-23 0 -40 -4l28 65h-39l-43 -98l10 -8l8 2q15 5 22 5q19 0 33 -11t14 -31q0 -15 -16.5 -27.5t-43.5 -12.5t-61 16zM657 391q-11 86 -11 167q0 13 1 39q1 25 1 38q-3 -1 -11 -1q-4 0 -42 8
q-44 8 -53 10q-41 8 -77 13t-62 5q-79 0 -146 -24.5t-116 -70.5t-75.5 -109.5t-26.5 -140.5t25.5 -141t72 -109.5t110 -70t137.5 -24.5q111 0 195.5 51.5t142.5 149.5l-24 25q-20 -30 -43.5 -56.5t-54.5 -49t-69 -35.5t-83 -13q-127 0 -196 79.5t-69 207.5q0 52 11.5 102
t36.5 92t66.5 67.5t98.5 25.5q44 0 84 -19t71.5 -52t52 -75.5t28.5 -88.5h25z" />
    <glyph glyph-name="Egrave" unicode="&#xc8;" horiz-adv-x="704" 
d="M438 700l-115 139q-39 47 -70 47q-19 0 -33 -13t-14 -28q0 -29 24 -45l150 -100h58zM17 -4q37 2 114 3t176 1q173 0 310 -4q28 89 87 215l-19 14q-54 -96 -133 -143.5t-178 -47.5q-69 0 -119 14v297h52q63 0 103 -30t56 -100h20q0 19 -2 58q-2 56 -2 85q0 28 2 86
q2 37 2 56h-20q-15 -65 -58 -95t-101 -30h-52v243h112q97 0 150.5 -37.5t78.5 -115.5l22 4q-5 22 -6.5 48.5t-1.5 67.5q0 47 1 71h-9q-258 -6 -380 -6q-46 0 -137 4l-68 2v-28q64 -3 84 -28t20 -86v-380q0 -63 -19.5 -87t-84.5 -27v-24z" />
    <glyph glyph-name="Eacute" unicode="&#xc9;" horiz-adv-x="704" 
d="M336 700l150 100q24 16 24 45q0 15 -14 28t-33 13q-31 0 -70 -47l-115 -139h58zM17 -4q37 2 114 3t176 1q173 0 310 -4q28 89 87 215l-19 14q-54 -96 -133 -143.5t-178 -47.5q-69 0 -119 14v297h52q63 0 103 -30t56 -100h20q0 19 -2 58q-2 56 -2 85q0 28 2 86q2 37 2 56
h-20q-15 -65 -58 -95t-101 -30h-52v243h112q97 0 150.5 -37.5t78.5 -115.5l22 4q-5 22 -6.5 48.5t-1.5 67.5q0 47 1 71h-9q-258 -6 -380 -6q-46 0 -137 4l-68 2v-28q64 -3 84 -28t20 -86v-380q0 -63 -19.5 -87t-84.5 -27v-24z" />
    <glyph glyph-name="Ecircumflex" unicode="&#xca;" horiz-adv-x="704" 
d="M306 876l-115 -176h54l107 108l108 -108h55l-117 176h-92zM17 -4q37 2 114 3t176 1q173 0 310 -4q28 89 87 215l-19 14q-54 -96 -133 -143.5t-178 -47.5q-69 0 -119 14v297h52q63 0 103 -30t56 -100h20q0 19 -2 58q-2 56 -2 85q0 28 2 86q2 37 2 56h-20q-15 -65 -58 -95
t-101 -30h-52v243h112q97 0 150.5 -37.5t78.5 -115.5l22 4q-5 22 -6.5 48.5t-1.5 67.5q0 47 1 71h-9q-258 -6 -380 -6q-46 0 -137 4l-68 2v-28q64 -3 84 -28t20 -86v-380q0 -63 -19.5 -87t-84.5 -27v-24z" />
    <glyph glyph-name="Edieresis" unicode="&#xcb;" horiz-adv-x="704" 
d="M451 838q-27 0 -45.5 -18.5t-18.5 -45.5t18.5 -45.5t45.5 -18.5t45.5 18.5t18.5 45.5t-18.5 45.5t-45.5 18.5zM254 838q-27 0 -45.5 -18.5t-18.5 -45.5t18.5 -45.5t45.5 -18.5t45.5 18.5t18.5 45.5t-18.5 45.5t-45.5 18.5zM17 -4q37 2 114 3t176 1q173 0 310 -4
q28 89 87 215l-19 14q-54 -96 -133 -143.5t-178 -47.5q-69 0 -119 14v297h52q63 0 103 -30t56 -100h20q0 19 -2 58q-2 56 -2 85q0 28 2 86q2 37 2 56h-20q-15 -65 -58 -95t-101 -30h-52v243h112q97 0 150.5 -37.5t78.5 -115.5l22 4q-5 22 -6.5 48.5t-1.5 67.5q0 47 1 71h-9
q-258 -6 -380 -6q-46 0 -137 4l-68 2v-28q64 -3 84 -28t20 -86v-380q0 -63 -19.5 -87t-84.5 -27v-24z" />
    <glyph glyph-name="Igrave" unicode="&#xcc;" horiz-adv-x="407" 
d="M290 700l-115 139q-39 47 -70 47q-19 0 -33 -13t-14 -28q0 -29 24 -45l150 -100h58zM25 632q62 -2 84.5 -26t22.5 -84v-424q0 -39 -25 -57t-86 -21v-24q80 4 180 4q97 0 174 -4l2 24q-60 3 -85.5 21t-25.5 57v424q0 61 23 84.5t91 25.5v24h-3q-114 -6 -170 -6
q-61 0 -179 6h-3v-24z" />
    <glyph glyph-name="Iacute" unicode="&#xcd;" horiz-adv-x="407" 
d="M188 700l150 100q24 16 24 45q0 15 -14 28t-33 13q-31 0 -70 -47l-115 -139h58zM25 632q62 -2 84.5 -26t22.5 -84v-424q0 -39 -25 -57t-86 -21v-24q80 4 180 4q97 0 174 -4l2 24q-60 3 -85.5 21t-25.5 57v424q0 61 23 84.5t91 25.5v24h-3q-114 -6 -170 -6q-61 0 -179 6
h-3v-24z" />
    <glyph glyph-name="Icircumflex" unicode="&#xce;" horiz-adv-x="407" 
d="M158 876l-115 -176h54l107 108l108 -108h55l-117 176h-92zM25 632q62 -2 84.5 -26t22.5 -84v-424q0 -39 -25 -57t-86 -21v-24q80 4 180 4q97 0 174 -4l2 24q-60 3 -85.5 21t-25.5 57v424q0 61 23 84.5t91 25.5v24h-3q-114 -6 -170 -6q-61 0 -179 6h-3v-24z" />
    <glyph glyph-name="Idieresis" unicode="&#xcf;" horiz-adv-x="407" 
d="M303 838q-27 0 -45.5 -18.5t-18.5 -45.5t18.5 -45.5t45.5 -18.5t45.5 18.5t18.5 45.5t-18.5 45.5t-45.5 18.5zM106 838q-27 0 -45.5 -18.5t-18.5 -45.5t18.5 -45.5t45.5 -18.5t45.5 18.5t18.5 45.5t-18.5 45.5t-45.5 18.5zM25 632q62 -2 84.5 -26t22.5 -84v-424
q0 -39 -25 -57t-86 -21v-24q80 4 180 4q97 0 174 -4l2 24q-60 3 -85.5 21t-25.5 57v424q0 61 23 84.5t91 25.5v24h-3q-114 -6 -170 -6q-61 0 -179 6h-3v-24z" />
    <glyph glyph-name="Eth" unicode="&#xd0;" horiz-adv-x="852" 
d="M21 -4q84 4 163 4q44 0 78 -1t68 -3l69 -3t58 -1q72 0 135.5 19t112.5 57.5t76.5 98t27.5 137.5q0 84 -31.5 151.5t-85.5 113t-121 68.5t-137 23q-67 0 -172 -6q-80 -4 -116 -4q-35 0 -107 7l-20 2v-24q38 -3 59 -9.5t31.5 -18.5t13.5 -32.5t3 -57.5v-141h-102v-42h102
v-192q0 -37 -3 -57.5t-13 -32.5t-31 -18.5t-58 -9.5v-28zM260 608q61 16 117 16q67 0 120.5 -23t91 -64.5t57 -98t19.5 -123.5q0 -142 -68.5 -214.5t-190.5 -72.5q-65 0 -105.5 12t-40.5 38v256h190v42h-190v232z" />
    <glyph glyph-name="Ntilde" unicode="&#xd1;" horiz-adv-x="796" 
d="M273 720q4 18 15 34t26 16q17 0 32.5 -6t39.5 -18q25 -13 43.5 -19.5t40.5 -6.5q21 0 38.5 12t31 31.5t21.5 41t11 41.5h-39q-9 -24 -19.5 -37t-31.5 -13q-10 0 -24 6t-36 17q-26 13 -43 20t-32 7q-51 0 -76.5 -34.5t-34.5 -91.5h37zM0 -4q73 4 164 4q81 0 146 -4v24
q-48 7 -72.5 16t-37.5 26t-17 46t-4 84v339l96 -106.5l119.5 -140.5l123 -155t102.5 -144h59v459q0 60 4 93.5t15 53.5t33.5 29.5t62.5 11.5v24q-69 -6 -139 -6q-47 0 -141 6v-24q54 -8 81 -27.5t35 -67.5q5 -32 8 -79t5 -106q2 -70 2 -183h-2q-78 104 -248 305l-152 182
q-67 -6 -136 -6q-35 0 -105 6v-24l9 -2q47 -13 77.5 -26.5t52.5 -39.5l-4 -389q0 -48 -4.5 -74t-17.5 -41.5t-39 -24t-76 -15.5v-24z" />
    <glyph glyph-name="Ograve" unicode="&#xd2;" horiz-adv-x="852" 
d="M512 700l-115 139q-39 47 -70 47q-19 0 -33 -13t-14 -28q0 -29 24 -45l150 -100h58zM422 670q-85 0 -155.5 -23.5t-121.5 -68t-79 -109t-28 -144.5t27.5 -144.5t79 -109t122 -68t155.5 -23.5t155.5 23.5t122 68t79 109t27.5 144.5t-27.5 144.5t-79 109t-122 68
t-155.5 23.5zM422 634q60 0 106 -24.5t75.5 -67t44 -98.5t14.5 -119t-14.5 -118.5t-44 -98.5t-75.5 -67.5t-106 -24.5t-106 24.5t-75.5 67.5t-44 98.5t-14.5 118.5t14.5 119t44 98.5t75.5 67t106 24.5z" />
    <glyph glyph-name="Oacute" unicode="&#xd3;" horiz-adv-x="852" 
d="M410 700l150 100q24 16 24 45q0 15 -14 28t-33 13q-31 0 -70 -47l-115 -139h58zM422 670q-85 0 -155.5 -23.5t-121.5 -68t-79 -109t-28 -144.5t27.5 -144.5t79 -109t122 -68t155.5 -23.5t155.5 23.5t122 68t79 109t27.5 144.5t-27.5 144.5t-79 109t-122 68t-155.5 23.5z
M422 634q60 0 106 -24.5t75.5 -67t44 -98.5t14.5 -119t-14.5 -118.5t-44 -98.5t-75.5 -67.5t-106 -24.5t-106 24.5t-75.5 67.5t-44 98.5t-14.5 118.5t14.5 119t44 98.5t75.5 67t106 24.5z" />
    <glyph glyph-name="Ocircumflex" unicode="&#xd4;" horiz-adv-x="852" 
d="M380 876l-115 -176h54l107 108l108 -108h55l-117 176h-92zM422 670q-85 0 -155.5 -23.5t-121.5 -68t-79 -109t-28 -144.5t27.5 -144.5t79 -109t122 -68t155.5 -23.5t155.5 23.5t122 68t79 109t27.5 144.5t-27.5 144.5t-79 109t-122 68t-155.5 23.5zM422 634
q60 0 106 -24.5t75.5 -67t44 -98.5t14.5 -119t-14.5 -118.5t-44 -98.5t-75.5 -67.5t-106 -24.5t-106 24.5t-75.5 67.5t-44 98.5t-14.5 118.5t14.5 119t44 98.5t75.5 67t106 24.5z" />
    <glyph glyph-name="Otilde" unicode="&#xd5;" horiz-adv-x="852" 
d="M295 720q4 18 15 34t26 16q17 0 32.5 -6t39.5 -18q25 -13 43.5 -19.5t40.5 -6.5q21 0 38.5 12t31 31.5t21.5 41t11 41.5h-39q-9 -24 -19.5 -37t-31.5 -13q-10 0 -24 6t-36 17q-26 13 -43 20t-32 7q-51 0 -76.5 -34.5t-34.5 -91.5h37zM422 670q-85 0 -155.5 -23.5
t-121.5 -68t-79 -109t-28 -144.5t27.5 -144.5t79 -109t122 -68t155.5 -23.5t155.5 23.5t122 68t79 109t27.5 144.5t-27.5 144.5t-79 109t-122 68t-155.5 23.5zM422 634q60 0 106 -24.5t75.5 -67t44 -98.5t14.5 -119t-14.5 -118.5t-44 -98.5t-75.5 -67.5t-106 -24.5
t-106 24.5t-75.5 67.5t-44 98.5t-14.5 118.5t14.5 119t44 98.5t75.5 67t106 24.5z" />
    <glyph glyph-name="Odieresis" unicode="&#xd6;" horiz-adv-x="852" 
d="M525 838q-27 0 -45.5 -18.5t-18.5 -45.5t18.5 -45.5t45.5 -18.5t45.5 18.5t18.5 45.5t-18.5 45.5t-45.5 18.5zM328 838q-27 0 -45.5 -18.5t-18.5 -45.5t18.5 -45.5t45.5 -18.5t45.5 18.5t18.5 45.5t-18.5 45.5t-45.5 18.5zM422 670q-85 0 -155.5 -23.5t-121.5 -68
t-79 -109t-28 -144.5t27.5 -144.5t79 -109t122 -68t155.5 -23.5t155.5 23.5t122 68t79 109t27.5 144.5t-27.5 144.5t-79 109t-122 68t-155.5 23.5zM422 634q60 0 106 -24.5t75.5 -67t44 -98.5t14.5 -119t-14.5 -118.5t-44 -98.5t-75.5 -67.5t-106 -24.5t-106 24.5
t-75.5 67.5t-44 98.5t-14.5 118.5t14.5 119t44 98.5t75.5 67t106 24.5z" />
    <glyph glyph-name="multiply" unicode="&#xd7;" horiz-adv-x="600" 
d="M418 0l54 54l-133 133l133 133l-54 54l-133 -134l-133 134l-54 -54l133 -133l-133 -133l54 -54l133 134z" />
    <glyph glyph-name="Oslash" unicode="&#xd8;" horiz-adv-x="852" 
d="M230 126q-24 39 -36 90t-12 109q0 63 14.5 119t44 98.5t75.5 67t106 24.5q52 0 93 -18.5t70 -51.5zM611 529q26 -40 38.5 -92.5t12.5 -111.5q0 -63 -14.5 -118.5t-44 -98.5t-75.5 -67.5t-106 -24.5q-54 0 -95.5 19.5t-71.5 55.5zM633 623q-89 47 -211 47
q-85 0 -155.5 -23.5t-121.5 -68t-79 -109t-28 -144.5q0 -89 34.5 -158.5t97.5 -114.5l-96 -118l32 -28l100 124q89 -50 216 -50q85 0 155.5 23.5t122 68t79 109t27.5 144.5q0 91 -35.5 161t-100.5 115l80 99l-32 28z" />
    <glyph glyph-name="Ugrave" unicode="&#xd9;" horiz-adv-x="796" 
d="M490 700l-115 139q-39 47 -70 47q-19 0 -33 -13t-14 -28q0 -29 24 -45l150 -100h58zM7 632q72 -4 92 -29.5t20 -86.5v-328q0 -38 18 -75t54.5 -67t92.5 -48t128 -18q126 0 197 69t71 193v274q0 37 3 57.5t12 32.5t28 18t52 8v24q-80 -6 -122 -6q-34 0 -68.5 1.5
t-61.5 4.5v-24q35 0 57 -8t35 -26.5t18 -50t5 -83.5v-246q0 -30 -9.5 -61t-32.5 -59t-63 -45t-97 -17q-48 0 -84 12.5t-59 33.5t-33.5 47.5t-10.5 54.5v332q0 37 3 57.5t13.5 32.5t31.5 18t59 8l3 24q-88 -6 -177 -6q-88 0 -175 6v-24z" />
    <glyph glyph-name="Uacute" unicode="&#xda;" horiz-adv-x="796" 
d="M388 700l150 100q24 16 24 45q0 15 -14 28t-33 13q-31 0 -70 -47l-115 -139h58zM7 632q72 -4 92 -29.5t20 -86.5v-328q0 -38 18 -75t54.5 -67t92.5 -48t128 -18q126 0 197 69t71 193v274q0 37 3 57.5t12 32.5t28 18t52 8v24q-80 -6 -122 -6q-34 0 -68.5 1.5t-61.5 4.5
v-24q35 0 57 -8t35 -26.5t18 -50t5 -83.5v-246q0 -30 -9.5 -61t-32.5 -59t-63 -45t-97 -17q-48 0 -84 12.5t-59 33.5t-33.5 47.5t-10.5 54.5v332q0 37 3 57.5t13.5 32.5t31.5 18t59 8l3 24q-88 -6 -177 -6q-88 0 -175 6v-24z" />
    <glyph glyph-name="Ucircumflex" unicode="&#xdb;" horiz-adv-x="796" 
d="M358 876l-115 -176h54l107 108l108 -108h55l-117 176h-92zM7 632q72 -4 92 -29.5t20 -86.5v-328q0 -38 18 -75t54.5 -67t92.5 -48t128 -18q126 0 197 69t71 193v274q0 37 3 57.5t12 32.5t28 18t52 8v24q-80 -6 -122 -6q-34 0 -68.5 1.5t-61.5 4.5v-24q35 0 57 -8
t35 -26.5t18 -50t5 -83.5v-246q0 -30 -9.5 -61t-32.5 -59t-63 -45t-97 -17q-48 0 -84 12.5t-59 33.5t-33.5 47.5t-10.5 54.5v332q0 37 3 57.5t13.5 32.5t31.5 18t59 8l3 24q-88 -6 -177 -6q-88 0 -175 6v-24z" />
    <glyph glyph-name="Udieresis" unicode="&#xdc;" horiz-adv-x="796" 
d="M503 838q-27 0 -45.5 -18.5t-18.5 -45.5t18.5 -45.5t45.5 -18.5t45.5 18.5t18.5 45.5t-18.5 45.5t-45.5 18.5zM306 838q-27 0 -45.5 -18.5t-18.5 -45.5t18.5 -45.5t45.5 -18.5t45.5 18.5t18.5 45.5t-18.5 45.5t-45.5 18.5zM7 632q72 -4 92 -29.5t20 -86.5v-328
q0 -38 18 -75t54.5 -67t92.5 -48t128 -18q126 0 197 69t71 193v274q0 37 3 57.5t12 32.5t28 18t52 8v24q-80 -6 -122 -6q-34 0 -68.5 1.5t-61.5 4.5v-24q35 0 57 -8t35 -26.5t18 -50t5 -83.5v-246q0 -30 -9.5 -61t-32.5 -59t-63 -45t-97 -17q-48 0 -84 12.5t-59 33.5
t-33.5 47.5t-10.5 54.5v332q0 37 3 57.5t13.5 32.5t31.5 18t59 8l3 24q-88 -6 -177 -6q-88 0 -175 6v-24z" />
    <glyph glyph-name="Yacute" unicode="&#xdd;" horiz-adv-x="722" 
d="M345 700l150 100q24 16 24 45q0 15 -14 28t-33 13q-31 0 -70 -47l-115 -139h58zM-27 632q43 0 71.5 -18t56.5 -56l208 -274v-173q0 -55 -19.5 -72t-85.5 -19v-24q77 4 176 4q93 0 169 -4l-1 24q-66 2 -85.5 19t-19.5 72v181l127 190q6 8 11 16q49 74 80.5 103.5
t81.5 30.5v24q-84 -6 -127 -6q-47 0 -139 6v-24q34 -1 54.5 -15t20.5 -46q0 -14 -13.5 -45t-32 -65.5l-37.5 -67l-38 -64.5q-2 -4 -6 -10q-21 32 -46 66.5l-55 73.5l-61.5 85t-19.5 38q0 25 24.5 37.5t61.5 12.5v24q-90 -6 -181 -6q-59 0 -175 6v-24z" />
    <glyph glyph-name="Thorn" unicode="&#xde;" horiz-adv-x="648" 
d="M132 98q0 -45 -28.5 -60t-82.5 -18v-24q80 4 180 4q97 0 174 -4v24q-53 3 -81 18t-28 60v96q50 -10 79.5 -13.5t54.5 -3.5q42 0 80.5 11t69 33t48.5 55t18 76q0 49 -19.5 86.5t-53 62.5t-76 37t-87.5 12q-17 0 -64 -2q-33 -1 -49 -2q4 47 28 65.5t85 20.5v24h-3
q-114 -6 -170 -6q-61 0 -179 6h-3v-24q62 -2 84.5 -26t22.5 -84v-424zM266 500q31 8 50 11t38 3q66 0 97 -41t31 -110q0 -68 -35.5 -109t-101.5 -41q-19 0 -73 13q-4 1 -6 1v273z" />
    <glyph glyph-name="germandbls" unicode="&#xdf;" horiz-adv-x="574" 
d="M181 554q0 53 24.5 86.5t56.5 33.5t55 -34t23 -80q0 -31 -12 -57.5t-35 -59.5l-9 -13q-20 -29 -29 -46.5t-9 -36.5q0 -30 18.5 -55t55.5 -61q44 -42 67 -75.5t23 -78.5q0 -23 -12.5 -40t-33.5 -17q-40 0 -62 32t-32 79h-21l4 -111q16 -11 50.5 -20.5t60.5 -9.5
q66 0 112 36t46 105q0 49 -29.5 88t-84.5 90q-39 34 -57.5 56.5t-18.5 43.5q0 23 13 43t38 47l2 3v0q27 30 40 50.5t13 43.5q0 56 -42.5 86t-105.5 30q-42 0 -82.5 -18t-73 -54t-52 -89.5t-19.5 -120.5v-56h-41l-8 -30h49v-269q0 -33 -19 -46t-47 -13v-20q23 2 50 3t74 1
q50 0 75 -1t45 -3v20q-24 0 -42 13.5t-18 45.5v479z" />
    <glyph glyph-name="agrave" unicode="&#xe0;" horiz-adv-x="481" 
d="M304 444l-115 139q-39 47 -70 47q-19 0 -33 -13t-14 -28q0 -29 24 -45l150 -100h58zM130 110q0 32 24.5 50t57.5 18q29 0 53 -4q-2 -36 -2 -54q0 -16 2 -46v-5q-26 -25 -67 -25q-32 0 -50 17.5t-18 48.5zM265 210q-52 0 -94 -4t-81 -17t-63.5 -40.5t-24.5 -72.5
q0 -38 34.5 -65t78.5 -27q41 0 82 14t81 39q23 -23 45 -38t45 -15q24 0 46.5 16t52.5 46q18 17 25 23l-16 18q-16 -14 -28.5 -21.5t-27.5 -7.5q-24 0 -33 16t-9 42q0 14 2 67q3 66 3 90q0 33 -16 55.5t-42.5 36t-59 19.5t-67.5 6q-30 0 -57.5 -4.5t-50.5 -16t-38.5 -32.5
t-19.5 -52q38 -5 113 -22q14 -3 21 -5q-2 12 -2 28q0 28 11.5 47t41.5 19q48 0 48 -68v-74z" />
    <glyph glyph-name="aacute" unicode="&#xe1;" horiz-adv-x="481" 
d="M202 444l150 100q24 16 24 45q0 15 -14 28t-33 13q-31 0 -70 -47l-115 -139h58zM130 110q0 32 24.5 50t57.5 18q29 0 53 -4q-2 -36 -2 -54q0 -16 2 -46v-5q-26 -25 -67 -25q-32 0 -50 17.5t-18 48.5zM265 210q-52 0 -94 -4t-81 -17t-63.5 -40.5t-24.5 -72.5
q0 -38 34.5 -65t78.5 -27q41 0 82 14t81 39q23 -23 45 -38t45 -15q24 0 46.5 16t52.5 46q18 17 25 23l-16 18q-16 -14 -28.5 -21.5t-27.5 -7.5q-24 0 -33 16t-9 42q0 14 2 67q3 66 3 90q0 33 -16 55.5t-42.5 36t-59 19.5t-67.5 6q-30 0 -57.5 -4.5t-50.5 -16t-38.5 -32.5
t-19.5 -52q38 -5 113 -22q14 -3 21 -5q-2 12 -2 28q0 28 11.5 47t41.5 19q48 0 48 -68v-74z" />
    <glyph glyph-name="acircumflex" unicode="&#xe2;" horiz-adv-x="481" 
d="M172 620l-115 -176h54l107 108l108 -108h55l-117 176h-92zM130 110q0 32 24.5 50t57.5 18q29 0 53 -4q-2 -36 -2 -54q0 -16 2 -46v-5q-26 -25 -67 -25q-32 0 -50 17.5t-18 48.5zM265 210q-52 0 -94 -4t-81 -17t-63.5 -40.5t-24.5 -72.5q0 -38 34.5 -65t78.5 -27
q41 0 82 14t81 39q23 -23 45 -38t45 -15q24 0 46.5 16t52.5 46q18 17 25 23l-16 18q-16 -14 -28.5 -21.5t-27.5 -7.5q-24 0 -33 16t-9 42q0 14 2 67q3 66 3 90q0 33 -16 55.5t-42.5 36t-59 19.5t-67.5 6q-30 0 -57.5 -4.5t-50.5 -16t-38.5 -32.5t-19.5 -52q38 -5 113 -22
q14 -3 21 -5q-2 12 -2 28q0 28 11.5 47t41.5 19q48 0 48 -68v-74z" />
    <glyph glyph-name="atilde" unicode="&#xe3;" horiz-adv-x="481" 
d="M87 464q4 18 15 34t26 16q17 0 32.5 -6t39.5 -18q25 -13 43.5 -19.5t40.5 -6.5q21 0 38.5 12t31 31.5t21.5 41t11 41.5h-39q-9 -24 -19.5 -37t-31.5 -13q-10 0 -24 6t-36 17q-26 13 -43 20t-32 7q-51 0 -76.5 -34.5t-34.5 -91.5h37zM130 110q0 32 24.5 50t57.5 18
q29 0 53 -4q-2 -36 -2 -54q0 -16 2 -46v-5q-26 -25 -67 -25q-32 0 -50 17.5t-18 48.5zM265 210q-52 0 -94 -4t-81 -17t-63.5 -40.5t-24.5 -72.5q0 -38 34.5 -65t78.5 -27q41 0 82 14t81 39q23 -23 45 -38t45 -15q24 0 46.5 16t52.5 46q18 17 25 23l-16 18
q-16 -14 -28.5 -21.5t-27.5 -7.5q-24 0 -33 16t-9 42q0 14 2 67q3 66 3 90q0 33 -16 55.5t-42.5 36t-59 19.5t-67.5 6q-30 0 -57.5 -4.5t-50.5 -16t-38.5 -32.5t-19.5 -52q38 -5 113 -22q14 -3 21 -5q-2 12 -2 28q0 28 11.5 47t41.5 19q48 0 48 -68v-74z" />
    <glyph glyph-name="adieresis" unicode="&#xe4;" horiz-adv-x="481" 
d="M317 582q-27 0 -45.5 -18.5t-18.5 -45.5t18.5 -45.5t45.5 -18.5t45.5 18.5t18.5 45.5t-18.5 45.5t-45.5 18.5zM120 582q-27 0 -45.5 -18.5t-18.5 -45.5t18.5 -45.5t45.5 -18.5t45.5 18.5t18.5 45.5t-18.5 45.5t-45.5 18.5zM130 110q0 32 24.5 50t57.5 18q29 0 53 -4
q-2 -36 -2 -54q0 -16 2 -46v-5q-26 -25 -67 -25q-32 0 -50 17.5t-18 48.5zM265 210q-52 0 -94 -4t-81 -17t-63.5 -40.5t-24.5 -72.5q0 -38 34.5 -65t78.5 -27q41 0 82 14t81 39q23 -23 45 -38t45 -15q24 0 46.5 16t52.5 46q18 17 25 23l-16 18q-16 -14 -28.5 -21.5
t-27.5 -7.5q-24 0 -33 16t-9 42q0 14 2 67q3 66 3 90q0 33 -16 55.5t-42.5 36t-59 19.5t-67.5 6q-30 0 -57.5 -4.5t-50.5 -16t-38.5 -32.5t-19.5 -52q38 -5 113 -22q14 -3 21 -5q-2 12 -2 28q0 28 11.5 47t41.5 19q48 0 48 -68v-74z" />
    <glyph glyph-name="aring" unicode="&#xe5;" horiz-adv-x="481" 
d="M218 446q44 0 75 31t31 75t-31 75t-75 31t-75 -31t-31 -75t31 -75t75 -31zM218 494q-25 0 -41.5 17t-16.5 41t16.5 41t41.5 17t41.5 -17t16.5 -41t-16.5 -41t-41.5 -17zM130 110q0 32 24.5 50t57.5 18q29 0 53 -4q-2 -36 -2 -54q0 -16 2 -46v-5q-26 -25 -67 -25
q-32 0 -50 17.5t-18 48.5zM265 210q-52 0 -94 -4t-81 -17t-63.5 -40.5t-24.5 -72.5q0 -38 34.5 -65t78.5 -27q41 0 82 14t81 39q23 -23 45 -38t45 -15q24 0 46.5 16t52.5 46q18 17 25 23l-16 18q-16 -14 -28.5 -21.5t-27.5 -7.5q-24 0 -33 16t-9 42q0 14 2 67q3 66 3 90
q0 33 -16 55.5t-42.5 36t-59 19.5t-67.5 6q-30 0 -57.5 -4.5t-50.5 -16t-38.5 -32.5t-19.5 -52q38 -5 113 -22q14 -3 21 -5q-2 12 -2 28q0 28 11.5 47t41.5 19q48 0 48 -68v-74z" />
    <glyph glyph-name="ae" unicode="&#xe6;" horiz-adv-x="704" 
d="M662 189q-2 87 -54.5 144t-135.5 57q-38 0 -68.5 -9.5t-62.5 -30.5q-22 19 -56.5 29.5t-66.5 10.5q-85 0 -136 -28.5t-55 -86.5q37 -1 69 -4.5t61 -13.5q-2 10 -2 37q0 26 17 42t42 16q19 0 31.5 -13t12.5 -34v-95q-126 0 -191 -33.5t-65 -94.5q0 -50 35 -74t88 -24
q44 0 89.5 18.5t81.5 48.5q25 -32 67.5 -49.5t86.5 -17.5q66 0 116 22.5t95 68.5l-16 27q-31 -27 -62.5 -42.5t-70.5 -15.5q-56 0 -92.5 42t-37.5 103h280zM124 109q0 36 29.5 52.5t70.5 16.5q14 0 34 -2q0 -52 20 -95q-39 -37 -82 -37q-32 0 -52 16.5t-20 48.5zM380 228
q0 23 3.5 44t13 39t27 29.5t43.5 11.5q34 0 52.5 -30t18.5 -65q0 -16 -4.5 -23t-21.5 -7z" />
    <glyph glyph-name="ccedilla" unicode="&#xe7;" horiz-adv-x="444" 
d="M102 -205q39 -17 102 -17q56 0 90.5 23t34.5 65q0 33 -22 51.5t-61 18.5q-23 0 -40 -4l28 65h-39l-43 -98l10 -8l8 2q15 5 22 5q19 0 33 -11t14 -31q0 -15 -16.5 -27.5t-43.5 -12.5t-61 16zM402 87q-32 -23 -58.5 -33t-57.5 -10q-70 0 -113 52t-43 134q0 53 27.5 87.5
t74.5 34.5q29 0 52 -14.5t40 -37t28.5 -46.5t22.5 -52h19q-5 36 -8 89t-3 87h-25q-18 0 -58 6t-64 6q-45 0 -87 -13.5t-75.5 -40t-52.5 -64.5t-19 -85t19 -85t52.5 -64t75.5 -40t87 -14q49 0 95.5 20t93.5 60z" />
    <glyph glyph-name="egrave" unicode="&#xe8;" horiz-adv-x="463" 
d="M318 444l-115 139q-39 47 -70 47q-19 0 -33 -13t-14 -28q0 -29 24 -45l150 -100h58zM137 226q0 20 4.5 42t14 41.5t25 31t37.5 11.5q42 0 61 -26t19 -72q0 -17 -7 -22.5t-27 -5.5h-127zM426 188q-8 90 -59.5 146t-144.5 56q-97 0 -155 -55.5t-58 -147.5t58 -147.5
t155 -55.5q56 0 108.5 24.5t91.5 67.5l-24 26q-22 -27 -55.5 -42.5t-69.5 -15.5q-63 0 -99.5 40t-36.5 104h289z" />
    <glyph glyph-name="eacute" unicode="&#xe9;" horiz-adv-x="463" 
d="M216 444l150 100q24 16 24 45q0 15 -14 28t-33 13q-31 0 -70 -47l-115 -139h58zM137 226q0 20 4.5 42t14 41.5t25 31t37.5 11.5q42 0 61 -26t19 -72q0 -17 -7 -22.5t-27 -5.5h-127zM426 188q-8 90 -59.5 146t-144.5 56q-97 0 -155 -55.5t-58 -147.5t58 -147.5t155 -55.5
q56 0 108.5 24.5t91.5 67.5l-24 26q-22 -27 -55.5 -42.5t-69.5 -15.5q-63 0 -99.5 40t-36.5 104h289z" />
    <glyph glyph-name="ecircumflex" unicode="&#xea;" horiz-adv-x="463" 
d="M186 620l-115 -176h54l107 108l108 -108h55l-117 176h-92zM137 226q0 20 4.5 42t14 41.5t25 31t37.5 11.5q42 0 61 -26t19 -72q0 -17 -7 -22.5t-27 -5.5h-127zM426 188q-8 90 -59.5 146t-144.5 56q-97 0 -155 -55.5t-58 -147.5t58 -147.5t155 -55.5q56 0 108.5 24.5
t91.5 67.5l-24 26q-22 -27 -55.5 -42.5t-69.5 -15.5q-63 0 -99.5 40t-36.5 104h289z" />
    <glyph glyph-name="edieresis" unicode="&#xeb;" horiz-adv-x="463" 
d="M331 582q-27 0 -45.5 -18.5t-18.5 -45.5t18.5 -45.5t45.5 -18.5t45.5 18.5t18.5 45.5t-18.5 45.5t-45.5 18.5zM134 582q-27 0 -45.5 -18.5t-18.5 -45.5t18.5 -45.5t45.5 -18.5t45.5 18.5t18.5 45.5t-18.5 45.5t-45.5 18.5zM137 226q0 20 4.5 42t14 41.5t25 31t37.5 11.5
q42 0 61 -26t19 -72q0 -17 -7 -22.5t-27 -5.5h-127zM426 188q-8 90 -59.5 146t-144.5 56q-97 0 -155 -55.5t-58 -147.5t58 -147.5t155 -55.5q56 0 108.5 24.5t91.5 67.5l-24 26q-22 -27 -55.5 -42.5t-69.5 -15.5q-63 0 -99.5 40t-36.5 104h289z" />
    <glyph glyph-name="igrave" unicode="&#xec;" horiz-adv-x="296" 
d="M211 444l-115 139q-39 47 -70 47q-19 0 -33 -13t-14 -28q0 -29 24 -45l150 -100h58zM268 16q-33 0 -53 13t-20 46v225q0 22 2 62q1 22 1 34q-38 -9 -88 -14.5t-105 -7.5v-20q72 0 72 -50v-229q0 -33 -20 -46t-52 -13v-20q30 2 56.5 3t73.5 1q44 0 68 -1t57 -3h8v20z" />
    <glyph glyph-name="iacute" unicode="&#xed;" horiz-adv-x="296" 
d="M109 444l150 100q24 16 24 45q0 15 -14 28t-33 13q-31 0 -70 -47l-115 -139h58zM268 16q-33 0 -53 13t-20 46v225q0 22 2 62q1 22 1 34q-38 -9 -88 -14.5t-105 -7.5v-20q72 0 72 -50v-229q0 -33 -20 -46t-52 -13v-20q30 2 56.5 3t73.5 1q44 0 68 -1t57 -3h8v20z" />
    <glyph glyph-name="icircumflex" unicode="&#xee;" horiz-adv-x="296" 
d="M79 620l-115 -176h54l107 108l108 -108h55l-117 176h-92zM268 16q-33 0 -53 13t-20 46v225q0 22 2 62q1 22 1 34q-38 -9 -88 -14.5t-105 -7.5v-20q72 0 72 -50v-229q0 -33 -20 -46t-52 -13v-20q30 2 56.5 3t73.5 1q44 0 68 -1t57 -3h8v20z" />
    <glyph glyph-name="idieresis" unicode="&#xef;" horiz-adv-x="296" 
d="M224 582q-27 0 -45.5 -18.5t-18.5 -45.5t18.5 -45.5t45.5 -18.5t45.5 18.5t18.5 45.5t-18.5 45.5t-45.5 18.5zM27 582q-27 0 -45.5 -18.5t-18.5 -45.5t18.5 -45.5t45.5 -18.5t45.5 18.5t18.5 45.5t-18.5 45.5t-45.5 18.5zM268 16q-33 0 -53 13t-20 46v225q0 22 2 62
q1 22 1 34q-38 -9 -88 -14.5t-105 -7.5v-20q72 0 72 -50v-229q0 -33 -20 -46t-52 -13v-20q30 2 56.5 3t73.5 1q44 0 68 -1t57 -3h8v20z" />
    <glyph glyph-name="eth" unicode="&#xf0;" 
d="M143 206q0 71 24 108.5t66 37.5q46 0 78 -47t32 -137q0 -71 -24 -108.5t-66 -37.5q-46 0 -78 47.5t-32 136.5zM72 695q28 -19 61.5 -50.5t64.5 -68.5l-128 -73l22 -33l132 75q35 -44 58.5 -87t29.5 -78q-34 10 -69 10q-45 0 -87 -13.5t-75.5 -40t-52.5 -64.5t-19 -85
t19 -85t52.5 -64t75.5 -40t87 -14t87.5 15.5t75.5 46t52 74.5t19 100q0 48 -15 96t-41.5 94t-61.5 88.5t-75 80.5l131 74l-22 33l-140 -79q-75 65 -149 105z" />
    <glyph glyph-name="ntilde" unicode="&#xf1;" horiz-adv-x="556" 
d="M130 464q4 18 15 34t26 16q17 0 32.5 -6t39.5 -18q25 -13 43.5 -19.5t40.5 -6.5q21 0 38.5 12t31 31.5t21.5 41t11 41.5h-39q-9 -24 -19.5 -37t-31.5 -13q-10 0 -24 6t-36 17q-26 13 -43 20t-32 7q-51 0 -76.5 -34.5t-34.5 -91.5h37zM183 390q-32 -8 -74.5 -11t-106.5 -5
h-3v-20q66 0 66 -50v-229q0 -33 -19.5 -46t-49.5 -13v-20q26 2 53 3t74 1q49 0 74 -1t51 -3v20q-27 0 -46 13t-19 46v212q19 18 40 28.5t44 10.5q35 0 57 -18t22 -47v-186q0 -33 -18.5 -46t-45.5 -13v-20q21 2 47.5 3t74.5 1q49 0 73.5 -1t52.5 -3v20q-28 0 -47 13t-19 46
v188q0 58 -35.5 92.5t-96.5 34.5q-41 0 -76 -16t-73 -48v64z" />
    <glyph glyph-name="ograve" unicode="&#xf2;" 
d="M340 444l-115 139q-39 47 -70 47q-19 0 -33 -13t-14 -28q0 -29 24 -45l150 -100h58zM143 206q0 71 24 108.5t66 37.5q46 0 78 -47t32 -137q0 -71 -24 -108.5t-66 -37.5q-46 0 -78 47.5t-32 136.5zM243 390q-45 0 -87 -13.5t-75.5 -40t-52.5 -64.5t-19 -85t19 -85
t52.5 -64t75.5 -40t87 -14t87 14t75.5 40t52.5 64t19 85t-19 85t-52.5 64.5t-75.5 40t-87 13.5z" />
    <glyph glyph-name="oacute" unicode="&#xf3;" 
d="M238 444l150 100q24 16 24 45q0 15 -14 28t-33 13q-31 0 -70 -47l-115 -139h58zM143 206q0 71 24 108.5t66 37.5q46 0 78 -47t32 -137q0 -71 -24 -108.5t-66 -37.5q-46 0 -78 47.5t-32 136.5zM243 390q-45 0 -87 -13.5t-75.5 -40t-52.5 -64.5t-19 -85t19 -85t52.5 -64
t75.5 -40t87 -14t87 14t75.5 40t52.5 64t19 85t-19 85t-52.5 64.5t-75.5 40t-87 13.5z" />
    <glyph glyph-name="ocircumflex" unicode="&#xf4;" 
d="M208 620l-115 -176h54l107 108l108 -108h55l-117 176h-92zM143 206q0 71 24 108.5t66 37.5q46 0 78 -47t32 -137q0 -71 -24 -108.5t-66 -37.5q-46 0 -78 47.5t-32 136.5zM243 390q-45 0 -87 -13.5t-75.5 -40t-52.5 -64.5t-19 -85t19 -85t52.5 -64t75.5 -40t87 -14t87 14
t75.5 40t52.5 64t19 85t-19 85t-52.5 64.5t-75.5 40t-87 13.5z" />
    <glyph glyph-name="otilde" unicode="&#xf5;" 
d="M123 464q4 18 15 34t26 16q17 0 32.5 -6t39.5 -18q25 -13 43.5 -19.5t40.5 -6.5q21 0 38.5 12t31 31.5t21.5 41t11 41.5h-39q-9 -24 -19.5 -37t-31.5 -13q-10 0 -24 6t-36 17q-26 13 -43 20t-32 7q-51 0 -76.5 -34.5t-34.5 -91.5h37zM143 206q0 71 24 108.5t66 37.5
q46 0 78 -47t32 -137q0 -71 -24 -108.5t-66 -37.5q-46 0 -78 47.5t-32 136.5zM243 390q-45 0 -87 -13.5t-75.5 -40t-52.5 -64.5t-19 -85t19 -85t52.5 -64t75.5 -40t87 -14t87 14t75.5 40t52.5 64t19 85t-19 85t-52.5 64.5t-75.5 40t-87 13.5z" />
    <glyph glyph-name="odieresis" unicode="&#xf6;" 
d="M353 582q-27 0 -45.5 -18.5t-18.5 -45.5t18.5 -45.5t45.5 -18.5t45.5 18.5t18.5 45.5t-18.5 45.5t-45.5 18.5zM156 582q-27 0 -45.5 -18.5t-18.5 -45.5t18.5 -45.5t45.5 -18.5t45.5 18.5t18.5 45.5t-18.5 45.5t-45.5 18.5zM143 206q0 71 24 108.5t66 37.5q46 0 78 -47
t32 -137q0 -71 -24 -108.5t-66 -37.5q-46 0 -78 47.5t-32 136.5zM243 390q-45 0 -87 -13.5t-75.5 -40t-52.5 -64.5t-19 -85t19 -85t52.5 -64t75.5 -40t87 -14t87 14t75.5 40t52.5 64t19 85t-19 85t-52.5 64.5t-75.5 40t-87 13.5z" />
    <glyph glyph-name="divide" unicode="&#xf7;" horiz-adv-x="600" 
d="M472 149v76h-374v-76h374zM233 337q0 -22 16 -37.5t37 -15.5q22 0 37.5 16.5t15.5 36.5q0 22 -15.5 37.5t-37.5 15.5q-21 0 -37 -15.5t-16 -37.5zM233 37q0 -22 16 -37.5t37 -15.5q22 0 37.5 16.5t15.5 36.5q0 22 -15.5 37.5t-37.5 15.5q-21 0 -37 -15.5t-16 -37.5z" />
    <glyph glyph-name="oslash" unicode="&#xf8;" 
d="M160 99q-17 43 -17 107q0 71 24 108.5t66 37.5q40 0 68 -34zM136 6q48 -22 107 -22q45 0 87 14t75.5 40t52.5 64t19 85q0 59 -29.5 103.5t-79.5 71.5l65 99l-28 18l-68 -105q-44 16 -94 16q-45 0 -87 -13.5t-75.5 -40t-52.5 -64.5t-19 -85q0 -56 27 -98.5t73 -69.5
l-67 -104l24 -16zM320 288q23 -48 23 -120q0 -71 -24 -108.5t-66 -37.5q-46 0 -77 46z" />
    <glyph glyph-name="ugrave" unicode="&#xf9;" horiz-adv-x="537" 
d="M343 444l-115 139q-39 47 -70 47q-19 0 -33 -13t-14 -28q0 -29 24 -45l150 -100h58zM445 390q-33 -8 -76 -11t-114 -5v-20q72 0 72 -50v-220q-18 -17 -38 -25.5t-47 -8.5q-31 0 -49 19.5t-18 53.5v267q-32 -8 -74.5 -11t-106.5 -5h-3v-20q66 0 66 -50v-188
q0 -64 32.5 -98t87.5 -34q40 0 76 16t74 43v-59q33 8 76.5 11t113.5 5v20q-72 0 -72 50v320z" />
    <glyph glyph-name="uacute" unicode="&#xfa;" horiz-adv-x="537" 
d="M241 444l150 100q24 16 24 45q0 15 -14 28t-33 13q-31 0 -70 -47l-115 -139h58zM445 390q-33 -8 -76 -11t-114 -5v-20q72 0 72 -50v-220q-18 -17 -38 -25.5t-47 -8.5q-31 0 -49 19.5t-18 53.5v267q-32 -8 -74.5 -11t-106.5 -5h-3v-20q66 0 66 -50v-188q0 -64 32.5 -98
t87.5 -34q40 0 76 16t74 43v-59q33 8 76.5 11t113.5 5v20q-72 0 -72 50v320z" />
    <glyph glyph-name="ucircumflex" unicode="&#xfb;" horiz-adv-x="537" 
d="M211 620l-115 -176h54l107 108l108 -108h55l-117 176h-92zM445 390q-33 -8 -76 -11t-114 -5v-20q72 0 72 -50v-220q-18 -17 -38 -25.5t-47 -8.5q-31 0 -49 19.5t-18 53.5v267q-32 -8 -74.5 -11t-106.5 -5h-3v-20q66 0 66 -50v-188q0 -64 32.5 -98t87.5 -34q40 0 76 16
t74 43v-59q33 8 76.5 11t113.5 5v20q-72 0 -72 50v320z" />
    <glyph glyph-name="udieresis" unicode="&#xfc;" horiz-adv-x="537" 
d="M356 582q-27 0 -45.5 -18.5t-18.5 -45.5t18.5 -45.5t45.5 -18.5t45.5 18.5t18.5 45.5t-18.5 45.5t-45.5 18.5zM159 582q-27 0 -45.5 -18.5t-18.5 -45.5t18.5 -45.5t45.5 -18.5t45.5 18.5t18.5 45.5t-18.5 45.5t-45.5 18.5zM445 390q-33 -8 -76 -11t-114 -5v-20
q72 0 72 -50v-220q-18 -17 -38 -25.5t-47 -8.5q-31 0 -49 19.5t-18 53.5v267q-32 -8 -74.5 -11t-106.5 -5h-3v-20q66 0 66 -50v-188q0 -64 32.5 -98t87.5 -34q40 0 76 16t74 43v-59q33 8 76.5 11t113.5 5v20q-72 0 -72 50v320z" />
    <glyph glyph-name="yacute" unicode="&#xfd;" horiz-adv-x="537" 
d="M253 444l150 100q24 16 24 45q0 15 -14 28t-33 13q-31 0 -70 -47l-115 -139h58zM-27 358q37 -4 60 -25t39 -58l151 -331q-14 -27 -26 -48t-29 -44t-37 -38.5t-40 -15.5q-16 0 -27.5 5.5t-11.5 19.5q0 6 2 18t2 18q0 25 -17.5 41t-42.5 16q-31 0 -49.5 -20.5t-18.5 -51.5
q0 -41 35 -67.5t75 -26.5q58 0 101.5 27t74.5 77q20 31 49.5 83.5l61 112l57.5 111t41 84.5q27 59 52.5 86t56.5 27v20q-60 -4 -91 -4q-35 0 -105 4v-20q27 0 43.5 -12t16.5 -37q0 -11 -6.5 -32t-16.5 -45l-22.5 -52l-27.5 -60q-25 -53 -31 -69q-6 16 -32 71l-29.5 62
t-18.5 42.5t-16 44.5t-6 33q0 24 17 37.5t41 16.5v20q-84 -4 -126 -4q-82 0 -149 4v-20z" />
    <glyph glyph-name="thorn" unicode="&#xfe;" horiz-adv-x="556" 
d="M171 712q-35 -9 -84 -14.5t-100 -7.5v-20q66 0 66 -50v-761q0 -33 -12 -53.5t-52 -21.5v-20q86 4 129 4q58 0 174 -4v20q-40 3 -62.5 8t-35 16.5t-18 33.5t-5.5 61v114q26 -13 58 -18t77 -5q89 0 147.5 51t58.5 142q0 43 -15 80.5t-42 65t-64.5 42.5t-80.5 15
q-35 0 -68 -11.5t-71 -39.5v373zM171 276q11 23 42.5 43.5t61.5 20.5q54 0 77.5 -38t23.5 -117q0 -78 -23.5 -115.5t-77.5 -37.5q-55 0 -79.5 26t-24.5 74v144z" />
    <glyph glyph-name="ydieresis" unicode="&#xff;" horiz-adv-x="537" 
d="M368 582q-27 0 -45.5 -18.5t-18.5 -45.5t18.5 -45.5t45.5 -18.5t45.5 18.5t18.5 45.5t-18.5 45.5t-45.5 18.5zM171 582q-27 0 -45.5 -18.5t-18.5 -45.5t18.5 -45.5t45.5 -18.5t45.5 18.5t18.5 45.5t-18.5 45.5t-45.5 18.5zM-27 358q37 -4 60 -25t39 -58l151 -331
q-14 -27 -26 -48t-29 -44t-37 -38.5t-40 -15.5q-16 0 -27.5 5.5t-11.5 19.5q0 6 2 18t2 18q0 25 -17.5 41t-42.5 16q-31 0 -49.5 -20.5t-18.5 -51.5q0 -41 35 -67.5t75 -26.5q58 0 101.5 27t74.5 77q20 31 49.5 83.5l61 112l57.5 111t41 84.5q27 59 52.5 86t56.5 27v20
q-60 -4 -91 -4q-35 0 -105 4v-20q27 0 43.5 -12t16.5 -37q0 -11 -6.5 -32t-16.5 -45l-22.5 -52l-27.5 -60q-25 -53 -31 -69q-6 16 -32 71l-29.5 62t-18.5 42.5t-16 44.5t-6 33q0 24 17 37.5t41 16.5v20q-84 -4 -126 -4q-82 0 -149 4v-20z" />
    </font>
</defs>
</svg>
